<svg id="workshops" xmlns="http://www.w3.org/2000/svg" viewBox="0 0 612.01 464.72"><defs><style>.cls-1{fill:#1c9ad7;}</style></defs><title>Artboard 1</title><path class="cls-1" d="M199.63,392.13l-20.52-.67a3.56,3.56,0,0,1-2.4-1l-28.25-28.25a3.56,3.56,0,0,1-1-2.3l-1.26-20a3.56,3.56,0,0,1,1-2.68L244.81,234.5l7.91-5.13-32.19-32.25a62.68,62.68,0,0,1-72.61-78l1.76-6.58a3.56,3.56,0,0,1,5.92-1.64l32.62,31.46L212.64,118l-34-32.85a3.56,3.56,0,0,1,1.17-5.88L185.64,77a62.73,62.73,0,0,1,38.67-2.4,61.48,61.48,0,0,1,27.57,15.27,62.76,62.76,0,0,1,16.83,63.88l36.79,38h0a15.16,15.16,0,0,1-21.43-.34l-32.88-33.94,1.78-4.54a47.52,47.52,0,0,0-6-45.7A48.11,48.11,0,0,0,203.46,88l30.8,29.77L188.4,163.64l-27.51-26.54a47.51,47.51,0,0,0,17.8,35.54A46.77,46.77,0,0,0,221,181.48l4.23-1.13,48.38,48.46a3.56,3.56,0,0,1-.58,5.51l-18.42,11.93-91.88,96.63a3.56,3.56,0,0,0-1,2.68l.48,7.65a3.56,3.56,0,0,0,1,2.29l20,20a3.56,3.56,0,0,0,2.4,1l8,.26a3.56,3.56,0,0,0,2.64-1l97.58-97.58L303,246.47l-17.6-17.6a3.56,3.56,0,0,1,0-5.08L386.12,126l2-18.17a3.56,3.56,0,0,1,1.91-2.78l40.09-20.59a3.56,3.56,0,0,1,4.15.65L452,102.85a3.56,3.56,0,0,1,.66,4.12l-19.16,38a3.56,3.56,0,0,1-2.11,1.79l-15.24,4.81-75.78,74.25,42.3,41.69a62.38,62.38,0,0,1,25.4-3.4c31.88,2.28,57.41,29.06,58.25,61a62.39,62.39,0,0,1-5.51,27.39l-2.3,5.12a3.56,3.56,0,0,1-5.68,1.14L413,321.7l-24.4,24.4,37.2,34.52a3.56,3.56,0,0,1-1.68,6.1l-7.56,1.61a62.82,62.82,0,0,1-75.39-70.5L312.4,289h0a15.15,15.15,0,0,1,21.43,0l23.83,23.82-.86,4a47.67,47.67,0,0,0,39.74,57.23l-27-25.06a3.56,3.56,0,0,1-.1-5.13l40.84-40.83a3.56,3.56,0,0,1,5-.08l35.1,32.8a47.68,47.68,0,0,0-43.19-56.48,47.33,47.33,0,0,0-23.18,4.06l-4.73,2.12-58.62-57.79a2.59,2.59,0,0,1,0-3.69l87.5-85.74,12.61-4a3.56,3.56,0,0,0,2.11-1.8l11.35-22.54a3.56,3.56,0,0,0-.66-4.12l-2.15-2.15a3.56,3.56,0,0,0-4.15-.65l-23,11.81a3.56,3.56,0,0,0-1.91,2.78L400.6,133.1l-96.18,93.37,14.12,14.12a3.56,3.56,0,0,1,.9,3.51l-12.18,42-105,105A3.56,3.56,0,0,1,199.63,392.13Z"/></svg>