<svg xmlns="http://www.w3.org/2000/svg" viewBox="0 0 86.1 82.57"><defs><style>.cls-1,.cls-2,.cls-3,.cls-4,.cls-5{fill:#009ee2;}.cls-2,.cls-3,.cls-4,.cls-5{stroke:#009ee2;stroke-miterlimit:10;}.cls-2{stroke-width:0.5px;}.cls-3{stroke-width:0.68px;}.cls-4{stroke-width:0.3px;}.cls-5{stroke-width:2px;}</style></defs><title>Booking-step-5</title><g id="Layer_2" data-name="Layer 2"><g id="Layer_1-2" data-name="Layer 1"><path class="cls-1" d="M33.92,50.9,20.2,41.62a.87.87,0,0,1-.23-1.2l19.64-29A1.55,1.55,0,0,1,41.76,11l13.78,9.32a.86.86,0,0,0,1.35-.78L55.82,4.74A.86.86,0,0,0,54.74,4L37.87,8.39h0a1.93,1.93,0,0,1,.52,2.67l-.66,1-6-4A.71.71,0,0,1,32,6.73L57.56,0A.86.86,0,0,1,58.64.8L60.47,26a.71.71,0,0,1-1.1.64L41.31,14.39l-17,25.2a.87.87,0,0,0,.23,1.2l8.59,5.81a.87.87,0,0,0,1.2-.23L48.9,24.76a3.1,3.1,0,0,1,4.3-.83h0L35.13,50.66A.87.87,0,0,1,33.92,50.9Z"/><path class="cls-1" d="M3.45,66.5h0L17.18,47a3.1,3.1,0,0,1,4.3-.83h0L7.75,65.67A3.1,3.1,0,0,1,3.45,66.5Z"/><path class="cls-1" d="M4.41,82.23h0a3.1,3.1,0,0,1-.83-4.3l13.53-20h0a3.1,3.1,0,0,1,.83,4.3Z"/><path class="cls-1" d="M21.27,57.33h0a3.1,3.1,0,0,1-.83-4.3l3.17-4.81h0a3.1,3.1,0,0,1,.83,4.3Z"/><path class="cls-1" d="M14.24,73.8h0l8.5-12.57a3.1,3.1,0,0,1,4.3-.83h0L18.54,73A3.1,3.1,0,0,1,14.24,73.8Z"/><path class="cls-1" d="M25,57.43h0l2.39-3.17a3,3,0,0,1,4.11-.72h0l-2.39,3.17A3,3,0,0,1,25,57.43Z"/><path class="cls-1" d="M37.35,73.53A2.69,2.69,0,1,1,40,70.84,2.69,2.69,0,0,1,37.35,73.53Zm0-3.83a1.14,1.14,0,1,0,1.14,1.14A1.14,1.14,0,0,0,37.35,69.7Z"/><path class="cls-1" d="M15.18,40.78A1.77,1.77,0,1,1,17,39,1.78,1.78,0,0,1,15.18,40.78Zm0-2.71a.93.93,0,1,0,.93.93A.93.93,0,0,0,15.18,38.07Z"/><path class="cls-1" d="M1.77,73.21a1.77,1.77,0,1,1,1.77-1.77A1.78,1.78,0,0,1,1.77,73.21Zm0-2.71a.93.93,0,1,0,.93.93A.94.94,0,0,0,1.77,70.5Z"/><path class="cls-1" d="M19.64,79.77A1.77,1.77,0,1,1,21.41,78,1.78,1.78,0,0,1,19.64,79.77Zm0-2.71a.93.93,0,1,0,.93.93A.94.94,0,0,0,19.64,77.06Z"/><path class="cls-1" d="M37.18,57.78A1.77,1.77,0,1,1,39,56,1.78,1.78,0,0,1,37.18,57.78Zm0-2.71a.93.93,0,1,0,.93.93A.94.94,0,0,0,37.18,55.07Z"/><path class="cls-1" d="M8.35,43A2.69,2.69,0,1,1,11,40.36,2.69,2.69,0,0,1,8.35,43Zm0-3.83a1.14,1.14,0,1,0,1.14,1.14A1.14,1.14,0,0,0,8.35,39.22Z"/><path class="cls-1" d="M12.68,81.33a2.69,2.69,0,1,1,2.69-2.69A2.69,2.69,0,0,1,12.68,81.33Zm0-3.83a1.14,1.14,0,1,0,1.14,1.14A1.14,1.14,0,0,0,12.68,77.5Z"/><line class="cls-2" x1="76.6" y1="23.16" x2="76.6" y2="30.81"/><line class="cls-2" x1="76.6" y1="8.1" x2="76.6" y2="17.11"/><line class="cls-2" x1="73.57" y1="20.14" x2="66.35" y2="20.14"/><line class="cls-2" x1="86.1" y1="20.14" x2="79.62" y2="20.14"/><line class="cls-2" x1="74.46" y1="18" x2="69.78" y2="13.32"/><line class="cls-2" x1="83.87" y1="27.42" x2="78.74" y2="22.28"/><line class="cls-2" x1="78.73" y1="18" x2="84.13" y2="12.61"/><line class="cls-2" x1="71.45" y1="25.28" x2="74.46" y2="22.28"/><line class="cls-2" x1="75.4" y1="17.36" x2="73.31" y2="12.52"/><line class="cls-2" x1="79.5" y1="26.88" x2="77.79" y2="22.92"/><line class="cls-2" x1="77.75" y1="17.34" x2="79.77" y2="12.47"/><line class="cls-2" x1="72.95" y1="28.96" x2="75.44" y2="22.93"/><line class="cls-2" x1="79.41" y1="19.03" x2="83.65" y2="17.36"/><line class="cls-2" x1="67.65" y1="23.66" x2="73.78" y2="21.25"/><line class="cls-2" x1="73.79" y1="19.01" x2="69.96" y2="17.46"/><line class="cls-2" x1="82.86" y1="22.67" x2="79.4" y2="21.27"/><line class="cls-3" x1="58.85" y1="72.1" x2="58.85" y2="82.57"/><line class="cls-3" x1="58.85" y1="51.51" x2="58.85" y2="63.83"/><line class="cls-3" x1="54.72" y1="67.97" x2="44.85" y2="67.97"/><line class="cls-3" x1="71.86" y1="67.97" x2="62.99" y2="67.97"/><line class="cls-3" x1="55.93" y1="65.04" x2="49.54" y2="58.65"/><line class="cls-3" x1="68.81" y1="77.92" x2="61.78" y2="70.89"/><line class="cls-3" x1="61.78" y1="65.04" x2="69.15" y2="57.67"/><line class="cls-3" x1="51.82" y1="75" x2="55.93" y2="70.89"/><line class="cls-3" x1="57.22" y1="64.17" x2="54.36" y2="57.55"/><line class="cls-3" x1="62.83" y1="77.19" x2="60.49" y2="71.77"/><line class="cls-3" x1="60.43" y1="64.15" x2="63.19" y2="57.48"/><line class="cls-3" x1="53.86" y1="80.03" x2="57.27" y2="71.79"/><line class="cls-3" x1="62.7" y1="66.45" x2="68.5" y2="64.17"/><line class="cls-3" x1="46.61" y1="72.79" x2="55.01" y2="69.48"/><line class="cls-3" x1="55.02" y1="66.42" x2="49.78" y2="64.31"/><line class="cls-3" x1="67.42" y1="71.43" x2="62.69" y2="69.52"/><line class="cls-4" x1="10.98" y1="29.65" x2="10.98" y2="34.26"/><line class="cls-4" x1="10.98" y1="20.58" x2="10.98" y2="26.01"/><line class="cls-4" x1="9.16" y1="27.83" x2="4.82" y2="27.83"/><line class="cls-4" x1="16.71" y1="27.83" x2="12.8" y2="27.83"/><line class="cls-4" x1="9.69" y1="26.54" x2="6.88" y2="23.73"/><line class="cls-4" x1="15.36" y1="32.21" x2="12.27" y2="29.12"/><line class="cls-4" x1="12.27" y1="26.54" x2="15.52" y2="23.29"/><line class="cls-4" x1="7.88" y1="30.93" x2="9.69" y2="29.12"/><line class="cls-4" x1="10.26" y1="26.16" x2="9.01" y2="23.24"/><line class="cls-4" x1="12.73" y1="31.89" x2="11.7" y2="29.5"/><line class="cls-4" x1="11.68" y1="26.15" x2="12.89" y2="23.21"/><line class="cls-4" x1="8.79" y1="33.14" x2="10.29" y2="29.51"/><line class="cls-4" x1="12.68" y1="27.16" x2="15.23" y2="26.16"/><line class="cls-4" x1="5.59" y1="29.95" x2="9.29" y2="28.5"/><line class="cls-4" x1="9.29" y1="27.15" x2="6.99" y2="26.22"/><line class="cls-4" x1="14.76" y1="29.35" x2="12.67" y2="28.51"/><line class="cls-5" x1="49.54" y1="26.22" x2="30.72" y2="26.16"/><line class="cls-5" x1="53.3" y1="21.08" x2="34.48" y2="21.02"/><line class="cls-5" x1="45.89" y1="15.79" x2="38.11" y2="15.76"/><line class="cls-5" x1="45.89" y1="31.36" x2="28.71" y2="31.3"/><line class="cls-5" x1="43.89" y1="36.36" x2="25.18" y2="36.3"/><line class="cls-5" x1="38.95" y1="41.36" x2="22.17" y2="41.3"/><line class="cls-5" x1="37.35" y1="45.68" x2="28.71" y2="45.62"/></g></g></svg>