<?xml version="1.0" encoding="utf-8"?>
<!-- Generator: Adobe Illustrator 22.0.1, SVG Export Plug-In . SVG Version: 6.00 Build 0)  -->
<svg version="1.1" id="Layer_1" xmlns="http://www.w3.org/2000/svg" xmlns:xlink="http://www.w3.org/1999/xlink" x="0px" y="0px"
	 viewBox="0 0 428.5 150.2" style="enable-background:new 0 0 428.5 150.2;" xml:space="preserve">
<style type="text/css">
	.st0{fill:none;stroke:url(#SVGID_1_);stroke-width:3;stroke-linecap:round;stroke-miterlimit:10;}
	.st1{fill:#FFFFFD;stroke:#CAC9C7;stroke-width:0.9191;stroke-miterlimit:10;}
	.st2{fill:#443F8F;}
	.st3{fill:#F5A735;}
	.st4{fill:#E73C2F;}
	.st5{fill:url(#SVGID_2_);}
	.st6{fill:url(#SVGID_3_);}
	.st7{fill:#209AD6;}
	.st8{fill:#0A69B1;}
	.st9{fill:#DF1B81;}
	.st10{fill:#76C9F1;}
	.st11{fill:#922680;}
	.st12{fill:none;stroke:#C7C6C5;stroke-width:2;stroke-linecap:round;stroke-linejoin:round;stroke-miterlimit:10;}
	.st13{fill:#B2B2B2;stroke:#C7C6C5;stroke-width:2;stroke-linecap:round;stroke-linejoin:round;stroke-miterlimit:10;}
	.st14{fill:none;stroke:url(#SVGID_4_);stroke-width:3;stroke-linecap:round;stroke-miterlimit:10;}
	.st15{fill:url(#SVGID_5_);}
	.st16{fill:none;stroke:url(#SVGID_6_);stroke-width:3;stroke-linecap:round;stroke-miterlimit:10;}
	.st17{fill:url(#SVGID_7_);}
	.st18{fill:none;stroke:#C7C6C5;stroke-width:2;stroke-linecap:round;stroke-linejoin:round;}
	.st19{fill:none;stroke:#C7C6C5;stroke-width:2;stroke-linecap:round;stroke-linejoin:round;stroke-dasharray:4.1103,4.7953;}
	.st20{fill:none;stroke:#C7C6C5;stroke-width:2;stroke-linecap:round;stroke-linejoin:round;stroke-dasharray:6.0195,7.0228;}
	.st21{fill:#FFFFFF;stroke:#FFFFFF;stroke-width:5.62;stroke-miterlimit:10;}
	.st22{fill:#FFFFFF;stroke:#FFFFFF;stroke-width:5.364;stroke-miterlimit:10;}
	.st23{fill:#FFFFFF;stroke:#FFFFFF;stroke-width:3.7863;stroke-miterlimit:10;}
	.st24{fill:#FFFFFF;}
	.st25{fill:#FFFFFF;stroke:#FFFFFF;stroke-width:7.5727;stroke-linecap:round;stroke-linejoin:round;stroke-miterlimit:10;}
	.st26{fill:none;stroke:url(#SVGID_8_);stroke-width:3;stroke-linecap:round;stroke-linejoin:round;stroke-miterlimit:10;}
	.st27{fill:none;stroke:url(#SVGID_9_);stroke-width:3;stroke-linecap:round;stroke-linejoin:round;stroke-miterlimit:10;}
	.st28{fill:none;stroke:url(#SVGID_10_);stroke-width:3;stroke-linecap:round;stroke-linejoin:round;stroke-miterlimit:10;}
	.st29{fill:none;stroke:url(#SVGID_11_);stroke-width:3;stroke-linecap:round;stroke-linejoin:round;stroke-miterlimit:10;}
	.st30{fill:none;stroke:url(#SVGID_12_);stroke-width:3;stroke-linecap:round;stroke-linejoin:round;stroke-miterlimit:10;}
	.st31{fill:#FFFFFF;stroke:#FFFFFF;stroke-width:6;stroke-linecap:round;stroke-miterlimit:10;}
	.st32{fill:none;stroke:url(#SVGID_13_);stroke-width:3;stroke-linecap:round;stroke-miterlimit:10;}
	.st33{fill:url(#SVGID_14_);}
	.st34{fill:url(#SVGID_15_);}
	.st35{fill:url(#SVGID_16_);}
	.st36{fill:url(#SVGID_17_);}
	.st37{fill:url(#SVGID_18_);}
	.st38{fill:url(#SVGID_19_);}
	.st39{fill:none;stroke:url(#SVGID_20_);stroke-width:3;stroke-linecap:round;stroke-linejoin:round;stroke-miterlimit:10;}
	.st40{fill:none;stroke:url(#SVGID_21_);stroke-width:3;stroke-linecap:round;stroke-linejoin:round;stroke-miterlimit:10;}
	.st41{fill:none;stroke:url(#SVGID_22_);stroke-width:3;stroke-linecap:round;stroke-linejoin:round;stroke-miterlimit:10;}
	.st42{fill:none;stroke:url(#SVGID_23_);stroke-width:3;stroke-linecap:round;stroke-linejoin:round;stroke-miterlimit:10;}
	.st43{fill:none;stroke:url(#SVGID_24_);stroke-width:3;stroke-linecap:round;stroke-linejoin:round;stroke-miterlimit:10;}
	.st44{fill:none;stroke:url(#SVGID_25_);stroke-width:3;stroke-linecap:round;stroke-miterlimit:10;}
	.st45{fill:url(#SVGID_26_);}
	.st46{fill:url(#SVGID_27_);}
	.st47{fill:url(#SVGID_28_);}
	.st48{fill:url(#SVGID_29_);}
	.st49{fill:url(#SVGID_30_);}
	.st50{fill:url(#SVGID_31_);}
</style>
<linearGradient id="SVGID_1_" gradientUnits="userSpaceOnUse" x1="597.6472" y1="-1252.6652" x2="582.8336" y2="-1267.4789" gradientTransform="matrix(0 1 -1 0 624.2934 -548.0619)">
	<stop  offset="0" style="stop-color:#F6A733"/>
	<stop  offset="0.7203" style="stop-color:#EA6031"/>
	<stop  offset="1" style="stop-color:#E73B30"/>
</linearGradient>
<polyline class="st0" points="1875.3,45.8 1880.7,51.2 1893.4,38.6 "/>
<polygon class="st1" points="1694.3,17.8 1716.6,42.9 1694.3,69 1607.1,69 1607.1,17.8 "/>
<g>
	<g>
		<path class="st2" d="M1636.6,35.7l-1.7-6.7h0.9l0.8,3.4c0.2,0.8,0.4,1.7,0.5,2.3h0c0.1-0.7,0.3-1.5,0.5-2.3l0.9-3.4h0.9l0.8,3.4
			c0.2,0.8,0.4,1.6,0.5,2.3h0c0.1-0.7,0.3-1.5,0.5-2.3l0.9-3.4h0.9l-1.9,6.7h-0.9l-0.8-3.5c-0.2-0.9-0.3-1.5-0.4-2.2h0
			c-0.1,0.7-0.3,1.3-0.5,2.2l-1,3.5H1636.6z"/>
		<path class="st2" d="M1643.9,28.6h0.9v3h0c0.1-0.2,0.4-0.5,0.6-0.6c0.3-0.2,0.6-0.2,0.9-0.2c0.6,0,1.7,0.4,1.7,2.1v2.9h-0.9v-2.8
			c0-0.8-0.3-1.4-1.1-1.4c-0.6,0-1,0.4-1.2,0.9c0,0.1-0.1,0.2-0.1,0.4v2.9h-0.9V28.6z"/>
		<path class="st2" d="M1650,33.4c0,1.2,0.8,1.7,1.7,1.7c0.6,0,1-0.1,1.3-0.2l0.1,0.6c-0.3,0.1-0.8,0.3-1.6,0.3
			c-1.5,0-2.4-1-2.4-2.4c0-1.5,0.9-2.6,2.3-2.6c1.6,0,2,1.4,2,2.3c0,0.2,0,0.3,0,0.4H1650z M1652.5,32.8c0-0.6-0.2-1.4-1.2-1.4
			c-0.9,0-1.3,0.8-1.3,1.4H1652.5z"/>
		<path class="st2" d="M1654.5,32.2c0-0.5,0-0.9,0-1.3h0.8l0.1,0.8h0c0.2-0.5,0.8-0.9,1.6-0.9c0.7,0,1.7,0.4,1.7,2.1v2.9h-0.9v-2.8
			c0-0.8-0.3-1.4-1.1-1.4c-0.6,0-1,0.4-1.2,0.9c0,0.1-0.1,0.3-0.1,0.4v2.9h-0.9V32.2z"/>
		<path class="st2" d="M1662.5,30.8l1.1,2.9c0.1,0.3,0.2,0.7,0.3,1h0c0.1-0.3,0.2-0.7,0.3-1l1-2.8h0.9l-1.3,3.4
			c-0.6,1.7-1.1,2.5-1.7,3c-0.4,0.4-0.9,0.5-1.1,0.6l-0.2-0.7c0.2-0.1,0.5-0.2,0.8-0.4c0.2-0.2,0.5-0.5,0.7-1c0-0.1,0.1-0.2,0.1-0.2
			c0,0,0-0.1-0.1-0.2l-1.8-4.5H1662.5z"/>
		<path class="st2" d="M1671.1,33.2c0,1.8-1.2,2.6-2.4,2.6c-1.3,0-2.3-1-2.3-2.5c0-1.6,1.1-2.6,2.4-2.6
			C1670.2,30.7,1671.1,31.7,1671.1,33.2z M1667.3,33.3c0,1.1,0.6,1.9,1.5,1.9c0.8,0,1.5-0.8,1.5-1.9c0-0.8-0.4-1.9-1.4-1.9
			C1667.8,31.4,1667.3,32.4,1667.3,33.3z"/>
		<path class="st2" d="M1676.3,34.4c0,0.5,0,0.9,0,1.3h-0.8l0-0.8h0c-0.2,0.4-0.7,0.9-1.6,0.9c-0.8,0-1.7-0.4-1.7-2.1v-2.8h0.9v2.7
			c0,0.9,0.3,1.5,1.1,1.5c0.6,0,1-0.4,1.2-0.8c0-0.1,0.1-0.3,0.1-0.5v-3h0.9V34.4z"/>
		<path class="st2" d="M1677.8,32.4c0-0.6,0-1.1,0-1.5h0.8l0,0.9h0c0.2-0.6,0.7-1.1,1.3-1.1c0.1,0,0.2,0,0.2,0v0.8
			c-0.1,0-0.2,0-0.3,0c-0.6,0-1.1,0.5-1.2,1.1c0,0.1,0,0.3,0,0.4v2.6h-0.9V32.4z"/>
		<path class="st2" d="M1620.9,46.7c0-0.3,0-0.8,0-1.2v-5.8h0.9v3h0c0.3-0.5,0.9-0.9,1.6-0.9c1.2,0,2,1,2,2.5c0,1.7-1.1,2.6-2.2,2.6
			c-0.7,0-1.3-0.3-1.6-0.9h0l0,0.8H1620.9z M1621.8,44.7c0,0.1,0,0.2,0,0.3c0.2,0.6,0.7,1,1.3,1c0.9,0,1.5-0.7,1.5-1.9
			c0-1-0.5-1.8-1.4-1.8c-0.6,0-1.2,0.4-1.3,1.1c0,0.1,0,0.2,0,0.4V44.7z"/>
		<path class="st2" d="M1631,44.2c0,1.8-1.2,2.6-2.4,2.6c-1.3,0-2.3-1-2.3-2.5c0-1.6,1.1-2.6,2.4-2.6C1630,41.7,1631,42.7,1631,44.2
			z M1627.1,44.3c0,1.1,0.6,1.9,1.5,1.9c0.8,0,1.5-0.8,1.5-1.9c0-0.8-0.4-1.9-1.4-1.9C1627.6,42.4,1627.1,43.4,1627.1,44.3z"/>
		<path class="st2" d="M1636.5,44.2c0,1.8-1.2,2.6-2.4,2.6c-1.3,0-2.3-1-2.3-2.5c0-1.6,1.1-2.6,2.4-2.6
			C1635.5,41.7,1636.5,42.7,1636.5,44.2z M1632.6,44.3c0,1.1,0.6,1.9,1.5,1.9c0.8,0,1.5-0.8,1.5-1.9c0-0.8-0.4-1.9-1.4-1.9
			C1633.1,42.4,1632.6,43.4,1632.6,44.3z"/>
		<path class="st2" d="M1638.5,44.1L1638.5,44.1c0.1-0.2,0.3-0.4,0.4-0.5l1.4-1.7h1.1l-1.9,2l2.1,2.8h-1.1l-1.7-2.3l-0.4,0.5v1.8
			h-0.9v-7.1h0.9V44.1z"/>
		<path class="st2" d="M1643.4,40.5c0,0.3-0.2,0.5-0.6,0.5c-0.3,0-0.5-0.2-0.5-0.5c0-0.3,0.2-0.5,0.5-0.5
			C1643.2,39.9,1643.4,40.2,1643.4,40.5z M1642.4,46.7v-4.8h0.9v4.8H1642.4z"/>
		<path class="st2" d="M1644.8,43.2c0-0.5,0-0.9,0-1.3h0.8l0.1,0.8h0c0.2-0.5,0.8-0.9,1.6-0.9c0.7,0,1.7,0.4,1.7,2.1v2.9h-0.9v-2.8
			c0-0.8-0.3-1.4-1.1-1.4c-0.6,0-1,0.4-1.2,0.9c0,0.1-0.1,0.3-0.1,0.4v2.9h-0.9V43.2z"/>
		<path class="st2" d="M1654.5,41.8c0,0.3,0,0.7,0,1.3V46c0,1.1-0.2,1.8-0.7,2.2c-0.5,0.4-1.1,0.6-1.8,0.6c-0.6,0-1.2-0.1-1.6-0.4
			l0.2-0.7c0.3,0.2,0.8,0.4,1.4,0.4c0.9,0,1.6-0.5,1.6-1.7v-0.5h0c-0.3,0.4-0.8,0.8-1.5,0.8c-1.2,0-2.1-1-2.1-2.4
			c0-1.6,1.1-2.6,2.2-2.6c0.8,0,1.3,0.4,1.5,0.8h0l0-0.7H1654.5z M1653.6,43.8c0-0.1,0-0.3-0.1-0.4c-0.2-0.5-0.6-0.9-1.2-0.9
			c-0.8,0-1.4,0.7-1.4,1.8c0,0.9,0.5,1.7,1.4,1.7c0.5,0,1-0.3,1.2-0.9c0-0.2,0.1-0.3,0.1-0.5V43.8z"/>
		<path class="st2" d="M1657.9,45.8c0.3,0.2,0.7,0.3,1.2,0.3c0.6,0,0.9-0.3,0.9-0.7c0-0.4-0.2-0.6-0.9-0.9c-0.9-0.3-1.3-0.8-1.3-1.4
			c0-0.8,0.6-1.4,1.7-1.4c0.5,0,0.9,0.1,1.2,0.3l-0.2,0.6c-0.2-0.1-0.5-0.3-1-0.3c-0.5,0-0.8,0.3-0.8,0.7c0,0.4,0.3,0.6,0.9,0.8
			c0.8,0.3,1.3,0.7,1.3,1.5c0,0.8-0.7,1.4-1.8,1.4c-0.5,0-1-0.1-1.4-0.3L1657.9,45.8z"/>
		<path class="st2" d="M1662.3,41.8l1.1,2.9c0.1,0.3,0.2,0.7,0.3,1h0c0.1-0.3,0.2-0.7,0.3-1l1-2.8h0.9l-1.3,3.4
			c-0.6,1.7-1.1,2.5-1.7,3c-0.4,0.4-0.9,0.5-1.1,0.6l-0.2-0.7c0.2-0.1,0.5-0.2,0.8-0.4c0.2-0.2,0.5-0.5,0.7-1c0-0.1,0.1-0.2,0.1-0.2
			c0,0,0-0.1-0.1-0.2l-1.8-4.5H1662.3z"/>
		<path class="st2" d="M1666.5,45.8c0.3,0.2,0.7,0.3,1.2,0.3c0.6,0,0.9-0.3,0.9-0.7c0-0.4-0.2-0.6-0.9-0.9c-0.9-0.3-1.3-0.8-1.3-1.4
			c0-0.8,0.6-1.4,1.7-1.4c0.5,0,0.9,0.1,1.2,0.3l-0.2,0.6c-0.2-0.1-0.5-0.3-1-0.3c-0.5,0-0.8,0.3-0.8,0.7c0,0.4,0.3,0.6,0.9,0.8
			c0.8,0.3,1.3,0.7,1.3,1.5c0,0.8-0.7,1.4-1.8,1.4c-0.5,0-1-0.1-1.4-0.3L1666.5,45.8z"/>
		<path class="st2" d="M1671.7,40.5v1.4h1.3v0.7h-1.3v2.6c0,0.6,0.2,0.9,0.7,0.9c0.2,0,0.4,0,0.5-0.1l0,0.7
			c-0.2,0.1-0.4,0.1-0.8,0.1c-0.4,0-0.7-0.1-0.9-0.4c-0.2-0.3-0.3-0.7-0.3-1.3v-2.6h-0.8v-0.7h0.8v-1.2L1671.7,40.5z"/>
		<path class="st2" d="M1674.4,44.4c0,1.2,0.8,1.7,1.7,1.7c0.6,0,1-0.1,1.3-0.2l0.1,0.6c-0.3,0.1-0.8,0.3-1.6,0.3
			c-1.5,0-2.4-1-2.4-2.4s0.9-2.6,2.3-2.6c1.6,0,2,1.4,2,2.3c0,0.2,0,0.3,0,0.4H1674.4z M1676.9,43.8c0-0.6-0.2-1.4-1.2-1.4
			c-0.9,0-1.3,0.8-1.3,1.4H1676.9z"/>
		<path class="st2" d="M1678.9,43.2c0-0.5,0-0.9,0-1.3h0.8l0,0.8h0c0.3-0.5,0.7-0.9,1.5-0.9c0.7,0,1.2,0.4,1.4,1h0
			c0.2-0.3,0.3-0.5,0.5-0.6c0.3-0.2,0.6-0.3,1.1-0.3c0.6,0,1.6,0.4,1.6,2.1v2.8h-0.9v-2.7c0-0.9-0.3-1.5-1-1.5c-0.5,0-0.9,0.4-1,0.8
			c0,0.1-0.1,0.3-0.1,0.4v3h-0.9v-2.9c0-0.8-0.3-1.3-1-1.3c-0.5,0-0.9,0.4-1.1,0.9c0,0.1-0.1,0.3-0.1,0.4v2.9h-0.9V43.2z"/>
		<path class="st2" d="M1690.3,40.5c0,0.3-0.2,0.5-0.6,0.5c-0.3,0-0.5-0.2-0.5-0.5c0-0.3,0.2-0.5,0.5-0.5
			C1690.1,39.9,1690.3,40.2,1690.3,40.5z M1689.3,46.7v-4.8h0.9v4.8H1689.3z"/>
		<path class="st2" d="M1691.6,45.8c0.3,0.2,0.7,0.3,1.2,0.3c0.6,0,0.9-0.3,0.9-0.7c0-0.4-0.2-0.6-0.9-0.9c-0.9-0.3-1.3-0.8-1.3-1.4
			c0-0.8,0.6-1.4,1.7-1.4c0.5,0,0.9,0.1,1.2,0.3l-0.2,0.6c-0.2-0.1-0.5-0.3-1-0.3c-0.5,0-0.8,0.3-0.8,0.7c0,0.4,0.3,0.6,0.9,0.8
			c0.8,0.3,1.3,0.7,1.3,1.5c0,0.8-0.7,1.4-1.8,1.4c-0.5,0-1-0.1-1.4-0.3L1691.6,45.8z"/>
		<path class="st2" d="M1651.8,55.2c0,1.8-1.2,2.6-2.4,2.6c-1.3,0-2.3-1-2.3-2.5c0-1.6,1.1-2.6,2.4-2.6
			C1650.8,52.7,1651.8,53.7,1651.8,55.2z M1647.9,55.3c0,1.1,0.6,1.9,1.5,1.9c0.8,0,1.5-0.8,1.5-1.9c0-0.8-0.4-1.9-1.4-1.9
			C1648.4,53.4,1647.9,54.4,1647.9,55.3z"/>
		<path class="st2" d="M1652.9,54.4c0-0.6,0-1.1,0-1.6h0.8l0,0.8h0c0.4-0.6,0.9-0.9,1.7-0.9c1.2,0,2,1,2,2.5c0,1.7-1.1,2.6-2.2,2.6
			c-0.6,0-1.2-0.3-1.5-0.8h0v2.6h-0.9V54.4z M1653.8,55.7c0,0.1,0,0.2,0,0.4c0.2,0.6,0.7,1,1.3,1c0.9,0,1.5-0.8,1.5-1.9
			c0-1-0.5-1.8-1.4-1.8c-0.6,0-1.2,0.4-1.3,1.1c0,0.1-0.1,0.2-0.1,0.4V55.7z"/>
		<path class="st2" d="M1659.1,55.4c0,1.2,0.8,1.7,1.7,1.7c0.6,0,1-0.1,1.3-0.2l0.1,0.6c-0.3,0.1-0.8,0.3-1.6,0.3
			c-1.5,0-2.4-1-2.4-2.4s0.9-2.6,2.3-2.6c1.6,0,2,1.4,2,2.3c0,0.2,0,0.3,0,0.4H1659.1z M1661.7,54.8c0-0.6-0.2-1.4-1.2-1.4
			c-0.9,0-1.3,0.8-1.3,1.4H1661.7z"/>
		<path class="st2" d="M1663.6,54.2c0-0.5,0-0.9,0-1.3h0.8l0.1,0.8h0c0.2-0.5,0.8-0.9,1.6-0.9c0.7,0,1.7,0.4,1.7,2.1v2.9h-0.9v-2.8
			c0-0.8-0.3-1.4-1.1-1.4c-0.6,0-1,0.4-1.2,0.9c0,0.1-0.1,0.3-0.1,0.4v2.9h-0.9V54.2z"/>
	</g>
</g>
<g>
	<path class="st3" d="M1941.9,49.6h4h7h2.6c3.9,0-0.7,2.1-0.7-1.4v1l1.6,1.5l1.1,0.6c0.8-0.2-0.2,1.3,0.6,2.2
		c0.5,0.6,2.3,2.2,2.4,2.3h-9.6C1947,55.8,1941.9,53,1941.9,49.6z"/>
	<path class="st4" d="M1957.7,50.7l0.4,0.7c0.8-0.2,0.5,1.1,1.3,2.1c0.5,0.6,1.3,2.1,1.4,2.3l-0.2,0c-1.3-0.1-12.3,0.4-14.6-6.3h3.9
		h7h0"/>
	<linearGradient id="SVGID_2_" gradientUnits="userSpaceOnUse" x1="1915.828" y1="38.5686" x2="1934.194" y2="38.5686">
		<stop  offset="0" style="stop-color:#525252"/>
		<stop  offset="6.994039e-02" style="stop-color:#787878"/>
		<stop  offset="0.1496" style="stop-color:#9C9C9C"/>
		<stop  offset="0.2368" style="stop-color:#BBBBBB"/>
		<stop  offset="0.3316" style="stop-color:#D4D4D4"/>
		<stop  offset="0.4372" style="stop-color:#E7E7E7"/>
		<stop  offset="0.5593" style="stop-color:#F5F5F5"/>
		<stop  offset="0.713" style="stop-color:#FDFDFD"/>
		<stop  offset="1" style="stop-color:#FFFFFF"/>
	</linearGradient>
	<path class="st5" d="M1932,33.7c-1.1-1-2.7-1.7-4.3-1.7h-3h-3.5h-5.4v6.5h2.4h6.5h3c3.6,0,6.5,2.9,6.5,6.5V44v-3.2v-2.2
		C1934.2,36.6,1933.4,34.9,1932,33.7z"/>
	<linearGradient id="SVGID_3_" gradientUnits="userSpaceOnUse" x1="1915.828" y1="49.3721" x2="1915.828" y2="32.0865">
		<stop  offset="0" style="stop-color:#525252"/>
		<stop  offset="6.994039e-02" style="stop-color:#787878"/>
		<stop  offset="0.1496" style="stop-color:#9C9C9C"/>
		<stop  offset="0.2368" style="stop-color:#BBBBBB"/>
		<stop  offset="0.3316" style="stop-color:#D4D4D4"/>
		<stop  offset="0.4372" style="stop-color:#E7E7E7"/>
		<stop  offset="0.5593" style="stop-color:#F5F5F5"/>
		<stop  offset="0.713" style="stop-color:#FDFDFD"/>
		<stop  offset="1" style="stop-color:#FFFFFF"/>
	</linearGradient>
	<path class="st6" d="M1915.8,49.4V44v-5.4c0-3.6,2.9-6.5,6.5-6.5h-6.5c-1.7,0-3.2,0.6-4.3,1.7c-1.3,1.2-2.2,2.9-2.2,4.8v2.2v2.2
		C1909.3,46.5,1912.2,49.4,1915.8,49.4z"/>
	<path class="st7" d="M1932,33.7c-1.1-1-2.7-1.7-4.3-1.7h-3h-3.5h-5.4v6.5h2.4h6.5h3c0,0,6.5,7,6.5,10.6V45v-4.3v-2.2
		C1934.2,36.6,1933.4,34.9,1932,33.7z"/>
	<path class="st8" d="M1915.8,49.4V44v-5.4c0,0,6.9-6.5,6.9-6.4c0,0,0,0,0,0h-6.9c-1.7,0-3.2,0.6-4.3,1.7c-1.3,1.2-2.2,2.9-2.2,4.8
		v2.2v2.2C1909.3,46.5,1910.8,49.4,1915.8,49.4z"/>
	<path class="st9" d="M1949.7,31.9l11,23.9l0,0c0,0-6.6,0-9.7-6.3l-5.3-11.4C1944.4,35.2,1946.5,31.9,1949.7,31.9L1949.7,31.9z"/>
	<path class="st10" d="M1927.7,38.6V44v5.4c0,4.2-6.3,6.5-9.9,6.5h9.9c1.7,0,3.2-0.6,4.3-1.7c1.3-1.2,2.2-2.9,2.2-4.8v-2.2v-2.2
		C1934.2,45.1,1927.7,38.6,1927.7,38.6z"/>
	<path class="st11" d="M1949.7,31.9c0,0-8-0.6-11.4,7.9c-4.4,10.9-7.4,16-18.3,16c-0.1,0,5.9,0,10.3,0c5.6,0,8.9-2,12-8.2
		C1945.3,41.9,1945.6,35.6,1949.7,31.9z"/>
	<path class="st10" d="M1925.6,34.5"/>
	<path class="st4" d="M1952.2,47"/>
	<path class="st4" d="M1933.5,48.2"/>
	<path class="st10" d="M1930.5,39.5"/>
	<path class="st2" d="M1909.4,48.1c0,5.9,4.8,7.8,6.5,7.8h5c3.6,0,6.8-3.7,6.8-6.5h-2.9h-3.6h-5.3c0,0-6.5-7.5-6.5-7.5"/>
</g>
<g>
	<g>
		<line class="st12" x1="1788.6" y1="105.9" x2="1788.6" y2="130.4"/>
		<polyline class="st12" points="1776.2,119.3 1788.4,131.4 1800.5,119.3 		"/>
	</g>
	<path class="st13" d="M1788.4,90.9"/>
	<path class="st13" d="M1788.4,85.2"/>
</g>
<g>
	<g>
		<line class="st12" x1="1684.9" y1="106.3" x2="1661" y2="130.2"/>
		<polyline class="st12" points="1660.2,113.5 1660.2,130.7 1677.3,130.7 		"/>
	</g>
	<path class="st13" d="M1688.8,102.1"/>
</g>
<g>
	<g>
		<line class="st12" x1="1745.3" y1="106.3" x2="1721.5" y2="130.2"/>
		<polyline class="st12" points="1720.6,113.5 1720.6,130.7 1737.8,130.7 		"/>
	</g>
	<path class="st13" d="M1749.3,102.1"/>
</g>
<g>
	<g>
		<line class="st12" x1="1890.7" y1="106.3" x2="1914.2" y2="129.9"/>
		<polyline class="st12" points="1897.6,130.7 1914.8,130.7 1914.8,113.5 		"/>
	</g>
</g>
<g>
	<g>
		<line class="st12" x1="1831.1" y1="106.3" x2="1854.6" y2="129.9"/>
		<polyline class="st12" points="1837.9,130.7 1855.1,130.7 1855.1,113.5 		"/>
	</g>
</g>
<g>
	<g>
		<path class="st2" d="M1730.4,96v-4l-3-5.4h1.4l1.3,2.6c0.4,0.7,0.6,1.3,0.9,1.9h0c0.3-0.6,0.6-1.2,1-1.9l1.4-2.6h1.4l-3.2,5.4v4
			H1730.4z"/>
		<path class="st2" d="M1740.9,92.6c0,2.5-1.7,3.6-3.4,3.6c-1.8,0-3.2-1.3-3.2-3.5c0-2.3,1.5-3.6,3.4-3.6
			C1739.6,89.1,1740.9,90.5,1740.9,92.6z M1735.5,92.6c0,1.5,0.9,2.6,2.1,2.6c1.2,0,2.1-1.1,2.1-2.6c0-1.1-0.6-2.6-2-2.6
			S1735.5,91.3,1735.5,92.6z"/>
		<path class="st2" d="M1748.1,94.2c0,0.7,0,1.3,0.1,1.8h-1.1l-0.1-1.1h0c-0.3,0.5-1,1.3-2.2,1.3c-1.1,0-2.3-0.6-2.3-3v-4h1.2V93
			c0,1.3,0.4,2.2,1.5,2.2c0.8,0,1.4-0.6,1.6-1.1c0.1-0.2,0.1-0.4,0.1-0.6v-4.2h1.2V94.2z"/>
		<path class="st2" d="M1750.2,91.3c0-0.8,0-1.5-0.1-2.1h1.1l0,1.3h0.1c0.3-0.9,1-1.5,1.9-1.5c0.1,0,0.2,0,0.3,0v1.2
			c-0.1,0-0.3,0-0.4,0c-0.9,0-1.5,0.7-1.7,1.6c0,0.2-0.1,0.4-0.1,0.6V96h-1.2V91.3z"/>
		<path class="st2" d="M1757.7,96c0-0.5,0.1-1.1,0.1-1.8v-8.2h1.2v4.3h0c0.4-0.8,1.2-1.2,2.3-1.2c1.7,0,2.9,1.4,2.9,3.5
			c0,2.4-1.5,3.6-3,3.6c-1,0-1.8-0.4-2.3-1.3h0l-0.1,1.1H1757.7z M1758.9,93.3c0,0.2,0,0.3,0.1,0.4c0.2,0.9,1,1.4,1.8,1.4
			c1.3,0,2.1-1.1,2.1-2.6c0-1.4-0.7-2.5-2-2.5c-0.8,0-1.6,0.6-1.9,1.5c0,0.1-0.1,0.3-0.1,0.5V93.3z"/>
		<path class="st2" d="M1771.8,92.6c0,2.5-1.7,3.6-3.4,3.6c-1.8,0-3.2-1.3-3.2-3.5c0-2.3,1.5-3.6,3.4-3.6
			C1770.5,89.1,1771.8,90.5,1771.8,92.6z M1766.4,92.6c0,1.5,0.9,2.6,2.1,2.6c1.2,0,2.1-1.1,2.1-2.6c0-1.1-0.6-2.6-2-2.6
			S1766.4,91.3,1766.4,92.6z"/>
		<path class="st2" d="M1779.5,92.6c0,2.5-1.7,3.6-3.4,3.6c-1.8,0-3.2-1.3-3.2-3.5c0-2.3,1.5-3.6,3.4-3.6
			C1778.2,89.1,1779.5,90.5,1779.5,92.6z M1774.1,92.6c0,1.5,0.9,2.6,2.1,2.6c1.2,0,2.1-1.1,2.1-2.6c0-1.1-0.6-2.6-2-2.6
			S1774.1,91.3,1774.1,92.6z"/>
		<path class="st2" d="M1782.3,92.3L1782.3,92.3c0.2-0.2,0.4-0.5,0.6-0.8l2-2.3h1.5l-2.6,2.8l3,4h-1.5l-2.3-3.2l-0.6,0.7V96h-1.2
			v-9.9h1.2V92.3z"/>
		<path class="st2" d="M1789.2,87.3c0,0.4-0.3,0.8-0.8,0.8c-0.4,0-0.7-0.3-0.7-0.8c0-0.4,0.3-0.8,0.8-0.8
			C1788.9,86.6,1789.2,86.9,1789.2,87.3z M1787.8,96v-6.8h1.2V96H1787.8z"/>
		<path class="st2" d="M1791.1,91.1c0-0.7,0-1.3-0.1-1.8h1.1l0.1,1.1h0c0.3-0.6,1.1-1.3,2.2-1.3c0.9,0,2.4,0.6,2.4,2.9v4h-1.2v-3.9
			c0-1.1-0.4-2-1.6-2c-0.8,0-1.4,0.6-1.7,1.3c-0.1,0.2-0.1,0.4-0.1,0.6V96h-1.2V91.1z"/>
		<path class="st2" d="M1804.7,89.2c0,0.5-0.1,1-0.1,1.9V95c0,1.6-0.3,2.5-1,3.1c-0.7,0.6-1.6,0.8-2.5,0.8c-0.8,0-1.7-0.2-2.3-0.6
			l0.3-0.9c0.4,0.3,1.1,0.5,2,0.5c1.3,0,2.2-0.7,2.2-2.4v-0.8h0c-0.4,0.6-1.1,1.1-2.2,1.1c-1.7,0-2.9-1.4-2.9-3.3
			c0-2.3,1.5-3.6,3.1-3.6c1.2,0,1.8,0.6,2.1,1.2h0l0.1-1H1804.7z M1803.5,91.9c0-0.2,0-0.4-0.1-0.6c-0.2-0.7-0.8-1.3-1.7-1.3
			c-1.2,0-2,1-2,2.6c0,1.3,0.7,2.4,2,2.4c0.8,0,1.4-0.5,1.7-1.3c0.1-0.2,0.1-0.4,0.1-0.7V91.9z"/>
		<path class="st2" d="M1809.5,94.7c0.4,0.2,1,0.5,1.6,0.5c0.9,0,1.3-0.4,1.3-1c0-0.6-0.3-0.9-1.3-1.2c-1.2-0.4-1.8-1.1-1.8-1.9
			c0-1.1,0.9-2,2.3-2c0.7,0,1.3,0.2,1.7,0.4l-0.3,0.9c-0.3-0.2-0.8-0.4-1.4-0.4c-0.7,0-1.1,0.4-1.1,0.9c0,0.6,0.4,0.8,1.3,1.1
			c1.2,0.4,1.8,1,1.8,2c0,1.2-0.9,2-2.5,2c-0.7,0-1.4-0.2-1.9-0.5L1809.5,94.7z"/>
		<path class="st2" d="M1815.7,89.2l1.5,4c0.2,0.4,0.3,1,0.4,1.4h0c0.1-0.4,0.3-0.9,0.4-1.4l1.3-4h1.3l-1.8,4.8
			c-0.9,2.3-1.5,3.5-2.3,4.2c-0.6,0.5-1.2,0.7-1.5,0.8l-0.3-1c0.3-0.1,0.7-0.3,1.1-0.6c0.3-0.3,0.8-0.7,1-1.4
			c0.1-0.1,0.1-0.2,0.1-0.3s0-0.2-0.1-0.3l-2.5-6.2H1815.7z"/>
		<path class="st2" d="M1821.6,94.7c0.4,0.2,1,0.5,1.6,0.5c0.9,0,1.3-0.4,1.3-1c0-0.6-0.3-0.9-1.3-1.2c-1.2-0.4-1.8-1.1-1.8-1.9
			c0-1.1,0.9-2,2.3-2c0.7,0,1.3,0.2,1.7,0.4l-0.3,0.9c-0.3-0.2-0.8-0.4-1.4-0.4c-0.7,0-1.1,0.4-1.1,0.9c0,0.6,0.4,0.8,1.3,1.1
			c1.2,0.4,1.8,1,1.8,2c0,1.2-0.9,2-2.5,2c-0.7,0-1.4-0.2-1.9-0.5L1821.6,94.7z"/>
		<path class="st2" d="M1828.8,87.3v1.9h1.8v0.9h-1.8v3.7c0,0.8,0.2,1.3,0.9,1.3c0.3,0,0.6,0,0.7-0.1l0.1,0.9
			c-0.2,0.1-0.6,0.2-1.1,0.2c-0.6,0-1-0.2-1.3-0.5c-0.4-0.4-0.5-1-0.5-1.8v-3.7h-1.1v-0.9h1.1v-1.6L1828.8,87.3z"/>
		<path class="st2" d="M1832.5,92.8c0,1.7,1.1,2.4,2.3,2.4c0.9,0,1.4-0.2,1.9-0.4l0.2,0.9c-0.4,0.2-1.2,0.4-2.3,0.4
			c-2.1,0-3.3-1.4-3.3-3.4c0-2,1.2-3.7,3.2-3.7c2.2,0,2.8,1.9,2.8,3.2c0,0.3,0,0.4,0,0.6H1832.5z M1836.1,92c0-0.8-0.3-2-1.7-2
			c-1.2,0-1.8,1.1-1.9,2H1836.1z"/>
		<path class="st2" d="M1838.8,91.1c0-0.7,0-1.3-0.1-1.8h1.1l0.1,1.1h0c0.4-0.6,1-1.2,2.1-1.2c0.9,0,1.6,0.6,1.9,1.4h0
			c0.2-0.4,0.5-0.7,0.8-0.9c0.4-0.3,0.9-0.5,1.5-0.5c0.9,0,2.2,0.6,2.2,2.9v4h-1.2v-3.8c0-1.3-0.5-2.1-1.5-2.1
			c-0.7,0-1.2,0.5-1.5,1.1c-0.1,0.2-0.1,0.4-0.1,0.6V96h-1.2v-4.1c0-1.1-0.5-1.9-1.4-1.9c-0.8,0-1.3,0.6-1.5,1.2
			c-0.1,0.2-0.1,0.4-0.1,0.6V96h-1.2V91.1z"/>
	</g>
</g>
<linearGradient id="SVGID_4_" gradientUnits="userSpaceOnUse" x1="1857.2999" y1="24.8171" x2="1896.8837" y2="64.4008">
	<stop  offset="0" style="stop-color:#14ACE3"/>
	<stop  offset="0.1536" style="stop-color:#0991CF"/>
	<stop  offset="0.2852" style="stop-color:#067EC1"/>
	<stop  offset="0.3579" style="stop-color:#0378BC"/>
	<stop  offset="0.7261" style="stop-color:#343679"/>
	<stop  offset="0.9658" style="stop-color:#231E55"/>
</linearGradient>
<path class="st14" d="M1839.5,44.8h27.9 M1901.1,55.7V33.2c0-3.1-2.6-5.7-5.7-5.7H1873c-3.1,0-5.7,2.6-5.7,5.7v22.5
	c0,3.1,2.6,5.7,5.7,5.7h22.5C1898.6,61.3,1901.1,58.8,1901.1,55.7z"/>
<linearGradient id="SVGID_5_" gradientUnits="userSpaceOnUse" x1="1803.4197" y1="53.1737" x2="1818.2767" y2="68.0308">
	<stop  offset="0" style="stop-color:#FDED24"/>
	<stop  offset="0.3707" style="stop-color:#F08F34"/>
	<stop  offset="1" style="stop-color:#E2332D"/>
</linearGradient>
<rect x="1799" y="57.6" class="st15" width="23.7" height="6"/>
<linearGradient id="SVGID_6_" gradientUnits="userSpaceOnUse" x1="1744.3777" y1="-0.7968" x2="1830.8733" y2="85.6988">
	<stop  offset="0" style="stop-color:#14ACE3"/>
	<stop  offset="0.1536" style="stop-color:#0991CF"/>
	<stop  offset="0.2852" style="stop-color:#067EC1"/>
	<stop  offset="0.3579" style="stop-color:#0378BC"/>
	<stop  offset="0.7261" style="stop-color:#343679"/>
	<stop  offset="0.9658" style="stop-color:#231E55"/>
</linearGradient>
<path class="st16" d="M1788.1,7.9h47.7c1.8,0,3.3,1.2,3.3,2.7v63.8c0,1.5-1.5,2.7-3.3,2.7h-96.5c-1.8,0-3.3-1.2-3.3-2.7V10.6
	c0-1.5,1.5-2.7,3.3-2.7H1788.1 M1737.7,20.9h100.8 M1750.6,38.6h3 M1750.6,50h3 M1750.6,61.3h3 M1759.9,38.6h26.3 M1759.9,50h26.3
	 M1759.9,61.3h26.3 M1826.6,48.2v-6.7c0-2.3-1.9-4.2-4.2-4.2h-23.3c-2.3,0-4.2,1.9-4.2,4.2v6.7c0,2.3,1.9,4.2,4.2,4.2h23.3
	C1824.7,52.3,1826.6,50.5,1826.6,48.2z"/>
<linearGradient id="SVGID_7_" gradientUnits="userSpaceOnUse" x1="1814.2992" y1="8.296" x2="1827.3076" y2="21.3045">
	<stop  offset="0" style="stop-color:#FDED24"/>
	<stop  offset="0.3707" style="stop-color:#F08F34"/>
	<stop  offset="1" style="stop-color:#E2332D"/>
</linearGradient>
<path class="st17" d="M1826.6,14.8c0-1.7,1.3-3,3-3s3,1.3,3,3c0,1.7-1.3,3-3,3S1826.6,16.5,1826.6,14.8z M1821.3,17.8
	c1.7,0,3-1.3,3-3c0-1.7-1.3-3-3-3s-3,1.3-3,3C1818.3,16.5,1819.7,17.8,1821.3,17.8z M1812,17.8c1.7,0,3-1.3,3-3c0-1.7-1.3-3-3-3
	s-3,1.3-3,3C1809,16.5,1810.4,17.8,1812,17.8z"/>
<g>
	<g>
		<path class="st2" d="M148.7,131.8h1.2v8.4h4v1h-5.3V131.8z"/>
		<path class="st2" d="M159,141.2l-0.1-0.9h0c-0.4,0.5-1.1,1-2.1,1c-1.4,0-2.1-1-2.1-1.9c0-1.6,1.5-2.5,4.1-2.5v-0.1
			c0-0.6-0.2-1.6-1.5-1.6c-0.6,0-1.3,0.2-1.8,0.5l-0.3-0.8c0.6-0.4,1.4-0.6,2.2-0.6c2.1,0,2.6,1.4,2.6,2.8v2.5c0,0.6,0,1.2,0.1,1.6
			H159z M158.8,137.8c-1.3,0-2.9,0.2-2.9,1.5c0,0.8,0.5,1.2,1.2,1.2c0.9,0,1.4-0.6,1.6-1.1c0-0.1,0.1-0.3,0.1-0.4V137.8z"/>
		<path class="st2" d="M162,136.6c0-0.8,0-1.5-0.1-2.1h1.1l0,1.3h0.1c0.3-0.9,1.1-1.5,1.9-1.5c0.1,0,0.2,0,0.3,0v1.2
			c-0.1,0-0.3,0-0.4,0c-0.9,0-1.5,0.7-1.7,1.6c0,0.2-0.1,0.4-0.1,0.6v3.6H162V136.6z"/>
		<path class="st2" d="M172.3,134.5c0,0.5-0.1,1-0.1,1.9v3.9c0,1.6-0.3,2.5-1,3.1c-0.7,0.6-1.6,0.8-2.5,0.8c-0.8,0-1.7-0.2-2.3-0.6
			l0.3-0.9c0.4,0.3,1.1,0.5,2,0.5c1.3,0,2.2-0.7,2.2-2.4v-0.8h0c-0.4,0.6-1.1,1.1-2.2,1.1c-1.7,0-2.9-1.4-2.9-3.3
			c0-2.3,1.5-3.6,3.1-3.6c1.2,0,1.8,0.6,2.1,1.2h0l0.1-1H172.3z M171,137.1c0-0.2,0-0.4-0.1-0.6c-0.2-0.7-0.8-1.3-1.7-1.3
			c-1.2,0-2,1-2,2.6c0,1.3,0.7,2.4,2,2.4c0.8,0,1.4-0.5,1.7-1.3c0.1-0.2,0.1-0.4,0.1-0.7V137.1z"/>
		<path class="st2" d="M175,138.1c0,1.7,1.1,2.4,2.3,2.4c0.9,0,1.4-0.2,1.9-0.4l0.2,0.9c-0.4,0.2-1.2,0.4-2.3,0.4
			c-2.1,0-3.3-1.4-3.3-3.4c0-2,1.2-3.7,3.2-3.7c2.2,0,2.8,1.9,2.8,3.2c0,0.3,0,0.4,0,0.6H175z M178.6,137.2c0-0.8-0.3-2-1.7-2
			c-1.2,0-1.8,1.1-1.9,2H178.6z"/>
		<path class="st2" d="M181.3,136.6c0-0.8,0-1.5-0.1-2.1h1.1l0,1.3h0.1c0.3-0.9,1-1.5,1.9-1.5c0.1,0,0.2,0,0.3,0v1.2
			c-0.1,0-0.3,0-0.4,0c-0.9,0-1.5,0.7-1.7,1.6c0,0.2-0.1,0.4-0.1,0.6v3.6h-1.2V136.6z"/>
		<path class="st2" d="M193.7,141c-0.3,0.2-1,0.4-1.9,0.4c-2,0-3.4-1.4-3.4-3.5c0-2.1,1.4-3.6,3.6-3.6c0.7,0,1.4,0.2,1.7,0.4l-0.3,1
			c-0.3-0.2-0.8-0.3-1.4-0.3c-1.6,0-2.4,1.1-2.4,2.6c0,1.6,1,2.5,2.4,2.5c0.7,0,1.2-0.2,1.5-0.3L193.7,141z"/>
		<path class="st2" d="M201.2,137.8c0,2.5-1.7,3.6-3.4,3.6c-1.8,0-3.2-1.3-3.2-3.5c0-2.3,1.5-3.6,3.4-3.6
			C199.9,134.3,201.2,135.7,201.2,137.8z M195.8,137.9c0,1.5,0.9,2.6,2.1,2.6c1.2,0,2.1-1.1,2.1-2.6c0-1.1-0.6-2.6-2-2.6
			S195.8,136.6,195.8,137.9z"/>
		<path class="st2" d="M202.7,136.3c0-0.7,0-1.3-0.1-1.8h1.1l0.1,1.1h0c0.4-0.6,1-1.2,2.1-1.2c0.9,0,1.6,0.6,1.9,1.4h0
			c0.2-0.4,0.5-0.7,0.8-0.9c0.4-0.3,0.9-0.5,1.5-0.5c0.9,0,2.2,0.6,2.2,2.9v4h-1.2v-3.8c0-1.3-0.5-2.1-1.5-2.1
			c-0.7,0-1.2,0.5-1.5,1.1c-0.1,0.2-0.1,0.4-0.1,0.6v4.2H207v-4.1c0-1.1-0.5-1.9-1.4-1.9c-0.8,0-1.3,0.6-1.5,1.2
			c-0.1,0.2-0.1,0.4-0.1,0.6v4.1h-1.2V136.3z"/>
		<path class="st2" d="M214.4,136.3c0-0.7,0-1.3-0.1-1.8h1.1l0.1,1.1h0c0.4-0.6,1-1.2,2.1-1.2c0.9,0,1.6,0.6,1.9,1.4h0
			c0.2-0.4,0.5-0.7,0.8-0.9c0.4-0.3,0.9-0.5,1.5-0.5c0.9,0,2.2,0.6,2.2,2.9v4h-1.2v-3.8c0-1.3-0.5-2.1-1.5-2.1
			c-0.7,0-1.2,0.5-1.5,1.1c-0.1,0.2-0.1,0.4-0.1,0.6v4.2h-1.2v-4.1c0-1.1-0.5-1.9-1.4-1.9c-0.8,0-1.3,0.6-1.5,1.2
			c-0.1,0.2-0.1,0.4-0.1,0.6v4.1h-1.2V136.3z"/>
		<path class="st2" d="M231.8,139.4c0,0.7,0,1.3,0.1,1.8h-1.1l-0.1-1.1h0c-0.3,0.5-1,1.3-2.2,1.3c-1.1,0-2.3-0.6-2.3-3v-4h1.2v3.8
			c0,1.3,0.4,2.2,1.5,2.2c0.8,0,1.4-0.6,1.6-1.1c0.1-0.2,0.1-0.4,0.1-0.6v-4.2h1.2V139.4z"/>
		<path class="st2" d="M233.8,136.3c0-0.7,0-1.3-0.1-1.8h1.1l0.1,1.1h0c0.3-0.6,1.1-1.3,2.2-1.3c0.9,0,2.4,0.6,2.4,2.9v4h-1.2v-3.9
			c0-1.1-0.4-2-1.6-2c-0.8,0-1.4,0.6-1.7,1.3c-0.1,0.2-0.1,0.4-0.1,0.6v4.1h-1.2V136.3z"/>
		<path class="st2" d="M242.9,132.5c0,0.4-0.3,0.8-0.8,0.8c-0.4,0-0.7-0.3-0.7-0.8c0-0.4,0.3-0.8,0.8-0.8
			C242.6,131.8,242.9,132.1,242.9,132.5z M241.6,141.2v-6.8h1.2v6.8H241.6z"/>
		<path class="st2" d="M246.3,132.5v1.9h1.8v0.9h-1.8v3.7c0,0.8,0.2,1.3,0.9,1.3c0.3,0,0.6,0,0.7-0.1l0.1,0.9
			c-0.2,0.1-0.6,0.2-1.1,0.2c-0.6,0-1-0.2-1.3-0.5c-0.4-0.4-0.5-1-0.5-1.8v-3.7h-1.1v-0.9h1.1v-1.6L246.3,132.5z"/>
		<path class="st2" d="M250.1,134.5l1.5,4c0.2,0.4,0.3,1,0.4,1.4h0c0.1-0.4,0.3-0.9,0.4-1.4l1.3-4h1.3l-1.8,4.8
			c-0.9,2.3-1.5,3.5-2.3,4.2c-0.6,0.5-1.2,0.7-1.5,0.8l-0.3-1c0.3-0.1,0.7-0.3,1.1-0.6c0.3-0.3,0.8-0.7,1-1.4
			c0.1-0.1,0.1-0.2,0.1-0.3s0-0.2-0.1-0.3l-2.5-6.2H250.1z"/>
		<path class="st2" d="M259.2,136.6c0-0.8,0-1.5-0.1-2.1h1.1l0,1.3h0.1c0.3-0.9,1-1.5,1.9-1.5c0.1,0,0.2,0,0.3,0v1.2
			c-0.1,0-0.3,0-0.4,0c-0.9,0-1.5,0.7-1.7,1.6c0,0.2-0.1,0.4-0.1,0.6v3.6h-1.2V136.6z"/>
		<path class="st2" d="M264.3,138.1c0,1.7,1.1,2.4,2.3,2.4c0.9,0,1.4-0.2,1.9-0.4l0.2,0.9c-0.4,0.2-1.2,0.4-2.3,0.4
			c-2.1,0-3.3-1.4-3.3-3.4c0-2,1.2-3.7,3.2-3.7c2.2,0,2.8,1.9,2.8,3.2c0,0.3,0,0.4,0,0.6H264.3z M267.9,137.2c0-0.8-0.3-2-1.7-2
			c-1.2,0-1.8,1.1-1.9,2H267.9z"/>
		<path class="st2" d="M274.4,141.2l-0.1-0.9h0c-0.4,0.5-1.1,1-2.1,1c-1.4,0-2.1-1-2.1-1.9c0-1.6,1.5-2.5,4.1-2.5v-0.1
			c0-0.6-0.2-1.6-1.5-1.6c-0.6,0-1.3,0.2-1.8,0.5l-0.3-0.8c0.6-0.4,1.4-0.6,2.2-0.6c2.1,0,2.6,1.4,2.6,2.8v2.5c0,0.6,0,1.2,0.1,1.6
			H274.4z M274.2,137.8c-1.3,0-2.9,0.2-2.9,1.5c0,0.8,0.5,1.2,1.2,1.2c0.9,0,1.4-0.6,1.6-1.1c0-0.1,0.1-0.3,0.1-0.4V137.8z"/>
		<path class="st2" d="M282.2,141c-0.3,0.2-1,0.4-1.9,0.4c-2,0-3.4-1.4-3.4-3.5c0-2.1,1.4-3.6,3.6-3.6c0.7,0,1.4,0.2,1.7,0.4l-0.3,1
			c-0.3-0.2-0.8-0.3-1.4-0.3c-1.6,0-2.4,1.1-2.4,2.6c0,1.6,1,2.5,2.4,2.5c0.7,0,1.2-0.2,1.5-0.3L282.2,141z"/>
		<path class="st2" d="M283.6,131.3h1.2v4.2h0c0.2-0.4,0.5-0.7,0.9-0.9c0.4-0.2,0.8-0.3,1.3-0.3c0.9,0,2.4,0.6,2.4,2.9v4h-1.2v-3.9
			c0-1.1-0.4-2-1.6-2c-0.8,0-1.4,0.6-1.7,1.2c-0.1,0.2-0.1,0.4-0.1,0.6v4.1h-1.2V131.3z"/>
	</g>
</g>
<g>
	<polyline class="st12" points="203.2,18 215.4,30.2 227.5,18 	"/>
	<g>
		<line class="st13" x1="215.6" y1="6.9" x2="215.6" y2="28.4"/>
	</g>
</g>
<g>
	<g>
		<line class="st18" x1="6.7" y1="57" x2="6.7" y2="54"/>
		<line class="st19" x1="6.7" y1="49.2" x2="6.7" y2="42.7"/>
		<polyline class="st18" points="6.7,40.3 6.7,37.3 9.7,37.3 		"/>
		<line class="st20" x1="16.7" y1="37.3" x2="417.5" y2="37.3"/>
		<polyline class="st18" points="421,37.3 424,37.3 424,40.3 		"/>
		<line class="st19" x1="424" y1="45.1" x2="424" y2="51.6"/>
		<line class="st18" x1="424" y1="54" x2="424" y2="57"/>
	</g>
</g>
<circle class="st21" cx="32.8" cy="57.7" r="7.2"/>
<path class="st22" d="M9.6,119.2C7.1,118,6,115,7.2,112.5c0,0,6.8-15.6,7.4-17l0-0.1c0.6-1.4,1.2-2.8,3.3-3.2c0,0,0.1,0,0.1,0
	L29.5,91l0.3-11.1l-12.4,5c-2.3,1.1-5,0.2-6.1-2.1c-0.5-1.1-0.6-2.4-0.2-3.5c0.4-1.2,1.2-2.1,2.3-2.7l21.3-10.5c0,0,0.1,0,0.1,0
	c2-0.8,4-0.6,5.8,0.6c1.7,1.2,2.8,3.2,2.8,5.1c0,0,0,0.5,0,1.4c-0.1,13.9-0.2,21.7-0.2,23.1c0,3.4-2.9,6.3-6.3,6.3l-13.3,0.1
	l-7.4,14.1c0,0,0,0,0,0c-1,1.8-2.7,2.8-4.5,2.8C11,119.7,10.3,119.5,9.6,119.2z M46,85.6c0.1-0.8,0.9-1.3,1.6-1.1
	C56,86,62,93.3,62,101.8c0,9.8-7.9,17.7-17.7,17.7c-7.8,0-14.6-5-16.9-12.5c-0.2-0.7,0.2-1.5,0.9-1.8c0.7-0.2,1.5,0.2,1.8,0.9"/>
<circle class="st23" cx="152.4" cy="55.4" r="6.9"/>
<path class="st23" d="M171.5,121.6c-3.4,0-6.1-2.8-6.1-6.1l-0.1-25.7L158.5,79l-4.1,5.5c-0.4,0.5-0.9,0.8-1.5,0.8l-11.9,0
	c-2.9,0-5.3-2.4-5.3-5.3c0-2.9,2.4-5.3,5.3-5.3h7.6l7-10.7c1.2-1.9,2.6-3.7,6-3.7c3.3,0,4.9,2.2,5.5,3.1c0,0,0,0,0,0.1l8.3,12.6
	c0,0,0,0,0,0c0.1,0.1,0.1,0.2,0.2,0.3c0.9,1.4,2.1,3.3,2.1,6.7c0,2.3,0,32.1,0,32.4C177.6,118.9,174.9,121.6,171.5,121.6z
	 M141.4,121.6c-1,0-1.9-0.8-1.9-1.9V88.4c0-1,0.8-1.9,1.9-1.9c1,0,1.9,0.8,1.9,1.9v31.3C143.3,120.8,142.4,121.6,141.4,121.6z"/>
<g>
	<path class="st24" d="M72.3,63.3c-4.3,0-7.8-3.5-7.8-7.8s3.5-7.8,7.8-7.8c4.3,0,7.8,3.5,7.8,7.8S76.6,63.3,72.3,63.3z"/>
	<path class="st24" d="M72.3,49.1c3.6,0,6.4,2.9,6.4,6.4c0,3.6-2.9,6.4-6.4,6.4c-3.6,0-6.4-2.9-6.4-6.4
		C65.8,51.9,68.7,49.1,72.3,49.1 M72.3,46.4c-5,0-9.1,4.1-9.1,9.1s4.1,9.1,9.1,9.1s9.1-4.1,9.1-9.1S77.3,46.4,72.3,46.4L72.3,46.4z"
		/>
</g>
<path class="st25" d="M72.3,91v25.3c0,2-1.6,3.7-3.7,3.7c-2,0-3.7-1.6-3.7-3.7V73.2 M80.5,91c2.1,0,5-1.4,5-6c0-3.5,0-14.1,0-14.1
	c0-3.6-2.6-5.5-5.7-5.5c-2.1,0-7.4,0-7.4,0s-5.4,0-7.4,0c-3.2,0-5.7,1.9-5.7,5.5c0,0,0,10.6,0,14.1c0,4.6,2.9,6,5,6 M72.3,116.3
	c0,2,1.6,3.7,3.7,3.7c2,0,3.7-1.6,3.7-3.7V73.2"/>
<g>
	<rect x="66.9" y="77.8" class="st24" width="11.1" height="27.1"/>
</g>
<g>
	<path class="st24" d="M193.3,63.3c-4.3,0-7.8-3.5-7.8-7.8s3.5-7.8,7.8-7.8c4.3,0,7.8,3.5,7.8,7.8S197.6,63.3,193.3,63.3z"/>
	<path class="st24" d="M193.3,49.1c3.6,0,6.4,2.9,6.4,6.4c0,3.6-2.9,6.4-6.4,6.4c-3.6,0-6.4-2.9-6.4-6.4
		C186.8,51.9,189.7,49.1,193.3,49.1 M193.3,46.4c-5,0-9.1,4.1-9.1,9.1s4.1,9.1,9.1,9.1s9.1-4.1,9.1-9.1S198.3,46.4,193.3,46.4
		L193.3,46.4z"/>
</g>
<path class="st25" d="M193.3,91v25.3c0,2-1.6,3.7-3.7,3.7s-3.7-1.6-3.7-3.7V73.2 M201.5,91c2.1,0,5-1.4,5-6c0-3.5,0-14.1,0-14.1
	c0-3.6-2.6-5.5-5.7-5.5c-2.1,0-7.4,0-7.4,0s-5.4,0-7.4,0c-3.2,0-5.7,1.9-5.7,5.5c0,0,0,10.6,0,14.1c0,4.6,2.9,6,5,6 M193.3,116.3
	c0,2,1.6,3.7,3.7,3.7s3.7-1.6,3.7-3.7V73.2"/>
<g>
	<rect x="187.9" y="77.8" class="st24" width="11.1" height="27.1"/>
</g>
<linearGradient id="SVGID_8_" gradientUnits="userSpaceOnUse" x1="50.0937" y1="78.1048" x2="92.2669" y2="120.2779" gradientTransform="matrix(-1 0 0 1 102.3892 0)">
	<stop  offset="0" style="stop-color:#14ACE3"/>
	<stop  offset="0.1536" style="stop-color:#0991CF"/>
	<stop  offset="0.2852" style="stop-color:#067EC1"/>
	<stop  offset="0.3579" style="stop-color:#0378BC"/>
	<stop  offset="0.7261" style="stop-color:#343679"/>
	<stop  offset="0.9658" style="stop-color:#231E55"/>
</linearGradient>
<path class="st26" d="M15,116.2c-1.1,1.9-3,2.6-4.8,1.8c-1.8-0.8-2.6-3-1.8-4.8c0,0,6.8-15.6,7.4-17c0.6-1.4,0.9-2.2,2.3-2.4
	l12.7-1.3l0.3-14.5l-14.4,5.8c-1.6,0.8-3.5,0.1-4.3-1.4s-0.1-3.5,1.4-4.3l21.3-10.5c3.8-1.5,6.7,1.7,6.7,4.4
	c0,0.2-0.2,21.9-0.2,24.5s-2.3,4.9-4.9,4.9l-14.1,0.1L15,116.2z M28.8,106.6c2,6.7,8.2,11.5,15.6,11.5c9,0,16.3-7.3,16.3-16.3
	c0-7.9-5.7-14.6-13.2-16"/>
<linearGradient id="SVGID_9_" gradientUnits="userSpaceOnUse" x1="86.0908" y1="73.4886" x2="121.3524" y2="108.7503">
	<stop  offset="0" style="stop-color:#14ACE3"/>
	<stop  offset="0.1536" style="stop-color:#0991CF"/>
	<stop  offset="0.2852" style="stop-color:#067EC1"/>
	<stop  offset="0.3579" style="stop-color:#0378BC"/>
	<stop  offset="0.7261" style="stop-color:#343679"/>
	<stop  offset="0.9658" style="stop-color:#231E55"/>
</linearGradient>
<path class="st27" d="M94.2,86.4c-0.4,1.5-2,2.4-3.5,2c-1.5-0.4-2.4-2-2-3.5l4.5-15.2c0.5-1.8,1.9-4.6,5.8-4.6h4.6 M94.1,86.9
	l3.1-11.3L91,97.8h6.6l0,17.9l0,1.1c0,1.7,1.4,3,3,3s3-1.4,3-3V96.1 M113.3,86.4c0.4,1.5,2,2.4,3.5,2c1.5-0.4,2.4-2,2-3.5L114.3,70
	c-0.5-1.8-2-4.9-5.9-4.9h-4.6 M103.7,116.9c0,1.7,1.4,3,3,3c1.7,0,3-1.4,3-3l0-1.1l0-17.9h6.6l-6.2-22.3l3.1,11.3"/>
<linearGradient id="SVGID_10_" gradientUnits="userSpaceOnUse" x1="137.6418" y1="76.2965" x2="178.2258" y2="116.8805">
	<stop  offset="0" style="stop-color:#14ACE3"/>
	<stop  offset="0.1536" style="stop-color:#0991CF"/>
	<stop  offset="0.2852" style="stop-color:#067EC1"/>
	<stop  offset="0.3579" style="stop-color:#0378BC"/>
	<stop  offset="0.7261" style="stop-color:#343679"/>
	<stop  offset="0.9658" style="stop-color:#231E55"/>
</linearGradient>
<path class="st28" d="M167.2,89.2l-8.6-13.5l-5.8,7.7l-11.9,0c-1.9,0-3.4-1.5-3.4-3.4c0-1.9,1.5-3.4,3.4-3.4h8.6L157,65
	c1.2-1.8,2.2-2.8,4.4-2.8c2.3,0,3.4,1.5,4,2.3l8.3,12.6c0.9,1.4,2,3,2,6c0,2.3,0,32.4,0,32.4c0,2.3-1.9,4.3-4.3,4.3
	s-4.3-1.9-4.3-4.3L167.2,89.2z M141.4,88.4v31.3"/>
<linearGradient id="SVGID_11_" gradientUnits="userSpaceOnUse" x1="53.747" y1="71.7" x2="90.7902" y2="108.7432">
	<stop  offset="0" style="stop-color:#14ACE3"/>
	<stop  offset="0.1536" style="stop-color:#0991CF"/>
	<stop  offset="0.2852" style="stop-color:#067EC1"/>
	<stop  offset="0.3579" style="stop-color:#0378BC"/>
	<stop  offset="0.7261" style="stop-color:#343679"/>
	<stop  offset="0.9658" style="stop-color:#231E55"/>
</linearGradient>
<path class="st29" d="M72.3,91v25.3c0,2-1.6,3.7-3.7,3.7c-2,0-3.7-1.6-3.7-3.7V73.2 M80.5,91c2.1,0,5-1.4,5-6c0-3.5,0-14.1,0-14.1
	c0-3.6-2.6-5.5-5.7-5.5c-2.1,0-7.4,0-7.4,0s-5.4,0-7.4,0c-3.2,0-5.7,1.9-5.7,5.5c0,0,0,10.6,0,14.1c0,4.6,2.9,6,5,6 M72.3,116.3
	c0,2,1.6,3.7,3.7,3.7c2,0,3.7-1.6,3.7-3.7V73.2"/>
<linearGradient id="SVGID_12_" gradientUnits="userSpaceOnUse" x1="174.747" y1="71.7" x2="211.7902" y2="108.7432">
	<stop  offset="0" style="stop-color:#14ACE3"/>
	<stop  offset="0.1536" style="stop-color:#0991CF"/>
	<stop  offset="0.2852" style="stop-color:#067EC1"/>
	<stop  offset="0.3579" style="stop-color:#0378BC"/>
	<stop  offset="0.7261" style="stop-color:#343679"/>
	<stop  offset="0.9658" style="stop-color:#231E55"/>
</linearGradient>
<path class="st30" d="M193.3,91v25.3c0,2-1.6,3.7-3.7,3.7s-3.7-1.6-3.7-3.7V73.2 M201.5,91c2.1,0,5-1.4,5-6c0-3.5,0-14.1,0-14.1
	c0-3.6-2.6-5.5-5.7-5.5c-2.1,0-7.4,0-7.4,0s-5.4,0-7.4,0c-3.2,0-5.7,1.9-5.7,5.5c0,0,0,10.6,0,14.1c0,4.6,2.9,6,5,6 M193.3,116.3
	c0,2,1.6,3.7,3.7,3.7s3.7-1.6,3.7-3.7V73.2"/>
<path class="st31" d="M127,106.1c0,3.8,0,10.3,0,10.3c0,1.9-1.6,3.5-3.5,3.5c-1.9,0-3.5-1.6-3.5-3.5v-10.4V91.6c0,0,0-0.1-0.1,0
	l-5.1,3c-1.3,0.7-2.9,0.3-3.6-1c-0.7-1.3-0.3-2.9,1-3.6l6.4-4.1c1.1-0.7,2.4-1.1,3.8-1.1c1.3,0,8,0,9.3,0c1.3,0,2.6,0.4,3.8,1.1
	l6.4,4.1c1.3,0.7,1.7,2.4,1,3.6c-0.7,1.3-2.4,1.7-3.6,1l-5.1-3c0,0-0.1,0-0.1,0v14.4v10.4c0,1.9-1.6,3.5-3.5,3.5s-3.5-1.6-3.5-3.5
	C127.1,116.4,127,110,127,106.1"/>
<linearGradient id="SVGID_13_" gradientUnits="userSpaceOnUse" x1="113.5053" y1="86.4147" x2="140.5934" y2="113.5029">
	<stop  offset="0" style="stop-color:#14ACE3"/>
	<stop  offset="0.1536" style="stop-color:#0991CF"/>
	<stop  offset="0.2852" style="stop-color:#067EC1"/>
	<stop  offset="0.3579" style="stop-color:#0378BC"/>
	<stop  offset="0.7261" style="stop-color:#343679"/>
	<stop  offset="0.9658" style="stop-color:#231E55"/>
</linearGradient>
<path class="st32" d="M127,106.1c0,3.8,0,10.3,0,10.3c0,1.9-1.6,3.5-3.5,3.5c-1.9,0-3.5-1.6-3.5-3.5v-10.4V91.6c0,0,0-0.1-0.1,0
	l-5.1,3c-1.3,0.7-2.9,0.3-3.6-1c-0.7-1.3-0.3-2.9,1-3.6l6.4-4.1c1.1-0.7,2.4-1.1,3.8-1.1c1.3,0,8,0,9.3,0c1.3,0,2.6,0.4,3.8,1.1
	l6.4,4.1c1.3,0.7,1.7,2.4,1,3.6c-0.7,1.3-2.4,1.7-3.6,1l-5.1-3c0,0-0.1,0-0.1,0v14.4v10.4c0,1.9-1.6,3.5-3.5,3.5s-3.5-1.6-3.5-3.5
	C127.1,116.4,127,110,127,106.1"/>
<linearGradient id="SVGID_14_" gradientUnits="userSpaceOnUse" x1="557.9549" y1="384.8991" x2="568.1381" y2="374.716" gradientTransform="matrix(-4.489700e-11 1 1 4.489700e-11 -346.979 -505.3665)">
	<stop  offset="0" style="stop-color:#FDED24"/>
	<stop  offset="0.3707" style="stop-color:#F08F34"/>
	<stop  offset="1" style="stop-color:#E2332D"/>
</linearGradient>
<circle class="st33" cx="32.8" cy="57.7" r="7.2"/>
<g>
	<linearGradient id="SVGID_15_" gradientUnits="userSpaceOnUse" x1="98.9725" y1="50.9703" x2="108.6779" y2="60.6757">
		<stop  offset="0" style="stop-color:#FDED24"/>
		<stop  offset="0.3707" style="stop-color:#F08F34"/>
		<stop  offset="1" style="stop-color:#E2332D"/>
	</linearGradient>
	<circle class="st34" cx="103.8" cy="55.8" r="6.9"/>
</g>
<linearGradient id="SVGID_16_" gradientUnits="userSpaceOnUse" x1="556.1073" y1="301.6316" x2="565.4123" y2="292.3266" gradientTransform="matrix(0 1 -1 0 449.3682 -505.3665)">
	<stop  offset="0" style="stop-color:#FDED24"/>
	<stop  offset="0.3707" style="stop-color:#F08F34"/>
	<stop  offset="1" style="stop-color:#E2332D"/>
</linearGradient>
<circle class="st35" cx="152.4" cy="55.4" r="6.6"/>
<linearGradient id="SVGID_17_" gradientUnits="userSpaceOnUse" x1="67.7106" y1="50.9518" x2="76.8266" y2="60.0677">
	<stop  offset="0" style="stop-color:#FDED24"/>
	<stop  offset="0.3707" style="stop-color:#F08F34"/>
	<stop  offset="1" style="stop-color:#E2332D"/>
</linearGradient>
<circle class="st36" cx="72.3" cy="55.5" r="6.4"/>
<linearGradient id="SVGID_18_" gradientUnits="userSpaceOnUse" x1="188.7106" y1="50.9518" x2="197.8266" y2="60.0677">
	<stop  offset="0" style="stop-color:#FDED24"/>
	<stop  offset="0.3707" style="stop-color:#F08F34"/>
	<stop  offset="1" style="stop-color:#E2332D"/>
</linearGradient>
<circle class="st37" cx="193.3" cy="55.5" r="6.4"/>
<g>
	<linearGradient id="SVGID_19_" gradientUnits="userSpaceOnUse" x1="122.8896" y1="72.2674" x2="131.3679" y2="80.7457">
		<stop  offset="0" style="stop-color:#FDED24"/>
		<stop  offset="0.3707" style="stop-color:#F08F34"/>
		<stop  offset="1" style="stop-color:#E2332D"/>
	</linearGradient>
	<circle class="st38" cx="127.1" cy="76.5" r="6"/>
</g>
<circle class="st21" cx="233.4" cy="57.7" r="7.2"/>
<path class="st22" d="M210.2,119.2c-2.5-1.2-3.6-4.2-2.5-6.7c0,0,6.8-15.6,7.4-17l0-0.1c0.6-1.4,1.2-2.8,3.3-3.2c0,0,0.1,0,0.1,0
	l11.5-1.2l0.3-11.1l-12.4,5c-2.3,1.1-5,0.2-6.1-2.1c-0.5-1.1-0.6-2.4-0.2-3.5c0.4-1.2,1.2-2.1,2.3-2.7l21.3-10.5c0,0,0.1,0,0.1,0
	c2-0.8,4-0.6,5.8,0.6c1.7,1.2,2.8,3.2,2.8,5.1c0,0,0,0.5,0,1.4c-0.1,13.9-0.2,21.7-0.2,23.1c0,3.4-2.9,6.3-6.3,6.3l-13.3,0.1
	l-7.4,14.1c0,0,0,0,0,0c-1,1.8-2.7,2.8-4.5,2.8C211.6,119.7,210.9,119.5,210.2,119.2z M246.6,85.6c0.1-0.8,0.9-1.3,1.6-1.1
	c8.3,1.6,14.3,8.9,14.3,17.4c0,9.8-7.9,17.7-17.7,17.7c-7.8,0-14.6-5-16.9-12.5c-0.2-0.7,0.2-1.5,0.9-1.8c0.7-0.2,1.5,0.2,1.8,0.9"
	/>
<circle class="st23" cx="353" cy="55.4" r="6.9"/>
<path class="st23" d="M372.1,121.6c-3.4,0-6.1-2.8-6.1-6.1l-0.1-25.7L359,79l-4.1,5.5c-0.4,0.5-0.9,0.8-1.5,0.8l-11.9,0
	c-2.9,0-5.3-2.4-5.3-5.3c0-2.9,2.4-5.3,5.3-5.3h7.6l7-10.7c1.2-1.9,2.6-3.7,6-3.7c3.3,0,4.9,2.2,5.5,3.1c0,0,0,0,0,0.1l8.3,12.6
	c0,0,0,0,0,0c0.1,0.1,0.1,0.2,0.2,0.3c0.9,1.4,2.1,3.3,2.1,6.7c0,2.3,0,32.1,0,32.4C378.2,118.9,375.4,121.6,372.1,121.6z
	 M342,121.6c-1,0-1.9-0.8-1.9-1.9V88.4c0-1,0.8-1.9,1.9-1.9c1,0,1.9,0.8,1.9,1.9v31.3C343.8,120.8,343,121.6,342,121.6z"/>
<g>
	<path class="st24" d="M272.8,63.3c-4.3,0-7.8-3.5-7.8-7.8s3.5-7.8,7.8-7.8c4.3,0,7.8,3.5,7.8,7.8S277.1,63.3,272.8,63.3z"/>
	<path class="st24" d="M272.8,49.1c3.6,0,6.4,2.9,6.4,6.4c0,3.6-2.9,6.4-6.4,6.4c-3.6,0-6.4-2.9-6.4-6.4
		C266.4,51.9,269.3,49.1,272.8,49.1 M272.8,46.4c-5,0-9.1,4.1-9.1,9.1s4.1,9.1,9.1,9.1s9.1-4.1,9.1-9.1S277.9,46.4,272.8,46.4
		L272.8,46.4z"/>
</g>
<path class="st25" d="M272.8,91v25.3c0,2-1.6,3.7-3.7,3.7c-2,0-3.7-1.6-3.7-3.7V73.2 M281,91c2.1,0,5-1.4,5-6c0-3.5,0-14.1,0-14.1
	c0-3.6-2.6-5.5-5.7-5.5c-2.1,0-7.4,0-7.4,0s-5.4,0-7.4,0c-3.2,0-5.7,1.9-5.7,5.5c0,0,0,10.6,0,14.1c0,4.6,2.9,6,5,6 M272.8,116.3
	c0,2,1.6,3.7,3.7,3.7s3.7-1.6,3.7-3.7V73.2"/>
<g>
	<rect x="267.5" y="77.8" class="st24" width="11.1" height="27.1"/>
</g>
<g>
	<path class="st24" d="M393.8,63.3c-4.3,0-7.8-3.5-7.8-7.8s3.5-7.8,7.8-7.8c4.3,0,7.8,3.5,7.8,7.8S398.1,63.3,393.8,63.3z"/>
	<path class="st24" d="M393.8,49.1c3.6,0,6.4,2.9,6.4,6.4c0,3.6-2.9,6.4-6.4,6.4s-6.4-2.9-6.4-6.4C387.4,51.9,390.3,49.1,393.8,49.1
		 M393.8,46.4c-5,0-9.1,4.1-9.1,9.1s4.1,9.1,9.1,9.1s9.1-4.1,9.1-9.1S398.9,46.4,393.8,46.4L393.8,46.4z"/>
</g>
<path class="st25" d="M393.8,91v25.3c0,2-1.6,3.7-3.7,3.7c-2,0-3.7-1.6-3.7-3.7V73.2 M402,91c2.1,0,5-1.4,5-6c0-3.5,0-14.1,0-14.1
	c0-3.6-2.6-5.5-5.7-5.5c-2.1,0-7.4,0-7.4,0s-5.4,0-7.4,0c-3.2,0-5.7,1.9-5.7,5.5c0,0,0,10.6,0,14.1c0,4.6,2.9,6,5,6 M393.8,116.3
	c0,2,1.6,3.7,3.7,3.7s3.7-1.6,3.7-3.7V73.2"/>
<g>
	<rect x="388.5" y="77.8" class="st24" width="11.1" height="27.1"/>
</g>
<linearGradient id="SVGID_20_" gradientUnits="userSpaceOnUse" x1="-150.4791" y1="78.1048" x2="-108.3059" y2="120.2779" gradientTransform="matrix(-1 0 0 1 102.3892 0)">
	<stop  offset="0" style="stop-color:#14ACE3"/>
	<stop  offset="0.1536" style="stop-color:#0991CF"/>
	<stop  offset="0.2852" style="stop-color:#067EC1"/>
	<stop  offset="0.3579" style="stop-color:#0378BC"/>
	<stop  offset="0.7261" style="stop-color:#343679"/>
	<stop  offset="0.9658" style="stop-color:#231E55"/>
</linearGradient>
<path class="st39" d="M215.6,116.2c-1.1,1.9-3,2.6-4.8,1.8c-1.8-0.8-2.6-3-1.8-4.8c0,0,6.8-15.6,7.4-17c0.6-1.4,0.9-2.2,2.3-2.4
	l12.7-1.3l0.3-14.5l-14.4,5.8c-1.6,0.8-3.5,0.1-4.3-1.4c-0.8-1.6-0.1-3.5,1.4-4.3l21.3-10.5c3.8-1.5,6.7,1.7,6.7,4.4
	c0,0.2-0.2,21.9-0.2,24.5s-2.3,4.9-4.9,4.9l-14.1,0.1L215.6,116.2z M229.3,106.6c2,6.7,8.2,11.5,15.6,11.5c9,0,16.3-7.3,16.3-16.3
	c0-7.9-5.7-14.6-13.2-16"/>
<linearGradient id="SVGID_21_" gradientUnits="userSpaceOnUse" x1="286.6636" y1="73.4886" x2="321.9253" y2="108.7503">
	<stop  offset="0" style="stop-color:#14ACE3"/>
	<stop  offset="0.1536" style="stop-color:#0991CF"/>
	<stop  offset="0.2852" style="stop-color:#067EC1"/>
	<stop  offset="0.3579" style="stop-color:#0378BC"/>
	<stop  offset="0.7261" style="stop-color:#343679"/>
	<stop  offset="0.9658" style="stop-color:#231E55"/>
</linearGradient>
<path class="st40" d="M294.8,86.4c-0.4,1.5-2,2.4-3.5,2c-1.5-0.4-2.4-2-2-3.5l4.5-15.2c0.5-1.8,1.9-4.6,5.8-4.6h4.6 M294.7,86.9
	l3.1-11.3l-6.2,22.3h6.6l0,17.9l0,1.1c0,1.7,1.4,3,3,3s3-1.4,3-3V96.1 M313.9,86.4c0.4,1.5,2,2.4,3.5,2c1.5-0.4,2.4-2,2-3.5
	L314.8,70c-0.5-1.8-2-4.9-5.9-4.9h-4.6 M304.3,116.9c0,1.7,1.4,3,3,3s3-1.4,3-3l0-1.1l0-17.9h6.6l-6.2-22.3l3.1,11.3"/>
<linearGradient id="SVGID_22_" gradientUnits="userSpaceOnUse" x1="338.2147" y1="76.2965" x2="378.7986" y2="116.8805">
	<stop  offset="0" style="stop-color:#14ACE3"/>
	<stop  offset="0.1536" style="stop-color:#0991CF"/>
	<stop  offset="0.2852" style="stop-color:#067EC1"/>
	<stop  offset="0.3579" style="stop-color:#0378BC"/>
	<stop  offset="0.7261" style="stop-color:#343679"/>
	<stop  offset="0.9658" style="stop-color:#231E55"/>
</linearGradient>
<path class="st41" d="M367.7,89.2l-8.6-13.5l-5.8,7.7l-11.9,0c-1.9,0-3.4-1.5-3.4-3.4c0-1.9,1.5-3.4,3.4-3.4h8.6l7.5-11.6
	c1.2-1.8,2.2-2.8,4.4-2.8c2.3,0,3.4,1.5,4,2.3l8.3,12.6c0.9,1.4,2,3,2,6c0,2.3,0,32.4,0,32.4c0,2.3-1.9,4.3-4.3,4.3
	c-2.3,0-4.3-1.9-4.3-4.3L367.7,89.2z M342,88.4v31.3"/>
<linearGradient id="SVGID_23_" gradientUnits="userSpaceOnUse" x1="254.3198" y1="71.7" x2="291.363" y2="108.7432">
	<stop  offset="0" style="stop-color:#14ACE3"/>
	<stop  offset="0.1536" style="stop-color:#0991CF"/>
	<stop  offset="0.2852" style="stop-color:#067EC1"/>
	<stop  offset="0.3579" style="stop-color:#0378BC"/>
	<stop  offset="0.7261" style="stop-color:#343679"/>
	<stop  offset="0.9658" style="stop-color:#231E55"/>
</linearGradient>
<path class="st42" d="M272.8,91v25.3c0,2-1.6,3.7-3.7,3.7c-2,0-3.7-1.6-3.7-3.7V73.2 M281,91c2.1,0,5-1.4,5-6c0-3.5,0-14.1,0-14.1
	c0-3.6-2.6-5.5-5.7-5.5c-2.1,0-7.4,0-7.4,0s-5.4,0-7.4,0c-3.2,0-5.7,1.9-5.7,5.5c0,0,0,10.6,0,14.1c0,4.6,2.9,6,5,6 M272.8,116.3
	c0,2,1.6,3.7,3.7,3.7s3.7-1.6,3.7-3.7V73.2"/>
<linearGradient id="SVGID_24_" gradientUnits="userSpaceOnUse" x1="375.3198" y1="71.7" x2="412.363" y2="108.7432">
	<stop  offset="0" style="stop-color:#14ACE3"/>
	<stop  offset="0.1536" style="stop-color:#0991CF"/>
	<stop  offset="0.2852" style="stop-color:#067EC1"/>
	<stop  offset="0.3579" style="stop-color:#0378BC"/>
	<stop  offset="0.7261" style="stop-color:#343679"/>
	<stop  offset="0.9658" style="stop-color:#231E55"/>
</linearGradient>
<path class="st43" d="M393.8,91v25.3c0,2-1.6,3.7-3.7,3.7c-2,0-3.7-1.6-3.7-3.7V73.2 M402,91c2.1,0,5-1.4,5-6c0-3.5,0-14.1,0-14.1
	c0-3.6-2.6-5.5-5.7-5.5c-2.1,0-7.4,0-7.4,0s-5.4,0-7.4,0c-3.2,0-5.7,1.9-5.7,5.5c0,0,0,10.6,0,14.1c0,4.6,2.9,6,5,6 M393.8,116.3
	c0,2,1.6,3.7,3.7,3.7s3.7-1.6,3.7-3.7V73.2"/>
<path class="st31" d="M327.6,106.1c0,3.8,0,10.3,0,10.3c0,1.9-1.6,3.5-3.5,3.5s-3.5-1.6-3.5-3.5v-10.4V91.6c0,0,0-0.1-0.1,0l-5.1,3
	c-1.3,0.7-2.9,0.3-3.6-1c-0.7-1.3-0.3-2.9,1-3.6l6.4-4.1c1.1-0.7,2.4-1.1,3.8-1.1c1.3,0,8,0,9.3,0c1.3,0,2.6,0.4,3.8,1.1l6.4,4.1
	c1.3,0.7,1.7,2.4,1,3.6c-0.7,1.3-2.4,1.7-3.6,1l-5.1-3c0,0-0.1,0-0.1,0v14.4l0,10.4c0,1.9-1.6,3.5-3.5,3.5s-3.5-1.6-3.5-3.5
	C327.6,116.4,327.6,110,327.6,106.1"/>
<linearGradient id="SVGID_25_" gradientUnits="userSpaceOnUse" x1="314.0781" y1="86.4147" x2="341.1662" y2="113.5029">
	<stop  offset="0" style="stop-color:#14ACE3"/>
	<stop  offset="0.1536" style="stop-color:#0991CF"/>
	<stop  offset="0.2852" style="stop-color:#067EC1"/>
	<stop  offset="0.3579" style="stop-color:#0378BC"/>
	<stop  offset="0.7261" style="stop-color:#343679"/>
	<stop  offset="0.9658" style="stop-color:#231E55"/>
</linearGradient>
<path class="st44" d="M327.6,106.1c0,3.8,0,10.3,0,10.3c0,1.9-1.6,3.5-3.5,3.5s-3.5-1.6-3.5-3.5v-10.4V91.6c0,0,0-0.1-0.1,0l-5.1,3
	c-1.3,0.7-2.9,0.3-3.6-1c-0.7-1.3-0.3-2.9,1-3.6l6.4-4.1c1.1-0.7,2.4-1.1,3.8-1.1c1.3,0,8,0,9.3,0c1.3,0,2.6,0.4,3.8,1.1l6.4,4.1
	c1.3,0.7,1.7,2.4,1,3.6c-0.7,1.3-2.4,1.7-3.6,1l-5.1-3c0,0-0.1,0-0.1,0v14.4l0,10.4c0,1.9-1.6,3.5-3.5,3.5s-3.5-1.6-3.5-3.5
	C327.6,116.4,327.6,110,327.6,106.1"/>
<linearGradient id="SVGID_26_" gradientUnits="userSpaceOnUse" x1="557.9549" y1="585.4719" x2="568.1381" y2="575.2888" gradientTransform="matrix(-4.489700e-11 1 1 4.489700e-11 -346.979 -505.3665)">
	<stop  offset="0" style="stop-color:#FDED24"/>
	<stop  offset="0.3707" style="stop-color:#F08F34"/>
	<stop  offset="1" style="stop-color:#E2332D"/>
</linearGradient>
<circle class="st45" cx="233.4" cy="57.7" r="7.2"/>
<g>
	<linearGradient id="SVGID_27_" gradientUnits="userSpaceOnUse" x1="299.5453" y1="50.9703" x2="309.2507" y2="60.6757">
		<stop  offset="0" style="stop-color:#FDED24"/>
		<stop  offset="0.3707" style="stop-color:#F08F34"/>
		<stop  offset="1" style="stop-color:#E2332D"/>
	</linearGradient>
	<circle class="st46" cx="304.4" cy="55.8" r="6.9"/>
</g>
<linearGradient id="SVGID_28_" gradientUnits="userSpaceOnUse" x1="556.1073" y1="101.0588" x2="565.4123" y2="91.7538" gradientTransform="matrix(0 1 -1 0 449.3682 -505.3665)">
	<stop  offset="0" style="stop-color:#FDED24"/>
	<stop  offset="0.3707" style="stop-color:#F08F34"/>
	<stop  offset="1" style="stop-color:#E2332D"/>
</linearGradient>
<circle class="st47" cx="353" cy="55.4" r="6.6"/>
<linearGradient id="SVGID_29_" gradientUnits="userSpaceOnUse" x1="268.2834" y1="50.9518" x2="277.3994" y2="60.0677">
	<stop  offset="0" style="stop-color:#FDED24"/>
	<stop  offset="0.3707" style="stop-color:#F08F34"/>
	<stop  offset="1" style="stop-color:#E2332D"/>
</linearGradient>
<circle class="st48" cx="272.8" cy="55.5" r="6.4"/>
<linearGradient id="SVGID_30_" gradientUnits="userSpaceOnUse" x1="389.2834" y1="50.9518" x2="398.3994" y2="60.0677">
	<stop  offset="0" style="stop-color:#FDED24"/>
	<stop  offset="0.3707" style="stop-color:#F08F34"/>
	<stop  offset="1" style="stop-color:#E2332D"/>
</linearGradient>
<circle class="st49" cx="393.8" cy="55.5" r="6.4"/>
<g>
	<linearGradient id="SVGID_31_" gradientUnits="userSpaceOnUse" x1="323.4624" y1="72.2674" x2="331.9407" y2="80.7457">
		<stop  offset="0" style="stop-color:#FDED24"/>
		<stop  offset="0.3707" style="stop-color:#F08F34"/>
		<stop  offset="1" style="stop-color:#E2332D"/>
	</linearGradient>
	<circle class="st50" cx="327.7" cy="76.5" r="6"/>
</g>
</svg>
