<?xml version="1.0" encoding="utf-8"?>
<!-- Generator: Adobe Illustrator 22.0.1, SVG Export Plug-In . SVG Version: 6.00 Build 0)  -->
<svg version="1.1" id="Layer_1" xmlns="http://www.w3.org/2000/svg" xmlns:xlink="http://www.w3.org/1999/xlink" x="0px" y="0px"
	 viewBox="0 0 428.5 137.5" style="enable-background:new 0 0 428.5 137.5;" xml:space="preserve">
<style type="text/css">
	.st0{fill:none;stroke:url(#SVGID_1_);stroke-width:3;stroke-linecap:round;stroke-linejoin:round;stroke-miterlimit:10;}
	.st1{fill:#443F8F;}
	.st2{fill:none;stroke:#C7C6C5;stroke-width:2;stroke-linecap:round;stroke-linejoin:round;}
	.st3{fill:none;stroke:#C7C6C5;stroke-width:2;stroke-linecap:round;stroke-linejoin:round;stroke-dasharray:6.0514,7.06;}
	.st4{fill:url(#SVGID_2_);}
	.st5{fill:none;stroke:url(#SVGID_3_);stroke-width:3;stroke-linecap:round;stroke-miterlimit:10;}
	.st6{fill:none;stroke:url(#SVGID_4_);stroke-width:3;stroke-linecap:round;stroke-miterlimit:10;}
	.st7{fill:none;stroke:url(#SVGID_5_);stroke-width:3;stroke-linecap:round;stroke-miterlimit:10;}
	.st8{fill:none;stroke:url(#SVGID_6_);stroke-width:3;stroke-linecap:round;stroke-linejoin:round;stroke-miterlimit:10;}
	.st9{fill:none;stroke:url(#SVGID_7_);stroke-width:3;stroke-linecap:round;stroke-miterlimit:10;}
	.st10{fill:none;stroke:url(#SVGID_8_);stroke-width:3;stroke-miterlimit:10;}
	.st11{fill:url(#SVGID_9_);}
</style>
<linearGradient id="SVGID_1_" gradientUnits="userSpaceOnUse" x1="77.9181" y1="41.5842" x2="90.8886" y2="54.5547">
	<stop  offset="0" style="stop-color:#FDED24"/>
	<stop  offset="0.3707" style="stop-color:#F08F34"/>
	<stop  offset="1" style="stop-color:#E2332D"/>
</linearGradient>
<path class="st0" d="M80.1,41.6l-5.8,5.8 M86.9,45.7l-5.1,5.2 M94.6,48.7l-5.3,5.3"/>
<g>
	<g>
		<path class="st1" d="M176,102.6v-4l-3-5.4h1.4l1.3,2.6c0.4,0.7,0.6,1.3,0.9,1.9h0c0.3-0.6,0.6-1.2,1-1.9l1.4-2.6h1.4l-3.2,5.4v4
			H176z"/>
		<path class="st1" d="M186.5,99.2c0,2.5-1.7,3.6-3.4,3.6c-1.8,0-3.2-1.3-3.2-3.5c0-2.3,1.5-3.6,3.4-3.6
			C185.2,95.7,186.5,97.1,186.5,99.2z M181.1,99.3c0,1.5,0.9,2.6,2.1,2.6c1.2,0,2.1-1.1,2.1-2.6c0-1.1-0.6-2.6-2-2.6
			S181.1,98,181.1,99.3z"/>
		<path class="st1" d="M193.7,100.8c0,0.7,0,1.3,0.1,1.8h-1.1l-0.1-1.1h0c-0.3,0.5-1,1.3-2.2,1.3c-1.1,0-2.3-0.6-2.3-3v-4h1.2v3.8
			c0,1.3,0.4,2.2,1.5,2.2c0.8,0,1.4-0.6,1.6-1.1c0.1-0.2,0.1-0.4,0.1-0.6v-4.2h1.2V100.8z"/>
		<path class="st1" d="M195.8,98c0-0.8,0-1.5-0.1-2.1h1.1l0,1.3h0.1c0.3-0.9,1-1.5,1.9-1.5c0.1,0,0.2,0,0.3,0v1.2
			c-0.1,0-0.3,0-0.4,0c-0.9,0-1.5,0.7-1.7,1.6c0,0.2-0.1,0.4-0.1,0.6v3.6h-1.2V98z"/>
		<path class="st1" d="M207.1,102.6l-0.1-0.9h0c-0.4,0.5-1.1,1-2.1,1c-1.4,0-2.1-1-2.1-1.9c0-1.6,1.5-2.5,4.1-2.5v-0.1
			c0-0.6-0.2-1.6-1.5-1.6c-0.6,0-1.3,0.2-1.8,0.5l-0.3-0.8c0.6-0.4,1.4-0.6,2.2-0.6c2.1,0,2.6,1.4,2.6,2.8v2.5c0,0.6,0,1.2,0.1,1.6
			H207.1z M206.9,99.2c-1.3,0-2.9,0.2-2.9,1.5c0,0.8,0.5,1.2,1.2,1.2c0.9,0,1.4-0.6,1.6-1.1c0-0.1,0.1-0.3,0.1-0.4V99.2z"/>
		<path class="st1" d="M214.9,102.4c-0.3,0.2-1,0.4-1.9,0.4c-2,0-3.4-1.4-3.4-3.5c0-2.1,1.4-3.6,3.6-3.6c0.7,0,1.4,0.2,1.7,0.4
			l-0.3,1c-0.3-0.2-0.8-0.3-1.4-0.3c-1.6,0-2.4,1.1-2.4,2.6c0,1.6,1,2.5,2.4,2.5c0.7,0,1.2-0.2,1.5-0.3L214.9,102.4z"/>
		<path class="st1" d="M218,93.9v1.9h1.8v0.9H218v3.7c0,0.8,0.2,1.3,0.9,1.3c0.3,0,0.6,0,0.7-0.1l0.1,0.9c-0.2,0.1-0.6,0.2-1.1,0.2
			c-0.6,0-1-0.2-1.3-0.5c-0.4-0.4-0.5-1-0.5-1.8v-3.7h-1.1v-0.9h1.1v-1.6L218,93.9z"/>
		<path class="st1" d="M222.5,93.9c0,0.4-0.3,0.8-0.8,0.8c-0.4,0-0.7-0.3-0.7-0.8c0-0.4,0.3-0.8,0.8-0.8
			C222.2,93.2,222.5,93.5,222.5,93.9z M221.2,102.6v-6.8h1.2v6.8H221.2z"/>
		<path class="st1" d="M224.9,95.8l1.3,3.8c0.2,0.6,0.4,1.2,0.5,1.7h0c0.2-0.6,0.3-1.1,0.6-1.7l1.3-3.8h1.3l-2.7,6.8h-1.2l-2.6-6.8
			H224.9z"/>
		<path class="st1" d="M232.6,93.9c0,0.4-0.3,0.8-0.8,0.8c-0.4,0-0.7-0.3-0.7-0.8c0-0.4,0.3-0.8,0.8-0.8
			C232.3,93.2,232.6,93.5,232.6,93.9z M231.2,102.6v-6.8h1.2v6.8H231.2z"/>
		<path class="st1" d="M235.9,93.9v1.9h1.8v0.9h-1.8v3.7c0,0.8,0.2,1.3,0.9,1.3c0.3,0,0.6,0,0.7-0.1l0.1,0.9
			c-0.2,0.1-0.6,0.2-1.1,0.2c-0.6,0-1-0.2-1.3-0.5c-0.4-0.4-0.5-1-0.5-1.8v-3.7h-1.1v-0.9h1.1v-1.6L235.9,93.9z"/>
		<path class="st1" d="M240.5,93.9c0,0.4-0.3,0.8-0.8,0.8c-0.4,0-0.7-0.3-0.7-0.8c0-0.4,0.3-0.8,0.8-0.8
			C240.2,93.2,240.5,93.5,240.5,93.9z M239.1,102.6v-6.8h1.2v6.8H239.1z"/>
		<path class="st1" d="M243.1,99.5c0,1.7,1.1,2.4,2.3,2.4c0.9,0,1.4-0.2,1.9-0.4l0.2,0.9c-0.4,0.2-1.2,0.4-2.3,0.4
			c-2.1,0-3.3-1.4-3.3-3.4c0-2,1.2-3.7,3.2-3.7c2.2,0,2.8,1.9,2.8,3.2c0,0.3,0,0.4,0,0.6H243.1z M246.7,98.6c0-0.8-0.3-2-1.7-2
			c-1.2,0-1.8,1.1-1.9,2H246.7z"/>
		<path class="st1" d="M249.2,101.4c0.4,0.2,1,0.5,1.6,0.5c0.9,0,1.3-0.4,1.3-1c0-0.6-0.3-0.9-1.3-1.2c-1.2-0.4-1.8-1.1-1.8-1.9
			c0-1.1,0.9-2,2.3-2c0.7,0,1.3,0.2,1.7,0.4l-0.3,0.9c-0.3-0.2-0.8-0.4-1.4-0.4c-0.7,0-1.1,0.4-1.1,0.9c0,0.6,0.4,0.8,1.3,1.1
			c1.2,0.4,1.8,1,1.8,2c0,1.2-0.9,2-2.5,2c-0.7,0-1.4-0.2-1.9-0.5L249.2,101.4z"/>
	</g>
</g>
<g>
	<g>
		<line class="st2" x1="4.7" y1="71.1" x2="7.6" y2="71.8"/>
		<polyline class="st3" points="14.4,73.7 214.3,128.1 415.7,72.8 		"/>
		<line class="st2" x1="419.1" y1="71.9" x2="422" y2="71.1"/>
	</g>
</g>
<g>
	<g>
		<g>
			<linearGradient id="SVGID_2_" gradientUnits="userSpaceOnUse" x1="199.3472" y1="33.2819" x2="213.024" y2="46.9586">
				<stop  offset="0" style="stop-color:#FDED24"/>
				<stop  offset="0.3707" style="stop-color:#F08F34"/>
				<stop  offset="1" style="stop-color:#E2332D"/>
			</linearGradient>
			<circle class="st4" cx="206.2" cy="40.1" r="9.7"/>
		</g>
	</g>
</g>
<linearGradient id="SVGID_3_" gradientUnits="userSpaceOnUse" x1="179.1172" y1="40.3035" x2="217.0698" y2="78.2561">
	<stop  offset="0" style="stop-color:#14ACE3"/>
	<stop  offset="0.1536" style="stop-color:#0991CF"/>
	<stop  offset="0.2852" style="stop-color:#067EC1"/>
	<stop  offset="0.3579" style="stop-color:#0378BC"/>
	<stop  offset="0.7261" style="stop-color:#343679"/>
	<stop  offset="0.9658" style="stop-color:#231E55"/>
</linearGradient>
<path class="st5" d="M164.1,65.6c2.3,3.2,5.3,5,8.6,5c2.8,0,5.5-1.3,7.7-3.8c2.1,2.5,4.8,3.8,7.7,3.8c2.8,0,5.5-1.3,7.7-3.8
	c2.1,2.5,4.8,3.8,7.7,3.8c2.8,0,5.5-1.3,7.7-3.8c2.1,2.5,4.8,3.8,7.7,3.8c3.3,0,6.3-1.8,8.6-5 M215.8,63.5l10.3-10.3
	c1.5-1.5,1.8-4,0.6-5.7c-0.7-1.1-1.5-1.9-3.2-1.9c-1.3,0-2.5,0.4-3.4,1.3l-9.2,9.2c-0.4,0.4-0.9,0.4-1.3,0.2l-23.6-12.7
	c-3.1-1.7-6.9-1.1-9.4,1.4l-9,9c-1.7,1.6-1.8,4.3-0.3,6.1c0.8,0.9,1.9,1.4,3.1,1.4c1.2,0,2.3-0.4,3.2-1.3l6.9-6.8
	c0.4-0.4,1-0.4,1.4-0.1L186,56l-3.6,3.6 M211.2,77.1c-2.1,2.5-4.8,3.8-7.7,3.8c-2.8,0-5.5-1.3-7.7-3.8c-2.1,2.5-4.8,3.8-7.7,3.8
	c-2.8,0-5.5-1.3-7.7-3.8"/>
<linearGradient id="SVGID_4_" gradientUnits="userSpaceOnUse" x1="354.9089" y1="35.3281" x2="374.4961" y2="54.9152">
	<stop  offset="0" style="stop-color:#FDED24"/>
	<stop  offset="0.3707" style="stop-color:#F08F34"/>
	<stop  offset="1" style="stop-color:#E2332D"/>
</linearGradient>
<path class="st6" d="M365,62.3c0-9.5,7.7-17.2,17.2-17.2 M364.4,62.3c0-9.5-7.7-17.2-17.2-17.2"/>
<linearGradient id="SVGID_5_" gradientUnits="userSpaceOnUse" x1="294.3369" y1="13.1536" x2="364.2355" y2="83.0523">
	<stop  offset="0" style="stop-color:#14ACE3"/>
	<stop  offset="0.1536" style="stop-color:#0991CF"/>
	<stop  offset="0.2852" style="stop-color:#067EC1"/>
	<stop  offset="0.3579" style="stop-color:#0378BC"/>
	<stop  offset="0.7261" style="stop-color:#343679"/>
	<stop  offset="0.9658" style="stop-color:#231E55"/>
</linearGradient>
<path class="st7" d="M347.2,62.3h35.6 M308.7,62l11.2,15.8c4.8,6.8,16.1,7.2,21.3,3.5l-0.5,0.3c5.2-3.7,8.6-14.5,3.8-21.3
	l-11.2-15.8L308.7,62z M330.3,66.3l-33.9-47.9 M286.6,23l17.3-12.3"/>
<linearGradient id="SVGID_6_" gradientUnits="userSpaceOnUse" x1="49.7829" y1="34.5304" x2="97.8449" y2="82.5924">
	<stop  offset="0" style="stop-color:#14ACE3"/>
	<stop  offset="0.1536" style="stop-color:#0991CF"/>
	<stop  offset="0.2852" style="stop-color:#067EC1"/>
	<stop  offset="0.3579" style="stop-color:#0378BC"/>
	<stop  offset="0.7261" style="stop-color:#343679"/>
	<stop  offset="0.9658" style="stop-color:#231E55"/>
</linearGradient>
<path class="st8" d="M113.5,59.8c-1.4,2.6-18.2,10.1-31.5,6.9s-35.8-2.8-35.8-2.8 M113.7,58.7v1.6c0,3.2-1.5,6.3-4,8.2
	c-5.1,3.9-12.4,6.1-20.4,6.1H49.7c-3.2,0-5.8-2.6-5.8-5.8c0-1,0.3-2,0.8-2.8l1.5-2.2V42.1c0-2.6,2.1-4.7,4.7-4.7
	c1.2,0,2.2,0.7,2.7,1.8l0.5,1.1c1.1,2.6,3.5,4.4,6.3,4.9c2.8,0.4,5.6-0.7,7.4-2.9l2.3-2.8c1.5-1.8,4.1-2.2,6-1l7.9,4.9
	c3.7,2.3,7.8,4,12,5.2l12.4,3.3C111.5,52.7,113.7,55.5,113.7,58.7z"/>
<linearGradient id="SVGID_7_" gradientUnits="userSpaceOnUse" x1="248.5038" y1="38.0875" x2="286.014" y2="75.5978">
	<stop  offset="0" style="stop-color:#14ACE3"/>
	<stop  offset="0.1536" style="stop-color:#0991CF"/>
	<stop  offset="0.2852" style="stop-color:#067EC1"/>
	<stop  offset="0.3579" style="stop-color:#0378BC"/>
	<stop  offset="0.7261" style="stop-color:#343679"/>
	<stop  offset="0.9658" style="stop-color:#231E55"/>
</linearGradient>
<path class="st9" d="M256.6,55.2c4.1-18.9,21.5-20.5,21.5-20.5 M242.8,59.8c0,0,9.4,12.8,28.2,7 M283.1,75.7c0,0,6.6-14.6-8.8-27.4
	 M287.3,42.6c0,0-15.6,1-19.5,14.6 M244.7,47c0,0,7.8,12.7,22.5,9.6 M270.8,80.9c0,0,6.6-14-4.5-23.9 M267.3,31.8
	c-13.8,0-25,11.2-25,25s11.2,25,25,25s25-11.2,25-25S281.1,31.8,267.3,31.8z"/>
<linearGradient id="SVGID_8_" gradientUnits="userSpaceOnUse" x1="519.9128" y1="-1164.6886" x2="538.7711" y2="-1092.9886" gradientTransform="matrix(0.8637 -0.504 0.504 0.8637 255.9088 1292.4653)">
	<stop  offset="0" style="stop-color:#14ACE3"/>
	<stop  offset="0.1536" style="stop-color:#0991CF"/>
	<stop  offset="0.2852" style="stop-color:#067EC1"/>
	<stop  offset="0.3579" style="stop-color:#0378BC"/>
	<stop  offset="0.7261" style="stop-color:#343679"/>
	<stop  offset="0.9658" style="stop-color:#231E55"/>
</linearGradient>
<path class="st10" d="M145.5,67.7l6.2-3.6l10.6,18.2l-6.2,3.6L145.5,67.7z M143.9,57.9 M137.1,59.9l8.5,7.8l6.2-3.6l-2.5-11
	 M143.9,57.9c8.2-4.8,10.1-16.6,4.4-26.5c-5.8-9.9-17-14-25.2-9.2s-10.1,16.6-4.4,26.5S135.8,62.6,143.9,57.9z"/>
<linearGradient id="SVGID_9_" gradientUnits="userSpaceOnUse" x1="539.0343" y1="-1141.7616" x2="542.8273" y2="-1127.3407" gradientTransform="matrix(0.8637 -0.504 0.504 0.8637 255.9088 1292.4653)">
	<stop  offset="0" style="stop-color:#FDED24"/>
	<stop  offset="0.3707" style="stop-color:#F08F34"/>
	<stop  offset="1" style="stop-color:#E2332D"/>
</linearGradient>
<circle class="st11" cx="151.3" cy="39.9" r="7.5"/>
</svg>
