<?xml version="1.0" encoding="utf-8"?>
<!-- Generator: Adobe Illustrator 22.0.1, SVG Export Plug-In . SVG Version: 6.00 Build 0)  -->
<svg version="1.1" id="Layer_1" xmlns="http://www.w3.org/2000/svg" xmlns:xlink="http://www.w3.org/1999/xlink" x="0px" y="0px"
	 viewBox="0 0 428.5 137.5" style="enable-background:new 0 0 428.5 137.5;" xml:space="preserve">
<style type="text/css">
	.st0{fill:none;stroke:url(#SVGID_1_);stroke-width:3;stroke-linecap:round;stroke-miterlimit:10;}
	.st1{fill:#FFFFFD;stroke:#CAC9C7;stroke-width:0.9191;stroke-miterlimit:10;}
	.st2{fill:#443F8F;}
	.st3{fill:#F5A735;}
	.st4{fill:#E73C2F;}
	.st5{fill:url(#SVGID_2_);}
	.st6{fill:url(#SVGID_3_);}
	.st7{fill:#209AD6;}
	.st8{fill:#0A69B1;}
	.st9{fill:#DF1B81;}
	.st10{fill:#76C9F1;}
	.st11{fill:#922680;}
	.st12{fill:none;stroke:#C7C6C5;stroke-width:2;stroke-linecap:round;stroke-linejoin:round;stroke-miterlimit:10;}
	.st13{fill:#B2B2B2;stroke:#C7C6C5;stroke-width:2;stroke-linecap:round;stroke-linejoin:round;stroke-miterlimit:10;}
	.st14{fill:none;stroke:url(#SVGID_4_);stroke-width:3;stroke-linecap:round;stroke-miterlimit:10;}
	.st15{fill:url(#SVGID_5_);}
	.st16{fill:none;stroke:url(#SVGID_6_);stroke-width:3;stroke-linecap:round;stroke-miterlimit:10;}
	.st17{fill:url(#SVGID_7_);}
	.st18{fill:#1E71B8;}
	.st19{fill:#184894;}
	.st20{fill:none;stroke:url(#SVGID_8_);stroke-width:3;stroke-linecap:round;stroke-miterlimit:10;}
	.st21{fill:url(#SVGID_9_);}
	.st22{fill:url(#SVGID_10_);}
	.st23{fill:none;stroke:url(#SVGID_11_);stroke-width:3;stroke-linecap:round;stroke-miterlimit:10;}
	.st24{fill:none;stroke:#2F2F81;stroke-width:6;stroke-linecap:round;stroke-miterlimit:10;}
	.st25{fill:none;stroke:#C7C6C5;stroke-width:2;stroke-linecap:round;stroke-linejoin:round;}
	.st26{fill:none;stroke:#C7C6C5;stroke-width:2;stroke-linecap:round;stroke-linejoin:round;stroke-dasharray:6.0886,7.1034;}
	.st27{fill:none;stroke:url(#SVGID_12_);stroke-width:3;stroke-linecap:round;stroke-linejoin:round;stroke-miterlimit:10;}
	.st28{fill:url(#SVGID_13_);}
	.st29{fill:#FFFFFF;}
	.st30{fill:none;stroke:url(#SVGID_14_);stroke-width:3;stroke-linecap:round;stroke-miterlimit:10;}
	.st31{fill:none;stroke:url(#SVGID_15_);stroke-width:3;stroke-linecap:round;stroke-miterlimit:10;}
	.st32{fill:#FFFFFF;stroke:#FFFFFF;stroke-width:8.1809;stroke-linecap:round;stroke-linejoin:round;stroke-miterlimit:10;}
	.st33{fill:#FFFFFF;stroke:url(#SVGID_16_);stroke-width:3;stroke-linecap:round;stroke-linejoin:round;stroke-miterlimit:10;}
	.st34{fill:url(#SVGID_17_);}
	.st35{fill:url(#SVGID_18_);}
</style>
<linearGradient id="SVGID_1_" gradientUnits="userSpaceOnUse" x1="597.6472" y1="-1252.6652" x2="582.8336" y2="-1267.4789" gradientTransform="matrix(0 1 -1 0 624.2934 -548.0619)">
	<stop  offset="0" style="stop-color:#F6A733"/>
	<stop  offset="0.7203" style="stop-color:#EA6031"/>
	<stop  offset="1" style="stop-color:#E73B30"/>
</linearGradient>
<polyline class="st0" points="1875.3,45.8 1880.7,51.2 1893.4,38.6 "/>
<polygon class="st1" points="1694.3,17.8 1716.6,42.9 1694.3,69 1607.1,69 1607.1,17.8 "/>
<g>
	<g>
		<path class="st2" d="M1636.6,35.7l-1.7-6.7h0.9l0.8,3.4c0.2,0.8,0.4,1.7,0.5,2.3h0c0.1-0.7,0.3-1.5,0.5-2.3l0.9-3.4h0.9l0.8,3.4
			c0.2,0.8,0.4,1.6,0.5,2.3h0c0.1-0.7,0.3-1.5,0.5-2.3l0.9-3.4h0.9l-1.9,6.7h-0.9l-0.8-3.5c-0.2-0.9-0.3-1.5-0.4-2.2h0
			c-0.1,0.7-0.3,1.3-0.5,2.2l-1,3.5H1636.6z"/>
		<path class="st2" d="M1643.9,28.6h0.9v3h0c0.1-0.2,0.4-0.5,0.6-0.6c0.3-0.2,0.6-0.2,0.9-0.2c0.6,0,1.7,0.4,1.7,2.1v2.9h-0.9v-2.8
			c0-0.8-0.3-1.4-1.1-1.4c-0.6,0-1,0.4-1.2,0.9c0,0.1-0.1,0.2-0.1,0.4v2.9h-0.9V28.6z"/>
		<path class="st2" d="M1650,33.4c0,1.2,0.8,1.7,1.7,1.7c0.6,0,1-0.1,1.3-0.2l0.1,0.6c-0.3,0.1-0.8,0.3-1.6,0.3
			c-1.5,0-2.4-1-2.4-2.4c0-1.5,0.9-2.6,2.3-2.6c1.6,0,2,1.4,2,2.3c0,0.2,0,0.3,0,0.4H1650z M1652.5,32.8c0-0.6-0.2-1.4-1.2-1.4
			c-0.9,0-1.3,0.8-1.3,1.4H1652.5z"/>
		<path class="st2" d="M1654.5,32.2c0-0.5,0-0.9,0-1.3h0.8l0.1,0.8h0c0.2-0.5,0.8-0.9,1.6-0.9c0.7,0,1.7,0.4,1.7,2.1v2.9h-0.9v-2.8
			c0-0.8-0.3-1.4-1.1-1.4c-0.6,0-1,0.4-1.2,0.9c0,0.1-0.1,0.3-0.1,0.4v2.9h-0.9V32.2z"/>
		<path class="st2" d="M1662.5,30.8l1.1,2.9c0.1,0.3,0.2,0.7,0.3,1h0c0.1-0.3,0.2-0.7,0.3-1l1-2.8h0.9l-1.3,3.4
			c-0.6,1.7-1.1,2.5-1.7,3c-0.4,0.4-0.9,0.5-1.1,0.6l-0.2-0.7c0.2-0.1,0.5-0.2,0.8-0.4c0.2-0.2,0.5-0.5,0.7-1c0-0.1,0.1-0.2,0.1-0.2
			c0,0,0-0.1-0.1-0.2l-1.8-4.5H1662.5z"/>
		<path class="st2" d="M1671.1,33.2c0,1.8-1.2,2.6-2.4,2.6c-1.3,0-2.3-1-2.3-2.5c0-1.6,1.1-2.6,2.4-2.6
			C1670.2,30.7,1671.1,31.7,1671.1,33.2z M1667.3,33.3c0,1.1,0.6,1.9,1.5,1.9c0.8,0,1.5-0.8,1.5-1.9c0-0.8-0.4-1.9-1.4-1.9
			C1667.8,31.4,1667.3,32.4,1667.3,33.3z"/>
		<path class="st2" d="M1676.3,34.4c0,0.5,0,0.9,0,1.3h-0.8l0-0.8h0c-0.2,0.4-0.7,0.9-1.6,0.9c-0.8,0-1.7-0.4-1.7-2.1v-2.8h0.9v2.7
			c0,0.9,0.3,1.5,1.1,1.5c0.6,0,1-0.4,1.2-0.8c0-0.1,0.1-0.3,0.1-0.5v-3h0.9V34.4z"/>
		<path class="st2" d="M1677.8,32.4c0-0.6,0-1.1,0-1.5h0.8l0,0.9h0c0.2-0.6,0.7-1.1,1.3-1.1c0.1,0,0.2,0,0.2,0v0.8
			c-0.1,0-0.2,0-0.3,0c-0.6,0-1.1,0.5-1.2,1.1c0,0.1,0,0.3,0,0.4v2.6h-0.9V32.4z"/>
		<path class="st2" d="M1620.9,46.7c0-0.3,0-0.8,0-1.2v-5.8h0.9v3h0c0.3-0.5,0.9-0.9,1.6-0.9c1.2,0,2,1,2,2.5c0,1.7-1.1,2.6-2.2,2.6
			c-0.7,0-1.3-0.3-1.6-0.9h0l0,0.8H1620.9z M1621.8,44.7c0,0.1,0,0.2,0,0.3c0.2,0.6,0.7,1,1.3,1c0.9,0,1.5-0.7,1.5-1.9
			c0-1-0.5-1.8-1.4-1.8c-0.6,0-1.2,0.4-1.3,1.1c0,0.1,0,0.2,0,0.4V44.7z"/>
		<path class="st2" d="M1631,44.2c0,1.8-1.2,2.6-2.4,2.6c-1.3,0-2.3-1-2.3-2.5c0-1.6,1.1-2.6,2.4-2.6C1630,41.7,1631,42.7,1631,44.2
			z M1627.1,44.3c0,1.1,0.6,1.9,1.5,1.9c0.8,0,1.5-0.8,1.5-1.9c0-0.8-0.4-1.9-1.4-1.9C1627.6,42.4,1627.1,43.4,1627.1,44.3z"/>
		<path class="st2" d="M1636.5,44.2c0,1.8-1.2,2.6-2.4,2.6c-1.3,0-2.3-1-2.3-2.5c0-1.6,1.1-2.6,2.4-2.6
			C1635.5,41.7,1636.5,42.7,1636.5,44.2z M1632.6,44.3c0,1.1,0.6,1.9,1.5,1.9c0.8,0,1.5-0.8,1.5-1.9c0-0.8-0.4-1.9-1.4-1.9
			C1633.1,42.4,1632.6,43.4,1632.6,44.3z"/>
		<path class="st2" d="M1638.5,44.1L1638.5,44.1c0.1-0.2,0.3-0.4,0.4-0.5l1.4-1.7h1.1l-1.9,2l2.1,2.8h-1.1l-1.7-2.3l-0.4,0.5v1.8
			h-0.9v-7.1h0.9V44.1z"/>
		<path class="st2" d="M1643.4,40.5c0,0.3-0.2,0.5-0.6,0.5c-0.3,0-0.5-0.2-0.5-0.5c0-0.3,0.2-0.5,0.5-0.5
			C1643.2,39.9,1643.4,40.2,1643.4,40.5z M1642.4,46.7v-4.8h0.9v4.8H1642.4z"/>
		<path class="st2" d="M1644.8,43.2c0-0.5,0-0.9,0-1.3h0.8l0.1,0.8h0c0.2-0.5,0.8-0.9,1.6-0.9c0.7,0,1.7,0.4,1.7,2.1v2.9h-0.9v-2.8
			c0-0.8-0.3-1.4-1.1-1.4c-0.6,0-1,0.4-1.2,0.9c0,0.1-0.1,0.3-0.1,0.4v2.9h-0.9V43.2z"/>
		<path class="st2" d="M1654.5,41.8c0,0.3,0,0.7,0,1.3V46c0,1.1-0.2,1.8-0.7,2.2c-0.5,0.4-1.1,0.6-1.8,0.6c-0.6,0-1.2-0.1-1.6-0.4
			l0.2-0.7c0.3,0.2,0.8,0.4,1.4,0.4c0.9,0,1.6-0.5,1.6-1.7v-0.5h0c-0.3,0.4-0.8,0.8-1.5,0.8c-1.2,0-2.1-1-2.1-2.4
			c0-1.6,1.1-2.6,2.2-2.6c0.8,0,1.3,0.4,1.5,0.8h0l0-0.7H1654.5z M1653.6,43.8c0-0.1,0-0.3-0.1-0.4c-0.2-0.5-0.6-0.9-1.2-0.9
			c-0.8,0-1.4,0.7-1.4,1.8c0,0.9,0.5,1.7,1.4,1.7c0.5,0,1-0.3,1.2-0.9c0-0.2,0.1-0.3,0.1-0.5V43.8z"/>
		<path class="st2" d="M1657.9,45.8c0.3,0.2,0.7,0.3,1.2,0.3c0.6,0,0.9-0.3,0.9-0.7c0-0.4-0.2-0.6-0.9-0.9c-0.9-0.3-1.3-0.8-1.3-1.4
			c0-0.8,0.6-1.4,1.7-1.4c0.5,0,0.9,0.1,1.2,0.3l-0.2,0.6c-0.2-0.1-0.5-0.3-1-0.3c-0.5,0-0.8,0.3-0.8,0.7c0,0.4,0.3,0.6,0.9,0.8
			c0.8,0.3,1.3,0.7,1.3,1.5c0,0.8-0.7,1.4-1.8,1.4c-0.5,0-1-0.1-1.4-0.3L1657.9,45.8z"/>
		<path class="st2" d="M1662.3,41.8l1.1,2.9c0.1,0.3,0.2,0.7,0.3,1h0c0.1-0.3,0.2-0.7,0.3-1l1-2.8h0.9l-1.3,3.4
			c-0.6,1.7-1.1,2.5-1.7,3c-0.4,0.4-0.9,0.5-1.1,0.6l-0.2-0.7c0.2-0.1,0.5-0.2,0.8-0.4c0.2-0.2,0.5-0.5,0.7-1c0-0.1,0.1-0.2,0.1-0.2
			c0,0,0-0.1-0.1-0.2l-1.8-4.5H1662.3z"/>
		<path class="st2" d="M1666.5,45.8c0.3,0.2,0.7,0.3,1.2,0.3c0.6,0,0.9-0.3,0.9-0.7c0-0.4-0.2-0.6-0.9-0.9c-0.9-0.3-1.3-0.8-1.3-1.4
			c0-0.8,0.6-1.4,1.7-1.4c0.5,0,0.9,0.1,1.2,0.3l-0.2,0.6c-0.2-0.1-0.5-0.3-1-0.3c-0.5,0-0.8,0.3-0.8,0.7c0,0.4,0.3,0.6,0.9,0.8
			c0.8,0.3,1.3,0.7,1.3,1.5c0,0.8-0.7,1.4-1.8,1.4c-0.5,0-1-0.1-1.4-0.3L1666.5,45.8z"/>
		<path class="st2" d="M1671.7,40.5v1.4h1.3v0.7h-1.3v2.6c0,0.6,0.2,0.9,0.7,0.9c0.2,0,0.4,0,0.5-0.1l0,0.7
			c-0.2,0.1-0.4,0.1-0.8,0.1c-0.4,0-0.7-0.1-0.9-0.4c-0.2-0.3-0.3-0.7-0.3-1.3v-2.6h-0.8v-0.7h0.8v-1.2L1671.7,40.5z"/>
		<path class="st2" d="M1674.4,44.4c0,1.2,0.8,1.7,1.7,1.7c0.6,0,1-0.1,1.3-0.2l0.1,0.6c-0.3,0.1-0.8,0.3-1.6,0.3
			c-1.5,0-2.4-1-2.4-2.4s0.9-2.6,2.3-2.6c1.6,0,2,1.4,2,2.3c0,0.2,0,0.3,0,0.4H1674.4z M1676.9,43.8c0-0.6-0.2-1.4-1.2-1.4
			c-0.9,0-1.3,0.8-1.3,1.4H1676.9z"/>
		<path class="st2" d="M1678.9,43.2c0-0.5,0-0.9,0-1.3h0.8l0,0.8h0c0.3-0.5,0.7-0.9,1.5-0.9c0.7,0,1.2,0.4,1.4,1h0
			c0.2-0.3,0.3-0.5,0.5-0.6c0.3-0.2,0.6-0.3,1.1-0.3c0.6,0,1.6,0.4,1.6,2.1v2.8h-0.9v-2.7c0-0.9-0.3-1.5-1-1.5c-0.5,0-0.9,0.4-1,0.8
			c0,0.1-0.1,0.3-0.1,0.4v3h-0.9v-2.9c0-0.8-0.3-1.3-1-1.3c-0.5,0-0.9,0.4-1.1,0.9c0,0.1-0.1,0.3-0.1,0.4v2.9h-0.9V43.2z"/>
		<path class="st2" d="M1690.3,40.5c0,0.3-0.2,0.5-0.6,0.5c-0.3,0-0.5-0.2-0.5-0.5c0-0.3,0.2-0.5,0.5-0.5
			C1690.1,39.9,1690.3,40.2,1690.3,40.5z M1689.3,46.7v-4.8h0.9v4.8H1689.3z"/>
		<path class="st2" d="M1691.6,45.8c0.3,0.2,0.7,0.3,1.2,0.3c0.6,0,0.9-0.3,0.9-0.7c0-0.4-0.2-0.6-0.9-0.9c-0.9-0.3-1.3-0.8-1.3-1.4
			c0-0.8,0.6-1.4,1.7-1.4c0.5,0,0.9,0.1,1.2,0.3l-0.2,0.6c-0.2-0.1-0.5-0.3-1-0.3c-0.5,0-0.8,0.3-0.8,0.7c0,0.4,0.3,0.6,0.9,0.8
			c0.8,0.3,1.3,0.7,1.3,1.5c0,0.8-0.7,1.4-1.8,1.4c-0.5,0-1-0.1-1.4-0.3L1691.6,45.8z"/>
		<path class="st2" d="M1651.8,55.2c0,1.8-1.2,2.6-2.4,2.6c-1.3,0-2.3-1-2.3-2.5c0-1.6,1.1-2.6,2.4-2.6
			C1650.8,52.7,1651.8,53.7,1651.8,55.2z M1647.9,55.3c0,1.1,0.6,1.9,1.5,1.9c0.8,0,1.5-0.8,1.5-1.9c0-0.8-0.4-1.9-1.4-1.9
			C1648.4,53.4,1647.9,54.4,1647.9,55.3z"/>
		<path class="st2" d="M1652.9,54.4c0-0.6,0-1.1,0-1.6h0.8l0,0.8h0c0.4-0.6,0.9-0.9,1.7-0.9c1.2,0,2,1,2,2.5c0,1.7-1.1,2.6-2.2,2.6
			c-0.6,0-1.2-0.3-1.5-0.8h0v2.6h-0.9V54.4z M1653.8,55.7c0,0.1,0,0.2,0,0.4c0.2,0.6,0.7,1,1.3,1c0.9,0,1.5-0.8,1.5-1.9
			c0-1-0.5-1.8-1.4-1.8c-0.6,0-1.2,0.4-1.3,1.1c0,0.1-0.1,0.2-0.1,0.4V55.7z"/>
		<path class="st2" d="M1659.1,55.4c0,1.2,0.8,1.7,1.7,1.7c0.6,0,1-0.1,1.3-0.2l0.1,0.6c-0.3,0.1-0.8,0.3-1.6,0.3
			c-1.5,0-2.4-1-2.4-2.4s0.9-2.6,2.3-2.6c1.6,0,2,1.4,2,2.3c0,0.2,0,0.3,0,0.4H1659.1z M1661.7,54.8c0-0.6-0.2-1.4-1.2-1.4
			c-0.9,0-1.3,0.8-1.3,1.4H1661.7z"/>
		<path class="st2" d="M1663.6,54.2c0-0.5,0-0.9,0-1.3h0.8l0.1,0.8h0c0.2-0.5,0.8-0.9,1.6-0.9c0.7,0,1.7,0.4,1.7,2.1v2.9h-0.9v-2.8
			c0-0.8-0.3-1.4-1.1-1.4c-0.6,0-1,0.4-1.2,0.9c0,0.1-0.1,0.3-0.1,0.4v2.9h-0.9V54.2z"/>
	</g>
</g>
<g>
	<path class="st3" d="M1941.9,49.6h4h7h2.6c3.9,0-0.7,2.1-0.7-1.4v1l1.6,1.5l1.1,0.6c0.8-0.2-0.2,1.3,0.6,2.2
		c0.5,0.6,2.3,2.2,2.4,2.3h-9.6C1947,55.8,1941.9,53,1941.9,49.6z"/>
	<path class="st4" d="M1957.7,50.7l0.4,0.7c0.8-0.2,0.5,1.1,1.3,2.1c0.5,0.6,1.3,2.1,1.4,2.3l-0.2,0c-1.3-0.1-12.3,0.4-14.6-6.3h3.9
		h7h0"/>
	<linearGradient id="SVGID_2_" gradientUnits="userSpaceOnUse" x1="1915.828" y1="38.5686" x2="1934.194" y2="38.5686">
		<stop  offset="0" style="stop-color:#525252"/>
		<stop  offset="6.994039e-02" style="stop-color:#787878"/>
		<stop  offset="0.1496" style="stop-color:#9C9C9C"/>
		<stop  offset="0.2368" style="stop-color:#BBBBBB"/>
		<stop  offset="0.3316" style="stop-color:#D4D4D4"/>
		<stop  offset="0.4372" style="stop-color:#E7E7E7"/>
		<stop  offset="0.5593" style="stop-color:#F5F5F5"/>
		<stop  offset="0.713" style="stop-color:#FDFDFD"/>
		<stop  offset="1" style="stop-color:#FFFFFF"/>
	</linearGradient>
	<path class="st5" d="M1932,33.7c-1.1-1-2.7-1.7-4.3-1.7h-3h-3.5h-5.4v6.5h2.4h6.5h3c3.6,0,6.5,2.9,6.5,6.5V44v-3.2v-2.2
		C1934.2,36.6,1933.4,34.9,1932,33.7z"/>
	<linearGradient id="SVGID_3_" gradientUnits="userSpaceOnUse" x1="1915.828" y1="49.3721" x2="1915.828" y2="32.0865">
		<stop  offset="0" style="stop-color:#525252"/>
		<stop  offset="6.994039e-02" style="stop-color:#787878"/>
		<stop  offset="0.1496" style="stop-color:#9C9C9C"/>
		<stop  offset="0.2368" style="stop-color:#BBBBBB"/>
		<stop  offset="0.3316" style="stop-color:#D4D4D4"/>
		<stop  offset="0.4372" style="stop-color:#E7E7E7"/>
		<stop  offset="0.5593" style="stop-color:#F5F5F5"/>
		<stop  offset="0.713" style="stop-color:#FDFDFD"/>
		<stop  offset="1" style="stop-color:#FFFFFF"/>
	</linearGradient>
	<path class="st6" d="M1915.8,49.4V44v-5.4c0-3.6,2.9-6.5,6.5-6.5h-6.5c-1.7,0-3.2,0.6-4.3,1.7c-1.3,1.2-2.2,2.9-2.2,4.8v2.2v2.2
		C1909.3,46.5,1912.2,49.4,1915.8,49.4z"/>
	<path class="st7" d="M1932,33.7c-1.1-1-2.7-1.7-4.3-1.7h-3h-3.5h-5.4v6.5h2.4h6.5h3c0,0,6.5,7,6.5,10.6V45v-4.3v-2.2
		C1934.2,36.6,1933.4,34.9,1932,33.7z"/>
	<path class="st8" d="M1915.8,49.4V44v-5.4c0,0,6.9-6.5,6.9-6.4c0,0,0,0,0,0h-6.9c-1.7,0-3.2,0.6-4.3,1.7c-1.3,1.2-2.2,2.9-2.2,4.8
		v2.2v2.2C1909.3,46.5,1910.8,49.4,1915.8,49.4z"/>
	<path class="st9" d="M1949.7,31.9l11,23.9l0,0c0,0-6.6,0-9.7-6.3l-5.3-11.4C1944.4,35.2,1946.5,31.9,1949.7,31.9L1949.7,31.9z"/>
	<path class="st10" d="M1927.7,38.6V44v5.4c0,4.2-6.3,6.5-9.9,6.5h9.9c1.7,0,3.2-0.6,4.3-1.7c1.3-1.2,2.2-2.9,2.2-4.8v-2.2v-2.2
		C1934.2,45.1,1927.7,38.6,1927.7,38.6z"/>
	<path class="st11" d="M1949.7,31.9c0,0-8-0.6-11.4,7.9c-4.4,10.9-7.4,16-18.3,16c-0.1,0,5.9,0,10.3,0c5.6,0,8.9-2,12-8.2
		C1945.3,41.9,1945.6,35.6,1949.7,31.9z"/>
	<path class="st10" d="M1925.6,34.5"/>
	<path class="st4" d="M1952.2,47"/>
	<path class="st4" d="M1933.5,48.2"/>
	<path class="st10" d="M1930.5,39.5"/>
	<path class="st2" d="M1909.4,48.1c0,5.9,4.8,7.8,6.5,7.8h5c3.6,0,6.8-3.7,6.8-6.5h-2.9h-3.6h-5.3c0,0-6.5-7.5-6.5-7.5"/>
</g>
<g>
	<g>
		<line class="st12" x1="1788.6" y1="105.9" x2="1788.6" y2="130.4"/>
		<polyline class="st12" points="1776.2,119.3 1788.4,131.4 1800.5,119.3 		"/>
	</g>
	<path class="st13" d="M1788.4,90.9"/>
	<path class="st13" d="M1788.4,85.2"/>
</g>
<g>
	<g>
		<line class="st12" x1="1684.9" y1="106.3" x2="1661" y2="130.2"/>
		<polyline class="st12" points="1660.2,113.5 1660.2,130.7 1677.3,130.7 		"/>
	</g>
	<path class="st13" d="M1688.8,102.1"/>
</g>
<g>
	<g>
		<line class="st12" x1="1745.3" y1="106.3" x2="1721.5" y2="130.2"/>
		<polyline class="st12" points="1720.6,113.5 1720.6,130.7 1737.8,130.7 		"/>
	</g>
	<path class="st13" d="M1749.3,102.1"/>
</g>
<g>
	<g>
		<line class="st12" x1="1890.7" y1="106.3" x2="1914.2" y2="129.9"/>
		<polyline class="st12" points="1897.6,130.7 1914.8,130.7 1914.8,113.5 		"/>
	</g>
</g>
<g>
	<g>
		<line class="st12" x1="1831.1" y1="106.3" x2="1854.6" y2="129.9"/>
		<polyline class="st12" points="1837.9,130.7 1855.1,130.7 1855.1,113.5 		"/>
	</g>
</g>
<g>
	<g>
		<path class="st2" d="M1730.4,96v-4l-3-5.4h1.4l1.3,2.6c0.4,0.7,0.6,1.3,0.9,1.9h0c0.3-0.6,0.6-1.2,1-1.9l1.4-2.6h1.4l-3.2,5.4v4
			H1730.4z"/>
		<path class="st2" d="M1740.9,92.6c0,2.5-1.7,3.6-3.4,3.6c-1.8,0-3.2-1.3-3.2-3.5c0-2.3,1.5-3.6,3.4-3.6
			C1739.6,89.1,1740.9,90.5,1740.9,92.6z M1735.5,92.6c0,1.5,0.9,2.6,2.1,2.6c1.2,0,2.1-1.1,2.1-2.6c0-1.1-0.6-2.6-2-2.6
			S1735.5,91.3,1735.5,92.6z"/>
		<path class="st2" d="M1748.1,94.2c0,0.7,0,1.3,0.1,1.8h-1.1l-0.1-1.1h0c-0.3,0.5-1,1.3-2.2,1.3c-1.1,0-2.3-0.6-2.3-3v-4h1.2V93
			c0,1.3,0.4,2.2,1.5,2.2c0.8,0,1.4-0.6,1.6-1.1c0.1-0.2,0.1-0.4,0.1-0.6v-4.2h1.2V94.2z"/>
		<path class="st2" d="M1750.2,91.3c0-0.8,0-1.5-0.1-2.1h1.1l0,1.3h0.1c0.3-0.9,1-1.5,1.9-1.5c0.1,0,0.2,0,0.3,0v1.2
			c-0.1,0-0.3,0-0.4,0c-0.9,0-1.5,0.7-1.7,1.6c0,0.2-0.1,0.4-0.1,0.6V96h-1.2V91.3z"/>
		<path class="st2" d="M1757.7,96c0-0.5,0.1-1.1,0.1-1.8v-8.2h1.2v4.3h0c0.4-0.8,1.2-1.2,2.3-1.2c1.7,0,2.9,1.4,2.9,3.5
			c0,2.4-1.5,3.6-3,3.6c-1,0-1.8-0.4-2.3-1.3h0l-0.1,1.1H1757.7z M1758.9,93.3c0,0.2,0,0.3,0.1,0.4c0.2,0.9,1,1.4,1.8,1.4
			c1.3,0,2.1-1.1,2.1-2.6c0-1.4-0.7-2.5-2-2.5c-0.8,0-1.6,0.6-1.9,1.5c0,0.1-0.1,0.3-0.1,0.5V93.3z"/>
		<path class="st2" d="M1771.8,92.6c0,2.5-1.7,3.6-3.4,3.6c-1.8,0-3.2-1.3-3.2-3.5c0-2.3,1.5-3.6,3.4-3.6
			C1770.5,89.1,1771.8,90.5,1771.8,92.6z M1766.4,92.6c0,1.5,0.9,2.6,2.1,2.6c1.2,0,2.1-1.1,2.1-2.6c0-1.1-0.6-2.6-2-2.6
			S1766.4,91.3,1766.4,92.6z"/>
		<path class="st2" d="M1779.5,92.6c0,2.5-1.7,3.6-3.4,3.6c-1.8,0-3.2-1.3-3.2-3.5c0-2.3,1.5-3.6,3.4-3.6
			C1778.2,89.1,1779.5,90.5,1779.5,92.6z M1774.1,92.6c0,1.5,0.9,2.6,2.1,2.6c1.2,0,2.1-1.1,2.1-2.6c0-1.1-0.6-2.6-2-2.6
			S1774.1,91.3,1774.1,92.6z"/>
		<path class="st2" d="M1782.3,92.3L1782.3,92.3c0.2-0.2,0.4-0.5,0.6-0.8l2-2.3h1.5l-2.6,2.8l3,4h-1.5l-2.3-3.2l-0.6,0.7V96h-1.2
			v-9.9h1.2V92.3z"/>
		<path class="st2" d="M1789.2,87.3c0,0.4-0.3,0.8-0.8,0.8c-0.4,0-0.7-0.3-0.7-0.8c0-0.4,0.3-0.8,0.8-0.8
			C1788.9,86.6,1789.2,86.9,1789.2,87.3z M1787.8,96v-6.8h1.2V96H1787.8z"/>
		<path class="st2" d="M1791.1,91.1c0-0.7,0-1.3-0.1-1.8h1.1l0.1,1.1h0c0.3-0.6,1.1-1.3,2.2-1.3c0.9,0,2.4,0.6,2.4,2.9v4h-1.2v-3.9
			c0-1.1-0.4-2-1.6-2c-0.8,0-1.4,0.6-1.7,1.3c-0.1,0.2-0.1,0.4-0.1,0.6V96h-1.2V91.1z"/>
		<path class="st2" d="M1804.7,89.2c0,0.5-0.1,1-0.1,1.9V95c0,1.6-0.3,2.5-1,3.1c-0.7,0.6-1.6,0.8-2.5,0.8c-0.8,0-1.7-0.2-2.3-0.6
			l0.3-0.9c0.4,0.3,1.1,0.5,2,0.5c1.3,0,2.2-0.7,2.2-2.4v-0.8h0c-0.4,0.6-1.1,1.1-2.2,1.1c-1.7,0-2.9-1.4-2.9-3.3
			c0-2.3,1.5-3.6,3.1-3.6c1.2,0,1.8,0.6,2.1,1.2h0l0.1-1H1804.7z M1803.5,91.9c0-0.2,0-0.4-0.1-0.6c-0.2-0.7-0.8-1.3-1.7-1.3
			c-1.2,0-2,1-2,2.6c0,1.3,0.7,2.4,2,2.4c0.8,0,1.4-0.5,1.7-1.3c0.1-0.2,0.1-0.4,0.1-0.7V91.9z"/>
		<path class="st2" d="M1809.5,94.7c0.4,0.2,1,0.5,1.6,0.5c0.9,0,1.3-0.4,1.3-1c0-0.6-0.3-0.9-1.3-1.2c-1.2-0.4-1.8-1.1-1.8-1.9
			c0-1.1,0.9-2,2.3-2c0.7,0,1.3,0.2,1.7,0.4l-0.3,0.9c-0.3-0.2-0.8-0.4-1.4-0.4c-0.7,0-1.1,0.4-1.1,0.9c0,0.6,0.4,0.8,1.3,1.1
			c1.2,0.4,1.8,1,1.8,2c0,1.2-0.9,2-2.5,2c-0.7,0-1.4-0.2-1.9-0.5L1809.5,94.7z"/>
		<path class="st2" d="M1815.7,89.2l1.5,4c0.2,0.4,0.3,1,0.4,1.4h0c0.1-0.4,0.3-0.9,0.4-1.4l1.3-4h1.3l-1.8,4.8
			c-0.9,2.3-1.5,3.5-2.3,4.2c-0.6,0.5-1.2,0.7-1.5,0.8l-0.3-1c0.3-0.1,0.7-0.3,1.1-0.6c0.3-0.3,0.8-0.7,1-1.4
			c0.1-0.1,0.1-0.2,0.1-0.3s0-0.2-0.1-0.3l-2.5-6.2H1815.7z"/>
		<path class="st2" d="M1821.6,94.7c0.4,0.2,1,0.5,1.6,0.5c0.9,0,1.3-0.4,1.3-1c0-0.6-0.3-0.9-1.3-1.2c-1.2-0.4-1.8-1.1-1.8-1.9
			c0-1.1,0.9-2,2.3-2c0.7,0,1.3,0.2,1.7,0.4l-0.3,0.9c-0.3-0.2-0.8-0.4-1.4-0.4c-0.7,0-1.1,0.4-1.1,0.9c0,0.6,0.4,0.8,1.3,1.1
			c1.2,0.4,1.8,1,1.8,2c0,1.2-0.9,2-2.5,2c-0.7,0-1.4-0.2-1.9-0.5L1821.6,94.7z"/>
		<path class="st2" d="M1828.8,87.3v1.9h1.8v0.9h-1.8v3.7c0,0.8,0.2,1.3,0.9,1.3c0.3,0,0.6,0,0.7-0.1l0.1,0.9
			c-0.2,0.1-0.6,0.2-1.1,0.2c-0.6,0-1-0.2-1.3-0.5c-0.4-0.4-0.5-1-0.5-1.8v-3.7h-1.1v-0.9h1.1v-1.6L1828.8,87.3z"/>
		<path class="st2" d="M1832.5,92.8c0,1.7,1.1,2.4,2.3,2.4c0.9,0,1.4-0.2,1.9-0.4l0.2,0.9c-0.4,0.2-1.2,0.4-2.3,0.4
			c-2.1,0-3.3-1.4-3.3-3.4c0-2,1.2-3.7,3.2-3.7c2.2,0,2.8,1.9,2.8,3.2c0,0.3,0,0.4,0,0.6H1832.5z M1836.1,92c0-0.8-0.3-2-1.7-2
			c-1.2,0-1.8,1.1-1.9,2H1836.1z"/>
		<path class="st2" d="M1838.8,91.1c0-0.7,0-1.3-0.1-1.8h1.1l0.1,1.1h0c0.4-0.6,1-1.2,2.1-1.2c0.9,0,1.6,0.6,1.9,1.4h0
			c0.2-0.4,0.5-0.7,0.8-0.9c0.4-0.3,0.9-0.5,1.5-0.5c0.9,0,2.2,0.6,2.2,2.9v4h-1.2v-3.8c0-1.3-0.5-2.1-1.5-2.1
			c-0.7,0-1.2,0.5-1.5,1.1c-0.1,0.2-0.1,0.4-0.1,0.6V96h-1.2v-4.1c0-1.1-0.5-1.9-1.4-1.9c-0.8,0-1.3,0.6-1.5,1.2
			c-0.1,0.2-0.1,0.4-0.1,0.6V96h-1.2V91.1z"/>
	</g>
</g>
<linearGradient id="SVGID_4_" gradientUnits="userSpaceOnUse" x1="1857.2999" y1="24.8171" x2="1896.8837" y2="64.4008">
	<stop  offset="0" style="stop-color:#14ACE3"/>
	<stop  offset="0.1536" style="stop-color:#0991CF"/>
	<stop  offset="0.2852" style="stop-color:#067EC1"/>
	<stop  offset="0.3579" style="stop-color:#0378BC"/>
	<stop  offset="0.7261" style="stop-color:#343679"/>
	<stop  offset="0.9658" style="stop-color:#231E55"/>
</linearGradient>
<path class="st14" d="M1839.5,44.8h27.9 M1901.1,55.7V33.2c0-3.1-2.6-5.7-5.7-5.7H1873c-3.1,0-5.7,2.6-5.7,5.7v22.5
	c0,3.1,2.6,5.7,5.7,5.7h22.5C1898.6,61.3,1901.1,58.8,1901.1,55.7z"/>
<linearGradient id="SVGID_5_" gradientUnits="userSpaceOnUse" x1="1803.4197" y1="53.1737" x2="1818.2767" y2="68.0308">
	<stop  offset="0" style="stop-color:#FDED24"/>
	<stop  offset="0.3707" style="stop-color:#F08F34"/>
	<stop  offset="1" style="stop-color:#E2332D"/>
</linearGradient>
<rect x="1799" y="57.6" class="st15" width="23.7" height="6"/>
<linearGradient id="SVGID_6_" gradientUnits="userSpaceOnUse" x1="1744.3777" y1="-0.7968" x2="1830.8733" y2="85.6988">
	<stop  offset="0" style="stop-color:#14ACE3"/>
	<stop  offset="0.1536" style="stop-color:#0991CF"/>
	<stop  offset="0.2852" style="stop-color:#067EC1"/>
	<stop  offset="0.3579" style="stop-color:#0378BC"/>
	<stop  offset="0.7261" style="stop-color:#343679"/>
	<stop  offset="0.9658" style="stop-color:#231E55"/>
</linearGradient>
<path class="st16" d="M1788.1,7.9h47.7c1.8,0,3.3,1.2,3.3,2.7v63.8c0,1.5-1.5,2.7-3.3,2.7h-96.5c-1.8,0-3.3-1.2-3.3-2.7V10.6
	c0-1.5,1.5-2.7,3.3-2.7H1788.1 M1737.7,20.9h100.8 M1750.6,38.6h3 M1750.6,50h3 M1750.6,61.3h3 M1759.9,38.6h26.3 M1759.9,50h26.3
	 M1759.9,61.3h26.3 M1826.6,48.2v-6.7c0-2.3-1.9-4.2-4.2-4.2h-23.3c-2.3,0-4.2,1.9-4.2,4.2v6.7c0,2.3,1.9,4.2,4.2,4.2h23.3
	C1824.7,52.3,1826.6,50.5,1826.6,48.2z"/>
<linearGradient id="SVGID_7_" gradientUnits="userSpaceOnUse" x1="1814.2992" y1="8.296" x2="1827.3076" y2="21.3045">
	<stop  offset="0" style="stop-color:#FDED24"/>
	<stop  offset="0.3707" style="stop-color:#F08F34"/>
	<stop  offset="1" style="stop-color:#E2332D"/>
</linearGradient>
<path class="st17" d="M1826.6,14.8c0-1.7,1.3-3,3-3s3,1.3,3,3c0,1.7-1.3,3-3,3S1826.6,16.5,1826.6,14.8z M1821.3,17.8
	c1.7,0,3-1.3,3-3c0-1.7-1.3-3-3-3s-3,1.3-3,3C1818.3,16.5,1819.7,17.8,1821.3,17.8z M1812,17.8c1.7,0,3-1.3,3-3c0-1.7-1.3-3-3-3
	s-3,1.3-3,3C1809,16.5,1810.4,17.8,1812,17.8z"/>
<circle class="st18" cx="375.8" cy="82.1" r="2.9"/>
<circle class="st18" cx="375.8" cy="98.1" r="2.9"/>
<circle class="st19" cx="375.8" cy="114.4" r="2.9"/>
<linearGradient id="SVGID_8_" gradientUnits="userSpaceOnUse" x1="363.1103" y1="70.3277" x2="417.9774" y2="125.1948">
	<stop  offset="0" style="stop-color:#14ACE3"/>
	<stop  offset="0.1536" style="stop-color:#0991CF"/>
	<stop  offset="0.2852" style="stop-color:#067EC1"/>
	<stop  offset="0.3579" style="stop-color:#0378BC"/>
	<stop  offset="0.7261" style="stop-color:#343679"/>
	<stop  offset="0.9658" style="stop-color:#231E55"/>
</linearGradient>
<path class="st20" d="M383.6,82.1H407 M383.6,98.1H407 M383.6,114.4H407 M415,125.2V70.3c0-1.2-1-2.1-2.1-2.1h-44.5
	c-1.2,0-2.1,1-2.1,2.1v54.9c0,1.2,1,2.1,2.1,2.1h44.5C414,127.4,415,126.4,415,125.2z"/>
<linearGradient id="SVGID_9_" gradientUnits="userSpaceOnUse" x1="383.3993" y1="61.4482" x2="397.6884" y2="75.7373">
	<stop  offset="0" style="stop-color:#FDED24"/>
	<stop  offset="0.3707" style="stop-color:#F08F34"/>
	<stop  offset="1" style="stop-color:#E2332D"/>
</linearGradient>
<path class="st21" d="M393.9,63.7c0.2-0.9,0.4-1.9-0.7-3.1c-0.6-0.7-1.8-1.1-2.7-1.1c-1.9,0-3.4,1.5-3.4,3.4c0,0.3,0,0.5,0.1,0.8
	h-5.9c-0.2,0-0.4,0.2-0.4,0.4v9c0,0.2,0.2,0.4,0.4,0.4h18.3c0.2,0,0.4-0.2,0.4-0.4v-9c0-0.2-0.2-0.4-0.4-0.4H393.9z"/>
<linearGradient id="SVGID_10_" gradientUnits="userSpaceOnUse" x1="307.5713" y1="58.0702" x2="337.4012" y2="87.9">
	<stop  offset="0" style="stop-color:#FDED24"/>
	<stop  offset="0.3707" style="stop-color:#F08F34"/>
	<stop  offset="1" style="stop-color:#E2332D"/>
</linearGradient>
<path class="st22" d="M327,70.3V76c0,0.9-0.7,1.7-1.7,1.7h-5.7c-0.9,0-1.7-0.7-1.7-1.7v-5.7c0-0.9,0.7-1.7,1.7-1.7h5.7
	C326.2,68.6,327,69.4,327,70.3z M314.6,57.5h-5.7c-0.9,0-1.7,0.7-1.7,1.7v5.7c0,0.9,0.7,1.7,1.7,1.7h5.7c0.9,0,1.7-0.7,1.7-1.7v-5.7
	C316.2,58.2,315.5,57.5,314.6,57.5z M325.3,57.5h-5.7c-0.9,0-1.7,0.7-1.7,1.7v5.7c0,0.9,0.7,1.7,1.7,1.7h5.7c0.9,0,1.7-0.7,1.7-1.7
	v-5.7C327,58.2,326.2,57.5,325.3,57.5z M336.1,57.5h-5.7c-0.9,0-1.7,0.7-1.7,1.7v5.7c0,0.9,0.7,1.7,1.7,1.7h5.7
	c0.9,0,1.7-0.7,1.7-1.7v-5.7C337.8,58.2,337,57.5,336.1,57.5z M314.6,68.6h-5.7c-0.9,0-1.7,0.7-1.7,1.7V76c0,0.9,0.7,1.7,1.7,1.7
	h5.7c0.9,0,1.7-0.7,1.7-1.7v-5.7C316.2,69.4,315.5,68.6,314.6,68.6z M336.1,68.6h-5.7c-0.9,0-1.7,0.7-1.7,1.7V76
	c0,0.9,0.7,1.7,1.7,1.7h5.7c0.9,0,1.7-0.7,1.7-1.7v-5.7C337.8,69.4,337,68.6,336.1,68.6z M314.6,79.5h-5.7c-0.9,0-1.7,0.7-1.7,1.7
	v5.7c0,0.9,0.7,1.7,1.7,1.7h5.7c0.9,0,1.7-0.7,1.7-1.7v-5.7C316.2,80.2,315.5,79.5,314.6,79.5z M325.3,79.5h-5.7
	c-0.9,0-1.7,0.7-1.7,1.7v5.7c0,0.9,0.7,1.7,1.7,1.7h5.7c0.9,0,1.7-0.7,1.7-1.7v-5.7C327,80.2,326.2,79.5,325.3,79.5z M336.1,79.5
	h-5.7c-0.9,0-1.7,0.7-1.7,1.7v5.7c0,0.9,0.7,1.7,1.7,1.7h5.7c0.9,0,1.7-0.7,1.7-1.7v-5.7C337.8,80.2,337,79.5,336.1,79.5z"/>
<linearGradient id="SVGID_11_" gradientUnits="userSpaceOnUse" x1="293.94" y1="49.7069" x2="351.1209" y2="106.8879">
	<stop  offset="0" style="stop-color:#14ACE3"/>
	<stop  offset="0.1536" style="stop-color:#0991CF"/>
	<stop  offset="0.2852" style="stop-color:#067EC1"/>
	<stop  offset="0.3579" style="stop-color:#0378BC"/>
	<stop  offset="0.7261" style="stop-color:#343679"/>
	<stop  offset="0.9658" style="stop-color:#231E55"/>
</linearGradient>
<path class="st23" d="M322.7,42.6h18.9c0.7,0,1.3,1.3,1.3,2.9v65.6c0,1.6-0.6,2.9-1.3,2.9h-38.2c-0.7,0-1.3-1.3-1.3-2.9V45.5
	c0-1.6,0.6-2.9,1.3-2.9H322.7 M302.6,52.3h40.4 M302.6,98.5h40.4 M319,47.5h7.6"/>
<line class="st24" x1="322.6" y1="106.1" x2="322.9" y2="106.1"/>
<g>
	<g>
		<line class="st25" x1="5.4" y1="41.6" x2="8.3" y2="41.1"/>
		<polyline class="st26" points="15.4,40.1 215,10.1 416.2,40.6 		"/>
		<line class="st25" x1="419.7" y1="41.1" x2="422.7" y2="41.6"/>
	</g>
</g>
<g>
	<g>
		<path class="st2" d="M156.2,124.3c-0.1-1.3-0.2-2.9-0.1-4.1h0c-0.3,1.1-0.7,2.3-1.2,3.6l-1.7,4.6h-0.9l-1.5-4.5
			c-0.4-1.3-0.8-2.5-1.1-3.7h0c0,1.2-0.1,2.8-0.2,4.2l-0.3,4H148l0.7-9.4h1.6l1.6,4.6c0.4,1.2,0.7,2.2,1,3.2h0c0.2-1,0.6-2,1-3.2
			l1.7-4.6h1.6l0.6,9.4h-1.2L156.2,124.3z"/>
		<path class="st2" d="M165.7,125c0,2.5-1.7,3.6-3.4,3.6c-1.8,0-3.2-1.3-3.2-3.5c0-2.3,1.5-3.6,3.4-3.6
			C164.4,121.5,165.7,122.9,165.7,125z M160.3,125c0,1.5,0.9,2.6,2.1,2.6c1.2,0,2.1-1.1,2.1-2.6c0-1.1-0.6-2.6-2-2.6
			S160.3,123.7,160.3,125z"/>
		<path class="st2" d="M167.2,123.7c0-0.8,0-1.5-0.1-2.1h1.1l0,1.3h0.1c0.3-0.9,1-1.5,1.9-1.5c0.1,0,0.2,0,0.3,0v1.2
			c-0.1,0-0.3,0-0.4,0c-0.9,0-1.5,0.7-1.7,1.6c0,0.2-0.1,0.4-0.1,0.6v3.6h-1.2V123.7z"/>
		<path class="st2" d="M172.4,125.2c0,1.7,1.1,2.4,2.3,2.4c0.9,0,1.4-0.2,1.9-0.4l0.2,0.9c-0.4,0.2-1.2,0.4-2.3,0.4
			c-2.1,0-3.3-1.4-3.3-3.4c0-2,1.2-3.7,3.2-3.7c2.2,0,2.8,1.9,2.8,3.2c0,0.3,0,0.4,0,0.6H172.4z M176,124.4c0-0.8-0.3-2-1.7-2
			c-1.2,0-1.8,1.1-1.9,2H176z"/>
		<path class="st2" d="M185.4,128.4l-0.1-0.9h0c-0.4,0.5-1.1,1-2.1,1c-1.4,0-2.1-1-2.1-1.9c0-1.6,1.5-2.5,4.1-2.5V124
			c0-0.6-0.2-1.6-1.5-1.6c-0.6,0-1.3,0.2-1.8,0.5l-0.3-0.8c0.6-0.4,1.4-0.6,2.2-0.6c2.1,0,2.6,1.4,2.6,2.8v2.5c0,0.6,0,1.2,0.1,1.6
			H185.4z M185.2,125c-1.3,0-2.9,0.2-2.9,1.5c0,0.8,0.5,1.2,1.2,1.2c0.9,0,1.4-0.6,1.6-1.1c0-0.1,0.1-0.3,0.1-0.4V125z"/>
		<path class="st2" d="M188.4,123.8c0-0.9,0-1.6-0.1-2.2h1.1l0.1,1.2h0c0.5-0.8,1.3-1.3,2.4-1.3c1.6,0,2.9,1.4,2.9,3.4
			c0,2.4-1.5,3.6-3.1,3.6c-0.9,0-1.7-0.4-2.1-1.1h0v3.7h-1.2V123.8z M189.6,125.7c0,0.2,0,0.4,0.1,0.5c0.2,0.9,1,1.4,1.8,1.4
			c1.3,0,2.1-1.1,2.1-2.6c0-1.4-0.7-2.5-2-2.5c-0.8,0-1.6,0.6-1.9,1.5c0,0.2-0.1,0.3-0.1,0.5V125.7z"/>
		<path class="st2" d="M196.4,123.8c0-0.9,0-1.6-0.1-2.2h1.1l0.1,1.2h0c0.5-0.8,1.3-1.3,2.4-1.3c1.6,0,2.9,1.4,2.9,3.4
			c0,2.4-1.5,3.6-3.1,3.6c-0.9,0-1.7-0.4-2.1-1.1h0v3.7h-1.2V123.8z M197.6,125.7c0,0.2,0,0.4,0.1,0.5c0.2,0.9,1,1.4,1.8,1.4
			c1.3,0,2.1-1.1,2.1-2.6c0-1.4-0.7-2.5-2-2.5c-0.8,0-1.6,0.6-1.9,1.5c0,0.2-0.1,0.3-0.1,0.5V125.7z"/>
		<path class="st2" d="M204.2,127.2c0.4,0.2,1,0.5,1.6,0.5c0.9,0,1.3-0.4,1.3-1c0-0.6-0.3-0.9-1.3-1.2c-1.2-0.4-1.8-1.1-1.8-1.9
			c0-1.1,0.9-2,2.3-2c0.7,0,1.3,0.2,1.7,0.4l-0.3,0.9c-0.3-0.2-0.8-0.4-1.4-0.4c-0.7,0-1.1,0.4-1.1,0.9c0,0.6,0.4,0.8,1.3,1.1
			c1.2,0.4,1.8,1,1.8,2c0,1.2-0.9,2-2.5,2c-0.7,0-1.4-0.2-1.9-0.5L204.2,127.2z"/>
		<path class="st2" d="M216.6,128.4l-0.1-0.9h0c-0.4,0.5-1.1,1-2.1,1c-1.4,0-2.1-1-2.1-1.9c0-1.6,1.5-2.5,4.1-2.5V124
			c0-0.6-0.2-1.6-1.5-1.6c-0.6,0-1.3,0.2-1.8,0.5l-0.3-0.8c0.6-0.4,1.4-0.6,2.2-0.6c2.1,0,2.6,1.4,2.6,2.8v2.5c0,0.6,0,1.2,0.1,1.6
			H216.6z M216.4,125c-1.3,0-2.9,0.2-2.9,1.5c0,0.8,0.5,1.2,1.2,1.2c0.9,0,1.4-0.6,1.6-1.1c0-0.1,0.1-0.3,0.1-0.4V125z"/>
		<path class="st2" d="M219.6,123.5c0-0.7,0-1.3-0.1-1.8h1.1l0.1,1.1h0c0.3-0.6,1.1-1.3,2.2-1.3c0.9,0,2.4,0.6,2.4,2.9v4h-1.2v-3.9
			c0-1.1-0.4-2-1.6-2c-0.8,0-1.4,0.6-1.7,1.3c-0.1,0.2-0.1,0.4-0.1,0.6v4.1h-1.2V123.5z"/>
		<path class="st2" d="M233.2,118.5v8.2c0,0.6,0,1.3,0.1,1.8h-1.1l-0.1-1.2h0c-0.4,0.8-1.2,1.3-2.3,1.3c-1.6,0-2.9-1.4-2.9-3.4
			c0-2.3,1.4-3.6,3-3.6c1,0,1.7,0.5,2,1h0v-4H233.2z M232,124.4c0-0.2,0-0.4-0.1-0.5c-0.2-0.8-0.9-1.4-1.8-1.4c-1.3,0-2,1.1-2,2.6
			c0,1.4,0.7,2.5,2,2.5c0.8,0,1.6-0.5,1.8-1.5c0-0.2,0.1-0.3,0.1-0.5V124.4z"/>
		<path class="st2" d="M238.1,127.2c0.4,0.2,1,0.5,1.6,0.5c0.9,0,1.3-0.4,1.3-1c0-0.6-0.3-0.9-1.3-1.2c-1.2-0.4-1.8-1.1-1.8-1.9
			c0-1.1,0.9-2,2.3-2c0.7,0,1.3,0.2,1.7,0.4l-0.3,0.9c-0.3-0.2-0.8-0.4-1.4-0.4c-0.7,0-1.1,0.4-1.1,0.9c0,0.6,0.4,0.8,1.3,1.1
			c1.2,0.4,1.8,1,1.8,2c0,1.2-0.9,2-2.5,2c-0.7,0-1.4-0.2-1.9-0.5L238.1,127.2z"/>
		<path class="st2" d="M244.5,125.2c0,1.7,1.1,2.4,2.3,2.4c0.9,0,1.4-0.2,1.9-0.4l0.2,0.9c-0.4,0.2-1.2,0.4-2.3,0.4
			c-2.1,0-3.3-1.4-3.3-3.4c0-2,1.2-3.7,3.2-3.7c2.2,0,2.8,1.9,2.8,3.2c0,0.3,0,0.4,0,0.6H244.5z M248.1,124.4c0-0.8-0.3-2-1.7-2
			c-1.2,0-1.8,1.1-1.9,2H248.1z"/>
		<path class="st2" d="M250.8,123.7c0-0.8,0-1.5-0.1-2.1h1.1l0,1.3h0.1c0.3-0.9,1-1.5,1.9-1.5c0.1,0,0.2,0,0.3,0v1.2
			c-0.1,0-0.3,0-0.4,0c-0.9,0-1.5,0.7-1.7,1.6c0,0.2-0.1,0.4-0.1,0.6v3.6h-1.2V123.7z"/>
		<path class="st2" d="M256.2,121.6l1.3,3.8c0.2,0.6,0.4,1.2,0.5,1.7h0c0.2-0.6,0.3-1.1,0.6-1.7l1.3-3.8h1.3l-2.7,6.8h-1.2l-2.6-6.8
			H256.2z"/>
		<path class="st2" d="M263.8,119.7c0,0.4-0.3,0.8-0.8,0.8c-0.4,0-0.7-0.3-0.7-0.8c0-0.4,0.3-0.8,0.8-0.8
			C263.5,119,263.8,119.3,263.8,119.7z M262.4,128.4v-6.8h1.2v6.8H262.4z"/>
		<path class="st2" d="M270.5,128.2c-0.3,0.2-1,0.4-1.9,0.4c-2,0-3.4-1.4-3.4-3.5c0-2.1,1.4-3.6,3.6-3.6c0.7,0,1.4,0.2,1.7,0.4
			l-0.3,1c-0.3-0.2-0.8-0.3-1.4-0.3c-1.6,0-2.4,1.1-2.4,2.6c0,1.6,1,2.5,2.4,2.5c0.7,0,1.2-0.2,1.5-0.3L270.5,128.2z"/>
		<path class="st2" d="M272.6,125.2c0,1.7,1.1,2.4,2.3,2.4c0.9,0,1.4-0.2,1.9-0.4l0.2,0.9c-0.4,0.2-1.2,0.4-2.3,0.4
			c-2.1,0-3.3-1.4-3.3-3.4c0-2,1.2-3.7,3.2-3.7c2.2,0,2.8,1.9,2.8,3.2c0,0.3,0,0.4,0,0.6H272.6z M276.2,124.4c0-0.8-0.3-2-1.7-2
			c-1.2,0-1.8,1.1-1.9,2H276.2z"/>
		<path class="st2" d="M278.7,127.2c0.4,0.2,1,0.5,1.6,0.5c0.9,0,1.3-0.4,1.3-1c0-0.6-0.3-0.9-1.3-1.2c-1.2-0.4-1.8-1.1-1.8-1.9
			c0-1.1,0.9-2,2.3-2c0.7,0,1.3,0.2,1.7,0.4l-0.3,0.9c-0.3-0.2-0.8-0.4-1.4-0.4c-0.7,0-1.1,0.4-1.1,0.9c0,0.6,0.4,0.8,1.3,1.1
			c1.2,0.4,1.8,1,1.8,2c0,1.2-0.9,2-2.5,2c-0.7,0-1.4-0.2-1.9-0.5L278.7,127.2z"/>
	</g>
</g>
<linearGradient id="SVGID_12_" gradientUnits="userSpaceOnUse" x1="6.4696" y1="71.7885" x2="45.7649" y2="111.0839">
	<stop  offset="0" style="stop-color:#14ACE3"/>
	<stop  offset="0.1536" style="stop-color:#0991CF"/>
	<stop  offset="0.2852" style="stop-color:#067EC1"/>
	<stop  offset="0.3579" style="stop-color:#0378BC"/>
	<stop  offset="0.7261" style="stop-color:#343679"/>
	<stop  offset="0.9658" style="stop-color:#231E55"/>
</linearGradient>
<path class="st27" d="M48.3,102.8c-3.2,0-5.8,1.2-7.7,3.4c-0.7,0.9-1.2,1.7-1.5,2.8c-0.3,1-0.5,2.1-0.7,3.5l0,0
	c-0.5,3-1.9,5.8-4.1,8c-2.7,2.7-6.4,4.2-10.2,4.2h0c-3.9,0-7.5-1.5-10.2-4.2c-2.7-2.7-4.2-6.4-4.2-10.2c0-3.9,1.5-7.5,4.2-10.2
	c2-2,4.5-2.8,6.7-3.5c0,0,0.4-0.1,0.6-0.2c2.4-0.7,4.4-1.5,5.7-3.1c1-1.1,1.6-2.7,1.8-4.3l0-0.5 M14.2,69.2h-3.1
	c0,10.5,7.6,19,17,19s17-8.5,17-19h-2.9"/>
<g>
	<linearGradient id="SVGID_13_" gradientUnits="userSpaceOnUse" x1="47.5636" y1="102.1051" x2="58.3051" y2="102.1051">
		<stop  offset="0" style="stop-color:#F6A733"/>
		<stop  offset="0.7203" style="stop-color:#EA6031"/>
		<stop  offset="1" style="stop-color:#E73B30"/>
	</linearGradient>
	<path class="st28" d="M52.9,99.7c0.6,0,1.2,0.2,1.7,0.7c0.9,0.9,0.9,2.4,0,3.4c-0.4,0.4-1,0.7-1.7,0.7c-0.6,0-1.2-0.2-1.7-0.7
		c-0.9-0.9-0.9-2.4,0-3.4C51.7,100,52.3,99.7,52.9,99.7 M52.9,96.7c-1.4,0-2.7,0.5-3.8,1.6c-2.1,2.1-2.1,5.5,0,7.6
		c1,1,2.4,1.6,3.8,1.6c1.4,0,2.7-0.5,3.8-1.6c2.1-2.1,2.1-5.5,0-7.6C55.7,97.3,54.3,96.7,52.9,96.7L52.9,96.7z"/>
</g>
<g>
	<path class="st29" d="M164.8,112.2c-3,0-5.4-2.4-5.4-5.4V33.4c0-3,2.4-5.4,5.4-5.4H264c3,0,5.4,2.4,5.4,5.4v73.4
		c0,3-2.4,5.4-5.4,5.4H164.8z"/>
	<path class="st29" d="M264,30.7c1.4,0,2.6,1.2,2.6,2.6v73.4c0,1.4-1.2,2.6-2.6,2.6h-99.2c-1.4,0-2.6-1.2-2.6-2.6V33.4
		c0-1.4,1.2-2.6,2.6-2.6H264 M264,25.2h-99.2c-4.5,0-8.2,3.7-8.2,8.2v73.4c0,4.5,3.7,8.2,8.2,8.2H264c4.5,0,8.2-3.7,8.2-8.2V33.4
		C272.2,28.9,268.5,25.2,264,25.2L264,25.2z"/>
</g>
<linearGradient id="SVGID_14_" gradientUnits="userSpaceOnUse" x1="187.2963" y1="70.6719" x2="202.3662" y2="85.7417">
	<stop  offset="0" style="stop-color:#FDED24"/>
	<stop  offset="0.3707" style="stop-color:#F08F34"/>
	<stop  offset="1" style="stop-color:#E2332D"/>
</linearGradient>
<path class="st30" d="M196.2,78.7l-7.6-7.2L179,81.6 M211,75l-6.9-6l-13.2,16.4"/>
<linearGradient id="SVGID_15_" gradientUnits="userSpaceOnUse" x1="168.2887" y1="24.0085" x2="260.4421" y2="116.1618">
	<stop  offset="0" style="stop-color:#14ACE3"/>
	<stop  offset="0.1536" style="stop-color:#0991CF"/>
	<stop  offset="0.2852" style="stop-color:#067EC1"/>
	<stop  offset="0.3579" style="stop-color:#0378BC"/>
	<stop  offset="0.7261" style="stop-color:#343679"/>
	<stop  offset="0.9658" style="stop-color:#231E55"/>
</linearGradient>
<path class="st31" d="M264,109.4h-99.2c-1.4,0-2.6-1.2-2.6-2.6V33.4c0-1.4,1.2-2.6,2.6-2.6H264c1.4,0,2.6,1.2,2.6,2.6v73.4
	C266.6,108.2,265.4,109.4,264,109.4z M162.1,43h104.5 M218,57.2h34.2 M218,66.2h34.2 M218,76h34.2 M218,85.4h34.2 M179.7,95.8h72.5
	 M211,85V58c0-0.5-0.4-0.9-0.9-0.9h-30.3c-0.5,0-0.9,0.4-0.9,0.9V85c0,0.5,0.4,0.9,0.9,0.9h30.3C210.6,85.9,211,85.5,211,85z"/>
<path class="st32" d="M146.7,86.3h-2.9l-1.2,10.7l-8.3-10.7H99.5c-1.1,0-2-0.9-2-2v-37c0-1.1,0.9-2,2-2h47.2c1.1,0,2,0.9,2,2v37
	C148.7,85.4,147.8,86.3,146.7,86.3z"/>
<path class="st32" d="M71.6,100.7h3l1.3,11.5l8.6-11.5h36.3c1.2,0,2.1-1,2.1-2.2v-40c0-1.2-0.9-2.2-2.1-2.2H71.6
	c-1.2,0-2.1,1-2.1,2.2v40C69.5,99.7,70.4,100.7,71.6,100.7z"/>
<linearGradient id="SVGID_16_" gradientUnits="userSpaceOnUse" x1="79.0136" y1="46.0025" x2="137.3135" y2="104.3024">
	<stop  offset="0" style="stop-color:#14ACE3"/>
	<stop  offset="0.1536" style="stop-color:#0991CF"/>
	<stop  offset="0.2852" style="stop-color:#067EC1"/>
	<stop  offset="0.3579" style="stop-color:#0378BC"/>
	<stop  offset="0.7261" style="stop-color:#343679"/>
	<stop  offset="0.9658" style="stop-color:#231E55"/>
</linearGradient>
<path class="st33" d="M71.6,100.7h3l1.3,11.5l8.6-11.5h36.3c1.2,0,2.1-1,2.1-2.2v-40c0-1.2-0.9-2.2-2.1-2.2H71.6
	c-1.2,0-2.1,1-2.1,2.2v40C69.5,99.7,70.4,100.7,71.6,100.7z M148.7,47.2v37c0,1.1-0.9,2-2,2h-2.9l-1.2,10.7l-8.3-10.7h-11.4V58.6
	c0-1.2-0.9-2.2-2.1-2.2H97.5v-9.2c0-1.1,0.9-2,2-2h47.2C147.8,45.2,148.7,46.1,148.7,47.2z"/>
<linearGradient id="SVGID_17_" gradientUnits="userSpaceOnUse" x1="241.0391" y1="30.546" x2="254.0476" y2="43.5545">
	<stop  offset="0" style="stop-color:#FDED24"/>
	<stop  offset="0.3707" style="stop-color:#F08F34"/>
	<stop  offset="1" style="stop-color:#E2332D"/>
</linearGradient>
<path class="st34" d="M253.3,37.1c0-1.7,1.3-3,3-3c1.7,0,3,1.3,3,3c0,1.7-1.3,3-3,3C254.7,40.1,253.3,38.7,253.3,37.1z M248.1,40.1
	c1.7,0,3-1.3,3-3c0-1.7-1.3-3-3-3c-1.7,0-3,1.3-3,3C245.1,38.7,246.4,40.1,248.1,40.1z M238.8,40.1c1.7,0,3-1.3,3-3c0-1.7-1.3-3-3-3
	c-1.7,0-3,1.3-3,3C235.8,38.7,237.1,40.1,238.8,40.1z"/>
<linearGradient id="SVGID_18_" gradientUnits="userSpaceOnUse" x1="6047.374" y1="69.4641" x2="6028.3042" y2="88.534" gradientTransform="matrix(-1 0 0 1 6133.77 0)">
	<stop  offset="0" style="stop-color:#FDED24"/>
	<stop  offset="0.3707" style="stop-color:#F08F34"/>
	<stop  offset="1" style="stop-color:#E2332D"/>
</linearGradient>
<path class="st35" d="M105.2,79c0-2.2,1.8-4.1,4.1-4.1c2.2,0,4.1,1.8,4.1,4.1c0,2.2-1.8,4.1-4.1,4.1C107,83.1,105.2,81.2,105.2,79z
	 M95.9,83.1c2.2,0,4.1-1.8,4.1-4.1c0-2.2-1.8-4.1-4.1-4.1c-2.2,0-4.1,1.8-4.1,4.1C91.9,81.2,93.7,83.1,95.9,83.1z M82.6,83.1
	c2.2,0,4.1-1.8,4.1-4.1c0-2.2-1.8-4.1-4.1-4.1c-2.2,0-4.1,1.8-4.1,4.1C78.5,81.2,80.4,83.1,82.6,83.1z"/>
</svg>
