<svg xmlns="http://www.w3.org/2000/svg" xmlns:xlink="http://www.w3.org/1999/xlink" viewBox="-3857 -5189.458 1245.227 311.111">
  <defs>
    <style>
      .cls-1 {
        fill: none;
      }

      .cls-10, .cls-2, .cls-3, .cls-4, .cls-6, .cls-9 {
        fill: #fff;
      }

      .cls-2 {
        stroke: #8a4a97;
      }

      .cls-2, .cls-3, .cls-4, .cls-5 {
        stroke-miterlimit: 10;
        stroke-width: 7.041px;
      }

      .cls-3 {
        stroke: #7fc4fd;
      }

      .cls-4 {
        stroke: #ea5153;
      }

      .cls-5 {
        fill: rgba(0,0,0,0);
        stroke: #b20037;
      }

      .cls-7 {
        fill: #29235c;
      }

      .cls-8 {
        fill: #7fc4fd;
      }

      .cls-9 {
        font-size: 19px;
      }

      .cls-10, .cls-9 {
        font-family: Montserrat-SemiBold, Montserrat;
        font-weight: 600;
      }

      .cls-10 {
        font-size: 20px;
      }

      .cls-11 {
        clip-path: url(#clip-path);
      }
    </style>
    <clipPath id="clip-path">
      <rect class="cls-1" width="36" height="23"/>
    </clipPath>
  </defs>
  <g id="Group_690" data-name="Group 690" transform="translate(-4194 -6961)">
    <path id="Path_353" data-name="Path 353" class="cls-2" d="M292.614,154.1H230.848L199.8,207.608l31.048,53.508h61.766L323.5,207.608Z" transform="translate(1239.168 1787.615)"/>
    <path id="Path_335" data-name="Path 335" class="cls-3" d="M292.614,154.1H230.848L199.8,207.608l31.048,53.508h61.766L323.5,207.608Z" transform="translate(468.168 1787.615)"/>
    <path id="Path_352" data-name="Path 352" class="cls-2" d="M292.614,154.1H230.848L199.8,207.608l31.048,53.508h61.766L323.5,207.608Z" transform="translate(1145.168 1787.615)"/>
    <path id="Subtraction_1" data-name="Subtraction 1" class="cls-4" d="M4790.678,7261.937H4253.044l-29.491-49.7L4372.622,6961H4671.1l149.068,251.234-29.491,49.7Z" transform="translate(-3457 -5185.938)"/>
    <path id="Path_339" data-name="Path 339" class="cls-3" d="M237.815,95H171.26L137.9,152.637l33.36,57.8h66.555l33.36-57.8Z" transform="translate(426.841 1847.112)"/>
    <path id="Subtraction_2" data-name="Subtraction 2" class="cls-5" d="M4851.666,7150.23h-271.2l-28.863-49.2L4633.747,6961h164.636l82.145,140.029-28.862,49.2Z" transform="translate(-3517.359 -5074.23)"/>
    <path id="Path_334" data-name="Path 334" class="cls-3" d="M164.414,153.5H102.483L71.6,207.008l30.883,53.508h61.931L195.3,207.008Z" transform="translate(404.647 1786.224)"/>
    <path id="Path_337" data-name="Path 337" class="cls-3" d="M121.981,94.1H55.26L21.9,151.9l33.36,57.637h66.72l33.2-57.637Z" transform="translate(351.268 1846.525)"/>
    <rect id="Rectangle_1206" data-name="Rectangle 1206" class="cls-6" width="1245.227" height="69.363" transform="translate(337 2013.291)"/>
    <path id="Path_340" data-name="Path 340" class="cls-7" d="M104.888,197.039H12.9L41.471,143.2h91.988Z" transform="translate(345.404 1878.514)"/>
    <path id="Path_341" data-name="Path 341" class="cls-7" d="M164.788,197.039H72.8L101.371,143.2h91.988Z" transform="translate(384.429 1878.514)"/>
    <path id="Path_342" data-name="Path 342" class="cls-8" d="M222.837,197.039H132.5L161.071,143.2h90.337Z" transform="translate(423.323 1878.514)"/>
    <path id="Path_343" data-name="Path 343" class="cls-8" d="M281.737,197.039H191.4L219.971,143.2h90.337Z" transform="translate(461.696 1878.514)"/>
    <path id="Path_344" data-name="Path 344" class="cls-8" d="M342.388,197.039H250.4L278.806,143.2h91.988Z" transform="translate(500.134 1878.514)"/>
    <path id="Path_345" data-name="Path 345" class="cls-8" d="M402.288,197.039H310.3L338.706,143.2h91.988Z" transform="translate(539.159 1878.514)"/>
    <path id="Path_346" data-name="Path 346" class="cls-8" d="M460.337,197.039H370L398.406,143.2h90.337Z" transform="translate(578.053 1878.514)"/>
    <path id="Path_347" data-name="Path 347" class="cls-8" d="M519.137,196.739H428.8L457.371,142.9h90.337Z" transform="translate(616.361 1878.318)"/>
    <path id="Path_348" data-name="Path 348" class="cls-8" d="M695.937,197.039H605.6L634.171,143.2h90.337Z" transform="translate(731.545 1878.514)"/>
    <path id="Path_349" data-name="Path 349" class="cls-8" d="M754.637,197.039H664.3L692.871,143.2h90.337Z" transform="translate(769.788 1878.514)"/>
    <path id="Path_350" data-name="Path 350" class="cls-8" d="M578.037,197.039H487.7L516.271,143.2h90.337Z" transform="translate(654.734 1878.514)"/>
    <path id="Path_351" data-name="Path 351" class="cls-8" d="M636.737,197.039H546.4L574.971,143.2h90.337Z" transform="translate(692.977 1878.514)"/>
    <rect id="Rectangle_1207" data-name="Rectangle 1207" class="cls-1" width="41.287" height="16.515" transform="translate(396.289 2040.375)"/>
    <text id="JAN" class="cls-9" transform="translate(398.308 2057)"><tspan x="0" y="0">JAN</tspan></text>
    <rect id="Rectangle_1208" data-name="Rectangle 1208" class="cls-1" width="41.287" height="16.515" transform="translate(496.699 2040.375)"/>
    <text id="FEB" class="cls-10" transform="translate(500.722 2057)"><tspan x="0" y="0">FEB</tspan></text>
    <rect id="Rectangle_1209" data-name="Rectangle 1209" class="cls-1" width="50.205" height="17.341" transform="translate(589.679 2041.201)"/>
    <text id="MAR" class="cls-9" transform="translate(593.703 2057)"><tspan x="0" y="0">MAR</tspan></text>
    <rect id="Rectangle_1210" data-name="Rectangle 1210" class="cls-1" width="49.38" height="25.598" transform="translate(687.942 2040.706)"/>
    <text id="APR" class="cls-9" transform="translate(689.967 2057)"><tspan x="0" y="0">APR</tspan></text>
    <rect id="Rectangle_1211" data-name="Rectangle 1211" class="cls-1" width="50.04" height="24.938" transform="translate(789.215 2038)"/>
    <text id="MAY" class="cls-9" transform="translate(789.189 2057)"><tspan x="0" y="0">MAY</tspan></text>
    <rect id="Rectangle_1212" data-name="Rectangle 1212" class="cls-1" width="55.325" height="16.515" transform="translate(885.626 2040.375)"/>
    <text id="JUN" class="cls-9" transform="translate(889.603 2057)"><tspan x="0" y="0">JUN</tspan></text>
    <rect id="Rectangle_1213" data-name="Rectangle 1213" class="cls-1" width="54.334" height="17.836" transform="translate(983.725 2040.375)"/>
    <g id="Repeat_Grid_1" data-name="Repeat Grid 1" class="cls-11" transform="translate(987.702 2039)">
      <g transform="translate(-987.702 -2038)">
        <text id="JUL" class="cls-9" transform="translate(987.702 2056)"><tspan x="0" y="0">JUL</tspan></text>
      </g>
    </g>
    <rect id="Rectangle_1214" data-name="Rectangle 1214" class="cls-1" width="53.508" height="16.515" transform="translate(1076.869 2040.375)"/>
    <text id="AUG" class="cls-10" transform="translate(1080.848 2057)"><tspan x="0" y="0">AUG</tspan></text>
    <rect id="Rectangle_1215" data-name="Rectangle 1215" class="cls-1" width="41.287" height="16.515" transform="translate(1181.244 2041.036)"/>
    <text id="SEP" class="cls-9" transform="translate(1184.194 2057)"><tspan x="0" y="0">SEP</tspan></text>
    <rect id="Rectangle_1216" data-name="Rectangle 1216" class="cls-1" width="56.316" height="16.515" transform="translate(1276.205 2041.036)"/>
    <text id="OCT" class="cls-9" transform="translate(1278.135 2057)"><tspan x="0" y="0">OCT</tspan></text>
    <rect id="Rectangle_1217" data-name="Rectangle 1217" class="cls-1" width="54.004" height="16.515" transform="translate(1373.643 2040.375)"/>
    <text id="NOV" class="cls-9" transform="translate(1375.573 2057)"><tspan x="0" y="0">NOV</tspan></text>
    <rect id="Rectangle_1218" data-name="Rectangle 1218" class="cls-1" width="45.912" height="16.515" transform="translate(1473.063 2040.375)"/>
    <text id="DEC" class="cls-10" transform="translate(1471.123 2057)"><tspan x="0" y="0">DEC</tspan></text>
  </g>
</svg>
