<?xml version="1.0" encoding="utf-8"?>
<!-- Generator: Adobe Illustrator 21.1.0, SVG Export Plug-In . SVG Version: 6.00 Build 0)  -->
<svg version="1.1" id="Layer_1" xmlns="http://www.w3.org/2000/svg" xmlns:xlink="http://www.w3.org/1999/xlink" x="0px" y="0px"
	 viewBox="0 0 305.7 842.9" style="enable-background:new 0 0 305.7 842.9;" xml:space="preserve">
<style type="text/css">
	.st0{fill:#0B193E;}
</style>
<title>overlay_1</title>
<g id="Layer_2">
	<g id="Layer_1-2">
		<rect x="232.6" y="682.7" class="st0" width="14.9" height="14.9"/>
		<rect x="232.6" y="740.8" class="st0" width="14.9" height="14.9"/>
		<polygon class="st0" points="203.9,784.4 189,784.4 189,799.3 203.6,799.3 203.6,813.8 218.5,813.8 218.5,798.9 203.9,798.9 		"/>
		<rect x="203.6" y="711.8" class="st0" width="14.9" height="14.9"/>
		<rect x="261.6" y="653.7" class="st0" width="14.9" height="14.9"/>
		<rect x="188.9" y="537.5" class="st0" width="14.9" height="14.9"/>
		<rect x="188.9" y="246.9" class="st0" width="14.9" height="14.9"/>
		<polygon class="st0" points="203.8,29.4 218.4,29.4 218.4,14.5 203.8,14.5 203.8,0 188.9,0 188.9,14.9 203.4,14.9 203.4,29.1 
			188.9,29.1 188.9,44 203.8,44 		"/>
		<polygon class="st0" points="218.4,566.9 233.1,566.9 233.1,552 218.2,552 218.2,566.5 203.4,566.5 203.4,581.4 218.4,581.4 		"/>
		<rect x="203.4" y="276" class="st0" width="14.9" height="14.9"/>
		<rect x="247.2" y="493.9" class="st0" width="14.9" height="14.9"/>
		<rect x="247.2" y="348.6" class="st0" width="14.9" height="14.9"/>
		<rect x="247.2" y="246.9" class="st0" width="14.9" height="14.9"/>
		<rect x="247.2" y="87.2" class="st0" width="14.9" height="14.9"/>
		<rect x="247.2" y="0" class="st0" width="14.9" height="14.9"/>
		<rect x="290.8" y="624.6" class="st0" width="14.9" height="14.9"/>
		<rect x="290.8" y="552" class="st0" width="14.9" height="14.9"/>
		<rect x="276.3" y="581.1" class="st0" width="14.9" height="14.9"/>
		<path class="st0" d="M232.7,610.1h-14.5v14.5h-14.3v-14.5h-14.5v-14.5h-14.5v-14.1h14.5v-14.9h-14.5v-29.1h-14.5v-14.1h14.5v-14.5
			h28.7v14.5h14.9v-14.5h14.7v-14.9h-14.9v14.5h-14.3v-14.5h-29.1v-14.1h14.5v-14.5h14.1v14.5h14.9v-29.5h-14.5v-14.5h-14.5v-14.5
			h-14.5v-14.1h29.1v-14.9h-29.1v-28.7h29.1V349h14.5v-14.5h14.7v-14.9h-14.9v14.5h-14.3v-14.5h-14.5v-14.5h-29.1v-14.1h29.1V276
			h-14.5v-14.5h-14.5v-14.1h14.5v-14.5h14.5v-14.5h14.1v14.5h14.9v-14.9h-14.5v-14.5h-14.5v-14.1h14.5v-14.5h14.3v14.5h14.9v-14.5
			h14.5v-14.9h-14.9v14.5h-14.3v-14.5h-14.9v14.5h-14.1v-14.5h-14.5v-14.1h14.5v-14.5h14.1v14.5h14.9v-14.5h14.7v-14.9h-14.7v-14.1
			h14.7V87.2h-14.9v14.5h-14.7v14.5h-29.1v14.5h-14.1v-14.5h-14.5v-14.1h14.5V87.5h14.1v14.5h14.9V87.5h14.5V72.6h-14.5V58.1h-14.9
			v14.5h-14.1V58.1h-14.5V44h29.1V29.1h-14.5V14.9h14.5V0h-14.9v14.5h-14.1V0H0v276.4l0,0v14.1l0,0v349l0,0v203.4h160.3v-14.5h14.5
			v-29.5h-14.5v-14.1h14.5v-14.5h14.5v-14.9h-14.5v-14.5h-14.5v-28.7h14.5v-29.4h-29.1v-14.1h29.1v-14.5H189v14.5h14.9v-14.9h-14.6
			v-14.5l0,0V625h14.1v14.5h14.9V625h14.7v-14.5h14.5v-14.9h-14.9V610.1z M203.8,130.7v-14.1h14.3v14.1H203.8z M174.8,87.2V73h14.1
			v14.2H174.8z M174.8,624.6v-14.1h14.1v14.1L174.8,624.6z M159.9,610.1v14.5h-14.1V596h28.7v14.1L159.9,610.1z M145.3,668.2h-14.1
			v-14.1h14.1V668.2z M102.2,798.9v-14.1h14.1v14.1L102.2,798.9z M14.9,683.1H29v14.1H14.9V683.1z M14.9,189.2H29v14.1H14.9V189.2z
			 M159.9,290.5h-14.1v-14.1h14.1V290.5z M174.4,392.6v14.1h-14.1v-14.1H174.4z M174.4,435.8h-14.1v-14.1h14.1L174.4,435.8z
			 M174.4,566.9v14.1h-14.1v-14.1L174.4,566.9z M131.2,639.1V625h14.1v14.1L131.2,639.1z M116.7,813.5v-14.1h14.1v14.1H116.7z
			 M116.3,29.4v14.1h-14.1V29.4L116.3,29.4z M145.3,73v14.2h-14.1V73H145.3z M130.8,116.2h-14.1v-14.1h14.1L130.8,116.2z
			 M145.3,261.8V276h-14.1v-14.1L145.3,261.8z M145.3,305h-14.1v-14.1h14.1V305z M160.3,348.6v-14.1h14.1v14.1L160.3,348.6z
			 M131.2,581.1v-14.1h14.1v14.1H131.2z M130.8,610.1h-14.1V596h14.1L130.8,610.1z M29.4,610.5h14.1v14.1H29.4L29.4,610.5z
			 M29.4,131.1h14.1v14.1H29.4L29.4,131.1z M116.7,217.9v-14.1h14.1v14.1H116.7z M145.3,363.2h-14.1V349h14.1L145.3,363.2z
			 M130.8,566.5h-14.1v-14.1h14.1L130.8,566.5z M116.3,668.2h-14.1v-14.1h14.1L116.3,668.2z M130.8,755.7v14.1h-14.1v-14.1H130.8z
			 M130.8,522.9h-14.1v-14.1h14.1V522.9z M116.3,711.8h-14.1v-14.1h14.1L116.3,711.8z M72.7,798.9H58.5v-14.1h14.2V798.9z M44,741.2
			h14.1v14.1H44V741.2z M44,465.2h14.1v14.1H44V465.2z M44,407.1h14.1v14.1H44V407.1z M44,276.4h14.1v14.1H44V276.4z M101.8,58.5
			v14.1H87.6V58.5H101.8z M116.3,131.1v14.1h-14.1v-14.1H116.3z M102.2,188.8v-14.1h14.1v14.1L102.2,188.8z M130.8,435.8h-14.1
			v-14.1h14.1V435.8z M101.8,740.8H87.6v-14.1h14.1L101.8,740.8z M58.5,697.6h14.2v14.1H58.5V697.6z M116.3,334.1h-14.1V320h14.1
			V334.1z M116.3,392.2h-14.1v-14.1h14.1V392.2z M116.3,421.3h-14.1v-14.1h14.1V421.3z M87.3,101.7H73V87.5h14.2L87.3,101.7z
			 M101.8,522.9H87.6v-14.1h14.1L101.8,522.9z M87.2,595.6H73v-14.1h14.2V595.6z M73,436.2h14.2v14.1H73V436.2z M73,378.1h14.2v14.1
			H73V378.1z M73,232.4L73,232.4v-14.1h14.2v14.1L73,232.4z M73,290.9h14.2V305H73V290.9z M73,653.7L73,653.7v-14.1h14.2v14.1
			L73,653.7z M116.7,493.9v-14.1h14.1v14.1H116.7z M116.3,261.5h-14.1v-14.1h14.1L116.3,261.5z M145.3,188.8h-14.1v-14.1h14.1
			L145.3,188.8z M130.8,740.8h-14.1v-14.2h14.1L130.8,740.8z M145.3,552h-14.1v-14.1h14.1V552z M145.7,479.4v-14.1h14.1v14.1
			L145.7,479.4z M145.7,523v-14.1h14.1v14.1L145.7,523z M160.3,494.3h14.1v14.1h-14.1V494.3z M159.9,392.2h-14.1v-14.1h14.1V392.2z
			 M159.9,319.6h-14.1v-14.1h14.1V319.6z M145.7,247h-14.5v-14.1h28.7v14.1L145.7,247z M160.3,218.3h14.1v14.1h-14.1V218.3z
			 M174.8,203.8h14.1v14.1h-14.1L174.8,203.8z M174.8,188.9h-14.5v-28.7h14.1v14.5h14.5v14.1L174.8,188.9z M145.7,784.4v-14.1h14.1
			v14.1H145.7z M174.4,464.9h-14.1v-14.1h28.7v14.1L174.4,464.9L174.4,464.9z M189.3,334.5h14.1v14.1h-14.1V334.5z M188.9,320v14.1
			h-14.1V320H188.9z M159.9,131.1v14.1h-14.1v-14.1H159.9z M102.2,828v-14.2h14.1V828H102.2z M145.7,813.9h14.1V828h-14.1
			L145.7,813.9z M174.4,755.8v14.1h-14.1v-14.2L174.4,755.8z M159.9,697.7v14.1h-14.1v-14.2L159.9,697.7z M174.4,639.6v14.1h-14.1
			v-14.5l0,0V625h14.1L174.4,639.6L174.4,639.6z"/>
		<rect x="232.7" y="421.3" class="st0" width="14.9" height="14.9"/>
		<rect x="232.7" y="217.9" class="st0" width="14.9" height="14.9"/>
		<rect x="232.7" y="29.1" class="st0" width="14.9" height="14.9"/>
		<rect x="218.2" y="58.1" class="st0" width="14.9" height="14.9"/>
	</g>
</g>
</svg>
