<svg id="Layer_1" data-name="Layer 1" xmlns="http://www.w3.org/2000/svg" xmlns:xlink="http://www.w3.org/1999/xlink" viewBox="0 0 113.39 113.39"><defs><style>.cls-1,.cls-3{fill:none;stroke-linecap:round;}.cls-1{stroke-miterlimit:10;stroke-width:6.96px;stroke:url(#linear-gradient);}.cls-2{fill:#fff;}.cls-3{stroke-linejoin:round;stroke-width:4.16px;stroke:url(#linear-gradient-2);}</style><linearGradient id="linear-gradient" x1="4.96" y1="56.14" x2="73.24" y2="56.14" gradientUnits="userSpaceOnUse"><stop offset="0" stop-color="#1d9ad7"/><stop offset="0.48" stop-color="#1366af"/><stop offset="1" stop-color="#423f92"/></linearGradient><linearGradient id="linear-gradient-2" x1="58.83" y1="60.1" x2="105.91" y2="60.1" gradientUnits="userSpaceOnUse"><stop offset="0" stop-color="#f7a834"/><stop offset="0.88" stop-color="#e94730"/><stop offset="1" stop-color="#e73a30"/></linearGradient></defs><title>stethoscope</title><g id="Layer_2" data-name="Layer 2"><g id="Layer_1-2" data-name="Layer 1-2"><path class="cls-1" d="M43,60.51l.21-.1c.36-.17.71-.35,1.05-.54L45.71,59h.06c8.3-5.22,11.09-15.72,7.12-24.7L44.57,15.56,36.76,19a3.86,3.86,0,1,0,2.32,5.23l2.33-1,6,13.6A13.49,13.49,0,0,1,40.77,54.6c-7.47,3.32-14.12,0-17.39-7.47l-5.89-13.3,2.11-.93a3.86,3.86,0,1,0-2.32-5.23L9.55,31l8.3,18.79c2.72,6.15,7.37,10.91,14,12l.74.07a12,12,0,0,0-.07,13.29c4.15,6.44,9.13,4.86,16.51,1.59l4.24-1.88c4.38-1.93,7.9.09,9.31,2.79,1.19,2.28,1.17,5.81-2.77,8.17l-.72.38a4,4,0,1,0,2,4.11H61a3.41,3.41,0,0,0-2.66.83,1.84,1.84,0,0,1-1.05.4,1.73,1.73,0,0,1-1.4-.59,1.79,1.79,0,0,1,.79-2.88,1.87,1.87,0,0,1,1.74.38l.49.41,2-1.11H61c4.92-3,5.36-7.72,3.6-11.09-1.93-3.7-6.72-6.19-12.15-3.79L48.18,74.8C39,78.82,36.67,77.7,34.42,74c-2.9-4.72-2.08-9.13.58-11.48a1.56,1.56,0,0,0-.91-2.72l-1.89-.16c-5.9-1-9.91-5.26-12.32-10.73L12.46,32.16l4.57-2,1.72-.76a2,2,0,1,1,.53,1.2l-1.68.76-3,1.33,7.08,16A15.25,15.25,0,0,0,41.74,56.6l.06,0c8.5-3.86,11.32-12.29,7.52-20.87L42.53,20.31,39.3,21.73l-1.72.76a2,2,0,1,1-.53-1.2l1.72-.76,4.68-2.08,7.42,16.78c3.53,8,1.11,17.27-6.24,21.92l-1.41.77c-.32.17-.65.33-1,.5l-.22.11c-3.22,1.59-5.66,3.52-6.64,6.47-.89,2.65-1.13,4.59.08,7.18C37.7,77,41,76.44,48.56,73.1l4.24-1.91a10.3,10.3,0,0,1,13,3.64c2.13,3.14,2.76,7.82-.66,11.2l-2.34,2.08.13.63a5.74,5.74,0,1,1-5.07-4.49,2.64,2.64,0,0,0,2.67-1.55h0A7.94,7.94,0,0,0,50.41,93.88a8.3,8.3,0,0,0,10.07,3.39h0A7.93,7.93,0,0,0,65.2,89l1.42-1.26h0c4.34-4.28,3.6-10.13.95-14a12.46,12.46,0,0,0-15.7-4.46l-4.24,1.88c-4.35,1.93-8,4.58-10.21.17C35.58,67.51,37.08,63.45,43,60.51Z"/></g></g><g id="Layer_2-2" data-name="Layer 2"><g id="Layer_1-2-2" data-name="Layer 1-2"><path class="cls-2" d="M51.71,91.19a5.74,5.74,0,0,1,6.14-6.93,2.64,2.64,0,0,0,2.67-1.55h0A7.94,7.94,0,0,0,50.41,93.88a8.3,8.3,0,0,0,10.07,3.39h0A7.93,7.93,0,0,0,65.2,89l1.42-1.26h0c4.34-4.28,3.6-10.13.95-14a12.46,12.46,0,0,0-15.7-4.46l-4.24,1.88c-4.35,1.93-8,4.58-10.21.17-1.88-3.75-.37-7.81,5.56-10.75l.21-.1c.36-.17.71-.35,1.05-.54L45.71,59h.06c8.3-5.22,11.09-15.72,7.12-24.7L44.57,15.56,36.76,19a3.86,3.86,0,1,0,2.32,5.23l2.33-1,6,13.6A13.49,13.49,0,0,1,40.77,54.6c-7.47,3.32-14.12,0-17.39-7.47l-5.89-13.3,2.11-.93a3.86,3.86,0,1,0-2.32-5.23L9.55,31l8.3,18.79c2.72,6.15,7.37,10.91,14,12l.74.07a12,12,0,0,0-.07,13.29c4.15,6.44,9.13,4.86,16.51,1.59l4.24-1.88c4.38-1.93,7.9.09,9.31,2.79,1.19,2.28,1.17,5.81-2.77,8.17l-.72.38a4,4,0,1,0,2,4.11H61a3.41,3.41,0,0,0-2.66.83,1.84,1.84,0,0,1-1.05.4,1.73,1.73,0,0,1-1.4-.59"/></g></g><path class="cls-3" d="M94,42.85c-10.54,0-11.68,8.65-11.68,8.65s-1.14-8.65-11.68-8.65S58.89,53.06,63.3,58.66,82.37,77.35,82.37,77.35,97,64.27,101.44,58.66,104.59,42.85,94,42.85Z"/></svg>