<svg id="accelerator" xmlns="http://www.w3.org/2000/svg" viewBox="0 0 250.09 241.54"><defs><style>.accelerator-1{fill:#fff;}</style></defs><title>accelerator</title><path class="accelerator-1" d="M144.21,220.9,100,220.82a1.14,1.14,0,0,1-1.14-1.15l0-18.93a1.14,1.14,0,0,1,1.15-1.14l54.78.1v-1.93l-70.21-.13a1.14,1.14,0,0,1-1.14-1.15l0-20.85a1.14,1.14,0,0,1,1.15-1.14l8.37,0L93,170.89c-.12-9.87-5.15-19.94-14.2-28.42-13.23-12.41-22-35.61-21.32-56.43C58.56,51.75,86.2,23.09,120.38,20.8a67.07,67.07,0,0,1,50.89,18.11,67.86,67.86,0,0,1,21.4,49.49c0,19.88-8.66,42-21,53.7-9.5,9-15.06,19.77-14.88,28.69l0,13.2a1.14,1.14,0,0,1-1.14,1.14l-23.73.1a1.14,1.14,0,0,1-1.15-1.15l.38-87.64-12.23,0-.13,71a9.64,9.64,0,0,1-9.66,9.62h0l.15-80.6h-2.14A12.49,12.49,0,0,1,94.62,85.76a12.21,12.21,0,0,1,24.07-4l.25,1.79v3.23l12.25,0,0-3.65a12.13,12.13,0,0,1,11.39-11.07,12.38,12.38,0,0,1,13,11.83,12.22,12.22,0,0,1-12.23,12.56h-2.57l-.34,79.1,6.71,0v-4.65c-.23-11.64,6.28-24.71,17.87-35.76,10.56-10.07,18-29.28,18-46.73a58.2,58.2,0,0,0-18.35-42.43A57.55,57.55,0,0,0,121,30.42C91.73,32.39,68,57,67.09,86.35,66.5,104.6,74,124.78,85.38,135.43c11,10.29,17.1,22.82,17.24,35.28l.32,13.47-9.77,0V188l70.21.13a1.14,1.14,0,0,1,1.14,1.15l0,18.93a1.14,1.14,0,0,1-1.15,1.14l-54.78-.1v1.93l26,0a9.64,9.64,0,0,1,9.62,9.66ZM140.83,86.81h2.54a2.57,2.57,0,1,0-2.53-3Zm-34.1-5.2a2.57,2.57,0,0,0,0,5.13h2.57l-.07-3.19A2.55,2.55,0,0,0,106.73,81.61Z"/></svg>