<svg xmlns="http://www.w3.org/2000/svg" xmlns:xlink="http://www.w3.org/1999/xlink" viewBox="0 0 246.15 48.5"><defs><style>.acel-logo-1{fill:none;}.acel-logo-2{fill:#f7a936;}.acel-logo-3{fill:#e73c2e;}.acel-logo-4{clip-path:url(#clip-path);}.acel-logo-5{fill:#757575;}.acel-logo-6{fill:#797878;}.acel-logo-7{fill:#7c7c7c;}.acel-logo-8{fill:#7f7e7f;}.acel-logo-9{fill:#828282;}.acel-logo-10{fill:#868585;}.acel-logo-11{fill:#878787;}.acel-logo-12{fill:#8a8a89;}.acel-logo-13{fill:#8d8d8c;}.acel-logo-14{fill:#8f8f8f;}.acel-logo-15{fill:#929291;}.acel-logo-16{fill:#949494;}.acel-logo-17{fill:#989797;}.acel-logo-18{fill:#9a9999;}.acel-logo-19{fill:#9d9d9c;}.acel-logo-20{fill:#9e9e9d;}.acel-logo-21{fill:#a1a0a0;}.acel-logo-22{fill:#a3a1a1;}.acel-logo-23{fill:#a5a5a4;}.acel-logo-24{fill:#a7a6a6;}.acel-logo-25{fill:#a8a8a8;}.acel-logo-26{fill:#ababab;}.acel-logo-27{fill:#afadad;}.acel-logo-28{fill:#b1b0b0;}.acel-logo-29{fill:#b3b1b1;}.acel-logo-30{fill:#b5b4b3;}.acel-logo-31{fill:#b6b6b5;}.acel-logo-32{fill:#b8b7b7;}.acel-logo-33{fill:#b9b9b9;}.acel-logo-34{fill:#bcbbba;}.acel-logo-35{fill:#bcbcbb;}.acel-logo-36{fill:#bebdbe;}.acel-logo-37{fill:#c0c0bf;}.acel-logo-38{fill:#c2c1c1;}.acel-logo-39{fill:#c4c4c3;}.acel-logo-40{fill:#c5c5c4;}.acel-logo-41{fill:#c7c6c6;}.acel-logo-42{fill:#c8c7c7;}.acel-logo-43{fill:#cac9c9;}.acel-logo-44{fill:#cbcaca;}.acel-logo-45{fill:#cdcdcc;}.acel-logo-46{fill:#cecdcc;}.acel-logo-47{fill:#cfcece;}.acel-logo-48{fill:#d0d0d0;}.acel-logo-49{fill:#d1d1d1;}.acel-logo-50{fill:#d3d2d2;}.acel-logo-51{fill:#d5d5d4;}.acel-logo-52{fill:#d6d6d6;}.acel-logo-53{fill:#d6d7d7;}.acel-logo-54{fill:#d8d7d7;}.acel-logo-55{fill:#d9d9d9;}.acel-logo-56{fill:#dadada;}.acel-logo-57{fill:#dbdbdb;}.acel-logo-58{fill:#dcdcdc;}.acel-logo-59{fill:#ddd;}.acel-logo-60{fill:#dedede;}.acel-logo-61{fill:#dfdfdf;}.acel-logo-62{fill:#e0e0e0;}.acel-logo-63{fill:#e1e1e1;}.acel-logo-64{fill:#e2e2e1;}.acel-logo-65{fill:#e3e2e2;}.acel-logo-66{fill:#e3e3e2;}.acel-logo-67{fill:#e4e4e3;}.acel-logo-68{fill:#e5e5e4;}.acel-logo-69{fill:#e7e6e6;}.acel-logo-70{fill:#e8e7e7;}.acel-logo-71{fill:#e9e8e8;}.acel-logo-72{fill:#e9e9e9;}.acel-logo-73{fill:#eaeaea;}.acel-logo-74{fill:#ebebeb;}.acel-logo-75{fill:#ececec;}.acel-logo-76{fill:#eeeded;}.acel-logo-77{fill:#efeeee;}.acel-logo-78{fill:#efefef;}.acel-logo-79{fill:#f0f0ef;}.acel-logo-80{fill:#f0f0f0;}.acel-logo-81{fill:#f1f1f1;}.acel-logo-82{fill:#f2f2f2;}.acel-logo-83{fill:#f3f3f3;}.acel-logo-84{fill:#f4f3f4;}.acel-logo-85{fill:#f5f5f5;}.acel-logo-86{fill:#f6f6f6;}.acel-logo-87{fill:#f8f7f7;}.acel-logo-88{fill:#f9f9f9;}.acel-logo-89{fill:#fafafa;}.acel-logo-90{fill:#fbfbfa;}.acel-logo-91{fill:#fbfbfb;}.acel-logo-92{fill:#fcfcfc;}.acel-logo-93{fill:#fdfdfd;}.acel-logo-94{fill:#fefefe;}.acel-logo-95{fill:#fff;}.acel-logo-96{clip-path:url(#clip-path-174);}.acel-logo-97{fill:#219dd9;}.acel-logo-98{fill:#0d68b1;}.acel-logo-99{fill:#e21c84;}.acel-logo-100{fill:#78ccf4;}.acel-logo-101{fill:#942281;}.acel-logo-102{fill:#3c3288;}.acel-logo-103{fill:#223a80;}</style><clipPath id="clip-path"><path id="SVGID" class="acel-logo-1" d="M26.24,3.3a7,7,0,0,0-4.7-1.8H8.74v7h12.8a7,7,0,0,1,7,7v-7A7.19,7.19,0,0,0,26.24,3.3Z"/></clipPath><clipPath id="clip-path-174"><path id="SVGID-174" data-name="SVGID" class="acel-logo-1" d="M8.74,20.2V8.6a7,7,0,0,1,7-7h-7A7.23,7.23,0,0,0,4,3.4a7,7,0,0,0-2.3,5.2v4.6A7,7,0,0,0,8.74,20.2Z"/></clipPath></defs><title>Artboard 4</title><g id="Isolation_Mode" data-name="Isolation Mode"><g id="Isolation_Mode-2" data-name="Isolation Mode"><path class="acel-logo-2" d="M36.94,20.4h14.6c4.2,0-.8,2.2-.8-1.5V20l1.7,1.7,1.2.6c.9-.2-.2,1.4.6,2.4.5.7,2.4,2.3,2.5,2.5H46.54C42.34,27.2,36.94,24.2,36.94,20.4Z"/><path class="acel-logo-3" d="M53.94,21.7l.5.8c.9-.2.6,1.2,1.4,2.3.5.7,1.4,2.3,1.5,2.5h-.2c-1.5-.2-13.4.4-15.9-6.9h11.7"/><g class="acel-logo-4"><rect class="acel-logo-5" x="8.74" y="1.5" width="0.1" height="14"/></g><g class="acel-logo-4"><rect class="acel-logo-6" x="8.84" y="1.5" width="0.1" height="14"/></g><g class="acel-logo-4"><rect class="acel-logo-7" x="8.94" y="1.5" width="0.1" height="14"/></g><g class="acel-logo-4"><rect class="acel-logo-8" x="9.04" y="1.5" width="0.1" height="14"/></g><g class="acel-logo-4"><rect class="acel-logo-9" x="9.14" y="1.5" width="0.1" height="14"/></g><g class="acel-logo-4"><rect class="acel-logo-10" x="9.24" y="1.5" width="0.1" height="14"/></g><g class="acel-logo-4"><rect class="acel-logo-11" x="9.34" y="1.5" width="0.1" height="14"/></g><g class="acel-logo-4"><rect class="acel-logo-12" x="9.54" y="1.5" width="0.1" height="14"/></g><g class="acel-logo-4"><rect class="acel-logo-13" x="9.64" y="1.5" width="0.1" height="14"/></g><g class="acel-logo-4"><rect class="acel-logo-14" x="9.74" y="1.5" width="0.1" height="14"/></g><g class="acel-logo-4"><rect class="acel-logo-15" x="9.84" y="1.5" width="0.1" height="14"/></g><g class="acel-logo-4"><rect class="acel-logo-16" x="9.94" y="1.5" width="0.1" height="14"/></g><g class="acel-logo-4"><rect class="acel-logo-17" x="10.04" y="1.5" width="0.1" height="14"/></g><g class="acel-logo-4"><rect class="acel-logo-18" x="10.24" y="1.5" width="0.1" height="14"/></g><g class="acel-logo-4"><rect class="acel-logo-19" x="10.34" y="1.5" width="0.1" height="14"/></g><g class="acel-logo-4"><rect class="acel-logo-20" x="10.44" y="1.5" width="0.1" height="14"/></g><g class="acel-logo-4"><rect class="acel-logo-21" x="10.54" y="1.5" width="0.1" height="14"/></g><g class="acel-logo-4"><rect class="acel-logo-22" x="10.64" y="1.5" width="0.1" height="14"/></g><g class="acel-logo-4"><rect class="acel-logo-23" x="10.74" y="1.5" width="0.1" height="14"/></g><g class="acel-logo-4"><rect class="acel-logo-24" x="10.84" y="1.5" width="0.1" height="14"/></g><g class="acel-logo-4"><rect class="acel-logo-25" x="11.04" y="1.5" width="0.1" height="14"/></g><g class="acel-logo-4"><rect class="acel-logo-26" x="11.14" y="1.5" width="0.1" height="14"/></g><g class="acel-logo-4"><rect class="acel-logo-27" x="11.24" y="1.5" width="0.1" height="14"/></g><g class="acel-logo-4"><rect class="acel-logo-28" x="11.34" y="1.5" width="0.1" height="14"/></g><g class="acel-logo-4"><rect class="acel-logo-29" x="11.44" y="1.5" width="0.1" height="14"/></g><g class="acel-logo-4"><rect class="acel-logo-30" x="11.54" y="1.5" width="0.1" height="14"/></g><g class="acel-logo-4"><rect class="acel-logo-31" x="11.64" y="1.5" width="0.1" height="14"/></g><g class="acel-logo-4"><rect class="acel-logo-32" x="11.84" y="1.5" width="0.1" height="14"/></g><g class="acel-logo-4"><rect class="acel-logo-33" x="11.94" y="1.5" width="0.1" height="14"/></g><g class="acel-logo-4"><rect class="acel-logo-34" x="12.04" y="1.5" width="0.1" height="14"/></g><g class="acel-logo-4"><rect class="acel-logo-35" x="12.14" y="1.5" width="0.1" height="14"/></g><g class="acel-logo-4"><rect class="acel-logo-36" x="12.24" y="1.5" width="0.1" height="14"/></g><g class="acel-logo-4"><rect class="acel-logo-37" x="12.34" y="1.5" width="0.1" height="14"/></g><g class="acel-logo-4"><rect class="acel-logo-38" x="12.44" y="1.5" width="0.1" height="14"/></g><g class="acel-logo-4"><rect class="acel-logo-39" x="12.64" y="1.5" width="0.1" height="14"/></g><g class="acel-logo-4"><rect class="acel-logo-40" x="12.74" y="1.5" width="0.1" height="14"/></g><g class="acel-logo-4"><rect class="acel-logo-41" x="12.84" y="1.5" width="0.1" height="14"/></g><g class="acel-logo-4"><rect class="acel-logo-42" x="12.94" y="1.5" width="0.1" height="14"/></g><g class="acel-logo-4"><rect class="acel-logo-43" x="13.04" y="1.5" width="0.1" height="14"/></g><g class="acel-logo-4"><rect class="acel-logo-44" x="13.14" y="1.5" width="0.1" height="14"/></g><g class="acel-logo-4"><rect class="acel-logo-45" x="13.24" y="1.5" width="0.1" height="14"/></g><g class="acel-logo-4"><rect class="acel-logo-46" x="13.44" y="1.5" width="0.1" height="14"/></g><g class="acel-logo-4"><rect class="acel-logo-47" x="13.54" y="1.5" width="0.1" height="14"/></g><g class="acel-logo-4"><rect class="acel-logo-48" x="13.64" y="1.5" width="0.1" height="14"/></g><g class="acel-logo-4"><rect class="acel-logo-49" x="13.74" y="1.5" width="0.1" height="14"/></g><g class="acel-logo-4"><rect class="acel-logo-50" x="13.84" y="1.5" width="0.1" height="14"/></g><g class="acel-logo-4"><rect class="acel-logo-51" x="13.94" y="1.5" width="0.1" height="14"/></g><g class="acel-logo-4"><rect class="acel-logo-52" x="14.14" y="1.5" width="0.1" height="14"/></g><g class="acel-logo-4"><rect class="acel-logo-53" x="14.24" y="1.5" width="0.1" height="14"/></g><g class="acel-logo-4"><rect class="acel-logo-54" x="14.34" y="1.5" width="0.1" height="14"/></g><g class="acel-logo-4"><rect class="acel-logo-55" x="14.44" y="1.5" width="0.1" height="14"/></g><g class="acel-logo-4"><rect class="acel-logo-56" x="14.54" y="1.5" width="0.1" height="14"/></g><g class="acel-logo-4"><rect class="acel-logo-57" x="14.64" y="1.5" width="0.1" height="14"/></g><g class="acel-logo-4"><rect class="acel-logo-58" x="14.74" y="1.5" width="0.1" height="14"/></g><g class="acel-logo-4"><rect class="acel-logo-59" x="14.94" y="1.5" width="0.1" height="14"/></g><g class="acel-logo-4"><rect class="acel-logo-60" x="15.04" y="1.5" width="0.1" height="14"/></g><g class="acel-logo-4"><rect class="acel-logo-61" x="15.14" y="1.5" width="0.1" height="14"/></g><g class="acel-logo-4"><rect class="acel-logo-62" x="15.24" y="1.5" width="0.1" height="14"/></g><g class="acel-logo-4"><rect class="acel-logo-63" x="15.34" y="1.5" width="0.1" height="14"/></g><g class="acel-logo-4"><rect class="acel-logo-64" x="15.44" y="1.5" width="0.1" height="14"/></g><g class="acel-logo-4"><rect class="acel-logo-65" x="15.54" y="1.5" width="0.1" height="14"/></g><g class="acel-logo-4"><rect class="acel-logo-66" x="15.74" y="1.5" width="0.1" height="14"/></g><g class="acel-logo-4"><rect class="acel-logo-67" x="15.84" y="1.5" width="0.1" height="14"/></g><g class="acel-logo-4"><rect class="acel-logo-68" x="15.94" y="1.5" width="0.1" height="14"/></g><g class="acel-logo-4"><rect class="acel-logo-69" x="16.04" y="1.5" width="0.1" height="14"/></g><g class="acel-logo-4"><rect class="acel-logo-70" x="16.14" y="1.5" width="0.1" height="14"/></g><g class="acel-logo-4"><rect class="acel-logo-70" x="16.24" y="1.5" width="0.1" height="14"/></g><g class="acel-logo-4"><rect class="acel-logo-71" x="16.34" y="1.5" width="0.1" height="14"/></g><g class="acel-logo-4"><rect class="acel-logo-72" x="16.54" y="1.5" width="0.1" height="14"/></g><g class="acel-logo-4"><rect class="acel-logo-73" x="16.64" y="1.5" width="0.1" height="14"/></g><g class="acel-logo-4"><rect class="acel-logo-73" x="16.74" y="1.5" width="0.1" height="14"/></g><g class="acel-logo-4"><rect class="acel-logo-74" x="16.84" y="1.5" width="0.1" height="14"/></g><g class="acel-logo-4"><rect class="acel-logo-75" x="16.94" y="1.5" width="0.1" height="14"/></g><g class="acel-logo-4"><rect class="acel-logo-75" x="17.04" y="1.5" width="0.1" height="14"/></g><g class="acel-logo-4"><rect class="acel-logo-76" x="17.24" y="1.5" width="0.1" height="14"/></g><g class="acel-logo-4"><rect class="acel-logo-77" x="17.34" y="1.5" width="0.1" height="14"/></g><g class="acel-logo-4"><rect class="acel-logo-77" x="17.44" y="1.5" width="0.1" height="14"/></g><g class="acel-logo-4"><rect class="acel-logo-78" x="17.54" y="1.5" width="0.1" height="14"/></g><g class="acel-logo-4"><rect class="acel-logo-79" x="17.64" y="1.5" width="0.1" height="14"/></g><g class="acel-logo-4"><rect class="acel-logo-80" x="17.74" y="1.5" width="0.1" height="14"/></g><g class="acel-logo-4"><rect class="acel-logo-81" x="17.84" y="1.5" width="0.1" height="14"/></g><g class="acel-logo-4"><rect class="acel-logo-81" x="18.04" y="1.5" width="0.1" height="14"/></g><g class="acel-logo-4"><rect class="acel-logo-82" x="18.14" y="1.5" width="0.1" height="14"/></g><g class="acel-logo-4"><rect class="acel-logo-82" x="18.24" y="1.5" width="0.1" height="14"/></g><g class="acel-logo-4"><rect class="acel-logo-83" x="18.34" y="1.5" width="0.1" height="14"/></g><g class="acel-logo-4"><rect class="acel-logo-83" x="18.44" y="1.5" width="0.1" height="14"/></g><g class="acel-logo-4"><rect class="acel-logo-84" x="18.54" y="1.5" width="0.1" height="14"/></g><g class="acel-logo-4"><rect class="acel-logo-84" x="18.64" y="1.5" width="0.1" height="14"/></g><g class="acel-logo-4"><rect class="acel-logo-85" x="18.84" y="1.5" width="0.1" height="14"/></g><g class="acel-logo-4"><rect class="acel-logo-85" x="18.94" y="1.5" width="0.1" height="14"/></g><g class="acel-logo-4"><rect class="acel-logo-85" x="19.04" y="1.5" width="0.1" height="14"/></g><g class="acel-logo-4"><rect class="acel-logo-86" x="19.14" y="1.5" width="0.1" height="14"/></g><g class="acel-logo-4"><rect class="acel-logo-86" x="19.24" y="1.5" width="0.1" height="14"/></g><g class="acel-logo-4"><rect class="acel-logo-87" x="19.34" y="1.5" width="0.1" height="14"/></g><g class="acel-logo-4"><rect class="acel-logo-87" x="19.44" y="1.5" width="0.1" height="14"/></g><g class="acel-logo-4"><rect class="acel-logo-87" x="19.64" y="1.5" width="0.1" height="14"/></g><g class="acel-logo-4"><rect class="acel-logo-88" x="19.74" y="1.5" width="0.1" height="14"/></g><g class="acel-logo-4"><rect class="acel-logo-88" x="19.84" y="1.5" width="0.1" height="14"/></g><g class="acel-logo-4"><rect class="acel-logo-88" x="19.94" y="1.5" width="0.1" height="14"/></g><g class="acel-logo-4"><rect class="acel-logo-89" x="20.04" y="1.5" width="0.1" height="14"/></g><g class="acel-logo-4"><rect class="acel-logo-89" x="20.14" y="1.5" width="0.1" height="14"/></g><g class="acel-logo-4"><rect class="acel-logo-89" x="20.34" y="1.5" width="0.1" height="14"/></g><g class="acel-logo-4"><rect class="acel-logo-90" x="20.44" y="1.5" width="0.1" height="14"/></g><g class="acel-logo-4"><rect class="acel-logo-91" x="20.54" y="1.5" width="0.1" height="14"/></g><g class="acel-logo-4"><rect class="acel-logo-91" x="20.64" y="1.5" width="0.1" height="14"/></g><g class="acel-logo-4"><rect class="acel-logo-91" x="20.74" y="1.5" width="0.1" height="14"/></g><g class="acel-logo-4"><rect class="acel-logo-92" x="20.84" y="1.5" width="0.1" height="14"/></g><g class="acel-logo-4"><rect class="acel-logo-92" x="20.94" y="1.5" width="0.1" height="14"/></g><g class="acel-logo-4"><rect class="acel-logo-92" x="21.14" y="1.5" width="0.1" height="14"/></g><g class="acel-logo-4"><rect class="acel-logo-92" x="21.24" y="1.5" width="0.1" height="14"/></g><g class="acel-logo-4"><rect class="acel-logo-92" x="21.34" y="1.5" width="0.1" height="14"/></g><g class="acel-logo-4"><rect class="acel-logo-93" x="21.44" y="1.5" width="0.1" height="14"/></g><g class="acel-logo-4"><rect class="acel-logo-93" x="21.54" y="1.5" width="0.1" height="14"/></g><g class="acel-logo-4"><rect class="acel-logo-93" x="21.64" y="1.5" width="0.1" height="14"/></g><g class="acel-logo-4"><rect class="acel-logo-93" x="21.74" y="1.5" width="0.1" height="14"/></g><g class="acel-logo-4"><rect class="acel-logo-93" x="21.94" y="1.5" width="0.1" height="14"/></g><g class="acel-logo-4"><rect class="acel-logo-94" x="22.04" y="1.5" width="0.1" height="14"/></g><g class="acel-logo-4"><rect class="acel-logo-94" x="22.14" y="1.5" width="0.1" height="14"/></g><g class="acel-logo-4"><rect class="acel-logo-94" x="22.24" y="1.5" width="0.1" height="14"/></g><g class="acel-logo-4"><rect class="acel-logo-94" x="22.34" y="1.5" width="0.1" height="14"/></g><g class="acel-logo-4"><rect class="acel-logo-94" x="22.44" y="1.5" width="0.1" height="14"/></g><g class="acel-logo-4"><rect class="acel-logo-94" x="22.54" y="1.5" width="0.1" height="14"/></g><g class="acel-logo-4"><rect class="acel-logo-94" x="22.74" y="1.5" width="0.1" height="14"/></g><g class="acel-logo-4"><rect class="acel-logo-94" x="22.84" y="1.5" width="0.1" height="14"/></g><g class="acel-logo-4"><rect class="acel-logo-95" x="22.94" y="1.5" width="0.1" height="14"/></g><g class="acel-logo-4"><rect class="acel-logo-95" x="23.04" y="1.5" width="0.1" height="14"/></g><g class="acel-logo-4"><rect class="acel-logo-95" x="23.14" y="1.5" width="0.1" height="14"/></g><g class="acel-logo-4"><rect class="acel-logo-95" x="23.24" y="1.5" width="0.1" height="14"/></g><g class="acel-logo-4"><rect class="acel-logo-95" x="23.34" y="1.5" width="0.1" height="14"/></g><g class="acel-logo-4"><rect class="acel-logo-95" x="23.54" y="1.5" width="0.1" height="14"/></g><g class="acel-logo-4"><rect class="acel-logo-95" x="23.64" y="1.5" width="0.1" height="14"/></g><g class="acel-logo-4"><rect class="acel-logo-95" x="23.74" y="1.5" width="0.1" height="14"/></g><g class="acel-logo-4"><rect class="acel-logo-95" x="23.84" y="1.5" width="0.1" height="14"/></g><g class="acel-logo-4"><rect class="acel-logo-95" x="23.94" y="1.5" width="0.1" height="14"/></g><g class="acel-logo-4"><rect class="acel-logo-95" x="24.04" y="1.5" width="0.1" height="14"/></g><g class="acel-logo-4"><rect class="acel-logo-95" x="24.24" y="1.5" width="0.1" height="14"/></g><g class="acel-logo-4"><rect class="acel-logo-95" x="24.34" y="1.5" width="0.1" height="14"/></g><g class="acel-logo-4"><rect class="acel-logo-95" x="24.44" y="1.5" width="0.1" height="14"/></g><g class="acel-logo-4"><rect class="acel-logo-95" x="24.54" y="1.5" width="0.1" height="14"/></g><g class="acel-logo-4"><rect class="acel-logo-95" x="24.64" y="1.5" width="0.1" height="14"/></g><g class="acel-logo-4"><rect class="acel-logo-95" x="24.74" y="1.5" width="0.1" height="14"/></g><g class="acel-logo-4"><rect class="acel-logo-95" x="24.84" y="1.5" width="0.1" height="14"/></g><g class="acel-logo-4"><rect class="acel-logo-95" x="25.04" y="1.5" width="0.1" height="14"/></g><g class="acel-logo-4"><rect class="acel-logo-95" x="25.14" y="1.5" width="0.1" height="14"/></g><g class="acel-logo-4"><rect class="acel-logo-95" x="25.24" y="1.5" width="0.1" height="14"/></g><g class="acel-logo-4"><rect class="acel-logo-95" x="25.34" y="1.5" width="0.1" height="14"/></g><g class="acel-logo-4"><rect class="acel-logo-95" x="25.44" y="1.5" width="0.1" height="14"/></g><g class="acel-logo-4"><rect class="acel-logo-95" x="25.54" y="1.5" width="0.1" height="14"/></g><g class="acel-logo-4"><rect class="acel-logo-95" x="25.64" y="1.5" width="0.1" height="14"/></g><g class="acel-logo-4"><rect class="acel-logo-95" x="25.84" y="1.5" width="0.1" height="14"/></g><g class="acel-logo-4"><rect class="acel-logo-95" x="25.94" y="1.5" width="0.1" height="14"/></g><g class="acel-logo-4"><rect class="acel-logo-95" x="26.04" y="1.5" width="0.1" height="14"/></g><g class="acel-logo-4"><rect class="acel-logo-95" x="26.14" y="1.5" width="0.1" height="14"/></g><g class="acel-logo-4"><rect class="acel-logo-95" x="26.24" y="1.5" width="0.1" height="14"/></g><g class="acel-logo-4"><rect class="acel-logo-95" x="26.34" y="1.5" width="0.1" height="14"/></g><g class="acel-logo-4"><rect class="acel-logo-95" x="26.44" y="1.5" width="0.1" height="14"/></g><g class="acel-logo-4"><rect class="acel-logo-95" x="26.64" y="1.5" width="0.1" height="14"/></g><g class="acel-logo-4"><rect class="acel-logo-95" x="26.74" y="1.5" width="0.1" height="14"/></g><g class="acel-logo-4"><rect class="acel-logo-95" x="26.84" y="1.5" width="0.1" height="14"/></g><g class="acel-logo-4"><rect class="acel-logo-95" x="26.94" y="1.5" width="0.1" height="14"/></g><g class="acel-logo-4"><rect class="acel-logo-95" x="27.04" y="1.5" width="0.1" height="14"/></g><g class="acel-logo-4"><rect class="acel-logo-95" x="27.14" y="1.5" width="0.1" height="14"/></g><g class="acel-logo-4"><rect class="acel-logo-95" x="27.34" y="1.5" width="0.1" height="14"/></g><g class="acel-logo-4"><rect class="acel-logo-95" x="27.44" y="1.5" width="0.1" height="14"/></g><g class="acel-logo-4"><rect class="acel-logo-95" x="27.54" y="1.5" width="0.1" height="14"/></g><g class="acel-logo-4"><rect class="acel-logo-95" x="27.64" y="1.5" width="0.1" height="14"/></g><g class="acel-logo-4"><rect class="acel-logo-95" x="27.74" y="1.5" width="0.1" height="14"/></g><g class="acel-logo-4"><rect class="acel-logo-95" x="27.84" y="1.5" width="0.1" height="14"/></g><g class="acel-logo-4"><rect class="acel-logo-95" x="27.94" y="1.5" width="0.1" height="14"/></g><g class="acel-logo-4"><rect class="acel-logo-95" x="28.14" y="1.5" width="0.1" height="14"/></g><g class="acel-logo-4"><rect class="acel-logo-95" x="28.24" y="1.5" width="0.1" height="14"/></g><g class="acel-logo-4"><rect class="acel-logo-95" x="28.34" y="1.5" width="0.1" height="14"/></g><g class="acel-logo-4"><rect class="acel-logo-95" x="28.44" y="1.5" width="0.1" height="14"/></g><g class="acel-logo-96"><rect class="acel-logo-5" x="1.74" y="20.1" width="14" height="0.1"/></g><g class="acel-logo-96"><rect class="acel-logo-6" x="1.74" y="20" width="14" height="0.1"/></g><g class="acel-logo-96"><rect class="acel-logo-7" x="1.74" y="19.9" width="14" height="0.1"/></g><g class="acel-logo-96"><rect class="acel-logo-8" x="1.74" y="19.8" width="14" height="0.1"/></g><g class="acel-logo-96"><rect class="acel-logo-9" x="1.74" y="19.7" width="14" height="0.1"/></g><g class="acel-logo-96"><rect class="acel-logo-10" x="1.74" y="19.6" width="14" height="0.1"/></g><g class="acel-logo-96"><rect class="acel-logo-11" x="1.74" y="19.5" width="14" height="0.1"/></g><g class="acel-logo-96"><rect class="acel-logo-12" x="1.74" y="19.3" width="14" height="0.1"/></g><g class="acel-logo-96"><rect class="acel-logo-13" x="1.74" y="19.2" width="14" height="0.1"/></g><g class="acel-logo-96"><rect class="acel-logo-14" x="1.74" y="19.1" width="14" height="0.1"/></g><g class="acel-logo-96"><rect class="acel-logo-15" x="1.74" y="19" width="14" height="0.1"/></g><g class="acel-logo-96"><rect class="acel-logo-16" x="1.74" y="18.9" width="14" height="0.1"/></g><g class="acel-logo-96"><rect class="acel-logo-17" x="1.74" y="18.8" width="14" height="0.1"/></g><g class="acel-logo-96"><rect class="acel-logo-18" x="1.74" y="18.7" width="14" height="0.1"/></g><g class="acel-logo-96"><rect class="acel-logo-19" x="1.74" y="18.6" width="14" height="0.1"/></g><g class="acel-logo-96"><rect class="acel-logo-20" x="1.74" y="18.5" width="14" height="0.1"/></g><g class="acel-logo-96"><rect class="acel-logo-21" x="1.74" y="18.4" width="14" height="0.1"/></g><g class="acel-logo-96"><rect class="acel-logo-22" x="1.74" y="18.3" width="14" height="0.1"/></g><g class="acel-logo-96"><rect class="acel-logo-23" x="1.74" y="18.2" width="14" height="0.1"/></g><g class="acel-logo-96"><rect class="acel-logo-24" x="1.74" y="18.1" width="14" height="0.1"/></g><g class="acel-logo-96"><rect class="acel-logo-25" x="1.74" y="17.9" width="14" height="0.1"/></g><g class="acel-logo-96"><rect class="acel-logo-26" x="1.74" y="17.8" width="14" height="0.1"/></g><g class="acel-logo-96"><rect class="acel-logo-27" x="1.74" y="17.7" width="14" height="0.1"/></g><g class="acel-logo-96"><rect class="acel-logo-28" x="1.74" y="17.6" width="14" height="0.1"/></g><g class="acel-logo-96"><rect class="acel-logo-29" x="1.74" y="17.5" width="14" height="0.1"/></g><g class="acel-logo-96"><rect class="acel-logo-30" x="1.74" y="17.4" width="14" height="0.1"/></g><g class="acel-logo-96"><rect class="acel-logo-31" x="1.74" y="17.3" width="14" height="0.1"/></g><g class="acel-logo-96"><rect class="acel-logo-32" x="1.74" y="17.2" width="14" height="0.1"/></g><g class="acel-logo-96"><rect class="acel-logo-33" x="1.74" y="17.1" width="14" height="0.1"/></g><g class="acel-logo-96"><rect class="acel-logo-34" x="1.74" y="17" width="14" height="0.1"/></g><g class="acel-logo-96"><rect class="acel-logo-35" x="1.74" y="16.9" width="14" height="0.1"/></g><g class="acel-logo-96"><rect class="acel-logo-36" x="1.74" y="16.8" width="14" height="0.1"/></g><g class="acel-logo-96"><rect class="acel-logo-37" x="1.74" y="16.6" width="14" height="0.1"/></g><g class="acel-logo-96"><rect class="acel-logo-38" x="1.74" y="16.5" width="14" height="0.1"/></g><g class="acel-logo-96"><rect class="acel-logo-39" x="1.74" y="16.4" width="14" height="0.1"/></g><g class="acel-logo-96"><rect class="acel-logo-40" x="1.74" y="16.3" width="14" height="0.1"/></g><g class="acel-logo-96"><rect class="acel-logo-41" x="1.74" y="16.2" width="14" height="0.1"/></g><g class="acel-logo-96"><rect class="acel-logo-42" x="1.74" y="16.1" width="14" height="0.1"/></g><g class="acel-logo-96"><rect class="acel-logo-43" x="1.74" y="16" width="14" height="0.1"/></g><g class="acel-logo-96"><rect class="acel-logo-44" x="1.74" y="15.9" width="14" height="0.1"/></g><g class="acel-logo-96"><rect class="acel-logo-45" x="1.74" y="15.8" width="14" height="0.1"/></g><g class="acel-logo-96"><rect class="acel-logo-46" x="1.74" y="15.7" width="14" height="0.1"/></g><g class="acel-logo-96"><rect class="acel-logo-47" x="1.74" y="15.6" width="14" height="0.1"/></g><g class="acel-logo-96"><rect class="acel-logo-48" x="1.74" y="15.5" width="14" height="0.1"/></g><g class="acel-logo-96"><rect class="acel-logo-49" x="1.74" y="15.4" width="14" height="0.1"/></g><g class="acel-logo-96"><rect class="acel-logo-50" x="1.74" y="15.2" width="14" height="0.1"/></g><g class="acel-logo-96"><rect class="acel-logo-51" x="1.74" y="15.1" width="14" height="0.1"/></g><g class="acel-logo-96"><rect class="acel-logo-52" x="1.74" y="15" width="14" height="0.1"/></g><g class="acel-logo-96"><rect class="acel-logo-53" x="1.74" y="14.9" width="14" height="0.1"/></g><g class="acel-logo-96"><rect class="acel-logo-54" x="1.74" y="14.8" width="14" height="0.1"/></g><g class="acel-logo-96"><rect class="acel-logo-55" x="1.74" y="14.7" width="14" height="0.1"/></g><g class="acel-logo-96"><rect class="acel-logo-56" x="1.74" y="14.6" width="14" height="0.1"/></g><g class="acel-logo-96"><rect class="acel-logo-57" x="1.74" y="14.5" width="14" height="0.1"/></g><g class="acel-logo-96"><rect class="acel-logo-58" x="1.74" y="14.4" width="14" height="0.1"/></g><g class="acel-logo-96"><rect class="acel-logo-59" x="1.74" y="14.3" width="14" height="0.1"/></g><g class="acel-logo-96"><rect class="acel-logo-60" x="1.74" y="14.2" width="14" height="0.1"/></g><g class="acel-logo-96"><rect class="acel-logo-61" x="1.74" y="14.1" width="14" height="0.1"/></g><g class="acel-logo-96"><rect class="acel-logo-62" x="1.74" y="13.9" width="14" height="0.1"/></g><g class="acel-logo-96"><rect class="acel-logo-63" x="1.74" y="13.8" width="14" height="0.1"/></g><g class="acel-logo-96"><rect class="acel-logo-64" x="1.74" y="13.7" width="14" height="0.1"/></g><g class="acel-logo-96"><rect class="acel-logo-65" x="1.74" y="13.6" width="14" height="0.1"/></g><g class="acel-logo-96"><rect class="acel-logo-66" x="1.74" y="13.5" width="14" height="0.1"/></g><g class="acel-logo-96"><rect class="acel-logo-67" x="1.74" y="13.4" width="14" height="0.1"/></g><g class="acel-logo-96"><rect class="acel-logo-68" x="1.74" y="13.3" width="14" height="0.1"/></g><g class="acel-logo-96"><rect class="acel-logo-69" x="1.74" y="13.2" width="14" height="0.1"/></g><g class="acel-logo-96"><rect class="acel-logo-70" x="1.74" y="13.1" width="14" height="0.1"/></g><g class="acel-logo-96"><rect class="acel-logo-70" x="1.74" y="13" width="14" height="0.1"/></g><g class="acel-logo-96"><rect class="acel-logo-71" x="1.74" y="12.9" width="14" height="0.1"/></g><g class="acel-logo-96"><rect class="acel-logo-72" x="1.74" y="12.8" width="14" height="0.1"/></g><g class="acel-logo-96"><rect class="acel-logo-73" x="1.74" y="12.7" width="14" height="0.1"/></g><g class="acel-logo-96"><rect class="acel-logo-73" x="1.74" y="12.5" width="14" height="0.1"/></g><g class="acel-logo-96"><rect class="acel-logo-74" x="1.74" y="12.4" width="14" height="0.1"/></g><g class="acel-logo-96"><rect class="acel-logo-75" x="1.74" y="12.3" width="14" height="0.1"/></g><g class="acel-logo-96"><rect class="acel-logo-75" x="1.74" y="12.2" width="14" height="0.1"/></g><g class="acel-logo-96"><rect class="acel-logo-76" x="1.74" y="12.1" width="14" height="0.1"/></g><g class="acel-logo-96"><rect class="acel-logo-77" x="1.74" y="12" width="14" height="0.1"/></g><g class="acel-logo-96"><rect class="acel-logo-77" x="1.74" y="11.9" width="14" height="0.1"/></g><g class="acel-logo-96"><rect class="acel-logo-78" x="1.74" y="11.8" width="14" height="0.1"/></g><g class="acel-logo-96"><rect class="acel-logo-79" x="1.74" y="11.7" width="14" height="0.1"/></g><g class="acel-logo-96"><rect class="acel-logo-80" x="1.74" y="11.6" width="14" height="0.1"/></g><g class="acel-logo-96"><rect class="acel-logo-81" x="1.74" y="11.5" width="14" height="0.1"/></g><g class="acel-logo-96"><rect class="acel-logo-81" x="1.74" y="11.4" width="14" height="0.1"/></g><g class="acel-logo-96"><rect class="acel-logo-82" x="1.74" y="11.2" width="14" height="0.1"/></g><g class="acel-logo-96"><rect class="acel-logo-82" x="1.74" y="11.1" width="14" height="0.1"/></g><g class="acel-logo-96"><rect class="acel-logo-83" x="1.74" y="11" width="14" height="0.1"/></g><g class="acel-logo-96"><rect class="acel-logo-83" x="1.74" y="10.9" width="14" height="0.1"/></g><g class="acel-logo-96"><rect class="acel-logo-84" x="1.74" y="10.8" width="14" height="0.1"/></g><g class="acel-logo-96"><rect class="acel-logo-84" x="1.74" y="10.7" width="14" height="0.1"/></g><g class="acel-logo-96"><rect class="acel-logo-85" x="1.74" y="10.6" width="14" height="0.1"/></g><g class="acel-logo-96"><rect class="acel-logo-85" x="1.74" y="10.5" width="14" height="0.1"/></g><g class="acel-logo-96"><rect class="acel-logo-85" x="1.74" y="10.4" width="14" height="0.1"/></g><g class="acel-logo-96"><rect class="acel-logo-86" x="1.74" y="10.3" width="14" height="0.1"/></g><g class="acel-logo-96"><rect class="acel-logo-86" x="1.74" y="10.2" width="14" height="0.1"/></g><g class="acel-logo-96"><rect class="acel-logo-87" x="1.74" y="10.1" width="14" height="0.1"/></g><g class="acel-logo-96"><rect class="acel-logo-87" x="1.74" y="10" width="14" height="0.1"/></g><g class="acel-logo-96"><rect class="acel-logo-87" x="1.74" y="9.8" width="14" height="0.1"/></g><g class="acel-logo-96"><rect class="acel-logo-88" x="1.74" y="9.7" width="14" height="0.1"/></g><g class="acel-logo-96"><rect class="acel-logo-88" x="1.74" y="9.6" width="14" height="0.1"/></g><g class="acel-logo-96"><rect class="acel-logo-88" x="1.74" y="9.5" width="14" height="0.1"/></g><g class="acel-logo-96"><rect class="acel-logo-89" x="1.74" y="9.4" width="14" height="0.1"/></g><g class="acel-logo-96"><rect class="acel-logo-89" x="1.74" y="9.3" width="14" height="0.1"/></g><g class="acel-logo-96"><rect class="acel-logo-89" x="1.74" y="9.2" width="14" height="0.1"/></g><g class="acel-logo-96"><rect class="acel-logo-90" x="1.74" y="9.1" width="14" height="0.1"/></g><g class="acel-logo-96"><rect class="acel-logo-91" x="1.74" y="9" width="14" height="0.1"/></g><g class="acel-logo-96"><rect class="acel-logo-91" x="1.74" y="8.9" width="14" height="0.1"/></g><g class="acel-logo-96"><rect class="acel-logo-91" x="1.74" y="8.8" width="14" height="0.1"/></g><g class="acel-logo-96"><rect class="acel-logo-92" x="1.74" y="8.7" width="14" height="0.1"/></g><g class="acel-logo-96"><rect class="acel-logo-92" x="1.74" y="8.5" width="14" height="0.1"/></g><g class="acel-logo-96"><rect class="acel-logo-92" x="1.74" y="8.4" width="14" height="0.1"/></g><g class="acel-logo-96"><rect class="acel-logo-92" x="1.74" y="8.3" width="14" height="0.1"/></g><g class="acel-logo-96"><rect class="acel-logo-92" x="1.74" y="8.2" width="14" height="0.1"/></g><g class="acel-logo-96"><rect class="acel-logo-93" x="1.74" y="8.1" width="14" height="0.1"/></g><g class="acel-logo-96"><rect class="acel-logo-93" x="1.74" y="8" width="14" height="0.1"/></g><g class="acel-logo-96"><rect class="acel-logo-93" x="1.74" y="7.9" width="14" height="0.1"/></g><g class="acel-logo-96"><rect class="acel-logo-93" x="1.74" y="7.8" width="14" height="0.1"/></g><g class="acel-logo-96"><rect class="acel-logo-93" x="1.74" y="7.7" width="14" height="0.1"/></g><g class="acel-logo-96"><rect class="acel-logo-94" x="1.74" y="7.6" width="14" height="0.1"/></g><g class="acel-logo-96"><rect class="acel-logo-94" x="1.74" y="7.5" width="14" height="0.1"/></g><g class="acel-logo-96"><rect class="acel-logo-94" x="1.74" y="7.4" width="14" height="0.1"/></g><g class="acel-logo-96"><rect class="acel-logo-94" x="1.74" y="7.3" width="14" height="0.1"/></g><g class="acel-logo-96"><rect class="acel-logo-94" x="1.74" y="7.1" width="14" height="0.1"/></g><g class="acel-logo-96"><rect class="acel-logo-94" x="1.74" y="7" width="14" height="0.1"/></g><g class="acel-logo-96"><rect class="acel-logo-94" x="1.74" y="6.9" width="14" height="0.1"/></g><g class="acel-logo-96"><rect class="acel-logo-94" x="1.74" y="6.8" width="14" height="0.1"/></g><g class="acel-logo-96"><rect class="acel-logo-95" x="1.74" y="6.7" width="14" height="0.1"/></g><g class="acel-logo-96"><rect class="acel-logo-95" x="1.74" y="6.6" width="14" height="0.1"/></g><g class="acel-logo-96"><rect class="acel-logo-95" x="1.74" y="6.5" width="14" height="0.1"/></g><g class="acel-logo-96"><rect class="acel-logo-95" x="1.74" y="6.4" width="14" height="0.1"/></g><g class="acel-logo-96"><rect class="acel-logo-95" x="1.74" y="6.3" width="14" height="0.1"/></g><g class="acel-logo-96"><rect class="acel-logo-95" x="1.74" y="6.2" width="14" height="0.1"/></g><g class="acel-logo-96"><rect class="acel-logo-95" x="1.74" y="6.1" width="14" height="0.1"/></g><g class="acel-logo-96"><rect class="acel-logo-95" x="1.74" y="6" width="14" height="0.1"/></g><g class="acel-logo-96"><rect class="acel-logo-95" x="1.74" y="5.8" width="14" height="0.1"/></g><g class="acel-logo-96"><rect class="acel-logo-95" x="1.74" y="5.7" width="14" height="0.1"/></g><g class="acel-logo-96"><rect class="acel-logo-95" x="1.74" y="5.6" width="14" height="0.1"/></g><g class="acel-logo-96"><rect class="acel-logo-95" x="1.74" y="5.5" width="14" height="0.1"/></g><g class="acel-logo-96"><rect class="acel-logo-95" x="1.74" y="5.4" width="14" height="0.1"/></g><g class="acel-logo-96"><rect class="acel-logo-95" x="1.74" y="5.3" width="14" height="0.1"/></g><g class="acel-logo-96"><rect class="acel-logo-95" x="1.74" y="5.2" width="14" height="0.1"/></g><g class="acel-logo-96"><rect class="acel-logo-95" x="1.74" y="5.1" width="14" height="0.1"/></g><g class="acel-logo-96"><rect class="acel-logo-95" x="1.74" y="5" width="14" height="0.1"/></g><g class="acel-logo-96"><rect class="acel-logo-95" x="1.74" y="4.9" width="14" height="0.1"/></g><g class="acel-logo-96"><rect class="acel-logo-95" x="1.74" y="4.8" width="14" height="0.1"/></g><g class="acel-logo-96"><rect class="acel-logo-95" x="1.74" y="4.7" width="14" height="0.1"/></g><g class="acel-logo-96"><rect class="acel-logo-95" x="1.74" y="4.6" width="14" height="0.1"/></g><g class="acel-logo-96"><rect class="acel-logo-95" x="1.74" y="4.4" width="14" height="0.1"/></g><g class="acel-logo-96"><rect class="acel-logo-95" x="1.74" y="4.3" width="14" height="0.1"/></g><g class="acel-logo-96"><rect class="acel-logo-95" x="1.74" y="4.2" width="14" height="0.1"/></g><g class="acel-logo-96"><rect class="acel-logo-95" x="1.74" y="4.1" width="14" height="0.1"/></g><g class="acel-logo-96"><rect class="acel-logo-95" x="1.74" y="4" width="14" height="0.1"/></g><g class="acel-logo-96"><rect class="acel-logo-95" x="1.74" y="3.9" width="14" height="0.1"/></g><g class="acel-logo-96"><rect class="acel-logo-95" x="1.74" y="3.8" width="14" height="0.1"/></g><g class="acel-logo-96"><rect class="acel-logo-95" x="1.74" y="3.7" width="14" height="0.1"/></g><g class="acel-logo-96"><rect class="acel-logo-95" x="1.74" y="3.6" width="14" height="0.1"/></g><g class="acel-logo-96"><rect class="acel-logo-95" x="1.74" y="3.5" width="14" height="0.1"/></g><g class="acel-logo-96"><rect class="acel-logo-95" x="1.74" y="3.4" width="14" height="0.1"/></g><g class="acel-logo-96"><rect class="acel-logo-95" x="1.74" y="3.3" width="14" height="0.1"/></g><g class="acel-logo-96"><rect class="acel-logo-95" x="1.74" y="3.1" width="14" height="0.1"/></g><g class="acel-logo-96"><rect class="acel-logo-95" x="1.74" y="3" width="14" height="0.1"/></g><g class="acel-logo-96"><rect class="acel-logo-95" x="1.74" y="2.9" width="14" height="0.1"/></g><g class="acel-logo-96"><rect class="acel-logo-95" x="1.74" y="2.8" width="14" height="0.1"/></g><g class="acel-logo-96"><rect class="acel-logo-95" x="1.74" y="2.7" width="14" height="0.1"/></g><g class="acel-logo-96"><rect class="acel-logo-95" x="1.74" y="2.6" width="14" height="0.1"/></g><g class="acel-logo-96"><rect class="acel-logo-95" x="1.74" y="2.5" width="14" height="0.1"/></g><g class="acel-logo-96"><rect class="acel-logo-95" x="1.74" y="2.4" width="14" height="0.1"/></g><g class="acel-logo-96"><rect class="acel-logo-95" x="1.74" y="2.3" width="14" height="0.1"/></g><g class="acel-logo-96"><rect class="acel-logo-95" x="1.74" y="2.2" width="14" height="0.1"/></g><g class="acel-logo-96"><rect class="acel-logo-95" x="1.74" y="2.1" width="14" height="0.1"/></g><g class="acel-logo-96"><rect class="acel-logo-95" x="1.74" y="2" width="14" height="0.1"/></g><g class="acel-logo-96"><rect class="acel-logo-95" x="1.74" y="1.9" width="14" height="0.1"/></g><g class="acel-logo-96"><rect class="acel-logo-95" x="1.74" y="1.7" width="14" height="0.1"/></g><g class="acel-logo-96"><rect class="acel-logo-95" x="1.74" y="1.6" width="14" height="0.1"/></g><g class="acel-logo-96"><rect class="acel-logo-95" x="1.74" y="1.5" width="14" height="0.1"/></g><path class="acel-logo-97" d="M26.24,3.3a7,7,0,0,0-4.7-1.8H8.74v7h12.8s7,7.6,7,11.5V8.5A7.19,7.19,0,0,0,26.24,3.3Z"/><path class="acel-logo-98" d="M8.74,20.2V8.5l7.5-7H8.74A7.23,7.23,0,0,0,4,3.3a7,7,0,0,0-2.3,5.2v4.6C1.74,17.1,3.24,20.2,8.74,20.2Z"/><path class="acel-logo-99" d="M45.34,1.4l11.9,25.8h0a12.4,12.4,0,0,1-10.5-6.8L41,8.1a4.71,4.71,0,0,1,4.3-6.7Z"/><path class="acel-logo-100" d="M21.54,8.5V20.1c0,4.5-6.8,7-10.7,7h10.7a7.23,7.23,0,0,0,4.7-1.8,7,7,0,0,0,2.3-5.2V15.5Z"/><path class="acel-logo-101" d="M45.34,1.4S36.74.8,32.94,10c-4.8,11.7-7.9,17.2-19.7,17.2h11.1c6,0,9.6-2.2,13-8.9C40.54,12.1,40.84,5.3,45.34,1.4Z"/><path class="acel-logo-102" d="M1.74,18.8a8,8,0,0,0,7,8.4h5.4c3.9,0,7.4-4,7.4-7H8.74l-7-8.1"/><path class="acel-logo-103" d="M207.14,8.5h5.6l4.2,12.4,4.2-12.4h5.5l-7.4,18.6h-4.8Z"/><path class="acel-logo-103" d="M201.24,8.5h5.3V27.1h-5.3Z"/><path class="acel-logo-103" d="M60.94,15h0A12.5,12.5,0,0,1,73.84,2.4a12.39,12.39,0,0,1,12.8,12.5V15c0,6.9-5.4,12.5-12.9,12.5S60.94,21.9,60.94,15Zm20.2,0h0c0-4.2-3-7.7-7.3-7.7a7.26,7.26,0,0,0-7.3,7.5v.1a7.3,7.3,0,1,0,14.6.1Z"/><path class="acel-logo-103" d="M88.24,8.5h5.3v2.7a6.85,6.85,0,0,1,5.8-3c4.3,0,8.4,3.4,8.4,9.6v.1c0,6.2-4,9.6-8.4,9.6a7.24,7.24,0,0,1-5.8-2.8v8h-5.3Zm14.2,9.3h0c0-3.2-2.1-5.2-4.5-5.2s-4.5,2-4.5,5.1v.1c0,3.1,2,5.1,4.5,5.1S102.44,20.9,102.44,17.8Z"/><path class="acel-logo-103" d="M108.74,17.8h0c0-5.4,3.8-9.7,9.2-9.7,6.2,0,9,4.8,9,10.1a7.08,7.08,0,0,1-.1,1.4h-12.9a4.25,4.25,0,0,0,4.5,3.6,6.29,6.29,0,0,0,4.5-1.9l3,2.7a9.73,9.73,0,0,1-17.2-6.2Zm13.1-1.5c-.3-2.4-1.7-3.9-3.9-3.9s-3.6,1.6-4,3.9Z"/><path class="acel-logo-103" d="M128.54,8.5h5.3v2.6a6.49,6.49,0,0,1,5.4-3c4,0,6.3,2.6,6.3,6.9V27h-5.3V16.7c0-2.5-1.2-3.8-3.2-3.8s-3.3,1.3-3.3,3.8V27h-5.3V8.5Z"/><path class="acel-logo-103" d="M156.84,2.6h4.9L172.14,27h-5.6l-2.2-5.4h-10.2l-2.2,5.4h-5.4Zm5.6,14.3L159.24,9,156,16.9Z"/><path class="acel-logo-103" d="M225.24,17.8h0c0-5.4,3.8-9.7,9.2-9.7,6.2,0,9,4.8,9,10.1a7.08,7.08,0,0,1-.1,1.4h-12.9a4.25,4.25,0,0,0,4.5,3.6,6.29,6.29,0,0,0,4.5-1.9l3,2.7a9.73,9.73,0,0,1-17.2-6.2Zm13-1.5c-.3-2.4-1.7-3.9-3.9-3.9s-3.6,1.6-4,3.9Z"/><path class="acel-logo-103" d="M198.84,13V8.5h-4.4V3.7h-5.2v5l2.2,2.2-2.2,2.2v8.6c0,4.3,2.2,5.6,5.4,5.6a7.7,7.7,0,0,0,4.2-1.1V22a5.59,5.59,0,0,1-2.6.7c-1.2,0-1.7-.6-1.7-1.8V13Z"/><path class="acel-logo-103" d="M170.64,17.8h0a9.46,9.46,0,0,1,9.7-9.7,9.17,9.17,0,0,1,7.4,3.1l-3.2,3.5a5.63,5.63,0,0,0-4.2-2c-2.6,0-4.5,2.3-4.5,5.1v.1c0,2.8,1.8,5.1,4.7,5.1a6,6,0,0,0,4.3-2l3.1,3.1a9.32,9.32,0,0,1-7.6,3.4A9.64,9.64,0,0,1,170.64,17.8Z"/><path class="acel-logo-103" d="M117.84,37.5h1.4l3.3,9.8h-1.3l-1.7-5.5c-.4-1.1-.7-2.2-1-3.3h-.1c-.3,1.1-.6,2.2-1,3.3l-1.7,5.5h-1.3Zm-1.6,5.8h4.5v1h-4.5Z"/><path class="acel-logo-103" d="M127.24,42.4c0-3.2,1.9-5.1,4.4-5.1a3.8,3.8,0,0,1,2.7,1.2l-.7.8a2.52,2.52,0,0,0-2-.9c-1.9,0-3.1,1.5-3.1,4s1.2,4,3,4a3,3,0,0,0,2.3-1.1l.7.8a3.75,3.75,0,0,1-3,1.4C129,47.5,127.24,45.6,127.24,42.4Z"/><path class="acel-logo-103" d="M139.34,42.4c0-3.2,1.9-5.1,4.4-5.1a3.8,3.8,0,0,1,2.7,1.2l-.7.8a2.52,2.52,0,0,0-2-.9c-1.9,0-3.1,1.5-3.1,4s1.2,4,3,4a3,3,0,0,0,2.3-1.1l.7.8a3.75,3.75,0,0,1-3,1.4C141.14,47.5,139.34,45.6,139.34,42.4Z"/><path class="acel-logo-103" d="M152.44,37.5h5.7v1.1h-4.4v3.1h3.7v1.1h-3.7v3.6h4.6v1.1h-5.8v-10Z"/><path class="acel-logo-103" d="M164.34,37.5h1.3v8.8h4.3v1.1h-5.5V37.5Z"/><path class="acel-logo-103" d="M175.54,37.5h5.7v1.1h-4.4v3.1h3.7v1.1h-3.7v3.6h4.6v1.1h-5.8v-10Z"/><path class="acel-logo-103" d="M187.44,37.5h3.1c2,0,3.4.7,3.4,2.8s-1.4,2.9-3.4,2.9h-1.8v4.2h-1.3Zm2.9,4.7c1.5,0,2.4-.6,2.4-1.9s-.8-1.8-2.4-1.8h-1.7v3.7Zm0,.6,1-.6,3,5.2h-1.4Z"/><path class="acel-logo-103" d="M201.94,37.5h1.4l3.3,9.8h-1.3l-1.7-5.5c-.4-1.1-.7-2.2-1-3.3h-.1c-.3,1.1-.6,2.2-1,3.3l-1.7,5.5h-1.3Zm-1.6,5.8h4.5v1h-4.5Z"/><path class="acel-logo-103" d="M213.24,38.6h-3V37.5h7.2v1.1h-3v8.8h-1.2Z"/><path class="acel-logo-103" d="M222.34,42.4c0-3.2,1.7-5.1,4.2-5.1s4.2,1.9,4.2,5.1-1.7,5.1-4.2,5.1S222.34,45.5,222.34,42.4Zm7.1,0c0-2.5-1.2-4-2.9-4s-2.9,1.5-2.9,4,1.2,4,2.9,4S229.44,44.8,229.44,42.4Z"/><path class="acel-logo-103" d="M236.84,37.5h3.1c2,0,3.4.7,3.4,2.8s-1.4,2.9-3.4,2.9h-1.8v4.2h-1.3Zm2.9,4.7c1.5,0,2.4-.6,2.4-1.9s-.8-1.8-2.4-1.8H238v3.7Zm-.1.6,1-.6,3,5.2h-1.4Z"/></g></g></svg>