<svg id="Layer_1" data-name="Layer 1" xmlns="http://www.w3.org/2000/svg" xmlns:xlink="http://www.w3.org/1999/xlink" viewBox="0 0 113.39 113.39"><defs><style>.cls-1,.cls-2{fill:none;stroke-linecap:round;stroke-miterlimit:10;stroke-width:4.48px;}.cls-1{stroke:url(#New_Gradient_Swatch);}.cls-2{stroke:url(#New_Gradient_Swatch-2);}.cls-3{fill:url(#New_Gradient_Swatch_copy);}</style><linearGradient id="New_Gradient_Swatch" x1="11.69" y1="56.69" x2="101.69" y2="56.69" gradientUnits="userSpaceOnUse"><stop offset="0" stop-color="#1d9ad7"/><stop offset="0.03" stop-color="#1b92d1"/><stop offset="0.14" stop-color="#1572b8"/><stop offset="0.2" stop-color="#1366af"/><stop offset="0.49" stop-color="#423f92"/><stop offset="0.74" stop-color="#404294"/><stop offset="1" stop-color="#0d69b1"/></linearGradient><linearGradient id="New_Gradient_Swatch-2" x1="13.26" y1="33.48" x2="100.95" y2="33.48" xlink:href="#New_Gradient_Swatch"/><linearGradient id="New_Gradient_Swatch_copy" x1="64.26" y1="66.48" x2="87.88" y2="66.48" gradientUnits="userSpaceOnUse"><stop offset="0" stop-color="#f7a834"/><stop offset="1" stop-color="#e73a30"/></linearGradient></defs><title>activity-1</title><rect class="cls-1" x="13.93" y="22.1" width="85.53" height="69.19" rx="2.72" ry="2.72"/><line class="cls-2" x1="15.5" y1="33.48" x2="98.71" y2="33.48"/><path class="cls-3" d="M87.35,63.11,65.29,54.73a.76.76,0,0,0-1,1l8.43,22a.78.78,0,0,0,1.48,0l2-7.55,5.66,5.66a2.5,2.5,0,0,0,3.54-3.54l-5.69-5.69,7.55-2A.78.78,0,0,0,87.35,63.11Z"/></svg>