<svg xmlns="http://www.w3.org/2000/svg" xmlns:xlink="http://www.w3.org/1999/xlink" viewBox="0 0 310.09 97.3"><defs><style>.cls-1{fill:#f7a836;}.cls-2{fill:#e73c2e;}.cls-3{fill:url(#linear-gradient);}.cls-4{fill:url(#linear-gradient-2);}.cls-5{fill:#009fe4;}.cls-6{fill:#0067b2;}.cls-7{fill:#e21783;}.cls-8{fill:#75ccf4;}.cls-9{fill:#941f81;}.cls-10{fill:#3b3089;}.cls-11,.cls-12{fill:#243883;}.cls-12{font-size:15px;font-family:SourceSansRoman-Regular, SourceSansRoman Regular;letter-spacing:0.25em;}.cls-13{letter-spacing:0.24em;}.cls-14{letter-spacing:0.26em;}.cls-15{letter-spacing:0.27em;}.cls-16{letter-spacing:0.19em;}.cls-17{letter-spacing:0.24em;}.cls-18{letter-spacing:0.27em;}</style><linearGradient id="linear-gradient" x1="37.36" y1="33.69" x2="57.21" y2="33.69" gradientUnits="userSpaceOnUse"><stop offset="0" stop-color="#525252"/><stop offset="0.07" stop-color="#787878"/><stop offset="0.15" stop-color="#9c9c9c"/><stop offset="0.24" stop-color="#bbb"/><stop offset="0.33" stop-color="#d4d4d4"/><stop offset="0.44" stop-color="#e7e7e7"/><stop offset="0.56" stop-color="#f5f5f5"/><stop offset="0.71" stop-color="#fdfdfd"/><stop offset="1" stop-color="#fff"/></linearGradient><linearGradient id="linear-gradient-2" x1="37.36" y1="45.37" x2="37.36" y2="26.68" xlink:href="#linear-gradient"/></defs><title>Artboard 3</title><g id="Isolation_Mode" data-name="Isolation Mode"><path class="cls-1" d="M65.58,45.57H80.26c4.16,0-.8,2.22-.8-1.53v1.13l1.7,1.66,1.21.64c.89-.18-.2,1.35.61,2.39.51.66,2.45,2.34,2.55,2.51H75.2C71,52.37,65.58,49.32,65.58,45.57Z"/><path class="cls-2" d="M82.6,46.83l.46.77c.89-.18.55,1.23,1.35,2.27a26.81,26.81,0,0,1,1.47,2.49l-.2,0c-1.44-.08-13.25.42-15.75-6.81H81.71"/><path class="cls-3" d="M54.87,28.47a7,7,0,0,0-4.67-1.79H37.36v7H50.2a7,7,0,0,1,7,7v-7A7,7,0,0,0,54.87,28.47Z"/><path class="cls-4" d="M37.36,45.37V33.69a7,7,0,0,1,7-7h-7a7,7,0,0,0-7,7v4.67A7,7,0,0,0,37.36,45.37Z"/><path class="cls-5" d="M54.87,28.47a7,7,0,0,0-4.67-1.79H37.36v7H50.2s7,7.6,7,11.47V33.69A7,7,0,0,0,54.87,28.47Z"/><path class="cls-6" d="M37.36,45.37V33.66l7.5-7s0,0,0,0h-7.5a7,7,0,0,0-7,7v4.67C30.35,42.23,31.91,45.37,37.36,45.37Z"/><path class="cls-7" d="M74,26.53,85.89,52.36h0a12.33,12.33,0,0,1-10.48-6.84l-5.7-12.3A4.71,4.71,0,0,1,74,26.53Z"/><path class="cls-8" d="M50.2,33.69V45.34c0,4.54-6.78,7-10.65,7H50.2a7,7,0,0,0,7-7V40.7Z"/><path class="cls-9" d="M74,26.53s-8.62-.61-12.37,8.57c-4.81,11.78-8,17.27-19.8,17.27H53c6,0,9.62-2.21,13-8.86C69.16,37.26,69.54,30.47,74,26.53Z"/><path class="cls-10" d="M30.35,44a8,8,0,0,0,7,8.39h5.44c3.93,0,7.37-4,7.37-7H37.36l-7-8.09"/><path class="cls-11" d="M235.8,33.61h5.57L245.53,46l4.19-12.43h5.47l-7.3,18.69H243.1Z"/><path class="cls-11" d="M229.93,33.61h5.26V52.16h-5.26Z"/><path class="cls-11" d="M89.57,40.12V40a12.53,12.53,0,0,1,12.91-12.53c7.48,0,12.84,5.57,12.84,12.46V40a12.53,12.53,0,0,1-12.91,12.53C94.94,52.58,89.57,47,89.57,40.12Zm20.18,0V40a7.36,7.36,0,0,0-7.34-7.61A7.25,7.25,0,0,0,95.14,40V40a7.36,7.36,0,0,0,7.34,7.62A7.25,7.25,0,0,0,109.75,40.12Z"/><path class="cls-11" d="M116.88,33.61h5.26v2.67a6.81,6.81,0,0,1,5.78-3c4.33,0,8.45,3.39,8.45,9.59v.07c0,6.2-4,9.59-8.45,9.59a7.12,7.12,0,0,1-5.78-2.77v8h-5.26Zm14.23,9.31v-.07c0-3.08-2.08-5.12-4.53-5.12s-4.5,2-4.5,5.12v.07c0,3.08,2,5.12,4.5,5.12S131.11,46,131.11,42.92Z"/><path class="cls-11" d="M137.44,43v-.07c0-5.3,3.77-9.66,9.17-9.66,6.2,0,9,4.81,9,10.07,0,.42,0,.9-.07,1.38H142.67a4.3,4.3,0,0,0,4.53,3.63,6.08,6.08,0,0,0,4.5-1.9l3,2.67A9.8,9.8,0,0,1,137.44,43Zm13.08-1.56c-.31-2.35-1.7-3.95-3.91-3.95s-3.6,1.56-4,3.95Z"/><path class="cls-11" d="M157.17,33.61h5.26v2.63a6.56,6.56,0,0,1,5.43-3c4,0,6.3,2.63,6.3,6.89v12H168.9V41.81c0-2.49-1.18-3.77-3.18-3.77s-3.29,1.28-3.29,3.77V52.16h-5.26Z"/><path class="cls-11" d="M185.45,27.76h4.92l10.38,24.4h-5.57L193,46.73H182.71l-2.22,5.43h-5.43ZM191.05,42l-3.22-7.86L184.62,42Z"/><path class="cls-11" d="M253.86,43v-.07c0-5.3,3.77-9.66,9.17-9.66,6.2,0,9,4.81,9,10.07,0,.42,0,.9-.07,1.38H259.08a4.3,4.3,0,0,0,4.53,3.63,6.08,6.08,0,0,0,4.5-1.9l3,2.67A9.8,9.8,0,0,1,253.86,43Zm13.08-1.56c-.31-2.35-1.7-3.95-3.91-3.95s-3.6,1.56-4,3.95Z"/><path class="cls-11" d="M227.47,38.11v-4.5h-4.36V28.87h-5.26v5.06l2.2,2.2-2.2,2.2V46.9c0,4.29,2.18,5.57,5.4,5.57a7.76,7.76,0,0,0,4.15-1.07V47.18a5.35,5.35,0,0,1-2.6.66c-1.18,0-1.7-.59-1.7-1.8V38.11Z"/><path class="cls-11" d="M199.29,43v-.07A9.53,9.53,0,0,1,209,33.26a9.12,9.12,0,0,1,7.41,3.12l-3.22,3.46a5.42,5.42,0,0,0-4.22-2c-2.63,0-4.5,2.32-4.5,5.05v.07c0,2.84,1.83,5.12,4.71,5.12a5.88,5.88,0,0,0,4.26-2l3.08,3.12a9.34,9.34,0,0,1-7.58,3.39A9.47,9.47,0,0,1,199.29,43Z"/><text class="cls-12" transform="translate(143.27 72.46)">A<tspan class="cls-13" x="12.93" y="0">C</tspan><tspan class="cls-14" x="25.29" y="0">CELE</tspan><tspan class="cls-15" x="71.73" y="0">R</tspan><tspan class="cls-16" x="83.85" y="0">A</tspan><tspan class="cls-17" x="95.85" y="0">T</tspan><tspan class="cls-18" x="106.87" y="0">OR</tspan></text></g></svg>