<?xml version="1.0" encoding="utf-8"?>
<!-- Generator: Adobe Illustrator 21.1.0, SVG Export Plug-In . SVG Version: 6.00 Build 0)  -->
<svg version="1.1" id="Layer_1" xmlns="http://www.w3.org/2000/svg" xmlns:xlink="http://www.w3.org/1999/xlink" x="0px" y="0px"
	 viewBox="0 0 350.9 344" style="enable-background:new 0 0 350.9 344;" xml:space="preserve">
<style type="text/css">
	.cohorts-0{fill:#084473;}
	.cohorts-1{fill:#75CAF3;}
	.cohorts-2{fill:#1C9BD8;}
	.cohorts-3{fill:#0768B1;}
	.cohorts-4{fill:#931F7F;}
	.cohorts-5{fill:#984DA7;}
</style>
<title>stats</title>
<circle class="cohorts-0" cx="175.9" cy="171.8" r="164.9"/>
<path class="cohorts-1" d="M206.6,65.9c-8.2-4.4-17.2-7-26.5-7.5c-36.3-2.1-66.6,26-66.7,60.9c0,17.2,7.3,33.5,20.1,45
	c11.6,10.5,26.8,16.3,42.4,16.4h0.6c2.8,0,13.8-0.3,23.3-5.6c0.4-0.3,0.9-0.5,1.4-0.7c-4.3-5.6-9.7-9.5-16.8-8.1
	c-2.7,0.5-5.5,0.8-8.3,0.8c-12.3,0-24.1-4.5-33.2-12.7c-9.9-8.9-15.6-21.6-15.6-35c0.1-19.5,12.2-36.2,29.5-43.6
	C170.6,69.8,187,66.4,206.6,65.9z"/>
<path class="cohorts-2" d="M206.6,65.9c17.9,9.6,30.5,27.5,32.3,48.2c1.5,16.8-4.2,33.5-15.6,45.9c-0.3,0.3-0.4,0.6-0.4,1l-14.4,15.2
	l0.6-20.8c0-0.4,0.2-0.8,0.5-1.1l1.4-1.4c9.3-9.1,14.5-21.7,14.1-34.7C224.5,93.5,204,73,178.7,71.8c-7.5-0.4-15,0.9-21.9,3.9
	C169.9,70.3,185.5,66.4,206.6,65.9z"/>
<path class="cohorts-3" d="M208.5,176.2l-0.5,18.2c0,0.8,0.6,1.6,1.4,1.7l33.3,10.5c15.9,4.9,19.2,15.3,19.2,21.5l1.9,34.9l10.8,11.6
	c2.1-0.4,3.5-2.3,3.5-4.4l-2.3-42.2c0-20.4-21.4-32-29.4-34.5l-22.7-8.9c-0.8-0.1-1.4-0.8-1.4-1.7l0.6-21.9L208.5,176.2z"/>
<path class="cohorts-4" d="M263.8,263c-58.6,11.9-119.1,11.7-177.7-0.5l-13.5-12.3l-0.8,19.4c-0.1,2.1,1.4,4,3.4,4.4l2.1,0.5
	c32,7.1,64.7,10.7,97.6,10.8c32.8,0.1,65.5-3.4,97.6-10.3l2.1-0.5"/>
<path class="cohorts-5" d="M197.6,196.3c-6.9,2.7-14.2,4-21.6,3.9l0,0c-20.7-0.1-33.5-9.3-36.5-13.8l-2.5-3.9L104.8,193l-0.7,0.1
	c-19.1,5-29.7,20.5-29.8,34.4l-1.7,22.8l13.5,12.3l2.2-34.6v-0.3c0-9.1,10.3-19.1,19.1-21.4l23.4-9c8,8.4,24.2,16.3,45.2,16.4h0
	c4.1,0,8.1-0.3,12.1-0.9c6.6-0.9,11.2-7,10.3-13.6C198.3,198.2,198,197.2,197.6,196.3z"/>
</svg>
