<svg xmlns="http://www.w3.org/2000/svg" viewBox="0 0 131.92 131.92"><defs><style>.cost-1{fill:#009ee3;}</style></defs><title>cost</title><g id="Layer_2" data-name="Layer 2"><g id="Layer_1-2" data-name="Layer 1"><path class="cost-1" d="M66,0a66,66,0,1,0,66,66A66,66,0,0,0,66,0ZM108.2,86.94a3.31,3.31,0,0,1-3.31,3.31H27.06a3.35,3.35,0,0,1-3.35-3.35V45.08A3.31,3.31,0,0,1,27,41.77H104.9a3.31,3.31,0,0,1,3.31,3.31Z"/><path class="cost-1" d="M27.61,86.35h76.69V45.67H27.61ZM85,49.66a1.08,1.08,0,0,1,1.08-1.08H97.18A2.78,2.78,0,0,1,100,51.36v5a1.08,1.08,0,0,1-1.08,1.08h-.79A1.08,1.08,0,0,1,97,56.35V51.52H86.07A1.08,1.08,0,0,1,85,50.44Zm0,32.22a1.08,1.08,0,0,1,1.08-1.08H97V76a1.08,1.08,0,0,1,1.08-1.08h.79A1.08,1.08,0,0,1,100,76v5a2.78,2.78,0,0,1-2.78,2.78H86.07A1.08,1.08,0,0,1,85,82.66Zm-26.36-6a1.17,1.17,0,0,1,.58-1,7.1,7.1,0,0,0,3.52-6c0-.52,0-1-.06-1.48a1.14,1.14,0,0,0-1.13-1H60a1.13,1.13,0,0,1,0-2.27h.89A1.13,1.13,0,0,0,62,62.88a19.49,19.49,0,0,1-.2-2.59,6.64,6.64,0,0,1,6.91-7,9,9,0,0,1,2.93.44,1.13,1.13,0,0,1,.71,1.4l-.08.27a1.12,1.12,0,0,1-1.41.73,7.58,7.58,0,0,0-2.15-.29c-2.81,0-4,1.94-4,4.5A16.74,16.74,0,0,0,65,63.23a1.13,1.13,0,0,0,1.12.94h3.1a1.13,1.13,0,0,1,0,2.27H66.66a1.13,1.13,0,0,0-1.13,1.19,10,10,0,0,1-.22,2.84,7.49,7.49,0,0,1-2.48,3.88v.07h9.59a1.13,1.13,0,0,1,1.13,1.13v.36A1.13,1.13,0,0,1,72.42,77H59.76a1.13,1.13,0,0,1-1.13-1.13ZM32.21,51.36A2.78,2.78,0,0,1,35,48.58H46.11a1.08,1.08,0,0,1,1.08,1.08v.79a1.08,1.08,0,0,1-1.08,1.08H35.16v4.83a1.08,1.08,0,0,1-1.08,1.08h-.79a1.08,1.08,0,0,1-1.08-1.08Zm0,24.61a1.08,1.08,0,0,1,1.08-1.08h.79A1.08,1.08,0,0,1,35.16,76V80.8H46.11a1.08,1.08,0,0,1,1.08,1.08v.79a1.08,1.08,0,0,1-1.08,1.08H35A2.78,2.78,0,0,1,32.21,81Z"/></g></g></svg>