<svg xmlns="http://www.w3.org/2000/svg" viewBox="0 0 109.2 101.64"><defs><style>.cls-1{fill:#423d91;}.cls-2{fill:#75caf3;}.cls-3{fill:#931f7f;}.cls-4{fill:#1c9bd8;}.cls-5{fill:#0768b1;}</style></defs><title>cost</title><g id="Layer_2" data-name="Layer 2"><g id="Layer_5" data-name="Layer 5"><path class="cls-1" d="M39.63,62.53l.25,16.14a.45.45,0,0,1-.44.46l-2.34.05s-2.52.06-3.81.06c-2.47,0-18.83-.15-27.66-4v5C7,82,17.13,85.12,33.28,85.12c1.92,0,7.81-.1,10.29-.29C44,86.65,49,98.43,49,98.43c-3.38-1.08-6.11-2.52-7.43-4.44-.55-.8-1-3.78-1-3.75a62.22,62.22,0,0,1-7.29.5C29.88,90.74,0,90.46,0,80.44V69.71a.78.78,0,0,1,.78-.78H5.62c0-.18,0,0,0,0,1.07,1.8,11.19,4.69,27.66,4.69h.89"/><path class="cls-2" d="M66,10.31h-5c0-.18-8.46,5.12-27.66,4.69-15.47-.35-25.4-2.85-27.44-4.69,2-1.84,12-4.69,27.44-4.69A103.68,103.68,0,0,1,50,6.89a6,6,0,0,0,6.72-4.29C50.71.95,42.17,0,33.28,0,29.88,0,0,.29,0,10.31S29.88,20.62,33.28,20.62c2.47,0,18.83-.15,27.66-4v6.08a42.18,42.18,0,0,1-11.7,9.45c8.57-1.22,17.32-3.79,17.32-9.21v-12A.61.61,0,0,0,66,10.31Z"/><path class="cls-1" d="M45.92,91.1c1.4,1.82,13.85,4.92,30,4.92s26.26-3.1,27.66-4.92V85.37c-8.83,3.89-25.19,4-27.66,4-2.12,0-14.54-.11-23.59-2.63-1.57-.44-6-2-7.46-3.4s-2.24-2.59-2.24-4.28V74.48c2.78,2.34,4.72,5.08,10.46,6.67,1.16.32,3.15.83,4.54,1.08A99.33,99.33,0,0,0,75.92,83.8c18.73,0,27.66-4.87,27.66-4.69h4.84a.78.78,0,0,1,.78.78V91.33c0,10-29.88,10.31-33.28,10.31-2.28,0-17.23-.13-26.88-3.21Z"/><path class="cls-3" d="M98.61,60.49c-9-2.28-20.64-2.39-22.69-2.39-3.41,0-33.28.29-33.28,10.31v10a82.22,82.22,0,0,0,12.69,3.29C52.47,81,49,79.94,48.24,78.85l0-10.2c1.4-1.82,11.5-4.92,27.66-4.92a105.35,105.35,0,0,1,14.8,1c.2,0,.4,0,.6,0l0,0c3.91.54,11.16,2.83,12.07,3.65-2,1.77-11.21,4.47-25.67,4.67H75.92a80.06,80.06,0,0,1-20.55-2.62h0a5.34,5.34,0,0,0,4.12,6.72,91.51,91.51,0,0,0,16.43,1.52c1.37,0,5.67-.13,7.49-.25,9.93-.62,25.8-2.75,25.8-10.06C109.2,64.44,104.5,62,98.61,60.49Z"/><path class="cls-4" d="M60.94,22.65c-1.4,1.82-11.5,4.9-27.66,4.92-21.1,0-27.66-4.87-27.66-4.69h-5A.61.61,0,0,0,0,23.5V34.4c0,10,29.88,10.31,33.28,10.31,2.47,0,18.83-.15,27.66-4v5l-.47.42c-2.05,1.49-9.14,3.37-20.07,4.17L23.7,55.82c4.68.37,8.49.4,9.58.4s4.91,0,9.59-.4c0,0,0,0,.11,0,9.9-.79,23.59-3.12,23.59-9.9V35A.61.61,0,0,0,66,34.4h-5c0-.18-7.53,4.45-27.66,4.69C17.13,39.27,7,36,5.62,34.16v-5c8.83,3.89,25.19,4,27.66,4a123.53,123.53,0,0,0,16-1.09C53.35,30.41,58,26.24,60.94,22.65Z"/><path class="cls-5" d="M34.17,73.61l5.45-11.08a.61.61,0,0,0-.63-.6L36.75,62s-2.43.09-3.46.09C17.13,62.1,7,59,5.62,57.18v-5c4.92,2.17,12.18,3.18,18.08,3.65,6.35,0,13.08-2.17,16.71-5.56q-3.33.24-7.12.34C15,51,5.62,45.73,5.62,45.91h-5a.61.61,0,0,0-.61.61v10.9c0,5.93,10.46,8.45,19.71,9.52l.18,0a127,127,0,0,0,13.4.77h.8l.09,5.89"/></g></g></svg>