<svg xmlns="http://www.w3.org/2000/svg" viewBox="0 0 113.39 99.21"><defs><style>.cls-1{fill:#1f9ad7;}.cls-2{fill:#662483;}</style></defs><title>dashboard</title><g id="Layer_8" data-name="Layer 8"><path class="cls-1" d="M96.74,12.77H16.65a5,5,0,0,0-5,5V81.48a5,5,0,0,0,5,5H96.74a5,5,0,0,0,5-5V17.73A5,5,0,0,0,96.74,12.77ZM16.65,17.25H96.74a.48.48,0,0,1,.48.48v6.42h-81V17.73A.48.48,0,0,1,16.65,17.25ZM96.74,82H16.65a.48.48,0,0,1-.48-.48V28.63h81V81.48A.48.48,0,0,1,96.74,82Z"/><path class="cls-1" d="M34,38H22.29a2.24,2.24,0,0,1,0-4.48H34A2.24,2.24,0,0,1,34,38Z"/><path class="cls-1" d="M34,51H22.29a2.24,2.24,0,1,1,0-4.48H34A2.24,2.24,0,0,1,34,51Z"/><path class="cls-1" d="M34,64H22.29a2.24,2.24,0,1,1,0-4.48H34A2.24,2.24,0,0,1,34,64Z"/><path class="cls-1" d="M34,77H22.29a2.24,2.24,0,0,1,0-4.48H34A2.24,2.24,0,0,1,34,77Z"/><circle class="cls-1" cx="45.88" cy="35.79" r="2.46"/><circle class="cls-1" cx="55.88" cy="35.79" r="2.46"/><circle class="cls-2" cx="65.88" cy="35.79" r="2.46"/><circle class="cls-1" cx="75.88" cy="35.79" r="2.46"/><circle class="cls-2" cx="85.88" cy="35.79" r="2.46"/><circle class="cls-2" cx="45.88" cy="48.8" r="2.46"/><circle class="cls-2" cx="55.88" cy="48.8" r="2.46"/><circle class="cls-1" cx="65.88" cy="48.8" r="2.46"/><circle class="cls-1" cx="75.88" cy="48.8" r="2.46"/><circle class="cls-1" cx="85.88" cy="48.8" r="2.46"/><circle class="cls-1" cx="45.88" cy="61.8" r="2.46"/><circle class="cls-1" cx="55.88" cy="61.8" r="2.46"/><circle class="cls-1" cx="65.88" cy="61.8" r="2.46"/><circle class="cls-2" cx="75.88" cy="61.8" r="2.46"/><circle class="cls-2" cx="85.88" cy="61.8" r="2.46"/><circle class="cls-1" cx="45.88" cy="74.8" r="2.46"/><circle class="cls-2" cx="55.88" cy="74.8" r="2.46"/><circle class="cls-1" cx="65.88" cy="74.8" r="2.46"/><circle class="cls-1" cx="75.88" cy="74.8" r="2.46"/><circle class="cls-1" cx="85.88" cy="74.8" r="2.46"/></g></svg>