<svg xmlns="http://www.w3.org/2000/svg" viewBox="0 0 108.25 86.04"><defs><style>.spec-1{fill:#1c9ad7;}</style></defs><title>Booking-step-2</title><g id="Layer_2" data-name="Layer 2"><g id="Layer_1-2" data-name="Layer 1"><path class="spec-1" d="M10.86,35a.55.55,0,0,1-.31.22.55.55,0,0,1,.31.22.88.88,0,0,1,.1.47v1a.46.46,0,0,0,.11.34.45.45,0,0,0,.33.12h.11v.75h-.36a1.2,1.2,0,0,1-.86-.28A1.08,1.08,0,0,1,10,37V35.92a.3.3,0,0,0-.07-.21.26.26,0,0,0-.2-.07h-.2v-.75h.2a.26.26,0,0,0,.2-.07A.3.3,0,0,0,10,34.6V33.49a1.08,1.08,0,0,1,.29-.81,1.2,1.2,0,0,1,.86-.28h.36v.75H11.4a.45.45,0,0,0-.33.12.46.46,0,0,0-.11.34v1A.88.88,0,0,1,10.86,35Z"/><path class="spec-1" d="M14.17,36.78a1,1,0,0,1-.35.16,1.74,1.74,0,0,1-.43.05,1.28,1.28,0,0,1-.91-.3,1.15,1.15,0,0,1-.32-.88V34.45h-.51v-.74h.51v-.8h1v.8h.82v.74h-.82V35.8a.45.45,0,0,0,.11.32.4.4,0,0,0,.3.11.61.61,0,0,0,.39-.12Z"/><path class="spec-1" d="M14.76,33a.52.52,0,0,1,0-.76.61.61,0,0,1,.43-.15.62.62,0,0,1,.43.15.47.47,0,0,1,.17.37.52.52,0,0,1-.17.4.6.6,0,0,1-.43.16A.61.61,0,0,1,14.76,33Zm0,.61h1v3.3h-1Z"/><path class="spec-1" d="M18.68,36.78a1,1,0,0,1-.35.16,1.74,1.74,0,0,1-.43.05,1.28,1.28,0,0,1-.91-.3,1.15,1.15,0,0,1-.32-.88V34.45h-.51v-.74h.51v-.8h1v.8h.82v.74h-.82V35.8a.45.45,0,0,0,.11.32.4.4,0,0,0,.3.11.61.61,0,0,0,.39-.12Z"/><path class="spec-1" d="M19.22,32.4h1v4.55h-1Z"/><path class="spec-1" d="M24.27,35.56H21.78a.78.78,0,0,0,.32.48,1.05,1.05,0,0,0,.62.18,1.26,1.26,0,0,0,.46-.08,1.11,1.11,0,0,0,.37-.24l.51.55A1.71,1.71,0,0,1,22.7,37a2.15,2.15,0,0,1-1-.22,1.59,1.59,0,0,1-.66-.6,1.66,1.66,0,0,1-.23-.88,1.68,1.68,0,0,1,.23-.87,1.61,1.61,0,0,1,.63-.61,1.85,1.85,0,0,1,.9-.22,1.84,1.84,0,0,1,.88.21,1.52,1.52,0,0,1,.62.6,1.78,1.78,0,0,1,.22.9S24.28,35.4,24.27,35.56ZM22,34.5a.78.78,0,0,0-.27.5h1.62a.79.79,0,0,0-.27-.5.81.81,0,0,0-.54-.19A.82.82,0,0,0,22,34.5Z"/><path class="spec-1" d="M24.86,34.62a.58.58,0,0,1-.17-.43.56.56,0,0,1,.17-.43.63.63,0,0,1,.85,0,.56.56,0,0,1,.17.43.58.58,0,0,1-.17.43.61.61,0,0,1-.85,0Zm0,2.2a.58.58,0,0,1-.17-.43.56.56,0,0,1,.17-.43.63.63,0,0,1,.85,0,.56.56,0,0,1,.17.43.58.58,0,0,1-.17.43.61.61,0,0,1-.85,0Z"/><path class="spec-1" d="M27.39,33.57a.58.58,0,0,1,.09.32.57.57,0,0,1-.17.43.63.63,0,0,1-.85,0,.57.57,0,0,1-.17-.42,1,1,0,0,1,0-.24,2.75,2.75,0,0,1,.13-.37l.36-.88h.61l-.27,1A.53.53,0,0,1,27.39,33.57Zm1.45,0a.58.58,0,0,1,.09.32.57.57,0,0,1-.17.43.63.63,0,0,1-.85,0,.57.57,0,0,1-.17-.42,1,1,0,0,1,0-.24,2.74,2.74,0,0,1,.13-.37l.36-.88h.61l-.27,1A.53.53,0,0,1,28.84,33.57Z"/><path class="spec-1" d="M33,33.65l-1.49,3.5a1.72,1.72,0,0,1-.56.8,1.37,1.37,0,0,1-.81.23,1.68,1.68,0,0,1-.51-.08,1.12,1.12,0,0,1-.41-.22l.35-.68a.82.82,0,0,0,.25.15.79.79,0,0,0,.29.06.51.51,0,0,0,.32-.1A.81.81,0,0,0,30.7,37v0l-1.43-3.32h1l.92,2.24.93-2.24Z"/><path class="spec-1" d="M34,36.77a1.61,1.61,0,0,1-.65-.6,1.76,1.76,0,0,1,0-1.75,1.62,1.62,0,0,1,.65-.6,2.11,2.11,0,0,1,1.87,0,1.62,1.62,0,0,1,.64.6,1.76,1.76,0,0,1,0,1.75,1.62,1.62,0,0,1-.64.6,2.11,2.11,0,0,1-1.87,0ZM35.52,36a1.05,1.05,0,0,0,0-1.33.8.8,0,0,0-.6-.25.81.81,0,0,0-.61.25,1,1,0,0,0,0,1.33.81.81,0,0,0,.61.25A.8.8,0,0,0,35.52,36Z"/><path class="spec-1" d="M40.76,33.65v2.74a1.76,1.76,0,0,1-.47,1.35,2,2,0,0,1-1.38.44,3.45,3.45,0,0,1-.91-.12,2,2,0,0,1-.71-.34l.38-.69a1.56,1.56,0,0,0,.53.27,2.09,2.09,0,0,0,.64.1,1,1,0,0,0,.73-.22.89.89,0,0,0,.24-.68v-.14a1.34,1.34,0,0,1-1,.41,1.75,1.75,0,0,1-.83-.2,1.52,1.52,0,0,1-.6-.56,1.69,1.69,0,0,1,0-1.67,1.52,1.52,0,0,1,.6-.56,1.75,1.75,0,0,1,.83-.2,1.31,1.31,0,0,1,1.09.47v-.42Zm-1.19,2.13a.83.83,0,0,0,0-1.17.88.88,0,0,0-.62-.22.89.89,0,0,0-.62.22.82.82,0,0,0,0,1.17A.89.89,0,0,0,39,36,.88.88,0,0,0,39.57,35.77Z"/><path class="spec-1" d="M44.15,34a1.4,1.4,0,0,1,.41,1.1v1.88h-.89v-.41a1.07,1.07,0,0,1-1,.46,1.56,1.56,0,0,1-.66-.13,1,1,0,0,1-.43-.36.92.92,0,0,1-.15-.51.86.86,0,0,1,.35-.72A1.76,1.76,0,0,1,42.85,35h.76a.61.61,0,0,0-.19-.48.84.84,0,0,0-.57-.17,1.67,1.67,0,0,0-.52.08,1.37,1.37,0,0,0-.43.22L41.56,34a2.07,2.07,0,0,1,.65-.29,2.89,2.89,0,0,1,.78-.1A1.72,1.72,0,0,1,44.15,34Zm-.81,2.27a.62.62,0,0,0,.27-.33v-.34H43q-.59,0-.59.39a.34.34,0,0,0,.14.29.65.65,0,0,0,.4.11A.83.83,0,0,0,43.34,36.23Z"/><path class="spec-1" d="M47.81,36.77a1.63,1.63,0,0,1-.66-.6,1.75,1.75,0,0,1,0-1.75,1.63,1.63,0,0,1,.66-.6,2,2,0,0,1,.95-.22,1.84,1.84,0,0,1,.91.22,1.29,1.29,0,0,1,.57.62l-.74.4a.81.81,0,0,0-.74-.45.84.84,0,0,0-.62.24,1,1,0,0,0,0,1.34.84.84,0,0,0,.62.25.8.8,0,0,0,.74-.45l.74.4a1.32,1.32,0,0,1-.57.61,1.81,1.81,0,0,1-.91.22A2,2,0,0,1,47.81,36.77Z"/><path class="spec-1" d="M50.76,32.4h1v4.55h-1Z"/><path class="spec-1" d="M55.11,34a1.4,1.4,0,0,1,.41,1.1v1.88h-.89v-.41a1.07,1.07,0,0,1-1,.46,1.56,1.56,0,0,1-.66-.13,1,1,0,0,1-.43-.36.92.92,0,0,1-.15-.51.86.86,0,0,1,.35-.72A1.76,1.76,0,0,1,53.8,35h.76a.61.61,0,0,0-.19-.48.84.84,0,0,0-.57-.17,1.67,1.67,0,0,0-.52.08,1.37,1.37,0,0,0-.43.22L52.51,34a2.07,2.07,0,0,1,.65-.29,2.89,2.89,0,0,1,.78-.1A1.72,1.72,0,0,1,55.11,34Zm-.81,2.27a.62.62,0,0,0,.27-.33v-.34h-.66q-.59,0-.59.39a.34.34,0,0,0,.14.29.65.65,0,0,0,.4.11A.83.83,0,0,0,54.29,36.23Z"/><path class="spec-1" d="M56.69,36.89a2.09,2.09,0,0,1-.62-.25l.32-.69a2,2,0,0,0,.53.23,2.23,2.23,0,0,0,.61.09q.61,0,.61-.3a.21.21,0,0,0-.17-.2,2.47,2.47,0,0,0-.51-.1,4.91,4.91,0,0,1-.67-.14,1,1,0,0,1-.46-.28.8.8,0,0,1-.19-.58.9.9,0,0,1,.18-.55,1.16,1.16,0,0,1,.53-.38,2.25,2.25,0,0,1,.82-.13,3.22,3.22,0,0,1,.7.08,2,2,0,0,1,.57.21l-.32.68a1.9,1.9,0,0,0-.95-.24,1,1,0,0,0-.46.09.25.25,0,0,0-.15.22.22.22,0,0,0,.17.21,2.9,2.9,0,0,0,.53.12,5.63,5.63,0,0,1,.66.14,1,1,0,0,1,.45.28.79.79,0,0,1,.19.56.87.87,0,0,1-.18.55,1.17,1.17,0,0,1-.54.37,2.39,2.39,0,0,1-.84.13A3.2,3.2,0,0,1,56.69,36.89Z"/><path class="spec-1" d="M59.94,36.89a2.09,2.09,0,0,1-.62-.25l.32-.69a2,2,0,0,0,.53.23,2.23,2.23,0,0,0,.61.09q.61,0,.61-.3a.21.21,0,0,0-.17-.2,2.47,2.47,0,0,0-.51-.1,4.91,4.91,0,0,1-.67-.14,1,1,0,0,1-.46-.28.8.8,0,0,1-.19-.58.9.9,0,0,1,.18-.55,1.16,1.16,0,0,1,.53-.38,2.25,2.25,0,0,1,.82-.13,3.22,3.22,0,0,1,.7.08,2,2,0,0,1,.57.21l-.32.68a1.9,1.9,0,0,0-.95-.24,1,1,0,0,0-.46.09.25.25,0,0,0-.15.22.22.22,0,0,0,.17.21A2.9,2.9,0,0,0,61,35a5.63,5.63,0,0,1,.66.14,1,1,0,0,1,.45.28.79.79,0,0,1,.19.56.87.87,0,0,1-.18.55,1.17,1.17,0,0,1-.54.37,2.39,2.39,0,0,1-.84.13A3.2,3.2,0,0,1,59.94,36.89Z"/><path class="spec-1" d="M63.67,32.51a.57.57,0,0,1,.17.43,1,1,0,0,1,0,.25,3.22,3.22,0,0,1-.13.37l-.36.88h-.61l.26-1a.53.53,0,0,1-.24-.2.59.59,0,0,1-.09-.32.57.57,0,0,1,.17-.43.59.59,0,0,1,.43-.16A.58.58,0,0,1,63.67,32.51Zm1.45,0a.57.57,0,0,1,.17.43,1,1,0,0,1,0,.25,3.2,3.2,0,0,1-.13.37l-.36.88h-.61l.26-1a.52.52,0,0,1-.24-.2.59.59,0,0,1-.09-.32.56.56,0,0,1,.17-.43.59.59,0,0,1,.43-.16A.58.58,0,0,1,65.12,32.51Z"/><path class="spec-1" d="M66.6,36a.57.57,0,0,1,.17.43,1,1,0,0,1,0,.24,2.8,2.8,0,0,1-.13.37l-.35.88h-.61l.27-1a.51.51,0,0,1-.24-.2.58.58,0,0,1-.09-.32.56.56,0,0,1,.17-.43.59.59,0,0,1,.43-.16A.58.58,0,0,1,66.6,36Z"/><path class="spec-1" d="M13,39.75v4.55h-.91v-.38a1.26,1.26,0,0,1-1,.43,1.71,1.71,0,0,1-.84-.21,1.49,1.49,0,0,1-.59-.59,2,2,0,0,1,0-1.79,1.49,1.49,0,0,1,.59-.59,1.71,1.71,0,0,1,.84-.21,1.25,1.25,0,0,1,1,.4v-1.6Zm-1.18,3.56a1,1,0,0,0,0-1.33.86.86,0,0,0-1.21,0,1,1,0,0,0,0,1.33.86.86,0,0,0,1.21,0Z"/><path class="spec-1" d="M17.1,42.91H14.6a.78.78,0,0,0,.32.48,1.05,1.05,0,0,0,.62.18A1.26,1.26,0,0,0,16,43.5a1.11,1.11,0,0,0,.37-.24l.51.55a1.71,1.71,0,0,1-1.36.53,2.15,2.15,0,0,1-1-.22,1.59,1.59,0,0,1-.66-.6,1.66,1.66,0,0,1-.23-.88,1.68,1.68,0,0,1,.23-.87,1.61,1.61,0,0,1,.63-.61,1.85,1.85,0,0,1,.9-.22,1.84,1.84,0,0,1,.88.21,1.52,1.52,0,0,1,.62.6,1.78,1.78,0,0,1,.22.9S17.11,42.75,17.1,42.91Zm-2.24-1.06a.78.78,0,0,0-.27.5h1.62a.79.79,0,0,0-.27-.5.81.81,0,0,0-.54-.19A.82.82,0,0,0,14.86,41.85Z"/><path class="spec-1" d="M18.06,44.24a2.09,2.09,0,0,1-.62-.25l.32-.69a2,2,0,0,0,.53.23,2.23,2.23,0,0,0,.61.09q.61,0,.61-.3a.21.21,0,0,0-.17-.2,2.47,2.47,0,0,0-.51-.1,4.91,4.91,0,0,1-.67-.14,1,1,0,0,1-.46-.28.8.8,0,0,1-.19-.58.9.9,0,0,1,.18-.55,1.16,1.16,0,0,1,.53-.38,2.25,2.25,0,0,1,.82-.13,3.22,3.22,0,0,1,.7.08,2,2,0,0,1,.57.21l-.32.68a1.9,1.9,0,0,0-.95-.24,1,1,0,0,0-.46.09.25.25,0,0,0-.15.22.22.22,0,0,0,.17.21,2.9,2.9,0,0,0,.53.12,5.63,5.63,0,0,1,.66.14,1,1,0,0,1,.45.28.79.79,0,0,1,.19.56.87.87,0,0,1-.18.55,1.17,1.17,0,0,1-.54.37,2.39,2.39,0,0,1-.84.13A3.2,3.2,0,0,1,18.06,44.24Z"/><path class="spec-1" d="M21.65,44.12a1.63,1.63,0,0,1-.66-.6,1.75,1.75,0,0,1,0-1.75,1.63,1.63,0,0,1,.66-.6,2,2,0,0,1,.95-.22,1.84,1.84,0,0,1,.91.22,1.29,1.29,0,0,1,.57.62l-.74.4a.81.81,0,0,0-.74-.45A.84.84,0,0,0,22,42a1,1,0,0,0,0,1.34.84.84,0,0,0,.62.25.8.8,0,0,0,.74-.45l.74.4a1.32,1.32,0,0,1-.57.61,1.81,1.81,0,0,1-.91.22A2,2,0,0,1,21.65,44.12Z"/><path class="spec-1" d="M26,41.07a1.72,1.72,0,0,1,.67-.12v.88h-.21a.88.88,0,0,0-.64.23.93.93,0,0,0-.23.69v1.56h-1V41h.91v.43A1.07,1.07,0,0,1,26,41.07Z"/><path class="spec-1" d="M27.29,40.38a.52.52,0,0,1,0-.76.61.61,0,0,1,.43-.15.62.62,0,0,1,.43.15.47.47,0,0,1,.17.37.52.52,0,0,1-.17.4.6.6,0,0,1-.43.16A.61.61,0,0,1,27.29,40.38Zm0,.61h1v3.3h-1Z"/><path class="spec-1" d="M31.87,41.16a1.52,1.52,0,0,1,.59.59,2,2,0,0,1,0,1.78,1.52,1.52,0,0,1-.59.59,1.68,1.68,0,0,1-.84.21,1.27,1.27,0,0,1-1-.4v1.54h-1V41H30v.38a1.27,1.27,0,0,1,1-.43A1.68,1.68,0,0,1,31.87,41.16Zm-.4,2.15a1.05,1.05,0,0,0,0-1.33.86.86,0,0,0-1.21,0,1.05,1.05,0,0,0,0,1.33.86.86,0,0,0,1.21,0Z"/><path class="spec-1" d="M35.44,44.13a1,1,0,0,1-.35.16,1.74,1.74,0,0,1-.43.05,1.28,1.28,0,0,1-.91-.3,1.15,1.15,0,0,1-.32-.88V41.8h-.51v-.74h.51v-.8h1v.8h.82v.74h-.82v1.34a.45.45,0,0,0,.11.32.4.4,0,0,0,.3.11.61.61,0,0,0,.39-.12Z"/><path class="spec-1" d="M36,40.38a.52.52,0,0,1,0-.76.61.61,0,0,1,.43-.15.62.62,0,0,1,.43.15A.47.47,0,0,1,37,40a.52.52,0,0,1-.17.4.6.6,0,0,1-.43.16A.61.61,0,0,1,36,40.38ZM36,41h1v3.3H36Z"/><path class="spec-1" d="M38.45,44.12a1.61,1.61,0,0,1-.65-.6,1.76,1.76,0,0,1,0-1.75,1.62,1.62,0,0,1,.65-.6,2.11,2.11,0,0,1,1.87,0,1.62,1.62,0,0,1,.64.6,1.76,1.76,0,0,1,0,1.75,1.62,1.62,0,0,1-.64.6,2.11,2.11,0,0,1-1.87,0ZM40,43.31A1.05,1.05,0,0,0,40,42a.8.8,0,0,0-.6-.25.81.81,0,0,0-.61.25,1,1,0,0,0,0,1.33.81.81,0,0,0,.61.25A.8.8,0,0,0,40,43.31Z"/><path class="spec-1" d="M44.82,41.31a1.46,1.46,0,0,1,.38,1.09v1.89h-1V42.55a.86.86,0,0,0-.17-.58.63.63,0,0,0-.5-.19A.76.76,0,0,0,43,42a.93.93,0,0,0-.21.66v1.63h-1V41h.91v.39a1.27,1.27,0,0,1,.47-.32,1.64,1.64,0,0,1,.62-.11A1.36,1.36,0,0,1,44.82,41.31Z"/><path class="spec-1" d="M46,42a.58.58,0,0,1-.17-.43.56.56,0,0,1,.17-.43.63.63,0,0,1,.85,0,.56.56,0,0,1,.17.43.58.58,0,0,1-.17.43A.61.61,0,0,1,46,42Zm0,2.2a.58.58,0,0,1-.17-.43.56.56,0,0,1,.17-.43.63.63,0,0,1,.85,0,.56.56,0,0,1,.17.43.58.58,0,0,1-.17.43.61.61,0,0,1-.85,0Z"/><path class="spec-1" d="M50.27,40.92a.58.58,0,0,1,.09.32.57.57,0,0,1-.17.43.63.63,0,0,1-.85,0,.57.57,0,0,1-.17-.42,1,1,0,0,1,0-.24,2.75,2.75,0,0,1,.13-.37l.36-.88h.61l-.27,1A.53.53,0,0,1,50.27,40.92Zm1.45,0a.58.58,0,0,1,.09.32.57.57,0,0,1-.17.43.63.63,0,0,1-.85,0,.57.57,0,0,1-.17-.42,1,1,0,0,1,0-.24,2.74,2.74,0,0,1,.13-.37l.36-.88h.61l-.27,1A.53.53,0,0,1,51.71,40.92Z"/><path class="spec-1" d="M54.72,44.13a1,1,0,0,1-.35.16,1.74,1.74,0,0,1-.43.05A1.28,1.28,0,0,1,53,44a1.15,1.15,0,0,1-.32-.88V41.8H52.2v-.74h.51v-.8h1v.8h.82v.74h-.82v1.34a.45.45,0,0,0,.11.32.4.4,0,0,0,.3.11.61.61,0,0,0,.39-.12Z"/><path class="spec-1" d="M58.25,41.31a1.46,1.46,0,0,1,.38,1.09v1.89h-1V42.55A.86.86,0,0,0,57.5,42a.63.63,0,0,0-.5-.19.76.76,0,0,0-.58.22.93.93,0,0,0-.21.66v1.63h-1V39.75h1v1.59a1.27,1.27,0,0,1,.46-.29,1.66,1.66,0,0,1,.59-.1A1.36,1.36,0,0,1,58.25,41.31Z"/><path class="spec-1" d="M62.74,42.91H60.24a.78.78,0,0,0,.32.48,1.05,1.05,0,0,0,.62.18,1.26,1.26,0,0,0,.46-.08,1.11,1.11,0,0,0,.37-.24l.51.55a1.71,1.71,0,0,1-1.36.53,2.15,2.15,0,0,1-1-.22,1.59,1.59,0,0,1-.66-.6,1.66,1.66,0,0,1-.23-.88,1.68,1.68,0,0,1,.23-.87,1.61,1.61,0,0,1,.63-.61,1.85,1.85,0,0,1,.9-.22,1.84,1.84,0,0,1,.88.21,1.52,1.52,0,0,1,.62.6,1.78,1.78,0,0,1,.22.9S62.75,42.75,62.74,42.91ZM60.5,41.85a.78.78,0,0,0-.27.5h1.62a.79.79,0,0,0-.27-.5.81.81,0,0,0-.54-.19A.82.82,0,0,0,60.5,41.85Z"/><path class="spec-1" d="M66.17,41.07H67v.74H66.2v2.49h-1V41.8h-.51v-.74h.51v-.15a1.2,1.2,0,0,1,.33-.89,1.28,1.28,0,0,1,.94-.33,1.74,1.74,0,0,1,.41,0,1,1,0,0,1,.32.13l-.25.69a.65.65,0,0,0-.39-.12q-.44,0-.44.48Z"/><path class="spec-1" d="M70.82,41v3.3h-.91V43.9a1.27,1.27,0,0,1-.45.33,1.43,1.43,0,0,1-.57.11,1.4,1.4,0,0,1-1-.37,1.49,1.49,0,0,1-.38-1.11V41h1v1.72q0,.8.67.8a.72.72,0,0,0,.55-.22.94.94,0,0,0,.21-.66V41Z"/><path class="spec-1" d="M74.7,41.31a1.46,1.46,0,0,1,.38,1.09v1.89h-1V42.55a.86.86,0,0,0-.17-.58.63.63,0,0,0-.5-.19.76.76,0,0,0-.58.22.93.93,0,0,0-.21.66v1.63h-1V41h.91v.39a1.27,1.27,0,0,1,.47-.32,1.64,1.64,0,0,1,.62-.11A1.36,1.36,0,0,1,74.7,41.31Z"/><path class="spec-1" d="M79.09,43l-.46.45v.84h-1V39.75h1v2.57L80,41h1.14l-1.37,1.4,1.49,1.9H80.13Z"/><path class="spec-1" d="M81.74,40.38a.52.52,0,0,1,0-.76.61.61,0,0,1,.43-.15.62.62,0,0,1,.43.15.47.47,0,0,1,.17.37.52.52,0,0,1-.17.4.6.6,0,0,1-.43.16A.61.61,0,0,1,81.74,40.38Zm0,.61h1v3.3h-1Z"/><path class="spec-1" d="M86.53,41.31a1.46,1.46,0,0,1,.38,1.09v1.89h-1V42.55a.86.86,0,0,0-.17-.58.63.63,0,0,0-.5-.19.76.76,0,0,0-.58.22.93.93,0,0,0-.21.66v1.63h-1V41h.91v.39a1.27,1.27,0,0,1,.47-.32,1.64,1.64,0,0,1,.62-.11A1.36,1.36,0,0,1,86.53,41.31Z"/><path class="spec-1" d="M91.16,39.75v4.55h-.91v-.38a1.26,1.26,0,0,1-1,.43,1.71,1.71,0,0,1-.84-.21,1.49,1.49,0,0,1-.59-.59,2,2,0,0,1,0-1.79,1.49,1.49,0,0,1,.59-.59,1.71,1.71,0,0,1,.84-.21,1.25,1.25,0,0,1,1,.4v-1.6ZM90,43.31A1,1,0,0,0,90,42a.86.86,0,0,0-1.21,0,1,1,0,0,0,0,1.33.86.86,0,0,0,1.21,0Z"/><path class="spec-1" d="M92.83,39.86a.57.57,0,0,1,.17.43,1,1,0,0,1,0,.25,3.22,3.22,0,0,1-.13.37l-.36.88h-.61l.26-1a.53.53,0,0,1-.24-.2.59.59,0,0,1-.09-.32.57.57,0,0,1,.17-.43.59.59,0,0,1,.43-.16A.58.58,0,0,1,92.83,39.86Zm1.45,0a.57.57,0,0,1,.17.43,1,1,0,0,1,0,.25,3.2,3.2,0,0,1-.13.37l-.36.88h-.61l.26-1a.52.52,0,0,1-.24-.2.59.59,0,0,1-.09-.32.56.56,0,0,1,.17-.43.59.59,0,0,1,.43-.16A.58.58,0,0,1,94.28,39.86Z"/><path class="spec-1" d="M95.75,43.31a.57.57,0,0,1,.17.43,1,1,0,0,1,0,.24,2.8,2.8,0,0,1-.13.37l-.35.88H94.8l.27-1a.51.51,0,0,1-.24-.2.58.58,0,0,1-.09-.32.56.56,0,0,1,.17-.43.59.59,0,0,1,.43-.16A.58.58,0,0,1,95.75,43.31Z"/><path class="spec-1" d="M12.43,48.51a1.52,1.52,0,0,1,.59.59,2,2,0,0,1,0,1.78,1.52,1.52,0,0,1-.59.59,1.68,1.68,0,0,1-.84.21,1.27,1.27,0,0,1-1-.4v1.54h-1V48.35h.91v.38a1.27,1.27,0,0,1,1-.43A1.68,1.68,0,0,1,12.43,48.51ZM12,50.66a1.05,1.05,0,0,0,0-1.33.86.86,0,0,0-1.21,0,1.05,1.05,0,0,0,0,1.33.86.86,0,0,0,1.21,0Z"/><path class="spec-1" d="M15.25,48.42a1.72,1.72,0,0,1,.67-.12v.88h-.21a.88.88,0,0,0-.64.23.93.93,0,0,0-.23.69v1.56h-1v-3.3h.91v.43A1.07,1.07,0,0,1,15.25,48.42Z"/><path class="spec-1" d="M16.54,47.73a.52.52,0,0,1,0-.76.61.61,0,0,1,.43-.15.62.62,0,0,1,.43.15.47.47,0,0,1,.17.37.52.52,0,0,1-.17.4.6.6,0,0,1-.43.16A.61.61,0,0,1,16.54,47.73Zm0,.61h1v3.3h-1Z"/><path class="spec-1" d="M19,51.47a1.63,1.63,0,0,1-.66-.6,1.75,1.75,0,0,1,0-1.75,1.63,1.63,0,0,1,.66-.6,2,2,0,0,1,.95-.22,1.84,1.84,0,0,1,.91.22,1.29,1.29,0,0,1,.57.62l-.74.4a.81.81,0,0,0-.74-.45.84.84,0,0,0-.62.24,1,1,0,0,0,0,1.34.84.84,0,0,0,.62.25.8.8,0,0,0,.74-.45l.74.4a1.32,1.32,0,0,1-.57.61,1.81,1.81,0,0,1-.91.22A2,2,0,0,1,19,51.47Z"/><path class="spec-1" d="M25.12,50.26H22.63a.78.78,0,0,0,.32.48,1.05,1.05,0,0,0,.62.18,1.26,1.26,0,0,0,.46-.08,1.11,1.11,0,0,0,.37-.24l.51.55a1.71,1.71,0,0,1-1.36.53,2.15,2.15,0,0,1-1-.22,1.59,1.59,0,0,1-.66-.6,1.66,1.66,0,0,1-.23-.88,1.68,1.68,0,0,1,.23-.87,1.61,1.61,0,0,1,.63-.61,1.85,1.85,0,0,1,.9-.22,1.84,1.84,0,0,1,.88.21,1.52,1.52,0,0,1,.62.6,1.78,1.78,0,0,1,.22.9S25.13,50.1,25.12,50.26ZM22.89,49.2a.78.78,0,0,0-.27.5h1.62a.79.79,0,0,0-.27-.5.81.81,0,0,0-.54-.19A.82.82,0,0,0,22.89,49.2Z"/><path class="spec-1" d="M25.72,49.32a.58.58,0,0,1-.17-.43.56.56,0,0,1,.17-.43.63.63,0,0,1,.85,0,.56.56,0,0,1,.17.43.58.58,0,0,1-.17.43.61.61,0,0,1-.85,0Zm0,2.2a.58.58,0,0,1-.17-.43.56.56,0,0,1,.17-.43.63.63,0,0,1,.85,0,.56.56,0,0,1,.17.43.58.58,0,0,1-.17.43.61.61,0,0,1-.85,0Z"/><path class="spec-1" d="M30,48.27a.58.58,0,0,1,.09.32.57.57,0,0,1-.17.43.63.63,0,0,1-.85,0,.57.57,0,0,1-.17-.42,1,1,0,0,1,0-.24A2.75,2.75,0,0,1,29,48l.36-.88H30l-.27,1A.53.53,0,0,1,30,48.27Zm1.45,0a.58.58,0,0,1,.09.32.57.57,0,0,1-.17.43.63.63,0,0,1-.85,0,.57.57,0,0,1-.17-.42,1,1,0,0,1,0-.24,2.74,2.74,0,0,1,.13-.37l.36-.88h.61l-.27,1A.53.53,0,0,1,31.42,48.27Z"/><path class="spec-1" d="M33.83,47.35v4.29h-1V48.15H32v-.8Z"/><path class="spec-1" d="M37.78,50.83v.81H34.54V51l1.65-1.56a1.76,1.76,0,0,0,.36-.43.79.79,0,0,0,.09-.36.47.47,0,0,0-.17-.39.81.81,0,0,0-.51-.14,1.18,1.18,0,0,0-.51.11,1,1,0,0,0-.38.32l-.72-.47a1.7,1.7,0,0,1,.69-.58,2.31,2.31,0,0,1,1-.21,2.08,2.08,0,0,1,.84.16,1.29,1.29,0,0,1,.56.44,1.14,1.14,0,0,1,.2.67,1.5,1.5,0,0,1-.15.66,2.53,2.53,0,0,1-.57.7l-1,.93Z"/><path class="spec-1" d="M38.39,51.52a.58.58,0,0,1-.17-.43.56.56,0,0,1,.17-.43.63.63,0,0,1,.85,0,.56.56,0,0,1,.17.43.58.58,0,0,1-.17.43.61.61,0,0,1-.85,0Z"/><path class="spec-1" d="M40.66,51.45a1.76,1.76,0,0,1-.65-.76,3.13,3.13,0,0,1,0-2.38,1.77,1.77,0,0,1,.65-.76,1.84,1.84,0,0,1,1.9,0,1.77,1.77,0,0,1,.65.76,3.13,3.13,0,0,1,0,2.38,1.77,1.77,0,0,1-.65.76,1.84,1.84,0,0,1-1.9,0Zm1.56-.91a2.54,2.54,0,0,0,0-2.08.73.73,0,0,0-1.23,0,2.54,2.54,0,0,0,0,2.08.73.73,0,0,0,1.23,0Z"/><path class="spec-1" d="M44.82,51.45a1.76,1.76,0,0,1-.65-.76,3.13,3.13,0,0,1,0-2.38,1.77,1.77,0,0,1,.65-.76,1.84,1.84,0,0,1,1.9,0,1.77,1.77,0,0,1,.65.76,3.13,3.13,0,0,1,0,2.38,1.77,1.77,0,0,1-.65.76,1.84,1.84,0,0,1-1.9,0Zm1.56-.91a2.54,2.54,0,0,0,0-2.08.73.73,0,0,0-1.23,0,2.54,2.54,0,0,0,0,2.08.73.73,0,0,0,1.23,0Z"/><path class="spec-1" d="M49.08,47.21a.57.57,0,0,1,.17.43,1,1,0,0,1,0,.25,3.22,3.22,0,0,1-.13.37l-.36.88h-.61l.26-1a.53.53,0,0,1-.24-.2.59.59,0,0,1-.09-.32.57.57,0,0,1,.17-.43.59.59,0,0,1,.43-.16A.58.58,0,0,1,49.08,47.21Zm1.45,0a.57.57,0,0,1,.17.43,1,1,0,0,1,0,.25,3.2,3.2,0,0,1-.13.37l-.36.88h-.61l.26-1a.52.52,0,0,1-.24-.2.59.59,0,0,1-.09-.32.56.56,0,0,1,.17-.43.59.59,0,0,1,.43-.16A.58.58,0,0,1,50.53,47.21Z"/><path class="spec-1" d="M52,50.67a.57.57,0,0,1,.17.43,1,1,0,0,1,0,.24,2.8,2.8,0,0,1-.13.37l-.35.88h-.61l.27-1a.51.51,0,0,1-.24-.2.58.58,0,0,1-.09-.32.56.56,0,0,1,.17-.43.59.59,0,0,1,.43-.16A.58.58,0,0,1,52,50.67Z"/><path class="spec-1" d="M11,55.77a1.72,1.72,0,0,1,.67-.12v.88h-.21a.88.88,0,0,0-.64.23.93.93,0,0,0-.23.69V59h-1V55.7h.91v.43A1.07,1.07,0,0,1,11,55.77Z"/><path class="spec-1" d="M15.44,57.61H13a.78.78,0,0,0,.32.48,1.05,1.05,0,0,0,.62.18,1.26,1.26,0,0,0,.46-.08,1.11,1.11,0,0,0,.37-.24l.51.55a1.71,1.71,0,0,1-1.36.53,2.15,2.15,0,0,1-1-.22,1.59,1.59,0,0,1-.66-.6,1.66,1.66,0,0,1-.23-.88,1.68,1.68,0,0,1,.23-.87,1.61,1.61,0,0,1,.63-.61,1.85,1.85,0,0,1,.9-.22,1.84,1.84,0,0,1,.88.21,1.52,1.52,0,0,1,.62.6,1.78,1.78,0,0,1,.22.9S15.46,57.46,15.44,57.61Zm-2.24-1.06a.78.78,0,0,0-.27.5h1.62a.79.79,0,0,0-.27-.5.81.81,0,0,0-.54-.19A.82.82,0,0,0,13.21,56.56Z"/><path class="spec-1" d="M21.3,56a1.49,1.49,0,0,1,.36,1.09V59h-1V57.25a.89.89,0,0,0-.16-.58.57.57,0,0,0-.46-.19.68.68,0,0,0-.53.22.94.94,0,0,0-.2.65V59h-1V57.25q0-.78-.62-.78a.67.67,0,0,0-.53.22.94.94,0,0,0-.2.65V59h-1V55.7H17v.38a1.21,1.21,0,0,1,.45-.32,1.51,1.51,0,0,1,.58-.11,1.42,1.42,0,0,1,.63.14,1.12,1.12,0,0,1,.45.4,1.35,1.35,0,0,1,.51-.4,1.61,1.61,0,0,1,.68-.14A1.33,1.33,0,0,1,21.3,56Z"/><path class="spec-1" d="M25,56a1.4,1.4,0,0,1,.41,1.1V59h-.89v-.41a1.07,1.07,0,0,1-1,.46,1.56,1.56,0,0,1-.66-.13,1,1,0,0,1-.43-.36.92.92,0,0,1-.15-.51.86.86,0,0,1,.35-.72,1.76,1.76,0,0,1,1.07-.26h.76a.61.61,0,0,0-.19-.48.84.84,0,0,0-.57-.17,1.67,1.67,0,0,0-.52.08,1.37,1.37,0,0,0-.43.22L22.43,56a2.07,2.07,0,0,1,.65-.29,2.89,2.89,0,0,1,.78-.1A1.72,1.72,0,0,1,25,56Zm-.81,2.27a.62.62,0,0,0,.27-.33v-.34h-.66q-.59,0-.59.39a.34.34,0,0,0,.14.29.65.65,0,0,0,.4.11A.83.83,0,0,0,24.22,58.29Z"/><path class="spec-1" d="M26.35,55.08a.52.52,0,0,1,0-.76.61.61,0,0,1,.43-.15.62.62,0,0,1,.43.15.47.47,0,0,1,.17.37.52.52,0,0,1-.17.4.6.6,0,0,1-.43.16A.61.61,0,0,1,26.35,55.08Zm0,.61h1V59h-1Z"/><path class="spec-1" d="M31.14,56a1.46,1.46,0,0,1,.38,1.09V59h-1V57.25a.86.86,0,0,0-.17-.58.63.63,0,0,0-.5-.19.76.76,0,0,0-.58.22.93.93,0,0,0-.21.66V59h-1V55.7h.91v.39a1.27,1.27,0,0,1,.47-.32,1.64,1.64,0,0,1,.62-.11A1.36,1.36,0,0,1,31.14,56Z"/><path class="spec-1" d="M32.43,55.08a.52.52,0,0,1,0-.76.61.61,0,0,1,.43-.15.62.62,0,0,1,.43.15.47.47,0,0,1,.17.37.52.52,0,0,1-.17.4.6.6,0,0,1-.43.16A.61.61,0,0,1,32.43,55.08Zm0,.61h1V59h-1Z"/><path class="spec-1" d="M37.22,56a1.46,1.46,0,0,1,.38,1.09V59h-1V57.25a.86.86,0,0,0-.17-.58.63.63,0,0,0-.5-.19.76.76,0,0,0-.58.22.93.93,0,0,0-.21.66V59h-1V55.7h.91v.39a1.27,1.27,0,0,1,.47-.32,1.64,1.64,0,0,1,.62-.11A1.36,1.36,0,0,1,37.22,56Z"/><path class="spec-1" d="M41.89,55.7v2.74a1.76,1.76,0,0,1-.47,1.35,2,2,0,0,1-1.38.44,3.45,3.45,0,0,1-.91-.12,2,2,0,0,1-.71-.34l.38-.69a1.56,1.56,0,0,0,.53.27,2.09,2.09,0,0,0,.64.1,1,1,0,0,0,.73-.22.89.89,0,0,0,.24-.68v-.14a1.34,1.34,0,0,1-1,.41,1.75,1.75,0,0,1-.83-.2,1.52,1.52,0,0,1-.6-.56,1.69,1.69,0,0,1,0-1.67,1.52,1.52,0,0,1,.6-.56,1.75,1.75,0,0,1,.83-.2,1.31,1.31,0,0,1,1.09.47V55.7Zm-1.19,2.13a.83.83,0,0,0,0-1.17.88.88,0,0,0-.62-.22.89.89,0,0,0-.62.22.82.82,0,0,0,0,1.17.89.89,0,0,0,.62.22A.88.88,0,0,0,40.71,57.83Z"/><path class="spec-1" d="M43.23,58.93a2.32,2.32,0,0,1-.76-.36l.34-.75a2.28,2.28,0,0,0,.66.32,2.46,2.46,0,0,0,.76.12,1.21,1.21,0,0,0,.62-.13.38.38,0,0,0,.2-.33.32.32,0,0,0-.12-.25.91.91,0,0,0-.31-.16l-.51-.13a7,7,0,0,1-.8-.23,1.3,1.3,0,0,1-.54-.37,1,1,0,0,1-.22-.69,1.19,1.19,0,0,1,.2-.68,1.36,1.36,0,0,1,.61-.48,2.49,2.49,0,0,1,1-.18,3.29,3.29,0,0,1,.8.1,2.37,2.37,0,0,1,.69.28l-.31.75a2.39,2.39,0,0,0-1.19-.34,1.12,1.12,0,0,0-.62.13.41.41,0,0,0-.2.36.35.35,0,0,0,.23.33,3.59,3.59,0,0,0,.7.21,7,7,0,0,1,.8.23,1.33,1.33,0,0,1,.54.37,1,1,0,0,1,.22.68,1.17,1.17,0,0,1-.21.67,1.38,1.38,0,0,1-.62.48,2.51,2.51,0,0,1-1,.18A3.51,3.51,0,0,1,43.23,58.93Z"/><path class="spec-1" d="M49.42,55.86a1.52,1.52,0,0,1,.59.59,2,2,0,0,1,0,1.78,1.52,1.52,0,0,1-.59.59,1.68,1.68,0,0,1-.84.21,1.27,1.27,0,0,1-1-.4v1.54h-1V55.7h.91v.38a1.27,1.27,0,0,1,1-.43A1.68,1.68,0,0,1,49.42,55.86ZM49,58a1.05,1.05,0,0,0,0-1.33.86.86,0,0,0-1.21,0,1.05,1.05,0,0,0,0,1.33A.86.86,0,0,0,49,58Z"/><path class="spec-1" d="M53.32,56a1.4,1.4,0,0,1,.41,1.1V59h-.89v-.41a1.07,1.07,0,0,1-1,.46,1.56,1.56,0,0,1-.66-.13,1,1,0,0,1-.43-.36A.92.92,0,0,1,50.6,58a.86.86,0,0,1,.35-.72A1.76,1.76,0,0,1,52,57.06h.76a.61.61,0,0,0-.19-.48.84.84,0,0,0-.57-.17,1.67,1.67,0,0,0-.52.08,1.37,1.37,0,0,0-.43.22L50.72,56a2.07,2.07,0,0,1,.65-.29,2.89,2.89,0,0,1,.78-.1A1.72,1.72,0,0,1,53.32,56Zm-.81,2.27a.62.62,0,0,0,.27-.33v-.34h-.66q-.59,0-.59.39a.34.34,0,0,0,.14.29.65.65,0,0,0,.4.11A.83.83,0,0,0,52.5,58.29Z"/><path class="spec-1" d="M55.27,58.82a1.63,1.63,0,0,1-.66-.6,1.75,1.75,0,0,1,0-1.75,1.63,1.63,0,0,1,.66-.6,2,2,0,0,1,.95-.22,1.84,1.84,0,0,1,.91.22,1.29,1.29,0,0,1,.57.62l-.74.4a.81.81,0,0,0-.74-.45.84.84,0,0,0-.62.24,1,1,0,0,0,0,1.34.84.84,0,0,0,.62.25A.8.8,0,0,0,57,57.8l.74.4a1.32,1.32,0,0,1-.57.61,1.81,1.81,0,0,1-.91.22A2,2,0,0,1,55.27,58.82Z"/><path class="spec-1" d="M61.41,57.61H58.92a.78.78,0,0,0,.32.48,1.05,1.05,0,0,0,.62.18,1.26,1.26,0,0,0,.46-.08,1.11,1.11,0,0,0,.37-.24l.51.55a1.71,1.71,0,0,1-1.36.53,2.15,2.15,0,0,1-1-.22,1.59,1.59,0,0,1-.66-.6,1.66,1.66,0,0,1-.23-.88,1.68,1.68,0,0,1,.23-.87,1.61,1.61,0,0,1,.63-.61,1.85,1.85,0,0,1,.9-.22,1.84,1.84,0,0,1,.88.21,1.52,1.52,0,0,1,.62.6,1.78,1.78,0,0,1,.22.9S61.43,57.46,61.41,57.61Zm-2.24-1.06a.78.78,0,0,0-.27.5h1.62a.79.79,0,0,0-.27-.5.81.81,0,0,0-.54-.19A.82.82,0,0,0,59.18,56.56Z"/><path class="spec-1" d="M62.38,58.94a2.09,2.09,0,0,1-.62-.25l.32-.69a2,2,0,0,0,.53.23,2.23,2.23,0,0,0,.61.09q.61,0,.61-.3a.21.21,0,0,0-.17-.2,2.47,2.47,0,0,0-.51-.1,4.91,4.91,0,0,1-.67-.14,1,1,0,0,1-.46-.28.8.8,0,0,1-.19-.58.9.9,0,0,1,.18-.55,1.16,1.16,0,0,1,.53-.38,2.25,2.25,0,0,1,.82-.13,3.22,3.22,0,0,1,.7.08,2,2,0,0,1,.57.21l-.32.68a1.9,1.9,0,0,0-.95-.24,1,1,0,0,0-.46.09.25.25,0,0,0-.15.22.22.22,0,0,0,.17.21,2.9,2.9,0,0,0,.53.12,5.63,5.63,0,0,1,.66.14,1,1,0,0,1,.45.28.79.79,0,0,1,.19.56.87.87,0,0,1-.18.55,1.17,1.17,0,0,1-.54.37,2.39,2.39,0,0,1-.84.13A3.2,3.2,0,0,1,62.38,58.94Z"/><path class="spec-1" d="M65.26,56.67a.58.58,0,0,1-.17-.43.56.56,0,0,1,.17-.43.63.63,0,0,1,.85,0,.56.56,0,0,1,.17.43.58.58,0,0,1-.17.43.61.61,0,0,1-.85,0Zm0,2.2a.58.58,0,0,1-.17-.43.56.56,0,0,1,.17-.43.63.63,0,0,1,.85,0,.56.56,0,0,1,.17.43.58.58,0,0,1-.17.43.61.61,0,0,1-.85,0Z"/><path class="spec-1" d="M69.52,55.62a.58.58,0,0,1,.09.32.57.57,0,0,1-.17.43.63.63,0,0,1-.85,0,.57.57,0,0,1-.17-.42,1,1,0,0,1,0-.24,2.75,2.75,0,0,1,.13-.37l.36-.88h.61l-.27,1A.53.53,0,0,1,69.52,55.62Zm1.45,0a.58.58,0,0,1,.09.32.57.57,0,0,1-.17.43.63.63,0,0,1-.85,0,.57.57,0,0,1-.17-.42,1,1,0,0,1,0-.24,2.74,2.74,0,0,1,.13-.37l.36-.88H71l-.27,1A.53.53,0,0,1,71,55.62Z"/><path class="spec-1" d="M74.32,56.68a1.2,1.2,0,0,1,.43,1,1.34,1.34,0,0,1-.2.71,1.37,1.37,0,0,1-.6.51,2.27,2.27,0,0,1-1,.19,3.37,3.37,0,0,1-.89-.12,2.29,2.29,0,0,1-.74-.34l.39-.76a1.87,1.87,0,0,0,.56.28,2.15,2.15,0,0,0,.66.1,1,1,0,0,0,.59-.15.47.47,0,0,0,.21-.41.46.46,0,0,0-.22-.42,1.54,1.54,0,0,0-.78-.14h-1.1l.22-2.41h2.62v.8H72.7l-.07.81H73A2.06,2.06,0,0,1,74.32,56.68Z"/><path class="spec-1" d="M76.15,54.56a.57.57,0,0,1,.17.43,1,1,0,0,1,0,.25,3.22,3.22,0,0,1-.13.37l-.36.88h-.61l.26-1a.53.53,0,0,1-.24-.2.59.59,0,0,1-.09-.32.57.57,0,0,1,.17-.43.59.59,0,0,1,.43-.16A.58.58,0,0,1,76.15,54.56Zm1.45,0a.57.57,0,0,1,.17.43,1,1,0,0,1,0,.25,3.2,3.2,0,0,1-.13.37l-.36.88h-.61l.26-1a.52.52,0,0,1-.24-.2.59.59,0,0,1-.09-.32.56.56,0,0,1,.17-.43.59.59,0,0,1,.43-.16A.58.58,0,0,1,77.59,54.56Z"/><path class="spec-1" d="M11.28,64.29V65h-.2a.26.26,0,0,0-.2.07.3.3,0,0,0-.07.21v1.11a1.08,1.08,0,0,1-.29.81,1.2,1.2,0,0,1-.86.28H9.3v-.75h.11a.44.44,0,0,0,.33-.12.46.46,0,0,0,.11-.34v-1a.88.88,0,0,1,.1-.47.55.55,0,0,1,.31-.22.55.55,0,0,1-.31-.22.88.88,0,0,1-.1-.47V63a.46.46,0,0,0-.11-.34.44.44,0,0,0-.33-.12H9.3V61.8h.36a1.2,1.2,0,0,1,.86.28,1.08,1.08,0,0,1,.29.81V64a.3.3,0,0,0,.07.21.26.26,0,0,0,.2.07Z"/><path class="spec-1" d="M107.44,86H.82A.82.82,0,0,1,0,85.23V22.36H0a5.45,5.45,0,0,1,5.45,5.45V80.59H102.8V5.45H5.45v6.49H94a5.45,5.45,0,0,1,5.45,5.45H.82A.82.82,0,0,1,0,16.58V.82A.82.82,0,0,1,.82,0H107.44a.82.82,0,0,1,.82.82V85.23A.82.82,0,0,1,107.44,86Z"/><ellipse class="spec-1" cx="97.52" cy="8.81" rx="1.82" ry="1.84"/><ellipse class="spec-1" cx="92.67" cy="8.81" rx="1.82" ry="1.84"/><ellipse class="spec-1" cx="87.82" cy="8.81" rx="1.82" ry="1.84"/></g></g></svg>