<svg xmlns="http://www.w3.org/2000/svg" viewBox="0 0 113.39 99.21"><defs><style>.cls-1{fill:#1f9ad7;}.cls-2{fill:#662483;}</style></defs><title>data-spec</title><g id="Layer_3" data-name="Layer 3"><path class="cls-1" d="M96.74,12.77H16.65a5,5,0,0,0-5,5V81.48a5,5,0,0,0,5,5H96.74a5,5,0,0,0,5-5V17.73A5,5,0,0,0,96.74,12.77ZM16.65,17.25H96.74a.48.48,0,0,1,.48.48v6.42h-81V17.73A.48.48,0,0,1,16.65,17.25ZM96.74,82H16.65a.48.48,0,0,1-.48-.48V28.63h81V81.48A.48.48,0,0,1,96.74,82Z"/><path class="cls-2" d="M21.68,42.26a.45.45,0,0,1-.25.18.45.45,0,0,1,.25.18.72.72,0,0,1,.08.39v.82a.38.38,0,0,0,.09.28.37.37,0,0,0,.27.1h.09v.62h-.3a1,1,0,0,1-.71-.23A.89.89,0,0,1,21,43.9V43a.25.25,0,0,0-.06-.17.21.21,0,0,0-.16-.06h-.16v-.62h.16a.21.21,0,0,0,.16-.06.25.25,0,0,0,.06-.18V41a.89.89,0,0,1,.24-.67,1,1,0,0,1,.71-.23h.3v.62h-.09a.37.37,0,0,0-.27.1.38.38,0,0,0-.09.28v.82A.72.72,0,0,1,21.68,42.26Z"/><path class="cls-2" d="M24.4,43.72a.82.82,0,0,1-.29.13,1.43,1.43,0,0,1-.35,0,1.05,1.05,0,0,1-.75-.25,1,1,0,0,1-.26-.72V41.8h-.42V41.2h.42v-.66h.82v.66h.67v.61h-.67v1.11a.37.37,0,0,0,.09.26.33.33,0,0,0,.25.09.5.5,0,0,0,.32-.1Z"/><path class="cls-2" d="M24.89,40.61a.43.43,0,0,1,0-.6l0,0a.5.5,0,0,1,.35-.12.51.51,0,0,1,.35.12.39.39,0,0,1,.14.3.43.43,0,0,1-.14.33.49.49,0,0,1-.35.13A.5.5,0,0,1,24.89,40.61Zm0,.5h.82v2.71h-.82Z"/><path class="cls-2" d="M28.11,43.72a.82.82,0,0,1-.29.13,1.43,1.43,0,0,1-.35,0,1.05,1.05,0,0,1-.75-.25,1,1,0,0,1-.26-.72V41.8H26V41.2h.42v-.66h.82v.66H28v.61h-.67v1.11a.37.37,0,0,0,.09.26.33.33,0,0,0,.25.09.5.5,0,0,0,.32-.1Z"/><path class="cls-2" d="M28.56,40.12h.82v3.74h-.82Z"/><path class="cls-2" d="M32.71,42.72h-2a.64.64,0,0,0,.26.39.86.86,0,0,0,.51.15,1,1,0,0,0,.38-.07.91.91,0,0,0,.3-.2l.42.45a1.41,1.41,0,0,1-1.12.45,1.77,1.77,0,0,1-.82-.18,1.31,1.31,0,0,1-.54-.49,1.36,1.36,0,0,1-.19-.72,1.38,1.38,0,0,1,.19-.72,1.32,1.32,0,0,1,.52-.5,1.6,1.6,0,0,1,1.46,0,1.25,1.25,0,0,1,.51.49,1.46,1.46,0,0,1,.18.74S32.72,42.58,32.71,42.72Zm-1.87-.87a.64.64,0,0,0-.22.41H32a.65.65,0,0,0-.22-.41.67.67,0,0,0-.44-.16A.67.67,0,0,0,30.84,41.84Z"/><path class="cls-2" d="M33.19,41.94a.48.48,0,0,1-.14-.35.46.46,0,0,1,.14-.35.52.52,0,0,1,.7,0,.46.46,0,0,1,.14.35.48.48,0,0,1-.14.35A.5.5,0,0,1,33.19,41.94Zm0,1.81a.48.48,0,0,1-.14-.35.46.46,0,0,1,.14-.35.52.52,0,0,1,.7,0,.46.46,0,0,1,.14.35.48.48,0,0,1-.14.35A.5.5,0,0,1,33.19,43.75Z"/><path class="cls-2" d="M35.27,41.08a.48.48,0,0,1,.07.26.47.47,0,0,1-.14.35.52.52,0,0,1-.7,0,.47.47,0,0,1-.14-.35.82.82,0,0,1,0-.2,2.26,2.26,0,0,1,.11-.3l.3-.72h.5l-.22.82A.44.44,0,0,1,35.27,41.08Zm1.19,0a.48.48,0,0,1,.07.26.47.47,0,0,1-.14.35.52.52,0,0,1-.7,0,.47.47,0,0,1-.14-.35.82.82,0,0,1,0-.2,2.25,2.25,0,0,1,.11-.3l.3-.72h.5l-.22.82A.44.44,0,0,1,36.47,41.08Z"/><path class="cls-2" d="M39.89,41.15,38.66,44a1.41,1.41,0,0,1-.46.66,1.13,1.13,0,0,1-.67.19,1.38,1.38,0,0,1-.42-.07.92.92,0,0,1-.34-.18l.29-.56a.67.67,0,0,0,.21.12.65.65,0,0,0,.24,0,.42.42,0,0,0,.26-.08A.67.67,0,0,0,38,43.9h0l-1.18-2.73h.82L38.4,43l.76-1.84Z"/><path class="cls-2" d="M40.71,43.71a1.32,1.32,0,0,1-.53-.49,1.45,1.45,0,0,1,0-1.44,1.33,1.33,0,0,1,.53-.49,1.73,1.73,0,0,1,1.54,0,1.33,1.33,0,0,1,.53.49,1.45,1.45,0,0,1,0,1.44,1.33,1.33,0,0,1-.53.49A1.73,1.73,0,0,1,40.71,43.71ZM42,43.08A.86.86,0,0,0,42,42a.66.66,0,0,0-.49-.21A.67.67,0,0,0,41,42a.82.82,0,0,0,0,1.09.67.67,0,0,0,.5.21A.66.66,0,0,0,42,43.08Z"/><path class="cls-2" d="M46.27,41.15V43.4a1.45,1.45,0,0,1-.39,1.11,1.64,1.64,0,0,1-1.13.36,2.84,2.84,0,0,1-.75-.1,1.64,1.64,0,0,1-.58-.28l.31-.57a1.28,1.28,0,0,0,.44.22,1.72,1.72,0,0,0,.53.08.82.82,0,0,0,.6-.18.73.73,0,0,0,.2-.56v-.12a1.1,1.1,0,0,1-.82.34,1.44,1.44,0,0,1-.68-.16,1.25,1.25,0,0,1-.49-.46,1.39,1.39,0,0,1,0-1.37,1.25,1.25,0,0,1,.49-.46,1.44,1.44,0,0,1,.68-.16,1.08,1.08,0,0,1,.9.39v-.35Zm-1,1.75a.68.68,0,0,0,0-1,.72.72,0,0,0-.51-.18.73.73,0,0,0-.51.18.67.67,0,0,0,0,1h0a.73.73,0,0,0,.55.18.72.72,0,0,0,.47-.19Z"/><path class="cls-2" d="M49.05,41.43a1.15,1.15,0,0,1,.34.9v1.55h-.73v-.34a.88.88,0,0,1-.82.38,1.28,1.28,0,0,1-.54-.11.82.82,0,0,1-.35-.3.76.76,0,0,1-.12-.42.71.71,0,0,1,.29-.59,1.45,1.45,0,0,1,.88-.25h.62a.5.5,0,0,0-.16-.39.69.69,0,0,0-.47-.14,1.37,1.37,0,0,0-.43.07,1.13,1.13,0,0,0-.35.18l-.28-.53a1.7,1.7,0,0,1,.53-.24,2.38,2.38,0,0,1,.64-.08A1.41,1.41,0,0,1,49.05,41.43Zm-.67,1.87a.51.51,0,0,0,.22-.27v-.28h-.5q-.49,0-.49.32a.28.28,0,0,0,.12.24.53.53,0,0,0,.33.09.68.68,0,0,0,.32-.13Z"/><path class="cls-2" d="M52.06,43.71a1.34,1.34,0,0,1-.54-.49,1.44,1.44,0,0,1,0-1.44,1.34,1.34,0,0,1,.54-.49,1.64,1.64,0,0,1,.78-.18,1.51,1.51,0,0,1,.75.18,1.06,1.06,0,0,1,.47.51l-.61.33a.67.67,0,0,0-.61-.37.69.69,0,0,0-.51.2.82.82,0,0,0,0,1.1.69.69,0,0,0,.51.21.66.66,0,0,0,.61-.37l.61.33a1.09,1.09,0,0,1-.47.5,1.49,1.49,0,0,1-.75.18A1.64,1.64,0,0,1,52.06,43.71Z"/><path class="cls-2" d="M54.49,40.12h.82v3.74h-.82Z"/><path class="cls-2" d="M58.07,41.43a1.15,1.15,0,0,1,.34.9v1.55h-.73v-.34a.88.88,0,0,1-.82.38,1.28,1.28,0,0,1-.54-.11.82.82,0,0,1-.35-.3.76.76,0,0,1-.12-.42.71.71,0,0,1,.29-.59,1.45,1.45,0,0,1,.87-.25h.62a.5.5,0,0,0-.16-.39.69.69,0,0,0-.47-.14,1.37,1.37,0,0,0-.43.07,1.13,1.13,0,0,0-.35.18l-.28-.53a1.7,1.7,0,0,1,.53-.24,2.38,2.38,0,0,1,.64-.08A1.41,1.41,0,0,1,58.07,41.43ZM57.4,43.3a.51.51,0,0,0,.22-.27v-.28h-.54q-.49,0-.49.32a.28.28,0,0,0,.12.24.53.53,0,0,0,.33.09.68.68,0,0,0,.35-.13Z"/><path class="cls-2" d="M59.36,43.81a1.72,1.72,0,0,1-.51-.21l.26-.57a1.64,1.64,0,0,0,.44.19,1.83,1.83,0,0,0,.5.07q.5,0,.5-.25a.17.17,0,0,0-.14-.16,2,2,0,0,0-.42-.08,4,4,0,0,1-.55-.12.82.82,0,0,1-.38-.23.66.66,0,0,1-.16-.48.74.74,0,0,1,.15-.45,1,1,0,0,1,.44-.31,1.85,1.85,0,0,1,.67-.11,2.65,2.65,0,0,1,.58.07,1.64,1.64,0,0,1,.47.17l-.26.56a1.56,1.56,0,0,0-.78-.2.82.82,0,0,0-.38.07.21.21,0,0,0-.12.18.18.18,0,0,0,.14.17,2.38,2.38,0,0,0,.44.1,4.63,4.63,0,0,1,.54.12.82.82,0,0,1,.37.23.65.65,0,0,1,.16.46.72.72,0,0,1-.15.45,1,1,0,0,1-.44.3,2,2,0,0,1-.69.11A2.63,2.63,0,0,1,59.36,43.81Z"/><path class="cls-2" d="M62,43.81a1.72,1.72,0,0,1-.51-.21l.26-.57a1.64,1.64,0,0,0,.44.19,1.83,1.83,0,0,0,.5.07q.5,0,.5-.25a.17.17,0,0,0-.14-.16,2,2,0,0,0-.42-.08,4,4,0,0,1-.55-.12.82.82,0,0,1-.38-.23.66.66,0,0,1-.16-.48.74.74,0,0,1,.15-.45,1,1,0,0,1,.44-.31,1.85,1.85,0,0,1,.67-.11,2.65,2.65,0,0,1,.58.07,1.64,1.64,0,0,1,.47.17l-.26.56a1.56,1.56,0,0,0-.78-.2.82.82,0,0,0-.38.07.21.21,0,0,0-.12.18.18.18,0,0,0,.14.17,2.38,2.38,0,0,0,.43.12,4.63,4.63,0,0,1,.54.12.82.82,0,0,1,.37.23.65.65,0,0,1,.16.46.72.72,0,0,1-.15.45,1,1,0,0,1-.44.3,2,2,0,0,1-.69.11A2.63,2.63,0,0,1,62,43.81Z"/><path class="cls-2" d="M65.1,40.21a.47.47,0,0,1,.14.35.82.82,0,0,1,0,.21,2.65,2.65,0,0,1-.11.3l-.3.72h-.5l.21-.82a.44.44,0,0,1-.2-.16.49.49,0,0,1-.07-.26.47.47,0,0,1,.14-.35.49.49,0,0,1,.35-.13A.48.48,0,0,1,65.1,40.21Zm1.19,0a.47.47,0,0,1,.14.35.82.82,0,0,1,0,.21,2.63,2.63,0,0,1-.11.3l-.3.72h-.5l.21-.82a.43.43,0,0,1-.2-.16.49.49,0,0,1-.07-.26.46.46,0,0,1,.14-.35.49.49,0,0,1,.35-.13A.48.48,0,0,1,66.3,40.21Z"/><path class="cls-2" d="M67.51,43.08a.47.47,0,0,1,.14.35.82.82,0,0,1,0,.2,2.3,2.3,0,0,1-.11.3l-.29.72h-.5l.22-.82a.42.42,0,0,1-.2-.16.48.48,0,0,1-.07-.26.46.46,0,0,1,.14-.35.49.49,0,0,1,.35-.13A.48.48,0,0,1,67.51,43.08Z"/><path class="cls-2" d="M23.44,46.16V49.9h-.75v-.31a1,1,0,0,1-.82.35,1.41,1.41,0,0,1-.69-.17,1.23,1.23,0,0,1-.49-.49,1.64,1.64,0,0,1,0-1.47,1.23,1.23,0,0,1,.49-.49,1.41,1.41,0,0,1,.69-.17,1,1,0,0,1,.82.33V46.17Zm-1,2.93a.82.82,0,0,0,0-1.09.71.71,0,0,0-1,0,.82.82,0,0,0,0,1.09A.71.71,0,0,0,22.47,49.09Z"/><path class="cls-2" d="M26.81,48.76H24.76a.64.64,0,0,0,.26.39.86.86,0,0,0,.51.15,1,1,0,0,0,.38-.06.91.91,0,0,0,.3-.2l.42.45a1.41,1.41,0,0,1-1.12.44,1.77,1.77,0,0,1-.82-.18,1.31,1.31,0,0,1-.54-.49,1.36,1.36,0,0,1-.19-.72,1.38,1.38,0,0,1,.19-.72,1.32,1.32,0,0,1,.52-.5,1.6,1.6,0,0,1,1.46,0,1.25,1.25,0,0,1,.51.49,1.46,1.46,0,0,1,.18.74S26.82,48.63,26.81,48.76ZM25,47.89a.64.64,0,0,0-.22.41h1.33a.65.65,0,0,0-.22-.41.67.67,0,0,0-.44-.16A.67.67,0,0,0,25,47.89Z"/><path class="cls-2" d="M27.6,49.85a1.72,1.72,0,0,1-.51-.21l.26-.57a1.64,1.64,0,0,0,.44.19,1.83,1.83,0,0,0,.5.07q.5,0,.5-.25a.17.17,0,0,0-.14-.16,2,2,0,0,0-.42-.08,4,4,0,0,1-.55-.12.82.82,0,0,1-.38-.23.66.66,0,0,1-.16-.48.74.74,0,0,1,.15-.45,1,1,0,0,1,.44-.31,1.85,1.85,0,0,1,.67-.11,2.65,2.65,0,0,1,.58.07,1.64,1.64,0,0,1,.47.17l-.26.56a1.56,1.56,0,0,0-.78-.2.82.82,0,0,0-.38.07.21.21,0,0,0-.12.18.18.18,0,0,0,.14.17,2.38,2.38,0,0,0,.44.1,4.63,4.63,0,0,1,.54.12.82.82,0,0,1,.37.23.65.65,0,0,1,.16.46.72.72,0,0,1-.15.45,1,1,0,0,1-.44.3,2,2,0,0,1-.69.11A2.63,2.63,0,0,1,27.6,49.85Z"/><path class="cls-2" d="M30.55,49.75a1.34,1.34,0,0,1-.54-.49,1.44,1.44,0,0,1,0-1.44,1.34,1.34,0,0,1,.54-.49,1.64,1.64,0,0,1,.78-.18,1.51,1.51,0,0,1,.75.18,1.06,1.06,0,0,1,.47.51l-.61.33a.67.67,0,0,0-.61-.37.69.69,0,0,0-.49.21.82.82,0,0,0,0,1.1.69.69,0,0,0,.51.21.66.66,0,0,0,.61-.37l.61.33a1.09,1.09,0,0,1-.47.5,1.49,1.49,0,0,1-.75.18A1.64,1.64,0,0,1,30.55,49.75Z"/><path class="cls-2" d="M34.13,47.25a1.41,1.41,0,0,1,.55-.1v.72h-.17a.72.72,0,0,0-.53.19.76.76,0,0,0-.19.57v1.28H33V47.19h.75v.35A.88.88,0,0,1,34.13,47.25Z"/><path class="cls-2" d="M35.19,46.68a.43.43,0,0,1,0-.6l0,0a.5.5,0,0,1,.35-.12.51.51,0,0,1,.35.12.39.39,0,0,1,.14.3.43.43,0,0,1-.14.33.49.49,0,0,1-.35.13A.5.5,0,0,1,35.19,46.68Zm0,.5H36v2.71h-.82Z"/><path class="cls-2" d="M39,47.32a1.25,1.25,0,0,1,.49.49,1.64,1.64,0,0,1,0,1.46,1.25,1.25,0,0,1-.49.49,1.38,1.38,0,0,1-.69.17,1,1,0,0,1-.82-.33v1.27h-.82V47.19h.8v.31a1,1,0,0,1,.82-.35A1.38,1.38,0,0,1,39,47.32Zm-.33,1.77a.86.86,0,0,0,0-1.09.71.71,0,0,0-1,0,.86.86,0,0,0,0,1.09A.71.71,0,0,0,38.63,49.09Z"/><path class="cls-2" d="M41.89,49.76a.82.82,0,0,1-.29.13,1.43,1.43,0,0,1-.35,0,1.05,1.05,0,0,1-.75-.25,1,1,0,0,1-.26-.72V47.85h-.42v-.61h.42v-.66h.82v.66h.67v.61h-.67v1.1a.37.37,0,0,0,.09.26.33.33,0,0,0,.25.09.5.5,0,0,0,.32-.1Z"/><path class="cls-2" d="M42.35,46.68a.43.43,0,0,1,0-.6l0,0a.5.5,0,0,1,.35-.12.51.51,0,0,1,.35.12.39.39,0,0,1,.12.31.43.43,0,0,1-.14.33.49.49,0,0,1-.35.13A.5.5,0,0,1,42.35,46.68Zm0,.51h.82V49.9h-.82Z"/><path class="cls-2" d="M44.37,49.75a1.32,1.32,0,0,1-.53-.49,1.45,1.45,0,0,1,0-1.44,1.33,1.33,0,0,1,.53-.49,1.73,1.73,0,0,1,1.54,0,1.33,1.33,0,0,1,.53.49,1.45,1.45,0,0,1,0,1.44,1.33,1.33,0,0,1-.53.49A1.73,1.73,0,0,1,44.37,49.75Zm1.27-.67a.86.86,0,0,0,0-1.08.66.66,0,0,0-.49-.21.67.67,0,0,0-.5.21.82.82,0,0,0,0,1.09.67.67,0,0,0,.5.21A.66.66,0,0,0,45.64,49.09Z"/><path class="cls-2" d="M49.6,47.44a1.2,1.2,0,0,1,.31.9v1.55H49.1V48.46A.71.71,0,0,0,49,48a.52.52,0,0,0-.41-.16.62.62,0,0,0-.44.18.76.76,0,0,0-.17.54v1.34h-.82V47.19h.75v.32a1,1,0,0,1,.39-.26,1.35,1.35,0,0,1,.51-.09A1.12,1.12,0,0,1,49.6,47.44Z"/><path class="cls-2" d="M50.58,48a.48.48,0,0,1-.14-.35.46.46,0,0,1,.14-.35.52.52,0,0,1,.7,0,.46.46,0,0,1,.14.35.48.48,0,0,1-.14.35A.5.5,0,0,1,50.58,48Zm0,1.81a.48.48,0,0,1-.14-.35.46.46,0,0,1,.14-.35.52.52,0,0,1,.7,0,.46.46,0,0,1,.14.35.48.48,0,0,1-.14.35A.5.5,0,0,1,50.58,49.82Z"/><path class="cls-2" d="M54.09,47.12a.48.48,0,0,1,.07.26.47.47,0,0,1-.14.35.52.52,0,0,1-.7,0,.47.47,0,0,1-.14-.35.82.82,0,0,1,0-.2,2.26,2.26,0,0,1,.11-.3l.3-.72h.5l-.22.82A.44.44,0,0,1,54.09,47.12Zm1.19,0a.48.48,0,0,1,.07.26.47.47,0,0,1-.14.35.52.52,0,0,1-.7,0,.47.47,0,0,1-.14-.35.82.82,0,0,1,0-.2,2.25,2.25,0,0,1,.11-.3l.3-.72h.5l-.22.82a.44.44,0,0,1,.21.13Z"/><path class="cls-2" d="M57.74,49.76a.82.82,0,0,1-.29.13,1.43,1.43,0,0,1-.35,0,1.05,1.05,0,0,1-.77-.28,1,1,0,0,1-.26-.72V47.85h-.39v-.61h.42v-.66h.82v.66h.67v.61h-.67v1.1a.37.37,0,0,0,.09.26.33.33,0,0,0,.25.09.5.5,0,0,0,.32-.1Z"/><path class="cls-2" d="M60.65,47.44a1.2,1.2,0,0,1,.31.9v1.55h-.82V48.46A.71.71,0,0,0,60,48a.52.52,0,0,0-.41-.16.62.62,0,0,0-.48.18.76.76,0,0,0-.17.54v1.34h-.82V46.16H59v1.31a1,1,0,0,1,.38-.24,1.36,1.36,0,0,1,.49-.08A1.12,1.12,0,0,1,60.65,47.44Z"/><path class="cls-2" d="M64.34,48.76H62.28a.64.64,0,0,0,.26.39.86.86,0,0,0,.51.15,1,1,0,0,0,.38-.07.91.91,0,0,0,.3-.2l.42.45a1.41,1.41,0,0,1-1.12.44,1.77,1.77,0,0,1-.82-.18,1.31,1.31,0,0,1-.54-.49,1.36,1.36,0,0,1-.19-.72,1.38,1.38,0,0,1,.19-.72,1.32,1.32,0,0,1,.52-.5,1.6,1.6,0,0,1,1.46,0,1.25,1.25,0,0,1,.51.49,1.46,1.46,0,0,1,.18.74S64.35,48.63,64.34,48.76Zm-1.84-.87a.64.64,0,0,0-.22.41h1.33a.65.65,0,0,0-.22-.41.67.67,0,0,0-.44-.16A.67.67,0,0,0,62.5,47.89Z"/><path class="cls-2" d="M67.16,47.25h.68v.61h-.66v2h-.82V47.85h-.42v-.61h.42v-.12a1,1,0,0,1,.27-.73,1.05,1.05,0,0,1,.77-.27,1.43,1.43,0,0,1,.34,0,.82.82,0,0,1,.26.11l-.21.57a.53.53,0,0,0-.32-.1q-.36,0-.36.39Z"/><path class="cls-2" d="M71,47.19V49.9h-.75v-.33a1,1,0,0,1-.37.27,1.18,1.18,0,0,1-.47.09,1.15,1.15,0,0,1-.82-.3,1.23,1.23,0,0,1-.31-.91V47.19h.82V48.6q0,.66.55.66a.59.59,0,0,0,.45-.18.77.77,0,0,0,.17-.54V47.19Z"/><path class="cls-2" d="M74.17,47.44a1.2,1.2,0,0,1,.31.9v1.55h-.82V48.46a.71.71,0,0,0-.14-.48.52.52,0,0,0-.41-.16.62.62,0,0,0-.48.18.76.76,0,0,0-.17.54v1.34h-.82V47.19h.75v.32a1,1,0,0,1,.39-.26,1.35,1.35,0,0,1,.51-.09A1.12,1.12,0,0,1,74.17,47.44Z"/><path class="cls-2" d="M77.78,48.83l-.38.37v.69h-.82V46.16h.82v2.11l1.13-1.09h.94l-1.13,1.15,1.23,1.56h-.93Z"/><path class="cls-2" d="M80,46.68a.43.43,0,0,1,0-.6l0,0a.5.5,0,0,1,.35-.12.51.51,0,0,1,.35.12.39.39,0,0,1,.14.3.43.43,0,0,1-.14.33.49.49,0,0,1-.35.13A.5.5,0,0,1,80,46.68Zm0,.5h.82v2.71H80Z"/><path class="cls-2" d="M83.9,47.44a1.2,1.2,0,0,1,.31.9v1.55h-.82V48.46a.71.71,0,0,0-.14-.48.52.52,0,0,0-.41-.16.62.62,0,0,0-.48.18.76.76,0,0,0-.17.54v1.34h-.82V47.19h.75v.32a1,1,0,0,1,.39-.26,1.35,1.35,0,0,1,.51-.09A1.12,1.12,0,0,1,83.9,47.44Z"/><path class="cls-2" d="M87.71,46.16V49.9H87v-.31a1,1,0,0,1-.82.35,1.41,1.41,0,0,1-.69-.17,1.23,1.23,0,0,1-.49-.49,1.64,1.64,0,0,1,0-1.47,1.23,1.23,0,0,1,.49-.49,1.41,1.41,0,0,1,.69-.17,1,1,0,0,1,.82.33V46.17Zm-1,2.93a.82.82,0,0,0,0-1.08.71.71,0,0,0-1,0,.82.82,0,0,0,0,1.09.71.71,0,0,0,1,0Z"/><path class="cls-2" d="M89.08,46.25a.47.47,0,0,1,.14.35.82.82,0,0,1,0,.21,2.65,2.65,0,0,1-.11.3l-.3.72h-.5l.21-.82a.44.44,0,0,1-.2-.16.49.49,0,0,1-.07-.26.47.47,0,0,1,.14-.35.49.49,0,0,1,.35-.13A.48.48,0,0,1,89.08,46.25Zm1.19,0a.47.47,0,0,1,.14.35.82.82,0,0,1,0,.21,2.63,2.63,0,0,1-.11.3l-.3.72h-.5l.21-.82a.43.43,0,0,1-.2-.16.49.49,0,0,1-.07-.26.46.46,0,0,1,.14-.35.49.49,0,0,1,.35-.13A.48.48,0,0,1,90.27,46.25Z"/><path class="cls-2" d="M91.48,49.09a.47.47,0,0,1,.14.35.82.82,0,0,1,0,.2,2.3,2.3,0,0,1-.11.3l-.29.72H90.7l.22-.82a.42.42,0,0,1-.2-.16.48.48,0,0,1-.07-.26.46.46,0,0,1,.14-.35.49.49,0,0,1,.35-.13A.48.48,0,0,1,91.48,49.09Z"/><path class="cls-2" d="M23,53.36a1.25,1.25,0,0,1,.49.49,1.64,1.64,0,0,1,0,1.46,1.25,1.25,0,0,1-.49.49,1.38,1.38,0,0,1-.69.17,1,1,0,0,1-.82-.33v1.27h-.82V53.23h.75v.31a1,1,0,0,1,.82-.35A1.38,1.38,0,0,1,23,53.36Zm-.35,1.77a.86.86,0,0,0,0-1.09.71.71,0,0,0-1,0,.86.86,0,0,0,0,1.09A.71.71,0,0,0,22.62,55.13Z"/><path class="cls-2" d="M25.29,53.29a1.41,1.41,0,0,1,.55-.1v.72h-.17a.72.72,0,0,0-.53.19.76.76,0,0,0-.19.57V56h-.82V53.24h.75v.35A.88.88,0,0,1,25.29,53.29Z"/><path class="cls-2" d="M26.35,52.72a.43.43,0,0,1,0-.6l0,0a.5.5,0,0,1,.35-.12.51.51,0,0,1,.35.12.39.39,0,0,1,.14.3.43.43,0,0,1-.14.33.49.49,0,0,1-.35.13A.5.5,0,0,1,26.35,52.72Zm0,.5h.82v2.71h-.82Z"/><path class="cls-2" d="M28.38,55.8a1.34,1.34,0,0,1-.54-.49,1.44,1.44,0,0,1,0-1.44,1.34,1.34,0,0,1,.54-.49,1.64,1.64,0,0,1,.78-.18,1.51,1.51,0,0,1,.75.18,1.06,1.06,0,0,1,.47.51l-.61.33a.67.67,0,0,0-.61-.37.69.69,0,0,0-.51.2.82.82,0,0,0,0,1.1.69.69,0,0,0,.51.21.66.66,0,0,0,.61-.37l.61.33a1.09,1.09,0,0,1-.47.5,1.49,1.49,0,0,1-.75.18A1.64,1.64,0,0,1,28.38,55.8Z"/><path class="cls-2" d="M33.41,54.8h-2a.64.64,0,0,0,.26.39.86.86,0,0,0,.51.15,1,1,0,0,0,.38-.07.91.91,0,0,0,.3-.2l.42.45a1.41,1.41,0,0,1-1.12.44,1.77,1.77,0,0,1-.82-.18,1.31,1.31,0,0,1-.54-.49,1.36,1.36,0,0,1-.19-.72,1.38,1.38,0,0,1,.19-.72,1.32,1.32,0,0,1,.52-.5,1.6,1.6,0,0,1,1.46,0,1.25,1.25,0,0,1,.51.49,1.46,1.46,0,0,1,.18.74S33.42,54.67,33.41,54.8Zm-1.83-.87a.64.64,0,0,0-.22.41h1.33a.65.65,0,0,0-.22-.41.67.67,0,0,0-.44-.16A.67.67,0,0,0,31.57,53.93Z"/><path class="cls-2" d="M33.9,54a.48.48,0,0,1-.14-.35.46.46,0,0,1,.14-.35.52.52,0,0,1,.7,0,.46.46,0,0,1,.14.35.48.48,0,0,1-.14.35A.5.5,0,0,1,33.9,54Zm0,1.81a.48.48,0,0,1-.14-.35.46.46,0,0,1,.14-.35.52.52,0,0,1,.7,0,.46.46,0,0,1,.14.35.48.48,0,0,1-.14.35A.5.5,0,0,1,33.9,55.84Z"/><path class="cls-2" d="M37.42,53.17a.48.48,0,0,1,.07.26.47.47,0,0,1-.14.35.52.52,0,0,1-.7,0,.47.47,0,0,1-.14-.35.82.82,0,0,1,0-.2,2.26,2.26,0,0,1,.08-.3l.3-.72h.53L37.2,53A.44.44,0,0,1,37.42,53.17Zm1.19,0a.48.48,0,0,1,.07.26.47.47,0,0,1-.14.35.52.52,0,0,1-.7,0,.47.47,0,0,1-.14-.35.82.82,0,0,1,0-.2,2.25,2.25,0,0,1,.11-.3l.3-.72h.5l-.22.82a.44.44,0,0,1,.2.13Z"/><path class="cls-2" d="M40.57,52.41v3.53h-.82V53.07h-.68v-.66Z"/><path class="cls-2" d="M43.82,55.27v.67H41.15v-.53l1.36-1.28a1.45,1.45,0,0,0,.3-.35.65.65,0,0,0,.07-.3.39.39,0,0,0-.14-.32.67.67,0,0,0-.42-.12,1,1,0,0,0-.42.09.82.82,0,0,0-.31.26L41,53a1.4,1.4,0,0,1,.57-.48,1.9,1.9,0,0,1,.82-.17,1.71,1.71,0,0,1,.69.13,1.06,1.06,0,0,1,.46.36.94.94,0,0,1,.16.55,1.23,1.23,0,0,1-.12.54,2.08,2.08,0,0,1-.47.58l-.82.76Z"/><path class="cls-2" d="M44.32,55.84a.48.48,0,0,1-.14-.35.46.46,0,0,1,.14-.35.52.52,0,0,1,.7,0,.46.46,0,0,1,.14.35.48.48,0,0,1-.14.35A.5.5,0,0,1,44.32,55.84Z"/><path class="cls-2" d="M46.18,55.78a1.45,1.45,0,0,1-.53-.62,2.57,2.57,0,0,1,0-2,1.46,1.46,0,0,1,.53-.62,1.51,1.51,0,0,1,1.56,0,1.46,1.46,0,0,1,.53.62,2.57,2.57,0,0,1,0,2,1.46,1.46,0,0,1-.53.62A1.51,1.51,0,0,1,46.18,55.78ZM47.47,55a2.09,2.09,0,0,0,0-1.71.6.6,0,0,0-1,0,2.09,2.09,0,0,0,0,1.71.6.6,0,0,0,1,0Z"/><path class="cls-2" d="M49.6,55.78a1.45,1.45,0,0,1-.53-.62,2.57,2.57,0,0,1,0-2,1.46,1.46,0,0,1,.53-.62,1.51,1.51,0,0,1,1.56,0,1.46,1.46,0,0,1,.53.62,2.57,2.57,0,0,1,0,2,1.46,1.46,0,0,1-.53.62A1.51,1.51,0,0,1,49.6,55.78ZM50.89,55a2.09,2.09,0,0,0,0-1.71.6.6,0,0,0-1,0,2.09,2.09,0,0,0,0,1.71.6.6,0,0,0,1,0Z"/><path class="cls-2" d="M53.11,52.29a.47.47,0,0,1,.14.35.82.82,0,0,1,0,.21,2.65,2.65,0,0,1-.11.3l-.3.72h-.5l.21-.82a.44.44,0,0,1-.2-.16.49.49,0,0,1-.07-.26.47.47,0,0,1,.14-.35.49.49,0,0,1,.35-.13A.48.48,0,0,1,53.11,52.29Zm1.19,0a.47.47,0,0,1,.14.35.82.82,0,0,1,0,.21,2.63,2.63,0,0,1-.11.3l-.3.72h-.5l.21-.82a.43.43,0,0,1-.2-.16.49.49,0,0,1-.07-.26.46.46,0,0,1,.14-.35.49.49,0,0,1,.35-.13A.48.48,0,0,1,54.3,52.29Z"/><path class="cls-2" d="M55.51,55.14a.47.47,0,0,1,.14.35.82.82,0,0,1,0,.2,2.3,2.3,0,0,1-.11.3l-.29.72h-.5L55,55.9a.42.42,0,0,1-.2-.16.48.48,0,0,1-.07-.26.46.46,0,0,1,.14-.35A.49.49,0,0,1,55.2,55,.48.48,0,0,1,55.51,55.14Z"/><path class="cls-2" d="M21.8,59.33a1.41,1.41,0,0,1,.55-.1V60h-.17a.72.72,0,0,0-.53.19.76.76,0,0,0-.19.57V62h-.82V59.28h.75v.35A.88.88,0,0,1,21.8,59.33Z"/><path class="cls-2" d="M25.45,60.85h-2a.64.64,0,0,0,.26.39.86.86,0,0,0,.51.15,1,1,0,0,0,.38-.07.91.91,0,0,0,.3-.2l.42.45A1.41,1.41,0,0,1,24.2,62a1.77,1.77,0,0,1-.82-.18,1.31,1.31,0,0,1-.54-.49,1.36,1.36,0,0,1-.19-.72,1.38,1.38,0,0,1,.19-.72,1.32,1.32,0,0,1,.52-.5,1.6,1.6,0,0,1,1.46,0,1.25,1.25,0,0,1,.51.49,1.46,1.46,0,0,1,.18.74A1,1,0,0,0,25.45,60.85ZM23.61,60a.64.64,0,0,0-.22.41h1.33a.65.65,0,0,0-.22-.41.67.67,0,0,0-.44-.16.67.67,0,0,0-.44.16Z"/><path class="cls-2" d="M30.27,59.52a1.23,1.23,0,0,1,.3.9V62h-.82V60.55a.73.73,0,0,0-.13-.48.47.47,0,0,0-.38-.16.56.56,0,0,0-.44.18.77.77,0,0,0-.16.53V62h-.82V60.55q0-.64-.51-.64a.55.55,0,0,0-.44.18.77.77,0,0,0-.16.53V62h-.82V59.28h.86v.31a1,1,0,0,1,.37-.26,1.24,1.24,0,0,1,.48-.09,1.17,1.17,0,0,1,.52.12.92.92,0,0,1,.37.33,1.11,1.11,0,0,1,.42-.33,1.32,1.32,0,0,1,.56-.12A1.09,1.09,0,0,1,30.27,59.52Z"/><path class="cls-2" d="M33.31,59.52a1.15,1.15,0,0,1,.34.9V62h-.73v-.34a.88.88,0,0,1-.82.38,1.28,1.28,0,0,1-.54-.11.82.82,0,0,1-.35-.3.76.76,0,0,1-.12-.42.71.71,0,0,1,.29-.59,1.45,1.45,0,0,1,.88-.21h.62a.5.5,0,0,0-.16-.39.69.69,0,0,0-.47-.14,1.37,1.37,0,0,0-.43.07,1.13,1.13,0,0,0-.35.18l-.26-.59a1.7,1.7,0,0,1,.53-.24,2.38,2.38,0,0,1,.64-.08A1.41,1.41,0,0,1,33.31,59.52Zm-.67,1.87a.51.51,0,0,0,.22-.27v-.28h-.54q-.49,0-.49.32a.28.28,0,0,0,.12.24.53.53,0,0,0,.33.09.68.68,0,0,0,.39-.08Z"/><path class="cls-2" d="M34.42,58.77a.43.43,0,0,1,0-.6l0,0a.5.5,0,0,1,.35-.12.51.51,0,0,1,.35.12.39.39,0,0,1,.14.3.43.43,0,0,1-.14.33.49.49,0,0,1-.35.13A.5.5,0,0,1,34.42,58.77Zm0,.5h.82V62h-.82Z"/><path class="cls-2" d="M38.36,59.52a1.2,1.2,0,0,1,.31.9V62h-.82V60.55a.71.71,0,0,0-.14-.48.52.52,0,0,0-.41-.16.62.62,0,0,0-.48.18.76.76,0,0,0-.17.54V62h-.82V59.28h.75v.32a1,1,0,0,1,.39-.26,1.35,1.35,0,0,1,.51-.09A1.12,1.12,0,0,1,38.36,59.52Z"/><path class="cls-2" d="M39.42,58.77a.43.43,0,0,1,0-.6l0,0a.5.5,0,0,1,.35-.12.51.51,0,0,1,.35.12.39.39,0,0,1,.14.3.43.43,0,0,1-.14.33.49.49,0,0,1-.35.13A.5.5,0,0,1,39.42,58.77Zm0,.5h.82V62h-.82Z"/><path class="cls-2" d="M43.36,59.52a1.2,1.2,0,0,1,.31.9V62h-.82V60.55a.71.71,0,0,0-.14-.48.52.52,0,0,0-.41-.16.62.62,0,0,0-.48.18.76.76,0,0,0-.17.54V62h-.82V59.28h.75v.32a1,1,0,0,1,.39-.26,1.35,1.35,0,0,1,.51-.09A1.12,1.12,0,0,1,43.36,59.52Z"/><path class="cls-2" d="M47.2,59.28v2.25a1.45,1.45,0,0,1-.39,1.11,1.64,1.64,0,0,1-1.13.36,2.84,2.84,0,0,1-.75-.1,1.64,1.64,0,0,1-.58-.28l.31-.57a1.28,1.28,0,0,0,.44.22,1.72,1.72,0,0,0,.53.08.82.82,0,0,0,.6-.18.73.73,0,0,0,.2-.56V61.5a1.1,1.1,0,0,1-.82.34,1.44,1.44,0,0,1-.68-.16,1.25,1.25,0,0,1-.49-.46,1.39,1.39,0,0,1,0-1.37,1.25,1.25,0,0,1,.49-.46,1.44,1.44,0,0,1,.68-.16,1.08,1.08,0,0,1,.9.39v-.33Zm-1,1.75a.68.68,0,0,0,0-1,.72.72,0,0,0-.51-.18.73.73,0,0,0-.51.18.67.67,0,0,0,0,1h0a.73.73,0,0,0,.51.18.72.72,0,0,0,.52-.18Z"/><path class="cls-2" d="M48.3,61.93a1.91,1.91,0,0,1-.62-.3L48,61a1.87,1.87,0,0,0,.54.26,2,2,0,0,0,.62.1,1,1,0,0,0,.51-.11.31.31,0,0,0,.16-.27.26.26,0,0,0-.1-.21.75.75,0,0,0-.25-.13L49,60.56a5.76,5.76,0,0,1-.66-.19,1.07,1.07,0,0,1-.44-.3.82.82,0,0,1-.18-.57,1,1,0,0,1,.16-.56,1.12,1.12,0,0,1,.5-.39,2,2,0,0,1,.82-.15,2.7,2.7,0,0,1,.66.08,2,2,0,0,1,.57.23l-.25.62a2,2,0,0,0-1-.28.92.92,0,0,0-.51.11.34.34,0,0,0-.16.3.29.29,0,0,0,.19.27,3,3,0,0,0,.58.17,5.76,5.76,0,0,1,.66.19,1.09,1.09,0,0,1,.44.3.82.82,0,0,1,.18.56,1,1,0,0,1-.17.55,1.13,1.13,0,0,1-.51.39,2.06,2.06,0,0,1-.82.15A2.89,2.89,0,0,1,48.3,61.93Z"/><path class="cls-2" d="M53.39,59.41a1.25,1.25,0,0,1,.49.49,1.64,1.64,0,0,1,0,1.46,1.25,1.25,0,0,1-.49.49,1.38,1.38,0,0,1-.69.17,1,1,0,0,1-.82-.33V63h-.82V59.28h.75v.31a1,1,0,0,1,.82-.35A1.38,1.38,0,0,1,53.39,59.41ZM53,61.17a.86.86,0,0,0,0-1.09.71.71,0,0,0-1,0,.86.86,0,0,0,0,1.09A.71.71,0,0,0,53,61.17Z"/><path class="cls-2" d="M56.59,59.52a1.15,1.15,0,0,1,.34.9V62H56.2v-.34a.88.88,0,0,1-.82.38,1.28,1.28,0,0,1-.54-.11.82.82,0,0,1-.35-.3.76.76,0,0,1-.12-.46.71.71,0,0,1,.29-.59,1.45,1.45,0,0,1,.86-.18h.62A.5.5,0,0,0,56,60a.69.69,0,0,0-.47-.14,1.37,1.37,0,0,0-.43.07,1.13,1.13,0,0,0-.35.18l-.27-.58a1.7,1.7,0,0,1,.53-.24,2.38,2.38,0,0,1,.64-.08A1.41,1.41,0,0,1,56.59,59.52Zm-.67,1.87a.51.51,0,0,0,.22-.27v-.28h-.54q-.49,0-.49.32a.28.28,0,0,0,.12.24.53.53,0,0,0,.33.09.68.68,0,0,0,.35-.08Z"/><path class="cls-2" d="M58.2,61.84a1.34,1.34,0,0,1-.54-.49,1.44,1.44,0,0,1,0-1.44,1.34,1.34,0,0,1,.54-.49,1.64,1.64,0,0,1,.78-.18,1.51,1.51,0,0,1,.75.18,1.06,1.06,0,0,1,.47.51l-.61.33a.67.67,0,0,0-.61-.37.69.69,0,0,0-.51.2.82.82,0,0,0,0,1.1.69.69,0,0,0,.51.21.66.66,0,0,0,.64-.39l.61.33a1.09,1.09,0,0,1-.47.5A1.49,1.49,0,0,1,59,62,1.64,1.64,0,0,1,58.2,61.84Z"/><path class="cls-2" d="M63.25,60.85h-2a.64.64,0,0,0,.26.39.86.86,0,0,0,.51.15,1,1,0,0,0,.38-.07.91.91,0,0,0,.3-.2l.42.45A1.41,1.41,0,0,1,62,62a1.77,1.77,0,0,1-.82-.18,1.31,1.31,0,0,1-.54-.49,1.36,1.36,0,0,1-.19-.72,1.38,1.38,0,0,1,.19-.72,1.32,1.32,0,0,1,.52-.5,1.6,1.6,0,0,1,1.46,0,1.25,1.25,0,0,1,.51.49,1.46,1.46,0,0,1,.18.74A1.87,1.87,0,0,1,63.25,60.85ZM61.4,60a.64.64,0,0,0-.22.41h1.33a.65.65,0,0,0-.22-.41.67.67,0,0,0-.44-.16.67.67,0,0,0-.44.16Z"/><path class="cls-2" d="M64,61.94a1.72,1.72,0,0,1-.51-.21l.26-.57a1.64,1.64,0,0,0,.44.19,1.83,1.83,0,0,0,.5.07q.5,0,.5-.25A.17.17,0,0,0,65.1,61a2,2,0,0,0-.42-.08,4,4,0,0,1-.55-.12.82.82,0,0,1-.38-.23.66.66,0,0,1-.16-.48.74.74,0,0,1,.15-.45,1,1,0,0,1,.44-.31,1.85,1.85,0,0,1,.67-.11,2.65,2.65,0,0,1,.58.07,1.64,1.64,0,0,1,.47.17l-.26.56a1.56,1.56,0,0,0-.78-.2.82.82,0,0,0-.38.07.21.21,0,0,0-.12.18.18.18,0,0,0,.14.17,2.38,2.38,0,0,0,.44.1,4.63,4.63,0,0,1,.54.12.82.82,0,0,1,.37.23.65.65,0,0,1,.16.46.72.72,0,0,1-.15.45,1,1,0,0,1-.44.3,2,2,0,0,1-.69.11A2.63,2.63,0,0,1,64,61.94Z"/><path class="cls-2" d="M66.41,60.07a.48.48,0,0,1-.14-.35.46.46,0,0,1,.14-.35.52.52,0,0,1,.7,0,.46.46,0,0,1,.14.35.48.48,0,0,1-.14.35A.5.5,0,0,1,66.41,60.07Zm0,1.81a.48.48,0,0,1-.14-.35.46.46,0,0,1,.14-.35.52.52,0,0,1,.7,0,.46.46,0,0,1,.14.35.48.48,0,0,1-.14.35A.5.5,0,0,1,66.41,61.88Z"/><path class="cls-2" d="M69.91,59.21a.48.48,0,0,1,.07.26.47.47,0,0,1-.14.35.52.52,0,0,1-.7,0,.47.47,0,0,1-.14-.35.82.82,0,0,1,0-.2,2.26,2.26,0,0,1,.11-.3l.3-.72h.5l-.22.82A.44.44,0,0,1,69.91,59.21Zm1.19,0a.48.48,0,0,1,.07.26.47.47,0,0,1-.14.35.52.52,0,0,1-.7,0,.47.47,0,0,1-.14-.35.82.82,0,0,1,0-.2,2.25,2.25,0,0,1,.11-.3l.3-.72h.53l-.22.82a.44.44,0,0,1,.22.13Z"/><path class="cls-2" d="M73.86,60.08a1,1,0,0,1,.35.82,1.1,1.1,0,0,1-.16.58,1.13,1.13,0,0,1-.49.42,1.87,1.87,0,0,1-.82.16A2.77,2.77,0,0,1,72,62a1.88,1.88,0,0,1-.61-.28l.32-.62a1.54,1.54,0,0,0,.46.23,1.77,1.77,0,0,0,.54.08.82.82,0,0,0,.49-.12.39.39,0,0,0,.17-.34.38.38,0,0,0-.18-.35,1.27,1.27,0,0,0-.64-.12h-.9l.18-2H74v.66H72.53l-.06.67h.3A1.69,1.69,0,0,1,73.86,60.08Z"/><path class="cls-2" d="M75.36,58.34a.47.47,0,0,1,.14.35.82.82,0,0,1,0,.21,2.65,2.65,0,0,1-.11.3l-.3.72h-.5l.21-.82a.44.44,0,0,1-.2-.16.49.49,0,0,1-.07-.26.47.47,0,0,1,.14-.35.49.49,0,0,1,.35-.13A.48.48,0,0,1,75.36,58.34Zm1.19,0a.47.47,0,0,1,.14.35.82.82,0,0,1,0,.21,2.63,2.63,0,0,1-.11.3l-.3.72h-.5L76,59.1a.43.43,0,0,1-.2-.16.49.49,0,0,1-.07-.26.46.46,0,0,1,.14-.35.49.49,0,0,1,.35-.13.48.48,0,0,1,.32.15Z"/><path class="cls-2" d="M22,66.34v.58h-.16a.21.21,0,0,0-.16.06.25.25,0,0,0-.06.17v.91a.89.89,0,0,1-.24.67,1,1,0,0,1-.71.23h-.3v-.62h.09a.36.36,0,0,0,.27-.1.38.38,0,0,0,.09-.28v-.82a.72.72,0,0,1,.08-.39.45.45,0,0,1,.25-.18.45.45,0,0,1-.25-.18.72.72,0,0,1-.08-.39v-.73a.38.38,0,0,0-.09-.28.36.36,0,0,0-.27-.1H20.4v-.61h.3a1,1,0,0,1,.71.23.89.89,0,0,1,.24.67v.91a.25.25,0,0,0,.06.17.21.21,0,0,0,.16.06Z"/></g></svg>