<svg id="Layer_1" data-name="Layer 1" xmlns="http://www.w3.org/2000/svg" viewBox="0 0 350.89 344"><defs><style>.demo-1{fill:#75c8f1;}.demo-2{fill:#fff;}.demo-3{fill:#832b94;}</style></defs><title>stats icons</title><ellipse class="demo-1" cx="173.56" cy="171.12" rx="154.72" ry="154.88"/><path class="demo-2" d="M315.94,59.6H204.62V35.75H180.77V59.6H69.45V223L49.57,238.5v59.64c68.9,10.61,134.14,11.41,194.81,0l-6.89-51.69h78.45Z"/><path class="demo-3" d="M209.8,51.12V32.28a4.38,4.38,0,0,0-4.38-4.38H179.31a4.38,4.38,0,0,0-4.38,4.38V51.12H61.59V221.61C49.16,227.24,42.41,236,42.34,246.82L39.9,299.09a4.31,4.31,0,0,0,3.51,4.36l2.11.45a478.3,478.3,0,0,0,99.22,10.45A478.3,478.3,0,0,0,244,303.9l2.12-.45a4.33,4.33,0,0,0,3.51-4.36l-2.45-52.27c-.12-20.24-21.8-26.57-30-28.95l-23.07-3.61a1.67,1.67,0,0,1-1.45-1.66l.59-21.76a1.56,1.56,0,0,1,.42-1,58.54,58.54,0,0,0,15.74-45.6c-2.73-29.74-28.57-53.45-60-55.15-36.94-2-67.68,26-67.68,60.59a59.54,59.54,0,0,0,20.53,44.57,65.52,65.52,0,0,0,43.19,16.13h.65a56.9,56.9,0,0,0,7.89-.62v14.88c-6.63,2-20.21,4.72-42.08-5.36a13,13,0,0,0-16.6,5c18.8,11.38,32.54,14.48,44.61,14.48,13.9,0,22.33-4.12,23-4.44l3.36-1.7v-36.3a2.41,2.41,0,0,0-3-2.36l-9.3,2.13a43.88,43.88,0,0,1-8.31.81,51.12,51.12,0,0,1-33.8-12.56,46.33,46.33,0,0,1-16-34.7c0-26.8,23.63-48.46,52.15-47.2,25.75,1.14,46.69,21.42,47.39,45.87a45.74,45.74,0,0,1-14.27,34.47l-1.48,1.43a1.63,1.63,0,0,0-.49,1.13L178.16,224a1.68,1.68,0,0,0,1.46,1.67l33.84,5.19C229.64,235.65,233,240.77,233,247l2.11,45a460.87,460.87,0,0,1-180.67,0l2.09-44.69V247c0-6.72,6.83-12,13.91-15.16a5.68,5.68,0,0,0,3.44-5.19V63.39H187.2V44.54a4.39,4.39,0,0,1,4.38-4.38h1.57a4.39,4.39,0,0,1,4.39,4.38V63.39H310.87V238.88H271.35a12.27,12.27,0,0,0-12.27,12.26h64.06v-200Z"/></svg>