<svg xmlns="http://www.w3.org/2000/svg" viewBox="0 0 131.92 131.92"><defs><style>.description-1{fill:#009ee3;}</style></defs><title>description</title><g id="Layer_2" data-name="Layer 2"><g id="Layer_1-2" data-name="Layer 1"><path class="description-1" d="M76.29,34.5v-8H67.05l1.36-1.89A3,3,0,0,0,69,22.87a3,3,0,1,0-6,0,3,3,0,0,0,.56,1.74l1.36,1.89H55.69V37.7h20.6Z"/><path class="description-1" d="M66,0a66,66,0,1,0,66,66A66,66,0,0,0,66,0ZM99.27,106.07a2.06,2.06,0,0,1-2.06,2.06H34.15a2.06,2.06,0,0,1-2.06-2.06V29.41a2.06,2.06,0,0,1,2.06-2.06H53.31V24.12h7.46a5.37,5.37,0,1,1,10.44,0h7.46v3.24H97.21a2.06,2.06,0,0,1,2.06,2.06Z"/><path class="description-1" d="M92.83,33.32H78.67v6.76H53.31V33.32H38.53a.7.7,0,0,0-.7.7v68.14a.7.7,0,0,0,.7.7h54.3a.7.7,0,0,0,.7-.7V34A.7.7,0,0,0,92.83,33.32ZM43.63,48.86a.36.36,0,0,1,.35-.35h5.21a.36.36,0,0,1,.35.35v5.21a.36.36,0,0,1-.35.35H44a.36.36,0,0,1-.35-.35Zm44.55,2.8v.67H53.79V51H88.18ZM43.63,60.72a.36.36,0,0,1,.35-.35h5.21a.36.36,0,0,1,.35.35v5.21a.36.36,0,0,1-.35.35H44a.36.36,0,0,1-.35-.35Zm44.55,2.8v.67H53.79V62.85H88.18Zm-44.55,9.2a.36.36,0,0,1,.35-.35h5.21a.36.36,0,0,1,.35.35v5.21a.36.36,0,0,1-.35.35H44a.36.36,0,0,1-.35-.35Zm44.55,2.8v.67H53.79V74.85H88.18Zm-44.55,9.2a.36.36,0,0,1,.35-.35h5.21a.36.36,0,0,1,.35.35v5.21a.36.36,0,0,1-.35.35H44a.36.36,0,0,1-.35-.35Zm44.55,2.8v.67H53.79V86.85H88.18Z"/></g></g></svg>