<svg xmlns="http://www.w3.org/2000/svg" viewBox="0 0 131.92 131.92"><defs><style>.details-1{fill:#009ee3;}</style></defs><title>details</title><g id="Layer_2" data-name="Layer 2"><g id="Layer_1-2" data-name="Layer 1"><path class="details-1" d="M55.58,52.37a.68.68,0,0,0-.22,0H34.16a.68.68,0,0,0-.22,0l10.82,9.06Z"/><polygon class="details-1" points="56.07 70.91 56.07 54.14 46.06 62.53 56.07 70.91"/><path class="details-1" d="M27.11,95.58h77.7V46H27.11ZM98,50.43a1.88,1.88,0,0,1,1.86,1.9h-37A1.88,1.88,0,0,1,61,50.43ZM98,56a1.88,1.88,0,0,1,1.86,1.9h-37A1.88,1.88,0,0,1,61,56Zm0,5.58a1.88,1.88,0,0,1,1.86,1.9h-37A1.88,1.88,0,0,1,61,61.58Zm0,5.58a1.88,1.88,0,0,1,1.86,1.9h-37A1.88,1.88,0,0,1,61,67.15Zm0,5.57a1.88,1.88,0,0,1,1.86,1.9h-37A1.88,1.88,0,0,1,61,72.73ZM31.59,52.58h0V51.15a.72.72,0,0,1,.71-.72H57.22a.72.72,0,0,1,.71.72v1.42h0V72.47h0V73.9a.72.72,0,0,1-.71.72H32.31a.72.72,0,0,1-.71-.72V72.48h0V52.59ZM98,78.3a1.88,1.88,0,0,1,1.86,1.9H33a1.88,1.88,0,0,1-1.86-1.9Zm0,5.57a1.88,1.88,0,0,1,1.86,1.9H33a1.88,1.88,0,0,1-1.86-1.9Zm0,5.58a1.88,1.88,0,0,1,1.86,1.9H33a1.88,1.88,0,0,1-1.86-1.9Z"/><path class="details-1" d="M33.95,72.68a.68.68,0,0,0,.22,0h21.2a.68.68,0,0,0,.22,0L44.76,63.62Z"/><polygon class="details-1" points="33.46 54.14 33.46 70.91 43.46 62.53 33.46 54.14"/><path class="details-1" d="M27.11,41.6h77.7V36.34H27.11Zm73.38-4a1.46,1.46,0,1,1-1.44,1.46A1.45,1.45,0,0,1,100.49,37.62Zm-3.84,0a1.46,1.46,0,1,1-1.44,1.46A1.45,1.45,0,0,1,96.65,37.62Zm-3.84,0a1.46,1.46,0,1,1-1.44,1.46A1.45,1.45,0,0,1,92.81,37.62Z"/><path class="details-1" d="M66,0a66,66,0,1,0,66,66A66,66,0,0,0,66,0Zm43.21,99.34a.66.66,0,0,1-.65.66H23.41a.66.66,0,0,1-.65-.66V32.58a.66.66,0,0,1,.65-.66h85.11a.66.66,0,0,1,.65.66Z"/></g></g></svg>