<svg xmlns="http://www.w3.org/2000/svg" viewBox="0 0 201.66 83.94"><defs><style>.cls-1{fill:#1f9ad7;}.cls-2{fill:#662483;}</style></defs><title>devices</title><g id="Layer_4" data-name="Layer 4"><path class="cls-1" d="M94.09,5.08H14a5,5,0,0,0-5,5V73.79a5,5,0,0,0,5,5H94.09a5,5,0,0,0,5-5V10A5,5,0,0,0,94.09,5.08ZM14,9.56H94.09a.48.48,0,0,1,.48.48v6.42h-81V10A.48.48,0,0,1,14,9.56ZM94.09,74.27H14a.48.48,0,0,1-.48-.48V20.94h81V73.79A.48.48,0,0,1,94.09,74.27Z"/><path class="cls-1" d="M87,31.89H56.16a2.24,2.24,0,0,1,0-4.48H87a2.24,2.24,0,0,1,0,4.48Z"/><path class="cls-1" d="M87,42.77H56.16a2.24,2.24,0,0,1,0-4.48H87a2.24,2.24,0,0,1,0,4.48Z"/><path class="cls-1" d="M87,54.55H56.16a2.24,2.24,0,0,1,0-4.48H87a2.24,2.24,0,0,1,0,4.48Z"/><path class="cls-1" d="M143.39,48.42h-26a2.24,2.24,0,0,1,0-4.48h26a2.24,2.24,0,0,1,0,4.48Z"/><path class="cls-1" d="M143.39,56.42h-26a2.24,2.24,0,0,1,0-4.48h26a2.24,2.24,0,0,1,0,4.48Z"/><path class="cls-1" d="M87,65.79H21.16a2.24,2.24,0,1,1,0-4.48H87a2.24,2.24,0,0,1,0,4.48Z"/><path class="cls-1" d="M148.33,78.85H111.48c-2.05,0-3.49-2.07-3.49-5V10.57c0-3,1.43-5,3.49-5h36.85c2.05,0,3.49,2.06,3.49,5V73.83C151.82,76.79,150.39,78.85,148.33,78.85Zm-35.83-4.48h34.8a3.68,3.68,0,0,0,0-.55V10.57a3.75,3.75,0,0,0,0-.55h-34.8a3.75,3.75,0,0,0,0,.55V73.83A3.68,3.68,0,0,0,112.51,74.38ZM148.33,10h0Z"/><path class="cls-1" d="M149.58,19.39H110.64a2.24,2.24,0,1,1,0-4.48h38.95a2.24,2.24,0,0,1,0,4.48Z"/><path class="cls-1" d="M149.58,63.91H110.64a2.24,2.24,0,1,1,0-4.48h38.95a2.24,2.24,0,0,1,0,4.48Z"/><circle class="cls-1" cx="130.11" cy="68.84" r="3.64"/><path class="cls-1" d="M133.75,13.49h-7.28a1,1,0,1,1,0-2h7.28a1,1,0,0,1,0,2Z"/><path class="cls-2" d="M49.85,29.86a2.8,2.8,0,0,0-2.77-2.45H21.67a2.8,2.8,0,0,0-2.77,2.47,2.22,2.22,0,0,0,0,.24s0,.06,0,.1V52a2.81,2.81,0,0,0,2.81,2.81H47.08a2.8,2.8,0,0,0,2.77-2.47,2.22,2.22,0,0,0,0-.24s0-.06,0-.1V30.22s0-.08,0-.12A2.22,2.22,0,0,0,49.85,29.86ZM23.33,34.95l7.87,6.44-7.87,6.76Zm3.33-3.06h15.6l-7.62,6.54Zm8.06,12.38,7.36,6H27.71Zm3.45-3,7.24-6.22V47.23Z"/><path class="cls-2" d="M181.31,36.64a1.67,1.67,0,0,0,0-.19,1.12,1.12,0,0,0-.32-.91,1.08,1.08,0,0,0-.14-.09,1.71,1.71,0,0,0-1.23-.53H169.21a1.71,1.71,0,0,0-1.24.53,1.08,1.08,0,0,0-.16.11,1.13,1.13,0,0,0-.3.9,1.67,1.67,0,0,0,0,.18V47.19a1.71,1.71,0,0,0,.53,1.24,1.08,1.08,0,0,0,.1.15,1.14,1.14,0,0,0,.8.33l.09,0,.18,0h10.38a1.71,1.71,0,0,0,1.24-.53,1.08,1.08,0,0,0,.16-.11,1.13,1.13,0,0,0,.3-.9,1.67,1.67,0,0,0,0-.18Zm-11.52,2.41,3.14,3-3.14,3.19Zm1.39-1.84h6.55l-3.19,3.24Zm3.4,6.45,3.06,2.95h-6ZM176.18,42,179,39.15v5.63Z"/><path class="cls-2" d="M145.13,23.88a2,2,0,0,0-.28-.37,2.56,2.56,0,0,0-2-1H117.41a2.56,2.56,0,0,0-2.05,1,1.91,1.91,0,0,0-.51,1.44s0,.06,0,.09V38.9a2.57,2.57,0,0,0,2.56,2.57h25.42a2.56,2.56,0,0,0,2-1l0,0,.15-.2a1.93,1.93,0,0,0,.17-.23,2,2,0,0,0,.23-1s0-.06,0-.09V25.06s0,0,0-.07A2,2,0,0,0,145.13,23.88ZM118.84,28.2l7.44,4-7.44,4.18Zm5.26-1.72h12.32l-6,3.38Zm6.35,7.94,5.67,3H125Zm4.13-2.32,6.81-3.83v7.48Z"/><path class="cls-1" d="M185,58H163.76a2.83,2.83,0,0,1-2.83-2.83v-26a2.83,2.83,0,0,1,2.83-2.83H185a2.83,2.83,0,0,1,2.83,2.83v26A2.83,2.83,0,0,1,185,58Zm-19.64-4.48h18V30.85h-18Z"/><path class="cls-1" d="M182.33,29.85a2.24,2.24,0,0,1-2.2-1.83l-3.3-17.91H172L168.67,28a2.24,2.24,0,0,1-4.4-.81L167.8,8a2.84,2.84,0,0,1,2.79-2.38h7.62A2.84,2.84,0,0,1,181,8l3.53,19.2a2.24,2.24,0,0,1-2.2,2.64Z"/><path class="cls-1" d="M178.21,78.77H170.6a2.84,2.84,0,0,1-2.79-2.38l-3.53-19.2a2.24,2.24,0,0,1,4.4-.81L172,74.29h4.87l3.3-17.91a2.24,2.24,0,0,1,4.4.81L181,76.39A2.84,2.84,0,0,1,178.21,78.77Z"/><path class="cls-1" d="M190.88,46.24H188A1.14,1.14,0,0,1,188,44h2.36V39.46H188a1.14,1.14,0,0,1,0-2.29h2.91a1.74,1.74,0,0,1,1.73,1.73v5.6A1.73,1.73,0,0,1,190.88,46.24Zm0-6.78h0Z"/></g></svg>