<svg xmlns="http://www.w3.org/2000/svg" viewBox="0 0 76.17 95.57"><defs><style>.cls-1{fill:#009ee2;}</style></defs><title>family</title><g id="Layer_2" data-name="Layer 2"><g id="Layer_1-2" data-name="Layer 1"><path class="cls-1" d="M51.69.37c-2.46-.78-5.58.39-8,3a1.67,1.67,0,0,0-.43,1.3A1.63,1.63,0,0,0,44,5.81L44.2,6l.16-.22c1.88-2.65,4.71-4.11,6.73-3.47,1.61.51,2.51,2.39,2.51,5.3,0,5-5.21,9.51-8.67,12.51-1,.88-1.84,1.59-2.41,2.21-.42-.41-1-.88-1.61-1.45C37.64,18,32.16,13.19,32.16,7.59c0-3.06,1-5.06,2.77-5.5,2.19-.54,4.93,1.28,6.54,4.33,0,0,.09.19.39.93a1.71,1.71,0,0,0,2.23.94l.25-.1-.1-.25L44,7.41c-.36-.92-.65-1.64-.8-1.93C41.16,1.57,37.55-.62,34.44.15c-1.29.32-4.28,1.68-4.28,7.43,0,6.51,5.91,11.67,9.44,14.75C40.36,23,41,23.58,41.4,24a1.57,1.57,0,0,0,1.15.5h.05a1.56,1.56,0,0,0,1.16-.58,25.12,25.12,0,0,1,2.48-2.32c3.73-3.24,9.36-8.12,9.35-14C55.59,2.38,53.15.83,51.69.37Z"/><path class="cls-1" d="M34,49.71a11.59,11.59,0,0,0-2.19-1.27A11.72,11.72,0,0,0,27,47.52H25.78v-4a15.39,15.39,0,0,0,9-14A15.33,15.33,0,0,0,18.6,14.26a15.33,15.33,0,0,0-.92,30.54l-.07,3.12A5.86,5.86,0,0,1,13.77,47l-.38-.21H11.3a10.86,10.86,0,0,0-8.11,3.75A12.21,12.21,0,0,0,.06,60L0,95.57H32l-.38-13.36a4.91,4.91,0,0,1,1.32-3.81,6.08,6.08,0,0,1,4.44-2h3.07l-.15-7.95-1.17-.37c-3.18-1-4.73-4.93-4.56-8.12a8.27,8.27,0,0,1,7.75-7.75,8.18,8.18,0,0,1,6.54,2.7,9.76,9.76,0,0,1,2.05,6.61,7.6,7.6,0,0,1-4.83,6.6L45,68.51v7.87h4a4.49,4.49,0,0,1,3.44,1.49,5.61,5.61,0,0,1,1.28,4.38l-.2,13.33H76.17l-.05-33.48a10.45,10.45,0,0,0-2.67-8,9.31,9.31,0,0,0-7-3.21H64.68l-.38.21a4.64,4.64,0,0,1-1.65.54l0-2a9.54,9.54,0,0,0,3.1-1.22,13,13,0,0,0-5.27-24.61,13,13,0,0,0-13.73,13,13.08,13.08,0,0,0,7.46,11.79V51.5a3.35,3.35,0,0,0,3.41,3.34h0V46.26L56.78,46a9.93,9.93,0,0,1-6.68-9.22,9.63,9.63,0,0,1,10.15-9.56,9.63,9.63,0,0,1,3.85,18.2l-.09,0a6.33,6.33,0,0,1-3.25,1l-1.64.09.18,8.31,1.46.18a8.55,8.55,0,0,0,4.76-.72h1a6,6,0,0,1,4.43,2.09,7.13,7.13,0,0,1,1.81,5.42l.15,30.38H57.08v-9.6a9,9,0,0,0-2.13-7A7.92,7.92,0,0,0,49,73h-.61V70.83a10.94,10.94,0,0,0,5.87-8.47,13.65,13.65,0,0,0-3.15-10.06,11.5,11.5,0,0,0-8.95-3.5,11.71,11.71,0,0,0-11,11c-.22,4.19,1.7,9.1,5.77,11.08L37,73a9.57,9.57,0,0,0-6.57,3.14,8.27,8.27,0,0,0-2.18,6.45l.1,9.6H3.26l.2-32.41v-.11a8.93,8.93,0,0,1,2.26-6.79,7.5,7.5,0,0,1,5.58-2.62h1.22a8.62,8.62,0,0,0,7.37.57L21,50.4l.21-8.9H19.42a11.92,11.92,0,1,1,11.92-12,12.24,12.24,0,0,1-8.2,11.41l-.78.28v9.73h5.24a6,6,0,0,1,1.24.16A5.62,5.62,0,0,0,34,49.71Z"/></g></g></svg>