<svg xmlns="http://www.w3.org/2000/svg" xmlns:xlink="http://www.w3.org/1999/xlink" viewBox="0 0 605.24 281.81"><defs><style>.cls-1{fill:#f6a635;}.cls-2{fill:#e63b2e;}.cls-3{fill:url(#linear-gradient);}.cls-4{fill:url(#linear-gradient-2);}.cls-5{fill:#009ee3;}.cls-6{fill:#0067b1;}.cls-7{fill:#e11482;}.cls-8{fill:#74cbf3;}.cls-9{fill:#931e80;}.cls-10{fill:#433d90;}</style><linearGradient id="linear-gradient" x1="450.77" y1="146.8" x2="667.15" y2="146.8" gradientTransform="matrix(1, 0, 0, -1, -374.44, 224.9)" gradientUnits="userSpaceOnUse"><stop offset="0" stop-color="#525252"/><stop offset="0.07" stop-color="#787878"/><stop offset="0.15" stop-color="#9c9c9c"/><stop offset="0.24" stop-color="#bbb"/><stop offset="0.33" stop-color="#d4d4d4"/><stop offset="0.44" stop-color="#e7e7e7"/><stop offset="0.56" stop-color="#f5f5f5"/><stop offset="0.71" stop-color="#fdfdfd"/><stop offset="1" stop-color="#fff"/></linearGradient><linearGradient id="linear-gradient-2" x1="450.79" y1="19.54" x2="450.79" y2="223.15" xlink:href="#linear-gradient"/></defs><title>favicon</title><g id="Layer_2" data-name="Layer 2"><g id="Layer_1-2" data-name="Layer 1"><path class="cls-1" d="M383.89,207.53h160c45.38,0-8.77,24.21-8.77-16.7v12.35l18.57,18,13.16,7c9.64-2-2.16,14.75,6.61,26.07,5.57,7.18,26.67,25.55,27.75,27.32H488.71C443.32,281.62,383.89,248.44,383.89,207.53Z"/><path class="cls-2" d="M569.41,221.31l5,8.35c9.64-2,6,13.44,14.76,24.78,5.56,7.2,14.92,25.31,16,27.08l-2.19.29c-15.7-.91-144.38,4.62-171.58-74.21H559.62"/><path class="cls-3" d="M267.24,21.21A76.05,76.05,0,0,0,216.33,1.75h-140V78.1h140a76.36,76.36,0,0,1,76.38,76.34V78.1A76.16,76.16,0,0,0,267.24,21.21Z"/><path class="cls-4" d="M76.35,205.36V78.1A76.36,76.36,0,0,1,152.71,1.75H76.35A76.38,76.38,0,0,0,0,78.1V129A76.36,76.36,0,0,0,76.35,205.36Z"/><path class="cls-5" d="M267.24,21.21A76.05,76.05,0,0,0,216.33,1.75h-140V78.1h140c.34.34,76.36,82.78,76.36,125V78.1A76.16,76.16,0,0,0,267.24,21.21Z"/><path class="cls-6" d="M76.35,205.36V77.73c-.27.27,81.74-76,81.72-75.94s.06,0,0,0H76.35A76.38,76.38,0,0,0,0,78.14v50.91C0,171.17,17,205.36,76.35,205.36Z"/><path class="cls-7" d="M475.24.06l130,281.44h0c.15-.39-77.69.38-114.21-74.48L428.95,73C413.24,39,437.95.08,475.26.08Z"/><path class="cls-8" d="M216.33,78.1V205c0,49.47-73.89,76.68-116.06,76.68H216.33a76.38,76.38,0,0,0,76.38-76.35v-50.9S216.33,78,216.33,78.1Z"/><path class="cls-9" d="M475.87.09S382-6.55,341.12,93.48C288.71,221.8,254.44,281.62,125.33,281.62h121c65.61,0,104.8-24.09,141.8-96.53C422.95,117,427.11,43,475.87.09Z"/><path class="cls-8" d="M191.55,30.24"/><path class="cls-2" d="M504.44,177.26"/><path class="cls-2" d="M284.71,192.06"/><path class="cls-8" d="M249.16,88.87"/><path class="cls-10" d="M0,190.25c0,69,57,91.46,76.65,91.46h59.24c42.84,0,80.35-43.26,80.35-76.35H76.44c.27.27-76.39-88.14-76.39-88.14"/></g></g></svg>