<svg xmlns="http://www.w3.org/2000/svg" viewBox="0 0 88.16 69.46"><defs><style>.fully-booked-1{fill:#1c9ad7;}.fully-booked-2{fill:none;}</style></defs><title>fully-booked</title><g id="Layer_2" data-name="Layer 2"><g id="Layer_1-2" data-name="Layer 1"><path class="fully-booked-1" d="M87.5,69.46H.66A.67.67,0,0,1,0,68.79V17.68H0a4.48,4.48,0,0,1,4.44,4.51V64.95H83.72V4.51H4.44V9.88H76.57A4.48,4.48,0,0,1,81,14.39H.66A.67.67,0,0,1,0,13.71V.68A.67.67,0,0,1,.66,0H87.5a.67.67,0,0,1,.66.68V68.79A.67.67,0,0,1,87.5,69.46Z"/><ellipse class="fully-booked-1" cx="79.31" cy="7.31" rx="1.47" ry="1.49"/><ellipse class="fully-booked-1" cx="75.39" cy="7.31" rx="1.47" ry="1.49"/><ellipse class="fully-booked-1" cx="71.47" cy="7.31" rx="1.47" ry="1.49"/><path class="fully-booked-1" d="M78.7,20.83H40.93A1.92,1.92,0,0,1,39,18.89H76.81a1.92,1.92,0,0,1,1.89,1.94Z"/><path class="fully-booked-1" d="M14.85,40.24l.31,1.59,2.78-.54.22,1.11-2.78.54.43,2.19-1.39.27-1.17-6,4.54-.89L18,39.63Z"/><path class="fully-booked-1" d="M23.42,38.85l.9,4.61-1.27.25-.11-.55a1.81,1.81,0,0,1-.54.58,2,2,0,0,1-.77.31,2,2,0,0,1-1.54-.24,2.12,2.12,0,0,1-.83-1.45l-.51-2.61,1.34-.26.47,2.41q.22,1.11,1.15.93a1,1,0,0,0,.71-.46,1.35,1.35,0,0,0,.11-1l-.45-2.28Z"/><path class="fully-booked-1" d="M24.32,36.86l1.34-.26L26.91,43l-1.34.26Z"/><path class="fully-booked-1" d="M26.9,36.36l1.34-.26,1.24,6.36-1.34.26Z"/><path class="fully-booked-1" d="M34.41,36.7,33.28,42a2.45,2.45,0,0,1-.57,1.28,2,2,0,0,1-1.06.55,2.39,2.39,0,0,1-.73,0,1.6,1.6,0,0,1-.63-.2l.3-1a1.18,1.18,0,0,0,.4.14,1.13,1.13,0,0,0,.41,0,.72.72,0,0,0,.42-.22A1.15,1.15,0,0,0,32,42v0l-2.91-4.26,1.38-.27,1.91,2.88L33.12,37Z"/><path class="fully-booked-1" d="M43.09,37.12a1.53,1.53,0,0,1,.48.88,1.41,1.41,0,0,1-.38,1.33,3.19,3.19,0,0,1-1.7.77l-3.1.61-1.17-6,2.93-.57a2.92,2.92,0,0,1,1.77.09,1.36,1.36,0,0,1,.81,1,1.47,1.47,0,0,1-.54,1.48A1.61,1.61,0,0,1,43.09,37.12Zm-4.3-1.63.28,1.41,1.38-.27a1.42,1.42,0,0,0,.75-.33.61.61,0,0,0,.16-.58.6.6,0,0,0-.37-.48,1.45,1.45,0,0,0-.81,0ZM42,38.74a.63.63,0,0,0,.17-.61q-.15-.75-1.25-.53l-1.62.32.29,1.48,1.62-.32A1.57,1.57,0,0,0,42,38.74Z"/><path class="fully-booked-1" d="M45.68,39a2.3,2.3,0,0,1-1.07-.67,2.52,2.52,0,0,1-.48-2.45,2.31,2.31,0,0,1,.74-1,3,3,0,0,1,2.61-.51,2.31,2.31,0,0,1,1.07.67A2.52,2.52,0,0,1,49,37.51a2.31,2.31,0,0,1-.74,1,3,3,0,0,1-2.61.51Zm1.93-1.56a1.5,1.5,0,0,0-.36-1.86,1.14,1.14,0,0,0-.91-.18,1.15,1.15,0,0,0-.78.51,1.49,1.49,0,0,0,.36,1.86,1.15,1.15,0,0,0,.92.18A1.14,1.14,0,0,0,47.61,37.48Z"/><path class="fully-booked-1" d="M51.3,37.95a2.3,2.3,0,0,1-1.07-.67,2.52,2.52,0,0,1-.48-2.45,2.31,2.31,0,0,1,.74-1,3,3,0,0,1,2.61-.51,2.31,2.31,0,0,1,1.07.67,2.52,2.52,0,0,1,.48,2.45,2.31,2.31,0,0,1-.74,1,3,3,0,0,1-2.61.51Zm1.93-1.56a1.5,1.5,0,0,0-.36-1.86,1.14,1.14,0,0,0-.91-.18,1.15,1.15,0,0,0-.78.51,1.49,1.49,0,0,0,.36,1.86,1.15,1.15,0,0,0,.92.18A1.14,1.14,0,0,0,53.23,36.38Z"/><path class="fully-booked-1" d="M57.7,35.06l-.52.76L57.41,37l-1.34.26L54.83,30.9l1.34-.26.7,3.6L58.47,32l1.59-.31L58.52,34l2.61,2.25-1.62.32Z"/><path class="fully-booked-1" d="M65.65,33.38l-3.49.68a1.11,1.11,0,0,0,.58.59,1.5,1.5,0,0,0,.92.08,1.8,1.8,0,0,0,.62-.23,1.57,1.57,0,0,0,.45-.44l.86.63a2.44,2.44,0,0,1-1.76,1.12,3.06,3.06,0,0,1-1.44,0,2.27,2.27,0,0,1-1.09-.66,2.37,2.37,0,0,1-.57-1.16,2.4,2.4,0,0,1,.08-1.28,2.3,2.3,0,0,1,.72-1,2.79,2.79,0,0,1,2.48-.5,2.17,2.17,0,0,1,1,.67,2.54,2.54,0,0,1,.56,1.2S65.63,33.16,65.65,33.38Zm-3.42-.87a1.11,1.11,0,0,0-.24.78l2.27-.44a1.13,1.13,0,0,0-.51-.63,1.15,1.15,0,0,0-.81-.11A1.17,1.17,0,0,0,62.23,32.51Z"/><path class="fully-booked-1" d="M70.4,27.85l1.24,6.36-1.28.25-.1-.53a1.8,1.8,0,0,1-1.32.88,2.44,2.44,0,0,1-1.24-.06,2.13,2.13,0,0,1-1-.67,2.81,2.81,0,0,1-.49-2.5,2.13,2.13,0,0,1,.66-1A2.44,2.44,0,0,1,68,30.06a1.79,1.79,0,0,1,1.49.29l-.44-2.24Zm-.67,5.31a1.49,1.49,0,0,0-.36-1.86,1.22,1.22,0,0,0-1.69.33A1.49,1.49,0,0,0,68,33.49a1.22,1.22,0,0,0,1.69-.33Z"/><path class="fully-booked-1" d="M77.19,38.45l-66.42,13a1.31,1.31,0,0,1-1.54-1L6.68,37.35a1.31,1.31,0,0,1,1-1.54l66.42-13a1.31,1.31,0,0,1,1.54,1l2.55,13.05A1.31,1.31,0,0,1,77.19,38.45Zm-65,10.81L75,37a1.31,1.31,0,0,0,1-1.54L74.21,26a1.31,1.31,0,0,0-1.54-1L9.89,37.28a1.31,1.31,0,0,0-1,1.54l1.84,9.41A1.31,1.31,0,0,0,12.24,49.26Z"/><path class="fully-booked-2" d="M33.49,20.87a.69.69,0,0,0-.22,0H11.64a.69.69,0,0,0-.22,0l11,9.25Z"/><polygon class="fully-booked-2" points="23.78 31.23 27.02 33.95 33.99 32.59 33.99 22.68 23.78 31.23"/><polygon class="fully-booked-2" points="18.57 35.6 24.87 34.37 22.45 32.34 18.57 35.6"/><polygon class="fully-booked-2" points="10.92 22.68 10.92 37.09 15.11 36.28 21.13 31.23 10.92 22.68"/><path class="fully-booked-1" d="M74.3,26l.09.47H78.7a1.92,1.92,0,0,0-1.89-1.94H39a1.92,1.92,0,0,0,1.89,1.94H65.05L72.76,25A1.31,1.31,0,0,1,74.3,26Z"/><path class="fully-booked-1" d="M76.81,30.26H75.12l.38,1.94h3.2A1.92,1.92,0,0,0,76.81,30.26Z"/><path class="fully-booked-1" d="M39,30.26a1.94,1.94,0,0,0,.47,1.25l6.38-1.25Z"/><path class="fully-booked-1" d="M75.1,37l-4.6.9h8.2a1.92,1.92,0,0,0-1.89-1.94h-.67A1.31,1.31,0,0,1,75.1,37Z"/><path class="fully-booked-1" d="M78.7,43.57a1.92,1.92,0,0,0-1.89-1.94H51.34l-9.92,1.94Z"/><path class="fully-booked-1" d="M10.78,48.23l-.18-.91H8.56a1.92,1.92,0,0,0,1.89,1.94H12.3A1.31,1.31,0,0,1,10.78,48.23Z"/><path class="fully-booked-1" d="M78.7,49.26a1.92,1.92,0,0,0-1.89-1.94H22.25l-9.92,1.94Z"/><path class="fully-booked-1" d="M76.81,53H8.56a1.92,1.92,0,0,0,1.89,1.94H78.7A1.92,1.92,0,0,0,76.81,53Z"/><path class="fully-booked-1" d="M76.81,58.7H8.56a1.92,1.92,0,0,0,1.89,1.94H78.7A1.92,1.92,0,0,0,76.81,58.7Z"/><path class="fully-booked-1" d="M10,37.28l.94-.18V22.67l10.21,8.55-6,5,3.46-.68,3.89-3.26,2.42,2L27,33.95l-3.24-2.72L34,22.67v9.91l1.89-.37V21.09h0V19.62a.73.73,0,0,0-.72-.74H9.75a.73.73,0,0,0-.72.74v1.45H9v17A1.29,1.29,0,0,1,10,37.28Zm1.66-16.45H33.27a.69.69,0,0,1,.22,0l-11,9.25-11-9.25A.69.69,0,0,1,11.64,20.83Z"/><path class="fully-booked-1" d="M9,41.37H9v1.45a.73.73,0,0,0,.72.74h.13L9,39.24Z"/><path class="fully-booked-1" d="M12.32,49.26h0Z"/><path class="fully-booked-1" d="M8.94,38.82l.08.42V38.11A1.27,1.27,0,0,0,8.94,38.82Z"/></g></g></svg>