<svg xmlns="http://www.w3.org/2000/svg" viewBox="0 0 113.39 99.21"><defs><style>.cls-1,.cls-2{fill:#1f9ad7;}.cls-2{fill-rule:evenodd;}.cls-3{fill:#662483;}</style></defs><title>github</title><g id="Layer_7" data-name="Layer 7"><path class="cls-1" d="M96.74,12.77H16.65a5,5,0,0,0-5,5V81.48a5,5,0,0,0,5,5H96.74a5,5,0,0,0,5-5V17.73A5,5,0,0,0,96.74,12.77ZM16.65,17.25H96.74a.48.48,0,0,1,.48.48v6.42h-81V17.73A.48.48,0,0,1,16.65,17.25ZM96.74,82H16.65a.48.48,0,0,1-.48-.48V28.63h81V81.48A.48.48,0,0,1,96.74,82Z"/><path class="cls-1" d="M89.64,39.58H58.81a2.24,2.24,0,0,1,0-4.48H89.64a2.24,2.24,0,0,1,0,4.48Z"/><path class="cls-1" d="M89.64,50.47H58.81a2.24,2.24,0,0,1,0-4.48H89.64a2.24,2.24,0,0,1,0,4.48Z"/><path class="cls-1" d="M89.64,62.25H58.81a2.24,2.24,0,0,1,0-4.48H89.64a2.24,2.24,0,0,1,0,4.48Z"/><path class="cls-1" d="M89.64,73.49H58.81a2.24,2.24,0,0,1,0-4.48H89.64a2.24,2.24,0,0,1,0,4.48Z"/><path class="cls-2" d="M36.86,34.5a14.18,14.18,0,0,0-4.48,27.64c.71.13,1-.31,1-.68s0-1.46,0-2.64c-3.95.86-4.78-1.67-4.78-1.67A3.76,3.76,0,0,0,27,55.07c-1.29-.88.1-.86.1-.86a3,3,0,0,1,2.17,1.46,3,3,0,0,0,4.13,1.18,3,3,0,0,1,.9-1.9c-3.15-.36-6.46-1.57-6.46-7a5.49,5.49,0,0,1,1.46-3.81,5.1,5.1,0,0,1,.14-3.75s1.19-.38,3.9,1.45a13.45,13.45,0,0,1,7.1,0c2.71-1.83,3.9-1.45,3.9-1.45a5.09,5.09,0,0,1,.14,3.75,5.48,5.48,0,0,1,1.46,3.81c0,5.45-3.32,6.65-6.48,7a3.39,3.39,0,0,1,1,2.63c0,1.9,0,3.42,0,3.89s.26.82,1,.68A14.18,14.18,0,0,0,36.86,34.5Z"/><path class="cls-1" d="M28.05,54.86c0,.07-.14.09-.24,0s-.16-.14-.13-.21.14-.09.24,0,.16.14.13.21Zm-.17-.13"/><path class="cls-1" d="M28.63,55.5c-.07.06-.2,0-.29-.07a.22.22,0,0,1,0-.29c.07-.06.2,0,.29.07s.11.23,0,.29Zm-.14-.15"/><path class="cls-1" d="M29.18,56.32c-.09.06-.23,0-.32-.12s-.09-.28,0-.34.23,0,.32.12.09.28,0,.34Zm0,0"/><path class="cls-1" d="M30,57.11c-.08.09-.24.06-.36-.05a.27.27,0,0,1-.08-.36c.08-.09.25-.06.37.05s.16.28.08.36Zm0,0"/><path class="cls-1" d="M31,57.57c0,.11-.19.16-.35.11s-.27-.18-.23-.29.19-.16.36-.11.27.18.23.29Zm0,0"/><path class="cls-1" d="M32.17,57.65c0,.12-.13.21-.3.22s-.31-.09-.31-.21.13-.21.3-.22.31.09.31.21Zm0,0"/><path class="cls-1" d="M33.25,57.47c0,.11-.1.23-.26.26s-.32,0-.34-.15.1-.23.26-.26.32,0,.34.16Zm0,0"/><path class="cls-1" d="M45.36,67.27h-17a.52.52,0,0,0-.52.52v5.07a.52.52,0,0,0,.52.52h17a.52.52,0,0,0,.52-.52V67.79A.52.52,0,0,0,45.36,67.27ZM34.15,70.93a1,1,0,0,1-.39.39,1.09,1.09,0,0,1-.55.14.83.83,0,0,1-.65-.26v1h-.62V69.27h.6v.25a.83.83,0,0,1,.68-.28,1.1,1.1,0,0,1,.55.14,1,1,0,0,1,.39.39,1.28,1.28,0,0,1,0,1.16Zm2.72.49h-.59v-.26a.84.84,0,0,1-.3.21.94.94,0,0,1-.37.07.91.91,0,0,1-.67-.24,1,1,0,0,1-.25-.72V69.27h.62v1.12q0,.52.44.52a.47.47,0,0,0,.36-.15.61.61,0,0,0,.14-.43V69.27h.62Zm2.2-.3a.77.77,0,0,1-.35.24,1.58,1.58,0,0,1-.55.09,2.1,2.1,0,0,1-.52-.07,1.37,1.37,0,0,1-.41-.17l.21-.45a1.31,1.31,0,0,0,.35.15,1.44,1.44,0,0,0,.4.06c.26,0,.4-.06.4-.2a.14.14,0,0,0-.11-.13,1.55,1.55,0,0,0-.33-.07,3.21,3.21,0,0,1-.44-.09.68.68,0,0,1-.3-.18.52.52,0,0,1-.13-.38.59.59,0,0,1,.12-.36.76.76,0,0,1,.34-.25,1.47,1.47,0,0,1,.53-.09,2.11,2.11,0,0,1,.45,0,1.27,1.27,0,0,1,.37.14l-.21.44a1.24,1.24,0,0,0-.62-.16.63.63,0,0,0-.3.06.17.17,0,0,0-.1.14A.14.14,0,0,0,38,70a2,2,0,0,0,.34.08l.43.09a.64.64,0,0,1,.29.18.51.51,0,0,1,.12.37A.57.57,0,0,1,39.07,71.12Zm2.7.3h-.62V70.28A.56.56,0,0,0,41,69.9a.41.41,0,0,0-.32-.13.5.5,0,0,0-.38.15.61.61,0,0,0-.14.43v1.06h-.62v-3h.62v1a.82.82,0,0,1,.3-.19,1.09,1.09,0,0,1,.38-.07.89.89,0,0,1,.65.24,1,1,0,0,1,.25.71Z"/><path class="cls-1" d="M33.11,69.75a.52.52,0,0,0-.39.16.69.69,0,0,0,0,.87.56.56,0,0,0,.79,0,.69.69,0,0,0,0-.87A.52.52,0,0,0,33.11,69.75Z"/><path class="cls-3" d="M55.49,73.25l-13.18-5a.45.45,0,0,0-.59.59l5,13.17a.47.47,0,0,0,.88,0l1.22-4.51,3.39,3.39a1.49,1.49,0,1,0,2.11-2.11L51,75.34l4.51-1.21A.47.47,0,0,0,55.49,73.25Z"/></g></svg>