<svg xmlns="http://www.w3.org/2000/svg" viewBox="0 0 537.86 58.5"><defs><style>.cls-1{fill:#fff;}</style></defs><title>hero-mobile</title><g id="Layer_2" data-name="Layer 2"><g id="Layer_1-2" data-name="Layer 1"><path class="cls-1" d="M523.34,0H0V44H14.53V58.5H29.44V44H43.58V58.5H73V44h29.05V29.44h14.14V58.5h14.92V44h14.14V58.5h14.92V44h29V29.44h14.14V58.5h14.92V29.44h14.14V44h14.92V29.44h14.14V58.5h14.92V44h14.13V58.5h14.92V44h14.13V58.5H334.5V44H349V14.92h14.14V44h14.53V58.5h29.44V44h14.52V29.44h14.14V44h14.53V58.5h14.92V44h14.53V29.44h14.14V58.5h14.92V44h14.14V58.5h14.92V43.58H523.34V29.44h14.53V0ZM334.11,43.58H320V29.44h14.14ZM305.05,14.92V43.58H290.92V14.92Zm-29.05,0V29.05H261.86V14.92Zm-29.05,0V29.05H232.81V14.92ZM159.79,43.58H145.65V29.44h14.14ZM130.73,14.92V29.05H116.6V14.92h14.14ZM29.05,29.44V43.58H14.92V29.44Zm.39-.39V14.92H43.58V29.05Zm29.05.39V14.92H72.63V43.58H58.5ZM87.55,14.92h14.13V29.05H87.55Zm87.16,0h14.14V29.05H174.71Zm333.71,0V29.05H494.28V14.92Zm-43.58,0V29.05H450.71V14.92Zm-72.63,0V29.05H378.08V14.92Zm.39,14.52h14.14V43.58H392.6Z"/></g></g></svg>