<svg xmlns="http://www.w3.org/2000/svg" viewBox="0 0 2820.45 2209.41"><defs><style>.cls-1{fill:#fff;}.cls-2{fill:#c01a7f;}</style></defs><title>hero-mask</title><g id="Layer_2" data-name="Layer 2"><g id="Layer_1-2" data-name="Layer 1"><path class="cls-1" d="M0,576.21l137.35,1V710l485.87.51,228.52,199.7q-.51-105.77-1-211.54l130.22-1.54-2.06-225.44-137.42-3.09q.26-70.26.51-140.51l140.51,2.06Q982.22,394,982,457.83l413.81-5.66,2.06-58.67L1174.46,222.1l-14.41-1V0H0ZM833.85,469.69l2,137.72L696.13,607l-1.57-138.9Z"/><path class="cls-1" d="M486.83,1478.46l-246,.51,1.54-238.3L134.78,1148V717.23H0V2209.41H873.78c-65.82-53.2-314.35-266.73-382.42-331C485,1866,488.34,1497.5,486.83,1478.46Z"/><path class="cls-2" d="M2818,1349.37l.05,18.4v-18.39Z"/><path class="cls-2" d="M2818.72,1592.1v4.32q.09-1.91.19-3.81C2818.84,1592.45,2818.78,1592.28,2818.72,1592.1Z"/><path class="cls-2" d="M2820.23,2133.24l.21,76.17v-88.87Q2820.34,2126.89,2820.23,2133.24Z"/></g></g></svg>