<svg xmlns="http://www.w3.org/2000/svg" viewBox="0 0 2820.45 2209.41"><defs><style>.cls-1{fill:#1e1e1e;}.cls-2{fill:#c01a7f;}.cls-3{fill:#603887;}.cls-4{fill:#c73c31;}.cls-5{fill:#4b84b8;}</style></defs><title>hero</title><g id="Layer_2" data-name="Layer 2"><g id="Layer_1-2" data-name="Layer 1"><path class="cls-1" d="M873.78,2209.41c-65.82-53.2-314.35-266.73-382.42-331-6.41-12.42-3-380.91-4.54-399.94l-246,.51,1.54-238.3L134.78,1148V717.23H0v-141l137.35,1V710l485.87.51,228.52,199.7-1-211.54,130.22-1.54-2.06-225.44-137.42-3.09q.26-70.26.51-140.51l140.51,2.06Q982.22,394,982,457.83l413.81-5.66,2.06-58.67L1174.46,222.1l-14.41-1V0L2814.27,3.36l6.18,2206.06"/><path class="cls-2" d="M696.13,607l-1.57-138.9,139.29,1.57,2,137.72"/><path class="cls-3" d="M158.72,578.67,160.47,391H349.14V578.67"/><path class="cls-4" d="M47.29,1477.47v197.14H241.87c-.58-62,.4-135.12-.18-197.14"/><rect class="cls-5" x="249.26" y="1675.9" width="141.71" height="141.71"/></g></g></svg>