<svg xmlns="http://www.w3.org/2000/svg" viewBox="0 0 211.2 201.56"><defs><style>.cls-1,.cls-2,.cls-3,.cls-4,.cls-6,.cls-7,.cls-8{fill:none;stroke:#1f9cd8;stroke-miterlimit:10;}.cls-1{stroke-width:6px;}.cls-2{stroke-width:8px;}.cls-3{stroke-width:2.19px;}.cls-4{stroke-width:1.74px;}.cls-5{fill:#1f9cd8;}.cls-6{stroke-width:4.23px;}.cls-7{stroke-width:1.59px;}.cls-8{stroke-width:1.22px;}.cls-9{fill:#be1622;}</style></defs><title>how-it-works</title><g id="Layer_2" data-name="Layer 2"><g id="Layer_1-2" data-name="Layer 1"><line class="cls-1" x1="92.36" y1="159.34" x2="103.62" y2="159.34"/><line class="cls-1" x1="74.12" y1="97.59" x2="74.12" y2="125.05"/><polyline class="cls-1" points="134.62 111.59 134.62 49.72 74.12 49.72 74.12 72.59"/><path class="cls-2" d="M134.62,111.59"/><path class="cls-1" d="M104.37,147.52a7,7,0,1,1,7-7v18.78h11.23"/><path class="cls-3" d="M158.5,41.62c-.34,4.66,2.58,11.41,5.38,14.49,3.74,4.11,14,9,17.81,5.52s-.08-14.14-3.82-18.25-14-9-17.81-5.52l6.33,7.21,3-.63-2.17,4.43,4.21-1.25-2,3.38,4-1-1.8,3.29,1.71-.59,5.16,5.41"/><path class="cls-4" d="M173.54,104.78a6.46,6.46,0,0,0-2.84-.75,7,7,0,1,0,6.48,7.15l-4.51-.13-2.18-.06,7.24-6.37-1.45-2.25-2.3-.07,0-2,6.93.21-.06,1.93-2.31-.07,4,5.93,6.07-5.67-2.26-5-3.87-.12,0-1.63,5,.15,6.82,15.66-6.69-.2a6.7,6.7,0,1,0,6.9-6.75,6.5,6.5,0,0,0-1.06.05"/><path class="cls-5" d="M123.49,81.73a1.2,1.2,0,0,1-.92-.43l-4.1-4.83L114,71.75l-6.08,6.44-5.26-4L95.9,81.08H84V64.17h0a2.4,2.4,0,0,1,2.33,2.47v12H95l7.51-7.7,5.23,4L114,68.25l6.17,6.54,2.16,2.54-.18-15.44H87.52a2.4,2.4,0,0,1-2.33-2.47h39.29v1.24l.24,19.75a1.31,1.31,0,0,1-.78,1.23A1.16,1.16,0,0,1,123.49,81.73Z"/><path class="cls-5" d="M124,93.32H86.24a1.56,1.56,0,0,1-1.52-1.61V88.92a1.56,1.56,0,0,1,1.52-1.61h34a2.4,2.4,0,0,1-2.33,2.47H87.05v1.06h34.63A2.4,2.4,0,0,1,124,93.32Z"/><path class="cls-5" d="M124,108.55H86.24a1.56,1.56,0,0,1-1.52-1.61v-2.79a1.56,1.56,0,0,1,1.52-1.61h34a2.4,2.4,0,0,1-2.33,2.47H87.05v1.06h34.63a2.4,2.4,0,0,1,2.33,2.47Z"/><path class="cls-5" d="M124,123.67H86.24a1.56,1.56,0,0,1-1.52-1.61v-2.79a1.56,1.56,0,0,1,1.52-1.61h34a2.4,2.4,0,0,1-2.33,2.47H87.05v1.06h34.63a2.4,2.4,0,0,1,2.33,2.47Z"/><path class="cls-6" d="M39.21,53.94a26.94,26.94,0,1,1,6.81-4l38.7,47.7"/><path class="cls-6" d="M155.29,105.87a26.93,26.93,0,1,1,.8,8l-29.21,4.73"/><polyline class="cls-7" points="19.71 27.41 20.73 29.95 16.85 31.52 15.26 27.59 13.33 28.36 11.6 24.07 13.53 23.3 11.94 19.36 15.82 17.79 17.58 22.14 28.6 17.78 26.81 13.35 30.7 11.78 32.29 15.72 34.21 14.94 35.95 19.23 34.02 20.01 35.61 23.95 31.72 25.52 29.97 21.17 18.98 25.6"/><polyline class="cls-7" points="27.27 37.68 26.19 40.19 22.34 38.53 24.02 34.63 22.11 33.81 23.95 29.56 25.85 30.39 27.53 26.49 31.38 28.15 29.52 32.45 40.37 37.22 42.26 32.84 46.11 34.5 44.43 38.4 46.34 39.22 44.51 43.47 42.6 42.65 40.92 46.54 37.07 44.88 38.93 40.58 28.05 35.88"/><path class="cls-8" d="M17.33,98.19c2.78,3.24,4.28,4.28,5.42,4.81.82.39,1.11-.26.82-1a13.19,13.19,0,0,0-2.84-3.76c-2.88-2.88-5.83-4.62-6.73-3.72s.7,4,3.59,6.86,6,4.49,6.86,3.59L44.87,84.54c-.47.47,1-1-4.24-6.16-2.88-2.88-5.78-4.71-6.68-3.81l-4.79,4.79c.9-.9,3.79.93,6.68,3.81a36.79,36.79,0,0,1,3.22,3.78l-2.61,2.61a36.79,36.79,0,0,0-3.22-3.78c-2.88-2.88-5.78-4.71-6.68-3.81l-4.91,4.91c.9-.9,3.79.93,6.68,3.81a36.79,36.79,0,0,1,3.22,3.78l-2.61,2.61a36.79,36.79,0,0,0-3.22-3.78c-2.88-2.88-5.78-4.71-6.68-3.81l-3.58,3.58"/><path class="cls-1" d="M94.17,169c3.82-9.66-6.81-19.43-14.48-19.43l-5-8.46a17.66,17.66,0,0,0,17.66-17.66H57l-.08,26.89,19.57,48.22h55.43l6.67-18.89,3.15-7.39a7.48,7.48,0,0,0,7.48-7.48h0a7.48,7.48,0,0,0-7.48-7.48H126a7.48,7.48,0,0,0-7.48,7.48h0a7.48,7.48,0,0,0,7.48,7.48H141.7"/><rect class="cls-1" x="126.39" y="115.61" width="14.96" height="30.63" rx="7.48" ry="7.48" transform="translate(2.94 264.79) rotate(-90)"/><rect class="cls-1" x="126.39" y="132.55" width="14.96" height="30.63" rx="7.48" ry="7.48" transform="translate(-14 281.73) rotate(-90)"/><path class="cls-9" d="M171.63,74.16a24.21,24.21,0,0,1-17.46-7.44L153,65.46l27.67-27.27a3.53,3.53,0,0,1,5,0h0L158,65.48a20.48,20.48,0,0,0,13.66,5.15h.07a20,20,0,0,0,10.39-2.79,20.77,20.77,0,0,0,10-21.26,20.15,20.15,0,0,0-3.8-9,20.64,20.64,0,0,0-16.62-8.35h-.06a19.84,19.84,0,0,0-9.71,2.4A20.8,20.8,0,0,0,150.94,50a20.59,20.59,0,0,0,1,6.26A3.85,3.85,0,0,1,150,60.91h0a24.21,24.21,0,0,1,21.52-35.18h.08a23.67,23.67,0,0,1,12.5,3.44,24.27,24.27,0,0,1,11.58,23.4,23.85,23.85,0,0,1-4.77,12,24.15,24.15,0,0,1-19.23,9.59Z"/><path class="cls-9" d="M29.31,113.88a24.1,24.1,0,0,1-17.38-7.41l-1.2-1.25L38.26,78.08a3.51,3.51,0,0,1,5,0h0L15.71,105.24a20.38,20.38,0,0,0,13.6,5.13h.07a20.59,20.59,0,0,0-.06-41.18h-.06A20.62,20.62,0,0,0,9.7,96.07a3.84,3.84,0,0,1-1.88,4.62h0A23.86,23.86,0,0,1,5.21,89.85a24.13,24.13,0,0,1,24-24.18h.08A24.13,24.13,0,0,1,53.22,92.88a23.74,23.74,0,0,1-4.79,11.58,24,24,0,0,1-19,9.42Z"/></g></g></svg>