<svg version="1.1" id="brand-one-fill" xmlns="http://www.w3.org/2000/svg" xmlns:xlink="http://www.w3.org/1999/xlink" x="0px" y="0px"
	 viewBox="0 0 512 512" style="enable-background:new 0 0 512 512;" xml:space="preserve">
<g>
	<path class="st1" d="M256,109.3c47.8,0,53.4,0.2,72.3,1c17.4,0.8,26.9,3.7,33.2,6.2c8.4,3.2,14.3,7.1,20.6,13.4
		c6.3,6.3,10.1,12.2,13.4,20.6c2.5,6.3,5.4,15.8,6.2,33.2c0.9,18.9,1,24.5,1,72.3s-0.2,53.4-1,72.3c-0.8,17.4-3.7,26.9-6.2,33.2
		c-3.2,8.4-7.1,14.3-13.4,20.6c-6.3,6.3-12.2,10.1-20.6,13.4c-6.3,2.5-15.8,5.4-33.2,6.2c-18.9,0.9-24.5,1-72.3,1s-53.4-0.2-72.3-1
		c-17.4-0.8-26.9-3.7-33.2-6.2c-8.4-3.2-14.3-7.1-20.6-13.4s-10.1-12.2-13.4-20.6c-2.5-6.3-5.4-15.8-6.2-33.2
		c-0.9-18.9-1-24.5-1-72.3s0.2-53.4,1-72.3c0.8-17.4,3.7-26.9,6.2-33.2c3.2-8.4,7.1-14.3,13.4-20.6s12.2-10.1,20.6-13.4
		c6.3-2.5,15.8-5.4,33.2-6.2C202.6,109.5,208.2,109.3,256,109.3 M256,77.1c-48.6,0-54.7,0.2-73.8,1.1c-19,0.9-32.1,3.9-43.4,8.3
		c-11.8,4.6-21.7,10.7-31.7,20.6C97.2,117,91,127,86.5,138.8c-4.4,11.4-7.4,24.4-8.3,43.4c-0.9,19.1-1.1,25.2-1.1,73.8
		s0.2,54.7,1.1,73.8c0.9,19,3.9,32.1,8.3,43.4c4.6,11.8,10.7,21.7,20.6,31.7c9.9,9.9,19.9,16.1,31.7,20.6
		c11.4,4.4,24.4,7.4,43.4,8.3c19.1,0.9,25.2,1.1,73.8,1.1s54.7-0.2,73.8-1.1c19-0.9,32.1-3.9,43.4-8.3c11.8-4.6,21.7-10.7,31.7-20.6
		c9.9-9.9,16.1-19.9,20.6-31.7c4.4-11.4,7.4-24.4,8.3-43.4c0.9-19.1,1.1-25.2,1.1-73.8s-0.2-54.7-1.1-73.8
		c-0.9-19-3.9-32.1-8.3-43.4c-4.6-11.8-10.7-21.7-20.6-31.7C395,97.2,385,91,373.2,86.5c-11.4-4.4-24.4-7.4-43.4-8.3
		C310.7,77.3,304.6,77.1,256,77.1L256,77.1z"/>
	<path class="st1" d="M256,164.1c-50.7,0-91.9,41.1-91.9,91.9s41.1,91.9,91.9,91.9s91.9-41.1,91.9-91.9S306.7,164.1,256,164.1z
		 M256,315.6c-32.9,0-59.6-26.7-59.6-59.6s26.7-59.6,59.6-59.6s59.6,26.7,59.6,59.6S288.9,315.6,256,315.6z"/>
	<circle class="st1" cx="351.5" cy="160.5" r="21.5"/>
</g>
</svg>
