<?xml version="1.0" encoding="utf-8"?>
<!-- Generator: Adobe Illustrator 21.1.0, SVG Export Plug-In . SVG Version: 6.00 Build 0)  -->
<svg version="1.1" id="Layer_1" xmlns="http://www.w3.org/2000/svg" xmlns:xlink="http://www.w3.org/1999/xlink" x="0px" y="0px"
	 viewBox="0 0 350.9 344" style="enable-background:new 0 0 350.9 344;" xml:space="preserve">
<style type="text/css">
	.investment-0{fill:#084473;}
	.investment-1{fill:#75CAF3;}
	.investment-2{fill:#931F7F;}
	.investment-3{fill:#984DA7;}
	.investment-4{fill:#1C9BD8;}
	.investment-5{fill:#0768B1;}
</style>
<title>stats</title>
<circle class="investment-0" cx="174.5" cy="171.8" r="164.9"/>
<path class="investment-1" d="M199.7,86.9h-10.5c0-0.4-17.6,10.7-57.7,9.8c-32.3-0.7-53-6-57.2-9.8C78.6,83,99.3,77,131.6,77
	c11.7-0.1,23.3,0.8,34.8,2.6c6.3,1,12.3-2.8,14-9c-12.5-3.4-30.3-5.4-48.9-5.4c-7.1,0-69.4,0.6-69.4,21.6s62.3,21.6,69.4,21.6
	c5.1,0,39.3-0.3,57.7-8.5v12.8c-6.9,8-15.1,14.7-24.4,19.8c17.9-2.6,36.1-8,36.1-19.3V88.1C200.9,87.5,200.4,86.9,199.7,86.9z"/>
<path class="investment-2" d="M73.9,209.7C73.9,209.8,73.9,209.4,73.9,209.7z"/>
<path class="investment-2" d="M288.2,231.1h-10.1c0-0.4-18.6,9.9-57.7,9.8c-12.8,0.1-25.5-1-38.1-3.3c-2.9-0.5-7.1-1.6-9.5-2.3
	c-12-3.3-16-9.1-21.8-14v9.7c0,3.5,2,6.2,4.7,9c3,3,12.3,6.2,15.6,7.1c18.9,5.3,44.8,5.5,49.2,5.5c5.1,0,39.3-0.3,57.7-8.5v12
	c-2.9,3.8-24,10.3-57.7,10.3c-33.1,0-58.7-6.3-62.3-10.1c-2.4-5.9-4.7-11.7-5.1-13.3c-5.2,0.4-17.4,0.6-21.5,0.6
	c-33.7,0-54.8-6.5-57.7-10.3v-10.5c18.4,8.2,52.5,8.5,57.7,8.5c2.7,0,7.9-0.1,7.9-0.1l4.9-0.1c0.5,0,0.9-0.5,0.9-1l-0.5-33.8
	l-11.4,23.2h-1.9c-34.3,0-55.4-6-57.7-9.8H63.8c-0.9,0-1.6,0.7-1.6,1.6c0,0,0,0,0,0v22.5c0,21,62.3,21.6,69.4,21.6
	c4.3,0,14.6-0.7,15.2-1.1c0.1-0.1,1,6.2,2.2,7.9c2.7,4,8.4,7,15.5,9.3c20.1,6.5,51.3,6.7,56,6.7c7.1,0,69.4-0.6,69.4-21.6v-24
	C289.8,231.8,289.1,231.1,288.2,231.1z"/>
<path class="investment-3" d="M267.8,192.1c-18.7-4.8-43-5-47.3-5c-7.1,0-69.4,0.6-69.4,21.6v21c8.6,3,17.5,5.3,26.4,6.9
	c-5.9-1.6-13.1-3.7-14.8-6v-21.4c2.9-3.8,24-10.3,57.7-10.3c10.3-0.1,20.6,0.6,30.9,2c0.4,0.1,0.8,0.1,1.3,0.1h-0.1
	c8.1,1.1,23.3,5.9,25.2,7.6c-4.1,3.7-23.4,9.4-53.5,9.8c-1.2,0-2.4,0-3.7,0c-14.8,0-30.8-2.1-42.9-5.5l0,0c-1.7,6,1.7,12.2,7.7,13.9
	c0.3,0.1,0.6,0.2,0.9,0.2c11.3,2.1,22.8,3.2,34.3,3.2c2.9,0,11.8-0.3,15.6-0.5c20.7-1.3,53.8-5.8,53.8-21.1
	C289.9,200.3,280,195.2,267.8,192.1z"/>
<path class="investment-4" d="M189.2,112.7c-2.9,3.8-24,10.3-57.7,10.3c-44,0.1-57.7-10.2-57.7-9.8H63.4c-0.7,0-1.3,0.6-1.3,1.3v22.8
	c0,21,62.3,21.6,69.4,21.6c5.1,0,39.3-0.3,57.7-8.5V161c-0.3,0.3-0.6,0.6-1,0.9c-4.3,3.1-19.1,7.1-41.8,8.7l-34.8,11.7
	c9.8,0.8,17.7,0.8,20,0.8s10.2-0.1,20-0.8c0,0,0.1,0,0.2,0c20.6-1.7,49.2-6.5,49.2-20.8v-22.9c0-0.7-0.6-1.3-1.3-1.3c0,0,0,0,0,0
	h-10.5c0-0.4-15.7,9.3-57.7,9.8c-33.7,0.4-54.8-6.5-57.7-10.3v-10.5c18.4,8.2,52.5,8.5,57.7,8.5c11.1,0,22.2-0.8,33.3-2.3
	C173.4,129,183,120.3,189.2,112.7z"/>
<path class="investment-5" d="M133.4,219.5l11.4-23.2c0-0.7-0.6-1.3-1.3-1.3c0,0,0,0,0,0l-4.7,0.2c-0.1,0-5.1,0.2-7.2,0.2
	c-33.7,0-54.8-6.5-57.7-10.3v-10.5c10.3,4.6,25.4,6.7,37.7,7.6c13.2,0,27.3-4.6,34.8-11.7c-4.6,0.3-9.6,0.6-14.9,0.7
	c-38.1,0.9-57.7-10.2-57.7-9.8H63.4c-0.7,0-1.3,0.6-1.3,1.3c0,0,0,0,0,0v22.9c0,12.4,21.8,17.7,41.1,20h0.4c9.3,1,18.6,1.6,27.9,1.6
	h1.7L133.4,219.5"/>
</svg>
