<svg id="investment" xmlns="http://www.w3.org/2000/svg" viewBox="0 0 153.84 155.99"><defs><style>.investment-1{fill:#433d90;}</style></defs><title>investment</title><path class="investment-1" d="M110.76,115.64c-16.87,0-30.74-4.29-34.5-10.67l0-.08-1-1.78c-5,5.27-19.42,7.64-32.16,7.64C26.67,110.76,9,107,9,98.75V84.17A3.31,3.31,0,0,1,11.14,81a3.22,3.22,0,0,1,3.58.9,14.78,14.78,0,0,0,5.63,4.14c5.73,1.93,14,3,22.73,3,18.65,0,28.71-4.72,28.71-6.66V73.91C65.32,77.41,53.92,79,43.08,79,26.67,79,9,75.29,9,67V52.37c0-8.25,17.66-12,34.07-12s34.07,3.76,34.07,12-17.66,12-34.07,12c-9.29,0-18.19-1.2-24.42-3.31h0a5.68,5.68,0,0,1,6.56-3.76A87.15,87.15,0,0,0,43.08,59c18.65,0,28.71-4.72,28.71-6.66s-10.06-6.66-28.71-6.66-28.71,4.72-28.71,6.66V67c0,1.93,10.06,6.66,28.71,6.66S71.79,69,71.79,67h5.36V82.45c0,8.25-17.66,12-34.07,12-9.29,0-18.19-1.21-24.42-3.31a16.2,16.2,0,0,1-4.3-2.33v9.92c0,1.93,10.06,6.66,28.71,6.66,16.71,0,26.93-3.78,28.58-6.34l.06-.11a4.31,4.31,0,0,1,3.43-2.17,4.22,4.22,0,0,1,3.61,1.66l.23.35,1.9,3.48c1.88,3.11,11.61,8,29.87,8,18.65,0,28.71-4.72,28.71-6.66V89c0-1.93-10.06-6.66-28.71-6.66S82,87,82,89s10.06,6.66,28.71,6.66a87.15,87.15,0,0,0,17.86-1.71,5.68,5.68,0,0,1,6.56,3.76h0C129,99.76,120.05,101,110.76,101c-16.41,0-34.07-3.76-34.07-12s17.66-12,34.07-12,34.07,3.76,34.07,12v14.67C144.83,111.88,127.17,115.64,110.76,115.64Zm-34.41-14h0Z"/></svg>