<svg id="Layer_1" data-name="Layer 1" xmlns="http://www.w3.org/2000/svg" viewBox="0 0 350.89 344"><defs><style>.investors-1{fill:#75c8f1;}.investors-2{fill:#fff;}.investors-3{fill:#832b94;}</style></defs><title>stats icons</title><ellipse class="investors-1" cx="167.23" cy="168.67" rx="157.17" ry="157.33"/><path class="investors-2" d="M25.25,60.69,116.5,47.85s73.87,0,78.21,21.4,0,132.69,0,132.69l95.59,8.56L312,223.34v68.49s-69.52,34.24-160.77,4.28l-21.73-21.4S47,283.27,25.25,257.58Z"/><path class="investors-3" d="M146.43,265.34c-5.72-3.61-8.89-7.09-8.89-12.79v-29c0-27.13,80.91-27.91,90.13-27.91s90.14.78,90.14,27.91-80.91,27.92-90.14,27.92a247.65,247.65,0,0,1-44.5-4.11A14.47,14.47,0,0,1,172,229.18h0c15.65,4.44,36.45,7.09,55.65,7.09,41.92,0,68.8-7.71,74.31-12.7-5.51-5-32.39-12.69-74.31-12.69-43.75,0-71.12,8.4-74.9,13.33v27.7c3.78,4.93,31.15,13.24,74.9,13.33,50.73.1,74.91-13.18,74.91-12.69h13.11a2.11,2.11,0,0,1,2.12,2.11v31c0,27.13-80.91,27.92-90.14,27.92-8.32,0-79.18-.64-92.91-20.72-1.48-2.17-2.66-10.24-2.81-10.15-.74.41-14.12,1.36-19.74,1.36-9.22,0-90.13-.78-90.13-27.92v-29A2.11,2.11,0,0,1,24.19,225H37.31a2,2,0,0,0-.2-.93c2.91,4.89,30.49,13.62,75.1,13.62l2.41,0-.24-15.95-2.17,0c-9.22,0-90.13-.79-90.13-27.92V164.28a1.65,1.65,0,0,1,1.65-1.65H37.31c0-.49,25.38,13.89,74.9,12.69,43.74-1,71.12-8.39,74.9-13.33V148.42c-23.9,10.55-68.22,11-74.9,11-9.22,0-90.13-.78-90.13-27.92V101.94a1.64,1.64,0,0,1,1.65-1.64H37.31c0-.49,17.76,12.77,74.9,12.69,43.75-.07,71.12-8.4,74.9-13.33V83.18c-23.9,10.55-68.22,11-74.9,11-9.22,0-90.13-.78-90.13-27.92S103,38.31,112.21,38.31c24.07,0,47.2,2.56,63.47,7h0A16.11,16.11,0,0,1,157.47,57a280.67,280.67,0,0,0-45.26-3.43c-41.91,0-68.79,7.71-74.3,12.69,5.51,5,32.4,11.76,74.3,12.7,52,1.16,74.9-13.18,74.9-12.7H200.7a1.65,1.65,0,0,1,1.64,1.65V100.3c0,27.13-80.9,27.91-90.13,27.91-6.68,0-51-.41-74.9-11v13.56c3.78,4.94,31.15,13.84,74.9,13.33,54.53-.62,74.9-13.17,74.9-12.69H200.7a1.65,1.65,0,0,1,1.64,1.65v29.52c0,27.14-80.9,27.92-90.13,27.92-6.68,0-51-.41-74.9-11v13.57c3.78,4.93,31.15,13.33,74.9,13.33,2.79,0,9.32-.24,9.38-.24l6.09-.22a1.64,1.64,0,0,1,1.71,1.62l.69,44.91-7.55.17s-6.83.16-10.32.16c-6.68,0-51-.42-74.9-11v13.56c3.78,4.94,31.15,13.34,74.9,13.34,5.21,0,21.15-.26,27.87-.8,1.28,4.92,6.35,17,6.35,17,3.78,4.93,37.5,13.33,81.24,13.33s71.13-8.4,74.91-13.33V269.51c-23.91,10.54-68.22,11-74.91,11s-51-.42-74.89-11Z"/></svg>