<?xml version="1.0" encoding="utf-8"?>
<!-- Generator: Adobe Illustrator 21.1.0, SVG Export Plug-In . SVG Version: 6.00 Build 0)  -->
<svg version="1.1" id="Layer_1" xmlns="http://www.w3.org/2000/svg" xmlns:xlink="http://www.w3.org/1999/xlink" x="0px" y="0px"
	 viewBox="0 0 350.9 344" style="enable-background:new 0 0 350.9 344;" xml:space="preserve">
<style type="text/css">
	.jobs-0{fill:#084473;}
	.jobs-1{fill:#75C8F1;}
	.jobs-2{fill:#1A99D6;}
	.jobs-3{fill:#931F7F;}
	.jobs-4{fill:#0A68B0;}
	.jobs-5{fill:#984DA7;}
</style>
<title>stats</title>
<circle class="jobs-0" cx="175" cy="171.8" r="164.9"/>
<path class="jobs-1" d="M214.5,109.5V87.4c0-10.3-6.6-18.4-15-18.4h-56.1c-8.4,0-15,8.1-15,18.4v9.7h7.4c5.3-0.1,9.4-4.5,9.3-9.7l0,0
	c0-0.3,0-0.6,0.1-0.9h52.5c0.1,0.3,0.1,0.6,0.1,0.9V127L214.5,109.5z"/>
<path class="jobs-2" d="M269.8,256.2V127.9c0-0.5-0.3-0.9-0.8-0.9c0,0,0,0,0,0h-71.2l16.8-17.5H269c9.1,0,16.6,7.3,17.5,16.5
	c0.1,0.6,0.1,97.3,0.1,97.9"/>
<path class="jobs-3" d="M63.5,257l0.5-129.1l17.6-0.9c-0.5,0-0.8,0.4-0.8,0.9c0,0,0,0,0,0v128.3c0,0.5,0.4,0.8,0.8,0.9"/>
<path class="jobs-4" d="M63.5,237v21.6c0,10.2,8.3,15.9,18.1,15.9H269c9.7,0,17.6-8.2,17.6-18.4V224l-16.8,32.2c0,0.5-0.4,0.8-0.8,0.9
	H81.5L63.5,237z"/>
<path class="jobs-5" d="M81.5,127h103.3c0-9.7-7.5-17.5-16.8-17.5H81.5c-9.7,0-17.6,8.2-17.6,18.4l-0.5,14.7L81.5,127z"/>
</svg>
