<svg id="join" xmlns="http://www.w3.org/2000/svg" viewBox="0 0 250.09 241.54"><defs><style>.join-1{fill:#fff;}</style></defs><title>join</title><path class="join-1" d="M169.43,134.72l-18.84-3.1a1.42,1.42,0,0,1-1.19-1.43l.48-18.73a1.39,1.39,0,0,1,.35-.88,52.25,52.25,0,1,0-39.37,17.68h.54c2.3,0,11.5-.3,19.35-4.83a10.09,10.09,0,0,1,1.14-.61C128.3,118,123.8,114.75,118,116a33.47,33.47,0,0,1-6.9.71,40.67,40.67,0,1,1,29-12.15l-1.21,1.23a1.42,1.42,0,0,0-.41,1L137.57,140a1.42,1.42,0,0,0,1.19,1.44l27.65,4.47c13.22,4.13,15.94,8.54,15.94,13.87l1.72,38.72a357.72,357.72,0,0,1-147.59,0L38.19,160v-.26c0-7.82,8.56-11.85,15.86-13.86l19.43-3.25c6.67,7.15,20.15,13.87,37.56,13.88h0a63.38,63.38,0,0,0,10.06-.78A10.31,10.31,0,0,0,129,141.62h0A46.6,46.6,0,0,1,111.09,145h0c-17.18,0-27.85-7.9-30.32-11.72l-2.07-3.18-26.81,4.48-.56.12c-15.85,4.29-24.61,13.15-24.68,25l-2,45a3.67,3.67,0,0,0,2.87,3.75l1.73.39a371.61,371.61,0,0,0,81.05,9,371.58,371.58,0,0,0,81.05-9l1.73-.39a3.67,3.67,0,0,0,2.87-3.75l-2-45C193.83,142.22,176.12,136.77,169.43,134.72Z"/><path class="join-1" d="M225.46,93H201.61V69.14h0A11.76,11.76,0,0,0,189.85,80.9V93h-12.1A11.76,11.76,0,0,0,166,104.75h23.85v23.85h0a11.76,11.76,0,0,0,11.76-11.76v-12.1h12.1A11.76,11.76,0,0,0,225.46,93Z"/></svg>