<svg xmlns="http://www.w3.org/2000/svg" viewBox="0 0 97.59 94.26"><defs><style>.cls-1{fill:#1c9bd8;}.cls-2{fill:#75caf3;}.cls-3{fill:#0768b1;}.cls-4{fill:#423d91;}.cls-5{fill:#931f7f;}</style></defs><title>join</title><g id="Layer_2" data-name="Layer 2"><g id="cut_off" data-name="cut off"><path class="cls-1" d="M86,33.63V22a5.71,5.71,0,0,0-5.71,5.71v5.88H74.41a5.71,5.71,0,0,0-5.71,5.71H80.29V50.94A5.71,5.71,0,0,0,86,45.23V39.35h5.88a5.71,5.71,0,0,0,5.71-5.71Z"/><path class="cls-2" d="M54.19,3.14A25.1,25.1,0,0,0,43.48,0,25.38,25.38,0,1,0,41.9,50.77h.26a20.18,20.18,0,0,0,9.4-2.35,4.9,4.9,0,0,1,.56-.3c-1.74-2.32-3.93-3.92-6.77-3.33a16.27,16.27,0,0,1-3.35.35A19.76,19.76,0,0,1,34.1,7.27,53.32,53.32,0,0,1,54.19,3.14Z"/><path class="cls-1" d="M54.19,3.14a25.36,25.36,0,0,1,6.85,39,.67.67,0,0,0-.17.43l-5.79,6.33.22-8.63a.69.69,0,0,1,.2-.47l.59-.6a19.66,19.66,0,0,0,5.67-14.42A19.89,19.89,0,0,0,42.94,5.64,19.69,19.69,0,0,0,34.1,7.27,53.39,53.39,0,0,1,54.19,3.14Z"/><path class="cls-3" d="M55.08,48.93l-.19,7.54a.69.69,0,0,0,.58.7L68.9,59.34c6.42,2,7.75,4.15,7.75,6.74l.83,18.82,4.37,4.8a1.78,1.78,0,0,0,1.39-1.82L82.27,66c0-8.46-8.65-11.11-11.9-12.11L61.21,52.4a.69.69,0,0,1-.58-.7l.23-9.1Z"/><path class="cls-4" d="M77.48,84.9a173.83,173.83,0,0,1-71.72,0L.32,79.81,0,87.88A1.78,1.78,0,0,0,1.4,89.7l.84.19a180.57,180.57,0,0,0,39.39,4.37A180.56,180.56,0,0,0,81,89.89l.84-.19"/><path class="cls-5" d="M50.72,57.26A22.65,22.65,0,0,1,42,58.89h0c-8.35,0-13.53-3.84-14.73-5.7l-1-1.59-13,2.23-.27.06C5.26,56,1,60.27,1,66L.32,79.81,5.76,84.9l.83-18.69v-.12c0-3.8,4.16-5.76,7.71-6.74l7.32-1.22.11,0,2-.34C27,61.24,33.54,64.5,42,64.51h0a30.8,30.8,0,0,0,4.89-.38A5,5,0,0,0,50.72,57.26Z"/></g></g></svg>