<svg class="ignore" xmlns="http://www.w3.org/2000/svg" viewBox="0 0 264.72 461.14" role="img" aria-label="line-graphic-side - A Graphical element used to visually anchor content]">
    <defs>
        <style>
    .side-graphic-1{fill:#9d358a;}
    .side-graphic-2{fill:#6d358b;}
    .side-graphic-3{fill:#482667;}
    .side-graphic-4{fill:#a54994;}
    .side-graphic-5{fill:#e11482;}
    .side-graphic-6{fill:#894a96;}
    .side-graphic-7{fill:#931e80;}
    .side-graphic-8{fill:#e95153;}
    .side-graphic-9{fill:#bd1622;}
    .side-graphic-10{fill:#0085bc;}
    .side-graphic-11{fill:#e73178;}
    .side-graphic-12{fill:#364b99;}
    .side-graphic-13{fill:#334394;}
    .side-graphic-14{fill:#e63b2e;}
    .side-graphic-15{fill:#ec688a;}
    .side-graphic-16{fill:#005faa;}
</style></defs><title>line-graphic-side</title><desc>A Graphical element used to visually anchor content</desc><g id="Layer_2" data-name="Layer 2"><g id="Layer_1-2" data-name="Layer 1"><polygon class="side-graphic-1" points="264.72 59.59 232 34.3 185.5 34.43 225.48 64.49 264.72 64.28 264.72 59.59"/><polygon class="side-graphic-2" points="264.72 71.42 263.27 70.16 223.62 70.27 264.72 105.82 264.72 71.42"/><polygon class="side-graphic-3" points="264.72 35.54 223.76 0.06 223.87 35.74 264.72 71.09 264.72 35.54"/><polygon class="side-graphic-4" points="264.72 105.12 226.64 72.31 226.9 154.41 264.72 187.08 264.72 105.12"/><polygon class="side-graphic-5" points="264.72 105.12 226.64 72.31 226.9 104.88 264.72 137.87 264.72 105.12"/><polygon class="side-graphic-2" points="185.04 0.11 224.19 0 224.3 34.51 185.14 34.46 185.04 0.11"/><rect class="side-graphic-6" x="223.95" y="34.87" width="39.15" height="35.7" transform="translate(-0.16 0.72) rotate(-0.17)"/><polygon class="side-graphic-7" points="156.6 159.5 156.32 73.09 226.66 72.31 226.93 158.72 156.6 159.5"/><polygon class="side-graphic-8" points="264.72 426.42 117.24 298.88 78.09 299.46 264.72 461.14 264.72 426.42"/><polygon class="side-graphic-9" points="264.72 363.4 115.81 234.74 116.01 298.19 264.72 426.6 264.72 363.4"/><polygon class="side-graphic-10" points="264.72 186.97 176.6 110.94 176.71 146.4 264.72 222.34 264.72 186.97"/><polygon class="side-graphic-11" points="264.72 326.18 116.92 197.54 117.04 235.67 264.72 363.46 264.72 326.18"/><polygon class="side-graphic-12" points="264.72 256.97 99.52 113.5 99.74 182.54 264.72 326.2 264.72 256.97"/><polygon class="side-graphic-13" points="264.72 222.15 176.6 145.98 135.85 146.21 264.72 257.48 264.72 222.15"/><polygon class="side-graphic-14" points="77.88 234.13 117.03 234.02 117.24 299 78.09 299.46 77.88 234.13"/><polygon class="side-graphic-2" points="0.01 91.94 22.22 92.17 22.32 114.55 0 114.49 0.01 91.94"/><polygon class="side-graphic-2" points="134.37 52.49 156.58 52.72 156.69 75.1 134.37 75.05 134.37 52.49"/><polygon class="side-graphic-5" points="110.95 74.68 133.16 74.91 133.26 97.29 110.94 97.23 110.95 74.68"/><rect class="side-graphic-15" x="38.65" y="197.65" width="78.47" height="38.19" transform="translate(-0.68 0.25) rotate(-0.18)"/><polygon class="side-graphic-13" points="38.57 197.97 21.51 182.88 99.99 182.66 117.16 197.74 38.57 197.97"/><rect class="side-graphic-16" x="21.47" y="113.48" width="78.47" height="69.87" transform="translate(-0.47 0.19) rotate(-0.18)"/><polygon class="side-graphic-16" points="135.91 146.34 135.8 111.41 176.76 111.06 176.87 145.99 135.91 146.34"/></g></g></svg>