<svg id="Layer_1" data-name="Layer 1" xmlns="http://www.w3.org/2000/svg" viewBox="0 0 560.62 548.53"><defs>
    <style>.cls-1{fill:#9d358a;}
        .cls-2{fill:#6d358b;}
        .cls-3{fill:#482667;}
        .cls-4{fill:#a54994;}
        .cls-5{fill:#e11482;}
        .cls-6{fill:#894a96;}
        .cls-7{fill:#931e80;}
        .cls-8{fill:#e95153;}
        .cls-9{fill:#bd1622;}
        .cls-10{fill:#0085bc;}
        .cls-11{fill:#e73178;}
        .cls-12{fill:#364b99;}
        .cls-13{fill:#334394;}
        .cls-14{fill:#e63b2e;}
        .cls-15{fill:#ec688a;}
        .cls-16{fill:#005faa;}
    </style></defs>
    <title>Line_Graphic_1</title>
    <polygon class="cls-1" points="289.87 64.25 328.62 34.3 375.12 34.43 335.14 64.49 289.87 64.25"/>
    <polygon class="cls-2" points="27.24 303.81 297.35 70.16 337 70.27 66.89 303.92 27.24 303.81"/>
    <polygon class="cls-3" points="106.77 199.38 336.86 0.06 336.75 35.74 106.66 234.83 106.77 199.38"/>
    <polygon class="cls-4" points="28.88 335.15 333.98 72.31 333.72 154.41 82.65 371.29 28.75 370.93 28.88 335.15"/>
    <polygon class="cls-5" points="28.88 335.15 333.98 72.31 333.72 104.88 28.75 370.93 28.88 335.15"/>
    <polygon class="cls-2" points="375.48 34.46 336.32 34.51 336.43 0 375.58 0.11 375.48 34.46"/>
    <rect class="cls-6" x="301.92" y="35.11" width="35.7" height="39.15" transform="translate(261.46 372.33) rotate(-89.83)"/>
    <polygon class="cls-7" points="333.69 158.72 333.96 72.31 404.3 73.09 404.02 159.5 333.69 158.72"/>
    <polygon class="cls-8" points="155.63 547.72 443.38 298.88 482.53 299.46 195.02 548.53 155.63 547.72"/>
    <polygon class="cls-9" points="155.58 484.63 444.81 234.74 444.61 298.19 155.63 547.72 155.58 484.63"/>
    <polygon class="cls-10" points="38.6 409.19 289.55 192.67 289.44 228.12 38.49 444.64 38.6 409.19"/>
    <polygon class="cls-10" points="133.08 327.46 384.02 110.94 383.91 146.4 132.97 362.92 133.08 327.46"/>
    <polygon class="cls-11" points="78.64 515.28 443.7 197.54 443.58 235.67 120.34 515.37 78.64 515.28"/>
    <polygon class="cls-12" points="115.67 413.49 461.1 113.5 460.88 182.54 115.45 483.34 115.67 413.49"/>
    <polygon class="cls-12" points="78.87 444.68 223.07 320.41 222.84 390.15 78.89 515.12 78.87 444.68"/>
    <polygon class="cls-13" points="38.49 444.63 384.02 145.98 424.77 146.21 78.99 444.76 38.49 444.63"/>
    <polygon class="cls-9" points="28.77 370.95 82.39 324.25 82.36 371.19 28.77 370.95"/>
    <polygon class="cls-14" points="482.53 299.46 443.38 299 443.59 234.02 482.74 234.13 482.53 299.46"/>
    <polygon class="cls-2" points="560.62 114.49 538.3 114.55 538.4 92.17 560.61 91.94 560.62 114.49"/>
    <polygon class="cls-2" points="426.25 75.05 403.93 75.1 404.04 52.72 426.25 52.49 426.25 75.05"/>
    <polygon class="cls-5" points="449.68 97.23 427.36 97.29 427.46 74.91 449.67 74.68 449.68 97.23"/>
    <polygon class="cls-10" points="38.92 480.26 0.01 480.31 0 444.14 38.91 444.41 38.92 480.26"/>
    <rect class="cls-15" x="466.36" y="179.48" width="38.19" height="78.47" transform="translate(262.5 701.51) rotate(-89.82)"/>
    <polygon class="cls-13" points="443.46 197.74 460.63 182.66 539.11 182.88 522.05 197.97 443.46 197.74"/>
    <rect class="cls-16" x="467.7" y="111.16" width="69.87" height="78.47" transform="translate(347.94 650.58) rotate(-89.82)"/><polygon class="cls-16" points="383.75 145.99 383.86 111.06 424.82 111.41 424.71 146.34 383.75 145.99"/><polygon class="cls-9" points="106.84 156.77 106.84 201.1 79 224.71 79 180.52 106.84 156.77"/></svg>