<svg class="svg linkedin" id="Layer_1" data-name="Layer 1" xmlns="http://www.w3.org/2000/svg" viewBox="0 0 459.49 450.69"><title>Artboard 2</title><path d="M3.42,146.62l92.78-1.16V449.29L3.42,450.47V146.62Z"/><path d="M173.89,146.62l88.66-1.13v38.65l0,10.95c26.26-25.74,53.32-45.2,96.56-45.2,51,0,100.36,21.38,100.36,91V449.35l-90,1.34V291.46c0-35.1-8.8-57.73-50.72-57.73-36.93,0-52.4,6.61-52.4,55.21v160.4l-92.48,1.12V146.62Z"/><path d="M101.58,50.79A50.79,50.79,0,1,1,50.79,0a50.79,50.79,0,0,1,50.79,50.79Z"/></svg>