<svg xmlns="http://www.w3.org/2000/svg" viewBox="0 0 113.39 99.21"><defs><style>.cls-1{fill:#1f9ad7;}.cls-2{fill:#36a9e1;}.cls-3{fill:#662483;}</style></defs><title>list</title><g id="Layer_5" data-name="Layer 5"><path class="cls-1" d="M96.74,12.77H16.65a5,5,0,0,0-5,5V81.48a5,5,0,0,0,5,5H96.74a5,5,0,0,0,5-5V17.73A5,5,0,0,0,96.74,12.77ZM16.65,17.25H96.74a.48.48,0,0,1,.48.48v6.42h-81V17.73A.48.48,0,0,1,16.65,17.25ZM96.74,82H16.65a.48.48,0,0,1-.48-.48V28.63h81V81.48A.48.48,0,0,1,96.74,82Z"/><path class="cls-1" d="M49.73,62.46H24.32a2.81,2.81,0,0,1-2.81-2.81V37.91a2.81,2.81,0,0,1,2.81-2.81H49.73a2.81,2.81,0,0,1,2.81,2.81V59.65A2.81,2.81,0,0,1,49.73,62.46ZM26,58H48.06V39.58H26Z"/><path class="cls-1" d="M89.64,39.58H58.81a2.24,2.24,0,0,1,0-4.48H89.64a2.24,2.24,0,0,1,0,4.48Z"/><path class="cls-1" d="M89.64,50.47H58.81a2.24,2.24,0,0,1,0-4.48H89.64a2.24,2.24,0,0,1,0,4.48Z"/><path class="cls-1" d="M89.64,62.24H58.81a2.24,2.24,0,0,1,0-4.48H89.64a2.24,2.24,0,0,1,0,4.48Z"/><path class="cls-1" d="M89.81,73.14H59a2.24,2.24,0,0,1,0-4.48H89.81a2.24,2.24,0,0,1,0,4.48Z"/><path class="cls-1" d="M24.32,62.46a2.24,2.24,0,0,1-1.46-3.94l26-22.31a2.24,2.24,0,1,1,2.92,3.4l-26,22.31A2.23,2.23,0,0,1,24.32,62.46Z"/><path class="cls-1" d="M50.3,61.89a2.23,2.23,0,0,1-1.42-.51L22.33,39.65a2.24,2.24,0,0,1,2.84-3.46L51.71,57.92a2.24,2.24,0,0,1-1.42,4Z"/><path class="cls-2" d="M39.4,67h-17a.52.52,0,0,0-.52.52V72.6a.52.52,0,0,0,.52.52h17a.52.52,0,0,0,.52-.52V67.53A.52.52,0,0,0,39.4,67ZM25.61,70.76a1,1,0,0,1-.39.39,1.1,1.1,0,0,1-.55.14A.83.83,0,0,1,24,71v1H23.4V69.11H24v.25a.83.83,0,0,1,.68-.28,1.09,1.09,0,0,1,.54.13,1,1,0,0,1,.39.39A1.28,1.28,0,0,1,25.61,70.76Zm2.72.49h-.59V71a.83.83,0,0,1-.3.21.93.93,0,0,1-.37.07A.92.92,0,0,1,26.4,71a1,1,0,0,1-.25-.72v-1.2h.62v1.12q0,.52.44.52a.47.47,0,0,0,.36-.15.62.62,0,0,0,.14-.43V69.11h.62Zm2.79-.49a1,1,0,0,1-.39.39,1.1,1.1,0,0,1-.55.14A.83.83,0,0,1,29.5,71v.25h-.6v-3h.62v1a.83.83,0,0,1,.65-.26,1.09,1.09,0,0,1,.56.21,1,1,0,0,1,.39.39A1.28,1.28,0,0,1,31.12,70.76Zm1.17.52h-.62v-3h.62Zm1.24,0h-.62V69.1h.62Zm-.06-2.55a.39.39,0,0,1-.28.1.4.4,0,0,1-.29-.09h0a.34.34,0,0,1,0-.48l0,0a.44.44,0,0,1,.56,0,.31.31,0,0,1,.11.24A.34.34,0,0,1,33.47,68.7Zm2.23,2.25a.76.76,0,0,1-.35.24,1.55,1.55,0,0,1-.55.09,2.1,2.1,0,0,1-.52-.06h0A1.36,1.36,0,0,1,33.9,71l.21-.45a1.29,1.29,0,0,0,.35.15,1.46,1.46,0,0,0,.4.06q.4,0,.4-.2a.14.14,0,0,0-.11-.13,1.62,1.62,0,0,0-.33-.07,3.21,3.21,0,0,1-.44-.09.67.67,0,0,1-.3-.18.52.52,0,0,1-.13-.38.59.59,0,0,1,.12-.36.76.76,0,0,1,.34-.25,1.47,1.47,0,0,1,.53-.09,2.08,2.08,0,0,1,.45,0,1.27,1.27,0,0,1,.37.14l-.21.44a1.24,1.24,0,0,0-.62-.16.63.63,0,0,0-.3.06.16.16,0,0,0-.1.14.14.14,0,0,0,.11.14,1.89,1.89,0,0,0,.34.08l.43.09a.65.65,0,0,1,.29.18.52.52,0,0,1,.12.37A.57.57,0,0,1,35.7,70.95Zm2.69.3h-.62V70.12a.56.56,0,0,0-.11-.38.41.41,0,0,0-.32-.13.5.5,0,0,0-.38.15.61.61,0,0,0-.14.43v1.06H36.2v-3h.62v1a.83.83,0,0,1,.3-.19A1.09,1.09,0,0,1,37.5,69a.89.89,0,0,1,.64.32,1,1,0,0,1,.25.71Z"/><path class="cls-2" d="M24.17,69.74a.69.69,0,0,0,0,.87.56.56,0,0,0,.79,0,.69.69,0,0,0,0-.87A.56.56,0,0,0,24.17,69.74Z"/><path class="cls-2" d="M29.68,69.74a.69.69,0,0,0,0,.87.56.56,0,0,0,.79,0,.69.69,0,0,0,0-.87A.56.56,0,0,0,29.68,69.74Z"/><path class="cls-3" d="M50.83,73.78l-13.18-5a.45.45,0,0,0-.59.59l5,13.17a.47.47,0,0,0,.88,0L44.19,78l3.39,3.39a1.49,1.49,0,0,0,2.11-2.11l-3.4-3.4,4.51-1.21A.47.47,0,0,0,50.83,73.78Z"/></g></svg>