<svg xmlns="http://www.w3.org/2000/svg" viewBox="0 0 109.09 85.95"><defs><style>.cls-1{fill:#1c9ad7;}.cls-2{fill:none;}</style></defs><title>activity2</title><g id="Layer_2" data-name="Layer 2"><g id="Layer_1-2" data-name="Layer 1"><path class="cls-1" d="M108.27,85.95H.82A.83.83,0,0,1,0,85.11V21.87H0a5.54,5.54,0,0,1,5.5,5.58V80.37h98.1V5.58H5.5v6.64H94.75a5.54,5.54,0,0,1,5.5,5.58H.82A.83.83,0,0,1,0,17V.84A.83.83,0,0,1,.82,0H108.27a.83.83,0,0,1,.82.84V85.11A.83.83,0,0,1,108.27,85.95Z"/><ellipse class="cls-1" cx="99.71" cy="9.04" rx="1.82" ry="1.84"/><ellipse class="cls-1" cx="94.86" cy="9.04" rx="1.82" ry="1.84"/><ellipse class="cls-1" cx="90.01" cy="9.04" rx="1.82" ry="1.84"/><path class="cls-2" d="M25.62,62.21a.37.37,0,0,0-.27.1.33.33,0,0,0,0,.48.37.37,0,0,0,.27.1.37.37,0,0,0,.27-.1.33.33,0,0,0,.1-.25.3.3,0,0,0-.1-.23A.38.38,0,0,0,25.62,62.21Z"/><path class="cls-1" d="M35.42,63l1.93.64V61.13a.37.37,0,0,0-.37-.37H15.71a.37.37,0,0,0-.37.37v6a.37.37,0,0,0,.37.37H35.21l-1.12-3.1A1,1,0,0,1,35.42,63Zm-15.34.26a1,1,0,0,1,.39.39,1.28,1.28,0,0,1,0,1.16,1,1,0,0,1-.39.39,1.1,1.1,0,0,1-.55.14.83.83,0,0,1-.65-.26v1h-.62V63.16h.6v.25a.83.83,0,0,1,.68-.28A1.09,1.09,0,0,1,20.08,63.26Zm-.26,1.4a.69.69,0,0,0,0-.87.56.56,0,0,0-.79,0,.69.69,0,0,0,0,.87.56.56,0,0,0,.79,0Zm3.37-1.51v2.15H22.6v-.26a.83.83,0,0,1-.3.21.93.93,0,0,1-.37.07.92.92,0,0,1-.67-.24,1,1,0,0,1-.25-.72V63.16h.62v1.12q0,.52.44.52a.47.47,0,0,0,.36-.15.62.62,0,0,0,.14-.43V63.16Zm2.4.11a1,1,0,0,1,.39.39,1.28,1.28,0,0,1,0,1.16,1,1,0,0,1-.39.39,1.1,1.1,0,0,1-.55.14.83.83,0,0,1-.68-.28v.25h-.6v-3h.62v1a.83.83,0,0,1,.65-.26A1.09,1.09,0,0,1,25.59,63.26Zm-.26,1.4a.69.69,0,0,0,0-.87.56.56,0,0,0-.79,0,.69.69,0,0,0,0,.87.56.56,0,0,0,.79,0Zm1.2-2.33h.62v3h-.62Zm1.24.42a.34.34,0,0,1,0-.5.4.4,0,0,1,.28-.1.4.4,0,0,1,.28.1.31.31,0,0,1,.11.24.34.34,0,0,1-.11.26.39.39,0,0,1-.28.1A.4.4,0,0,1,27.76,62.76Zm0,.4h.62v2.15h-.62Zm1.4,2.12a1.36,1.36,0,0,1-.41-.17l.21-.45a1.29,1.29,0,0,0,.35.15,1.46,1.46,0,0,0,.4.06q.4,0,.4-.2a.14.14,0,0,0-.11-.13,1.62,1.62,0,0,0-.33-.07,3.2,3.2,0,0,1-.44-.09.67.67,0,0,1-.3-.18.52.52,0,0,1-.13-.38.59.59,0,0,1,.12-.36.76.76,0,0,1,.34-.25,1.47,1.47,0,0,1,.53-.09,2.08,2.08,0,0,1,.45.05,1.27,1.27,0,0,1,.37.14l-.21.44a1.24,1.24,0,0,0-.62-.16.63.63,0,0,0-.3.06.16.16,0,0,0-.1.14.14.14,0,0,0,.11.14,1.89,1.89,0,0,0,.34.08l.43.09a.65.65,0,0,1,.29.18.52.52,0,0,1,.12.37.57.57,0,0,1-.12.36.76.76,0,0,1-.35.24,1.55,1.55,0,0,1-.55.09A2.1,2.1,0,0,1,29.14,65.27ZM33,63.36a1,1,0,0,1,.25.71v1.23h-.62V64.17a.56.56,0,0,0-.11-.38.41.41,0,0,0-.32-.13.5.5,0,0,0-.38.15.61.61,0,0,0-.14.43v1.06h-.62v-3h.62v1a.83.83,0,0,1,.3-.19,1.09,1.09,0,0,1,.38-.07A.89.89,0,0,1,33,63.36Z"/><path class="cls-1" d="M47.85,67.78l-3.39-1.12-7.6-2.51-1.58-.52a.48.48,0,0,0-.59.63l.92,2.54.32.89,3.25,9a.47.47,0,0,0,.9,0l1.58-4.95,3.12,3.17a1.69,1.69,0,0,0-.31-2.35l-2.9-2.94a.47.47,0,0,0-.79.19L40,72.25a.47.47,0,0,1-.9,0l-1.66-4.59L37,66.53a.48.48,0,0,1,.59-.63L43,67.68l1,.32a.48.48,0,0,1,.18.81,1.62,1.62,0,0,0-.64,1.6l4.42-1.71A.49.49,0,0,0,47.85,67.78Z"/><path class="cls-1" d="M95.35,30h-43A2.22,2.22,0,0,1,50,27.93H93A2.22,2.22,0,0,1,95.35,30Z"/><path class="cls-1" d="M95.35,36.12h-43A2.22,2.22,0,0,1,50,34H93a2.22,2.22,0,0,1,2.34,2.08Z"/><path class="cls-1" d="M95.35,42.23h-43A2.22,2.22,0,0,1,50,40.14H93a2.22,2.22,0,0,1,2.34,2.08Z"/><path class="cls-1" d="M95.35,48.34h-43A2.22,2.22,0,0,1,50,46.25H93a2.22,2.22,0,0,1,2.34,2.08Z"/><path class="cls-1" d="M95.35,54.44h-43A2.22,2.22,0,0,1,50,52.36H93a2.22,2.22,0,0,1,2.34,2.08Z"/><path class="cls-1" d="M95.35,60.24h-43A2.22,2.22,0,0,1,50,58.16H93a2.22,2.22,0,0,1,2.34,2.08Z"/><path class="cls-1" d="M95.35,66.35h-43A2.22,2.22,0,0,1,50,64.27H93a2.22,2.22,0,0,1,2.34,2.08Z"/><path class="cls-1" d="M44.2,52.08V30.29h0V28.72a.78.78,0,0,0-.77-.79H16.12a.78.78,0,0,0-.77.79v1.56h0V52.08h0v1.56a.78.78,0,0,0,.77.79h27.3a.78.78,0,0,0,.77-.79V52.1h0Zm-2-1.7-11-9.19,11-9.19ZM41.39,30a.74.74,0,0,1,.24,0L29.77,40,17.92,30.06a.74.74,0,0,1,.24,0Zm-24,2,11,9.19-11,9.19Zm.77,20.36a.74.74,0,0,1-.24,0l11.85-9.93,11.85,9.93a.74.74,0,0,1-.24,0Z"/></g></g></svg>