<svg xmlns="http://www.w3.org/2000/svg" viewBox="0 0 131.92 131.92"><defs><style>.location-1{fill:#009ee3;}</style></defs><title>location</title><g id="Layer_2" data-name="Layer 2"><g id="Layer_1-2" data-name="Layer 1"><path class="location-1" d="M80.09,44.53c0-8.2-6.34-14.88-14.14-14.88S51.82,36.33,51.82,44.53,58.16,59.41,66,59.41,80.09,52.74,80.09,44.53Z"/><path class="location-1" d="M66,0a66,66,0,1,0,66,66A66,66,0,0,0,66,0Zm.45,20.35c16.51,0,26.92,12.85,26.92,27.75,0,17.72-12.06,39.17-20,51.29l-.86,1.3-.88,1.3a37.91,37.91,0,0,1-4.1,4.82,1.92,1.92,0,0,1-2.9-.19c-.92-1.23-2.19-2.94-3.36-4.63l-.89-1.3-.88-1.3c-8-12-19.93-33.14-19.93-51.29C39.49,33.2,49.9,20.35,66.41,20.35Z"/></g></g></svg>