<svg xmlns="http://www.w3.org/2000/svg" viewBox="0 0 100.74 103.8"><defs><style>.cls-1{fill:#931f7f;}.cls-2{fill:#423d91;}.cls-3{fill:#0768b1;}.cls-4{fill:#1c9bd8;}.cls-5{fill:#75caf3;}</style></defs><title>location</title><g id="Layer_2" data-name="Layer 2"><g id="Layer_5" data-name="Layer 5"><path class="cls-1" d="M32.46,74.3H16.27a3.19,3.19,0,0,0-2.77,1.61l-2.12,3.75h0L.79,98.44l-.39.7a3.12,3.12,0,0,0,0,3.09,3.19,3.19,0,0,0,2.75,1.57H9.35V98.44H6.94l7.11-12.61,3.48-6.16H37.82A5.35,5.35,0,0,0,32.46,74.3Z"/><path class="cls-2" d="M100.34,99.14,87.24,75.91a3.18,3.18,0,0,0-2.77-1.6H63.77l-7.31,5.35H83.2L89.59,91l4.21,7.46H8.57a5.4,5.4,0,0,0-5.4,5.36h94.4a3.19,3.19,0,0,0,2.75-1.56A3.12,3.12,0,0,0,100.34,99.14Z"/><path class="cls-3" d="M61.16,2C71.72,6,78.82,16,78.82,28.35c0,14.94-6.71,32.24-13,43.92-1.89,3.59-7.36,7.38-9.37,7.38a.85.85,0,0,1-.7-1.33l1.94-2.85C64.79,65,73.47,44.56,73.47,28.35c0-11.43-7.93-23-23.08-23A24.14,24.14,0,0,0,39,8l.13-.08A36.31,36.31,0,0,1,45,5.29c1-.37,2.2-.72,3.41-1.05A76.17,76.17,0,0,1,61.16,2"/><path class="cls-4" d="M46.06,74.47a.8.8,0,0,1-.16-.17h0C39,64.21,27.3,44.82,27.3,28.35,27.3,20.24,31.66,12,39,8c5.36-3.1,13.09-5.13,22.11-6A29.91,29.91,0,0,0,50.38,0C34.17,0,21.95,12.19,21.95,28.35c0,13.44,6.89,28.31,13.41,39.38C36,68.79,36.9,70,37.51,71l8.55,3.52"/><path class="cls-5" d="M50.38,11.49A15.22,15.22,0,0,0,35.29,26.8a16.08,16.08,0,0,0,1.47,6.59l.1.2h0a10.87,10.87,0,0,0,1,1.69,10.59,10.59,0,0,0,2,2.44h0a15,15,0,0,0,7.26,4,.74.74,0,0,1,.47.34h0a.71.71,0,0,1,.1.38l-.36,31.4a.77.77,0,0,1-1.25.6c-4.66-2.64-7-4.1-10.57-6.52,1.52,2.44,4.7,7.49,6,9.38.24.34,5.42,7.42,6.33,8.5l1.52,1.81a1.88,1.88,0,0,0,.33.31,1.81,1.81,0,0,0,2.83-1.14l0-.3.57-49a.53.53,0,0,0-.06-.28h0a.72.72,0,0,0-.12-.19c0-.06-.09-.11-.12-.11h0a.72.72,0,0,0-.43-.14c-.45,0-1-.05-1.52-.07l-.64,0-.69,0a7.12,7.12,0,0,1-3.08-.74,10,10,0,0,1-5.78-9.1,9.74,9.74,0,1,1,19.48,0,10.13,10.13,0,0,1-1.19,4.76,10,10,0,0,1-1.5,2.1l1.17,1.09a2.29,2.29,0,0,0,1.84.47,5.17,5.17,0,0,0,4.28-3.66,15.55,15.55,0,0,0,.75-4.77A15.22,15.22,0,0,0,50.38,11.49Z"/></g></g></svg>