<svg xmlns="http://www.w3.org/2000/svg" viewBox="0 0 55.45 98.32"><defs><style>.cls-1{fill:#009ee2;}</style></defs><title>magnifying-glass</title><g id="Layer_2" data-name="Layer 2"><g id="Layer_1-2" data-name="Layer 1"><path class="cls-1" d="M15.34,98.32,0,93.21,15.17,47.68,19.29,49l2.55-7.31a19.38,19.38,0,1,1,5.57,1.91l-.87-.18s1.18-2.82,3.36-2.64A16.15,16.15,0,0,0,47,25.76,16.25,16.25,0,1,0,24.37,39.52l.8.35a.61.61,0,0,1,.34.76L21.2,52.95l-4.07-1.36L3.92,91.25l9.47,3.15L26.6,54.75,23,53.56l2.84-8.1,1.24.16c9,1.13,20.05-2,24.12-14.2a21.5,21.5,0,1,0-34.5,9.45,3.31,3.31,0,0,1,.59,4.32h0A24.67,24.67,0,0,1,11.21,9.72a21.89,21.89,0,0,1,3.72-3.92A24.66,24.66,0,0,1,41.2,2.3a24.22,24.22,0,0,1,10,8.46,24.53,24.53,0,0,1,3,21.63C49.7,45.8,38,49.66,28,48.82l-1,2.8,3.51,1.17Z"/></g></g></svg>