<svg xmlns="http://www.w3.org/2000/svg" viewBox="0 0 113.39 99.21"><defs><style>.cls-1{fill:#1f9ad7;}.cls-2{fill:#662483;}</style></defs><title>magnifying-glass</title><g id="Layer_6" data-name="Layer 6"><path class="cls-1" d="M50.33,61.15a2.24,2.24,0,0,1-2-3.28,2.24,2.24,0,0,1-2.91-3.36l5.38-6a26.37,26.37,0,1,1,6.55,5.9l-5.38,6A2.24,2.24,0,0,1,50.33,61.15Zm6.46-12.67,1.59,1.2A21.88,21.88,0,0,0,86.14,15.9,21.88,21.88,0,0,0,55.45,47Zm14.68,4.24a20.61,20.61,0,1,1,1.1,0Zm0-36.64-.86,0a16.06,16.06,0,1,0,.86,0Z"/><path class="cls-2" d="M23.74,93.42a5.33,5.33,0,0,1-3.58-1.54l-2.69-2.42a5.23,5.23,0,0,1-1.92-3.64c-.12-2.32,1.49-4.1,3.19-6l20.69-23c2-2.28,5.13-5.72,9.06-2.62l.11.09,3.33,3c3.5,3.59.4,7-1.65,9.29l-20.69,23c-1.7,1.89-3.3,3.68-5.62,3.8ZM20,85.59a1.47,1.47,0,0,0,.45.54l2.69,2.42a1.46,1.46,0,0,0,.59.39c.47,0,1.75-1.47,2.52-2.32l.26-.29L47,63.63c.77-.86,2.07-2.29,2.06-2.77h0a1,1,0,0,0-.24-.34l-3.1-2.79a1,1,0,0,0-.37-.21c-.47,0-1.77,1.47-2.54,2.33l-.24.27L22.06,82.84c-.77.85-2.06,2.28-2,2.75Z"/></g></svg>