<svg id="Layer_1" data-name="Layer 1" xmlns="http://www.w3.org/2000/svg" viewBox="0 0 350.89 344"><defs><style>.networking-1{fill:#75c8f1;}.networking-2{fill:#fff;}.networking-3{fill:#832b94;}</style></defs><title>stats icons</title><ellipse class="networking-1" cx="173.98" cy="171.54" rx="154.3" ry="154.46"/><path class="networking-2" d="M255.26,149.49a59.09,59.09,0,0,0-35.73,12L164,88.35a43.48,43.48,0,1,0-15.14,17.94l53.53,75.44A59.23,59.23,0,0,0,195.78,209a61.18,61.18,0,0,0,.59,7.94l-84.86,29.81A41.66,41.66,0,1,0,115.77,274c23.73-11.1,63.8-28.26,86.59-37.93a59.46,59.46,0,1,0,52.9-86.57Z"/><path class="networking-3" d="M75.51,310.26c-26.6,0-48.24-20.89-48.24-46.58S48.91,217.1,75.51,217.1c19.78,0,32.22,10.74,40.92,21.42,25.74-11,62.23-26.65,73.33-31.79,0-.7,0-1.4,0-2.1a61.32,61.32,0,0,1,6.53-27.47l-44.81-66.45a53,53,0,0,1-22.91,5.18c-28.54,0-51.75-22.41-51.75-50S100,16,128.53,16s51.75,22.41,51.75,50a48.48,48.48,0,0,1-4.64,20.66l43.73,65.2a67.37,67.37,0,0,1,35.83-10.3c36.11,0,65.48,28.33,65.48,63.14s-29.37,63.15-65.48,63.15a66.06,66.06,0,0,1-54.73-28.47L131,270.3a12.61,12.61,0,0,1-16.65-6.38h0l91.3-40.72,2.8,5.06c9.2,16.6,27.12,26.91,46.75,26.91,29.15,0,52.87-22.67,52.87-50.54S284.35,154.1,255.2,154.1a54.46,54.46,0,0,0-33.58,11.5l-5.34,4.21L160.91,87.25l2-3.4a36,36,0,0,0,4.81-17.92c0-20.6-17.56-37.35-39.14-37.35S89.39,45.33,89.39,65.93s17.56,37.35,39.14,37.35a40.21,40.21,0,0,0,21.55-6.2l5.18-3.26,55.8,82.75-2,3.42a48.62,48.62,0,0,0-6.45,29.78c.49,4.64-3,6.28-7.09,8.18-2.26,1.06-5.5,2.51-9.38,4.23-7.69,3.41-17.95,7.86-28.21,12.28-20.5,8.84-41,17.56-41,17.56L112.35,254l-3-4c-10.75-14.41-20.57-20.28-33.88-20.28-19.65,0-35.63,15.24-35.63,34s16,34,35.63,34a36.38,36.38,0,0,0,28.09-13.15A15,15,0,0,1,120.65,280h0C113.64,298.1,95.5,310.26,75.51,310.26Z"/></svg>