<svg id="Layer_1" data-name="Layer 1" xmlns="http://www.w3.org/2000/svg" viewBox="0 0 369.43 344"><defs><style>.oneonone-1{fill:#75c8f1;}.oneonone-2{fill:#fff;}.oneonone-3{fill:#832b94;}</style></defs><title>stats icons</title><ellipse class="oneonone-1" cx="184.44" cy="167.5" rx="154.34" ry="154.5"/><path class="oneonone-2" d="M355.8,203.53c0-39.91-50.84-72.26-113.55-72.26-3.59,0-7.14.12-10.64.32a52.64,52.64,0,0,0,4.44-21c0-41.05-49-74.32-109.42-74.32S17.21,69.57,17.21,110.62c0,22,14.13,41.83,36.57,55.44l-3.54,6.5-12.39,28.9,61.94-12.39,10.77-4.93c5.24.52,10.61.81,16.07.81,2,0,4,0,5.92-.12a48.15,48.15,0,0,0-3.86,18.7c0,39.9,50.84,72.26,113.56,72.26q6,0,11.93-.4l19,16.91,53.68,8.26s0-8.26-4.13-12.39c-3-3-3.83-21.53-4-31.23C341.5,243.73,355.8,224.69,355.8,203.53Z"/><path class="oneonone-3" d="M332.9,309.49h-.44c-30.6-1.41-55.16-8-75-20.25a153.5,153.5,0,0,0-16.51-1.34c-66.33,0-120.3-36.41-120.3-81.17,0-41.43,46.69-76.28,107.16-80.7l1.71-4.15a39.79,39.79,0,0,0,3.3-15.08c0-37-47.38-67-105.62-67S21.55,69.8,21.55,106.68c0,18.26,12.2,36,33.47,48.69l4.18,2.49-.76,4.72a83.81,83.81,0,0,1-11.57,31.51,186.14,186.14,0,0,0,47.54-13,15.73,15.73,0,0,1,19.68,6.3h0c-21.28,12-52.81,20.9-78.47,22.08a9.09,9.09,0,0,1-9-5.79,9.29,9.29,0,0,1,2.06-9.42,65,65,0,0,0,14.39-29.37C20,149.69,6.88,128.7,6.88,106.68c0-44.76,54-81.17,120.3-81.17s120.3,36.41,120.3,81.17a54,54,0,0,1-4.36,20.53l-5.21,12.58-4.7.22c-54.9,2.54-97.9,31.84-97.9,66.71,0,36.88,47.38,66.88,105.62,66.88a177.84,177.84,0,0,1,20.15,1.7l1.61.22,1.35.86c15.34,9.75,34.18,15.66,57.34,18a84,84,0,0,1-11.71-31.75l-.76-4.72,4.18-2.49c21.27-12.68,33.47-30.42,33.47-48.68,0-29.17-31-55.18-74.17-63.83a15.08,15.08,0,0,1-12.3-16.33h0c58.61,6.27,101.14,40,101.14,80.16,0,22-13.12,43-36.19,58.19a65.08,65.08,0,0,0,14.45,29.44,9.26,9.26,0,0,1,2.45,7.74A9.13,9.13,0,0,1,332.9,309.49Zm-4.15-5.39h0Z"/><path class="oneonone-3" d="M198.27,221.12a14.29,14.29,0,0,1-14.46-14.5,14.47,14.47,0,0,1,28.92.41,13.89,13.89,0,0,1-4.55,10.27,3.83,3.83,0,0,1-6-1.32h0a9.69,9.69,0,0,0,6.08-9.54,10,10,0,0,0-10-9.12A9.86,9.86,0,0,0,188.3,207a9.74,9.74,0,0,0,6.49,9.11,5,5,0,0,1,3.48,4.65Z"/><path class="oneonone-3" d="M242.3,221.12a14.28,14.28,0,0,1-14.45-14.5,14.47,14.47,0,0,1,28.92.41,13.93,13.93,0,0,1-4.55,10.27,3.83,3.83,0,0,1-6-1.32h0a9.68,9.68,0,0,0,6.07-9.54,10,10,0,0,0-10-9.12,9.86,9.86,0,0,0-9.93,9.71,9.75,9.75,0,0,0,6.5,9.11,5,5,0,0,1,3.47,4.65Z"/><path class="oneonone-3" d="M286.34,221.12a14.28,14.28,0,0,1-14.46-14.5,14.47,14.47,0,0,1,28.92.41,13.89,13.89,0,0,1-4.55,10.27,3.83,3.83,0,0,1-6-1.32h0a9.66,9.66,0,0,0,6.07-9.54,10,10,0,0,0-10-9.12,9.86,9.86,0,0,0-9.93,9.71,9.75,9.75,0,0,0,6.5,9.11,5,5,0,0,1,3.48,4.65Z"/></svg>