<svg id="Layer_1" data-name="Layer 1" xmlns="http://www.w3.org/2000/svg" xmlns:xlink="http://www.w3.org/1999/xlink"
     viewBox="0 0 615.56 406.96">
    <defs>
        <style>
            .cls-1{fill:#f6a635;}.cls-2{fill:#e63b2e;}.cls-3{fill:url(#linear-gradient);}.cls-4{fill:url(#linear-gradient-2);}.cls-5{fill:#009ee3;}.cls-6{fill:#0067b1;}.cls-7{fill:#e11482;}.cls-8{fill:#74cbf3;}.cls-9{fill:#931e80;}.cls-10{fill:#433d90;}.cls-11{fill:#253882;}.cls-12{fill:#fff;}
        </style>
        <linearGradient id="linear-gradient" x1="453.64" y1="260.48" x2="669.98" y2="260.48"
                        gradientUnits="userSpaceOnUse">
            <stop offset="0" stop-color="#525252"/>
            <stop offset="0.07" stop-color="#787878"/>
            <stop offset="0.15" stop-color="#9c9c9c"/>
            <stop offset="0.24" stop-color="#bbb"/>
            <stop offset="0.33" stop-color="#d4d4d4"/>
            <stop offset="0.44" stop-color="#e7e7e7"/>
            <stop offset="0.56" stop-color="#f5f5f5"/>
            <stop offset="0.71" stop-color="#fdfdfd"/>
            <stop offset="1" stop-color="#fff"/>
        </linearGradient>
        <linearGradient id="linear-gradient-2" x1="453.64" y1="387.74" x2="453.64" y2="184.13"
                        xlink:href="#linear-gradient"/>
    </defs>
    <title>Portrait Logo</title>
    <path class="cls-1"
          d="M761.18,389.91h160c45.38,0-8.77,24.21-8.77-16.7v12.35l18.57,18,13.16,7c9.64-2-2.16,14.75,6.61,26.07,5.57,7.18,26.67,25.55,27.75,27.32H866C820.61,464,761.18,430.82,761.18,389.91Z"
          transform="translate(-374.44 -182.38)"/>
    <path class="cls-2"
          d="M946.7,403.69l5,8.35c9.64-2,6,13.44,14.76,24.78,5.56,7.2,14.92,25.31,16,27.08l-2.19.29c-15.7-.91-144.38,4.62-171.58-74.21H936.91"
          transform="translate(-374.44 -182.38)"/>
    <path class="cls-3"
          d="M644.53,203.59a76.05,76.05,0,0,0-50.91-19.46h-140v76.35h140A76.36,76.36,0,0,1,670,336.84V260.48A76.16,76.16,0,0,0,644.53,203.59Z"
          transform="translate(-374.44 -182.38)"/>
    <path class="cls-4"
          d="M453.64,387.74V260.48A76.36,76.36,0,0,1,530,184.13H453.64a76.38,76.38,0,0,0-76.35,76.35v50.91A76.36,76.36,0,0,0,453.64,387.74Z"
          transform="translate(-374.44 -182.38)"/>
    <path class="cls-5"
          d="M644.53,203.59a76.05,76.05,0,0,0-50.91-19.46h-140v76.35h140c.34.34,76.36,82.78,76.36,125V260.48A76.16,76.16,0,0,0,644.53,203.59Z"
          transform="translate(-374.44 -182.38)"/>
    <path class="cls-6"
          d="M453.64,387.74V260.11c-.27.27,81.74-76,81.72-75.94s.06,0,0,0H453.64a76.38,76.38,0,0,0-76.35,76.35v50.91C377.29,353.55,394.33,387.74,453.64,387.74Z"
          transform="translate(-374.44 -182.38)"/>
    <path class="cls-7"
          d="M852.53,182.44l130,281.44h0c.15-.39-77.69.38-114.21-74.48l-62.08-134c-15.71-34,9-72.94,46.31-72.94Z"
          transform="translate(-374.44 -182.38)"/>
    <path class="cls-8"
          d="M593.62,260.48V387.41c0,49.47-73.89,76.68-116.06,76.68H593.62A76.38,76.38,0,0,0,670,387.74v-50.9C670.05,336.84,593.62,260.38,593.62,260.48Z"
          transform="translate(-374.44 -182.38)"/>
    <path class="cls-9"
          d="M853.16,182.47s-93.91-6.64-134.75,93.39C666,404.18,631.73,464,502.62,464h121c65.61,0,104.8-24.09,141.8-96.53C800.24,299.34,804.4,225.36,853.16,182.47Z"
          transform="translate(-374.44 -182.38)"/>
    <path class="cls-8" d="M568.84,212.62" transform="translate(-374.44 -182.38)"/>
    <path class="cls-2" d="M881.73,359.64" transform="translate(-374.44 -182.38)"/>
    <path class="cls-2" d="M662,374.44" transform="translate(-374.44 -182.38)"/>
    <path class="cls-8" d="M626.45,271.25" transform="translate(-374.44 -182.38)"/>
    <path class="cls-10"
          d="M377.34,372.63c0,69,57,91.46,76.65,91.46h59.24c42.84,0,80.35-43.26,80.35-76.35H453.73c.27.27-76.39-88.14-76.39-88.14"
          transform="translate(-374.44 -182.38)"/>
    <path class="cls-11" d="M867.69,508.07h18.8l14,41.92,14.12-41.92h18.45l-24.63,63.05H892.32Z"
          transform="translate(-374.44 -182.38)"/>
    <path class="cls-11" d="M847.89,508.07h17.75v62.59H847.89Z" transform="translate(-374.44 -182.38)"/>
    <path class="cls-11"
          d="M374.44,530v-.23c0-23.23,18.33-42.26,43.55-42.26s43.32,18.79,43.32,42v.23c0,23.24-18.33,42.27-43.55,42.27S374.44,553.26,374.44,530Zm68.07,0v-.23c0-14-10.27-25.68-24.75-25.68s-24.52,11.44-24.52,25.45v.23c0,14,10.28,25.69,24.75,25.69S442.51,544,442.51,530Z"
          transform="translate(-374.44 -182.38)"/>
    <path class="cls-11"
          d="M466.56,508.07h17.75v9c4.32-5.84,10.27-10.16,19.49-10.16,14.6,0,28.49,11.44,28.49,32.34v.23c0,20.9-13.66,32.34-28.49,32.34-9.45,0-15.29-4.32-19.49-9.34v26.86H466.56Zm48,31.41v-.23c0-10.39-7-17.28-15.29-17.28s-15.18,6.89-15.18,17.28v.23c0,10.39,6.89,17.28,15.18,17.28S514.54,550,514.54,539.48Z"
          transform="translate(-374.44 -182.38)"/>
    <path class="cls-11"
          d="M535.91,539.72v-.24c0-17.86,12.72-32.57,30.94-32.57,20.9,0,30.47,16.23,30.47,34,0,1.4-.12,3-.23,4.67H553.54c1.75,8.06,7.35,12.26,15.29,12.26,6,0,10.28-1.87,15.18-6.42l10.16,9c-5.84,7.24-14.24,11.68-25.57,11.68C549.8,572.06,535.91,558.86,535.91,539.72ZM580,534.46c-1-7.94-5.72-13.31-13.19-13.31s-12.14,5.26-13.55,13.31Z"
          transform="translate(-374.44 -182.38)"/>
    <path class="cls-11"
          d="M602.45,508.07H620.2V517c4.09-5.26,9.34-10,18.33-10,13.43,0,21.25,8.87,21.25,23.23v40.52H642V535.75c0-8.41-4-12.73-10.74-12.73s-11.09,4.32-11.09,12.73v34.91H602.45Z"
          transform="translate(-374.44 -182.38)"/>
    <path class="cls-11"
          d="M697.84,488.34h16.58l35,82.32H730.65l-7.48-18.34H688.62l-7.48,18.34H662.81Zm18.91,48.11-10.86-26.51L695,536.45Z"
          transform="translate(-374.44 -182.38)"/>
    <path class="cls-11"
          d="M807.14,508.07v-16h17.75v16H839.6v15.18H824.89V550c0,4.09,1.75,6.07,5.72,6.07a18.08,18.08,0,0,0,8.76-2.22v14.25a26.17,26.17,0,0,1-14,3.62c-10.86,0-18.22-4.32-18.22-18.8V523.25"
          transform="translate(-374.44 -182.38)"/>
    <path class="cls-11"
          d="M928.59,539.72v-.24c0-17.86,12.72-32.57,30.94-32.57,20.89,0,30.47,16.23,30.47,34,0,1.4-.12,3-.24,4.67H946.22c1.75,8.06,7.35,12.26,15.29,12.26,6,0,10.28-1.87,15.18-6.42l10.16,9c-5.84,7.24-14.25,11.68-25.57,11.68C942.48,572.06,928.59,558.86,928.59,539.72Zm44.13-5.26c-1.05-7.94-5.72-13.31-13.19-13.31s-12.15,5.26-13.55,13.31Z"
          transform="translate(-374.44 -182.38)"/>
    <rect class="cls-12" x="788.81" y="505.91" width="21.34" height="21.34"
          transform="translate(225 -596.39) rotate(45)"/>
    <path class="cls-11"
          d="M744.54,539.72v-.24c0-17.86,13.66-32.57,32.81-32.57,11.79,0,19.14,4,25,10.51l-10.86,11.67c-4-4.2-7.94-6.89-14.24-6.89-8.87,0-15.18,7.82-15.18,17v.23c0,9.58,6.19,17.28,15.88,17.28,6,0,10-2.57,14.36-6.65l10.39,10.5c-6.07,6.66-13.07,11.45-25.57,11.45C758.32,572.06,744.54,557.58,744.54,539.72Z"
          transform="translate(-374.44 -182.38)"/>
</svg>