<svg xmlns="http://www.w3.org/2000/svg" viewBox="0 0 305.72 842.89"><defs><style>.video-1{fill:#fff;}</style></defs><title>overlay_1</title><g id="Layer_2" data-name="Layer 2"><g id="Layer_1-2" data-name="Layer 1"><rect class="video-1" x="232.6" y="682.71" width="14.92" height="14.92"/><rect class="video-1" x="232.6" y="740.81" width="14.92" height="14.92"/><polygon class="video-1" points="203.94 784.4 189.02 784.4 189.02 799.31 203.55 799.31 203.55 813.84 218.46 813.84 218.46 798.92 203.94 798.92 203.94 784.4"/><rect class="video-1" x="203.55" y="711.77" width="14.92" height="14.91"/><rect class="video-1" x="261.65" y="653.66" width="14.92" height="14.92"/><rect class="video-1" x="188.92" y="537.47" width="14.92" height="14.92"/><rect class="video-1" x="188.92" y="246.95" width="14.92" height="14.92"/><polygon class="video-1" points="203.84 29.45 218.36 29.45 218.36 14.53 203.84 14.53 203.84 0 188.92 0 188.92 14.92 203.44 14.92 203.44 29.06 188.92 29.06 188.92 43.97 203.84 43.97 203.84 29.45"/><polygon class="video-1" points="218.36 566.92 233.09 566.92 233.09 552 218.18 552 218.18 566.53 203.44 566.53 203.44 581.44 218.36 581.44 218.36 566.92"/><rect class="video-1" x="203.45" y="276" width="14.92" height="14.92"/><rect class="video-1" x="247.23" y="493.89" width="14.92" height="14.92"/><rect class="video-1" x="247.23" y="348.63" width="14.92" height="14.92"/><rect class="video-1" x="247.23" y="246.95" width="14.92" height="14.92"/><rect class="video-1" x="247.23" y="87.16" width="14.92" height="14.92"/><rect class="video-1" x="247.23" width="14.92" height="14.92"/><rect class="video-1" x="290.81" y="624.63" width="14.92" height="14.92"/><rect class="video-1" x="290.81" y="552" width="14.92" height="14.92"/><rect class="video-1" x="276.28" y="581.06" width="14.92" height="14.91"/><path class="video-1" d="M232.7,610.11H218.18v14.52H203.84V610.11H189.31V595.58H174.78V581.44h14.52V566.53H174.78V537.47H160.26V523.34h14.53V508.81h28.66v14.53h14.92V508.81h14.73V493.89H218.18v14.53H203.84V493.89H174.78V479.76h14.52V465.23h14.14v14.53h14.92V450.31H203.84V435.79H189.31V421.27H174.78V407.13h29.05V392.21H174.78V363.55h29.05V349h14.52V334.5h14.73V319.58H218.18v14.52H203.84V319.58H189.31V305.06H160.26V290.92h29.05V276H174.78V261.47H160.26V247.34h14.53V232.81h14.52V218.29h14.14v14.52h14.92V217.89H203.84V203.37H189.31V189.23h14.53V174.71h14.34v14.52h14.92V174.71h14.52V159.79H232.7v14.53H218.36V159.79H203.45v14.53H189.31V159.79H174.78V145.66h14.52V131.13h14.14v14.53h14.92V131.13h14.73V116.21H218.36V102.08h14.73V87.16H218.18v14.53H203.45v14.52H174.39v14.52H160.26V116.21H145.73V102.08h14.53V87.55h14.14v14.52h14.92V87.55h14.53V72.64H189.31V58.11H174.39V72.64H160.26V58.11H145.73V44h29.05V29.06H160.26V14.92h14.53V0H159.87V14.53H145.73V0H0V276.39H0v14.14H0v349H0V842.89H160.26V828.37h14.53V798.92H160.26V784.78h14.53V770.26h14.53V755.34H174.78V740.81H160.26V712.15h14.53V682.71H145.73V668.58h29.05V654.06H189v14.52h14.92V653.66H189.31V639.14h0V625h14.14v14.52h14.92V625h14.73V610.49h14.52V595.58H232.7ZM203.84,130.74V116.6h14.34v14.14ZM174.78,87.16V73h14.13V87.16Zm0,537.47V610.49h14.13v14.13Zm-14.92-14.52v14.52H145.73V596h28.66v14.14Zm-14.52,58.09H131.2V654.06h14.14ZM102.15,798.92V784.78h14.13v14.14ZM14.92,683.1H29.05v14.13H14.92Zm0-493.87H29.05v14.14H14.92Zm144.95,101.3H145.73V276.39h14.14ZM174.39,392.6v14.14H160.26V392.6Zm0,43.19H160.26V421.66h14.14Zm0,131.13v14.14H160.26V566.92ZM131.2,639.14V625h14.14v14.11ZM116.68,813.45V799.31h14.14v14.14Zm-.39-784V43.58H102.15V29.45ZM145.34,73V87.16H131.2V73Zm-14.53,43.19H116.68V102.08h14.14Zm14.53,145.65V276H131.2V261.87Zm0,43.19H131.2V290.92h14.14Zm14.92,43.58V334.5h14.14v14.14ZM131.2,581.06V566.92h14.14v14.14Zm-.39,29.05H116.68V596h14.14Zm-101.37.38H43.58v14.14H29.44Zm0-479.36H43.58v14.13H29.44Zm87.23,86.77V203.76h14.14v14.14Zm28.66,145.26H131.2V349h14.14ZM130.81,566.53H116.68V552.39h14.14ZM116.29,668.19H102.15V654.06h14.13Zm14.53,87.54v14.13H116.68V755.73Zm0-232.79H116.68V508.81h14.14ZM116.29,711.77H102.15V697.63h14.13ZM72.71,798.92H58.49V784.78H72.71ZM44,741.21H58.1v14.13H44Zm0-276H58.1v14.14H44Zm0-58.1H58.1v14.14H44Zm0-130.73H58.1v14.14H44ZM101.76,58.5V72.64H87.63V58.5Zm14.53,72.63v14.14H102.15V131.13Zm-14.13,57.71V174.71h14.13v14.14Zm28.66,246.95H116.68V421.66h14.14Zm-29.05,305H87.63V726.68h14.13ZM58.49,697.62H72.71v14.13H58.49Zm57.79-363.52H102.15V320h14.13Zm0,58.11H102.15V378.07h14.13Zm0,29.05H102.15V407.13h14.13Zm-29-319.58H73V87.55H87.24Zm14.52,421.26H87.63V508.81h14.13ZM87.24,595.58H73V581.44H87.24ZM73,436.18H87.24v14.13H73Zm0-58.11H87.24v14.14H73Zm0-145.65h0V218.29H87.24v14.13Zm0,58.5H87.24v14.13H73Zm0,362.74h0V639.54H87.23v14.12Zm43.66-159.77V479.76h14.14v14.13Zm-.39-232.42H102.15V247.34h14.13Zm29.05-72.63H131.2V174.71h14.14Zm-14.53,552H116.68V726.68h14.14ZM145.34,552H131.2V537.87h14.14Zm.39-72.63V465.23h14.14v14.13Zm0,43.58V508.81h14.14v14.13Zm14.53-28.66h14.14v14.13H160.26Zm-.39-102.07H145.73V378.07h14.14Zm0-72.63H145.73V305.44h14.14Zm-14.14-72.63H131.2V232.81h28.66v14.14Zm14.53-28.66h14.14v14.13H160.26Zm14.53-14.53h14.13v14.14H174.78Zm0-14.91H160.26V160.18h14.14v14.52h14.53v14.14ZM145.73,784.4V770.26h14.14V784.4Zm28.66-319.55H160.26V450.71h28.66v14.14H174.39ZM189.31,334.5h14.14v14.14H189.31ZM188.92,320v14.14H174.78V320ZM159.87,131.13v14.14H145.73V131.13ZM102.15,828V813.84h14.13V828Zm43.58-14.14h14.14V828H145.73Zm28.66-58.1v14.13H160.26V755.73Zm-14.53-58.11v14.14H145.73V697.63Zm14.53-58.09v14.12H160.26V639.14h0V625h14.14v14.52Z"/><rect class="video-1" x="232.7" y="421.27" width="14.91" height="14.91"/><rect class="video-1" x="232.7" y="217.89" width="14.91" height="14.92"/><rect class="video-1" x="232.7" y="29.06" width="14.91" height="14.91"/><rect class="video-1" x="218.18" y="58.11" width="14.92" height="14.92"/></g></g></svg>