<svg id="Layer_1" data-name="Layer 1" xmlns="http://www.w3.org/2000/svg" viewBox="0 0 372.91 344"><defs><style>.partners-1{fill:#75c8f1;}.partners-2{fill:#fff;}.partners-3{fill:#832b94;}</style></defs><title>stats icons</title><ellipse class="partners-1" cx="187.76" cy="171.12" rx="154.72" ry="154.88"/><polygon class="partners-2" points="32.19 146.78 87.85 71.24 127.61 110.99 167.36 110.99 175.31 118.94 234.95 110.99 278.68 67.26 354.22 146.78 203.14 301.82 167.36 301.82 79.9 214.36 67.97 186.53 32.19 146.78"/><path class="partners-3" d="M359.33,143l-76.68-80.9a9,9,0,0,0-6.38-2.82l-3.93.08L231,100.76l-37.48,6.31h0a17,17,0,0,0,19.77,13.72l23.25-3.74,3.17-1L276,79.81l65.65,69.27L264.17,227.7l-20.73-21.4a9,9,0,0,0-6.37-2.76l-3.71.1-43.69,44.12c-4.23,4.62-7.45,7.32-8.38,7.49a5.81,5.81,0,0,1-5.25-1.69L124.29,198l33.86-35.88,10.47,10.47a44.39,44.39,0,0,0,61.75.66,9.06,9.06,0,0,0,2.75-6.37L233,163l-58.11-58.11-2-1.88-2.44-.54-36-4.21L99.67,63.4a8.79,8.79,0,0,0-6.42-2.63L89.33,61,15.89,138.23A9,9,0,0,0,16,150.75L62.24,197l13.81,23.89,79.3,79.3s8.51,11.18,32.26,11.18c17.62,0,24.72-6.5,33-14.8L259.55,257a17,17,0,0,0-24.06.19l-26.94,27.35c-5.69,5.7-12.93,11.14-20.94,10.33-8,1.19-14.47-1.51-20.18-6L90.78,212.35,75.86,186.53,33.6,144.28l59.89-63,31,31,2,1.91,2.49.52,35.92,4.2,46.85,46.85a27.33,27.33,0,0,1-31.07-5.17l-16.16-16.16a9,9,0,0,0-6.39-2.69l-3.88.13-45.14,47.77a22.88,22.88,0,0,0,5.47,22.76l49.31,53.09a22.83,22.83,0,0,0,16.38,6.92,23.63,23.63,0,0,0,4.08-.37c7.49-1.35,11.8-7,16.84-13.22l35.51-35,9.1,9.57,18.49,18.49,95-96.39A8.91,8.91,0,0,0,359.33,143Z"/></svg>