<svg xmlns="http://www.w3.org/2000/svg" viewBox="0 0 113.39 99.21"><defs><style>.cls-1{fill:#36a9e1;}.cls-2{fill:#1f9ad7;}.cls-3{fill:#662483;}</style></defs><title>pick-data</title><g id="Layer_2" data-name="Layer 2"><path class="cls-1" d="M87.4,39.92H26a3.68,3.68,0,0,1-3.68-3.68V27a2.24,2.24,0,0,1,4.48,0v8.43H86.6V27a2.24,2.24,0,1,1,4.48,0v9.23A3.68,3.68,0,0,1,87.4,39.92Z"/><path class="cls-1" d="M88.62,85.92a2.24,2.24,0,0,1-2.24-2.24V75.25H26.56v8.43a2.24,2.24,0,0,1-4.48,0V74.45a3.68,3.68,0,0,1,3.68-3.68H87.18a3.68,3.68,0,0,1,3.68,3.68v9.23A2.24,2.24,0,0,1,88.62,85.92Z"/><path class="cls-1" d="M89.64,46.33H23.89a1.44,1.44,0,0,0-1.44,1.44V62.93a1.44,1.44,0,0,0,1.44,1.44H89.64a1.44,1.44,0,0,0,1.44-1.44V47.76A1.44,1.44,0,0,0,89.64,46.33Zm-61,11v-.41a1.35,1.35,0,0,1-1.1.46,1.83,1.83,0,0,1-.9-.22,1.59,1.59,0,0,1-.63-.64,2.1,2.1,0,0,1,0-1.91,1.58,1.58,0,0,1,.63-.64,1.83,1.83,0,0,1,.9-.22,1.35,1.35,0,0,1,1.06.43V52.46h1l0,4.87Zm5.06,0h-1v-.44a1.14,1.14,0,0,1-1.08.49,1.67,1.67,0,0,1-.7-.14,1,1,0,0,1-.62-.93.92.92,0,0,1,.37-.77,1.88,1.88,0,0,1,1.14-.28h.81a.66.66,0,0,0-.2-.51.9.9,0,0,0-.61-.18,1.77,1.77,0,0,0-.46,0,1.43,1.43,0,0,0-.46.24l-.37-.71a2.23,2.23,0,0,1,.69-.32,3.12,3.12,0,0,1,.83-.11,1.83,1.83,0,0,1,1.26.39,1.49,1.49,0,0,1,.44,1.18Zm2.83,0h0a1.9,1.9,0,0,1-.46.06,1.37,1.37,0,0,1-1-.32,1.22,1.22,0,0,1-.34-.94V54.62h-.54v-.79h.54V53h1v.86h.88v.74h-.88v1.44a.49.49,0,0,0,.11.34.43.43,0,0,0,.32.12.66.66,0,0,0,.41-.13l.28.72A1,1,0,0,1,36.55,57.32Zm3.07,0v-.44a1.14,1.14,0,0,1-1.08.49,1.68,1.68,0,0,1-.7-.14,1,1,0,0,1-.62-.93.92.92,0,0,1,.37-.77,1.88,1.88,0,0,1,1.14-.28h.81a.66.66,0,0,0-.2-.51.9.9,0,0,0-.61-.18,1.77,1.77,0,0,0-.55.09,1.43,1.43,0,0,0-.46.24l-.35-.73a2.23,2.23,0,0,1,.69-.32,3.12,3.12,0,0,1,.83-.11,1.83,1.83,0,0,1,1.26.39,1.49,1.49,0,0,1,.44,1.18l0,2Zm2.75-.13a.65.65,0,0,1-.9,0,.62.62,0,0,1-.18-.46.6.6,0,0,1,.18-.46.68.68,0,0,1,.9,0,.6.6,0,0,1,.18.46A.62.62,0,0,1,42.37,57.2Zm4.53-.67h0a1.64,1.64,0,0,1-.63.64,1.81,1.81,0,0,1-.9.23,1.36,1.36,0,0,1-1.11-.46v.41h-1V52.46h1v1.71a1.36,1.36,0,0,1,1.15-.42,1.8,1.8,0,0,1,.9.23,1.63,1.63,0,0,1,.63.64A2.1,2.1,0,0,1,46.9,56.53Zm4.31-.68H48.54a.83.83,0,0,0,.34.52,1.13,1.13,0,0,0,.67.19,1.36,1.36,0,0,0,.49-.08,1.19,1.19,0,0,0,.4-.26l.54.59a1.83,1.83,0,0,1-1.45.57,2.3,2.3,0,0,1-1.06-.23,1.7,1.7,0,0,1-.71-.65,1.89,1.89,0,0,1,0-1.87,1.72,1.72,0,0,1,.68-.65,2.09,2.09,0,0,1,1.9,0,1.63,1.63,0,0,1,.66.64,1.9,1.9,0,0,1,.24,1A.85.85,0,0,0,51.21,55.85Zm2.61,1.47h0a1.9,1.9,0,0,1-.46.06,1.37,1.37,0,0,1-1-.32,1.22,1.22,0,0,1-.34-.94V54.62h-.54v-.79H52V53h1v.86h.88v.74H53v1.44a.49.49,0,0,0,.11.34.43.43,0,0,0,.32.12.66.66,0,0,0,.41-.13l.28.72A1,1,0,0,1,53.82,57.32Zm2.77,0h0a1.9,1.9,0,0,1-.46.06,1.37,1.37,0,0,1-1-.32,1.22,1.22,0,0,1-.34-.94V54.62h-.51v-.79h.54V53h1v.86h.88v.74h-.88v1.44a.49.49,0,0,0,.11.34.43.43,0,0,0,.32.12.66.66,0,0,0,.41-.13l.28.72A1,1,0,0,1,56.59,57.32Zm4.26-1.46H58.19a.83.83,0,0,0,.34.52,1.13,1.13,0,0,0,.67.19,1.35,1.35,0,0,0,.49-.08,1.19,1.19,0,0,0,.4-.26l.54.59a1.83,1.83,0,0,1-1.45.57,2.3,2.3,0,0,1-1.06-.23,1.7,1.7,0,0,1-.71-.65,1.89,1.89,0,0,1,0-1.89,1.72,1.72,0,0,1,.68-.65A2.09,2.09,0,0,1,60,54a1.63,1.63,0,0,1,.66.64,1.9,1.9,0,0,1,.24,1,.82.82,0,0,1,0,.24Zm2.89-1.16h-.23a.93.93,0,0,0-.69.25,1,1,0,0,0-.25.74v1.66h-1V53.8h1v.46a1.15,1.15,0,0,1,.49-.39,1.85,1.85,0,0,1,.72-.13Zm1.42,2.5h0a.65.65,0,0,1-.9,0,.62.62,0,0,1-.18-.46.6.6,0,0,1,.18-.46.68.68,0,0,1,.9,0,.6.6,0,0,1,.18.46A.62.62,0,0,1,65.16,57.2Zm4.21-.71,0,0a1.74,1.74,0,0,1-.69.65,2.25,2.25,0,0,1-2,0,1.73,1.73,0,0,1-.69-.65,1.88,1.88,0,0,1,0-1.87,1.73,1.73,0,0,1,.69-.65,2.25,2.25,0,0,1,2,0,1.74,1.74,0,0,1,.71.63A1.88,1.88,0,0,1,69.37,56.49Zm3.1-1.79h-.23a.93.93,0,0,0-.69.25,1,1,0,0,0-.25.74v1.66h-1V53.8h1v.46a1.15,1.15,0,0,1,.49-.39,1.85,1.85,0,0,1,.72-.13Zm4.21,2a1.89,1.89,0,0,1-.5,1.44,2.09,2.09,0,0,1-1.48.47,3.68,3.68,0,0,1-1-.12,2.12,2.12,0,0,1-.76-.36l.41-.73a1.67,1.67,0,0,0,.56.29,2.25,2.25,0,0,0,.68.11,1.11,1.11,0,0,0,.78-.18,1,1,0,0,0,.25-.72v-.18a1.43,1.43,0,0,1-1.11.44,1.88,1.88,0,0,1-.89-.21,1.62,1.62,0,0,1-.64-.6,1.8,1.8,0,0,1,0-1.78,1.62,1.62,0,0,1,.64-.6,1.88,1.88,0,0,1,.89-.21,1.4,1.4,0,0,1,1.17.5v-.45h1Zm1.79.5v0a.65.65,0,0,1-.9,0,.62.62,0,0,1-.18-.46.6.6,0,0,1,.18-.46.68.68,0,0,1,.9,0,.6.6,0,0,1,.18.46A.62.62,0,0,1,78.47,57.2Zm3.38.09v-.42a1.37,1.37,0,0,1-.48.35,1.53,1.53,0,0,1-.61.12,1.5,1.5,0,0,1-1.1-.4,1.59,1.59,0,0,1-.41-1.19v-2h1v1.87c0,.57.24.85.71.85a.77.77,0,0,0,.59-.24,1,1,0,0,0,.22-.71V53.8h1l.08,3.49Zm4.58,0-1.06-1.35-.49.49v.9h-1V52.46h1v2.76l1.49-1.42h1.22l-1.47,1.49,1.6,2Z"/><path class="cls-1" d="M59.05,54.52a.88.88,0,0,0-.58.2.84.84,0,0,0-.29.54h1.74a.84.84,0,0,0-.29-.53A.86.86,0,0,0,59.05,54.52Z"/><path class="cls-1" d="M74.75,54.62a1,1,0,0,0-.67.24.88.88,0,0,0,0,1.24h0a1,1,0,0,0,.67.24.94.94,0,0,0,.67-.24.89.89,0,0,0,0-1.25A.94.94,0,0,0,74.75,54.62Z"/><path class="cls-1" d="M38.26,56.26a.37.37,0,0,0,.11.36.7.7,0,0,0,.42.11.88.88,0,0,0,.46-.12.67.67,0,0,0,.29-.36v-.36h-.7Q38.26,55.85,38.26,56.26Z"/><path class="cls-1" d="M67.67,54.62a.86.86,0,0,0-.65.27,1.11,1.11,0,0,0,0,1.42.92.92,0,0,0,1.29,0,1.13,1.13,0,0,0,0-1.42A.85.85,0,0,0,67.67,54.62Z"/><path class="cls-1" d="M49.37,54.52a.88.88,0,0,0-.58.2.84.84,0,0,0-.29.54h1.74a.84.84,0,0,0-.29-.53A.86.86,0,0,0,49.37,54.52Z"/><path class="cls-1" d="M27.75,54.62a.86.86,0,0,0-.65.27,1.11,1.11,0,0,0,0,1.42.87.87,0,0,0,.65.27.85.85,0,0,0,.64-.27,1.11,1.11,0,0,0,0-1.42A.85.85,0,0,0,27.75,54.62Z"/><path class="cls-1" d="M45.16,54.62a.85.85,0,0,0-.65.27,1.13,1.13,0,0,0,0,1.42.92.92,0,0,0,1.29,0,1.13,1.13,0,0,0,0-1.42A.85.85,0,0,0,45.16,54.62Z"/><path class="cls-1" d="M31.37,56.26a.37.37,0,0,0,.15.31.7.7,0,0,0,.42.11.88.88,0,0,0,.46-.12.67.67,0,0,0,.29-.36v-.36H32Q31.37,55.85,31.37,56.26Z"/><path class="cls-2" d="M96.74,12.77H16.65a5,5,0,0,0-5,5V81.48a5,5,0,0,0,5,5H96.74a5,5,0,0,0,5-5V17.73A5,5,0,0,0,96.74,12.77ZM16.65,17.25H96.74a.48.48,0,0,1,.48.48v6.42h-81V17.73A.48.48,0,0,1,16.65,17.25ZM96.74,82H16.65a.48.48,0,0,1-.48-.48V28.63h81V81.48A.48.48,0,0,1,96.74,82Z"/><path class="cls-3" d="M95.48,64.33l-13.18-5a.45.45,0,0,0-.59.59l5,13.17a.47.47,0,0,0,.88,0l1.22-4.51,3.39,3.39a1.49,1.49,0,0,0,2.11-2.11L91,66.42l4.51-1.21A.47.47,0,0,0,95.48,64.33Z"/><path class="cls-2" d="M31.86,78.78v3.86h-.78v-.32a1.07,1.07,0,0,1-.87.37,1.45,1.45,0,0,1-.72-.18A1.27,1.27,0,0,1,29,82a1.68,1.68,0,0,1,0-1.52,1.26,1.26,0,0,1,.5-.51,1.46,1.46,0,0,1,.72-.18,1.07,1.07,0,0,1,.83.34V78.78Zm-1,3a.89.89,0,0,0,0-1.14.72.72,0,0,0-1,0,.89.89,0,0,0,0,1.13.72.72,0,0,0,1,0Z"/><path class="cls-2" d="M34.72,80.12a1.18,1.18,0,0,1,.35.94v1.56h-.78v-.35a.9.9,0,0,1-.85.39,1.32,1.32,0,0,1-.56-.11.83.83,0,0,1-.36-.3.78.78,0,0,1-.12-.44.73.73,0,0,1,.3-.62,1.5,1.5,0,0,1,.9-.23h.65a.51.51,0,0,0-.16-.41.71.71,0,0,0-.48-.14,1.4,1.4,0,0,0-.44.07,1.15,1.15,0,0,0-.37.19l-.29-.57a1.75,1.75,0,0,1,.55-.25,2.46,2.46,0,0,1,.65-.09A1.46,1.46,0,0,1,34.72,80.12ZM34,82a.53.53,0,0,0,.23-.28v-.31H33.7q-.5,0-.5.33a.29.29,0,0,0,.12.25.55.55,0,0,0,.34.09A.7.7,0,0,0,34,82Z"/><path class="cls-2" d="M37.61,82.51a.83.83,0,0,1-.3.13,1.47,1.47,0,0,1-.37,0,1.09,1.09,0,0,1-.78-.26,1,1,0,0,1-.27-.78V80.53h-.4v-.64h.43v-.68h.78v.68h.69v.62h-.69v1.14a.38.38,0,0,0,.09.27.34.34,0,0,0,.26.09.52.52,0,0,0,.33-.1Z"/><path class="cls-2" d="M40.18,80.12a1.18,1.18,0,0,1,.35.94v1.56h-.78v-.35a.9.9,0,0,1-.85.39,1.32,1.32,0,0,1-.56-.11.83.83,0,0,1-.36-.3.78.78,0,0,1-.12-.44.73.73,0,0,1,.3-.62,1.5,1.5,0,0,1,.9-.23h.65a.51.51,0,0,0-.16-.41.71.71,0,0,0-.48-.14,1.4,1.4,0,0,0-.44.07,1.15,1.15,0,0,0-.37.19L38,80.1a1.75,1.75,0,0,1,.55-.25,2.46,2.46,0,0,1,.65-.09A1.46,1.46,0,0,1,40.18,80.12ZM39.48,82a.53.53,0,0,0,.23-.28v-.31h-.55q-.5,0-.5.33a.29.29,0,0,0,.12.25.55.55,0,0,0,.34.09.7.7,0,0,0,.39-.08Z"/><path class="cls-2" d="M41.23,82.54a.49.49,0,0,1-.15-.37.48.48,0,0,1,.15-.36.54.54,0,0,1,.72,0,.48.48,0,0,1,.15.36.49.49,0,0,1-.15.37A.51.51,0,0,1,41.23,82.54Z"/><path class="cls-2" d="M45,80a1.29,1.29,0,0,1,.5.51,1.66,1.66,0,0,1,0,1.51,1.29,1.29,0,0,1-.5.51,1.43,1.43,0,0,1-.71.18,1.08,1.08,0,0,1-.88-.37v.32h-.78V78.78h.78v1.36a1.08,1.08,0,0,1,.84-.34A1.43,1.43,0,0,1,45,80Zm-.34,1.82a.9.9,0,0,0,0-1.13.72.72,0,0,0-1,0,.9.9,0,0,0,0,1.13A.72.72,0,0,0,44.67,81.81Z"/><path class="cls-2" d="M46.76,82.5a1.37,1.37,0,0,1-.55-.51,1.5,1.5,0,0,1,0-1.49,1.36,1.36,0,0,1,.55-.51,1.78,1.78,0,0,1,1.56,0,1.37,1.37,0,0,1,.55.51,1.5,1.5,0,0,1,0,1.49,1.37,1.37,0,0,1-.55.51A1.79,1.79,0,0,1,46.76,82.5Zm1.3-.69a.9.9,0,0,0,0-1.13.68.68,0,0,0-.51-.21.69.69,0,0,0-.51.21.89.89,0,0,0,0,1.13.69.69,0,0,0,.51.21.68.68,0,0,0,.52-.21Z"/><path class="cls-2" d="M50.17,82.5a1.37,1.37,0,0,1-.55-.51,1.5,1.5,0,0,1,0-1.49,1.36,1.36,0,0,1,.55-.51,1.78,1.78,0,0,1,1.56,0,1.37,1.37,0,0,1,.55.51,1.5,1.5,0,0,1,0,1.49,1.37,1.37,0,0,1-.55.51A1.79,1.79,0,0,1,50.17,82.5Zm1.3-.69a.9.9,0,0,0,0-1.13.68.68,0,0,0-.51-.21.69.69,0,0,0-.51.21.89.89,0,0,0,0,1.13A.69.69,0,0,0,51,82,.68.68,0,0,0,51.47,81.81Z"/><path class="cls-2" d="M54.2,81.54l-.39.38v.71H53V78.78h.78V81L55,79.84h1L54.83,81l1.27,1.61h-1Z"/><path class="cls-2" d="M60.79,79.84l-1,2.8H59l-.63-1.74-.65,1.74h-.78l-1-2.8h.78l.61,1.89L58,79.84h.69l.66,1.89L60,79.84Z"/><path class="cls-2" d="M63.71,80.12A1.24,1.24,0,0,1,64,81v1.6h-.78V81.17a.73.73,0,0,0-.15-.5.53.53,0,0,0-.42-.16.65.65,0,0,0-.49.19.78.78,0,0,0-.18.56v1.38h-.78V78.78H62v1.35a1.08,1.08,0,0,1,.39-.25,1.41,1.41,0,0,1,.5-.09A1.15,1.15,0,0,1,63.71,80.12Z"/><path class="cls-2" d="M67.51,81.45H65.4a.65.65,0,0,0,.27.41.9.9,0,0,0,.53.15,1.08,1.08,0,0,0,.39-.06.94.94,0,0,0,.31-.2l.43.47a1.45,1.45,0,0,1-1.15.45,1.82,1.82,0,0,1-.83-.19,1.35,1.35,0,0,1-.56-.51,1.41,1.41,0,0,1-.19-.78,1.43,1.43,0,0,1,.19-.78,1.36,1.36,0,0,1,.54-.51,1.65,1.65,0,0,1,1.5,0,1.29,1.29,0,0,1,.52.51,1.51,1.51,0,0,1,.19.78S67.52,81.34,67.51,81.45Zm-1.89-.9a.66.66,0,0,0-.23.43h1.38a.67.67,0,0,0-.23-.42.69.69,0,0,0-.46-.16.7.7,0,0,0-.47.17Z"/><path class="cls-2" d="M70.57,80.12a1.24,1.24,0,0,1,.32.93v1.6h-.78V81.17a.73.73,0,0,0-.15-.5.53.53,0,0,0-.42-.16.65.65,0,0,0-.49.19.78.78,0,0,0-.18.56v1.38h-.78V79.84h.78v.33a1.08,1.08,0,0,1,.37-.28,1.4,1.4,0,0,1,.52-.09A1.15,1.15,0,0,1,70.57,80.12Z"/><path class="cls-2" d="M71.6,82.54a.5.5,0,0,1-.15-.37.48.48,0,0,1,.15-.36.54.54,0,0,1,.72,0,.48.48,0,0,1,.15.36.5.5,0,0,1-.15.37A.51.51,0,0,1,71.6,82.54Z"/><path class="cls-2" d="M73.53,82.5a1.41,1.41,0,0,1,0-2.51,1.72,1.72,0,0,1,.78-.19,1.56,1.56,0,0,1,.78.19,1.09,1.09,0,0,1,.48.53l-.63.34a.69.69,0,0,0-.63-.38.71.71,0,0,0-.52.21.87.87,0,0,0,0,1.13.71.71,0,0,0,.52.21.68.68,0,0,0,.63-.38l.63.34a1.11,1.11,0,0,1-.48.52,1.56,1.56,0,0,1-.78.19A1.71,1.71,0,0,1,73.53,82.5Z"/><path class="cls-2" d="M76.55,82.5A1.37,1.37,0,0,1,76,82a1.5,1.5,0,0,1,0-1.49,1.36,1.36,0,0,1,.55-.51,1.78,1.78,0,0,1,1.56,0,1.37,1.37,0,0,1,.55.51,1.5,1.5,0,0,1,0,1.49,1.37,1.37,0,0,1-.55.51A1.79,1.79,0,0,1,76.55,82.5Zm1.3-.69a.9.9,0,0,0,0-1.13.68.68,0,0,0-.51-.21.69.69,0,0,0-.54.2.89.89,0,0,0,0,1.13.69.69,0,0,0,.51.21.68.68,0,0,0,.55-.2Z"/><path class="cls-2" d="M83.82,80.12a1.25,1.25,0,0,1,.31.93v1.6h-.78V81.17a.78.78,0,0,0-.14-.5.48.48,0,0,0-.39-.16.58.58,0,0,0-.45.19.78.78,0,0,0-.16.55v1.4h-.78V81.17q0-.66-.53-.66a.57.57,0,0,0-.44.19.78.78,0,0,0-.16.55v1.4h-.78v-2.8h.78v.32a1,1,0,0,1,.38-.27,1.29,1.29,0,0,1,.5-.09,1.2,1.2,0,0,1,.54.12.94.94,0,0,1,.38.34,1.15,1.15,0,0,1,.44-.34,1.36,1.36,0,0,1,.58-.12A1.13,1.13,0,0,1,83.82,80.12Z"/><path class="cls-2" d="M31.94,27.79v3.75h-.77v-.31a1,1,0,0,1-.85.36,1.42,1.42,0,0,1-.7-.17,1.23,1.23,0,0,1-.49-.49,1.62,1.62,0,0,1,0-1.48,1.22,1.22,0,0,1,.49-.49,1.42,1.42,0,0,1,.7-.17,1,1,0,0,1,.81.32V27.79Zm-1,2.94a.87.87,0,0,0,0-1.1.71.71,0,0,0-1,0,.86.86,0,0,0,0,1.1A.71.71,0,0,0,31,30.73Z"/><path class="cls-2" d="M34.74,29.05a1.15,1.15,0,0,1,.34.9v1.55H34.3v-.34a.88.88,0,0,1-.83.38,1.29,1.29,0,0,1-.54-.11.81.81,0,0,1-.35-.29.77.77,0,0,1-.12-.43.71.71,0,0,1,.29-.6,1.46,1.46,0,0,1,.88-.22h.63a.5.5,0,0,0-.15-.39.7.7,0,0,0-.47-.14,1.37,1.37,0,0,0-.43.07,1.13,1.13,0,0,0-.36.19l-.22-.51a1.7,1.7,0,0,1,.53-.24,2.4,2.4,0,0,1,.64-.09A1.42,1.42,0,0,1,34.74,29.05Zm-.67,1.87a.51.51,0,0,0,.22-.28v-.28h-.54q-.49,0-.49.32a.29.29,0,0,0,.12.24.53.53,0,0,0,.32.09.68.68,0,0,0,.36,0Z"/><path class="cls-2" d="M37.53,31.41a.77.77,0,0,1-.29.13,1.43,1.43,0,0,1-.36,0,1.06,1.06,0,0,1-.77-.25.94.94,0,0,1-.26-.73V29.5h-.42v-.6h.42v-.67h.77v.67h.68v.6h-.68V30.6a.37.37,0,0,0,.09.26A.32.32,0,0,0,37,31a.5.5,0,0,0,.32-.1Z"/><path class="cls-2" d="M40,29.05a1.15,1.15,0,0,1,.31.94v1.55h-.77V31.2a.88.88,0,0,1-.83.38,1.29,1.29,0,0,1-.54-.11.81.81,0,0,1-.35-.29.77.77,0,0,1-.12-.43.71.71,0,0,1,.29-.6,1.46,1.46,0,0,1,.88-.22h.67a.5.5,0,0,0-.15-.39.7.7,0,0,0-.47-.14,1.37,1.37,0,0,0-.43.07,1.13,1.13,0,0,0-.36.19l-.29-.55a1.7,1.7,0,0,1,.53-.24,2.4,2.4,0,0,1,.64-.09A1.42,1.42,0,0,1,40,29.05Zm-.67,1.87a.51.51,0,0,0,.22-.28v-.28h-.54q-.49,0-.49.32a.29.29,0,0,0,.12.24A.53.53,0,0,0,39,31a.68.68,0,0,0,.36,0Z"/><path class="cls-2" d="M41.05,31.44a.48.48,0,0,1-.14-.36.46.46,0,0,1,.14-.35.52.52,0,0,1,.7,0,.46.46,0,0,1,.14.35.48.48,0,0,1-.14.36A.5.5,0,0,1,41.05,31.44Z"/><path class="cls-2" d="M42.91,31.37a1.33,1.33,0,0,1-.53-.49,1.45,1.45,0,0,1,0-1.45,1.32,1.32,0,0,1,.53-.49,1.74,1.74,0,0,1,1.55,0,1.33,1.33,0,0,1,.53.49,1.45,1.45,0,0,1,0,1.45,1.34,1.34,0,0,1-.53.49A1.74,1.74,0,0,1,42.91,31.37Zm1.27-.67a.87.87,0,0,0,0-1.1.66.66,0,0,0-.49-.2.67.67,0,0,0-.5.2.87.87,0,0,0,0,1.1.67.67,0,0,0,.5.2.66.66,0,0,0,.49-.17Z"/><path class="cls-2" d="M48.44,28.83v2.72h-.77v-.32a1,1,0,0,1-.37.27,1.18,1.18,0,0,1-.47.09,1.16,1.16,0,0,1-.85-.31,1.23,1.23,0,0,1-.31-.91V28.82h.77v1.42q0,.66.55.66a.59.59,0,0,0,.46-.19.77.77,0,0,0,.17-.55V28.83Z"/><path class="cls-2" d="M50.31,28.89a1.42,1.42,0,0,1,.56-.1v.73h-.18a.72.72,0,0,0-.53.19.77.77,0,0,0-.19.56v1.28h-.77V28.83H50v.36A.87.87,0,0,1,50.31,28.89Z"/><path class="cls-2" d="M53.63,29a1.25,1.25,0,0,1,.49.49,1.62,1.62,0,0,1,0,1.47,1.26,1.26,0,0,1-.49.49,1.38,1.38,0,0,1-.69.18,1.05,1.05,0,0,1-.82-.32v1.27h-.77v-3.7h.77v.31a1,1,0,0,1,.86-.36A1.38,1.38,0,0,1,53.63,29Zm-.32,1.77a.87.87,0,0,0,0-1.1.71.71,0,0,0-1,0,.87.87,0,0,0,0,1.1A.71.71,0,0,0,53.3,30.73Z"/><path class="cls-2" d="M56.84,29.05a1.15,1.15,0,0,1,.34.9v1.55h-.77v-.34a.88.88,0,0,1-.83.38,1.29,1.29,0,0,1-.54-.11.81.81,0,0,1-.35-.29.77.77,0,0,1-.12-.43.71.71,0,0,1,.29-.6,1.46,1.46,0,0,1,.88-.22h.63a.5.5,0,0,0-.15-.39.7.7,0,0,0-.47-.14,1.37,1.37,0,0,0-.43.07,1.13,1.13,0,0,0-.36.19l-.29-.55a1.7,1.7,0,0,1,.53-.24,2.4,2.4,0,0,1,.64-.09A1.42,1.42,0,0,1,56.84,29.05Zm-.67,1.87a.51.51,0,0,0,.22-.28v-.28h-.56q-.49,0-.49.32a.29.29,0,0,0,.12.24.53.53,0,0,0,.32.09.68.68,0,0,0,.39,0Z"/><path class="cls-2" d="M59,28.89a1.42,1.42,0,0,1,.56-.1v.73h-.18a.72.72,0,0,0-.53.19.77.77,0,0,0-.19.56v1.28h-.77V28.83h.77v.36A.87.87,0,0,1,59,28.89Z"/><path class="cls-2" d="M61.24,30.48l-.38.37v.7h-.77V27.79h.77v2.13L62,28.83H63L61.8,30,63,31.53h-1Z"/><path class="cls-2" d="M63.56,31.51A1.75,1.75,0,0,1,63,31.3l.26-.56a1.67,1.67,0,0,0,.44.19,1.85,1.85,0,0,0,.5.07c.33,0,.5-.09.5-.25a.18.18,0,0,0-.14-.17,2,2,0,0,0-.42-.09,4.09,4.09,0,0,1-.55-.12.86.86,0,0,1-.38-.23.66.66,0,0,1-.16-.47.77.77,0,0,1,.15-.46,1,1,0,0,1,.43-.31,1.86,1.86,0,0,1,.67-.11,2.64,2.64,0,0,1,.57.06,1.61,1.61,0,0,1,.47.18l-.26.56a1.55,1.55,0,0,0-.77-.2.77.77,0,0,0-.38.07.21.21,0,0,0-.12.19.18.18,0,0,0,.14.18,2.4,2.4,0,0,0,.43.09A4.56,4.56,0,0,1,65,30a.82.82,0,0,1,.37.23.66.66,0,0,1,.15.46.72.72,0,0,1-.15.45,1,1,0,0,1-.44.3,2,2,0,0,1-.69.11A2.64,2.64,0,0,1,63.56,31.51Z"/><path class="cls-2" d="M65.93,31.44a.48.48,0,0,1-.14-.36.46.46,0,0,1,.14-.35.52.52,0,0,1,.7,0,.46.46,0,0,1,.14.35.48.48,0,0,1-.14.36A.5.5,0,0,1,65.93,31.44Z"/><path class="cls-2" d="M67.79,31.37a1.33,1.33,0,0,1-.53-.49,1.45,1.45,0,0,1,0-1.45,1.32,1.32,0,0,1,.53-.49,1.74,1.74,0,0,1,1.55,0,1.33,1.33,0,0,1,.53.49,1.45,1.45,0,0,1,0,1.45,1.34,1.34,0,0,1-.53.49A1.74,1.74,0,0,1,67.79,31.37Zm1.27-.67a.87.87,0,0,0,0-1.1.66.66,0,0,0-.49-.2.67.67,0,0,0-.5.2.87.87,0,0,0,0,1.1.67.67,0,0,0,.5.2.66.66,0,0,0,.49-.17Z"/><path class="cls-2" d="M71.71,28.89a1.42,1.42,0,0,1,.56-.1v.73h-.2a.72.72,0,0,0-.53.19.77.77,0,0,0-.19.56v1.28h-.77V28.83h.77v.36A.87.87,0,0,1,71.71,28.89Z"/><path class="cls-2" d="M75.52,28.83V31.1a1.45,1.45,0,0,1-.39,1.11,1.61,1.61,0,0,1-1.14.36,2.87,2.87,0,0,1-.77-.09,1.64,1.64,0,0,1-.59-.28l.32-.56a1.3,1.3,0,0,0,.43.22,1.72,1.72,0,0,0,.53.09.85.85,0,0,0,.6-.19.77.77,0,0,0,.19-.56v-.12a1.1,1.1,0,0,1-.86.34,1.45,1.45,0,0,1-.69-.16,1.25,1.25,0,0,1-.49-.46,1.39,1.39,0,0,1,0-1.38,1.25,1.25,0,0,1,.49-.46,1.45,1.45,0,0,1,.69-.16,1.08,1.08,0,0,1,.9.39v-.35Zm-1,1.77a.68.68,0,0,0,0-1h0a.73.73,0,0,0-.51-.19.77.77,0,0,0-.52.19.68.68,0,0,0,0,1h0a.77.77,0,0,0,.52.19A.73.73,0,0,0,74.54,30.6Z"/><path class="cls-2" d="M76.2,31.44a.48.48,0,0,1-.14-.36.46.46,0,0,1,.14-.35.52.52,0,0,1,.7,0,.46.46,0,0,1,.14.35.48.48,0,0,1-.14.36A.5.5,0,0,1,76.2,31.44Z"/><path class="cls-2" d="M80.28,28.83v2.72h-.77v-.32a1,1,0,0,1-.37.27,1.18,1.18,0,0,1-.47.09,1.16,1.16,0,0,1-.85-.31,1.23,1.23,0,0,1-.31-.91V28.82h.77v1.42q0,.66.55.66a.59.59,0,0,0,.46-.19.77.77,0,0,0,.17-.55V28.83Z"/><path class="cls-2" d="M82.18,30.48l-.38.37v.7H81V27.79h.77v2.13L83,28.83h.94L82.76,30,84,31.53H83Z"/></g></svg>