<svg xmlns="http://www.w3.org/2000/svg" viewBox="0 0 109.09 85.95"><defs><style>.signup-1{fill:#1c9ad7;}.signup-2,.signup-3,.signup-4{fill:none;}.signup-2,.signup-3{stroke:#1c9ad7;stroke-miterlimit:10;}.signup-2{stroke-width:0.86px;}.signup-3{stroke-width:0.83px;}</style></defs><title>activity1</title><g id="Layer_2" data-name="Layer 2"><g id="Layer_1-2" data-name="Layer 1"><path class="signup-1" d="M108.27,85.95H.82A.83.83,0,0,1,0,85.11V21.87H0a5.54,5.54,0,0,1,5.5,5.58V80.37h98.1V5.58H5.5v6.64H94.75a5.54,5.54,0,0,1,5.5,5.58H.82A.83.83,0,0,1,0,17V.84A.83.83,0,0,1,.82,0H108.27a.83.83,0,0,1,.82.84V85.11A.83.83,0,0,1,108.27,85.95Z"/><ellipse class="signup-1" cx="98.14" cy="9.04" rx="1.82" ry="1.84"/><ellipse class="signup-1" cx="93.29" cy="9.04" rx="1.82" ry="1.84"/><ellipse class="signup-1" cx="88.44" cy="9.04" rx="1.82" ry="1.84"/><rect class="signup-2" x="11.78" y="31.85" width="37.32" height="6.61"/><rect class="signup-2" x="54.05" y="31.85" width="37.32" height="6.61"/><rect class="signup-3" x="12.21" y="47" width="79.26" height="6.88"/><path class="signup-1" d="M14.4,44.28H12.82a.5.5,0,0,0,.2.31.66.66,0,0,0,.39.11.8.8,0,0,0,.29,0,.71.71,0,0,0,.23-.16l.32.35a1.07,1.07,0,0,1-.86.34,1.35,1.35,0,0,1-.63-.14,1,1,0,0,1-.42-.39,1.08,1.08,0,0,1-.15-.56,1.1,1.1,0,0,1,.14-.56,1,1,0,0,1,.4-.39,1.22,1.22,0,0,1,1.12,0,1,1,0,0,1,.39.38,1.16,1.16,0,0,1,.14.58ZM13,43.59a.51.51,0,0,0-.17.32h1a.52.52,0,0,0-.17-.32.55.55,0,0,0-.69,0Z"/><path class="signup-1" d="M18.11,43.25a1,1,0,0,1,.23.7v1.21h-.61V44a.58.58,0,0,0-.1-.38.36.36,0,0,0-.29-.12.43.43,0,0,0-.34.14.62.62,0,0,0-.12.42v1.06h-.61V44c0-.33-.13-.5-.4-.5a.42.42,0,0,0-.33.14.62.62,0,0,0-.12.42v1.06h-.61V43h.58v.24a.77.77,0,0,1,.29-.2A.94.94,0,0,1,16,43a.87.87,0,0,1,.4.09.71.71,0,0,1,.29.26.86.86,0,0,1,.32-.26,1,1,0,0,1,.43-.09A.84.84,0,0,1,18.11,43.25Z"/><path class="signup-1" d="M20.47,43.25a.9.9,0,0,1,.26.71v1.21h-.57V44.9a.67.67,0,0,1-.64.3,1,1,0,0,1-.42-.08.62.62,0,0,1-.27-.23.6.6,0,0,1-.09-.33.56.56,0,0,1,.22-.46,1.1,1.1,0,0,1,.68-.17h.48a.4.4,0,0,0-.12-.31.52.52,0,0,0-.36-.11,1,1,0,0,0-.33.05.89.89,0,0,0-.27.14l-.22-.43a1.3,1.3,0,0,1,.41-.19,1.82,1.82,0,0,1,.49-.07A1.08,1.08,0,0,1,20.47,43.25ZM20,44.71a.4.4,0,0,0,.17-.21v-.22h-.42c-.25,0-.37.08-.37.25a.22.22,0,0,0,.09.19.4.4,0,0,0,.25.07A.53.53,0,0,0,20,44.71Z"/><path class="signup-1" d="M21.31,42.65a.34.34,0,0,1,0-.49.38.38,0,0,1,.27-.1.39.39,0,0,1,.27.1.31.31,0,0,1,.1.24.34.34,0,0,1-.1.25.42.42,0,0,1-.54,0Zm0,.39h.61v2.12h-.61Z"/><path class="signup-1" d="M22.44,42.24H23v2.92h-.61Z"/><path class="signup-1" d="M12.72,28h.55v.49h-.54V30.1h-.62V28.45h-.33V28h.33v-.1a.8.8,0,0,1,.22-.59.83.83,0,0,1,.61-.22,1.13,1.13,0,0,1,.27,0,.63.63,0,0,1,.21.09l-.16.46a.42.42,0,0,0-.25-.08q-.28,0-.28.32Zm1.22-.45a.35.35,0,0,1,0-.5.39.39,0,0,1,.28-.1.4.4,0,0,1,.28.1.31.31,0,0,1,.11.24.35.35,0,0,1-.11.26.39.39,0,0,1-.28.1A.39.39,0,0,1,13.93,27.51Zm0,.41h.62V30.1H13.9Z"/><path class="signup-1" d="M16,28a1.11,1.11,0,0,1,.44-.08v.59H16.3a.57.57,0,0,0-.42.15.62.62,0,0,0-.15.46v1H15.1V27.91h.6v.29A.69.69,0,0,1,16,28Z"/><path class="signup-1" d="M17,30.07a1.35,1.35,0,0,1-.41-.17l.21-.45a1.28,1.28,0,0,0,.35.15,1.44,1.44,0,0,0,.4.06q.4,0,.4-.2a.14.14,0,0,0-.11-.13,1.6,1.6,0,0,0-.33-.07,3.16,3.16,0,0,1-.44-.09.67.67,0,0,1-.3-.19.54.54,0,0,1-.13-.38.61.61,0,0,1,.12-.37.77.77,0,0,1,.34-.25,1.45,1.45,0,0,1,.53-.09,2,2,0,0,1,.45.05,1.26,1.26,0,0,1,.37.14l-.21.45a1.22,1.22,0,0,0-.62-.16.62.62,0,0,0-.3.06.17.17,0,0,0-.1.15.14.14,0,0,0,.11.14,1.86,1.86,0,0,0,.34.08l.43.1a.65.65,0,0,1,.29.19.53.53,0,0,1,.12.37.59.59,0,0,1-.12.36.76.76,0,0,1-.35.25,1.53,1.53,0,0,1-.55.09A2.07,2.07,0,0,1,17,30.07Z"/><path class="signup-1" d="M20.33,30a.63.63,0,0,1-.23.1,1.14,1.14,0,0,1-.28,0,.83.83,0,0,1-.59-.2.77.77,0,0,1-.21-.59v-.9h-.33V28H19v-.53h.62V28h.54v.49h-.54v.89a.3.3,0,0,0,.07.21.26.26,0,0,0,.2.08.4.4,0,0,0,.25-.08Z"/><path class="signup-1" d="M23.77,28.13a1,1,0,0,1,.25.72V30.1h-.62V28.95a.58.58,0,0,0-.11-.39.41.41,0,0,0-.32-.13.49.49,0,0,0-.38.15.62.62,0,0,0-.14.44V30.1h-.62V27.91h.6v.26a.83.83,0,0,1,.31-.21,1.06,1.06,0,0,1,.4-.08A.88.88,0,0,1,23.77,28.13Z"/><path class="signup-1" d="M26.22,28.12a.93.93,0,0,1,.27.73V30.1H25.9v-.27a.69.69,0,0,1-.66.31,1,1,0,0,1-.43-.09.64.64,0,0,1-.28-.24.62.62,0,0,1-.1-.34.57.57,0,0,1,.23-.48,1.14,1.14,0,0,1,.7-.18h.5a.41.41,0,0,0-.12-.32.54.54,0,0,0-.37-.11,1.07,1.07,0,0,0-.34.06.88.88,0,0,0-.28.15l-.22-.44a1.33,1.33,0,0,1,.42-.2,1.88,1.88,0,0,1,.51-.07A1.11,1.11,0,0,1,26.22,28.12Zm-.53,1.51a.41.41,0,0,0,.18-.22v-.22h-.43q-.38,0-.38.26a.23.23,0,0,0,.09.19.42.42,0,0,0,.26.07A.54.54,0,0,0,25.68,29.63Z"/><path class="signup-1" d="M30.45,28.12a1,1,0,0,1,.24.73V30.1h-.62V28.95a.6.6,0,0,0-.11-.39.37.37,0,0,0-.3-.13.44.44,0,0,0-.35.14.63.63,0,0,0-.13.43v1.1h-.62V28.95q0-.52-.41-.52a.44.44,0,0,0-.34.14.63.63,0,0,0-.13.43v1.1H27V27.91h.6v.25a.78.78,0,0,1,.29-.21,1,1,0,0,1,.38-.07.92.92,0,0,1,.41.09.73.73,0,0,1,.3.27.9.9,0,0,1,.33-.26,1,1,0,0,1,.44-.09A.86.86,0,0,1,30.45,28.12Z"/><path class="signup-1" d="M33.36,29.19H31.74a.51.51,0,0,0,.21.32.68.68,0,0,0,.41.12.82.82,0,0,0,.3-.05.72.72,0,0,0,.24-.16l.33.37a1.11,1.11,0,0,1-.89.35,1.39,1.39,0,0,1-.64-.14,1,1,0,0,1-.43-.4,1.19,1.19,0,0,1,0-1.16,1.05,1.05,0,0,1,.41-.4,1.25,1.25,0,0,1,1.16,0,1,1,0,0,1,.4.4,1.19,1.19,0,0,1,.15.6Zm-1.46-.7a.52.52,0,0,0-.18.33h1.06a.51.51,0,0,0-.53-.45A.53.53,0,0,0,31.9,28.48Z"/><path class="signup-1" d="M54,27h.62v3H54Z"/><path class="signup-1" d="M56.89,28a.93.93,0,0,1,.27.73V30h-.58v-.27a.69.69,0,0,1-.66.31,1,1,0,0,1-.43-.09.64.64,0,0,1-.28-.24.62.62,0,0,1-.1-.34.57.57,0,0,1,.23-.48,1.14,1.14,0,0,1,.7-.18h.5a.41.41,0,0,0-.12-.32.54.54,0,0,0-.37-.11,1.07,1.07,0,0,0-.34.06.88.88,0,0,0-.28.15L55.19,28a1.33,1.33,0,0,1,.42-.2,1.88,1.88,0,0,1,.51-.07A1.11,1.11,0,0,1,56.89,28Zm-.53,1.51a.41.41,0,0,0,.18-.22v-.22H56.1q-.38,0-.38.26a.23.23,0,0,0,.09.19.42.42,0,0,0,.26.07A.54.54,0,0,0,56.36,29.53Z"/><path class="signup-1" d="M57.92,30a1.35,1.35,0,0,1-.41-.17l.21-.45a1.28,1.28,0,0,0,.35.15,1.44,1.44,0,0,0,.4.06q.4,0,.4-.2a.14.14,0,0,0-.11-.13,1.6,1.6,0,0,0-.33-.07,3.16,3.16,0,0,1-.44-.09.67.67,0,0,1-.3-.19.54.54,0,0,1-.13-.38.61.61,0,0,1,.12-.37.77.77,0,0,1,.34-.25,1.45,1.45,0,0,1,.53-.09,2,2,0,0,1,.45.05,1.26,1.26,0,0,1,.37.14l-.21.45a1.22,1.22,0,0,0-.62-.16.62.62,0,0,0-.3.06.17.17,0,0,0-.1.15.14.14,0,0,0,.11.14,1.86,1.86,0,0,0,.34.08l.43.1a.65.65,0,0,1,.29.19.53.53,0,0,1,.12.37.59.59,0,0,1-.12.36.76.76,0,0,1-.35.25,1.53,1.53,0,0,1-.55.09A2.07,2.07,0,0,1,57.92,30Z"/><path class="signup-1" d="M61.23,29.89A.63.63,0,0,1,61,30a1.14,1.14,0,0,1-.28,0,.83.83,0,0,1-.59-.2.77.77,0,0,1-.21-.59v-.9h-.33v-.49h.33v-.53h.62v.53h.54v.49h-.54v.89a.3.3,0,0,0,.07.21.26.26,0,0,0,.2.08.4.4,0,0,0,.25-.08Z"/><path class="signup-1" d="M64.67,28a1,1,0,0,1,.25.72V30h-.62V28.84a.58.58,0,0,0-.11-.39.41.41,0,0,0-.32-.13.49.49,0,0,0-.38.15.62.62,0,0,0-.14.44V30h-.62V27.81h.6v.26a.83.83,0,0,1,.31-.21,1.06,1.06,0,0,1,.4-.08A.88.88,0,0,1,64.67,28Z"/><path class="signup-1" d="M67.12,28a.93.93,0,0,1,.27.73V30H66.8v-.27a.69.69,0,0,1-.66.31,1,1,0,0,1-.43-.09.64.64,0,0,1-.28-.24.62.62,0,0,1-.1-.34.57.57,0,0,1,.23-.48,1.14,1.14,0,0,1,.7-.18h.5a.41.41,0,0,0-.12-.32.54.54,0,0,0-.37-.11,1.07,1.07,0,0,0-.34.06.88.88,0,0,0-.28.15L65.42,28a1.33,1.33,0,0,1,.42-.2,1.88,1.88,0,0,1,.51-.07A1.11,1.11,0,0,1,67.12,28Zm-.53,1.51a.41.41,0,0,0,.18-.22v-.22h-.43q-.38,0-.38.26a.23.23,0,0,0,.09.19.42.42,0,0,0,.26.07A.54.54,0,0,0,66.58,29.53Z"/><path class="signup-1" d="M71.35,28a1,1,0,0,1,.24.73V30H71V28.84a.6.6,0,0,0-.11-.39.37.37,0,0,0-.3-.13.44.44,0,0,0-.35.14.64.64,0,0,0-.13.43V30h-.62V28.84c0-.34-.13-.52-.41-.52a.44.44,0,0,0-.34.14.63.63,0,0,0-.13.43V30h-.62V27.81h.6v.25a.78.78,0,0,1,.29-.21,1,1,0,0,1,.38-.07.91.91,0,0,1,.41.09.73.73,0,0,1,.3.27.88.88,0,0,1,.33-.26,1,1,0,0,1,.44-.09A.86.86,0,0,1,71.35,28Z"/><path class="signup-1" d="M74.26,29.08H72.64a.51.51,0,0,0,.21.32.68.68,0,0,0,.41.12.82.82,0,0,0,.3-.05.72.72,0,0,0,.24-.16l.33.37a1.11,1.11,0,0,1-.89.35,1.39,1.39,0,0,1-.64-.14,1,1,0,0,1-.43-.4,1.19,1.19,0,0,1,0-1.16,1.05,1.05,0,0,1,.41-.4,1.25,1.25,0,0,1,1.16,0,1,1,0,0,1,.4.4,1.19,1.19,0,0,1,.15.6Zm-1.46-.7a.52.52,0,0,0-.18.33h1.06a.51.51,0,0,0-.53-.45A.53.53,0,0,0,72.8,28.38Z"/><path class="signup-4" d="M25.86,62.31a.25.25,0,0,1-.19-.07.29.29,0,0,1-.07-.2v-.85h.51v-.47h-.51v-.51H25v.51h-.32v.47H25V62a.73.73,0,0,0,.2.56.79.79,0,0,0,.57.19,1.09,1.09,0,0,0,.27,0,.61.61,0,0,0,.22-.1l-.16-.43A.38.38,0,0,1,25.86,62.31Z"/><path class="signup-4" d="M20.64,60.94a.81.81,0,0,0-.68-.3,1.08,1.08,0,0,0-.52.13,1,1,0,0,0-.37.36,1.08,1.08,0,0,0,0,1.06,1,1,0,0,0,.37.36,1.08,1.08,0,0,0,.52.13.83.83,0,0,0,.65-.26v.09a.57.57,0,0,1-.15.43.64.64,0,0,1-.46.14,1.29,1.29,0,0,1-.4-.06,1,1,0,0,1-.33-.17l-.24.44a1.23,1.23,0,0,0,.44.21,2.11,2.11,0,0,0,.57.07,1.21,1.21,0,0,0,.86-.28,1.13,1.13,0,0,0,.29-.85V60.68h-.57ZM20.46,62a.54.54,0,0,1-.39.14.55.55,0,0,1-.39-.14.53.53,0,0,1,0-.74.55.55,0,0,1,.39-.14.54.54,0,0,1,.39.14.53.53,0,0,1,0,.74Z"/><path class="signup-4" d="M22.05,59.71a.37.37,0,0,0-.27.1.33.33,0,0,0,0,.48.37.37,0,0,0,.27.1.37.37,0,0,0,.27-.1.33.33,0,0,0,.1-.25.3.3,0,0,0-.1-.23A.38.38,0,0,0,22.05,59.71Z"/><path class="signup-4" d="M24.17,61.6l-.41-.09a1.78,1.78,0,0,1-.33-.07.14.14,0,0,1-.1-.14.16.16,0,0,1,.1-.14.59.59,0,0,1,.29-.05,1.17,1.17,0,0,1,.59.16l.2-.43a1.2,1.2,0,0,0-.36-.13,2,2,0,0,0-.43,0,1.39,1.39,0,0,0-.51.09.73.73,0,0,0-.33.24.58.58,0,0,0-.11.35.51.51,0,0,0,.12.36.64.64,0,0,0,.28.18,3.07,3.07,0,0,0,.42.09,1.53,1.53,0,0,1,.32.07.13.13,0,0,1,.1.13q0,.19-.38.19a1.38,1.38,0,0,1-.38-.06,1.23,1.23,0,0,1-.33-.15l-.2.43a1.29,1.29,0,0,0,.39.16,2,2,0,0,0,.5.06,1.46,1.46,0,0,0,.52-.08.73.73,0,0,0,.34-.23.56.56,0,0,0,.11-.35.51.51,0,0,0-.12-.36A.63.63,0,0,0,24.17,61.6Z"/><path class="signup-4" d="M28,60.78a1.2,1.2,0,0,0-1.11,0,1,1,0,0,0-.39.38,1.13,1.13,0,0,0,0,1.11,1,1,0,0,0,.41.38,1.32,1.32,0,0,0,.62.14,1.06,1.06,0,0,0,.85-.34l-.32-.35a.69.69,0,0,1-.23.15.78.78,0,0,1-.28,0,.65.65,0,0,1-.39-.11.49.49,0,0,1-.2-.31h1.56v-.16a1.14,1.14,0,0,0-.14-.57A1,1,0,0,0,28,60.78ZM27,61.54a.5.5,0,0,1,.17-.32.51.51,0,0,1,.34-.12.49.49,0,0,1,.5.43Z"/><path class="signup-4" d="M29.52,61v-.28h-.57v2.09h.6v-1a.59.59,0,0,1,.15-.44.54.54,0,0,1,.4-.15h.13v-.56a1.06,1.06,0,0,0-.42.08A.67.67,0,0,0,29.52,61Z"/><path class="signup-4" d="M18.16,60.78a1.2,1.2,0,0,0-1.11,0,1,1,0,0,0-.39.38,1.08,1.08,0,0,0-.14.55,1.06,1.06,0,0,0,.15.56,1,1,0,0,0,.41.38,1.32,1.32,0,0,0,.62.14,1.06,1.06,0,0,0,.85-.34l-.32-.35a.69.69,0,0,1-.23.15.78.78,0,0,1-.28,0,.65.65,0,0,1-.39-.11.49.49,0,0,1-.2-.31h1.56v-.16a1.14,1.14,0,0,0-.14-.57A1,1,0,0,0,18.16,60.78Zm-1.05.76a.5.5,0,0,1,.17-.32.51.51,0,0,1,.34-.12.49.49,0,0,1,.5.43Z"/><rect class="signup-4" x="21.76" y="60.68" width="0.6" height="2.09"/><path class="signup-4" d="M15.63,61v-.28h-.57v2.09h.6v-1a.59.59,0,0,1,.15-.44.54.54,0,0,1,.4-.15h.13v-.56a1.06,1.06,0,0,0-.42.08A.67.67,0,0,0,15.63,61Z"/><path class="signup-1" d="M27.48,61.1a.51.51,0,0,0-.34.12.5.5,0,0,0-.17.32h1a.49.49,0,0,0-.5-.43Z"/><path class="signup-1" d="M20.07,61.14a.55.55,0,0,0-.39.14.53.53,0,0,0,0,.74.55.55,0,0,0,.39.14.54.54,0,0,0,.39-.14.53.53,0,0,0,0-.74A.54.54,0,0,0,20.07,61.14Z"/><path class="signup-1" d="M17.62,61.1a.51.51,0,0,0-.34.12.5.5,0,0,0-.17.32h1a.49.49,0,0,0-.5-.43Z"/><path class="signup-1" d="M31.85,60.5l1.93.64V58.63a.37.37,0,0,0-.37-.37H12.14a.37.37,0,0,0-.37.37v6a.37.37,0,0,0,.37.37H31.65l-1.12-3.1A1,1,0,0,1,31.85,60.5Zm-15.52.7H16.2a.54.54,0,0,0-.4.15.59.59,0,0,0-.15.44v1h-.6V60.68h.57V61a.67.67,0,0,1,.29-.23,1.06,1.06,0,0,1,.42-.08Zm2.34.69H17.12a.49.49,0,0,0,.2.31.65.65,0,0,0,.39.11.78.78,0,0,0,.28,0,.69.69,0,0,0,.23-.15l.32.35a1.06,1.06,0,0,1-.85.34,1.32,1.32,0,0,1-.62-.14,1,1,0,0,1-.41-.38,1.06,1.06,0,0,1-.15-.56,1.08,1.08,0,0,1,.14-.55,1,1,0,0,1,.39-.38,1.2,1.2,0,0,1,1.11,0,1,1,0,0,1,.38.38,1.14,1.14,0,0,1,.14.57Zm2.53.52a1.13,1.13,0,0,1-.29.85,1.21,1.21,0,0,1-.86.28,2.11,2.11,0,0,1-.57-.07,1.23,1.23,0,0,1-.44-.21l.24-.44a1,1,0,0,0,.33.17,1.29,1.29,0,0,0,.4.06.64.64,0,0,0,.46-.14.57.57,0,0,0,.15-.43V62.4a.83.83,0,0,1-.65.26,1.08,1.08,0,0,1-.52-.13,1,1,0,0,1-.37-.36,1.08,1.08,0,0,1,0-1.06,1,1,0,0,1,.37-.36,1.08,1.08,0,0,1,.52-.13.81.81,0,0,1,.68.3v-.27h.57Zm1.15.35h-.6V60.68h.6Zm0-2.48a.37.37,0,0,1-.27.1.37.37,0,0,1-.27-.1.33.33,0,0,1,0-.48.37.37,0,0,1,.27-.1.38.38,0,0,1,.27.09.3.3,0,0,1,.1.23A.33.33,0,0,1,22.32,60.29Zm2.13,2.19a.73.73,0,0,1-.34.23,1.46,1.46,0,0,1-.52.08,2,2,0,0,1-.5-.06,1.29,1.29,0,0,1-.39-.16l.2-.43a1.23,1.23,0,0,0,.33.15,1.38,1.38,0,0,0,.38.06q.38,0,.38-.19a.13.13,0,0,0-.1-.13,1.53,1.53,0,0,0-.32-.07,3.07,3.07,0,0,1-.42-.09.64.64,0,0,1-.28-.18.51.51,0,0,1-.12-.36.58.58,0,0,1,.11-.35.73.73,0,0,1,.33-.24,1.39,1.39,0,0,1,.51-.09,2,2,0,0,1,.43,0,1.2,1.2,0,0,1,.36.13l-.2.43a1.17,1.17,0,0,0-.59-.16.59.59,0,0,0-.29.05.16.16,0,0,0-.1.14.14.14,0,0,0,.1.14,1.78,1.78,0,0,0,.33.07l.41.09a.63.63,0,0,1,.28.18.51.51,0,0,1,.12.36A.56.56,0,0,1,24.45,62.48Zm1.59.29a1.09,1.09,0,0,1-.27,0,.79.79,0,0,1-.57-.19A.73.73,0,0,1,25,62v-.86h-.32v-.47H25v-.51h.6v.51h.51v.47h-.51V62a.29.29,0,0,0,.07.2.25.25,0,0,0,.19.07.38.38,0,0,0,.24-.08l.16.43A.61.61,0,0,1,26,62.76Zm2.49-.87H27a.49.49,0,0,0,.2.31.65.65,0,0,0,.39.11.78.78,0,0,0,.28,0,.69.69,0,0,0,.23-.15l.32.35a1.06,1.06,0,0,1-.85.34,1.32,1.32,0,0,1-.62-.14,1,1,0,0,1-.41-.38,1.13,1.13,0,0,1,0-1.11,1,1,0,0,1,.39-.38,1.2,1.2,0,0,1,1.11,0,1,1,0,0,1,.38.38,1.14,1.14,0,0,1,.14.57Zm1.69-.69h-.13a.54.54,0,0,0-.4.15.59.59,0,0,0-.15.44v1h-.6V60.68h.57V61a.67.67,0,0,1,.29-.23,1.06,1.06,0,0,1,.42-.08Z"/><path class="signup-1" d="M45,65.51l-3.58-1.18-8-2.65-1.67-.55a.51.51,0,0,0-.63.66l1,2.68.34.94,3.43,9.49a.5.5,0,0,0,.95,0l1.67-5.22L41.76,73a1.78,1.78,0,0,0-.33-2.48l-3.06-3.1a.5.5,0,0,0-.83.2l-.83,2.61a.5.5,0,0,1-.95,0L34,65.4l-.44-1.21a.51.51,0,0,1,.63-.66l5.65,1.87,1,.33a.51.51,0,0,1,.19.85,1.71,1.71,0,0,0-.67,1.69L45,66.48A.51.51,0,0,0,45,65.51Z"/></g></g></svg>