<svg class="svg linkedin" id="Layer_1" data-name="Layer 1" xmlns="http://www.w3.org/2000/svg" viewBox="0 0 459.49 450.69"><title>site</title><path d="M229.74,12.32c-117.47,0-213,95.55-213,213s95.55,213,213,213,213-95.55,213-213S347.22,12.32,229.74,12.32Zm-14.86,32.2v66.73H163.33C175.4,77.23,193,52.31,214.88,44.52Zm29.73,0c21.87,7.79,39.48,32.71,51.55,66.73H244.61ZM161.16,55.36c-10.89,15.4-20.2,34.29-27.56,55.89H86.23A183,183,0,0,1,161.16,55.36Zm137.17,0a183,183,0,0,1,74.93,55.89H325.89C318.53,89.65,309.22,70.76,298.33,55.36ZM67,141h58.06a370.71,370.71,0,0,0-9,69.36h-69A182.66,182.66,0,0,1,67,141Zm87.63,0h60.22v69.36h-69A372.72,372.72,0,0,1,154.66,141Zm90,0h60.22a372.72,372.72,0,0,1,8.83,69.36H244.61Zm89.79,0h58.06a182.66,182.66,0,0,1,20,69.36H343.38A370.71,370.71,0,0,0,334.4,141ZM47.06,240.05h69.05a369.77,369.77,0,0,0,9,69.36H66.88A182.6,182.6,0,0,1,47.06,240.05Zm98.77,0h69v69.36H154.66A372.83,372.83,0,0,1,145.83,240.05Zm98.78,0h69.05a372.83,372.83,0,0,1-8.83,69.36H244.61Zm98.77,0h69.05a182.6,182.6,0,0,1-19.82,69.36H334.4A369.77,369.77,0,0,0,343.38,240.05ZM86.08,339.13h47.37c7.37,21.71,16.77,40.75,27.71,56.2a183.16,183.16,0,0,1-75.08-56.2Zm77.09,0h51.71V406C193,398.21,175.25,373.25,163.17,339.13Zm81.44,0h51.71c-12.08,34.12-29.8,59.08-51.71,66.88Zm81.43,0h47.37a183.16,183.16,0,0,1-75.08,56.2C309.27,379.88,318.67,360.84,326,339.13Z"/></svg>