<svg xmlns="http://www.w3.org/2000/svg" viewBox="0 0 199.95 429.87"><defs><style>.cls-1{fill:#6d358b;}.cls-2{fill:#482667;}.cls-3{fill:#a54994;}.cls-4{fill:#e11482;}.cls-5{fill:#e95153;}.cls-6{fill:#bd1622;}.cls-7{fill:#0085bc;}.cls-8{fill:#e73178;}.cls-9{fill:#364b99;}.cls-10{fill:#334394;}</style></defs><title>slim-line-graphic-flipped</title><g id="Layer_2" data-name="Layer 2"><g id="Layer_1-2" data-name="Layer 1"><g id="Layer_2-2" data-name="Layer 2"><g id="Layer_1-2-2" data-name="Layer 1-2"><polygon class="cls-1" points="199.95 394.12 199.95 359.71 66.89 244.62 27.24 244.72 199.95 394.12"/><polygon class="cls-2" points="199.95 394.42 106.66 313.7 106.77 349.15 199.95 429.87 199.95 394.42"/><polygon class="cls-3" points="28.88 213.38 199.95 360.76 199.95 278.57 82.65 177.24 28.75 177.61 28.88 213.38"/><polygon class="cls-4" points="199.95 326.95 28.75 177.61 28.88 213.38 199.95 360.76 199.95 326.95"/><polygon class="cls-5" points="199.95 39.14 199.95 4.27 195.02 0 155.63 0.81 199.95 39.14"/><polygon class="cls-6" points="199.95 102.24 199.95 39.08 155.63 0.81 155.58 63.91 199.95 102.24"/><polygon class="cls-7" points="199.95 243.2 38.49 103.89 38.6 139.35 199.95 278.55 199.95 243.2"/><polygon class="cls-7" points="199.95 243.4 132.97 185.62 133.08 221.08 199.95 278.77 199.95 243.4"/><polygon class="cls-8" points="199.95 138.84 199.95 102.05 120.34 33.17 78.64 33.25 199.95 138.84"/><polygon class="cls-9" points="199.95 138.77 115.45 65.19 115.67 135.05 199.95 208.23 199.95 138.77"/><polygon class="cls-9" points="199.95 208.2 199.95 138.51 78.89 33.42 78.87 103.86 199.95 208.2"/><polygon class="cls-10" points="199.95 243.46 199.95 208.21 78.99 103.77 38.49 103.91 199.95 243.46"/><polygon class="cls-6" points="82.36 177.34 82.39 224.28 28.77 177.59 82.36 177.34"/><polygon class="cls-7" points="38.91 104.12 0 104.39 0.01 68.23 38.92 68.27 38.91 104.12"/><polygon class="cls-6" points="79 368.02 79 323.82 106.84 347.43 106.84 391.77 79 368.02"/></g></g></g></g></svg>