<svg xmlns="http://www.w3.org/2000/svg" viewBox="0 0 65.72 97.31"><defs><style>.cls-1{fill:#75caf3;}.cls-2{fill:#1c9bd8;}.cls-3{fill:#0768b1;}.cls-4{fill:#423d91;}.cls-5{fill:#931f7f;}</style></defs><title>start-up</title><g id="Layer_2" data-name="Layer 2"><g id="cut_off" data-name="cut off"><path class="cls-1" d="M41.4,25a5.9,5.9,0,0,0-5.53,5.38l0,1.78h-6V30.56l-.12-.87a5.93,5.93,0,0,0-11.7,2,6.07,6.07,0,0,0,6.08,5.16h1L25.12,76h0a4.69,4.69,0,0,0,4.69-4.68l.06-34.48h5.94l-.18,42.59,4.7-4.14.17-38.43h1.25a5.94,5.94,0,0,0,5.94-6.1A6,6,0,0,0,41.4,25ZM24,32.12a1.25,1.25,0,1,1,1.22-1.55l0,1.55Zm17.81,0H40.53V30.72a1.25,1.25,0,1,1,1.23,1.44Z"/><path class="cls-2" d="M36.2,80a.56.56,0,0,1-.56-.56l4.7-4.14h3.26V73c-.11-5.66,3.05-12,8.68-17.37C57.42,50.73,61,41.39,61,32.92a28,28,0,0,0-.54-5.5c3.34,5.91,4.64,15.87-.52,25.93A27.42,27.42,0,0,1,55.53,59c-4.61,4.4-7.32,9.61-7.23,13.94v6.41a.56.56,0,0,1-.55.56L36.2,80"/><path class="cls-3" d="M60.5,27.41A28.29,28.29,0,0,0,52.12,12.3,27.91,27.91,0,0,0,32.86,4.69a118.35,118.35,0,0,0-20,2.17A32.23,32.23,0,0,1,30.6.08a32.59,32.59,0,0,1,24.73,8.8,33,33,0,0,1,10.4,24A41.29,41.29,0,0,1,60,53.34C64.87,42.22,64.18,34,60.5,27.41Z"/><path class="cls-4" d="M32.86,4.69q-1,0-2,.07A28.38,28.38,0,0,0,4.7,31.93c-.29,8.87,3.37,18.67,8.88,23.85a28.54,28.54,0,0,1,6,7.94L6.43,54.46A40.47,40.47,0,0,1,0,31.78,33,33,0,0,1,13.35,6.51S27.93,4.43,32.86,4.69Z"/><path class="cls-5" d="M51.49,81.4l-34.12-.06V79.46h4.75L22,72.92a21,21,0,0,0-2.33-9.2L6.43,54.46a26.84,26.84,0,0,0,3.95,4.74c4.39,4.12,6.84,9,6.9,13.81l0,1.77H13.25a.56.56,0,0,0-.56.55l0,10.13a.56.56,0,0,0,.55.56l34.12.06V87H46L24.85,87h-4.5a.18.18,0,0,0-.18.18h0v0s0,.06,0,.08v9.46a.56.56,0,0,0,.55.56l21.47,0a4.69,4.69,0,0,0-4.68-4.69l-12.65,0V91.7H51.47a.56.56,0,0,0,.56-.55L52,82A.56.56,0,0,0,51.49,81.4Z"/></g></g></svg>