<?xml version="1.0" encoding="utf-8"?>
<!-- Generator: Adobe Illustrator 21.1.0, SVG Export Plug-In . SVG Version: 6.00 Build 0)  -->
<svg version="1.1" id="Layer_1" xmlns="http://www.w3.org/2000/svg" xmlns:xlink="http://www.w3.org/1999/xlink" x="0px" y="0px"
	 viewBox="0 0 350.9 344" style="enable-background:new 0 0 350.9 344;" xml:space="preserve">
<style type="text/css">
	.start-up-0{fill:#084473;}
	.start-up-1{fill:#1C9BD8;}
	.start-up-2{fill:#75CAF3;}
	.start-up-3{fill:#984DA7;}
	.start-up-4{fill:#0768B1;}
	.start-up-5{fill:#931F7F;}
</style>
<title>stats</title>
<circle class="start-up-0" cx="174.1" cy="171.8" r="164.9"/>
<path class="start-up-1" d="M164.8,157.5l-5.2-2.5c-17.1-8.2-34.9,9.7-44.7,22.4c-0.4,0.6-0.3,1.4,0.3,1.9c0.2,0.1,0.4,0.2,0.7,0.3l-20.9,2
	c5.6-9.3,12.3-17.9,20.1-25.5c18.5-17.8,34.1-19.1,45.3-15.9l6.1-8c7.6-9.1,15.8-17.6,24.6-25.5
	C178.1,125.5,168.1,143.1,164.8,157.5z"/>
<path class="start-up-2" d="M115.8,179.5l25.2,2.8c0.2,0,0.3,0.1,0.5,0.1l61,32.6c0.7,0.3,0.9,1.2,0.6,1.8l0,0c-3.3,6.2-11.1,8.6-17.3,5.3
	l-48.6-25.9c-0.1-0.1-0.3-0.1-0.5-0.1l-45.1-5c-0.7-0.1-1.3-0.8-1.2-1.5c0-0.2,0.1-0.4,0.2-0.5l4.3-7.6L115.8,179.5z"/>
<path class="start-up-3" d="M216.1,244.5c-0.5-0.5-1.4-0.6-1.9-0.1c-0.1,0.1-0.2,0.3-0.3,0.4l-16.4,34.9c-0.3,0.7-1.1,1-1.8,0.6
	c-0.2-0.1-0.4-0.3-0.6-0.5l-19.9-31.6c-0.3-0.5-0.8-0.7-1.4-0.6l-24.9,4.7c-0.7,0.1-1.3-0.3-1.5-0.9l-6.7-21.9
	c-0.2-0.7-0.9-1.1-1.6-0.9l-15.7,5.3c-6.9,1.7-13.5-1.7-15.2-8.5l0,0c-0.2-0.7,0.3-1.5,1-1.6c0,0,0,0,0,0l39.6-12.1
	c0.7-0.2,1.4,0.2,1.6,0.9l6.9,22.6c0.2,0.7,0.9,1.1,1.5,0.9l21.9-4.1c0.5-0.1,1.1,0.1,1.4,0.6l11.3,17.9c0.4,0.6,1.2,0.8,1.8,0.4
	c0.2-0.1,0.4-0.3,0.5-0.6l14.3-30.3c0.3-0.7,1.1-1,1.8-0.6c0.1,0.1,0.3,0.2,0.4,0.3l23.2,24.4L216.1,244.5z"/>
<path class="start-up-4" d="M226.8,189.2l4.7-14c8.6-27.1,12.3-54.5,12.1-89.8c-27.1,16.3-48.9,34.6-66.3,55.5l-6.2,8.2l-6.2,8.2
	c3.7-14.3,12.5-31.4,26.1-50.8c16-14.4,34.6-27.4,56-39.4l7.1-4c1-0.6,2.3-0.2,2.9,0.8c0.2,0.3,0.3,0.6,0.3,1l0.2,8.1
	c0.7,23.7-0.1,44-2.7,62.8C246.4,158.5,236.9,175.5,226.8,189.2z"/>
<path class="start-up-5" d="M226.8,189.2c-0.2,0.6,0,1.3,0.6,1.6l4,2.4c16.9,10,11.4,35.4,6.2,50.5c-0.2,0.7-1,1.1-1.7,0.8
	c-0.2-0.1-0.4-0.2-0.5-0.3l-19.2,0.4l23.6,24.8c0.5,0.5,1.4,0.6,1.9,0c0.1-0.1,0.2-0.2,0.3-0.4l3.6-7.4c4.6-9.8,8-20.2,10-30.8
	c4.4-24.7-2.8-38.3-11.5-45.9c-0.4-0.4-0.6-0.9-0.4-1.4l1.3-3.8c4.5-14.3,7.8-28.9,9.8-43.7C253.8,137,226.8,189.2,226.8,189.2z"/>
<path class="start-up-1" d="M209.5,188.6c-9.3,0-16.8-7.6-16.8-16.9c0-3.1,0.9-6.2,2.6-8.9c4.9-7.9,15.3-10.3,23.2-5.3
	c3.4,2.2,6,5.5,7.2,9.3c1.3,4.3,0.9,8.9-1.2,12.8l0,0c-2.1,3.9-5.7,6.9-9.9,8.2C212.8,188.4,211.2,188.6,209.5,188.6z M209.5,164.4
	c-4.1,0-7.4,3.3-7.4,7.4c0,4.1,3.3,7.4,7.4,7.4c2.7,0,5.3-1.5,6.6-3.9l0,0c1.9-3.6,0.5-8.1-3.1-10
	C211.9,164.7,210.7,164.4,209.5,164.4L209.5,164.4z"/>
</svg>
