<svg xmlns="http://www.w3.org/2000/svg" viewBox="0 0 109.46 99.11"><defs><style>.cls-1{fill:#009ee2;}</style></defs><title>stethoscope</title><g id="Layer_2" data-name="Layer 2"><g id="Layer_1-2" data-name="Layer 1"><path class="cls-1" d="M40.29,54.14l.25-.12c.43-.21.86-.42,1.27-.65l1.73-1,.07,0c10-6.29,13.35-18.93,8.57-29.74L42.17,0,32.76,4.16a4.65,4.65,0,1,0,2.79,6.3l2.8-1.24L45.59,25.6a16.25,16.25,0,0,1-8,21.42c-9,4-17,0-20.94-9L9.56,22l2.54-1.12a4.65,4.65,0,1,0-2.79-6.3L0,18.65,10,41.28c3.28,7.41,8.88,13.14,16.89,14.47l.89.08a14.41,14.41,0,0,0-.08,16c5,7.75,11,5.85,19.88,1.91l5.11-2.26c5.28-2.33,9.51.11,11.21,3.36,1.43,2.74,1.41,7-3.33,9.84l-.87.46a4.79,4.79,0,1,0,2.45,4.95l-.2,0a4.11,4.11,0,0,0-3.2,1,2.21,2.21,0,0,1-1.27.48,2.08,2.08,0,0,1-1.68-.71,2.15,2.15,0,0,1,.95-3.47,2.25,2.25,0,0,1,2.09.46l.59.49L61.84,87l.07,0c5.93-3.6,6.46-9.3,4.34-13.36-2.32-4.45-8.09-7.45-14.63-4.56l-5.11,2.26c-11,4.85-13.86,3.5-16.57-.92-3.49-5.68-2.51-11,.7-13.83a1.88,1.88,0,0,0-1.1-3.28l-2.27-.19c-7.1-1.2-11.93-6.34-14.84-12.92L3.5,20,9,17.55l2.07-.92a2.46,2.46,0,1,1,.64,1.45L9.69,19,6.07,20.6,14.6,39.9a18.36,18.36,0,0,0,24.23,9.49c10.23-4.65,13.63-14.8,9.06-25.13L39.71,5.73,35.82,7.44l-2.07.92a2.46,2.46,0,1,1-.64-1.45L35.18,6,40.82,3.5l8.94,20.21c4.25,9.6,1.34,20.8-7.52,26.4l-1.7.93c-.38.21-.78.4-1.17.6l-.26.13c-3.88,1.92-6.81,4.24-8,7.79-1.07,3.19-1.36,5.53.1,8.65,2.68,5.73,6.66,5.11,15.76,1.09L52.07,67a12.4,12.4,0,0,1,15.65,4.38c2.57,3.78,3.32,9.42-.79,13.49l-2.82,2.51.16.76a6.91,6.91,0,1,1-6.11-5.41,3.18,3.18,0,0,0,3.22-1.87h0A9.56,9.56,0,0,0,49.2,94.32,10,10,0,0,0,61.33,98.4l.06,0a9.55,9.55,0,0,0,5.62-10l1.71-1.52.05,0c5.23-5.15,4.34-12.2,1.14-16.9A15,15,0,0,0,51,64.61l-5.11,2.26c-5.24,2.32-9.64,5.52-12.29.21C31.34,62.56,33.15,57.67,40.29,54.14Z"/><path class="cls-1" d="M103.41,22.33c-4.34-1.8-10.18-.16-14.89,4.17a3,3,0,0,0-1,2.29,3,3,0,0,0,1,2.2l.38.32.32-.38c3.82-4.52,9.17-6.73,12.73-5.25,2.85,1.18,4.17,4.73,3.73,10C105,44.71,94.83,52.11,88.1,57c-2,1.44-3.58,2.61-4.7,3.63-.69-.8-1.59-1.73-2.69-2.87C75.21,52.07,66,42.54,66.88,32.39c.47-5.54,2.61-9,5.86-9.53,4-.64,8.74,3.08,11.19,8.86,0,.07.14.37.56,1.75a3.11,3.11,0,0,0,3.9,2l.48-.15-.15-.48-.29-1c-.51-1.72-.92-3.07-1.15-3.62-3.14-7.41-9.36-11.95-15.1-11-2.38.38-8,2.39-8.91,12.81-1,11.79,8.91,22.07,14.83,28.2,1.27,1.32,2.38,2.46,3,3.25a2.86,2.86,0,0,0,2,1.08h.1a2.85,2.85,0,0,0,2.2-.87,45.69,45.69,0,0,1,4.86-3.82c7.25-5.29,18.22-13.28,19.12-24C110.16,26.58,106,23.4,103.41,22.33Z"/></g></g></svg>