<svg xmlns="http://www.w3.org/2000/svg" viewBox="0 0 93.46 117.39"><defs><style>.tennis-1,.tennis-3{fill:none;}.tennis-2{fill:#009ee2;}.tennis-3{stroke:#009ee2;stroke-miterlimit:10;stroke-width:2px;}</style></defs><title>tennis</title><g id="Layer_2" data-name="Layer 2"><g id="Layer_1-2" data-name="Layer 1"><path class="tennis-1" d="M19.67,59.08l.89-.33a.27.27,0,0,0,.17-.25c-.46.16-.93.29-1.41.41A.28.28,0,0,0,19.67,59.08Z"/><path class="tennis-2" d="M34.73,40.73a50.76,50.76,0,0,0,2.11-7.61h0A4.1,4.1,0,0,1,37,31.53c.24-.59.87-1.13,2.51-1.66l6.44-1.08a.47.47,0,0,0,.39-.47l-.2-8.07a.48.48,0,0,0-.13-.32l-.28-.3A9.86,9.86,0,0,1,43,12.52a9.59,9.59,0,0,1,8.92-9.45A9.11,9.11,0,0,1,58.6,5.53a10,10,0,0,1,.13,14.41,9.16,9.16,0,0,1-6.36,2.58,7.43,7.43,0,0,1-1.58-.17c-1.26-.27-2.37.29-3.4,1.71l-.1.14.16.06.24.14a9.51,9.51,0,0,0,4.59,1.19h.1a12,12,0,0,0,8.37-3.4,13.11,13.11,0,0,0-.23-19A12,12,0,0,0,51.65,0,12.6,12.6,0,0,0,40.07,11.65a13,13,0,0,0,3,9.61l.05.13L43.27,26a.2.2,0,0,1-.17.2l-4.42.76a6.38,6.38,0,0,0-4.58,4.32h0l0,.19a7.12,7.12,0,0,0-.17,1.19c-.75,4.81-3.31,18.22-12.63,22.5l1.09,2.73C29.12,54.63,32.63,47.12,34.73,40.73Z"/><path class="tennis-2" d="M87.52,58.08a7.28,7.28,0,0,0-1.35-.36C75.35,53.54,72.71,37,72.24,33.12v0c0-2.92-2.1-5.12-5.87-6.18l-.14,0-6.37-1.1-.53.85c-.57.92-3.12,2.21-7,2.21a10.42,10.42,0,0,1-4.14-.8L48.1,28l-.05.13a2.69,2.69,0,0,0,.17,2.37A2.53,2.53,0,0,0,50,31.7a14.52,14.52,0,0,0,2.38.19c4,0,7.21-1,8.84-2.79l4.47.78c1.46.42,3.17,1.22,3.52,2.68h0c0,.1,0,.42.09.92a53.63,53.63,0,0,0,2.57,11.13c2.15,6.11,6,12.82,12.72,15.69.23.1.46.21.71.3l.33.08a4.22,4.22,0,0,1,2,.8,2.36,2.36,0,0,1,1.11,1.73c0,.35-.38.64-.95.84a6.12,6.12,0,0,1-1.88.27,17,17,0,0,1-2.19-.38c-3.06-.72-10.41-5.67-14.07-11.25-.83-1.26-1.56-5.22-2.15-7.16a.44.44,0,0,0-.85.09L66,65.3l.74,48.78a21.63,21.63,0,0,1-7.42-.41c-.38-.1-.74-.26-.74-.65,0-6,0-25.4-.15-40.15a2.1,2.1,0,0,0-2.1-2.08H51a2.09,2.09,0,0,0-2,1.58L42.1,113.12c-.08.32-.39.44-.72.49a20.65,20.65,0,0,1-7.25-.11l6-48L39.6,49l-.44-4.42a.56.56,0,0,0-1.07-.17q-.38.88-.81,1.78t-.79,1.6c-4.23,8.22-10.45,13.81-17,14.31-1.77.19-2.58-.17-3.08-1A3.72,3.72,0,0,1,16,59.51s.07-.15.35-.13h.21c.36,0,.7-.09,1-.14l-.87-2.9-.33,0a3.33,3.33,0,0,0-3,1.62c-.7,1.19-.36,3.57.45,4.81.49.76,1.36,2.37,4.66,2.37a11.33,11.33,0,0,0,1.21-.07c7.37-.55,13.63-6.22,17.31-12l0,12-6.22,50.35a1,1,0,0,0,.77,1l.4.09c2.73.63,10.85.16,11.67.24a.66.66,0,0,0,.7-.49L45,114l6.77-40.21h3.68c.09,11,.14,32.53.14,40.25,0,.89,0,1.73,0,2.51a.65.65,0,0,0,.69.65c.8,0,9.86.45,12.59,0l.4-.09a1,1,0,0,0,.78-1L69,66.13l-.38-9.26c7.93,9.41,16.9,10.43,17,10.44h.11a10.1,10.1,0,0,0,2-.19c2.4-.5,3.52-1.87,3.78-3.27a3.64,3.64,0,0,0,.06-.44,4.63,4.63,0,0,0-1.08-3.15A7,7,0,0,0,87.52,58.08Z"/><circle class="tennis-3" cx="87.96" cy="46.54" r="4.5"/><path class="tennis-2" d="M16.16,48.45a2.26,2.26,0,0,0-.53-.91L13.9,45.73a1.69,1.69,0,0,0-2.4-.06l2.62,2.75a2.26,2.26,0,0,1,.53.91l2.11,7a15.18,15.18,0,0,0,1.68-.28Z"/><path class="tennis-2" d="M20.56,58.75l-.89.33a.28.28,0,0,1-.36-.16,17,17,0,0,1-1.68.33l.56,1.86a.29.29,0,0,0,.38.19l4.21-1.56a.29.29,0,0,0,.17-.38l-.6-1.51a16,16,0,0,1-1.62.66A.27.27,0,0,1,20.56,58.75Z"/><path class="tennis-2" d="M18.34,47.78a2.26,2.26,0,0,1-.16-.83V41.1l.33-.39A11.79,11.79,0,0,0,20,29.43a12.18,12.18,0,0,0-5.58-6.56,9.62,9.62,0,0,0-8-.67A9.62,9.62,0,0,0,.77,27.92a12.19,12.19,0,0,0,0,8.61c2.2,5.94,8.28,9.18,13.57,7.23a9.18,9.18,0,0,0,1.28-.59,2.13,2.13,0,0,0-.74-.92,1.24,1.24,0,0,0-1.12-.08C9.39,43.81,4.27,41,2.39,35.94a10.5,10.5,0,0,1,0-7.41A8,8,0,0,1,7,23.79a8,8,0,0,1,6.6.58A10.49,10.49,0,0,1,18.38,30a10.08,10.08,0,0,1-1.19,9.62l-.43.51a1.19,1.19,0,0,0-.28.77v6.35a2.26,2.26,0,0,0,.16.83l3,7.63a14.14,14.14,0,0,0,1.58-.61Z"/><path class="tennis-2" d="M20.73,58.5a16,16,0,0,0,1.62-.66l-1.09-2.73a14.14,14.14,0,0,1-1.58.61l1.05,2.64A.27.27,0,0,1,20.73,58.5Z"/><path class="tennis-2" d="M19.31,58.91l0,0-.85-2.83a15.18,15.18,0,0,1-1.68.28l.87,2.9A17,17,0,0,0,19.31,58.91Z"/></g></g></svg>