<svg id="Layer_1" data-name="Layer 1" xmlns="http://www.w3.org/2000/svg" viewBox="0 0 340.89 344"><defs><style>.icon-three-1{fill:#1c9ad7;}</style></defs><title>three</title><path class="icon-three-1" d="M169.74,332.76q-7.16,0-14.36-.64c-78.46-7-140.92-71.63-145.28-150.4A159,159,0,0,1,67.78,49.31l9.39-7.79,7.61,9.54c.24.3,20.15,25.2,35.62,42.24,11.68-10.87,27.85-20.07,45.75-20.17,3.75-.15,30.86-.54,48.79,16.78,10.62,10.26,15.82,24.21,15.44,41.45a40.56,40.56,0,0,1-13.15,29.58,50.75,50.75,0,0,1-9.7,7c13.7,9.21,21.65,22.8,22.83,39.54,1.07,15.26-3,28.14-12.21,38.29-17.45,19.32-47.09,20.48-48.35,20.52h-.38c-26.5,0-50.15-17-63.27-45.41h0A28.36,28.36,0,0,1,139.06,228c6.89,7.59,16.75,14.3,30.12,14.38,1.78-.1,21.18-1.44,31.26-12.69,4.66-5.19,6.63-11.9,6-20.49C204.63,182.94,173.33,179,160,178.51h-5.54A12,12,0,0,1,142,167.23h0a12,12,0,0,1,11.06-12.67l1.81-.13h1.46c1.07,0,2.27,0,3.64.06,10.92-.08,31.21-2.11,41-11.21a16.56,16.56,0,0,0,5.45-12.51c.22-10.39-2.41-18.12-8.06-23.63C187.1,96.14,167.23,97,167,97h-.63c-13.88,0-28.31,10.59-36.44,21.08l-2.45,3.16a8.44,8.44,0,0,1-12.6.83l-2.84-2.82c-11.16-11-28.09-31.31-38-43.44A135.17,135.17,0,0,0,34,180.39c3.71,67,56.8,122,123.5,127.88A136.22,136.22,0,1,0,122.14,45.08,26,26,0,0,1,90.53,33.53h0A160.23,160.23,0,0,1,170,12.46h.68c85,.35,155,67.05,159.26,151.83A160.15,160.15,0,0,1,178.33,332.54Q174,332.77,169.74,332.76Z"/></svg>