<svg xmlns="http://www.w3.org/2000/svg" viewBox="0 0 92.77 92.77"><defs><style>.cls-1{fill:#75caf3;}.cls-2{fill:#1c9bd8;}.cls-3{fill:#423d91;}.cls-4{fill:#931f7f;}</style></defs><title>time</title><g id="Layer_2" data-name="Layer 2"><g id="Layer_5" data-name="Layer 5"><path class="cls-1" d="M50.88,45.75a3.92,3.92,0,0,1-1.39-3V7.53a1.1,1.1,0,0,1,.27-.72L56.4,1.09A46.38,46.38,0,0,0,46.39,0h-2a1.09,1.09,0,0,0-1.09,1.09V45.63a3.92,3.92,0,0,0,1.39,3L64.42,64.46a6.21,6.21,0,0,0,8.75-.72Z"/><path class="cls-2" d="M56.4,1.09A46.46,46.46,0,0,1,92.72,48.6c-3.32-9-10.49-21-13.22-24.94A40.21,40.21,0,0,0,50.69,6.44a1.07,1.07,0,0,0-.93.37"/><path class="cls-3" d="M92.7,48.52c-2.13-6.92-10.19-20.19-11.35-22l-.7-1.1-.07-.11.68,1.17a40,40,0,0,1,5.23,22.42A68.19,68.19,0,0,1,85.41,57c.3-1.6.54-3.14.71-4.63-.22,1.34-.45,2.57-.7,3.55A40.33,40.33,0,0,1,48,86.53c-9.66.34-22.19-2.29-33.38-6.35A46.41,46.41,0,0,0,92.72,48.6ZM84.83,59.73c0,.19-.09.39-.14.59Zm.54-2.53c-.09.45-.18.9-.28,1.35C85.2,58.1,85.29,57.65,85.38,57.21Z"/><path class="cls-4" d="M47.11,86.54c-.79,0-2.08,0-3.72-.1C44.62,86.54,45.86,86.57,47.11,86.54Z"/><path class="cls-4" d="M6.21,46.39A39.69,39.69,0,0,1,7.65,35.81l0-.09h0A40.21,40.21,0,0,1,9.3,31l.28-.65a41,41,0,0,1,8.23-12.18l.37-.37A40.07,40.07,0,0,1,29.89,9.75a6.23,6.23,0,0,0,3.44-7.43l-.12-.41A46,46,0,0,0,14.2,13l-.46.46-.41.44c-.38.39-.76.79-1.13,1.2l-.63.71q-.54.61-1.05,1.25l-.38.45h0A47,47,0,0,0,3.92,27.83L3.41,29c-.06.14-.11.29-.16.43-.19.47-.36,1-.54,1.43-.11.32-.23.63-.34,1-.17.52-.33,1-.48,1.56-.07.23-.15.45-.21.68h0A45.8,45.8,0,0,0,0,46.39a46.27,46.27,0,0,0,14.65,33.8,159.56,159.56,0,0,0,16,4.57,78.34,78.34,0,0,0,12.72,1.69A40.23,40.23,0,0,1,6.21,46.39Z"/><path class="cls-4" d="M48,86.53h0Z"/></g></g></svg>