<svg xmlns="http://www.w3.org/2000/svg" viewBox="0 0 131.92 131.92"><defs><style>.time-1{fill:#009ee3;}</style></defs><title>time</title><g id="Layer_2" data-name="Layer 2"><g id="Layer_1-2" data-name="Layer 1"><path class="time-1" d="M66,28a38,38,0,1,0,38,38A38,38,0,0,0,66,28ZM63.68,40.15h3a.84.84,0,0,1,.84.84V64.82a.45.45,0,0,0,.45.45H91.43a.84.84,0,0,1,.84.84v3.23a.84.84,0,0,1-.84.84h-27a1.56,1.56,0,0,1-1.56-1.56V41A.84.84,0,0,1,63.68,40.15Z"/><path class="time-1" d="M66,0a66,66,0,1,0,66,66A66,66,0,0,0,66,0Zm0,110a44,44,0,1,1,44-44A44.05,44.05,0,0,1,66,110Z"/></g></g></svg>