<svg version="1.1" id="brand-one-fill" xmlns="http://www.w3.org/2000/svg" xmlns:xlink="http://www.w3.org/1999/xlink" x="0px" y="0px"
     viewBox="0 0 512 512" style="enable-background:new 0 0 512 512;" xml:space="preserve"><g id="Logo__x2014__FIXED">
        <path class="st1" d="M186.2,408.3c141.5,0,218.9-117.2,218.9-218.9c0-3.3,0-6.7-0.2-9.9c15-10.8,28.1-24.4,38.4-39.9
c-13.7,6.1-28.6,10.2-44.2,12.1c16-9.6,28.1-24.6,33.8-42.6c-14.8,8.8-31.3,15.2-48.8,18.7c-14-15-34-24.2-56.2-24.2
c-42.4,0-76.9,34.5-76.9,76.9c0,6.1,0.6,12,2.1,17.5c-64-3.2-120.6-33.8-158.6-80.4c-6.5,11.3-10.4,24.6-10.4,38.6
c0,26.6,13.6,50.2,34.3,64c-12.6-0.3-24.4-3.8-34.8-9.6c0,0.3,0,0.6,0,1c0,37.3,26.5,68.3,61.7,75.5c-6.4,1.8-13.2,2.7-20.3,2.7
c-4.9,0-9.7-0.5-14.5-1.4c9.7,30.6,38.1,52.8,71.8,53.4c-26.3,20.6-59.5,32.9-95.6,32.9c-6.2,0-12.3-0.3-18.3-1.1
C102.3,395.6,142.8,408.3,186.2,408.3"></path>
    </g></svg>