<svg id="Layer_1" data-name="Layer 1" xmlns="http://www.w3.org/2000/svg" viewBox="0 0 340.89 344"><defs><style>.icon-two-1{fill:#1c9ad7;}</style></defs><title>two</title><path class="icon-two-1" d="M170.12,331.75q-7.16,0-14.36-.64c-78.46-7-140.92-71.63-145.29-150.4A159,159,0,0,1,68.16,48.31L75.73,42a3.57,3.57,0,0,1,5.35.92l33.46,56.37C128,82,146.54,72.15,166.66,72.1c3.18-.05,28.05,0,46.07,17.91,12.59,12.48,18.66,30.1,18,52.37-.87,30.7-18.63,48.43-34,60.45-7.64,6-25.16,19.49-41.71,32.2a3.56,3.56,0,0,0,2.17,6.39h52.44a24,24,0,0,1,23.94,24H118.86c-5.13,0-10.08-2.79-12.07-7.51a12.31,12.31,0,0,1,4.58-15.19c4-2.72,51.76-44,70.63-58.71,17.16-13.41,24.35-25.65,24.82-42.25.43-15.29-3.21-26.92-10.81-34.55C184.66,95.77,167.35,96,167.18,96h-.37c-24.36,0-37.16,22-41.53,31.5l-6.7,14.52a3.56,3.56,0,0,1-6.3.32L73,76.31A135.12,135.12,0,0,0,34.39,179.38c3.71,67,56.8,122,123.49,127.88a136.21,136.21,0,1,0-35.37-263.2,26,26,0,0,1-31.6-11.53h0a160.07,160.07,0,0,1,79.48-21.08h.68c85,.36,155,67.05,159.26,151.84a160.14,160.14,0,0,1-151.6,168.24Q174.43,331.76,170.12,331.75Z"/></svg>