<svg xmlns="http://www.w3.org/2000/svg" viewBox="0 0 84.33 80.3"><defs><style>.cls-1{fill:#009ee2;}</style></defs><title>upward-graph</title><g id="Layer_2" data-name="Layer 2"><g id="Layer_1-2" data-name="Layer 1"><rect class="cls-1" x="14.82" y="46.07" width="8.06" height="34.23" rx="1.22" ry="1.22"/><rect class="cls-1" x="3.09" y="52.08" width="8.06" height="28.22" rx="1.22" ry="1.22"/><rect class="cls-1" x="26.79" y="39.27" width="8.06" height="41.03" rx="1.22" ry="1.22"/><rect class="cls-1" x="39.01" y="44.95" width="8.06" height="35.35" rx="1.22" ry="1.22"/><rect class="cls-1" x="50.73" y="35.07" width="8.06" height="45.23" rx="1.22" ry="1.22"/><path class="cls-1" d="M0,43.1H0L31.26,17.75a1.15,1.15,0,0,1,1.72.13L49.37,28a1.15,1.15,0,0,0,1.7.14L71,10.38,59.12,6.55a.47.47,0,0,1,0-.9L83.81,0a.42.42,0,0,1,.5.53L77.55,24.26a.47.47,0,0,1-.89,0L73.22,13.66l.35-.11a2.68,2.68,0,0,1,3.38,1.72h0L80,4.66a.42.42,0,0,0-.5-.53l-8.85,2a.47.47,0,0,0,0,.9l3.91,1.27A1.45,1.45,0,0,1,75,10.76L51.3,32.43a1.15,1.15,0,0,1-1.7-.14L32.85,21.56a1.15,1.15,0,0,0-1.72-.13L4.57,43.51C3.36,44.68,1.17,44.3,0,43.1Z"/></g></g></svg>