<svg xmlns="http://www.w3.org/2000/svg" viewBox="0 0 352.46 320.46"><defs><style>.video-1{fill:#fff;}</style></defs><title>video-overlay</title><g id="Layer_2" data-name="Layer 2"><g id="Layer_1-2" data-name="Layer 1"><path class="video-1" d="M145.73,218.39V204.25h29.05V189.72h14.52V175.2H204V160.28H189.12v14.52H174.78V160.28H160.26V145.76H131.2V131.62h29.05V116.7H145.73V102.17H131.2V88h14.53V73.51h14.52V59h14.14V73.51h14.92V58.6H174.78V44.07H160.26V29.93h14.53V15.41h14.34V29.93H204V15.41h14.52V.49H203.65V15H189.31V.49H174.39V15H160.26V.49H145.34V15.41h14.53V29.54H131.2V.49H0v320H14.92V305.93H29.05v14.53h87.63V305.93h14.14v14.53h29.44V305.93h14.14v14.53h14.92V291H174.78V276.49H160.26V262H145.73V247.83h29.05V232.91H145.73V218.39Zm-.39,14.92v14.14H131.2V233.3Zm0,43.19H131.2V262.36h14.14ZM14.92,247.83H29.05V262H14.92Zm0-130.73H29.05v14.14H14.92Zm115.9,14.13H116.68V117.09h14.14ZM44,291h0V276.88H58.18V291ZM101.76,44.46V58.6H87.63V44.46Zm14.53,58.11V116.7H102.15V102.57Zm0,43.19H102.15V131.62h14.14Zm14.92,43.58V175.2h14.14v14.14Zm-29.05,14.52V189.72h14.14v14.14ZM87.23,262H73.1V247.83H87.23ZM73.1,232.91V218.78H87.23v14.14Zm0-58.11V160.67H87.23v14.14ZM44,59H58.18V73.12H44Zm43.27,43.19H73.1V88H87.23ZM44,218.78H58.18v14.14H44Zm0-87.15H58.18v14.14H44ZM87.63,276.49V262.36h14.14v14.14Zm43.19-116.21H116.68V146.15h14.14ZM116.68,87.65H102.15V73.51h28.66V87.65ZM131.2,59h14.14V73.12H131.2Zm-.39,173.93H116.68V218.78h14.14Zm29.44-57.71h14.14v14.14H160.26Zm-.39-14.53v14.14H145.73V160.67Zm0-116.21V58.6H145.73V44.46ZM116.29,15.41V29.54H102.15V15.41Zm-29.05,0V29.54H73.1V15.41H87.23Zm58.11,290.14H131.2V291.41h28.66v14.14H145.34Z"/><rect class="video-1" x="159.87" y="87.65" width="14.92" height="14.92"/><rect class="video-1" x="174.39" y="116.7" width="14.92" height="14.92"/><rect class="video-1" x="218.18" y="189.34" width="14.92" height="14.92"/><rect class="video-1" x="218.18" y="87.65" width="14.92" height="14.92"/><rect class="video-1" x="261.75" y="102.17" width="14.92" height="14.92"/><rect class="video-1" x="203.65" y="261.97" width="14.91" height="14.91"/><rect class="video-1" x="203.65" y="58.6" width="14.91" height="14.92"/><rect class="video-1" x="305.47" width="14.92" height="14.92"/><rect class="video-1" x="337.54" y="242.3" width="14.92" height="14.91"/></g></g></svg>