<svg xmlns="http://www.w3.org/2000/svg" viewBox="0 0 352.46 320.46"><defs><style>.cls-1{fill:#fff;}</style></defs><title>video-mask</title><g id="Layer_2" data-name="Layer 2"><g id="Layer_1-2" data-name="Layer 1"><rect class="cls-1" x="15.03" y="291.51" width="13.92" height="13.91"/><path class="cls-1" d="M29.44,305.93H14.53V291H29.44Zm-13.92-1H28.44V292H15.53Z"/><rect class="cls-1" x="15.03" y="276.99" width="13.92" height="13.92"/><path class="cls-1" d="M29.44,291.41H14.53V276.49H29.44Zm-13.92-1H28.44V277.49H15.53Z"/><rect class="cls-1" x="15.03" y="262.46" width="13.92" height="13.92"/><path class="cls-1" d="M29.44,276.88H14.53V262H29.44Zm-13.92-1H28.44V263H15.53Z"/><rect class="cls-1" x="15.03" y="233.41" width="13.92" height="13.91"/><path class="cls-1" d="M29.44,247.83H14.53V232.91H29.44Zm-13.92-1H28.44V233.91H15.53Z"/><rect class="cls-1" x="15.03" y="218.88" width="13.92" height="13.91"/><path class="cls-1" d="M29.44,233.3H14.53V218.38H29.44Zm-13.92-1H28.44V219.38H15.53Z"/><rect class="cls-1" x="15.03" y="204.36" width="13.92" height="13.91"/><path class="cls-1" d="M29.44,218.77H14.53V203.86H29.44Zm-13.92-1H28.44V204.86H15.53Z"/><rect class="cls-1" x="15.03" y="189.83" width="13.92" height="13.91"/><path class="cls-1" d="M29.44,204.25H14.53V189.33H29.44Zm-13.92-1H28.44V190.33H15.53Z"/><rect class="cls-1" x="15.03" y="175.3" width="13.92" height="13.92"/><path class="cls-1" d="M29.44,189.72H14.53V174.8H29.44Zm-13.92-1H28.44V175.8H15.53Z"/><rect class="cls-1" x="15.03" y="160.78" width="13.92" height="13.92"/><path class="cls-1" d="M29.44,175.2H14.53V160.28H29.44Zm-13.92-1H28.44V161.28H15.53Z"/><rect class="cls-1" x="15.03" y="146.25" width="13.92" height="13.92"/><path class="cls-1" d="M29.44,160.67H14.53V145.75H29.44Zm-13.92-1H28.44V146.75H15.53Z"/><rect class="cls-1" x="15.03" y="131.73" width="13.92" height="13.91"/><path class="cls-1" d="M29.44,146.14H14.53V131.23H29.44Zm-13.92-1H28.44V132.23H15.53Z"/><rect class="cls-1" x="15.03" y="102.67" width="13.92" height="13.92"/><path class="cls-1" d="M29.44,117.09H14.53V102.17H29.44Zm-13.92-1H28.44V103.17H15.53Z"/><rect class="cls-1" x="15.03" y="88.15" width="13.92" height="13.92"/><path class="cls-1" d="M29.44,102.57H14.53V87.65H29.44Zm-13.92-1H28.44V88.65H15.53Z"/><rect class="cls-1" x="15.03" y="73.62" width="13.92" height="13.92"/><path class="cls-1" d="M29.44,88H14.53V73.12H29.44ZM15.53,87H28.44V74.12H15.53Z"/><rect class="cls-1" x="15.03" y="59.09" width="13.91" height="13.92"/><path class="cls-1" d="M29.44,73.51H14.53V58.59H29.44Zm-13.92-1H28.44V59.59H15.53Z"/><rect class="cls-1" x="15.03" y="44.57" width="13.92" height="13.92"/><path class="cls-1" d="M29.44,59H14.53V44.07H29.44ZM15.53,58H28.44V45.07H15.53Z"/><rect class="cls-1" x="15.03" y="30.04" width="13.92" height="13.92"/><path class="cls-1" d="M29.44,44.46H14.53V29.54H29.44Zm-13.92-1H28.44V30.54H15.53Z"/><rect class="cls-1" x="15.03" y="15.52" width="13.92" height="13.91"/><path class="cls-1" d="M29.44,29.93H14.53V15H29.44Zm-13.92-1H28.44V16H15.53Z"/><rect class="cls-1" x="15.03" y="0.99" width="13.92" height="13.92"/><path class="cls-1" d="M29.44,15.41H14.53V.49H29.44Zm-13.92-1H28.44V1.49H15.53Z"/><rect class="cls-1" x="0.5" y="306.04" width="13.92" height="13.92"/><path class="cls-1" d="M14.92,320.46H0V305.54H14.92ZM1,319.46H13.92V306.54H1Z"/><rect class="cls-1" x="0.5" y="291.51" width="13.92" height="13.91"/><path class="cls-1" d="M14.92,305.93H0V291H14.92ZM1,304.93H13.92V292H1Z"/><rect class="cls-1" x="0.5" y="276.99" width="13.92" height="13.92"/><path class="cls-1" d="M14.92,291.41H0V276.49H14.92ZM1,290.41H13.92V277.49H1Z"/><rect class="cls-1" x="0.5" y="262.46" width="13.92" height="13.92"/><path class="cls-1" d="M14.92,276.88H0V262H14.92ZM1,275.88H13.92V263H1Z"/><rect class="cls-1" x="0.5" y="247.94" width="13.92" height="13.92"/><path class="cls-1" d="M14.92,262.35H0V247.44H14.92ZM1,261.35H13.92V248.44H1Z"/><rect class="cls-1" x="0.5" y="233.41" width="13.92" height="13.91"/><path class="cls-1" d="M14.92,247.83H0V232.91H14.92ZM1,246.83H13.92V233.91H1Z"/><rect class="cls-1" x="0.5" y="218.88" width="13.92" height="13.91"/><path class="cls-1" d="M14.92,233.3H0V218.38H14.92ZM1,232.3H13.92V219.38H1Z"/><rect class="cls-1" x="0.5" y="204.36" width="13.92" height="13.91"/><path class="cls-1" d="M14.92,218.77H0V203.86H14.92ZM1,217.77H13.92V204.86H1Z"/><rect class="cls-1" x="0.5" y="189.83" width="13.92" height="13.91"/><path class="cls-1" d="M14.92,204.25H0V189.33H14.92ZM1,203.25H13.92V190.33H1Z"/><rect class="cls-1" x="0.5" y="175.3" width="13.92" height="13.92"/><path class="cls-1" d="M14.92,189.72H0V174.8H14.92ZM1,188.72H13.92V175.8H1Z"/><rect class="cls-1" x="0.5" y="160.78" width="13.92" height="13.92"/><path class="cls-1" d="M14.92,175.2H0V160.28H14.92ZM1,174.2H13.92V161.28H1Z"/><rect class="cls-1" x="0.5" y="146.25" width="13.92" height="13.92"/><path class="cls-1" d="M14.92,160.67H0V145.75H14.92ZM1,159.67H13.92V146.75H1Z"/><rect class="cls-1" x="0.5" y="131.73" width="13.92" height="13.91"/><path class="cls-1" d="M14.92,146.14H0V131.23H14.92ZM1,145.14H13.92V132.23H1Z"/><rect class="cls-1" x="0.5" y="117.2" width="13.92" height="13.91"/><path class="cls-1" d="M14.92,131.61H0V116.7H14.92ZM1,130.61H13.92V117.7H1Z"/><rect class="cls-1" x="0.5" y="102.67" width="13.92" height="13.92"/><path class="cls-1" d="M14.92,117.09H0V102.17H14.92ZM1,116.09H13.92V103.17H1Z"/><rect class="cls-1" x="0.5" y="88.15" width="13.92" height="13.92"/><path class="cls-1" d="M14.92,102.57H0V87.65H14.92ZM1,101.57H13.92V88.65H1Z"/><rect class="cls-1" x="0.5" y="73.62" width="13.92" height="13.92"/><path class="cls-1" d="M14.92,88H0V73.12H14.92ZM1,87H13.92V74.12H1Z"/><rect class="cls-1" x="0.5" y="59.09" width="13.91" height="13.92"/><path class="cls-1" d="M14.91,73.51H0V58.59H14.91ZM1,72.51H13.91V59.59H1Z"/><rect class="cls-1" x="0.5" y="44.57" width="13.92" height="13.92"/><path class="cls-1" d="M14.92,59H0V44.07H14.92ZM1,58H13.92V45.07H1Z"/><rect class="cls-1" x="0.5" y="30.04" width="13.92" height="13.92"/><path class="cls-1" d="M14.92,44.46H0V29.54H14.92ZM1,43.46H13.92V30.54H1Z"/><rect class="cls-1" x="0.5" y="15.52" width="13.92" height="13.91"/><path class="cls-1" d="M14.92,29.93H0V15H14.92ZM1,28.93H13.92V16H1Z"/><rect class="cls-1" x="0.5" y="0.99" width="13.92" height="13.92"/><path class="cls-1" d="M14.92,15.41H0V.49H14.92ZM1,14.41H13.92V1.49H1Z"/><rect class="cls-1" x="29.55" y="306.04" width="13.92" height="13.92"/><path class="cls-1" d="M44,320.46H29.05V305.54H44Zm-13.92-1H43V306.54H30.05Z"/><rect class="cls-1" x="29.55" y="291.51" width="13.92" height="13.91"/><path class="cls-1" d="M44,305.93H29.05V291H44Zm-13.92-1H43V292H30.05Z"/><rect class="cls-1" x="29.55" y="276.99" width="13.92" height="13.92"/><path class="cls-1" d="M44,291.41H29.05V276.49H44Zm-13.92-1H43V277.49H30.05Z"/><rect class="cls-1" x="29.55" y="262.46" width="13.92" height="13.92"/><path class="cls-1" d="M44,276.88H29.05V262H44Zm-13.92-1H43V263H30.05Z"/><rect class="cls-1" x="29.55" y="247.94" width="13.92" height="13.92"/><path class="cls-1" d="M44,262.35H29.05V247.44H44Zm-13.92-1H43V248.44H30.05Z"/><rect class="cls-1" x="29.55" y="233.41" width="13.92" height="13.91"/><path class="cls-1" d="M44,247.83H29.05V232.91H44Zm-13.92-1H43V233.91H30.05Z"/><rect class="cls-1" x="29.55" y="218.88" width="13.92" height="13.91"/><path class="cls-1" d="M44,233.3H29.05V218.38H44Zm-13.92-1H43V219.38H30.05Z"/><rect class="cls-1" x="29.55" y="204.36" width="13.92" height="13.91"/><path class="cls-1" d="M44,218.77H29.05V203.86H44Zm-13.92-1H43V204.86H30.05Z"/><rect class="cls-1" x="29.55" y="189.83" width="13.92" height="13.91"/><path class="cls-1" d="M44,204.25H29.05V189.33H44Zm-13.92-1H43V190.33H30.05Z"/><rect class="cls-1" x="29.55" y="175.3" width="13.92" height="13.92"/><path class="cls-1" d="M44,189.72H29.05V174.8H44Zm-13.92-1H43V175.8H30.05Z"/><rect class="cls-1" x="29.55" y="160.78" width="13.92" height="13.92"/><path class="cls-1" d="M44,175.2H29.05V160.28H44Zm-13.92-1H43V161.28H30.05Z"/><rect class="cls-1" x="29.55" y="146.25" width="13.92" height="13.92"/><path class="cls-1" d="M44,160.67H29.05V145.75H44Zm-13.92-1H43V146.75H30.05Z"/><rect class="cls-1" x="29.55" y="131.73" width="13.92" height="13.91"/><path class="cls-1" d="M44,146.14H29.05V131.23H44Zm-13.92-1H43V132.23H30.05Z"/><rect class="cls-1" x="29.55" y="117.2" width="13.92" height="13.91"/><path class="cls-1" d="M44,131.61H29.05V116.7H44Zm-13.92-1H43V117.7H30.05Z"/><rect class="cls-1" x="29.55" y="102.67" width="13.92" height="13.92"/><path class="cls-1" d="M44,117.09H29.05V102.17H44Zm-13.92-1H43V103.17H30.05Z"/><rect class="cls-1" x="29.55" y="88.15" width="13.92" height="13.92"/><path class="cls-1" d="M44,102.57H29.05V87.65H44Zm-13.92-1H43V88.65H30.05Z"/><rect class="cls-1" x="29.55" y="73.62" width="13.92" height="13.92"/><path class="cls-1" d="M44,88H29.05V73.12H44ZM30.05,87H43V74.12H30.05Z"/><rect class="cls-1" x="29.55" y="59.09" width="13.91" height="13.92"/><path class="cls-1" d="M44,73.51H29.05V58.59H44Zm-13.91-1H43V59.59H30.05Z"/><rect class="cls-1" x="29.55" y="44.57" width="13.92" height="13.92"/><path class="cls-1" d="M44,59H29.05V44.07H44ZM30.05,58H43V45.07H30.05Z"/><rect class="cls-1" x="29.55" y="30.04" width="13.92" height="13.92"/><path class="cls-1" d="M44,44.46H29.05V29.54H44Zm-13.92-1H43V30.54H30.05Z"/><rect class="cls-1" x="29.55" y="15.52" width="13.92" height="13.91"/><path class="cls-1" d="M44,29.93H29.05V15H44Zm-13.92-1H43V16H30.05Z"/><rect class="cls-1" x="29.55" y="0.99" width="13.92" height="13.92"/><path class="cls-1" d="M44,15.41H29.05V.49H44Zm-13.92-1H43V1.49H30.05Z"/><rect class="cls-1" x="58.68" y="306.04" width="13.92" height="13.91"/><path class="cls-1" d="M73.1,320.46H58.18V305.54H73.1Zm-13.92-1H72.1V306.54H59.18Z"/><rect class="cls-1" x="58.68" y="291.52" width="13.92" height="13.92"/><path class="cls-1" d="M73.1,305.93H58.18V291H73.1Zm-13.92-1H72.1V292H59.18Z"/><rect class="cls-1" x="58.68" y="276.99" width="13.92" height="13.91"/><path class="cls-1" d="M73.1,291.41H58.18V276.49H73.1Zm-13.92-1H72.1V277.49H59.18Z"/><rect class="cls-1" x="58.68" y="262.47" width="13.92" height="13.91"/><path class="cls-1" d="M73.1,276.88H58.18V262H73.1Zm-13.92-1H72.1V263H59.18Z"/><rect class="cls-1" x="58.68" y="247.94" width="13.92" height="13.92"/><path class="cls-1" d="M73.1,262.36H58.18V247.44H73.1Zm-13.92-1H72.1V248.44H59.18Z"/><rect class="cls-1" x="58.68" y="233.41" width="13.92" height="13.92"/><path class="cls-1" d="M73.1,247.83H58.18V232.91H73.1Zm-13.92-1H72.1V233.91H59.18Z"/><rect class="cls-1" x="58.68" y="218.89" width="13.92" height="13.91"/><path class="cls-1" d="M73.1,233.3H58.18V218.39H73.1Zm-13.92-1H72.1V219.39H59.18Z"/><rect class="cls-1" x="58.68" y="204.36" width="13.92" height="13.92"/><path class="cls-1" d="M73.1,218.78H58.18V203.86H73.1Zm-13.92-1H72.1V204.86H59.18Z"/><rect class="cls-1" x="58.68" y="189.84" width="13.92" height="13.92"/><path class="cls-1" d="M73.1,204.25H58.18V189.34H73.1Zm-13.92-1H72.1V190.34H59.18Z"/><rect class="cls-1" x="58.68" y="175.31" width="13.92" height="13.92"/><path class="cls-1" d="M73.1,189.72H58.18V174.81H73.1Zm-13.92-1H72.1V175.81H59.18Z"/><rect class="cls-1" x="58.68" y="160.78" width="13.92" height="13.92"/><path class="cls-1" d="M73.1,175.2H58.18V160.28H73.1Zm-13.92-1H72.1V161.28H59.18Z"/><rect class="cls-1" x="58.68" y="146.26" width="13.92" height="13.91"/><path class="cls-1" d="M73.1,160.67H58.18V145.76H73.1Zm-13.92-1H72.1V146.76H59.18Z"/><rect class="cls-1" x="58.68" y="131.73" width="13.92" height="13.92"/><path class="cls-1" d="M73.1,146.15H58.18V131.23H73.1Zm-13.92-1H72.1V132.23H59.18Z"/><rect class="cls-1" x="58.68" y="117.2" width="13.92" height="13.92"/><path class="cls-1" d="M73.1,131.62H58.18V116.7H73.1Zm-13.92-1H72.1V117.7H59.18Z"/><rect class="cls-1" x="58.68" y="102.67" width="13.92" height="13.92"/><path class="cls-1" d="M73.1,117.09H58.18V102.17H73.1Zm-13.92-1H72.1V103.17H59.18Z"/><rect class="cls-1" x="58.68" y="88.15" width="13.92" height="13.92"/><path class="cls-1" d="M73.1,102.57H58.18V87.65H73.1Zm-13.92-1H72.1V88.65H59.18Z"/><rect class="cls-1" x="58.68" y="73.62" width="13.92" height="13.92"/><path class="cls-1" d="M73.1,88H58.18V73.12H73.1ZM59.18,87H72.1V74.12H59.18Z"/><rect class="cls-1" x="58.68" y="59.1" width="13.92" height="13.92"/><path class="cls-1" d="M73.1,73.51H58.18V58.6H73.1Zm-13.92-1H72.1V59.6H59.18Z"/><rect class="cls-1" x="58.68" y="44.57" width="13.92" height="13.92"/><path class="cls-1" d="M73.1,59H58.18V44.07H73.1ZM59.18,58H72.1V45.07H59.18Z"/><rect class="cls-1" x="58.68" y="30.05" width="13.92" height="13.91"/><path class="cls-1" d="M73.1,44.46H58.18V29.55H73.1Zm-13.92-1H72.1V30.55H59.18Z"/><rect class="cls-1" x="58.68" y="15.52" width="13.92" height="13.92"/><path class="cls-1" d="M73.1,29.94H58.18V15H73.1Zm-13.92-1H72.1V16H59.18Z"/><rect class="cls-1" x="58.68" y="0.99" width="13.92" height="13.92"/><path class="cls-1" d="M73.1,15.41H58.18V.49H73.1Zm-13.92-1H72.1V1.49H59.18Z"/><rect class="cls-1" x="102.26" y="306.04" width="13.91" height="13.91"/><path class="cls-1" d="M116.68,320.46H101.76V305.54h14.92Zm-13.92-1h12.92V306.54H102.76Z"/><rect class="cls-1" x="102.26" y="291.52" width="13.91" height="13.92"/><path class="cls-1" d="M116.68,305.93H101.76V291h14.92Zm-13.92-1h12.92V292H102.76Z"/><rect class="cls-1" x="102.26" y="276.99" width="13.91" height="13.91"/><path class="cls-1" d="M116.68,291.41H101.76V276.49h14.92Zm-13.92-1h12.92V277.49H102.76Z"/><rect class="cls-1" x="102.26" y="262.47" width="13.91" height="13.91"/><path class="cls-1" d="M116.68,276.88H101.76V262h14.92Zm-13.92-1h12.92V263H102.76Z"/><rect class="cls-1" x="102.26" y="247.94" width="13.91" height="13.92"/><path class="cls-1" d="M116.68,262.36H101.76V247.44h14.92Zm-13.92-1h12.92V248.44H102.76Z"/><rect class="cls-1" x="102.26" y="233.41" width="13.91" height="13.92"/><path class="cls-1" d="M116.68,247.83H101.76V232.91h14.92Zm-13.92-1h12.92V233.91H102.76Z"/><rect class="cls-1" x="102.26" y="218.89" width="13.91" height="13.91"/><path class="cls-1" d="M116.68,233.3H101.76V218.39h14.92Zm-13.92-1h12.92V219.39H102.76Z"/><rect class="cls-1" x="102.26" y="204.36" width="13.91" height="13.92"/><path class="cls-1" d="M116.68,218.78H101.76V203.86h14.92Zm-13.92-1h12.92V204.86H102.76Z"/><rect class="cls-1" x="102.26" y="175.31" width="13.91" height="13.92"/><path class="cls-1" d="M116.68,189.72H101.76V174.81h14.92Zm-13.92-1h12.92V175.81H102.76Z"/><rect class="cls-1" x="102.26" y="160.78" width="13.91" height="13.92"/><path class="cls-1" d="M116.68,175.2H101.76V160.28h14.92Zm-13.92-1h12.92V161.28H102.76Z"/><rect class="cls-1" x="102.26" y="146.26" width="13.91" height="13.91"/><path class="cls-1" d="M116.68,160.67H101.76V145.76h14.92Zm-13.92-1h12.92V146.76H102.76Z"/><rect class="cls-1" x="102.26" y="117.2" width="13.91" height="13.92"/><path class="cls-1" d="M116.68,131.62H101.76V116.7h14.92Zm-13.92-1h12.92V117.7H102.76Z"/><rect class="cls-1" x="102.26" y="88.15" width="13.91" height="13.92"/><path class="cls-1" d="M116.68,102.57H101.76V87.65h14.92Zm-13.92-1h12.92V88.65H102.76Z"/><rect class="cls-1" x="102.26" y="59.1" width="13.91" height="13.92"/><path class="cls-1" d="M116.68,73.51H101.76V58.6h14.92Zm-13.92-1h12.92V59.6H102.76Z"/><rect class="cls-1" x="102.26" y="44.57" width="13.91" height="13.92"/><path class="cls-1" d="M116.68,59H101.76V44.07h14.92Zm-13.92-1h12.92V45.07H102.76Z"/><rect class="cls-1" x="102.26" y="30.05" width="13.91" height="13.91"/><path class="cls-1" d="M116.68,44.46H101.76V29.54h14.92Zm-13.92-1h12.92V30.54H102.76Z"/><rect class="cls-1" x="102.26" y="0.99" width="13.91" height="13.92"/><path class="cls-1" d="M116.68,15.41H101.76V.49h14.92Zm-13.92-1h12.92V1.49H102.76Z"/><rect class="cls-1" x="87.73" y="306.04" width="13.92" height="13.91"/><path class="cls-1" d="M102.15,320.46H87.23V305.54h14.92Zm-13.92-1h12.92V306.54H88.23Z"/><rect class="cls-1" x="87.73" y="291.52" width="13.92" height="13.92"/><path class="cls-1" d="M102.15,305.93H87.23V291h14.92Zm-13.92-1h12.92V292H88.23Z"/><rect class="cls-1" x="87.73" y="276.99" width="13.92" height="13.91"/><path class="cls-1" d="M102.15,291.41H87.23V276.49h14.92Zm-13.92-1h12.92V277.49H88.23Z"/><rect class="cls-1" x="87.73" y="247.94" width="13.92" height="13.92"/><path class="cls-1" d="M102.15,262.36H87.23V247.44h14.92Zm-13.92-1h12.92V248.44H88.23Z"/><rect class="cls-1" x="87.73" y="233.41" width="13.92" height="13.92"/><path class="cls-1" d="M102.15,247.83H87.23V232.91h14.92Zm-13.92-1h12.92V233.91H88.23Z"/><rect class="cls-1" x="87.73" y="218.89" width="13.92" height="13.91"/><path class="cls-1" d="M102.15,233.3H87.23V218.39h14.92Zm-13.92-1h12.92V219.39H88.23Z"/><rect class="cls-1" x="87.73" y="204.36" width="13.92" height="13.92"/><path class="cls-1" d="M102.15,218.78H87.23V203.86h14.92Zm-13.92-1h12.92V204.86H88.23Z"/><rect class="cls-1" x="87.73" y="189.84" width="13.92" height="13.92"/><path class="cls-1" d="M102.15,204.25H87.23V189.34h14.92Zm-13.92-1h12.92V190.34H88.23Z"/><rect class="cls-1" x="87.73" y="175.31" width="13.92" height="13.92"/><path class="cls-1" d="M102.15,189.72H87.23V174.81h14.92Zm-13.92-1h12.92V175.81H88.23Z"/><rect class="cls-1" x="87.73" y="160.78" width="13.92" height="13.92"/><path class="cls-1" d="M102.15,175.2H87.23V160.28h14.92Zm-13.92-1h12.92V161.28H88.23Z"/><rect class="cls-1" x="87.73" y="146.26" width="13.92" height="13.91"/><path class="cls-1" d="M102.15,160.67H87.23V145.76h14.92Zm-13.92-1h12.92V146.76H88.23Z"/><rect class="cls-1" x="87.73" y="131.73" width="13.92" height="13.92"/><path class="cls-1" d="M102.15,146.15H87.23V131.23h14.92Zm-13.92-1h12.92V132.23H88.23Z"/><rect class="cls-1" x="87.73" y="117.2" width="13.92" height="13.92"/><path class="cls-1" d="M102.15,131.62H87.23V116.7h14.92Zm-13.92-1h12.92V117.7H88.23Z"/><rect class="cls-1" x="87.73" y="102.67" width="13.92" height="13.92"/><path class="cls-1" d="M102.15,117.09H87.23V102.17h14.92Zm-13.92-1h12.92V103.17H88.23Z"/><rect class="cls-1" x="87.73" y="88.15" width="13.92" height="13.92"/><path class="cls-1" d="M102.15,102.57H87.23V87.65h14.92Zm-13.92-1h12.92V88.65H88.23Z"/><rect class="cls-1" x="87.73" y="73.62" width="13.92" height="13.92"/><path class="cls-1" d="M102.15,88H87.23V73.12h14.92ZM88.23,87h12.92V74.12H88.23Z"/><rect class="cls-1" x="87.73" y="59.1" width="13.92" height="13.92"/><path class="cls-1" d="M102.15,73.51H87.23V58.6h14.92Zm-13.92-1h12.92V59.6H88.23Z"/><rect class="cls-1" x="87.73" y="30.05" width="13.92" height="13.91"/><path class="cls-1" d="M102.15,44.46H87.23V29.54h14.92Zm-13.92-1h12.92V30.54H88.23Z"/><rect class="cls-1" x="87.73" y="15.52" width="13.92" height="13.92"/><path class="cls-1" d="M102.15,29.93H87.23V15h14.92Zm-13.92-1h12.92V16H88.23Z"/><rect class="cls-1" x="87.73" y="0.99" width="13.92" height="13.92"/><path class="cls-1" d="M102.15,15.41H87.23V.49h14.92Zm-13.92-1h12.92V1.49H88.23Z"/><rect class="cls-1" x="73.21" y="306.04" width="13.92" height="13.91"/><path class="cls-1" d="M87.63,320.46H72.71V305.54H87.63Zm-13.92-1H86.63V306.54H73.71Z"/><rect class="cls-1" x="73.21" y="291.52" width="13.92" height="13.92"/><path class="cls-1" d="M87.63,305.93H72.71V291H87.63Zm-13.92-1H86.63V292H73.71Z"/><rect class="cls-1" x="73.21" y="276.99" width="13.92" height="13.91"/><path class="cls-1" d="M87.63,291.41H72.71V276.49H87.63Zm-13.92-1H86.63V277.49H73.71Z"/><rect class="cls-1" x="73.21" y="262.47" width="13.92" height="13.91"/><path class="cls-1" d="M87.63,276.88H72.71V262H87.63Zm-13.92-1H86.63V263H73.71Z"/><rect class="cls-1" x="73.21" y="233.41" width="13.92" height="13.92"/><path class="cls-1" d="M87.63,247.83H72.71V232.91H87.63Zm-13.92-1H86.63V233.91H73.71Z"/><rect class="cls-1" x="73.21" y="204.36" width="13.92" height="13.92"/><path class="cls-1" d="M87.63,218.78H72.71V203.86H87.63Zm-13.92-1H86.63V204.86H73.71Z"/><rect class="cls-1" x="73.21" y="189.84" width="13.92" height="13.92"/><path class="cls-1" d="M87.63,204.25H72.71V189.34H87.63Zm-13.92-1H86.63V190.34H73.71Z"/><rect class="cls-1" x="73.21" y="175.31" width="13.92" height="13.92"/><path class="cls-1" d="M87.63,189.72H72.71V174.81H87.63Zm-13.92-1H86.63V175.81H73.71Z"/><rect class="cls-1" x="73.21" y="146.26" width="13.92" height="13.91"/><path class="cls-1" d="M87.63,160.67H72.71V145.76H87.63Zm-13.92-1H86.63V146.76H73.71Z"/><rect class="cls-1" x="73.21" y="131.73" width="13.92" height="13.92"/><path class="cls-1" d="M87.63,146.15H72.71V131.23H87.63Zm-13.92-1H86.63V132.23H73.71Z"/><rect class="cls-1" x="73.21" y="117.2" width="13.92" height="13.92"/><path class="cls-1" d="M87.63,131.62H72.71V116.7H87.63Zm-13.92-1H86.63V117.7H73.71Z"/><rect class="cls-1" x="73.21" y="102.67" width="13.92" height="13.92"/><path class="cls-1" d="M87.63,117.09H72.71V102.17H87.63Zm-13.92-1H86.63V103.17H73.71Z"/><rect class="cls-1" x="73.21" y="73.62" width="13.92" height="13.92"/><path class="cls-1" d="M87.63,88H72.71V73.12H87.63ZM73.71,87H86.63V74.12H73.71Z"/><rect class="cls-1" x="73.21" y="59.1" width="13.92" height="13.92"/><path class="cls-1" d="M87.63,73.51H72.71V58.6H87.63Zm-13.92-1H86.63V59.6H73.71Z"/><rect class="cls-1" x="73.21" y="44.57" width="13.92" height="13.92"/><path class="cls-1" d="M87.63,59H72.71V44.07H87.63ZM73.71,58H86.63V45.07H73.71Z"/><rect class="cls-1" x="73.21" y="30.05" width="13.92" height="13.91"/><path class="cls-1" d="M87.63,44.46H72.71V29.54H87.63Zm-13.92-1H86.63V30.54H73.71Z"/><rect class="cls-1" x="73.21" y="0.99" width="13.92" height="13.92"/><path class="cls-1" d="M87.63,15.41H72.71V.49H87.63Zm-13.92-1H86.63V1.49H73.71Z"/><rect class="cls-1" x="44.16" y="306.04" width="13.92" height="13.91"/><path class="cls-1" d="M58.57,320.46H43.66V305.54H58.57Zm-13.92-1H57.57V306.54H44.66Z"/><rect class="cls-1" x="44.16" y="291.52" width="13.92" height="13.92"/><path class="cls-1" d="M58.57,305.93H43.66V291H58.57Zm-13.92-1H57.57V292H44.66Z"/><rect class="cls-1" x="44.16" y="262.47" width="13.92" height="13.91"/><path class="cls-1" d="M58.57,276.88H43.66V262H58.57Zm-13.92-1H57.57V263H44.66Z"/><rect class="cls-1" x="44.16" y="247.94" width="13.92" height="13.92"/><path class="cls-1" d="M58.57,262.36H43.66V247.44H58.57Zm-13.92-1H57.57V248.44H44.66Z"/><rect class="cls-1" x="44.16" y="233.41" width="13.92" height="13.92"/><path class="cls-1" d="M58.57,247.83H43.66V232.91H58.57Zm-13.92-1H57.57V233.91H44.66Z"/><rect class="cls-1" x="44.16" y="204.36" width="13.92" height="13.92"/><path class="cls-1" d="M58.57,218.78H43.66V203.86H58.57Zm-13.92-1H57.57V204.86H44.66Z"/><rect class="cls-1" x="44.16" y="189.84" width="13.92" height="13.92"/><path class="cls-1" d="M58.57,204.25H43.66V189.34H58.57Zm-13.92-1H57.57V190.34H44.66Z"/><rect class="cls-1" x="44.16" y="175.31" width="13.92" height="13.92"/><path class="cls-1" d="M58.57,189.72H43.66V174.81H58.57Zm-13.92-1H57.57V175.81H44.66Z"/><rect class="cls-1" x="44.16" y="160.78" width="13.92" height="13.92"/><path class="cls-1" d="M58.57,175.2H43.66V160.28H58.57Zm-13.92-1H57.57V161.28H44.66Z"/><rect class="cls-1" x="44.16" y="146.26" width="13.92" height="13.91"/><path class="cls-1" d="M58.57,160.67H43.66V145.76H58.57Zm-13.92-1H57.57V146.76H44.66Z"/><rect class="cls-1" x="44.16" y="117.2" width="13.92" height="13.92"/><path class="cls-1" d="M58.57,131.62H43.66V116.7H58.57Zm-13.92-1H57.57V117.7H44.66Z"/><rect class="cls-1" x="44.16" y="102.67" width="13.92" height="13.92"/><path class="cls-1" d="M58.57,117.09H43.66V102.17H58.57Zm-13.92-1H57.57V103.17H44.66Z"/><rect class="cls-1" x="44.16" y="88.15" width="13.92" height="13.92"/><path class="cls-1" d="M58.57,102.57H43.66V87.65H58.57Zm-13.92-1H57.57V88.65H44.66Z"/><rect class="cls-1" x="44.16" y="73.62" width="13.92" height="13.92"/><path class="cls-1" d="M58.57,88H43.66V73.12H58.57ZM44.66,87H57.57V74.12H44.66Z"/><rect class="cls-1" x="44.16" y="44.57" width="13.92" height="13.92"/><path class="cls-1" d="M58.57,59H43.66V44.07H58.57ZM44.66,58H57.57V45.07H44.66Z"/><rect class="cls-1" x="44.16" y="30.05" width="13.92" height="13.91"/><path class="cls-1" d="M58.57,44.46H43.66V29.54H58.57Zm-13.92-1H57.57V30.54H44.66Z"/><rect class="cls-1" x="44.16" y="15.52" width="13.92" height="13.92"/><path class="cls-1" d="M58.57,29.93H43.66V15H58.57Zm-13.92-1H57.57V16H44.66Z"/><rect class="cls-1" x="44.16" y="0.99" width="13.92" height="13.92"/><path class="cls-1" d="M58.57,15.41H43.66V.49H58.57Zm-13.92-1H57.57V1.49H44.66Z"/><rect class="cls-1" x="145.84" y="306.04" width="13.92" height="13.91"/><path class="cls-1" d="M160.26,320.46H145.34V305.54h14.92Zm-13.92-1h12.92V306.54H146.34Z"/><rect class="cls-1" x="145.84" y="276.99" width="13.92" height="13.91"/><path class="cls-1" d="M160.26,291.41H145.34V276.49h14.92Zm-13.92-1h12.92V277.49H146.34Z"/><rect class="cls-1" x="145.84" y="262.47" width="13.92" height="13.91"/><path class="cls-1" d="M160.26,276.88H145.34V262h14.92Zm-13.92-1h12.92V263H146.34Z"/><rect class="cls-1" x="145.84" y="233.41" width="13.92" height="13.92"/><path class="cls-1" d="M160.26,247.83H145.34V232.91h14.92Zm-13.92-1h12.92V233.91H146.34Z"/><rect class="cls-1" x="145.84" y="189.84" width="13.92" height="13.92"/><path class="cls-1" d="M160.26,204.25H145.34V189.34h14.92Zm-13.92-1h12.92V190.34H146.34Z"/><rect class="cls-1" x="145.84" y="175.31" width="13.92" height="13.92"/><path class="cls-1" d="M160.26,189.72H145.34V174.81h14.92Zm-13.92-1h12.92V175.81H146.34Z"/><rect class="cls-1" x="145.84" y="146.26" width="13.92" height="13.91"/><path class="cls-1" d="M160.26,160.67H145.34V145.76h14.92Zm-13.92-1h12.92V146.76H146.34Z"/><rect class="cls-1" x="145.84" y="117.2" width="13.92" height="13.92"/><path class="cls-1" d="M160.26,131.62H145.34V116.7h14.92Zm-13.92-1h12.92V117.7H146.34Z"/><rect class="cls-1" x="145.84" y="59.1" width="13.92" height="13.92"/><path class="cls-1" d="M160.26,73.51H145.34V58.6h14.92Zm-13.92-1h12.92V59.6H146.34Z"/><rect class="cls-1" x="145.84" y="30.05" width="13.92" height="13.91"/><path class="cls-1" d="M160.26,44.46H145.34V29.54h14.92Zm-13.92-1h12.92V30.54H146.34Z"/><rect class="cls-1" x="145.84" y="0.99" width="13.92" height="13.92"/><path class="cls-1" d="M160.26,15.41H145.34V.49h14.92Zm-13.92-1h12.92V1.49H146.34Z"/><rect class="cls-1" x="116.79" y="291.52" width="13.92" height="13.92"/><path class="cls-1" d="M131.2,305.93H116.29V291H131.2Zm-13.92-1H130.2V292H117.29Z"/><rect class="cls-1" x="116.79" y="276.99" width="13.92" height="13.91"/><path class="cls-1" d="M131.2,291.41H116.29V276.49H131.2Zm-13.92-1H130.2V277.49H117.29Z"/><rect class="cls-1" x="116.79" y="262.47" width="13.92" height="13.91"/><path class="cls-1" d="M131.2,276.88H116.29V262H131.2Zm-13.92-1H130.2V263H117.29Z"/><rect class="cls-1" x="116.79" y="247.94" width="13.92" height="13.92"/><path class="cls-1" d="M131.2,262.36H116.29V247.44H131.2Zm-13.92-1H130.2V248.44H117.29Z"/><rect class="cls-1" x="116.79" y="233.41" width="13.92" height="13.92"/><path class="cls-1" d="M131.2,247.83H116.29V232.91H131.2Zm-13.92-1H130.2V233.91H117.29Z"/><rect class="cls-1" x="116.79" y="204.36" width="13.92" height="13.92"/><path class="cls-1" d="M131.2,218.78H116.29V203.86H131.2Zm-13.92-1H130.2V204.86H117.29Z"/><rect class="cls-1" x="116.79" y="189.84" width="13.92" height="13.92"/><path class="cls-1" d="M131.2,204.25H116.29V189.34H131.2Zm-13.92-1H130.2V190.34H117.29Z"/><rect class="cls-1" x="116.79" y="175.31" width="13.92" height="13.92"/><path class="cls-1" d="M131.2,189.72H116.29V174.81H131.2Zm-13.92-1H130.2V175.81H117.29Z"/><rect class="cls-1" x="116.79" y="160.78" width="13.92" height="13.92"/><path class="cls-1" d="M131.2,175.2H116.29V160.28H131.2Zm-13.92-1H130.2V161.28H117.29Z"/><rect class="cls-1" x="116.79" y="131.73" width="13.92" height="13.92"/><path class="cls-1" d="M131.2,146.15H116.29V131.23H131.2Zm-13.92-1H130.2V132.23H117.29Z"/><rect class="cls-1" x="116.79" y="102.67" width="13.92" height="13.92"/><path class="cls-1" d="M131.2,117.09H116.29V102.17H131.2Zm-13.92-1H130.2V103.17H117.29Z"/><rect class="cls-1" x="116.79" y="88.15" width="13.92" height="13.92"/><path class="cls-1" d="M131.2,102.57H116.29V87.65H131.2Zm-13.92-1H130.2V88.65H117.29Z"/><rect class="cls-1" x="116.79" y="59.1" width="13.92" height="13.92"/><path class="cls-1" d="M131.2,73.51H116.29V58.6H131.2Zm-13.92-1H130.2V59.6H117.29Z"/><rect class="cls-1" x="116.79" y="44.57" width="13.92" height="13.92"/><path class="cls-1" d="M131.2,59H116.29V44.07H131.2Zm-13.92-1H130.2V45.07H117.29Z"/><rect class="cls-1" x="116.79" y="30.05" width="13.92" height="13.91"/><path class="cls-1" d="M131.2,44.46H116.29V29.54H131.2Zm-13.92-1H130.2V30.54H117.29Z"/><rect class="cls-1" x="116.79" y="15.52" width="13.92" height="13.92"/><path class="cls-1" d="M131.2,29.93H116.29V15H131.2Zm-13.92-1H130.2V16H117.29Z"/><rect class="cls-1" x="116.79" y="0.99" width="13.92" height="13.92"/><path class="cls-1" d="M131.2,15.41H116.29V.49H131.2Zm-13.92-1H130.2V1.49H117.29Z"/><rect class="cls-1" x="131.31" y="306.04" width="13.92" height="13.91"/><path class="cls-1" d="M145.73,320.46H130.81V305.54h14.92Zm-13.92-1h12.92V306.54H131.81Z"/><rect class="cls-1" x="131.31" y="276.99" width="13.92" height="13.91"/><path class="cls-1" d="M145.73,291.41H130.81V276.49h14.92Zm-13.92-1h12.92V277.49H131.81Z"/><rect class="cls-1" x="131.31" y="247.94" width="13.92" height="13.92"/><path class="cls-1" d="M145.73,262.36H130.81V247.44h14.92Zm-13.92-1h12.92V248.44H131.81Z"/><rect class="cls-1" x="131.31" y="218.89" width="13.92" height="13.91"/><path class="cls-1" d="M145.73,233.3H130.81V218.39h14.92Zm-13.92-1h12.92V219.39H131.81Z"/><rect class="cls-1" x="131.31" y="204.36" width="13.92" height="13.92"/><path class="cls-1" d="M145.73,218.78H130.81V203.86h14.92Zm-13.92-1h12.92V204.86H131.81Z"/><rect class="cls-1" x="131.31" y="189.84" width="13.92" height="13.92"/><path class="cls-1" d="M145.73,204.25H130.81V189.34h14.92Zm-13.92-1h12.92V190.34H131.81Z"/><rect class="cls-1" x="131.31" y="160.78" width="13.92" height="13.92"/><path class="cls-1" d="M145.73,175.2H130.81V160.28h14.92Zm-13.92-1h12.92V161.28H131.81Z"/><rect class="cls-1" x="131.31" y="146.26" width="13.92" height="13.91"/><path class="cls-1" d="M145.73,160.67H130.81V145.76h14.92Zm-13.92-1h12.92V146.76H131.81Z"/><rect class="cls-1" x="131.31" y="117.2" width="13.92" height="13.92"/><path class="cls-1" d="M145.73,131.62H130.81V116.7h14.92Zm-13.92-1h12.92V117.7H131.81Z"/><rect class="cls-1" x="131.31" y="102.67" width="13.92" height="13.92"/><path class="cls-1" d="M145.73,117.09H130.81V102.17h14.92Zm-13.92-1h12.92V103.17H131.81Z"/><rect class="cls-1" x="131.31" y="73.62" width="13.92" height="13.92"/><path class="cls-1" d="M145.73,88H130.81V73.12h14.92Zm-13.92-1h12.92V74.12H131.81Z"/><rect class="cls-1" x="131.31" y="44.57" width="13.92" height="13.92"/><path class="cls-1" d="M145.73,59H130.81V44.07h14.92Zm-13.92-1h12.92V45.07H131.81Z"/><rect class="cls-1" x="131.31" y="30.05" width="13.92" height="13.91"/><path class="cls-1" d="M145.73,44.46H130.81V29.54h14.92Zm-13.92-1h12.92V30.54H131.81Z"/><rect class="cls-1" x="160.37" y="291.52" width="13.92" height="13.92"/><path class="cls-1" d="M174.78,305.93H159.87V291h14.92Zm-13.92-1h12.92V292H160.87Z"/><rect class="cls-1" x="160.37" y="276.99" width="13.92" height="13.91"/><path class="cls-1" d="M174.78,291.41H159.87V276.49h14.92Zm-13.92-1h12.92V277.49H160.87Z"/><rect class="cls-1" x="160.37" y="233.41" width="13.92" height="13.92"/><path class="cls-1" d="M174.78,247.83H159.87V232.91h14.92Zm-13.92-1h12.92V233.91H160.87Z"/><rect class="cls-1" x="160.37" y="189.84" width="13.92" height="13.92"/><path class="cls-1" d="M174.78,204.25H159.87V189.34h14.92Zm-13.92-1h12.92V190.34H160.87Z"/><rect class="cls-1" x="160.37" y="160.78" width="13.92" height="13.92"/><path class="cls-1" d="M174.78,175.2H159.87V160.28h14.92Zm-13.92-1h12.92V161.28H160.87Z"/><rect class="cls-1" x="160.37" y="88.15" width="13.92" height="13.92"/><path class="cls-1" d="M174.78,102.57H159.87V87.65h14.92Zm-13.92-1h12.92V88.65H160.87Z"/><rect class="cls-1" x="160.37" y="44.57" width="13.92" height="13.92"/><path class="cls-1" d="M174.78,59H159.87V44.07h14.92Zm-13.92-1h12.92V45.07H160.87Z"/><rect class="cls-1" x="160.37" y="15.52" width="13.92" height="13.92"/><path class="cls-1" d="M174.78,29.93H159.87V15h14.92Zm-13.92-1h12.92V16H160.87Z"/><rect class="cls-1" x="174.89" y="306.04" width="13.92" height="13.91"/><path class="cls-1" d="M189.31,320.46H174.39V305.54h14.92Zm-13.92-1h12.92V306.54H175.39Z"/><rect class="cls-1" x="174.89" y="291.52" width="13.92" height="13.92"/><path class="cls-1" d="M189.31,305.93H174.39V291h14.92Zm-13.92-1h12.92V292H175.39Z"/><rect class="cls-1" x="174.89" y="175.31" width="13.92" height="13.92"/><path class="cls-1" d="M189.31,189.72H174.39V174.81h14.92Zm-13.92-1h12.92V175.81H175.39Z"/><rect class="cls-1" x="174.89" y="117.2" width="13.92" height="13.92"/><path class="cls-1" d="M189.31,131.62H174.39V116.7h14.92Zm-13.92-1h12.92V117.7H175.39Z"/><rect class="cls-1" x="174.89" y="59.1" width="13.92" height="13.92"/><path class="cls-1" d="M189.31,73.51H174.39V58.6h14.92Zm-13.92-1h12.92V59.6H175.39Z"/><rect class="cls-1" x="174.89" y="0.99" width="13.92" height="13.92"/><path class="cls-1" d="M189.31,15.41H174.39V.49h14.92Zm-13.92-1h12.92V1.49H175.39Z"/><rect class="cls-1" x="218.68" y="189.84" width="13.92" height="13.92"/><path class="cls-1" d="M233.09,204.25H218.18V189.34h14.92Zm-13.92-1h12.92V190.34H219.18Z"/><rect class="cls-1" x="218.68" y="88.15" width="13.92" height="13.92"/><path class="cls-1" d="M233.09,102.57H218.18V87.65h14.92Zm-13.92-1h12.92V88.65H219.18Z"/><rect class="cls-1" x="262.25" y="102.67" width="13.92" height="13.92"/><path class="cls-1" d="M276.67,117.09H261.75V102.17h14.92Zm-13.92-1h12.92V103.17H262.75Z"/><rect class="cls-1" x="204.15" y="262.47" width="13.91" height="13.91"/><path class="cls-1" d="M218.56,276.88H203.65V262h14.91Zm-13.91-1h12.91V263H204.65Z"/><rect class="cls-1" x="204.15" y="59.1" width="13.91" height="13.92"/><path class="cls-1" d="M218.56,73.51H203.65V58.6h14.91Zm-13.91-1h12.91V59.6H204.65Z"/><rect class="cls-1" x="204.15" y="0.99" width="13.91" height="13.92"/><path class="cls-1" d="M218.56,15.41H203.65V.49h14.91Zm-13.91-1h12.91V1.49H204.65Z"/><rect class="cls-1" x="189.62" y="160.78" width="13.92" height="13.92"/><path class="cls-1" d="M204,175.2H189.12V160.28H204Zm-13.92-1H203V161.28H190.12Z"/><rect class="cls-1" x="189.62" y="15.52" width="13.92" height="13.92"/><path class="cls-1" d="M204,29.93H189.12V15H204Zm-13.92-1H203V16H190.12Z"/><rect class="cls-1" x="305.97" y="0.5" width="13.92" height="13.92"/><path class="cls-1" d="M320.39,14.92H305.47V0h14.92Zm-13.92-1h12.92V1H306.47Z"/><rect class="cls-1" x="338.04" y="242.8" width="13.92" height="13.91"/><path class="cls-1" d="M352.46,257.22H337.54V242.3h14.92Zm-13.92-1h12.92V243.3H338.54Z"/></g></g></svg>