<svg xmlns="http://www.w3.org/2000/svg" viewBox="0 0 98.4 79.65"><defs><style>.cls-1{fill:#931f7f;}.cls-2{fill:#75caf3;}.cls-3{fill:#0768b1;}.cls-4{fill:#423d91;}.cls-5{fill:#1c9bd8;}</style></defs><title>website</title><g id="Layer_2" data-name="Layer 2"><g id="Layer_5" data-name="Layer 5"><path class="cls-1" d="M79.73,54.3A1.81,1.81,0,0,1,78.59,56a1.78,1.78,0,0,1-.64.12,1.8,1.8,0,0,1-1.34-.59l-6-6.67-6.51-6.51-8.88,8.88-7.69-5.59-9.92,9.59H20.24V31.89h0a3.41,3.41,0,0,1,3.41,3.41V51.81H36.23l11-10.62,7.64,5.56,9.23-9.23,9,9L76.27,50"/><path class="cls-1" d="M76.27,50,76,28.74H25.35a3.41,3.41,0,0,1-3.41-3.41H79.38V27l.35,27.26Z"/><path class="cls-1" d="M77.33,67.42H22.1a2.22,2.22,0,0,1-2.22-2.22V61.34a2.22,2.22,0,0,1,2.22-2.22H71.76a3.41,3.41,0,0,1-3.41,3.41H23.29V64H73.92a3.41,3.41,0,0,1,3.41,3.41Z"/><path class="cls-1" d="M84.3,46.49h0a3.41,3.41,0,0,1-.79-4.76l.79-1.11-.79-1.11a3.41,3.41,0,0,1,.79-4.76h0l4.19,5.87Z"/><path class="cls-1" d="M14.63,46.49l-4.19-5.87,4.19-5.87h0a3.41,3.41,0,0,1,.79,4.76l-.79,1.11.79,1.11a3.41,3.41,0,0,1-.79,4.76Z"/><path class="cls-2" d="M92.77,5.62H5.62v.94A5.62,5.62,0,0,1,0,12.18H0v-10A2.16,2.16,0,0,1,2.16,0H96.24A2.16,2.16,0,0,1,98.4,2.16V12.27Z"/><path class="cls-3" d="M.94,67.42V77.5A2.16,2.16,0,0,0,3.1,79.65H84.75l8-5.62H6.56Z"/><path class="cls-4" d="M.94,67.42V15H83.87a5.62,5.62,0,0,1,5.62,5.62H6.56V74Z"/><path class="cls-5" d="M84.75,79.65H96.24A2.16,2.16,0,0,0,98.4,77.5V12.27L92.77,5.62V74Z"/></g></g></svg>