<svg id="Layer_1" data-name="Layer 1" xmlns="http://www.w3.org/2000/svg" viewBox="0 0 350.89 344"><defs><style>.workshops-1{fill:#75c8f1;}.workshops-2{fill:#fff;}.workshops-3{fill:#832b94;}</style></defs><title>stats icons</title><ellipse class="workshops-1" cx="175.22" cy="167.62" rx="154.22" ry="154.38"/><path class="workshops-2" d="M163,216.72,79.07,300.6l-14.32,2L40.2,282.19V257.64l85.92-85.93,12.28-4.09L101.57,130.8l-32.73-8.19L48.38,110.34,40.2,85.79V73.51L72.93,98.06l28.64-32.73L72.93,40.78s24.55-16.37,45,8.18,16.37,45,16.37,45L178,142.14l75-68.63,4.09-16.36L285.7,44.87,298,57.15,281.61,85.79,257.06,94l-57.29,69.56,45,45,32.74-4.09L306.16,229l4.09,36.82-4.09,4.09-32.74-32.73-32.73,32.73,32.73,28.64-40.91-8.18-20.46-28.64V237.18l-36.83-32.73Z"/><path class="workshops-3" d="M80.58,309.77l-18.25-.6a3.13,3.13,0,0,1-2.14-.92L35.05,283.11a3.14,3.14,0,0,1-.92-2L33,263.3a3.13,3.13,0,0,1,.86-2.38l86.91-91.39,7-4.56L99.17,136.28A55.88,55.88,0,0,1,32.61,81.4a56.15,56.15,0,0,1,2-14.5l1.57-5.85a3.17,3.17,0,0,1,5.26-1.46l29,28L92.16,65.85,61.92,36.62a3.17,3.17,0,0,1,1-5.23l5.18-2a55.76,55.76,0,0,1,34.4-2.13,54.67,54.67,0,0,1,24.53,13.58,55.82,55.82,0,0,1,15,56.83l32.73,33.78h0a13.48,13.48,0,0,1-19.06-.3l-29.26-30.2,1.59-4a42.28,42.28,0,0,0-5.31-40.66A42.8,42.8,0,0,0,84,39.2l27.4,26.49-40.8,40.79L46.12,82.88A42.23,42.23,0,0,0,62,114.49a41.58,41.58,0,0,0,37.6,7.86l3.76-1,43.05,43.11a3.17,3.17,0,0,1-.52,4.9L129.45,180l-81.75,86a3.2,3.2,0,0,0-.87,2.39l.43,6.81a3.17,3.17,0,0,0,.93,2L66,295a3.13,3.13,0,0,0,2.14.92l7.09.24a3.21,3.21,0,0,0,2.35-.93l86.82-86.82,8.18-28.18-15.66-15.66a3.18,3.18,0,0,1,0-4.52L246.5,73l1.76-16.16A3.16,3.16,0,0,1,250,54.39l35.67-18.32a3.18,3.18,0,0,1,3.69.57L305.08,52.4a3.18,3.18,0,0,1,.59,3.67L288.62,89.9a3.15,3.15,0,0,1-1.87,1.6l-13.56,4.28-67.43,66.06,37.63,37.1a55.58,55.58,0,0,1,22.6-3c28.37,2,51.08,25.86,51.83,54.29a55.55,55.55,0,0,1-4.9,24.37l-2,4.55a3.17,3.17,0,0,1-5.06,1l-35.36-33-21.71,21.71,33.1,30.71a3.18,3.18,0,0,1-1.5,5.43l-6.72,1.43a55.88,55.88,0,0,1-67.07-62.72L180.91,218h0A13.48,13.48,0,0,1,200,218l21.2,21.2-.77,3.58a43,43,0,0,0-1,8.91,42.52,42.52,0,0,0,36.31,42l-24-22.29a3.17,3.17,0,0,1-.09-4.57L268,230.52a3.17,3.17,0,0,1,4.41-.07l31.23,29.17a42.42,42.42,0,0,0-38.43-50.25A42.14,42.14,0,0,0,244.56,213l-4.21,1.89L188.2,163.46a2.29,2.29,0,0,1,0-3.28L266.05,83.9l11.22-3.54a3.19,3.19,0,0,0,1.87-1.6l10.1-20.05a3.16,3.16,0,0,0-.59-3.67l-1.91-1.91a3.16,3.16,0,0,0-3.69-.58L262.58,63.06a3.16,3.16,0,0,0-1.7,2.48l-1.5,13.77-85.57,83.08L186.37,175a3.18,3.18,0,0,1,.8,3.13l-10.84,37.36-93.4,93.41A3.16,3.16,0,0,1,80.58,309.77Z"/></svg>