<?xml version="1.0" encoding="utf-8"?>
<!-- Generator: Adobe Illustrator 21.1.0, SVG Export Plug-In . SVG Version: 6.00 Build 0)  -->
<svg version="1.1" id="Layer_1" xmlns="http://www.w3.org/2000/svg" xmlns:xlink="http://www.w3.org/1999/xlink" x="0px" y="0px"
	 viewBox="0 0 350.9 344" style="enable-background:new 0 0 350.9 344;" xml:space="preserve">
<style type="text/css">
	.world-0{fill:#084473;}
	.world-1{fill:#984DA7;}
	.world-2{fill:#75CAF3;}
	.world-3{fill:#1C9BD8;}
	.world-4{fill:#0768B1;}
	.world-5{fill:#931F7F;}
</style>
<title>stats</title>
<circle class="world-0" cx="172.7" cy="171.8" r="164.9"/>
<path class="world-1" d="M250.1,145.9L250.1,145.9z"/>
<path class="world-2" d="M219,165.6c-2.6,4.5-6.8,7.7-11.8,9c-15.6,4.4-43.4-3.9-55.9-8.2c-6.3,7.6-16.5,17.7-25.9,17.7h-0.1
	c-4.4,0-8.5-2.1-11-5.6c-3.6-4.8-6.1-11.6-7.9-18.1c-2.3-8.5,2.7-17.2,11.2-19.5c0.8-0.2,1.7-0.4,2.5-0.5l0,0
	c0.7,6.9,3.1,19.1,6.7,25.7c3.6-2.2,10-8.7,14.6-15l3.9-5.3l6.1,2.3c14.2,5.4,40.6,12.8,51.1,9.9c1.1-0.3,1.3-0.7,1.4-0.9
	c2.2-3.9-1.1-15.6-2.7-21.2c-1.4-4.9-2.4-8.4-2.3-11.4C213.8,128.6,227.5,149.9,219,165.6z"/>
<path class="world-3" d="M121.8,84.1c43.4-25.2,99.9-15,131.2,25.7c2.8,3.6,3.3,8.6,1.1,12.6c-2.2,4.1-6.5,6.5-11.1,6.3
	c-13.4-0.7-21.6-0.3-26,0.3c0.2,0.8,0.4,1.6,0.6,2.2c2.9,10.2,7.2,24.4,1.1,34.3c-2.3-29.2-20.1-41.1-20.1-41.1
	c0-2.9,1.3-5.7,3.4-7.7c2.2-2.1,6.1-5.7,29.1-5.6c-14.9-14.4-34.5-22.7-55.2-23.5C158.2,84.7,140,83.5,121.8,84.1z"/>
<path class="world-4" d="M84.5,221.5C57.2,173.2,73.8,112,121.8,84.1c18.2-0.6,36.4,0.6,54.3,3.6c-41-1.7-77.3,26.4-85.7,66.6
	C83.5,186.2,82.2,202.5,84.5,221.5z"/>
<path class="world-5" d="M231.3,155.9c5.2-10.3,15.1-18.1,20.5-21.8c1.2-0.9,2.6-1.4,4-1.7c5.5-1,10.9,2.4,12.2,7.8
	c2.6,10.5,6.9,30,5.6,42.2c-5.9,55.7-55.7,96.1-111.4,90.2c-32.7-3.4-61.6-22.5-77.7-51.1c-11-20.3-6-50.4,6-67.2
	c-9.7,45.5,19.4,90.2,64.9,99.8s90.2-19.4,99.8-64.9c0.6-2.9,1.1-5.8,1.4-8.7c0.6-5.4-0.5-14.7-2.8-26L231.3,155.9z"/>
<path class="world-1" d="M253.7,154.6c-5.2,4.9-9.1,10.7-8.5,15.7c2.4,17.6,2.4,25.5,2.4,25.8v8.1l-8.1,0.4c-37.1,1.9-46,36-46.4,37.4
	l-1.5,6.1l-6.3,0.4c-3.3,0.2-32.3,1.5-49.2-8.9l-5.6-3.4l1.8-6.3c1.5-5.2,0.9-10.1-1.6-12.2c-1.3-1.1-3.4-1.6-5.9-1.4
	c-8.2,0.5-15.9-3.5-19.6-10.8l-0.4-0.7c20.2-10.1,31.8-4.5,36.9-0.3c6.3,5.2,9.3,13.6,8.5,22.9c8.6,3.1,20.4,4,28.2,4.1
	c6-15.8,21.9-38.1,51.6-43.1c-0.3-3.8-0.9-9-1.8-15.8c-0.7-5.8,0.4-11.6,3.1-16.8L253.7,154.6z"/>
</svg>
