<svg id="world" xmlns="http://www.w3.org/2000/svg" viewBox="0 0 153.84 155.99"><defs><style>.world-1{fill:#0067b1;}</style></defs><title>world</title><path class="world-1" d="M76.93,131.69a53.72,53.72,0,1,1,42.42-86.77,6.18,6.18,0,0,1,.61,6.7A6.32,6.32,0,0,1,114.12,55a81.75,81.75,0,0,0-13.76.25l.34,1.19c1.55,5.4,3.68,12.8.7,18.16a10.09,10.09,0,0,1-6.23,4.83c-8.26,2.36-23-2-29.62-4.2-3.31,4-8.65,9.39-13.65,9.42h-.06a7.17,7.17,0,0,1-5.85-3,29.73,29.73,0,0,1-4.22-9.55A8.42,8.42,0,0,1,49,61.52h0c.41,3.64,1.72,10.1,3.63,13.6,1.91-1.2,5.25-4.62,7.69-8l2-2.8,3.24,1.21c7.52,2.82,21.54,6.69,27.1,5.1.59-.17.69-.36.76-.48,1.14-2.05-.64-8.24-1.49-11.22a23.84,23.84,0,0,1-1.27-6.05,5.65,5.65,0,0,1,1.79-4.1c1.17-1.12,3.2-3.06,15.38-3.06a44.61,44.61,0,0,0-69.6,54.33,44.61,44.61,0,0,0,83.14-17.66c.28-2.84-.29-7.79-1.57-13.77-2.72,2.63-4.82,5.71-4.44,8.36a109.72,109.72,0,0,1,1.35,13.67V95l-4.31.24c-19.64,1.09-24.29,19.19-24.47,20l-.8,3.26-3.35.23c-1.73.11-17.09.89-26.09-4.56l-3-1.8,1-3.35c.79-2.77.44-5.37-.87-6.45a4.41,4.41,0,0,0-3.12-.73,10.72,10.72,0,0,1-10.43-5.67l-.2-.39c10.68-5.44,16.83-2.49,19.54-.25,3.34,2.75,5,7.18,4.55,12.1,4.58,1.64,10.81,2.06,15,2.07,3.14-8.39,11.47-20.26,27.22-23-.18-2-.48-4.75-1-8.35-1.4-9.8,8.19-17.6,12.4-20.51a5.36,5.36,0,0,1,2.11-.92A5.62,5.62,0,0,1,127.36,61c1.43,5.56,3.74,15.86,3.09,22.34a53.7,53.7,0,0,1-53.52,48.36Zm41.6-68.43h0Z"/></svg>