<?xml version="1.0" encoding="utf-8"?>
<!-- Generator: Adobe Illustrator 21.1.0, SVG Export Plug-In . SVG Version: 6.00 Build 0)  -->
<svg version="1.1" id="Layer_1" xmlns="http://www.w3.org/2000/svg" xmlns:xlink="http://www.w3.org/1999/xlink" x="0px" y="0px"
	 viewBox="0 0 350.9 344" style="enable-background:new 0 0 350.9 344;" xml:space="preserve">
<style type="text/css">
	.year-0{fill:#084473;}
	.year-1{fill:#75CAF3;}
	.year-2{fill:#1C9BD8;}
	.year-3{fill:#0768B1;}
	.year-4{fill:#931F7F;}
	.year-5{fill:#984DA7;}
</style>
<title>stats</title>
<circle class="year-0" cx="174.8" cy="171.8" r="164.9"/>
<path class="year-1" d="M145.3,74.2c10.2-3.2,20.8-4.8,31.5-4.8h6.7v98l26.3,25.1c6.9,6.6,7.2,17.6,0.6,24.6l0,0l-44.2-42.3V87.3
	L145.3,74.2z"/>
<path class="year-2" d="M108.1,119.2c14.2-18.1,35.2-29.6,58.1-32l-20.8-13c-41.2,12.9-72,50.5-72.8,95.6
	C80.9,155.6,93.4,138.1,108.1,119.2z"/>
<path class="year-3" d="M222.3,262.4c-16.3,8.3-26.6,10.7-41.3,11.6c-56.5,3.4-105-39.7-108.3-96.2c-0.2-2.6-0.2-5.3-0.2-7.9
	c6.7-25.1,17.1-35.6,35.6-50.6c-29,36.8-22.7,90.2,14.1,119.3c7,5.5,14.8,9.9,23.1,13C145.3,251.5,163.6,261.6,222.3,262.4z"/>
<path class="year-4" d="M255.6,198.1c-12.1,37.2-48.1,61.3-87.1,58.4c-8-0.6-15.8-2.3-23.3-5.1c10.7,11.7,48.2,19.2,77.1,10.9
	c49.9-26.1,69.3-87.7,43.4-137.7C266.1,150.6,261.1,178.1,255.6,198.1z"/>
<path class="year-5" d="M255.6,198.1c12.6-38.7-4-80.8-39.5-100.6c-7.9-4.2-11.5-13.5-8.8-21.9l0.2-0.7c25.1,8.5,45.9,26.3,58.1,49.9
	C276.1,145.6,273.6,178.1,255.6,198.1z"/>
</svg>
