<svg version="1.1"  class="svg youtube" xmlns="http://www.w3.org/2000/svg" xmlns:xlink="http://www.w3.org/1999/xlink" x="0px" y="0px"
	 viewBox="0 0 512 512" style="enable-background:new 0 0 512 512;" xml:space="preserve">
<g>
	<path id="YT__x28_alt_x29_" class="st1" d="M345.7,257l-132.7,86.9c-1.6,1.1-3.4,1.6-5.3,1.6c-1.6,0-3.2-0.4-4.7-1.2c-3.1-1.8-5.1-5.1-5.1-8.8V161.7
		c0-3.6,2-7.1,5.1-8.8c3.2-1.8,7-1.6,10,0.3l132.7,86.9c2.8,1.8,4.5,5,4.5,8.4C350.3,252,348.6,255.2,345.7,257 M414.8,85.9h-316
		c-42.5,0-77.2,35.5-77.2,79v183c0,43.6,34.7,79,77.2,79h316c42.5,0,77.2-35.4,77.2-79v-183C492,121.4,457.3,85.9,414.8,85.9"/>
</g>
</svg>
