<svg xmlns="http://www.w3.org/2000/svg" viewBox="0 0 122.66 88.31"><defs><style>.cls-1{fill:#009ee2;}</style></defs><title>shaking-hands</title><g id="Layer_2" data-name="Layer 2"><g id="Layer_1-2" data-name="Layer 1"><path class="cls-1" d="M64.67,69.54c7.59-3.28,11.91-11,14.33-18.1a63.49,63.49,0,0,0,2.89-12.78C82,38,82,37.61,82,37.49h0c.44-1.63,2.33-2.53,3.93-3l5-.9c1.84,2,5.43,3.21,9.91,3.22a15.8,15.8,0,0,0,2.66-.22,2.83,2.83,0,0,0,2-1.42,3.19,3.19,0,0,0,.2-2.74l-.06-.15-.15.06a11.38,11.38,0,0,1-4.64.92c-4.32,0-7.17-1.5-7.81-2.55l-.59-1L85.27,31l-.15,0c-4.22,1.22-6.55,3.75-6.57,7.13v.09C78,42.89,75,61.75,63,66.54a8,8,0,0,0-1.73.49A7.79,7.79,0,0,1,64.67,69.54Z"/><path class="cls-1" d="M116.14,31.06l-5-.87a.23.23,0,0,1-.19-.23l.13-5.26.06-.15a15.33,15.33,0,0,0,3.4-11.09c-.59-7.24-6.17-13-13-13.42a13.21,13.21,0,0,0-10,3.67,15.44,15.44,0,0,0-.25,21.92,13.28,13.28,0,0,0,9.38,3.93h.11A10.4,10.4,0,0,0,106,28.17l.27-.16.18-.07-.11-.16c-1.15-1.64-2.4-2.29-3.81-2a8.09,8.09,0,0,1-1.78.2,10.1,10.1,0,0,1-7.13-3,11.75,11.75,0,0,1,.15-16.63,10,10,0,0,1,7.48-2.83c5.46.27,9.85,5.06,10,10.9a11.57,11.57,0,0,1-3,8.2L108,23a.56.56,0,0,0-.15.37l-.22,9.32a.54.54,0,0,0,.44.55l7.22,1.25c3.38,1.13,4.07,2.31,4.07,3.75l-2,44.43c-12.72,2.83-21.69,2.83-34.41,0L82.85,65l-.19-5.07a.54.54,0,0,0-1-.17,23.51,23.51,0,0,1-2.18,4.38,22.35,22.35,0,0,1-13.63,9.57c-.3,1.61-1.55,3.2-4.24,3.78a11.49,11.49,0,0,0,1.81.14h.12A26.33,26.33,0,0,0,74,74a25.11,25.11,0,0,0,5.61-4.58l-.1,15.08a1.17,1.17,0,0,0,.87,1.2l.45.11a79.59,79.59,0,0,0,19.76,2.52c7.09,0,11.81-.85,18.83-2.52l.45-.11a1.17,1.17,0,0,0,.87-1.2l1.91-46.31C122.63,33.19,117.92,31.64,116.14,31.06Z"/><path class="cls-1" d="M64.67,69.54A7.79,7.79,0,0,0,61.23,67a8,8,0,0,0-1.52-.41c-12.11-4.83-15.07-24-15.59-28.4v-.06c0-3.37-2.35-5.91-6.57-7.13l-.15,0-7.13-1.27-.59,1c-.64,1.06-3.49,2.55-7.81,2.55a11.38,11.38,0,0,1-4.64-.92l-.15-.06-.06.15a3.19,3.19,0,0,0,.2,2.74,2.83,2.83,0,0,0,2,1.42,15.8,15.8,0,0,0,2.66.22c4.47,0,8.07-1.18,9.91-3.22l5,.9c1.63.48,3.55,1.41,3.95,3.09h0c0,.11,0,.49.11,1.06a63.5,63.5,0,0,0,2.88,12.84c2.41,7.05,6.71,14.8,14.25,18.11.26.12.52.24.79.34l.37.09a4.65,4.65,0,0,1,2.22.92,2.73,2.73,0,0,1,1.24,2c0,.41-.42.74-1.06,1a6.67,6.67,0,0,1-2.11.31,18.49,18.49,0,0,1-2.46-.44,22.36,22.36,0,0,1-13.68-9.6A23.54,23.54,0,0,1,41,59.79.54.54,0,0,0,40,60L39.81,65l-.08,17.6C27,85.48,18,85.48,5.32,82.65l-2-44.43c0-1.43.69-2.62,4.07-3.75l7.22-1.25a.54.54,0,0,0,.44-.55l-.22-9.32a.56.56,0,0,0-.15-.37l-.32-.34a11.57,11.57,0,0,1-3-8.2c.15-5.84,4.54-10.63,10-10.9a10,10,0,0,1,7.48,2.83A11.75,11.75,0,0,1,29,23a10.1,10.1,0,0,1-7.13,3,8.09,8.09,0,0,1-1.78-.2c-1.41-.31-2.65.33-3.81,2l-.11.16.18.07.27.16a10.4,10.4,0,0,0,5.15,1.37h.11a13.28,13.28,0,0,0,9.38-3.93A15.44,15.44,0,0,0,31,3.7,13.21,13.21,0,0,0,21,0c-6.81.42-12.38,6.19-13,13.42a15.33,15.33,0,0,0,3.4,11.09l.06.15.13,5.26a.23.23,0,0,1-.19.23l-5,.87C4.74,31.64,0,33.19,0,38.17L1.91,84.48a1.17,1.17,0,0,0,.87,1.2l.45.11c7,1.67,11.74,2.52,18.83,2.52a79.6,79.6,0,0,0,19.76-2.52l.45-.11a1.17,1.17,0,0,0,.87-1.2l-.11-15a27.16,27.16,0,0,0,16.13,8.25h.12a11,11,0,0,0,2.29-.22c2.69-.57,3.94-2.16,4.24-3.78a4.32,4.32,0,0,0,.07-.51A5.45,5.45,0,0,0,64.67,69.54Z"/></g></g></svg>