<svg xmlns="http://www.w3.org/2000/svg" xmlns:xlink="http://www.w3.org/1999/xlink" viewBox="0 0 93.33 77.79"><defs><style>.cls-1{fill:url(#linear-gradient);}.cls-2{fill:url(#New_Gradient_Swatch_copy);}.cls-3{fill:url(#New_Gradient_Swatch_copy-2);}.cls-4{fill:url(#New_Gradient_Swatch_copy-3);}</style><linearGradient id="linear-gradient" x1="10.68" y1="71.21" x2="77.02" y2="4.86" gradientUnits="userSpaceOnUse"><stop offset="0" stop-color="#1c9bd8"/><stop offset="0.48" stop-color="#0c65af"/><stop offset="1" stop-color="#423e92"/></linearGradient><linearGradient id="New_Gradient_Swatch_copy" x1="47.84" x2="47.84" y2="14.88" gradientUnits="userSpaceOnUse"><stop offset="0" stop-color="#f6a734"/><stop offset="1" stop-color="#e73a2f"/></linearGradient><linearGradient id="New_Gradient_Swatch_copy-2" x1="58.32" y1="0" x2="58.32" y2="14.88" xlink:href="#New_Gradient_Swatch_copy"/><linearGradient id="New_Gradient_Swatch_copy-3" x1="37.57" y1="0" x2="37.57" y2="14.88" xlink:href="#New_Gradient_Swatch_copy"/></defs><title>activity_provider_2</title><g id="Layer_2" data-name="Layer 2"><g id="Layer_1-2" data-name="Layer 1"><path class="cls-1" d="M29.38,77.79c-.91,0-1.82,0-2.74-.12A29.51,29.51,0,0,1,.06,50.28,29.16,29.16,0,0,1,8,28.29,29.49,29.49,0,0,1,29.39,19H42.33A3.67,3.67,0,0,1,46,22.69v2.43h4.68V22.69A3.67,3.67,0,0,1,54.35,19H89.66a3.67,3.67,0,0,1,3.28,5.31l-10.06,20a3.67,3.67,0,0,1-2.67,2l-21.53,4c0,.86-.1,1.53-.17,2A29.31,29.31,0,0,1,29.38,77.79Zm0-54.29A24.91,24.91,0,0,0,4.53,50a24.91,24.91,0,0,0,49.54,1.72c.06-.45.13-1.26.18-2.28A3.67,3.67,0,0,1,57.31,46l21.75-4L88.35,23.5H55.16v2.43a3.67,3.67,0,0,1-3.67,3.66H45.18a3.66,3.66,0,0,1-3.66-3.66V23.5ZM58.1,50.42h0Zm21.34-8.48h0ZM89.66,23.5h0ZM29.78,65.39a17,17,0,1,1,17-17A17,17,0,0,1,29.78,65.39Zm0-29.48a12.5,12.5,0,1,0,12.5,12.5A12.52,12.52,0,0,0,29.78,35.91Z"/><path class="cls-2" d="M47.84,14.88a2.24,2.24,0,0,1-2.24-2.24V2.24a2.24,2.24,0,1,1,4.48,0v10.4A2.24,2.24,0,0,1,47.84,14.88Z"/><path class="cls-3" d="M55.45,14.88a2.24,2.24,0,0,1-2-3.32l5.73-10.4a2.24,2.24,0,0,1,3.92,2.16l-5.72,10.4A2.25,2.25,0,0,1,55.45,14.88Z"/><path class="cls-4" d="M40.44,14.88a2.25,2.25,0,0,1-2-1.16L32.75,3.32a2.24,2.24,0,0,1,3.92-2.16l5.73,10.4a2.24,2.24,0,0,1-2,3.32Z"/></g></g></svg>