<svg xmlns="http://www.w3.org/2000/svg" xmlns:xlink="http://www.w3.org/1999/xlink" viewBox="0 0 44.61 63.8"><defs><style>.cls-1{fill:url(#linear-gradient);}.cls-2{fill:none;stroke-linecap:round;stroke-miterlimit:10;stroke-width:4.48px;stroke:url(#linear-gradient-2);}</style><linearGradient id="linear-gradient" x1="22.31" x2="22.31" y2="14.94" gradientUnits="userSpaceOnUse"><stop offset="0" stop-color="#f6a734"/><stop offset="0.18" stop-color="#f49933"/><stop offset="0.53" stop-color="#ef7532"/><stop offset="1" stop-color="#e73a2f"/></linearGradient><linearGradient id="linear-gradient-2" x1="5.15" y1="54.1" x2="39.52" y2="19.74" gradientUnits="userSpaceOnUse"><stop offset="0" stop-color="#1c9bd8"/><stop offset="0.48" stop-color="#0c65af"/><stop offset="1" stop-color="#423e92"/></linearGradient></defs><title>child</title><g id="Layer_2" data-name="Layer 2"><g id="Layer_1-2" data-name="Layer 1"><circle class="cls-1" cx="22.31" cy="7.47" r="7.47"/><path class="cls-2" d="M41.3,24.72,32.08,19a8.65,8.65,0,0,0-4.56-1.3c-2.87,0-7.64,0-10.9,0a8.72,8.72,0,0,0-4.68,1.37L3.59,24.43a3.23,3.23,0,0,0-.87,4.32h0c.87,1.44,2.59,2.66,4,1.51l6.83-4a.05.05,0,0,1,.08,0v18h0V58.61c0,1.58,2.24,2.93,3.82,3,1.76,0,4.94-1.13,4.94-2.87V44.35a.06.06,0,0,1,.06-.06h-.2a.06.06,0,0,1,.06.06V58.61c0,1.58,3.08,2.93,4.66,3,1.76,0,3.93-1.13,3.93-2.87V44.29h0v-18a.06.06,0,0,1,.09,0l6.82,4.27c1.44.86,3.17-.36,4-1.51h0C42.74,27.31,42.45,25.58,41.3,24.72Z"/></g></g></svg>