<svg xmlns="http://www.w3.org/2000/svg" xmlns:xlink="http://www.w3.org/1999/xlink" viewBox="0 0 91.5 88.61"><defs><style>.cls-1{fill:url(#linear-gradient);}.cls-2{fill:url(#linear-gradient-2);}.cls-3{fill:url(#linear-gradient-3);}.cls-4{fill:url(#linear-gradient-4);}</style><linearGradient id="linear-gradient" x1="45.05" y1="8" x2="45.05" y2="25.1" gradientUnits="userSpaceOnUse"><stop offset="0" stop-color="#f6a734"/><stop offset="0.18" stop-color="#f49933"/><stop offset="0.53" stop-color="#ef7532"/><stop offset="1" stop-color="#e73a2f"/></linearGradient><linearGradient id="linear-gradient-2" x1="18.52" y1="0" x2="18.52" y2="17.1" xlink:href="#linear-gradient"/><linearGradient id="linear-gradient-3" x1="72.52" y1="0" x2="72.52" y2="17.1" xlink:href="#linear-gradient"/><linearGradient id="linear-gradient-4" x1="11.19" y1="80.91" x2="80.31" y2="11.79" gradientUnits="userSpaceOnUse"><stop offset="0" stop-color="#1c9bd8"/><stop offset="0.48" stop-color="#0c65af"/><stop offset="1" stop-color="#423e92"/></linearGradient></defs><title>community</title><g id="Layer_2" data-name="Layer 2"><g id="Layer_1-2" data-name="Layer 1"><circle class="cls-1" cx="45.05" cy="16.55" r="8.55"/><circle class="cls-2" cx="18.52" cy="8.55" r="8.55"/><circle class="cls-3" cx="72.52" cy="8.55" r="8.55"/><path class="cls-4" d="M82.85,17.91H62.65a8.64,8.64,0,0,0-8.61,8H37.47a8.66,8.66,0,0,0-8.62-8H8.65A8.66,8.66,0,0,0,0,26.56v14.7A9.08,9.08,0,0,0,6.7,50v23.5a7.16,7.16,0,0,0,7.15,7.15,7.46,7.46,0,0,0,4.89-1.9,6.94,6.94,0,0,0,4.91,1.9,7.16,7.16,0,0,0,7.15-7.15V55A9,9,0,0,0,33.23,56V81.46a7.16,7.16,0,0,0,7.15,7.15,7.48,7.48,0,0,0,4.89-1.9,6.94,6.94,0,0,0,4.91,1.9,7.16,7.16,0,0,0,7.15-7.15V56.1a8.81,8.81,0,0,0,3.37-1.74v19.1a7.16,7.16,0,0,0,7.15,7.15,7.46,7.46,0,0,0,4.89-1.9,7,7,0,0,0,4.91,1.9,7.15,7.15,0,0,0,7.15-7.15V50.06a9.06,9.06,0,0,0,6.7-8.7V26.56A8.66,8.66,0,0,0,82.85,17.91ZM26.2,73.56a2.65,2.65,0,0,1-5.3,0V52.06a2.25,2.25,0,0,0-4.5,0v21.4a2.65,2.65,0,1,1-5.3,0V29.26a2.25,2.25,0,0,0-4.5,0v16a4.54,4.54,0,0,1-2.2-3.88V26.56a4.2,4.2,0,0,1,4.15-4.15H29a4.2,4.2,0,0,1,4.11,3.77A8.79,8.79,0,0,0,30,27.64a2.25,2.25,0,0,0-3.81,1.62Zm31-22.36V37.26a2.25,2.25,0,0,0-4.5,0v44.3a2.65,2.65,0,0,1-5.3,0V60.06a2.25,2.25,0,0,0-4.5,0v21.4a2.65,2.65,0,1,1-5.3,0V37.26a2.25,2.25,0,0,0-4.5,0v14a4.54,4.54,0,0,1-2.2-3.88V34.56A4.19,4.19,0,0,1,33.1,31h0a4.46,4.46,0,0,1,.74-.32l.27-.09.28-.06a3.94,3.94,0,0,1,.69-.07h20.4a3.68,3.68,0,0,1,.82.09h0a4.2,4.2,0,0,1,2.06,1.14h0a4.12,4.12,0,0,1,1.23,2.91V47.29A4.68,4.68,0,0,1,57.23,51.2Zm29.87-10a4.66,4.66,0,0,1-2.4,3.91V29.26a2.25,2.25,0,0,0-4.5,0v44.3a2.65,2.65,0,0,1-5.3,0V52.06a2.25,2.25,0,0,0-4.5,0v21.4a2.65,2.65,0,0,1-5.3,0V29.26A2.25,2.25,0,0,0,61,28a8.6,8.6,0,0,0-2.58-1.53,4.2,4.2,0,0,1,4.14-4.06H83a4.2,4.2,0,0,1,4.15,4.15Z"/></g></g></svg>