<svg id="Layer_1" data-name="Layer 1" xmlns="http://www.w3.org/2000/svg" xmlns:xlink="http://www.w3.org/1999/xlink" viewBox="0 0 113.39 113.39"><defs><style>.cls-1{fill:url(#linear-gradient);}.cls-2{fill:url(#linear-gradient-2);}</style><linearGradient id="linear-gradient" x1="11.69" y1="56.69" x2="101.69" y2="56.69" gradientUnits="userSpaceOnUse"><stop offset="0" stop-color="#1d9ad7"/><stop offset="0.48" stop-color="#1366af"/><stop offset="1" stop-color="#423f92"/></linearGradient><linearGradient id="linear-gradient-2" x1="21.08" y1="61.5" x2="92.31" y2="61.5" gradientUnits="userSpaceOnUse"><stop offset="0" stop-color="#f7a834"/><stop offset="0.18" stop-color="#f59a33"/><stop offset="0.53" stop-color="#f07632"/><stop offset="0.99" stop-color="#e73b30"/><stop offset="1" stop-color="#e73a30"/></linearGradient></defs><title>Artboard 14 copy</title><path class="cls-1" d="M96.74,19.86H16.65a5,5,0,0,0-5,5V88.57a5,5,0,0,0,5,5H96.74a5,5,0,0,0,5-5V24.82A5,5,0,0,0,96.74,19.86ZM16.65,24.34H96.74a.48.48,0,0,1,.48.48v6.42h-81V24.82A.48.48,0,0,1,16.65,24.34ZM96.74,89H16.65a.48.48,0,0,1-.48-.48V35.72h81V88.57A.48.48,0,0,1,96.74,89Z"/><path class="cls-2" d="M22.36,49.34a.45.45,0,0,1-.25.18.45.45,0,0,1,.25.18.72.72,0,0,1,.08.39v.82a.38.38,0,0,0,.09.28.37.37,0,0,0,.27.1h.09v.62h-.3a1,1,0,0,1-.71-.23.89.89,0,0,1-.24-.69V50.1a.25.25,0,0,0-.06-.17.21.21,0,0,0-.16-.06h-.16v-.62h.16a.21.21,0,0,0,.16-.06.25.25,0,0,0,.06-.18V48.1a.89.89,0,0,1,.24-.67,1,1,0,0,1,.71-.23h.3v.62h-.09a.37.37,0,0,0-.27.1.38.38,0,0,0-.09.28V49A.72.72,0,0,1,22.36,49.34Zm2.55.91a.5.5,0,0,1-.32.1.33.33,0,0,1-.25-.09.37.37,0,0,1-.09-.26V48.89h.67v-.61h-.67v-.66h-.82v.66H23v.61h.42V50a1,1,0,0,0,.26.72,1.05,1.05,0,0,0,.75.25,1.43,1.43,0,0,0,.35,0,.82.82,0,0,0,.29-.13Zm1-2.42a.49.49,0,0,0,.35-.13.43.43,0,0,0,.14-.33.39.39,0,0,0-.14-.3.51.51,0,0,0-.35-.12.5.5,0,0,0-.35.12l0,0a.43.43,0,0,0,0,.6A.5.5,0,0,0,25.92,47.84Zm-.35,3.08h.82V48.2h-.82Zm3.05-.66a.5.5,0,0,1-.32.1.33.33,0,0,1-.25-.09A.37.37,0,0,1,28,50V48.89h.67v-.61H28v-.66h-.82v.66h-.42v.61h.42V50a1,1,0,0,0,.26.72,1.05,1.05,0,0,0,.75.25,1.43,1.43,0,0,0,.35,0,.82.82,0,0,0,.29-.13Zm.62.69h.82V47.2h-.82Zm4.17-1.35a1.46,1.46,0,0,0-.18-.74,1.25,1.25,0,0,0-.51-.49,1.6,1.6,0,0,0-1.46,0,1.32,1.32,0,0,0-.52.5,1.38,1.38,0,0,0-.19.72,1.36,1.36,0,0,0,.19.72,1.31,1.31,0,0,0,.54.49,1.77,1.77,0,0,0,.82.18,1.41,1.41,0,0,0,1.12-.45l-.42-.45a.91.91,0,0,1-.3.2,1,1,0,0,1-.38.07.86.86,0,0,1-.51-.15.64.64,0,0,1-.26-.39h2C33.4,49.67,33.41,49.6,33.41,49.6ZM32,48.77a.67.67,0,0,1,.44.16.65.65,0,0,1,.22.41H31.3a.64.64,0,0,1,.22-.41A.67.67,0,0,1,32,48.77Zm2.61.25a.48.48,0,0,0,.14-.35.46.46,0,0,0-.14-.35.52.52,0,0,0-.7,0,.46.46,0,0,0-.14.35.48.48,0,0,0,.14.35A.5.5,0,0,0,34.57,49Zm0,1.81a.48.48,0,0,0,.14-.35.46.46,0,0,0-.14-.35.52.52,0,0,0-.7,0,.46.46,0,0,0-.14.35.48.48,0,0,0,.14.35A.5.5,0,0,0,34.57,50.84ZM35.73,48l.22-.82h-.5l-.3.72a2.26,2.26,0,0,0-.11.3.82.82,0,0,0,0,.2.47.47,0,0,0,.14.35.52.52,0,0,0,.7,0,.47.47,0,0,0,.14-.35.48.48,0,0,0-.07-.26A.44.44,0,0,0,35.73,48Zm1.19,0,.22-.82h-.5l-.3.72a2.25,2.25,0,0,0-.11.3.82.82,0,0,0,0,.2.47.47,0,0,0,.14.35.52.52,0,0,0,.7,0,.47.47,0,0,0,.14-.35.48.48,0,0,0-.07-.26A.44.44,0,0,0,36.92,48Zm2.92.22-.76,1.84-.76-1.84H37.5L38.68,51h0a.67.67,0,0,1-.22.25.42.42,0,0,1-.26.08.65.65,0,0,1-.24,0,.67.67,0,0,1-.21-.12l-.29.56a.92.92,0,0,0,.34.18,1.38,1.38,0,0,0,.42.07,1.13,1.13,0,0,0,.67-.19,1.41,1.41,0,0,0,.46-.66l1.23-2.88Zm3.08,2.54a1.33,1.33,0,0,0,.53-.49,1.45,1.45,0,0,0,0-1.44,1.33,1.33,0,0,0-.53-.49,1.73,1.73,0,0,0-1.54,0,1.33,1.33,0,0,0-.53.49,1.45,1.45,0,0,0,0,1.44,1.32,1.32,0,0,0,.53.49A1.73,1.73,0,0,0,42.93,50.8Zm-.78-.43a.67.67,0,0,1-.5-.21.82.82,0,0,1,0-1.09.67.67,0,0,1,.5-.21.66.66,0,0,1,.49.21.86.86,0,0,1,0,1.09A.66.66,0,0,1,42.15,50.37Zm4.09-2.15v.35a1.08,1.08,0,0,0-.9-.39,1.44,1.44,0,0,0-.68.16,1.25,1.25,0,0,0-.49.46,1.39,1.39,0,0,0,0,1.37,1.25,1.25,0,0,0,.49.46,1.44,1.44,0,0,0,.68.16,1.1,1.1,0,0,0,.82-.34v.12a.73.73,0,0,1-.2.56.82.82,0,0,1-.6.18,1.72,1.72,0,0,1-.53-.08,1.28,1.28,0,0,1-.44-.22l-.31.57a1.64,1.64,0,0,0,.58.28,2.84,2.84,0,0,0,.75.1,1.64,1.64,0,0,0,1.13-.36,1.45,1.45,0,0,0,.39-1.11V48.23ZM46,50a.72.72,0,0,1-.47.19.73.73,0,0,1-.55-.18h0a.67.67,0,0,1,0-1,.73.73,0,0,1,.51-.18A.72.72,0,0,1,46,49a.68.68,0,0,1,0,1Zm2.81-1.78a2.38,2.38,0,0,0-.64.08,1.7,1.7,0,0,0-.53.24l.28.53a1.13,1.13,0,0,1,.35-.18,1.37,1.37,0,0,1,.43-.07.69.69,0,0,1,.47.14.5.5,0,0,1,.16.39h-.62a1.45,1.45,0,0,0-.88.25.71.71,0,0,0-.29.59.76.76,0,0,0,.12.42.82.82,0,0,0,.35.3,1.28,1.28,0,0,0,.54.11.88.88,0,0,0,.82-.38V51h.73V49.42a1.15,1.15,0,0,0-.34-.9A1.41,1.41,0,0,0,48.78,48.2Zm.29,2.15a.68.68,0,0,1-.32.13.53.53,0,0,1-.33-.09.28.28,0,0,1-.12-.24q0-.32.49-.32h.5v.28a.51.51,0,0,1-.22.27Zm4.46.63a1.49,1.49,0,0,0,.75-.18,1.09,1.09,0,0,0,.47-.5L54.13,50a.66.66,0,0,1-.61.37.69.69,0,0,1-.51-.21A.82.82,0,0,1,53,49a.69.69,0,0,1,.51-.2.67.67,0,0,1,.61.37l.61-.33a1.06,1.06,0,0,0-.47-.51,1.51,1.51,0,0,0-.75-.18,1.64,1.64,0,0,0-.78.18,1.34,1.34,0,0,0-.54.49,1.44,1.44,0,0,0,0,1.44,1.34,1.34,0,0,0,.54.49A1.64,1.64,0,0,0,53.52,51Zm1.64,0H56V47.2h-.82Zm2.61-2.75a2.38,2.38,0,0,0-.64.08,1.7,1.7,0,0,0-.53.24l.28.53a1.13,1.13,0,0,1,.35-.18,1.37,1.37,0,0,1,.43-.07.69.69,0,0,1,.47.14.5.5,0,0,1,.16.39h-.62a1.45,1.45,0,0,0-.87.25.71.71,0,0,0-.29.59.76.76,0,0,0,.12.42.82.82,0,0,0,.35.3,1.28,1.28,0,0,0,.54.11.88.88,0,0,0,.82-.38V51h.73V49.42a1.15,1.15,0,0,0-.34-.9A1.41,1.41,0,0,0,57.78,48.2Zm.29,2.15a.68.68,0,0,1-.35.13.53.53,0,0,1-.33-.09.28.28,0,0,1-.12-.24q0-.32.49-.32h.54v.28a.51.51,0,0,1-.22.27Zm2.64.64a2,2,0,0,0,.69-.11,1,1,0,0,0,.44-.3.72.72,0,0,0,.15-.45.65.65,0,0,0-.16-.46.82.82,0,0,0-.37-.23,4.63,4.63,0,0,0-.54-.12,2.38,2.38,0,0,1-.44-.1.18.18,0,0,1-.14-.17.21.21,0,0,1,.12-.18.82.82,0,0,1,.38-.07,1.56,1.56,0,0,1,.78.2l.26-.56a1.64,1.64,0,0,0-.47-.17,2.65,2.65,0,0,0-.58-.07,1.85,1.85,0,0,0-.67.11,1,1,0,0,0-.44.31.74.74,0,0,0-.15.45.66.66,0,0,0,.16.48.82.82,0,0,0,.38.23,4,4,0,0,0,.55.12,2,2,0,0,1,.42.08.17.17,0,0,1,.14.16q0,.25-.5.25a1.83,1.83,0,0,1-.5-.07,1.64,1.64,0,0,1-.44-.19l-.26.57a1.72,1.72,0,0,0,.51.21A2.63,2.63,0,0,0,60.71,51Zm2.66,0a2,2,0,0,0,.69-.11,1,1,0,0,0,.44-.3.72.72,0,0,0,.15-.45.65.65,0,0,0-.16-.46.82.82,0,0,0-.37-.23,4.63,4.63,0,0,0-.54-.12,2.38,2.38,0,0,1-.43-.12.18.18,0,0,1-.14-.17.21.21,0,0,1,.12-.18.82.82,0,0,1,.38-.07,1.56,1.56,0,0,1,.78.2l.26-.56a1.64,1.64,0,0,0-.47-.17,2.65,2.65,0,0,0-.58-.07,1.85,1.85,0,0,0-.67.11,1,1,0,0,0-.44.31.74.74,0,0,0-.15.45.66.66,0,0,0,.16.48.82.82,0,0,0,.38.23,4,4,0,0,0,.55.12,2,2,0,0,1,.42.08.17.17,0,0,1,.14.16q0,.25-.5.25a1.83,1.83,0,0,1-.5-.07,1.64,1.64,0,0,1-.44-.19l-.26.57a1.72,1.72,0,0,0,.51.21A2.63,2.63,0,0,0,63.37,51Zm2.08-3.86a.49.49,0,0,0-.35.13.47.47,0,0,0-.14.35.49.49,0,0,0,.07.26.44.44,0,0,0,.2.16l-.21.82h.5l.3-.72a2.65,2.65,0,0,0,.11-.3.82.82,0,0,0,0-.21.47.47,0,0,0-.14-.35A.48.48,0,0,0,65.45,47.15Zm1.19,0a.49.49,0,0,0-.35.13.46.46,0,0,0-.14.35.49.49,0,0,0,.07.26.43.43,0,0,0,.2.16l-.21.82h.5l.3-.72a2.63,2.63,0,0,0,.11-.3.82.82,0,0,0,0-.21.47.47,0,0,0-.14-.35A.48.48,0,0,0,66.65,47.15ZM67.88,50a.49.49,0,0,0-.35.13.46.46,0,0,0-.14.35.48.48,0,0,0,.07.26.42.42,0,0,0,.2.16l-.22.82h.5l.29-.72a2.3,2.3,0,0,0,.11-.3.82.82,0,0,0,0-.2.47.47,0,0,0-.14-.35A.48.48,0,0,0,67.88,50ZM23.37,53.26v1.32a1,1,0,0,0-.82-.33,1.41,1.41,0,0,0-.69.17,1.23,1.23,0,0,0-.49.49,1.64,1.64,0,0,0,0,1.47,1.23,1.23,0,0,0,.49.49,1.41,1.41,0,0,0,.69.17,1,1,0,0,0,.82-.35V57h.75V53.25Zm-1.22,2.92a.82.82,0,0,1,0-1.09.71.71,0,0,1,1,0,.82.82,0,0,1,0,1.09A.71.71,0,0,1,22.16,56.17Zm5.34-.54a1.46,1.46,0,0,0-.18-.74,1.25,1.25,0,0,0-.51-.49,1.6,1.6,0,0,0-1.46,0,1.32,1.32,0,0,0-.52.5,1.38,1.38,0,0,0-.19.72,1.36,1.36,0,0,0,.19.72,1.31,1.31,0,0,0,.54.49,1.77,1.77,0,0,0,.82.18,1.41,1.41,0,0,0,1.12-.44l-.42-.45a.91.91,0,0,1-.3.2,1,1,0,0,1-.38.06.86.86,0,0,1-.51-.15.64.64,0,0,1-.26-.39h2.06C27.5,55.71,27.5,55.63,27.5,55.63Zm-1.41-.81a.67.67,0,0,1,.44.16.65.65,0,0,1,.22.41H25.43a.64.64,0,0,1,.22-.41A.67.67,0,0,1,26.1,54.82ZM28.95,57a2,2,0,0,0,.69-.11,1,1,0,0,0,.44-.3.72.72,0,0,0,.15-.45.65.65,0,0,0-.16-.46.82.82,0,0,0-.37-.23,4.63,4.63,0,0,0-.54-.12,2.38,2.38,0,0,1-.44-.1.18.18,0,0,1-.14-.17.21.21,0,0,1,.12-.18.82.82,0,0,1,.38-.07,1.56,1.56,0,0,1,.78.2l.26-.56a1.64,1.64,0,0,0-.47-.17,2.65,2.65,0,0,0-.58-.07,1.85,1.85,0,0,0-.67.11,1,1,0,0,0-.44.31.74.74,0,0,0-.15.45.66.66,0,0,0,.16.48.82.82,0,0,0,.38.23,4,4,0,0,0,.55.12,2,2,0,0,1,.42.08.17.17,0,0,1,.14.16q0,.25-.5.25a1.83,1.83,0,0,1-.5-.07,1.64,1.64,0,0,1-.44-.19l-.26.57a1.72,1.72,0,0,0,.51.21A2.63,2.63,0,0,0,28.95,57ZM32,57a1.49,1.49,0,0,0,.75-.18,1.09,1.09,0,0,0,.47-.5L32.64,56a.66.66,0,0,1-.61.37.69.69,0,0,1-.51-.21.82.82,0,0,1,0-1.1.69.69,0,0,1,.49-.21.67.67,0,0,1,.61.37l.61-.33a1.06,1.06,0,0,0-.47-.51,1.51,1.51,0,0,0-.75-.18,1.64,1.64,0,0,0-.78.18,1.34,1.34,0,0,0-.54.49,1.44,1.44,0,0,0,0,1.44,1.34,1.34,0,0,0,.54.49A1.64,1.64,0,0,0,32,57Zm2.37-2.42v-.35h-.75V57h.82V55.71a.76.76,0,0,1,.19-.57.72.72,0,0,1,.53-.19h.17v-.72a1.41,1.41,0,0,0-.55.1A.88.88,0,0,0,34.4,54.63Zm1.83-.72a.49.49,0,0,0,.35-.13.43.43,0,0,0,.14-.33.39.39,0,0,0-.14-.3.51.51,0,0,0-.35-.12.5.5,0,0,0-.35.12l0,0a.43.43,0,0,0,0,.6A.5.5,0,0,0,36.23,53.91ZM35.87,57h.82V54.27h-.82Zm3.05-2.75a1,1,0,0,0-.82.35v-.31h-.8V58h.82V56.68a1,1,0,0,0,.82.33,1.38,1.38,0,0,0,.69-.17,1.25,1.25,0,0,0,.49-.49,1.64,1.64,0,0,0,0-1.46,1.25,1.25,0,0,0-.49-.49A1.38,1.38,0,0,0,38.92,54.23Zm-.61,1.94a.86.86,0,0,1,0-1.09.71.71,0,0,1,1,0,.86.86,0,0,1,0,1.09A.71.71,0,0,1,38.31,56.17Zm4.09.12a.5.5,0,0,1-.32.1.33.33,0,0,1-.25-.09.37.37,0,0,1-.09-.26v-1.1h.67v-.61h-.67v-.66h-.82v.66H40.5v.61h.42v1.12a1,1,0,0,0,.26.72,1.05,1.05,0,0,0,.75.25,1.43,1.43,0,0,0,.35,0,.82.82,0,0,0,.29-.13Zm1-2.38a.49.49,0,0,0,.35-.13.43.43,0,0,0,.14-.33.39.39,0,0,0-.12-.31.51.51,0,0,0-.35-.12.5.5,0,0,0-.35.12l0,0a.43.43,0,0,0,0,.6A.5.5,0,0,0,43.36,53.91ZM43,57h.82V54.28H43Zm3.55-.15a1.33,1.33,0,0,0,.53-.49,1.45,1.45,0,0,0,0-1.44,1.33,1.33,0,0,0-.53-.49,1.73,1.73,0,0,0-1.54,0,1.33,1.33,0,0,0-.53.49,1.45,1.45,0,0,0,0,1.44,1.32,1.32,0,0,0,.53.49A1.73,1.73,0,0,0,46.59,56.84Zm-.76-.44a.67.67,0,0,1-.5-.21.82.82,0,0,1,0-1.09.67.67,0,0,1,.5-.21.66.66,0,0,1,.49.21.86.86,0,0,1,0,1.08A.66.66,0,0,1,45.83,56.4Zm3.61-2.15a1.35,1.35,0,0,0-.51.09,1,1,0,0,0-.39.26v-.32h-.75V57h.82V55.64a.76.76,0,0,1,.17-.54.62.62,0,0,1,.44-.18.52.52,0,0,1,.41.16.71.71,0,0,1,.14.48V57h.82V55.43a1.2,1.2,0,0,0-.31-.9A1.12,1.12,0,0,0,49.44,54.24ZM52,55.1a.48.48,0,0,0,.14-.35.46.46,0,0,0-.14-.35.52.52,0,0,0-.7,0,.46.46,0,0,0-.14.35.48.48,0,0,0,.14.35A.5.5,0,0,0,52,55.1Zm0,1.81a.48.48,0,0,0,.14-.35A.46.46,0,0,0,52,56.2a.52.52,0,0,0-.7,0,.46.46,0,0,0-.14.35.48.48,0,0,0,.14.35A.5.5,0,0,0,52,56.91Zm2.59-2.83.22-.82h-.5L54,54a2.26,2.26,0,0,0-.11.3.82.82,0,0,0,0,.2.47.47,0,0,0,.14.35.52.52,0,0,0,.7,0,.47.47,0,0,0,.14-.35.48.48,0,0,0-.07-.26A.44.44,0,0,0,54.54,54.08Zm1.41.13a.44.44,0,0,0-.21-.13l.22-.82h-.5l-.3.72a2.25,2.25,0,0,0-.11.3.82.82,0,0,0,0,.2.47.47,0,0,0,.14.35.52.52,0,0,0,.7,0,.47.47,0,0,0,.14-.35.48.48,0,0,0-.07-.26Zm2.3,2.08a.5.5,0,0,1-.32.1.33.33,0,0,1-.25-.09.37.37,0,0,1-.09-.26v-1.1h.67v-.61h-.67v-.66h-.82v.66h-.42v.61h.39V56a1,1,0,0,0,.26.72,1.05,1.05,0,0,0,.77.28,1.43,1.43,0,0,0,.35,0,.82.82,0,0,0,.29-.13Zm2.26-2.06a1.36,1.36,0,0,0-.49.08,1,1,0,0,0-.38.24V53.25h-.82V57h.82V55.67a.76.76,0,0,1,.17-.54.62.62,0,0,1,.48-.18.52.52,0,0,1,.41.16.71.71,0,0,1,.11.45V57h.82V55.43a1.2,1.2,0,0,0-.31-.9A1.12,1.12,0,0,0,60.51,54.23ZM65,55.62a1.46,1.46,0,0,0-.18-.74,1.25,1.25,0,0,0-.51-.49,1.6,1.6,0,0,0-1.46,0,1.32,1.32,0,0,0-.52.5,1.38,1.38,0,0,0-.19.72,1.36,1.36,0,0,0,.19.72,1.31,1.31,0,0,0,.54.49,1.77,1.77,0,0,0,.82.18,1.41,1.41,0,0,0,1.12-.44l-.42-.45a.91.91,0,0,1-.3.2,1,1,0,0,1-.38.07.86.86,0,0,1-.51-.15.64.64,0,0,1-.26-.39H65C65,55.71,65,55.62,65,55.62Zm-1.41-.81a.67.67,0,0,1,.44.16.65.65,0,0,1,.22.41H63a.64.64,0,0,1,.22-.41A.67.67,0,0,1,63.62,54.82Zm4.18-.65q0-.39.36-.39a.53.53,0,0,1,.32.1l.21-.57a.82.82,0,0,0-.26-.11,1.43,1.43,0,0,0-.34,0,1.05,1.05,0,0,0-.77.27,1,1,0,0,0-.27.73v.12h-.42v.61H67V57h.82v-2h.66v-.61h-.68Zm3.14.11v1.35a.77.77,0,0,1-.17.54.59.59,0,0,1-.45.18q-.55,0-.55-.66V54.28h-.82V55.8a1.23,1.23,0,0,0,.31.91,1.15,1.15,0,0,0,.82.3,1.18,1.18,0,0,0,.47-.09,1,1,0,0,0,.37-.27V57h.75V54.28Zm3,0a1.35,1.35,0,0,0-.51.09,1,1,0,0,0-.39.26v-.32h-.75V57h.82V55.64a.76.76,0,0,1,.17-.54.62.62,0,0,1,.48-.18.52.52,0,0,1,.41.16.71.71,0,0,1,.14.48V57h.82V55.43a1.2,1.2,0,0,0-.31-.9A1.12,1.12,0,0,0,74,54.24ZM79.32,57h.93L79,55.43l1.13-1.15h-.94l-1.13,1.09V53.25h-.82V57h.82v-.69l.38-.37ZM81,53.91a.49.49,0,0,0,.35-.13.43.43,0,0,0,.14-.33.39.39,0,0,0-.14-.3A.51.51,0,0,0,81,53a.5.5,0,0,0-.35.12l0,0a.43.43,0,0,0,0,.6A.5.5,0,0,0,81,53.91ZM80.64,57h.82V54.27h-.82Zm3.05-2.74a1.35,1.35,0,0,0-.51.09,1,1,0,0,0-.39.26v-.32H82V57h.82V55.64A.76.76,0,0,1,83,55.1a.62.62,0,0,1,.48-.18.52.52,0,0,1,.41.16.71.71,0,0,1,.14.48V57h.82V55.43a1.2,1.2,0,0,0-.31-.9A1.12,1.12,0,0,0,83.69,54.24Zm3.95-1v1.32a1,1,0,0,0-.82-.33,1.41,1.41,0,0,0-.69.17,1.23,1.23,0,0,0-.49.49,1.64,1.64,0,0,0,0,1.47,1.23,1.23,0,0,0,.49.49,1.41,1.41,0,0,0,.69.17,1,1,0,0,0,.82-.35V57h.75V53.25Zm-.21,2.94a.71.71,0,0,1-1,0,.82.82,0,0,1,0-1.09.71.71,0,0,1,1,0,.82.82,0,0,1,0,1.08Zm2-3a.49.49,0,0,0-.35.13.47.47,0,0,0-.14.35.49.49,0,0,0,.07.26.44.44,0,0,0,.2.16l-.21.82h.5l.3-.72a2.65,2.65,0,0,0,.11-.3.82.82,0,0,0,0-.21.47.47,0,0,0-.14-.35A.48.48,0,0,0,89.43,53.19Zm1.19,0a.49.49,0,0,0-.35.13.46.46,0,0,0-.14.35.49.49,0,0,0,.07.26.43.43,0,0,0,.2.16l-.21.82h.5l.3-.72a2.63,2.63,0,0,0,.11-.3.82.82,0,0,0,0-.21.47.47,0,0,0-.14-.35A.48.48,0,0,0,90.62,53.19ZM91.82,56a.49.49,0,0,0-.35.13.46.46,0,0,0-.14.35.48.48,0,0,0,.07.26.42.42,0,0,0,.2.16l-.22.82h.53l.29-.72a2.3,2.3,0,0,0,.11-.3.82.82,0,0,0,0-.2.47.47,0,0,0-.14-.35A.48.48,0,0,0,91.82,56ZM22.89,60.28a1,1,0,0,0-.82.35v-.31h-.75V64h.82V62.73a1,1,0,0,0,.82.33,1.38,1.38,0,0,0,.69-.17,1.25,1.25,0,0,0,.49-.49,1.64,1.64,0,0,0,0-1.46,1.25,1.25,0,0,0-.49-.49A1.38,1.38,0,0,0,22.89,60.28Zm-.58,1.94a.86.86,0,0,1,0-1.09.71.71,0,0,1,1,0,.86.86,0,0,1,0,1.09A.71.71,0,0,1,22.31,62.22Zm3.26-1.54v-.35h-.75V63h.82V61.76a.76.76,0,0,1,.19-.57.72.72,0,0,1,.53-.19h.17v-.72a1.41,1.41,0,0,0-.55.1A.88.88,0,0,0,25.56,60.68Zm1.83-.73a.49.49,0,0,0,.35-.13.43.43,0,0,0,.14-.33.39.39,0,0,0-.14-.3.51.51,0,0,0-.35-.12.5.5,0,0,0-.35.12l0,0a.43.43,0,0,0,0,.6A.5.5,0,0,0,27.39,59.95ZM27,63h.82V60.31H27Zm2.8,0a1.49,1.49,0,0,0,.75-.18,1.09,1.09,0,0,0,.47-.5l-.61-.33a.66.66,0,0,1-.61.37.69.69,0,0,1-.51-.21.82.82,0,0,1,0-1.1.69.69,0,0,1,.51-.2.67.67,0,0,1,.61.37l.61-.33a1.06,1.06,0,0,0-.47-.51,1.51,1.51,0,0,0-.75-.18,1.64,1.64,0,0,0-.78.18,1.34,1.34,0,0,0-.54.49,1.44,1.44,0,0,0,0,1.44,1.34,1.34,0,0,0,.54.49A1.64,1.64,0,0,0,29.84,63.07Zm4.27-1.41a1.46,1.46,0,0,0-.18-.74,1.25,1.25,0,0,0-.51-.49,1.6,1.6,0,0,0-1.46,0,1.32,1.32,0,0,0-.52.5,1.38,1.38,0,0,0-.19.72,1.36,1.36,0,0,0,.19.72,1.31,1.31,0,0,0,.54.49,1.77,1.77,0,0,0,.82.18,1.41,1.41,0,0,0,1.12-.44l-.42-.45a.91.91,0,0,1-.3.2,1,1,0,0,1-.38.07.86.86,0,0,1-.51-.15.64.64,0,0,1-.26-.39h2C34.1,61.76,34.1,61.67,34.1,61.67Zm-1.41-.81a.67.67,0,0,1,.44.16.65.65,0,0,1,.22.41H32a.64.64,0,0,1,.22-.41A.67.67,0,0,1,32.7,60.86Zm2.58.25a.48.48,0,0,0,.14-.35.46.46,0,0,0-.14-.35.52.52,0,0,0-.7,0,.46.46,0,0,0-.14.35.48.48,0,0,0,.14.35A.5.5,0,0,0,35.28,61.12Zm0,1.81a.48.48,0,0,0,.14-.35.46.46,0,0,0-.14-.35.52.52,0,0,0-.7,0,.46.46,0,0,0-.14.35.48.48,0,0,0,.14.35A.5.5,0,0,0,35.28,62.93Zm2.6-2.8.22-.82h-.53l-.3.72a2.26,2.26,0,0,0-.08.3.82.82,0,0,0,0,.2.47.47,0,0,0,.14.35.52.52,0,0,0,.7,0,.47.47,0,0,0,.14-.35.48.48,0,0,0-.07-.26A.44.44,0,0,0,37.88,60.13Zm1.39.12a.44.44,0,0,0-.2-.13l.22-.82h-.5l-.3.72a2.25,2.25,0,0,0-.11.3.82.82,0,0,0,0,.2.47.47,0,0,0,.14.35.52.52,0,0,0,.7,0,.47.47,0,0,0,.14-.35.48.48,0,0,0-.07-.26Zm.48-.76v.66h.68V63h.82V59.5ZM43,62.37l.82-.76a2.08,2.08,0,0,0,.47-.58,1.23,1.23,0,0,0,.12-.54.94.94,0,0,0-.16-.55,1.06,1.06,0,0,0-.46-.36,1.71,1.71,0,0,0-.69-.13,1.9,1.9,0,0,0-.82.17,1.4,1.4,0,0,0-.57.48l.59.39a.82.82,0,0,1,.31-.26,1,1,0,0,1,.42-.09.67.67,0,0,1,.42.12.39.39,0,0,1,.14.32.65.65,0,0,1-.07.3,1.45,1.45,0,0,1-.3.35L41.83,62.5V63H44.5v-.67Zm2.73.55a.48.48,0,0,0,.14-.35.46.46,0,0,0-.14-.35.52.52,0,0,0-.7,0,.46.46,0,0,0-.14.35.48.48,0,0,0,.14.35A.5.5,0,0,0,45.7,62.93Zm2.73-.06a1.46,1.46,0,0,0,.53-.62,2.57,2.57,0,0,0,0-2,1.46,1.46,0,0,0-.53-.62,1.51,1.51,0,0,0-1.56,0,1.46,1.46,0,0,0-.53.62,2.57,2.57,0,0,0,0,2,1.45,1.45,0,0,0,.53.62A1.51,1.51,0,0,0,48.43,62.87ZM48,62.3a.6.6,0,0,1-.83-.18,2.09,2.09,0,0,1,0-1.71.6.6,0,0,1,1,0,2.09,2.09,0,0,1,0,1.71A.6.6,0,0,1,48,62.3Zm3.88.57a1.46,1.46,0,0,0,.53-.62,2.57,2.57,0,0,0,0-2,1.46,1.46,0,0,0-.53-.62,1.51,1.51,0,0,0-1.56,0,1.46,1.46,0,0,0-.53.62,2.57,2.57,0,0,0,0,2,1.45,1.45,0,0,0,.53.62A1.51,1.51,0,0,0,51.85,62.87Zm-.46-.57a.6.6,0,0,1-.83-.18,2.09,2.09,0,0,1,0-1.71.6.6,0,0,1,1,0,2.09,2.09,0,0,1,0,1.71A.6.6,0,0,1,51.39,62.3Zm2.07-3.07a.49.49,0,0,0-.35.13.47.47,0,0,0-.14.35A.49.49,0,0,0,53,60a.44.44,0,0,0,.2.16L53,61h.5l.3-.72a2.65,2.65,0,0,0,.11-.3.82.82,0,0,0,0-.21.47.47,0,0,0-.14-.35A.48.48,0,0,0,53.46,59.23Zm1.19,0a.49.49,0,0,0-.35.13.46.46,0,0,0-.14.35.49.49,0,0,0,.07.26.43.43,0,0,0,.2.16l-.21.82h.5l.3-.72a2.63,2.63,0,0,0,.11-.3.82.82,0,0,0,0-.21.47.47,0,0,0-.14-.35A.48.48,0,0,0,54.65,59.23Zm1.23,2.84a.49.49,0,0,0-.35.13.46.46,0,0,0-.14.35.48.48,0,0,0,.07.26.42.42,0,0,0,.2.16l-.22.82h.5l.29-.72a2.3,2.3,0,0,0,.11-.3.82.82,0,0,0,0-.2.47.47,0,0,0-.14-.35A.48.48,0,0,0,55.88,62.07ZM22.07,66.72v-.35h-.75v2.71h.82V67.8a.76.76,0,0,1,.19-.57.72.72,0,0,1,.53-.19H23v-.72a1.41,1.41,0,0,0-.55.1A.88.88,0,0,0,22.07,66.72Zm4.12,1A1.46,1.46,0,0,0,26,67a1.25,1.25,0,0,0-.51-.49,1.6,1.6,0,0,0-1.46,0,1.32,1.32,0,0,0-.52.5,1.38,1.38,0,0,0-.19.72,1.36,1.36,0,0,0,.19.72,1.31,1.31,0,0,0,.54.49,1.77,1.77,0,0,0,.82.18A1.41,1.41,0,0,0,26,68.66l-.42-.45a.91.91,0,0,1-.3.2,1,1,0,0,1-.38.07.86.86,0,0,1-.51-.15.64.64,0,0,1-.26-.39h2A1,1,0,0,1,26.19,67.71Zm-1.89-.64a.67.67,0,0,1,.44-.16.67.67,0,0,1,.44.16.65.65,0,0,1,.22.41H24.07a.64.64,0,0,1,.22-.41Zm5.83-.75a1.32,1.32,0,0,0-.56.12,1.11,1.11,0,0,0-.42.33.92.92,0,0,0-.37-.33,1.17,1.17,0,0,0-.52-.12,1.24,1.24,0,0,0-.48.09,1,1,0,0,0-.37.26v-.31h-.86v2.71h.82V67.71a.77.77,0,0,1,.16-.53A.55.55,0,0,1,28,67q.51,0,.51.64v1.44h.82V67.72a.77.77,0,0,1,.16-.53.56.56,0,0,1,.44-.18.47.47,0,0,1,.38.16.73.73,0,0,1,.13.48v1.44h.82V67.5a1.23,1.23,0,0,0-.3-.9A1.09,1.09,0,0,0,30.12,66.32Zm2.93,0a2.38,2.38,0,0,0-.64.08,1.7,1.7,0,0,0-.53.24l.26.59a1.13,1.13,0,0,1,.35-.18,1.37,1.37,0,0,1,.43-.07.69.69,0,0,1,.47.14.5.5,0,0,1,.16.39h-.62a1.45,1.45,0,0,0-.88.21.71.71,0,0,0-.29.59.76.76,0,0,0,.12.42.82.82,0,0,0,.35.3,1.28,1.28,0,0,0,.54.11.88.88,0,0,0,.82-.38v.34h.73V67.51a1.15,1.15,0,0,0-.34-.9A1.41,1.41,0,0,0,33.05,66.29Zm.3,2.2a.68.68,0,0,1-.39.08.53.53,0,0,1-.33-.09.28.28,0,0,1-.12-.24q0-.32.49-.32h.54v.28a.51.51,0,0,1-.22.27Zm2.1-2.5a.49.49,0,0,0,.35-.13.43.43,0,0,0,.14-.33.39.39,0,0,0-.14-.3.51.51,0,0,0-.35-.12.5.5,0,0,0-.35.12l0,0a.43.43,0,0,0,0,.6A.5.5,0,0,0,35.45,66Zm-.35,3.08h.82V66.35H35.1Zm3.05-2.75a1.35,1.35,0,0,0-.51.09,1,1,0,0,0-.39.26v-.32H36.5v2.71h.82V67.73a.76.76,0,0,1,.17-.54A.62.62,0,0,1,38,67a.52.52,0,0,1,.41.16.71.71,0,0,1,.14.48v1.44h.82V67.5a1.2,1.2,0,0,0-.31-.9A1.12,1.12,0,0,0,38.15,66.33Zm2.3-.34a.49.49,0,0,0,.35-.13.43.43,0,0,0,.14-.33.39.39,0,0,0-.14-.3.51.51,0,0,0-.35-.12.5.5,0,0,0-.35.12l0,0a.43.43,0,0,0,0,.6A.5.5,0,0,0,40.45,66Zm-.35,3.08h.82V66.35H40.1Zm3.05-2.75a1.35,1.35,0,0,0-.51.09,1,1,0,0,0-.39.26v-.32H41.5v2.71h.82V67.73a.76.76,0,0,1,.17-.54A.62.62,0,0,1,43,67a.52.52,0,0,1,.41.16.71.71,0,0,1,.14.48v1.44h.82V67.5a1.2,1.2,0,0,0-.31-.9A1.12,1.12,0,0,0,43.15,66.33Zm4,0v.33a1.08,1.08,0,0,0-.9-.39,1.44,1.44,0,0,0-.68.16,1.25,1.25,0,0,0-.49.46,1.39,1.39,0,0,0,0,1.37,1.25,1.25,0,0,0,.49.46,1.44,1.44,0,0,0,.68.16,1.1,1.1,0,0,0,.82-.34v.12a.73.73,0,0,1-.2.56.82.82,0,0,1-.6.18,1.72,1.72,0,0,1-.53-.08,1.28,1.28,0,0,1-.44-.22l-.31.57a1.64,1.64,0,0,0,.58.28,2.84,2.84,0,0,0,.75.1,1.64,1.64,0,0,0,1.13-.36,1.45,1.45,0,0,0,.39-1.11V66.36Zm-.26,1.75a.72.72,0,0,1-.52.18.73.73,0,0,1-.51-.18h0a.67.67,0,0,1,0-1,.73.73,0,0,1,.51-.18.72.72,0,0,1,.51.18.68.68,0,0,1,0,1Zm2.86,1a2.06,2.06,0,0,0,.82-.15,1.13,1.13,0,0,0,.51-.39,1,1,0,0,0,.17-.55.82.82,0,0,0-.18-.56,1.09,1.09,0,0,0-.44-.3A5.76,5.76,0,0,0,50,67a3,3,0,0,1-.58-.17.29.29,0,0,1-.19-.27.34.34,0,0,1,.16-.3.92.92,0,0,1,.51-.11,2,2,0,0,1,1,.28l.25-.62a2,2,0,0,0-.57-.23,2.7,2.7,0,0,0-.66-.08,2,2,0,0,0-.82.15,1.12,1.12,0,0,0-.5.39,1,1,0,0,0-.16.56.82.82,0,0,0,.18.57,1.07,1.07,0,0,0,.44.3,5.76,5.76,0,0,0,.66.19l.42.11a.75.75,0,0,1,.25.13.26.26,0,0,1,.1.21.31.31,0,0,1-.16.27,1,1,0,0,1-.51.11,2,2,0,0,1-.62-.1,1.87,1.87,0,0,1-.54-.26l-.28.62A1.91,1.91,0,0,0,49,69,2.89,2.89,0,0,0,49.77,69.12Zm3.54-2.8a1,1,0,0,0-.82.35v-.31h-.75V70h.82V68.77a1,1,0,0,0,.82.33,1.38,1.38,0,0,0,.69-.17,1.25,1.25,0,0,0,.49-.49,1.64,1.64,0,0,0,0-1.46,1.25,1.25,0,0,0-.49-.49A1.38,1.38,0,0,0,53.3,66.32Zm-.58,1.93a.86.86,0,0,1,0-1.09.71.71,0,0,1,1,0,.86.86,0,0,1,0,1.09A.71.71,0,0,1,52.73,68.25Zm3.58-2a2.38,2.38,0,0,0-.64.08,1.7,1.7,0,0,0-.53.24l.27.58a1.13,1.13,0,0,1,.35-.18,1.37,1.37,0,0,1,.43-.07.69.69,0,0,1,.47.14.5.5,0,0,1,.16.39h-.62a1.45,1.45,0,0,0-.86.18.71.71,0,0,0-.29.59.76.76,0,0,0,.12.46.82.82,0,0,0,.35.3,1.28,1.28,0,0,0,.54.11.88.88,0,0,0,.82-.38v.34h.73V67.51a1.15,1.15,0,0,0-.34-.9A1.41,1.41,0,0,0,56.31,66.29Zm.29,2.2a.68.68,0,0,1-.35.08.53.53,0,0,1-.33-.09.28.28,0,0,1-.12-.24q0-.32.49-.32h.54v.28a.51.51,0,0,1-.22.27Zm3.09.61a1.49,1.49,0,0,0,.75-.18,1.09,1.09,0,0,0,.47-.5l-.61-.33a.66.66,0,0,1-.64.39.69.69,0,0,1-.51-.21.82.82,0,0,1,0-1.1.69.69,0,0,1,.51-.2.67.67,0,0,1,.61.37l.61-.33a1.06,1.06,0,0,0-.47-.51,1.51,1.51,0,0,0-.75-.18,1.64,1.64,0,0,0-.78.18,1.34,1.34,0,0,0-.54.49,1.44,1.44,0,0,0,0,1.44,1.34,1.34,0,0,0,.54.49A1.64,1.64,0,0,0,59.69,69.1Zm4.25-1.39a1.46,1.46,0,0,0-.18-.74,1.25,1.25,0,0,0-.51-.49,1.6,1.6,0,0,0-1.46,0,1.32,1.32,0,0,0-.52.5,1.38,1.38,0,0,0-.19.72,1.36,1.36,0,0,0,.19.72,1.31,1.31,0,0,0,.54.49,1.77,1.77,0,0,0,.82.18,1.41,1.41,0,0,0,1.12-.44l-.42-.45a.91.91,0,0,1-.3.2,1,1,0,0,1-.38.07.86.86,0,0,1-.51-.15.64.64,0,0,1-.26-.39h2A1.87,1.87,0,0,0,63.94,67.71Zm-1.85-.64a.67.67,0,0,1,.44-.16.67.67,0,0,1,.44.16.65.65,0,0,1,.22.41H61.86a.64.64,0,0,1,.22-.41Zm3.3,2.06a2,2,0,0,0,.69-.11,1,1,0,0,0,.44-.3.72.72,0,0,0,.15-.45.65.65,0,0,0-.16-.46.82.82,0,0,0-.37-.23,4.63,4.63,0,0,0-.54-.12,2.38,2.38,0,0,1-.44-.1.18.18,0,0,1-.14-.17.21.21,0,0,1,.12-.18.82.82,0,0,1,.38-.07,1.56,1.56,0,0,1,.78.2l.26-.56a1.64,1.64,0,0,0-.47-.17,2.65,2.65,0,0,0-.58-.07,1.85,1.85,0,0,0-.67.11,1,1,0,0,0-.44.31.74.74,0,0,0-.15.45.66.66,0,0,0,.16.48.82.82,0,0,0,.38.23,4,4,0,0,0,.55.12,2,2,0,0,1,.42.08.17.17,0,0,1,.14.16q0,.25-.5.25a1.83,1.83,0,0,1-.5-.07,1.64,1.64,0,0,1-.44-.19l-.26.57a1.72,1.72,0,0,0,.51.21A2.63,2.63,0,0,0,65.39,69.12Zm2.4-2a.48.48,0,0,0,.14-.35.46.46,0,0,0-.14-.35.52.52,0,0,0-.7,0,.46.46,0,0,0-.14.35.48.48,0,0,0,.14.35A.5.5,0,0,0,67.79,67.16Zm0,1.81a.48.48,0,0,0,.14-.35.46.46,0,0,0-.14-.35.52.52,0,0,0-.7,0,.46.46,0,0,0-.14.35.48.48,0,0,0,.14.35A.5.5,0,0,0,67.79,69Zm2.58-2.8.22-.82h-.5l-.3.72a2.26,2.26,0,0,0-.11.3.82.82,0,0,0,0,.2.47.47,0,0,0,.14.35.52.52,0,0,0,.7,0,.47.47,0,0,0,.14-.35.48.48,0,0,0-.07-.26A.44.44,0,0,0,70.37,66.16Zm1.44.13a.44.44,0,0,0-.22-.13l.22-.82h-.53l-.3.72a2.25,2.25,0,0,0-.11.3.82.82,0,0,0,0,.2.47.47,0,0,0,.14.35.52.52,0,0,0,.7,0,.47.47,0,0,0,.14-.35.48.48,0,0,0-.07-.26Zm1.64.58h-.3l.06-.67h1.46v-.66H72.51l-.18,2h.9a1.27,1.27,0,0,1,.64.12.38.38,0,0,1,.18.35.39.39,0,0,1-.17.34.82.82,0,0,1-.49.12,1.77,1.77,0,0,1-.54-.08,1.54,1.54,0,0,1-.46-.23l-.32.62a1.88,1.88,0,0,0,.61.28,2.77,2.77,0,0,0,.73.1,1.87,1.87,0,0,0,.82-.16,1.13,1.13,0,0,0,.49-.42,1.1,1.1,0,0,0,.16-.58,1,1,0,0,0-.35-.82A1.69,1.69,0,0,0,73.45,66.88Zm2.26-1.6a.49.49,0,0,0-.35.13.47.47,0,0,0-.14.35.49.49,0,0,0,.07.26.44.44,0,0,0,.2.16l-.21.82h.5l.3-.72a2.65,2.65,0,0,0,.11-.3.82.82,0,0,0,0-.21.47.47,0,0,0-.14-.35A.48.48,0,0,0,75.72,65.28Zm1.51.15a.48.48,0,0,0-.32-.15.49.49,0,0,0-.35.13.46.46,0,0,0-.14.35.49.49,0,0,0,.07.26.43.43,0,0,0,.2.16l-.21.82H77l.3-.72a2.63,2.63,0,0,0,.11-.3.82.82,0,0,0,0-.21.47.47,0,0,0-.14-.35Zm-54.68,8a.21.21,0,0,1-.16-.06.25.25,0,0,1-.06-.17v-.91a.89.89,0,0,0-.24-.67,1,1,0,0,0-.71-.23h-.3V72h.09a.36.36,0,0,1,.27.1.38.38,0,0,1,.09.28v.73a.72.72,0,0,0,.08.39.45.45,0,0,0,.25.18.45.45,0,0,0-.25.18.72.72,0,0,0-.08.39v.82a.38.38,0,0,1-.09.28.36.36,0,0,1-.27.1h-.09V76h.3a1,1,0,0,0,.71-.23.89.89,0,0,0,.24-.67v-.91a.25.25,0,0,1,.06-.17.21.21,0,0,1,.16-.06h.16v-.58Z"/></svg>