<svg xmlns="http://www.w3.org/2000/svg" xmlns:xlink="http://www.w3.org/1999/xlink" viewBox="0 0 77.65 52.52"><defs><style>.cls-1{fill:url(#linear-gradient);}.cls-2{fill:none;stroke-linecap:round;stroke-miterlimit:10;stroke-width:4.48px;stroke:url(#linear-gradient-2);}</style><linearGradient id="linear-gradient" x1="13.38" y1="12.13" x2="13.38" y2="24.48" gradientUnits="userSpaceOnUse"><stop offset="0" stop-color="#f6a734"/><stop offset="0.18" stop-color="#f49933"/><stop offset="0.53" stop-color="#ef7532"/><stop offset="1" stop-color="#e73a2f"/></linearGradient><linearGradient id="linear-gradient-2" x1="7.26" y1="57.8" x2="61.47" y2="3.59" gradientUnits="userSpaceOnUse"><stop offset="0" stop-color="#1c9bd8"/><stop offset="0.48" stop-color="#0c65af"/><stop offset="1" stop-color="#423e92"/></linearGradient></defs><title>hotel_bed</title><g id="Layer_2" data-name="Layer 2"><g id="Layer_1-2" data-name="Layer 1"><circle class="cls-1" cx="13.38" cy="18.31" r="6.17"/><path class="cls-2" d="M31,20.37H23.89a.32.32,0,0,0-.32.33v6.62a.33.33,0,0,1-.33.33H2.56a.32.32,0,0,0-.32.33v5.91a.32.32,0,0,0,.32.32H30.68a.32.32,0,0,0,.32-.32V20.7a.33.33,0,0,1,.33-.33H75a.33.33,0,0,1,.33.33c0,3.15,0,28.13,0,28.91.28,4.17,0-12.53,0-15.08a.32.32,0,0,0-.32-.32H2.57a.32.32,0,0,1-.33-.32c0-3.71,0-37.72,0-30.7V49.61"/></g></g></svg>