<svg xmlns="http://www.w3.org/2000/svg" xmlns:xlink="http://www.w3.org/1999/xlink" viewBox="0 0 89.75 65.85"><defs><style>.cls-1,.cls-4,.cls-5{fill:none;stroke-linecap:round;stroke-miterlimit:10;}.cls-1{stroke-width:4.23px;stroke:url(#linear-gradient);}.cls-2{fill:url(#linear-gradient-2);}.cls-3{fill:url(#linear-gradient-3);}.cls-4,.cls-5{stroke-width:4.48px;}.cls-4{stroke:url(#linear-gradient-4);}.cls-5{stroke:url(#linear-gradient-5);}</style><linearGradient id="linear-gradient" x1="7.34" y1="70.45" x2="82.41" y2="-4.61" gradientUnits="userSpaceOnUse"><stop offset="0" stop-color="#1c9bd8"/><stop offset="0.48" stop-color="#0c65af"/><stop offset="1" stop-color="#423e92"/></linearGradient><linearGradient id="linear-gradient-2" x1="26.9" y1="15.02" x2="26.9" y2="32.11" gradientUnits="userSpaceOnUse"><stop offset="0" stop-color="#f6a734"/><stop offset="0.18" stop-color="#f49933"/><stop offset="0.53" stop-color="#ef7532"/><stop offset="1" stop-color="#e73a2f"/></linearGradient><linearGradient id="linear-gradient-3" x1="-126.28" y1="41.97" x2="346.44" y2="41.97" xlink:href="#linear-gradient"/><linearGradient id="linear-gradient-4" x1="46.26" y1="18.28" x2="80.04" y2="18.28" gradientUnits="userSpaceOnUse"><stop offset="0" stop-color="#1c9bd8"/><stop offset="0.03" stop-color="#1991d0"/><stop offset="0.14" stop-color="#1071b8"/><stop offset="0.2" stop-color="#0c65af"/><stop offset="0.49" stop-color="#423e92"/><stop offset="0.74" stop-color="#3f4094"/></linearGradient><linearGradient id="linear-gradient-5" x1="46.26" y1="27.95" x2="69.54" y2="27.95" xlink:href="#linear-gradient-4"/></defs><title>personal_info_1</title><g id="Layer_2" data-name="Layer 2"><g id="Layer_1-2" data-name="Layer 1"><path class="cls-1" d="M45.29,2.11H84.92a2.59,2.59,0,0,1,2.72,2.42V61.31a2.58,2.58,0,0,1-2.72,2.42H4.83a2.58,2.58,0,0,1-2.72-2.42V4.53A2.59,2.59,0,0,1,4.83,2.11H45.29"/><circle class="cls-2" cx="26.9" cy="23.57" r="8.55"/><path class="cls-3" d="M37.23,32.93H17a8.65,8.65,0,0,0-8.65,8.65V48.1A2.91,2.91,0,0,0,11.29,51H43a2.92,2.92,0,0,0,2.92-2.92V41.58A8.65,8.65,0,0,0,37.23,32.93Zm1.85,13.86V44.28a2.25,2.25,0,0,0-4.5,0v2.51H19.47V44.28a2.25,2.25,0,0,0-4.5,0v2.51H12.78V41.58a4.2,4.2,0,0,1,4.14-4.15H37.33a4.2,4.2,0,0,1,4.14,4.15v5.21Z"/><line class="cls-4" x1="48.5" y1="18.28" x2="77.8" y2="18.28"/><line class="cls-5" x1="48.5" y1="27.95" x2="67.3" y2="27.95"/></g></g></svg>