<svg xmlns="http://www.w3.org/2000/svg" xmlns:xlink="http://www.w3.org/1999/xlink" viewBox="0 0 89.79 82.5"><defs><style>.cls-1{fill:url(#linear-gradient);}.cls-2{fill:url(#New_Gradient_Swatch_copy);}</style><linearGradient id="linear-gradient" x1="4.49" y1="75.12" x2="71.67" y2="7.94" gradientUnits="userSpaceOnUse"><stop offset="0" stop-color="#1c9bd8"/><stop offset="0.48" stop-color="#0c65af"/><stop offset="1" stop-color="#423e92"/></linearGradient><linearGradient id="New_Gradient_Swatch_copy" x1="67.25" y1="24.99" x2="67.25" y2="47.01" gradientUnits="userSpaceOnUse"><stop offset="0" stop-color="#f6a734"/><stop offset="1" stop-color="#e73a2f"/></linearGradient></defs><title>pin_2</title><g id="Layer_2" data-name="Layer 2"><g id="Layer_1-2" data-name="Layer 1"><path class="cls-1" d="M67.59,13.18a23.31,23.31,0,0,0-3.27.23V1.09a1.09,1.09,0,0,0-1.43-1L42.1,6.91,23.17.67a2.2,2.2,0,0,0-.91-.24H22a2.12,2.12,0,0,0-.91.24L.75,7.36a1.08,1.08,0,0,0-.75,1v61.8a1.09,1.09,0,0,0,1.43,1L22.11,64.4l19,6.27a2.23,2.23,0,0,0,1,.1,2.2,2.2,0,0,0,.94-.1l12.19-4c1.92,3.46,3.84,6.53,5.45,9q.33.51.66,1c.24.34.46.68.68,1,.91,1.31,1.9,2.65,2.57,3.54a3.47,3.47,0,0,0,2.52,1.37h.23a3.43,3.43,0,0,0,2.45-1,31.53,31.53,0,0,0,3.3-3.89l.68-1,.65-1C80.16,66.87,89.79,50.12,89.79,36,89.79,23,80.25,13.18,67.59,13.18ZM19.87,59.64a1.08,1.08,0,0,1-.74,1L5.9,65a1.08,1.08,0,0,1-1.42-1V11.63a1.09,1.09,0,0,1,.74-1L18.45,6.24a1.09,1.09,0,0,1,1.42,1Zm19.88,3.83a1.46,1.46,0,0,1-1.93,1.39l-12.46-4.1a1.47,1.47,0,0,1-1-1.39V7.8a1.46,1.46,0,0,1,1.92-1.39l12.47,4.1a1.47,1.47,0,0,1,1,1.4ZM46,65a1.16,1.16,0,0,1-1.52-1.1V11.68a1.16,1.16,0,0,1,.79-1.1L58.42,6.24a1.09,1.09,0,0,1,1.42,1V14.5C51.23,17.6,45.39,25.82,45.39,36c0,8.88,3.6,18.53,7.71,26.65Zm25.11,8.4-.64,1-.65,1A25.25,25.25,0,0,1,67.4,78.2c-.62-.82-1.38-1.86-2.09-2.89l-.66-1-.64-1c-1.46-2.19-3.18-4.93-4.92-8-.72-1.28-1.45-2.62-2.16-4-4-7.78-7.54-17-7.54-25.39,0-7.06,3.56-14.18,10.45-17.25a17.41,17.41,0,0,1,4.48-1.29,20.11,20.11,0,0,1,3.27-.28c12,0,18.2,9.47,18.2,18.82C85.79,49.08,76.58,65.05,71.08,73.4Z"/><path class="cls-2" d="M77.71,36a10.47,10.47,0,1,0-20.92,0,10.47,10.47,0,1,0,20.92,0Z"/></g></g></svg>