<svg xmlns="http://www.w3.org/2000/svg" xmlns:xlink="http://www.w3.org/1999/xlink" viewBox="0 0 69 89.66"><defs><style>.cls-1{fill:url(#linear-gradient);}.cls-2{fill:url(#New_Gradient_Swatch_copy);}</style><linearGradient id="linear-gradient" x1="5.19" y1="68.02" x2="63.81" y2="9.39" gradientUnits="userSpaceOnUse"><stop offset="0" stop-color="#1c9bd8"/><stop offset="0.48" stop-color="#0c65af"/><stop offset="1" stop-color="#423e92"/></linearGradient><linearGradient id="New_Gradient_Swatch_copy" x1="34.41" y1="14.77" x2="34.6" y2="80.11" gradientTransform="translate(0.13 -0.1) rotate(0.16)" gradientUnits="userSpaceOnUse"><stop offset="0" stop-color="#f6a734"/><stop offset="1" stop-color="#e73a2f"/></linearGradient></defs><title>sport_club_2</title><g id="Layer_2" data-name="Layer 2"><g id="Layer_1-2" data-name="Layer 1"><path class="cls-1" d="M34.5,89.66l-.73-.25C33.43,89.29-.11,77.29,0,44.84V15.58a2.41,2.41,0,0,1,3-2.33c13.3,3.48,22.91-.45,29.4-12a2.4,2.4,0,0,1,4.17,0C43.28,12.83,52.89,16.78,66,13.26h0a2.4,2.4,0,0,1,3,2.32V44.84c.11,32.45-33.43,44.45-33.77,44.57Zm-30-71.47V44.84C4.39,71.6,29.86,83,34.51,84.9c4.81-1.88,30.11-13,30-40.05V18.2C52,20.76,41.69,16.69,34.53,6.33,27.48,16.81,17.39,20.8,4.48,18.19Zm62.66-.61h0Z"/><path class="cls-2" d="M34.38,80.11l-.83-.34a51.56,51.56,0,0,1-12.78-8c-8.48-7.17-12.93-16-12.87-25.48L8,26.19a2.4,2.4,0,0,1,2.77-2.37c9.6,1.49,17-1.22,21.88-8a2.39,2.39,0,0,1,1.93-1h0a2.4,2.4,0,0,1,1.93,1C41,21.89,48,24.49,58.57,23.92h0a2.39,2.39,0,0,1,2.53,2.39L61,46.49c0,9.49-4.49,18.27-13,25.4a51.62,51.62,0,0,1-12.83,7.89Zm-22-51.57,0,17.81c-.12,17.63,17.89,27,22,28.9,4.13-1.89,22.19-11.19,22.18-28.77l0-18c-9.74.14-17-2.48-22-8C29.14,26.72,21.7,29.43,12.43,28.54Zm-2.38-.29Zm2.39-2.05h0Zm23.81-7.81h0Z"/></g></g></svg>