<svg id="startups" xmlns="http://www.w3.org/2000/svg" viewBox="0 0 153.84 155.99"><defs><style>.startup-1{fill:#009ee3;}</style></defs><title>startup</title><path class="startup-1" d="M87.89,134.17l-10.33-16.4a.7.7,0,0,0-.72-.31l-12.9,2.42a.7.7,0,0,1-.79-.48L59.68,108a.7.7,0,0,0-.83-.47l-8.16,2.77c-3.56.88-7-.87-7.9-4.43h0a.7.7,0,0,1,.51-.84l20.54-6.31a.7.7,0,0,1,.83.47L68.25,111a.7.7,0,0,0,.79.48l11.35-2.13a.7.7,0,0,1,.72.31l5.84,9.27a.7.7,0,0,0,1.22-.08l7.39-15.73a.7.7,0,0,1,1.13-.18l12,12.66a.7.7,0,0,0,1.16-.26c2.68-7.83,5.54-21-3.21-26.21l-2.08-1.23a.7.7,0,0,1-.3-.82l2.46-7.25c4.47-14.08,6.41-28.3,6.26-46.6C99,41.7,87.65,51.16,78.59,62l-6.46,8.54-2.7-1.29c-8.89-4.24-18.12,5-23.22,11.61A.69.69,0,0,0,46.69,82l13.05,1.45a.7.7,0,0,1,.25.08l31.7,16.88a.7.7,0,0,1,.29.94h0a6.65,6.65,0,0,1-9,2.74L57.78,90.68a.7.7,0,0,0-.25-.08L34.1,88a.7.7,0,0,1-.53-1L35.83,83a66.65,66.65,0,0,1,10.4-13.23c9.6-9.25,17.73-9.93,23.51-8.23l3.15-4.17c10.77-12.94,24.47-24,41.87-33.7l3.67-2.06a1.11,1.11,0,0,1,1.66.94l.13,4.21c.69,22.24-1.26,38.78-6.5,55.32l-.68,2a.69.69,0,0,0,.2.74c4.48,3.91,8.21,11,5.95,23.81a66.64,66.64,0,0,1-5.17,16l-1.89,3.83a.7.7,0,0,1-1.13.17L98.77,115.77a.7.7,0,0,0-1.13.18L89.11,134.1A.7.7,0,0,1,87.89,134.17Z"/><path class="startup-1" d="M95.33,73.66a8.75,8.75,0,0,1-7.4-13.38,8.74,8.74,0,0,1,15.77,2.09,8.68,8.68,0,0,1-.65,6.66h0a8.77,8.77,0,0,1-7.73,4.64Zm0-12.59a3.85,3.85,0,1,0,3.39,5.65h0a3.84,3.84,0,0,0-3.39-5.65Z"/></svg>