<svg xmlns="http://www.w3.org/2000/svg" viewBox="0 0 114.21 91.53"><defs><style>.cls-1{fill:#1f9cd8;}</style></defs><title>1 on 1s</title><g id="Layer_2" data-name="Layer 2"><g id="Layer_1-2" data-name="Layer 1"><path class="cls-1" d="M105.08,91.53h-.14c-9.86-.46-17.78-2.6-24.18-6.53a50.85,50.85,0,0,0-5.32-.43c-21.38,0-38.78-11.74-38.78-26.16,0-13.36,15.05-24.59,34.54-26l.55-1.34a13,13,0,0,0,1.07-4.86c0-11.92-15.27-21.59-34-21.59s-34,9.67-34,21.55c0,5.89,3.93,11.61,10.79,15.69l1.35.81-.25,1.52a27.12,27.12,0,0,1-3.73,10.16,60.23,60.23,0,0,0,15.32-4.2,5.07,5.07,0,0,1,6.35,2h0a62.18,62.18,0,0,1-25.3,7.11,2.93,2.93,0,0,1-2.9-1.86,3,3,0,0,1,.67-3,21,21,0,0,0,4.64-9.46C4.23,40,0,33.26,0,26.16,0,11.74,17.39,0,38.77,0S77.55,11.74,77.55,26.16a17.4,17.4,0,0,1-1.41,6.62l-1.68,4.06L73,36.91c-17.7.81-31.56,10.26-31.56,21.5C41.39,70.29,56.67,80,75.44,80a57.73,57.73,0,0,1,6.49.55l.52.07.44.28c4.94,3.14,11,5,18.48,5.79a27,27,0,0,1-3.78-10.23l-.24-1.52,1.35-.8c6.85-4.09,10.78-9.81,10.78-15.69,0-9.41-10-17.79-23.9-20.58a4.86,4.86,0,0,1-4-5.26h0c18.89,2,32.6,12.89,32.6,25.84,0,7.09-4.23,13.86-11.66,18.75a21,21,0,0,0,4.65,9.49,3,3,0,0,1,.79,2.49A2.94,2.94,0,0,1,105.08,91.53Zm-1.34-1.74h0Z"/><path class="cls-1" d="M61.69,63.05A4.6,4.6,0,0,1,57,58.38a4.66,4.66,0,0,1,9.32.13,4.46,4.46,0,0,1-1.47,3.3,1.23,1.23,0,0,1-1.94-.42h0a3.13,3.13,0,0,0,2-3.08,3.22,3.22,0,0,0-3.23-2.93,3.18,3.18,0,0,0-3.2,3.13,3.14,3.14,0,0,0,2.1,2.93,1.64,1.64,0,0,1,1.12,1.5Z"/><path class="cls-1" d="M75.88,63.05a4.6,4.6,0,0,1-4.66-4.67A4.66,4.66,0,0,1,75.75,54a4.61,4.61,0,0,1,4.79,4.54,4.42,4.42,0,0,1-1.47,3.3,1.23,1.23,0,0,1-1.94-.42h0a3.13,3.13,0,0,0,2-3.08,3.22,3.22,0,0,0-3.22-2.93,3.17,3.17,0,0,0-3.2,3.13,3.13,3.13,0,0,0,2.09,2.93,1.62,1.62,0,0,1,1.12,1.5Z"/><path class="cls-1" d="M90.07,63.05a4.61,4.61,0,0,1-4.66-4.67A4.66,4.66,0,0,1,89.94,54a4.61,4.61,0,0,1,4.79,4.54,4.45,4.45,0,0,1-1.46,3.3,1.24,1.24,0,0,1-2-.42h0a3.11,3.11,0,0,0,2-3.08,3.22,3.22,0,0,0-3.22-2.93,3.17,3.17,0,0,0-3.2,3.13A3.13,3.13,0,0,0,89,61.44a1.62,1.62,0,0,1,1.12,1.5Z"/></g></g></svg>