<svg xmlns="http://www.w3.org/2000/svg" viewBox="0 0 127.31 94.81"><defs><style>.cls-1{fill:#1c9ad7;}.cls-2,.cls-3{fill:none;}.cls-2{stroke:#1c9ad7;stroke-miterlimit:10;stroke-width:0.86px;}.cls-4{fill:#009ee2;}</style></defs><title>activity4</title><g id="Layer_2" data-name="Layer 2"><g id="Layer_1-2" data-name="Layer 1"><path class="cls-1" d="M86.15,45.3H65.25a1.66,1.66,0,0,1-1.64-1.68h20.9a1.66,1.66,0,0,1,1.64,1.68Z"/><path class="cls-1" d="M120.52,20.23H108.2a1.11,1.11,0,0,1-1-1.2h12.32a1.11,1.11,0,0,1,1,1.2Z"/><path class="cls-1" d="M120.52,23.6H108.2a1.11,1.11,0,0,1-1-1.2h12.32a1.11,1.11,0,0,1,1,1.2Z"/><path class="cls-1" d="M120.52,27.1H108.2a1.11,1.11,0,0,1-1-1.2h12.32a1.11,1.11,0,0,1,1,1.2Z"/><path class="cls-1" d="M86.15,50.24H65.25a1.66,1.66,0,0,1-1.64-1.68h20.9a1.66,1.66,0,0,1,1.64,1.68Z"/><path class="cls-1" d="M86.15,55.17H65.25a1.66,1.66,0,0,1-1.64-1.68h20.9a1.66,1.66,0,0,1,1.64,1.68Z"/><path class="cls-1" d="M86.15,60.1H65.25a1.66,1.66,0,0,1-1.64-1.68h20.9a1.66,1.66,0,0,1,1.64,1.68Z"/><path class="cls-1" d="M86.15,65H65.25a1.66,1.66,0,0,1-1.64-1.68h20.9A1.66,1.66,0,0,1,86.15,65Z"/><path class="cls-1" d="M86.15,70H38.82a1.66,1.66,0,0,1-1.64-1.68H84.51A1.66,1.66,0,0,1,86.15,70Z"/><path class="cls-1" d="M86.15,74.9H38.82a1.66,1.66,0,0,1-1.64-1.68H84.51a1.66,1.66,0,0,1,1.64,1.68Z"/><path class="cls-1" d="M86.15,79.84H38.82a1.66,1.66,0,0,1-1.64-1.68H84.51a1.66,1.66,0,0,1,1.64,1.68Z"/><ellipse class="cls-1" cx="88.51" cy="32.72" rx="1.24" ry="1.27"/><ellipse class="cls-1" cx="85.21" cy="32.72" rx="1.24" ry="1.27"/><ellipse class="cls-1" cx="81.9" cy="32.72" rx="1.24" ry="1.27"/><ellipse class="cls-2" cx="113.83" cy="36.08" rx="1.46" ry="1.5"/><ellipse class="cls-1" cx="60.43" cy="7.46" rx="1.24" ry="1.27"/><ellipse class="cls-1" cx="57.12" cy="7.46" rx="1.24" ry="1.27"/><ellipse class="cls-1" cx="53.81" cy="7.46" rx="1.24" ry="1.27"/><path class="cls-1" d="M123.12,61.91H111a.09.09,0,0,0-.09.07,2.68,2.68,0,0,0,2.75,2.59h6.25a.5.5,0,0,1,.5.49V79.62a.5.5,0,0,1-.5.49H118a.09.09,0,0,0-.09.07l-2,11.55a.5.5,0,0,1-.5.41h-4.08a.5.5,0,0,1-.49-.4l-1-5.27a2.71,2.71,0,0,0-2.7-2.14,2.93,2.93,0,0,0-.48,0,.1.1,0,0,0-.06,0l1.9,10.34a.09.09,0,0,0,.09.06h9.58a.09.09,0,0,0,.09-.06l2-11.55a.5.5,0,0,1,.5-.41h2.3a.09.09,0,0,0,.09-.07V62A.09.09,0,0,0,123.12,61.91Z"/><path class="cls-1" d="M116,82.7a2.68,2.68,0,0,0-2.75-2.59h-5.91a.5.5,0,0,1-.5-.49V65.07a.5.5,0,0,1,.5-.49h1.32a.09.09,0,0,0,.09-.06l2.41-11a.5.5,0,0,1,.49-.39h3.93a.5.5,0,0,1,.49.37l1.3,5a2.76,2.76,0,0,0,3.33,1.89.09.09,0,0,0,.06,0l-2.54-9.81a.09.09,0,0,0-.09-.06H109a.09.09,0,0,0-.09.06l-2.41,11a.5.5,0,0,1-.49.39h-1.92A.09.09,0,0,0,104,62V82.7a.09.09,0,0,0,.09.07h11.82A.09.09,0,0,0,116,82.7Z"/><path class="cls-1" d="M127.21,68.24h-2.57a.09.09,0,0,0-.09.07,1,1,0,0,0,1.06,1,.5.5,0,0,1,.5.49v3.89a.5.5,0,0,1-.5.49,1,1,0,0,0-1.06,1c0,.08,0,.12.09.12h2.57a.09.09,0,0,0,.09-.07V68.32A.09.09,0,0,0,127.21,68.24Z"/><path class="cls-1" d="M109.08,68.72v7.8a.25.25,0,0,0,.24.25h8.54a.25.25,0,0,0,.24-.25v-7.8a.25.25,0,0,0-.24-.25h-8.54A.25.25,0,0,0,109.08,68.72Zm8.15,7.4H110a.25.25,0,0,1-.24-.25l.16.2L113.59,73l3.72,3.11.16-.2A.25.25,0,0,1,117.22,76.12ZM114,72.62l3.48-2.91v5.83Zm-.8,0-3.48,2.91V69.71ZM110,69.12h7.27a.25.25,0,0,1,.24.25l-.16-.2-3.72,3.11-3.72-3.11-.16.2A.25.25,0,0,1,110,69.12Z"/><path class="cls-1" d="M60.88,63.13V45.53h0V44.26a.63.63,0,0,0-.63-.64h-22a.63.63,0,0,0-.63.64v1.26h0v17.6h0V64.4a.63.63,0,0,0,.63.64h22a.63.63,0,0,0,.63-.64V63.14h0Zm-1.64-1.38-8.86-7.42,8.86-7.42ZM58.61,45.3a.6.6,0,0,1,.19,0l-9.57,8-9.57-8a.6.6,0,0,1,.19,0Zm-19.39,1.6,8.86,7.42-8.86,7.42Zm.63,16.45a.6.6,0,0,1-.19,0l9.57-8,9.57,8a.6.6,0,0,1-.19,0Z"/><path class="cls-1" d="M57.12,19.25H36.22a1.66,1.66,0,0,1-1.64-1.68h20.9a1.66,1.66,0,0,1,1.64,1.68Z"/><path class="cls-1" d="M57.12,24.18H36.22a1.66,1.66,0,0,1-1.64-1.68h20.9a1.66,1.66,0,0,1,1.64,1.68Z"/><path class="cls-1" d="M57.12,37.28H36.22a1.66,1.66,0,0,1-1.64-1.68h20.9a1.66,1.66,0,0,1,1.64,1.68Z"/><path class="cls-3" d="M21.35,27.06l7.29,6.11V27a.4.4,0,0,1,.36-.43h1.2V19.64Z"/><path class="cls-3" d="M29.77,18.08a.6.6,0,0,0-.19,0H10.82a.6.6,0,0,0-.19,0l9.57,8Z"/><path class="cls-3" d="M10.62,36.05a.6.6,0,0,0,.19,0H28.64v-1L20.2,28Z"/><polygon class="cls-3" points="10.19 19.64 10.19 34.48 19.05 27.07 10.19 19.64"/><path class="cls-4" d="M94.51,26.56H66.23V1.84a.4.4,0,0,0-.36-.43H.36A.4.4,0,0,0,0,1.84v11a.4.4,0,0,0,.36.43H60.84a3.45,3.45,0,0,0-3.21-3.53H3.08V4.94H63.16V26.56H31.85v3.53H91.79V86.5H31.71V56.85H28.64v4.51H3.08V20A3.49,3.49,0,0,0,0,16.33V64.46a.4.4,0,0,0,.36.43H28.64V89.6A.4.4,0,0,0,29,90h65.5a.4.4,0,0,0,.36-.43V27A.4.4,0,0,0,94.51,26.56Z"/><path class="cls-4" d="M28.64,27v6.19l1.57,1.31V26.56H29A.4.4,0,0,0,28.64,27Z"/><path class="cls-4" d="M29.58,36.09a.6.6,0,0,0,.19,0l-1.13-.95v1Z"/><rect class="cls-4" x="28.64" y="52.08" width="3.08" height="3.09"/><rect class="cls-4" x="28.64" y="47.15" width="3.08" height="3.25"/><path class="cls-4" d="M31.71,45.13a3.85,3.85,0,0,0-1.28-2.92H28.64v3.25h3.08Z"/><path class="cls-4" d="M31.85,35.87h0v1.26a.63.63,0,0,1-.63.64H28.64V38a.4.4,0,0,0,.36.43H89.48a3.45,3.45,0,0,0-3.21-3.53H31.85v1Z"/><path class="cls-1" d="M28.64,40.53H8.14a1.66,1.66,0,0,0,1.64,1.68H28.64v-.74"/><path class="cls-1" d="M28.64,41.47v.74h1.79A3,3,0,0,0,28.64,41.47Z"/><path class="cls-1" d="M8.14,45.47a1.66,1.66,0,0,0,1.64,1.68H28.64V45.47Z"/><rect class="cls-1" x="28.64" y="45.47" width="3.08" height="1.68"/><path class="cls-1" d="M8.14,50.4a1.66,1.66,0,0,0,1.64,1.68H28.64V50.4Z"/><rect class="cls-1" x="28.64" y="50.4" width="3.08" height="1.68"/><path class="cls-1" d="M8.14,55.17a1.66,1.66,0,0,0,1.64,1.68H28.64V55.17Z"/><rect class="cls-1" x="28.64" y="55.17" width="3.08" height="1.68"/><path class="cls-1" d="M10.82,36.09a.6.6,0,0,1-.19,0l9.57-8,8.44,7.07V33.17l-7.29-6.11,8.86-7.42v6.91h1.64V18.27h0V17a.63.63,0,0,0-.63-.64h-22a.63.63,0,0,0-.63.64v1.26h0v17.6h0v1.26a.63.63,0,0,0,.63.64H28.64V36.09Zm0-18.05H29.58a.6.6,0,0,1,.19,0l-9.57,8-9.57-8A.6.6,0,0,1,10.82,18Zm-.63,1.6L19,27.06l-8.86,7.42Z"/><path class="cls-1" d="M30.2,26.56v7.93l-1.57-1.31V35.1l1.13.95a.6.6,0,0,1-.19,0h-.94v1.68h2.58a.63.63,0,0,0,.63-.64V35.88h0v-1h-.13V30.08h.13V26.56Z"/><path class="cls-1" d="M120.5,16.57V6.66h0V5.95a.36.36,0,0,0-.35-.36H107.73a.36.36,0,0,0-.35.36v.71h0v9.91h0v.71a.36.36,0,0,0,.35.36h12.42a.36.36,0,0,0,.35-.36v-.71h0Zm-.93-.78-5-4.18,5-4.18Zm-.35-9.26.11,0-5.39,4.52-5.39-4.52.11,0Zm-10.92.9,5,4.18-5,4.18Zm.35,9.26-.11,0,5.39-4.52,5.39,4.52-.11,0Z"/><path class="cls-4" d="M123.09,41.75H104.62a2.42,2.42,0,0,1-2.4-2.45V29.94h19.08a2.59,2.59,0,0,1-2.56,2.62h-14v6.56h18.13V2.62H104.79V25.51a2.59,2.59,0,0,1-2.56,2.62h0V2.45A2.42,2.42,0,0,1,104.62,0h18.46a2.42,2.42,0,0,1,2.39,2.45V39.3A2.42,2.42,0,0,1,123.09,41.75Z"/></g></g></svg>