<svg xmlns="http://www.w3.org/2000/svg" viewBox="0 0 83.26 82.23"><defs><style>.cls-1,.cls-2,.cls-3,.cls-4,.cls-5{fill:#009ee2;}.cls-2,.cls-3,.cls-4,.cls-5{stroke:#009ee2;stroke-miterlimit:10;}.cls-2{stroke-width:0.5px;}.cls-3{stroke-width:0.68px;}.cls-4{stroke-width:0.3px;}.cls-5{stroke-width:2px;}</style></defs><title>activity5</title><g id="Layer_2" data-name="Layer 2"><g id="Layer_1-2" data-name="Layer 1"><path class="cls-1" d="M33.92,50.9,20.2,41.62a.87.87,0,0,1-.23-1.2l19.64-29A1.55,1.55,0,0,1,41.76,11l13.78,9.32a.86.86,0,0,0,1.35-.78L55.82,4.74A.86.86,0,0,0,54.74,4L37.87,8.39h0a1.93,1.93,0,0,1,.52,2.67l-.66,1-6-4A.71.71,0,0,1,32,6.73L57.56,0A.86.86,0,0,1,58.64.8L60.47,26a.71.71,0,0,1-1.1.64L41.31,14.39l-17,25.2a.87.87,0,0,0,.23,1.2l8.59,5.81a.87.87,0,0,0,1.2-.23L48.9,24.76a3.1,3.1,0,0,1,4.3-.83h0L35.13,50.66A.87.87,0,0,1,33.92,50.9Z"/><path class="cls-1" d="M3.45,66.5h0L17.18,47a3.1,3.1,0,0,1,4.3-.83h0L7.75,65.67A3.1,3.1,0,0,1,3.45,66.5Z"/><path class="cls-1" d="M4.41,82.23h0a3.1,3.1,0,0,1-.83-4.3l13.53-20h0a3.1,3.1,0,0,1,.83,4.3Z"/><path class="cls-1" d="M21.27,57.33h0a3.1,3.1,0,0,1-.83-4.3l3.17-4.81h0a3.1,3.1,0,0,1,.83,4.3Z"/><path class="cls-1" d="M14.24,73.8h0l8.5-12.57a3.1,3.1,0,0,1,4.3-.83h0L18.54,73A3.1,3.1,0,0,1,14.24,73.8Z"/><path class="cls-1" d="M25,57.43h0l2.39-3.17a3,3,0,0,1,4.11-.72h0l-2.39,3.17A3,3,0,0,1,25,57.43Z"/><path class="cls-1" d="M37.35,73.53A2.69,2.69,0,1,1,40,70.84,2.69,2.69,0,0,1,37.35,73.53Zm0-3.83a1.14,1.14,0,1,0,1.14,1.14A1.14,1.14,0,0,0,37.35,69.7Z"/><path class="cls-1" d="M15.18,40.78A1.77,1.77,0,1,1,17,39,1.78,1.78,0,0,1,15.18,40.78Zm0-2.71a.93.93,0,1,0,.93.93A.93.93,0,0,0,15.18,38.07Z"/><path class="cls-1" d="M1.77,73.21a1.77,1.77,0,1,1,1.77-1.77A1.78,1.78,0,0,1,1.77,73.21Zm0-2.71a.93.93,0,1,0,.93.93A.94.94,0,0,0,1.77,70.5Z"/><path class="cls-1" d="M19.64,79.77A1.77,1.77,0,1,1,21.41,78,1.78,1.78,0,0,1,19.64,79.77Zm0-2.71a.93.93,0,1,0,.93.93A.94.94,0,0,0,19.64,77.06Z"/><path class="cls-1" d="M37.18,57.78A1.77,1.77,0,1,1,39,56,1.78,1.78,0,0,1,37.18,57.78Zm0-2.71a.93.93,0,1,0,.93.93A.94.94,0,0,0,37.18,55.07Z"/><path class="cls-1" d="M8.35,43A2.69,2.69,0,1,1,11,40.36,2.69,2.69,0,0,1,8.35,43Zm0-3.83a1.14,1.14,0,1,0,1.14,1.14A1.14,1.14,0,0,0,8.35,39.22Z"/><line class="cls-2" x1="73.75" y1="18.63" x2="73.75" y2="26.28"/><line class="cls-2" x1="73.75" y1="3.57" x2="73.75" y2="12.58"/><line class="cls-2" x1="70.73" y1="15.61" x2="63.51" y2="15.61"/><line class="cls-2" x1="83.26" y1="15.61" x2="76.78" y2="15.61"/><line class="cls-2" x1="71.61" y1="13.47" x2="66.94" y2="8.79"/><line class="cls-2" x1="81.03" y1="22.89" x2="75.89" y2="17.75"/><line class="cls-2" x1="75.89" y1="13.47" x2="81.28" y2="8.08"/><line class="cls-2" x1="68.61" y1="20.75" x2="71.61" y2="17.75"/><line class="cls-2" x1="72.56" y1="12.83" x2="70.47" y2="7.99"/><line class="cls-2" x1="76.66" y1="22.35" x2="74.95" y2="18.39"/><line class="cls-2" x1="74.91" y1="12.81" x2="76.92" y2="7.94"/><line class="cls-2" x1="70.1" y1="24.43" x2="72.6" y2="18.4"/><line class="cls-2" x1="76.57" y1="14.5" x2="80.81" y2="12.83"/><line class="cls-2" x1="64.8" y1="19.13" x2="70.94" y2="16.72"/><line class="cls-2" x1="70.95" y1="14.48" x2="67.12" y2="12.93"/><line class="cls-2" x1="80.02" y1="18.14" x2="76.56" y2="16.74"/><line class="cls-3" x1="60.38" y1="60.56" x2="60.38" y2="71.02"/><line class="cls-3" x1="60.38" y1="39.96" x2="60.38" y2="52.29"/><line class="cls-3" x1="56.25" y1="56.42" x2="46.38" y2="56.42"/><line class="cls-3" x1="73.38" y1="56.42" x2="64.52" y2="56.42"/><line class="cls-3" x1="57.46" y1="53.5" x2="51.06" y2="47.11"/><line class="cls-3" x1="70.34" y1="66.38" x2="63.31" y2="59.35"/><line class="cls-3" x1="63.31" y1="53.5" x2="70.68" y2="46.12"/><line class="cls-3" x1="53.35" y1="63.46" x2="57.46" y2="59.35"/><line class="cls-3" x1="58.75" y1="52.63" x2="55.89" y2="46"/><line class="cls-3" x1="64.36" y1="65.65" x2="62.02" y2="60.22"/><line class="cls-3" x1="61.96" y1="52.6" x2="64.72" y2="45.94"/><line class="cls-3" x1="55.39" y1="68.49" x2="58.8" y2="60.25"/><line class="cls-3" x1="64.23" y1="54.91" x2="70.03" y2="52.63"/><line class="cls-3" x1="48.14" y1="61.24" x2="56.53" y2="57.94"/><line class="cls-3" x1="56.55" y1="54.88" x2="51.31" y2="52.76"/><line class="cls-3" x1="68.95" y1="59.88" x2="64.22" y2="57.97"/><line class="cls-4" x1="18.92" y1="17.89" x2="18.92" y2="22.5"/><line class="cls-4" x1="18.92" y1="8.82" x2="18.92" y2="14.25"/><line class="cls-4" x1="17.1" y1="16.07" x2="12.76" y2="16.07"/><line class="cls-4" x1="24.65" y1="16.07" x2="20.74" y2="16.07"/><line class="cls-4" x1="17.64" y1="14.79" x2="14.82" y2="11.97"/><line class="cls-4" x1="23.31" y1="20.46" x2="20.21" y2="17.36"/><line class="cls-4" x1="20.21" y1="14.79" x2="23.46" y2="11.54"/><line class="cls-4" x1="15.82" y1="19.17" x2="17.64" y2="17.36"/><line class="cls-4" x1="18.2" y1="14.4" x2="16.95" y2="11.48"/><line class="cls-4" x1="20.67" y1="20.13" x2="19.64" y2="17.75"/><line class="cls-4" x1="19.62" y1="14.39" x2="20.83" y2="11.46"/><line class="cls-4" x1="16.73" y1="21.39" x2="18.23" y2="17.76"/><line class="cls-4" x1="20.62" y1="15.41" x2="23.17" y2="14.4"/><line class="cls-4" x1="13.53" y1="18.19" x2="17.23" y2="16.74"/><line class="cls-4" x1="17.23" y1="15.39" x2="14.93" y2="14.46"/><line class="cls-4" x1="22.7" y1="17.6" x2="20.61" y2="16.75"/><line class="cls-5" x1="49.54" y1="26.22" x2="30.72" y2="26.16"/><line class="cls-5" x1="53.3" y1="21.08" x2="34.48" y2="21.02"/><line class="cls-5" x1="45.89" y1="15.79" x2="38.11" y2="15.76"/><line class="cls-5" x1="45.89" y1="31.36" x2="28.71" y2="31.3"/><line class="cls-5" x1="43.89" y1="36.36" x2="25.18" y2="36.3"/><line class="cls-5" x1="38.95" y1="41.36" x2="22.17" y2="41.3"/><line class="cls-5" x1="37.35" y1="45.68" x2="28.71" y2="45.62"/></g></g></svg>