<svg xmlns="http://www.w3.org/2000/svg" viewBox="0 0 122.4 92.91"><defs><style>.cls-1{fill:#1c9ad7;}</style></defs><title>Booking-step-1</title><g id="Layer_2" data-name="Layer 2"><g id="Layer_1-2" data-name="Layer 1"><path class="cls-1" d="M113.62,26.26h0c0,.13,0,.25,0,.38Z"/><path class="cls-1" d="M40.14,23.92v2.33H113.6a5.45,5.45,0,0,0-5.43-5.07h-68Z"/><path class="cls-1" d="M121.58,6.86H40.14v4a3.07,3.07,0,0,1-.38,1.46h77.19V87.45H19.6V40.73H14.15V92.09a.82.82,0,0,0,.82.82H121.58a.82.82,0,0,0,.82-.82V7.68A.82.82,0,0,0,121.58,6.86Z"/><ellipse class="cls-1" cx="112" cy="16.76" rx="1.82" ry="1.84"/><ellipse class="cls-1" cx="106.81" cy="16.76" rx="1.82" ry="1.84"/><ellipse class="cls-1" cx="101.96" cy="16.76" rx="1.82" ry="1.84"/><path class="cls-1" d="M31.36,10.58,19.53,20a2.24,2.24,0,0,1-1.76.48,2.28,2.28,0,0,1-1.46-.93L14.86,17.6a4.32,4.32,0,0,0-6-.86h0a.42.42,0,0,0-.08.58l8.94,9.59a.41.41,0,0,0,.29.16A.4.4,0,0,0,18.3,27L37.07,11.51a.42.42,0,0,0,.15-.32V1.33A1.33,1.33,0,0,0,35.89,0H1.33A1.33,1.33,0,0,0,0,1.33V35.89a1.33,1.33,0,0,0,1.33,1.33H35.89a1.33,1.33,0,0,0,1.33-1.33V20.14a.41.41,0,0,0-.4-.42A4.31,4.31,0,0,0,32.5,24v6.75a1.71,1.71,0,0,1-1.71,1.71H6.92a2.2,2.2,0,0,1-2.2-2.2V6.92a2.2,2.2,0,0,1,2.2-2.2H30.3a2.2,2.2,0,0,1,2.2,2.2V8.14A2.91,2.91,0,0,1,31.36,10.58Z"/><rect class="cls-1" x="47.68" y="54.13" width="5.93" height="20.53" rx="1.22" ry="1.22"/><rect class="cls-1" x="39.06" y="59.49" width="5.93" height="15.17" rx="1.22" ry="1.22"/><rect class="cls-1" x="56.48" y="48.07" width="5.93" height="26.6" rx="1.22" ry="1.22"/><rect class="cls-1" x="65.46" y="53.14" width="5.93" height="21.53" rx="1.22" ry="1.22"/><rect class="cls-1" x="74.09" y="44.32" width="5.93" height="30.35" rx="1.22" ry="1.22"/><rect class="cls-1" x="82.41" y="37.89" width="5.93" height="36.78" rx="1.22" ry="1.22"/><rect class="cls-1" x="91.3" y="46.63" width="5.93" height="28.04" rx="1.22" ry="1.22"/><polygon class="cls-1" points="98.38 78.13 35.67 78.13 35.67 43.62 36.56 43.62 36.56 77.24 98.38 77.24 98.38 78.13"/><path class="cls-1" d="M58.57,80.48l-.77,1.81a.89.89,0,0,1-.29.42.71.71,0,0,1-.42.12.87.87,0,0,1-.26,0,.58.58,0,0,1-.21-.11l.18-.35a.43.43,0,0,0,.13.08l.15,0a.26.26,0,0,0,.17,0,.42.42,0,0,0,.11-.16v0l-.74-1.72h.51l.48,1.16.48-1.16Z"/><path class="cls-1" d="M59.05,82.1a.84.84,0,0,1-.34-.31.92.92,0,0,1,0-.91.84.84,0,0,1,.34-.31,1.09,1.09,0,0,1,1,0,.84.84,0,0,1,.33.31.91.91,0,0,1,0,.91.84.84,0,0,1-.33.31,1.09,1.09,0,0,1-1,0Zm.8-.42a.55.55,0,0,0,0-.69.41.41,0,0,0-.31-.13.42.42,0,0,0-.31.13.54.54,0,0,0,0,.69.42.42,0,0,0,.31.13A.41.41,0,0,0,59.85,81.68Z"/><path class="cls-1" d="M62.57,80.48V81.9a.91.91,0,0,1-.24.7,1,1,0,0,1-.72.23,1.78,1.78,0,0,1-.47-.06,1,1,0,0,1-.37-.17l.2-.36a.81.81,0,0,0,.27.14,1.09,1.09,0,0,0,.33.05.54.54,0,0,0,.38-.12.46.46,0,0,0,.12-.35v-.07a.69.69,0,0,1-.54.21.91.91,0,0,1-.43-.1.79.79,0,0,1-.31-.29.87.87,0,0,1,0-.86.79.79,0,0,1,.31-.29.91.91,0,0,1,.43-.1.68.68,0,0,1,.57.24v-.22ZM62,81.58A.43.43,0,0,0,62,81a.46.46,0,0,0-.32-.12.46.46,0,0,0-.32.12.43.43,0,0,0,0,.61.46.46,0,0,0,.32.12A.46.46,0,0,0,62,81.58Z"/><path class="cls-1" d="M64.33,80.64a.72.72,0,0,1,.21.57v1h-.46V82a.55.55,0,0,1-.52.24.81.81,0,0,1-.34-.07A.51.51,0,0,1,63,82a.48.48,0,0,1-.08-.27.44.44,0,0,1,.18-.37.91.91,0,0,1,.55-.14H64a.32.32,0,0,0-.1-.25.43.43,0,0,0-.3-.09.86.86,0,0,0-.27,0,.7.7,0,0,0-.22.12L63,80.66a1.07,1.07,0,0,1,.34-.15,1.51,1.51,0,0,1,.4-.05A.89.89,0,0,1,64.33,80.64Zm-.42,1.18a.32.32,0,0,0,.14-.17v-.17h-.34q-.31,0-.31.2a.18.18,0,0,0,.07.15.33.33,0,0,0,.2.06A.43.43,0,0,0,63.91,81.82Z"/><path class="cls-1" d="M66.22,82.1a.86.86,0,0,1,0-1.54,1.05,1.05,0,0,1,.49-.11,1,1,0,0,1,.47.11.66.66,0,0,1,.29.32l-.38.21a.42.42,0,0,0-.38-.24.43.43,0,0,0-.32.13.54.54,0,0,0,0,.69.43.43,0,0,0,.32.13.41.41,0,0,0,.38-.24l.38.21a.67.67,0,0,1-.29.32.94.94,0,0,1-.47.11A1.05,1.05,0,0,1,66.22,82.1Z"/><path class="cls-1" d="M67.76,79.83h.5v2.36h-.5Z"/><path class="cls-1" d="M70,80.64a.72.72,0,0,1,.21.57v1h-.46V82a.55.55,0,0,1-.52.24.81.81,0,0,1-.34-.07.51.51,0,0,1-.22-.18.48.48,0,0,1-.08-.27.45.45,0,0,1,.18-.37.91.91,0,0,1,.55-.14h.39a.32.32,0,0,0-.1-.25.44.44,0,0,0-.3-.09.86.86,0,0,0-.27,0,.7.7,0,0,0-.22.12l-.18-.35a1.08,1.08,0,0,1,.34-.15,1.51,1.51,0,0,1,.4-.05A.89.89,0,0,1,70,80.64Zm-.42,1.18a.32.32,0,0,0,.14-.17v-.17h-.34q-.3,0-.3.2a.18.18,0,0,0,.07.15.34.34,0,0,0,.21.06A.43.43,0,0,0,69.59,81.82Z"/><path class="cls-1" d="M70.83,82.16a1.08,1.08,0,0,1-.32-.13l.17-.36a1,1,0,0,0,.28.12,1.17,1.17,0,0,0,.32,0q.31,0,.31-.16a.11.11,0,0,0-.09-.1l-.26-.05-.35-.07a.54.54,0,0,1-.24-.15.42.42,0,0,1-.1-.3.47.47,0,0,1,.09-.29.61.61,0,0,1,.27-.2,1.17,1.17,0,0,1,.42-.07,1.65,1.65,0,0,1,.36,0,1,1,0,0,1,.3.11l-.17.35a1,1,0,0,0-.49-.13.5.5,0,0,0-.24,0A.13.13,0,0,0,71,81a.11.11,0,0,0,.09.11l.27.06.34.07a.52.52,0,0,1,.23.14.41.41,0,0,1,.1.29A.45.45,0,0,1,72,82a.61.61,0,0,1-.28.19,1.23,1.23,0,0,1-.43.07A1.66,1.66,0,0,1,70.83,82.16Z"/><path class="cls-1" d="M72.52,82.16a1.08,1.08,0,0,1-.32-.13l.17-.36a1,1,0,0,0,.28.12,1.17,1.17,0,0,0,.32,0q.31,0,.31-.16a.11.11,0,0,0-.09-.1l-.26-.05-.35-.07a.54.54,0,0,1-.24-.15.42.42,0,0,1-.1-.3.47.47,0,0,1,.09-.29.61.61,0,0,1,.27-.2,1.17,1.17,0,0,1,.42-.07,1.65,1.65,0,0,1,.36,0,1,1,0,0,1,.3.11l-.17.35a1,1,0,0,0-.49-.13.5.5,0,0,0-.24,0,.13.13,0,0,0-.08.11.11.11,0,0,0,.09.11l.27.06.34.07a.52.52,0,0,1,.23.14.41.41,0,0,1,.1.29.45.45,0,0,1-.1.28.61.61,0,0,1-.28.19,1.23,1.23,0,0,1-.43.07A1.66,1.66,0,0,1,72.52,82.16Z"/><path class="cls-1" d="M75.71,81.47H74.42a.4.4,0,0,0,.17.25.55.55,0,0,0,.32.09.66.66,0,0,0,.24,0,.58.58,0,0,0,.19-.13l.26.29a.89.89,0,0,1-.71.28,1.12,1.12,0,0,1-.51-.11.82.82,0,0,1-.34-.31.92.92,0,0,1,0-.91.83.83,0,0,1,.33-.31,1,1,0,0,1,.92,0,.79.79,0,0,1,.32.31.92.92,0,0,1,.12.47Zm-1.16-.55a.41.41,0,0,0-.14.26h.84a.41.41,0,0,0-.14-.26.42.42,0,0,0-.28-.1A.43.43,0,0,0,74.55,80.92Z"/><path class="cls-1" d="M76.21,82.16a1.08,1.08,0,0,1-.32-.13l.17-.36a1,1,0,0,0,.28.12,1.17,1.17,0,0,0,.32,0q.31,0,.31-.16a.11.11,0,0,0-.09-.1l-.26-.05-.35-.07a.54.54,0,0,1-.24-.15.42.42,0,0,1-.1-.3.47.47,0,0,1,.09-.29.61.61,0,0,1,.27-.2,1.17,1.17,0,0,1,.42-.07,1.65,1.65,0,0,1,.36,0,1,1,0,0,1,.3.11l-.17.35a1,1,0,0,0-.49-.13.5.5,0,0,0-.24,0,.13.13,0,0,0-.08.11.11.11,0,0,0,.09.11l.27.06.34.07a.52.52,0,0,1,.23.14.41.41,0,0,1,.1.29.45.45,0,0,1-.1.28.61.61,0,0,1-.28.19,1.23,1.23,0,0,1-.43.07A1.66,1.66,0,0,1,76.21,82.16Z"/><path class="cls-1" d="M31.42,71.93a.71.71,0,0,1,.28-.28.92.92,0,0,1,.83,0,.71.71,0,0,1,.28.28.78.78,0,0,1,.1.39.59.59,0,0,1-.19.46h.72v.45H31.35V72.8h.18a.59.59,0,0,1-.2-.48A.78.78,0,0,1,31.42,71.93Zm1,.19a.49.49,0,0,0-.62,0,.4.4,0,0,0,0,.56.49.49,0,0,0,.62,0,.4.4,0,0,0,0-.56Z"/><path class="cls-1" d="M32.24,69.76v1.16a.36.36,0,0,0,.23-.15.49.49,0,0,0,.08-.29.59.59,0,0,0,0-.21.51.51,0,0,0-.11-.17l.26-.24a.8.8,0,0,1,.25.63,1,1,0,0,1-.1.46.75.75,0,0,1-.28.31.78.78,0,0,1-.41.11.79.79,0,0,1-.41-.11.75.75,0,0,1-.28-.29.91.91,0,0,1,0-.83.71.71,0,0,1,.28-.29.83.83,0,0,1,.42-.1Zm-.49,1a.36.36,0,0,0,.23.13v-.76a.37.37,0,0,0-.23.13.37.37,0,0,0-.09.25A.38.38,0,0,0,31.75,70.81Z"/><path class="cls-1" d="M32.8,69.16a.76.76,0,0,1-.28.3.82.82,0,0,1-.82,0,.76.76,0,0,1-.28-.3,1,1,0,0,1,0-.87.75.75,0,0,1,.28-.3.82.82,0,0,1,.82,0,.75.75,0,0,1,.28.3,1,1,0,0,1,0,.87Zm-.38-.72a.49.49,0,0,0-.62,0,.37.37,0,0,0-.12.28.37.37,0,0,0,.12.28.49.49,0,0,0,.62,0,.38.38,0,0,0,.12-.28A.37.37,0,0,0,32.42,68.45Z"/><path class="cls-1" d="M31.42,66.29A.71.71,0,0,1,31.7,66a.92.92,0,0,1,.83,0,.71.71,0,0,1,.28.28.78.78,0,0,1,.1.39.59.59,0,0,1-.19.46h.72v.45H31.35v-.43h.18a.59.59,0,0,1-.2-.48A.78.78,0,0,1,31.42,66.29Zm1,.19a.49.49,0,0,0-.62,0,.4.4,0,0,0,0,.56.49.49,0,0,0,.62,0,.4.4,0,0,0,0-.56Z"/><path class="cls-1" d="M30.76,65.62v-.45h2.12v.45Z"/><path class="cls-1" d="M32.24,63.26v1.16a.36.36,0,0,0,.23-.15.49.49,0,0,0,.08-.29.59.59,0,0,0,0-.21.52.52,0,0,0-.11-.17l.26-.24a.8.8,0,0,1,.25.63,1,1,0,0,1-.1.46.74.74,0,0,1-.28.31.82.82,0,0,1-.82,0,.75.75,0,0,1-.28-.29.91.91,0,0,1,0-.83.71.71,0,0,1,.28-.29.83.83,0,0,1,.42-.1Zm-.49,1a.36.36,0,0,0,.23.13v-.76a.37.37,0,0,0-.23.13.37.37,0,0,0-.09.25A.38.38,0,0,0,31.75,64.3Z"/><path class="cls-1" d="M31.49,61a.65.65,0,0,1,.51-.19h.88v.42h-.19a.5.5,0,0,1,.21.47.73.73,0,0,1-.06.31.45.45,0,0,1-.17.2.43.43,0,0,1-.24.07.4.4,0,0,1-.34-.16.82.82,0,0,1-.12-.5v-.35a.29.29,0,0,0-.22.09.39.39,0,0,0-.08.27.77.77,0,0,0,0,.24.63.63,0,0,0,.1.2l-.31.16a1,1,0,0,1-.14-.3,1.36,1.36,0,0,1,0-.36A.8.8,0,0,1,31.49,61Zm1.06.38a.29.29,0,0,0-.16-.13h-.16v.31q0,.27.18.27a.16.16,0,0,0,.14-.07.3.3,0,0,0,0-.18A.39.39,0,0,0,32.55,61.36Z"/><path class="cls-1" d="M32.81,59.4a.46.46,0,0,1,.07.16.83.83,0,0,1,0,.2.6.6,0,0,1-.14.42.53.53,0,0,1-.41.15h-.63v.24h-.34v-.24H31v-.45h.37V59.5h.34v.38h.63a.21.21,0,0,0,.15,0,.19.19,0,0,0,.05-.14.29.29,0,0,0-.06-.18Z"/><path class="cls-1" d="M32.81,58.19a.46.46,0,0,1,.07.16.83.83,0,0,1,0,.2.6.6,0,0,1-.14.42.53.53,0,0,1-.41.15h-.63v.24h-.34v-.24H31v-.45h.37V58.3h.34v.38h.63a.21.21,0,0,0,.15,0,.19.19,0,0,0,.05-.14.29.29,0,0,0-.06-.18Z"/><path class="cls-1" d="M32.24,56.49v1.16a.36.36,0,0,0,.23-.15.49.49,0,0,0,.08-.29.59.59,0,0,0,0-.21.52.52,0,0,0-.11-.17l.26-.24a.8.8,0,0,1,.25.63,1,1,0,0,1-.1.46.74.74,0,0,1-.28.31.82.82,0,0,1-.82,0,.75.75,0,0,1-.28-.29.91.91,0,0,1,0-.83.71.71,0,0,1,.28-.29.83.83,0,0,1,.42-.1Zm-.49,1a.36.36,0,0,0,.23.13V56.9a.37.37,0,0,0-.23.13.37.37,0,0,0-.09.25A.38.38,0,0,0,31.75,57.53Z"/><path class="cls-1" d="M31.5,54.79a.68.68,0,0,1,.51-.18h.88v.45h-.81a.4.4,0,0,0-.27.08.29.29,0,0,0-.09.23.36.36,0,0,0,.1.27.43.43,0,0,0,.31.1h.76v.45H31.35v-.43h.18a.59.59,0,0,1-.15-.22.76.76,0,0,1-.05-.29A.63.63,0,0,1,31.5,54.79Z"/><path class="cls-1" d="M30.76,52.63h2.12v.43h-.18a.59.59,0,0,1,.2.48.8.8,0,0,1-.1.39.69.69,0,0,1-.28.28.92.92,0,0,1-.83,0,.69.69,0,0,1-.28-.28.8.8,0,0,1-.1-.39.59.59,0,0,1,.19-.46h-.75Zm1.66.55a.49.49,0,0,0-.62,0,.37.37,0,0,0-.12.28.38.38,0,0,0,.12.28.49.49,0,0,0,.62,0,.38.38,0,0,0,.12-.28A.37.37,0,0,0,32.42,53.18Z"/><path class="cls-1" d="M31.06,52.19a.24.24,0,0,1-.35,0,.28.28,0,0,1-.07-.2.29.29,0,0,1,.07-.2.22.22,0,0,1,.17-.08.24.24,0,0,1,.18.08.28.28,0,0,1,.07.2A.28.28,0,0,1,31.06,52.19Zm.29,0v-.45h1.54v.45Z"/><path class="cls-1" d="M31.5,50a.68.68,0,0,1,.51-.18h.88v.45h-.81a.4.4,0,0,0-.27.08.29.29,0,0,0-.09.23.36.36,0,0,0,.1.27.43.43,0,0,0,.31.1h.76v.45H31.35v-.43h.18a.59.59,0,0,1-.15-.22.76.76,0,0,1-.05-.29A.63.63,0,0,1,31.5,50Z"/><path class="cls-1" d="M31.35,47.78h1.28a.82.82,0,0,1,.63.22.91.91,0,0,1,.21.64,1.6,1.6,0,0,1-.05.42.93.93,0,0,1-.16.33l-.32-.18a.73.73,0,0,0,.13-.25,1,1,0,0,0,0-.3.48.48,0,0,0-.1-.34.42.42,0,0,0-.32-.11h-.07a.62.62,0,0,1,.19.49.82.82,0,0,1-.09.39.7.7,0,0,1-.26.28.78.78,0,0,1-.78,0,.71.71,0,0,1-.26-.28.82.82,0,0,1-.09-.39.61.61,0,0,1,.22-.51h-.2Zm1,.55a.39.39,0,0,0-.55,0,.41.41,0,0,0-.1.29.41.41,0,0,0,.1.29.38.38,0,0,0,.55,0,.41.41,0,0,0,.1-.29A.41.41,0,0,0,32.34,48.33Z"/></g></g></svg>