<svg xmlns="http://www.w3.org/2000/svg" viewBox="0 0 111.73 112.99"><defs><style>.cls-1{fill:#1f9cd8;}</style></defs><title>Demo Day</title><g id="Layer_2" data-name="Layer 2"><g id="Layer_1-2" data-name="Layer 1"><path class="cls-1" d="M67,9.16V1.73A1.72,1.72,0,0,0,65.29,0H55a1.72,1.72,0,0,0-1.72,1.73V9.16H8.56V76.41C3.66,78.63,1,82.07,1,86.35L0,107a1.7,1.7,0,0,0,1.39,1.72l.83.18A188.65,188.65,0,0,0,41.36,113a188.55,188.55,0,0,0,39.13-4.12l.84-.18A1.69,1.69,0,0,0,82.71,107l-1-20.62c0-8-8.6-10.48-11.83-11.42l-9.1-1.42a.66.66,0,0,1-.57-.66l.23-8.58a.66.66,0,0,1,.17-.4,23.09,23.09,0,0,0,6.21-18C65.78,34.15,55.59,24.8,43.2,24.13,28.63,23.34,16.51,34.37,16.51,48a23.47,23.47,0,0,0,8.1,17.58,25.84,25.84,0,0,0,17,6.36h.26A22.75,22.75,0,0,0,45,71.73V77.6c-2.62.78-8,1.86-16.6-2.11a5.13,5.13,0,0,0-6.55,2c7.42,4.49,12.84,5.71,17.6,5.71a21.27,21.27,0,0,0,9.06-1.75l1.33-.67V66.44a1,1,0,0,0-1.17-.93L45,66.35a16.7,16.7,0,0,1-3.28.32,20.18,20.18,0,0,1-13.33-5A18.27,18.27,0,0,1,22.1,48c0-10.57,9.32-19.11,20.57-18.62,10.15.45,18.41,8.45,18.69,18.1A18,18,0,0,1,55.73,61.1l-.58.56a.69.69,0,0,0-.2.45l-.41,15.24a.67.67,0,0,0,.57.66l13.35,2c6.39,1.89,7.7,3.91,7.7,6.35L77,104.16a181.83,181.83,0,0,1-71.26,0l.82-17.63v-.12c0-2.64,2.7-4.73,5.49-6a2.26,2.26,0,0,0,1.36-2V14H58.1V6.57a1.73,1.73,0,0,1,1.73-1.73h.62a1.72,1.72,0,0,1,1.73,1.73V14h44.71V83.22H91.3a4.84,4.84,0,0,0-4.84,4.84h25.27V9.16Z"/></g></g></svg>