<svg xmlns="http://www.w3.org/2000/svg" viewBox="0 0 77.59 92.15"><defs><style>.cls-1{fill:#931f7f;}.cls-2{fill:#423d91;}.cls-3{fill:#0768b1;}.cls-4{fill:#1c9bd8;}.cls-5{fill:#75caf3;}</style></defs><title>description</title><g id="Layer_2" data-name="Layer 2"><g id="Layer_5" data-name="Layer 5"><path class="cls-1" d="M66.71,26.93H33.35a1.52,1.52,0,0,1-1.52-1.52V22.76a1.52,1.52,0,0,1,1.52-1.52H62.88a2.35,2.35,0,0,1-2.35,2.35H34.17v1h30.2a2.35,2.35,0,0,1,2.35,2.35Z"/><path class="cls-1" d="M66.71,50H33.35a1.52,1.52,0,0,1-1.52-1.52V45.83a1.52,1.52,0,0,1,1.52-1.52H62.88a2.35,2.35,0,0,1-2.35,2.35H34.17v1h30.2A2.35,2.35,0,0,1,66.71,50Z"/><path class="cls-1" d="M66.71,73.08H33.35a1.52,1.52,0,0,1-1.52-1.52V68.9a1.52,1.52,0,0,1,1.52-1.52H62.88a2.35,2.35,0,0,1-2.35,2.35H34.17v1h30.2a2.35,2.35,0,0,1,2.35,2.35Z"/><path class="cls-2" d="M5.62,86.53V5.62H8c3.11,0,7.5-2.52,7.5-5.62H5A5,5,0,0,0,0,5V78.16Z"/><path class="cls-3" d="M0,78.16v9a5,5,0,0,0,5,5H62.43L72,86.53H5.62Z"/><path class="cls-4" d="M72,5.62v80.9l-9.53,5.62H72.57a5,5,0,0,0,5-5V15Z"/><path class="cls-5" d="M77.59,15V5a5,5,0,0,0-5-5h-48A5.62,5.62,0,0,0,19,5.62H72Z"/><path class="cls-1" d="M27.27,32.54H10.48a.6.6,0,0,1-.6-.6V15.14a.6.6,0,0,1,.6-.6H27.27a.6.6,0,0,1,.6.6V31.93A.6.6,0,0,1,27.27,32.54Zm-13.79-3H24.28a.6.6,0,0,0,.6-.6V18.14a.6.6,0,0,0-.6-.6H13.48a.6.6,0,0,0-.6.6V28.93A.6.6,0,0,0,13.48,29.54Z"/><path class="cls-1" d="M27.27,55.61H10.48a.6.6,0,0,1-.6-.6V38.22a.6.6,0,0,1,.6-.6H27.27a.6.6,0,0,1,.6.6v5a.6.6,0,0,1-.22.46l-9.12,7.6a.6.6,0,0,1-.87-.1L14,46.26a.6.6,0,0,1,.12-.84l1.43-1.08a.6.6,0,0,1,.84.12l1.77,2.36a.6.6,0,0,0,.87.1l5.62-4.68a.6.6,0,0,0,.22-.46v-.56a.6.6,0,0,0-.6-.6H13.48a.6.6,0,0,0-.6.6V52a.6.6,0,0,0,.6.6H24.28a.6.6,0,0,0,.6-.6v-1.4a.6.6,0,0,1,.6-.6h1.79a.6.6,0,0,1,.6.6V55A.6.6,0,0,1,27.27,55.61Z"/><path class="cls-1" d="M27.27,78.68H10.48a.6.6,0,0,1-.6-.6V61.29a.6.6,0,0,1,.6-.6H27.27a.6.6,0,0,1,.6.6V78.08A.6.6,0,0,1,27.27,78.68Zm-13.79-3H24.28a.6.6,0,0,0,.6-.6V64.29a.6.6,0,0,0-.6-.6H13.48a.6.6,0,0,0-.6.6V75.08A.6.6,0,0,0,13.48,75.68Z"/></g></g></svg>