<svg id="Layer_2" data-name="Layer 2" xmlns="http://www.w3.org/2000/svg" xmlns:xlink="http://www.w3.org/1999/xlink" viewBox="0 0 438.43 557.74"><defs><style>.cls-1{fill:#1f71b8;}.cls-2{fill:#084794;}.cls-10,.cls-27,.cls-3,.cls-39,.cls-41,.cls-42,.cls-49,.cls-51,.cls-52,.cls-53,.cls-54,.cls-55,.cls-56,.cls-58,.cls-6,.cls-60,.cls-62,.cls-63,.cls-7,.cls-72,.cls-73,.cls-74,.cls-75,.cls-76,.cls-78,.cls-8,.cls-85,.cls-86,.cls-87,.cls-88,.cls-89,.cls-9,.cls-90{fill:none;}.cls-10,.cls-27,.cls-3,.cls-39,.cls-40,.cls-41,.cls-42,.cls-49,.cls-51,.cls-52,.cls-53,.cls-54,.cls-55,.cls-58,.cls-6,.cls-60,.cls-62,.cls-63,.cls-64,.cls-65,.cls-7,.cls-71,.cls-72,.cls-73,.cls-74,.cls-75,.cls-76,.cls-77,.cls-78,.cls-8,.cls-85,.cls-86,.cls-87,.cls-88,.cls-89,.cls-9,.cls-90{stroke-linecap:round;}.cls-11,.cls-3,.cls-51,.cls-52,.cls-53,.cls-55,.cls-56,.cls-58,.cls-6,.cls-60,.cls-62,.cls-63,.cls-68,.cls-69,.cls-7,.cls-70,.cls-77,.cls-78,.cls-8,.cls-90{stroke-miterlimit:10;}.cls-27,.cls-3,.cls-39,.cls-51,.cls-52,.cls-53,.cls-54,.cls-55,.cls-56,.cls-58,.cls-6,.cls-60,.cls-62,.cls-63,.cls-65,.cls-72,.cls-73,.cls-74,.cls-75,.cls-76,.cls-78,.cls-8,.cls-85,.cls-86,.cls-87,.cls-88,.cls-89,.cls-90{stroke-width:3px;}.cls-3{stroke:url(#New_Gradient_Swatch_2);}.cls-4{fill:url(#linear-gradient);}.cls-5{fill:url(#linear-gradient-2);}.cls-6{stroke:url(#New_Gradient_Swatch_2-2);}.cls-7{stroke:#2a3180;}.cls-7,.cls-77{stroke-width:6px;}.cls-8{stroke:url(#linear-gradient-3);}.cls-10,.cls-40,.cls-41,.cls-42,.cls-49,.cls-9{stroke:#c7c7c6;stroke-width:2px;}.cls-10,.cls-27,.cls-39,.cls-40,.cls-41,.cls-42,.cls-49,.cls-54,.cls-64,.cls-65,.cls-71,.cls-72,.cls-73,.cls-74,.cls-75,.cls-76,.cls-85,.cls-86,.cls-87,.cls-88,.cls-89,.cls-9{stroke-linejoin:round;}.cls-10{stroke-dasharray:6.09 7.1;}.cls-11{fill:#fffffd;stroke:#cbc9c9;stroke-width:0.92px;}.cls-12{font-size:10px;}.cls-12,.cls-19,.cls-38{fill:#443f90;}.cls-12,.cls-19{font-family:Montserrat-Bold, Montserrat;font-weight:700;}.cls-13{letter-spacing:0.01em;}.cls-14{letter-spacing:-0.01em;}.cls-15{letter-spacing:0em;}.cls-16{letter-spacing:-0.01em;}.cls-17{letter-spacing:-0.01em;}.cls-18{letter-spacing:-0.02em;}.cls-19{font-size:14px;}.cls-20{letter-spacing:0.01em;}.cls-21{letter-spacing:-0.01em;}.cls-22{letter-spacing:-0.01em;}.cls-23{letter-spacing:-0.01em;}.cls-24{letter-spacing:-0.01em;}.cls-25{letter-spacing:0em;}.cls-26{letter-spacing:0.01em;}.cls-27{stroke:url(#New_Gradient_Swatch_2-3);}.cls-28{fill:url(#linear-gradient-4);}.cls-29{fill:#f5a633;}.cls-30{fill:#e73a2f;}.cls-31{fill:url(#linear-gradient-5);}.cls-32{fill:url(#linear-gradient-6);}.cls-33{fill:#1f9ad7;}.cls-34{fill:#0e69b1;}.cls-35{fill:#e01882;}.cls-36{fill:#76c9f1;}.cls-37{fill:#922381;}.cls-39{stroke:url(#New_Gradient_Swatch_3);}.cls-40{fill:#b2b2b2;}.cls-41{stroke-dasharray:4.11 4.8;}.cls-42{stroke-dasharray:6.02 7.02;}.cls-43{letter-spacing:-0.06em;}.cls-44{letter-spacing:0.01em;}.cls-45{letter-spacing:0em;}.cls-46{letter-spacing:-0.01em;}.cls-47{letter-spacing:-0.01em;}.cls-48{letter-spacing:-0.02em;}.cls-49{stroke-dasharray:6.05 7.06;}.cls-50{fill:url(#New_Gradient_Swatch_3-2);}.cls-51{stroke:url(#New_Gradient_Swatch_2-4);}.cls-52{stroke:url(#New_Gradient_Swatch_3-3);}.cls-53{stroke:url(#New_Gradient_Swatch_2-5);}.cls-54{stroke:url(#New_Gradient_Swatch_2-6);}.cls-55{stroke:url(#New_Gradient_Swatch_2-7);}.cls-56{stroke:url(#New_Gradient_Swatch_2-8);}.cls-57{fill:url(#New_Gradient_Swatch_3-4);}.cls-58{stroke:url(#New_Gradient_Swatch_2-9);}.cls-59{fill:url(#New_Gradient_Swatch_3-5);}.cls-60{stroke:url(#linear-gradient-7);}.cls-61,.cls-64,.cls-65,.cls-68,.cls-69,.cls-70,.cls-71,.cls-77{fill:#fff;}.cls-62{stroke:url(#linear-gradient-8);}.cls-63{stroke:url(#New_Gradient_Swatch_2-10);}.cls-64,.cls-68,.cls-69,.cls-70,.cls-71,.cls-77{stroke:#fff;}.cls-64{stroke-width:8.18px;}.cls-65{stroke:url(#New_Gradient_Swatch_2-11);}.cls-66{fill:url(#New_Gradient_Swatch_3-6);}.cls-67{fill:url(#New_Gradient_Swatch_3-7);}.cls-68{stroke-width:5.62px;}.cls-69{stroke-width:5.36px;}.cls-70{stroke-width:3.79px;}.cls-71{stroke-width:7.57px;}.cls-72{stroke:url(#New_Gradient_Swatch_2-12);}.cls-73{stroke:url(#New_Gradient_Swatch_2-13);}.cls-74{stroke:url(#New_Gradient_Swatch_2-14);}.cls-75{stroke:url(#New_Gradient_Swatch_2-15);}.cls-76{stroke:url(#New_Gradient_Swatch_2-16);}.cls-78{stroke:url(#New_Gradient_Swatch_2-17);}.cls-79{fill:url(#New_Gradient_Swatch_3-8);}.cls-80{fill:url(#New_Gradient_Swatch_3-9);}.cls-81{fill:url(#New_Gradient_Swatch_3-10);}.cls-82{fill:url(#New_Gradient_Swatch_3-11);}.cls-83{fill:url(#New_Gradient_Swatch_3-12);}.cls-84{fill:url(#New_Gradient_Swatch_3-13);}.cls-85{stroke:url(#New_Gradient_Swatch_2-18);}.cls-86{stroke:url(#New_Gradient_Swatch_2-19);}.cls-87{stroke:url(#New_Gradient_Swatch_2-20);}.cls-88{stroke:url(#New_Gradient_Swatch_2-21);}.cls-89{stroke:url(#New_Gradient_Swatch_2-22);}.cls-90{stroke:url(#New_Gradient_Swatch_2-23);}.cls-91{fill:url(#New_Gradient_Swatch_3-14);}.cls-92{fill:url(#New_Gradient_Swatch_3-15);}.cls-93{fill:url(#New_Gradient_Swatch_3-16);}.cls-94{fill:url(#New_Gradient_Swatch_3-17);}.cls-95{fill:url(#New_Gradient_Swatch_3-18);}.cls-96{fill:url(#New_Gradient_Swatch_3-19);}.cls-97{fill:url(#linear-gradient-9);}</style><linearGradient id="New_Gradient_Swatch_2" x1="369.13" y1="320.41" x2="424" y2="375.27" gradientUnits="userSpaceOnUse"><stop offset="0" stop-color="#16ade4"/><stop offset="0.05" stop-color="#14a4dd"/><stop offset="0.25" stop-color="#0d84c5"/><stop offset="0.36" stop-color="#0a78bc"/><stop offset="0.73" stop-color="#343579"/><stop offset="0.97" stop-color="#262551"/></linearGradient><linearGradient id="linear-gradient" x1="389.42" y1="311.53" x2="403.71" y2="325.82" gradientUnits="userSpaceOnUse"><stop offset="0" stop-color="#feec31"/><stop offset="0.37" stop-color="#f08f33"/><stop offset="1" stop-color="#e2322e"/></linearGradient><linearGradient id="linear-gradient-2" x1="313.59" y1="308.15" x2="343.42" y2="337.98" xlink:href="#linear-gradient"/><linearGradient id="New_Gradient_Swatch_2-2" x1="299.96" y1="299.79" x2="357.14" y2="356.97" xlink:href="#New_Gradient_Swatch_2"/><linearGradient id="linear-gradient-3" x1="506.97" y1="527.2" x2="492.16" y2="512.38" gradientTransform="translate(836.17 -330.3) rotate(90)" gradientUnits="userSpaceOnUse"><stop offset="0" stop-color="#f6a734"/><stop offset="0.88" stop-color="#e94630"/><stop offset="1" stop-color="#e73930"/></linearGradient><linearGradient id="New_Gradient_Swatch_2-3" x1="12.49" y1="321.87" x2="51.78" y2="361.16" xlink:href="#New_Gradient_Swatch_2"/><linearGradient id="linear-gradient-4" x1="53.58" y1="352.18" x2="64.32" y2="352.18" gradientTransform="matrix(1, 0, 0, 1, 0, 0)" xlink:href="#linear-gradient-3"/><linearGradient id="linear-gradient-5" x1="347.85" y1="165.65" x2="366.21" y2="165.65" gradientUnits="userSpaceOnUse"><stop offset="0" stop-color="#525252"/><stop offset="0.07" stop-color="#787878"/><stop offset="0.15" stop-color="#9c9c9c"/><stop offset="0.24" stop-color="#bbb"/><stop offset="0.33" stop-color="#d4d4d4"/><stop offset="0.44" stop-color="#e7e7e7"/><stop offset="0.56" stop-color="#f5f5f5"/><stop offset="0.71" stop-color="#fdfdfd"/><stop offset="1" stop-color="#fff"/></linearGradient><linearGradient id="linear-gradient-6" x1="347.85" y1="176.45" x2="347.85" y2="159.17" xlink:href="#linear-gradient-5"/><linearGradient id="New_Gradient_Swatch_3" x1="84.93" y1="36.83" x2="97.9" y2="49.8" xlink:href="#linear-gradient"/><linearGradient id="New_Gradient_Swatch_3-2" x1="206.35" y1="28.53" x2="220.03" y2="42.21" gradientTransform="translate(87.45 -140.39) rotate(45)" xlink:href="#linear-gradient"/><linearGradient id="New_Gradient_Swatch_2-4" x1="186.12" y1="35.55" x2="224.08" y2="73.5" xlink:href="#New_Gradient_Swatch_2"/><linearGradient id="New_Gradient_Swatch_3-3" x1="361.92" y1="30.58" x2="381.5" y2="50.16" xlink:href="#linear-gradient"/><linearGradient id="New_Gradient_Swatch_2-5" x1="301.34" y1="8.4" x2="371.24" y2="78.3" xlink:href="#New_Gradient_Swatch_2"/><linearGradient id="New_Gradient_Swatch_2-6" x1="56.79" y1="29.78" x2="104.85" y2="77.84" xlink:href="#New_Gradient_Swatch_2"/><linearGradient id="New_Gradient_Swatch_2-7" x1="255.51" y1="33.34" x2="293.02" y2="70.85" xlink:href="#New_Gradient_Swatch_2"/><linearGradient id="New_Gradient_Swatch_2-8" x1="636.22" y1="-1134.5" x2="655.08" y2="-1062.8" gradientTransform="matrix(0.86, -0.5, 0.5, 0.86, 147.24, 1320.26)" xlink:href="#New_Gradient_Swatch_2"/><linearGradient id="New_Gradient_Swatch_3-4" x1="655.35" y1="-1111.58" x2="659.14" y2="-1097.15" gradientTransform="translate(-498.91 1139.53)" xlink:href="#linear-gradient"/><linearGradient id="New_Gradient_Swatch_2-9" x1="289.32" y1="151.9" x2="328.9" y2="191.48" xlink:href="#New_Gradient_Swatch_2"/><linearGradient id="New_Gradient_Swatch_3-5" x1="235.44" y1="180.25" x2="250.3" y2="195.11" xlink:href="#linear-gradient"/><linearGradient id="linear-gradient-7" x1="176.4" y1="126.28" x2="262.89" y2="212.78" xlink:href="#New_Gradient_Swatch_2"/><linearGradient id="linear-gradient-8" x1="193.31" y1="320.75" x2="208.38" y2="335.82" xlink:href="#linear-gradient"/><linearGradient id="New_Gradient_Swatch_2-10" x1="174.31" y1="274.09" x2="266.46" y2="366.24" xlink:href="#New_Gradient_Swatch_2"/><linearGradient id="New_Gradient_Swatch_2-11" x1="85.03" y1="296.08" x2="143.33" y2="354.38" xlink:href="#New_Gradient_Swatch_2"/><linearGradient id="New_Gradient_Swatch_3-6" x1="246.32" y1="135.38" x2="259.33" y2="148.38" xlink:href="#linear-gradient"/><linearGradient id="New_Gradient_Swatch_3-7" x1="247.06" y1="280.63" x2="260.07" y2="293.63" xlink:href="#linear-gradient"/><linearGradient id="New_Gradient_Swatch_2-12" x1="39.2" y1="461.18" x2="81.37" y2="503.36" gradientTransform="matrix(-1, 0, 0, 1, 96.51, 0)" xlink:href="#New_Gradient_Swatch_2"/><linearGradient id="New_Gradient_Swatch_2-13" x1="91.11" y1="456.57" x2="126.37" y2="491.83" xlink:href="#New_Gradient_Swatch_2"/><linearGradient id="New_Gradient_Swatch_2-14" x1="142.66" y1="459.38" x2="183.24" y2="499.96" xlink:href="#New_Gradient_Swatch_2"/><linearGradient id="New_Gradient_Swatch_2-15" x1="58.77" y1="454.78" x2="95.81" y2="491.82" xlink:href="#New_Gradient_Swatch_2"/><linearGradient id="New_Gradient_Swatch_2-16" x1="179.77" y1="454.78" x2="216.81" y2="491.82" xlink:href="#New_Gradient_Swatch_2"/><linearGradient id="New_Gradient_Swatch_2-17" x1="118.52" y1="469.49" x2="145.61" y2="496.58" xlink:href="#New_Gradient_Swatch_2"/><linearGradient id="New_Gradient_Swatch_3-8" x1="723.28" y1="607.67" x2="733.46" y2="597.49" gradientTransform="matrix(0, 1, 1, 0, -564.74, -287.61)" xlink:href="#linear-gradient"/><linearGradient id="New_Gradient_Swatch_3-9" x1="103.99" y1="434.05" x2="113.7" y2="443.76" xlink:href="#linear-gradient"/><linearGradient id="New_Gradient_Swatch_3-10" x1="721.43" y1="508.49" x2="730.73" y2="499.19" gradientTransform="translate(661.25 -287.61) rotate(90)" xlink:href="#linear-gradient"/><linearGradient id="New_Gradient_Swatch_3-11" x1="72.73" y1="434.03" x2="81.84" y2="443.15" xlink:href="#linear-gradient"/><linearGradient id="New_Gradient_Swatch_3-12" x1="193.73" y1="434.03" x2="202.84" y2="443.15" xlink:href="#linear-gradient"/><linearGradient id="New_Gradient_Swatch_3-13" x1="127.91" y1="455.35" x2="136.39" y2="463.83" xlink:href="#linear-gradient"/><linearGradient id="New_Gradient_Swatch_2-18" x1="-161.38" y1="461.18" x2="-119.2" y2="503.36" gradientTransform="matrix(-1, 0, 0, 1, 96.51, 0)" xlink:href="#New_Gradient_Swatch_2"/><linearGradient id="New_Gradient_Swatch_2-19" x1="291.68" y1="456.57" x2="326.94" y2="491.83" xlink:href="#New_Gradient_Swatch_2"/><linearGradient id="New_Gradient_Swatch_2-20" x1="343.23" y1="459.38" x2="383.82" y2="499.96" xlink:href="#New_Gradient_Swatch_2"/><linearGradient id="New_Gradient_Swatch_2-21" x1="259.34" y1="454.78" x2="296.38" y2="491.82" xlink:href="#New_Gradient_Swatch_2"/><linearGradient id="New_Gradient_Swatch_2-22" x1="380.34" y1="454.78" x2="417.38" y2="491.82" xlink:href="#New_Gradient_Swatch_2"/><linearGradient id="New_Gradient_Swatch_2-23" x1="319.1" y1="469.49" x2="346.18" y2="496.58" xlink:href="#New_Gradient_Swatch_2"/><linearGradient id="New_Gradient_Swatch_3-14" x1="723.28" y1="808.25" x2="733.46" y2="798.06" gradientTransform="matrix(0, 1, 1, 0, -564.74, -287.61)" xlink:href="#linear-gradient"/><linearGradient id="New_Gradient_Swatch_3-15" x1="304.56" y1="434.05" x2="314.27" y2="443.76" xlink:href="#linear-gradient"/><linearGradient id="New_Gradient_Swatch_3-16" x1="721.43" y1="307.92" x2="730.73" y2="298.61" gradientTransform="translate(661.25 -287.61) rotate(90)" xlink:href="#linear-gradient"/><linearGradient id="New_Gradient_Swatch_3-17" x1="273.3" y1="434.03" x2="282.42" y2="443.15" xlink:href="#linear-gradient"/><linearGradient id="New_Gradient_Swatch_3-18" x1="394.3" y1="434.03" x2="403.42" y2="443.15" xlink:href="#linear-gradient"/><linearGradient id="New_Gradient_Swatch_3-19" x1="328.48" y1="455.35" x2="336.96" y2="463.83" xlink:href="#linear-gradient"/><linearGradient id="linear-gradient-9" x1="6035.48" y1="319.54" x2="6016.41" y2="338.61" gradientTransform="matrix(-1, 0, 0, 1, 6127.89, 0)" xlink:href="#linear-gradient"/></defs><title>first</title><circle class="cls-1" cx="381.85" cy="332.18" r="2.86"/><circle class="cls-1" cx="381.85" cy="348.14" r="2.86"/><circle class="cls-2" cx="381.85" cy="364.52" r="2.86"/><path class="cls-3" d="M389.61,332.18h23.44m-23.44,16h23.44m-23.44,16.38h23.44M421,375.29v-54.9a2.14,2.14,0,0,0-2.14-2.14H374.29a2.14,2.14,0,0,0-2.14,2.14v54.9a2.14,2.14,0,0,0,2.14,2.14h44.54A2.14,2.14,0,0,0,421,375.29Z"/><path class="cls-4" d="M399.88,313.73a2.94,2.94,0,0,0-.71-3.13,3.86,3.86,0,0,0-2.67-1.06,3.39,3.39,0,0,0-3.26,4.19h-5.86a.43.43,0,0,0-.43.43v9a.43.43,0,0,0,.43.43h18.35a.43.43,0,0,0,.43-.43v-9a.43.43,0,0,0-.43-.43Z"/><path class="cls-5" d="M333,320.35V326a1.65,1.65,0,0,1-1.65,1.65h-5.7A1.65,1.65,0,0,1,324,326v-5.7a1.65,1.65,0,0,1,1.65-1.65h5.7A1.65,1.65,0,0,1,333,320.35Zm-12.42-12.79h-5.7a1.65,1.65,0,0,0-1.65,1.65v5.7a1.65,1.65,0,0,0,1.65,1.65h5.7a1.65,1.65,0,0,0,1.65-1.65v-5.7A1.65,1.65,0,0,0,320.57,307.55Zm10.77,0h-5.7a1.65,1.65,0,0,0-1.65,1.65v5.7a1.65,1.65,0,0,0,1.65,1.65h5.7a1.65,1.65,0,0,0,1.65-1.65v-5.7A1.65,1.65,0,0,0,331.34,307.55Zm10.8,0h-5.7a1.65,1.65,0,0,0-1.65,1.65v5.7a1.65,1.65,0,0,0,1.65,1.65h5.7a1.65,1.65,0,0,0,1.65-1.65v-5.7A1.65,1.65,0,0,0,342.14,307.55ZM320.57,318.7h-5.7a1.65,1.65,0,0,0-1.65,1.65V326a1.65,1.65,0,0,0,1.65,1.65h5.7a1.65,1.65,0,0,0,1.65-1.65v-5.7A1.65,1.65,0,0,0,320.57,318.7Zm21.57,0h-5.7a1.65,1.65,0,0,0-1.65,1.65V326a1.65,1.65,0,0,0,1.65,1.65h5.7a1.65,1.65,0,0,0,1.65-1.65v-5.7A1.65,1.65,0,0,0,342.14,318.7Zm-21.57,10.87h-5.7a1.65,1.65,0,0,0-1.65,1.65v5.7a1.65,1.65,0,0,0,1.65,1.65h5.7a1.65,1.65,0,0,0,1.65-1.65v-5.7A1.65,1.65,0,0,0,320.57,329.57Zm10.77,0h-5.7a1.65,1.65,0,0,0-1.65,1.65v5.7a1.65,1.65,0,0,0,1.65,1.65h5.7a1.65,1.65,0,0,0,1.65-1.65v-5.7A1.65,1.65,0,0,0,331.34,329.57Zm10.8,0h-5.7a1.65,1.65,0,0,0-1.65,1.65v5.7a1.65,1.65,0,0,0,1.65,1.65h5.7a1.65,1.65,0,0,0,1.65-1.65v-5.7A1.65,1.65,0,0,0,342.14,329.57Z"/><path class="cls-6" d="M328.74,292.7h18.91c.72,0,1.3,1.29,1.3,2.89v65.58c0,1.59-.58,2.89-1.3,2.89H309.45c-.72,0-1.3-1.29-1.3-2.89V295.58c0-1.59.58-2.89,1.3-2.89h19.3m-20.17,9.71h40.38m-40.38,46.15h40.38m-24-51h7.55"/><line class="cls-7" x1="328.61" y1="356.2" x2="328.91" y2="356.2"/><polyline class="cls-8" points="307.32 172.88 312.76 178.33 325.45 165.63"/><line class="cls-9" x1="11.38" y1="291.65" x2="14.35" y2="291.2"/><polyline class="cls-10" points="21.37 290.15 220.99 260.18 422.24 290.67"/><line class="cls-9" x1="425.75" y1="291.2" x2="428.71" y2="291.65"/><polygon class="cls-11" points="126.28 144.88 148.64 169.99 126.28 196.07 39.09 196.07 39.09 144.88 126.28 144.88"/><text class="cls-12" transform="translate(60.46 163.08)">W<tspan class="cls-13" x="11.63" y="0">h</tspan><tspan x="18.6" y="0">en </tspan><tspan class="cls-14" x="34.65" y="0">y</tspan><tspan x="40.48" y="0">our</tspan><tspan x="-12.78" y="11">boo</tspan><tspan class="cls-15" x="7.22" y="11">k</tspan><tspan x="13.78" y="11">i</tspan><tspan class="cls-13" x="16.79" y="11">n</tspan><tspan x="23.76" y="11">g </tspan><tspan class="cls-16" x="33.59" y="11">s</tspan><tspan class="cls-17" x="38.8" y="11">y</tspan><tspan x="44.7" y="11">s</tspan><tspan class="cls-18" x="50.01" y="11">t</tspan><tspan x="54.19" y="11">em </tspan><tspan x="10.19" y="22">is open</tspan></text><text class="cls-19" transform="translate(133.34 524.76)"><tspan class="cls-20">L</tspan><tspan x="8.54" y="0">a</tspan><tspan class="cls-21" x="17.18" y="0">r</tspan><tspan x="23.09" y="0">ger </tspan><tspan class="cls-22" x="51.72" y="0">c</tspan><tspan x="59.89" y="0">ommuni</tspan><tspan class="cls-23" x="121.94" y="0">t</tspan><tspan x="127.89" y="0">y </tspan><tspan class="cls-21" x="140.22" y="0">r</tspan><tspan class="cls-24" x="146.13" y="0">e</tspan><tspan class="cls-20" x="154.75" y="0">a</tspan><tspan class="cls-25" x="163.48" y="0">c</tspan><tspan x="171.69" y="0">h</tspan></text><text class="cls-19" transform="translate(135.24 378.94)">Mo<tspan class="cls-21" x="22.54" y="0">r</tspan><tspan x="28.45" y="0">e apps a</tspan><tspan class="cls-20" x="89.24" y="0">n</tspan><tspan x="98.99" y="0">d se</tspan><tspan class="cls-26" x="128.91" y="0">r</tspan><tspan x="135.15" y="0">vi</tspan><tspan class="cls-22" x="147.74" y="0">c</tspan><tspan x="155.92" y="0">es</tspan></text><path class="cls-27" d="M54.28,352.89a9.85,9.85,0,0,0-7.73,3.38A7.55,7.55,0,0,0,45,359.05a24.26,24.26,0,0,0-.69,3.48v0A14.48,14.48,0,0,1,30,374.8h0a14.47,14.47,0,0,1-10.22-24.7,15.93,15.93,0,0,1,6.74-3.51l.58-.19c2.35-.75,4.41-1.5,5.74-3.1A7.92,7.92,0,0,0,34.61,339l0-.49M20.27,319.26H17.22c0,10.51,7.62,19,17,19s17-8.52,17-19H48.37"/><path class="cls-28" d="M59,349.81a2.37,2.37,0,1,1-1.68.69,2.36,2.36,0,0,1,1.68-.69m0-3a5.37,5.37,0,1,0,3.8,1.57,5.35,5.35,0,0,0-3.8-1.57Z"/><path class="cls-29" d="M374,176.64h13.59c3.85,0-.74,2.06-.74-1.42v1l1.58,1.53,1.12.59c.82-.17-.18,1.25.56,2.21.47.61,2.26,2.17,2.36,2.32h-9.55C379,182.92,374,180.11,374,176.64Z"/><path class="cls-30" d="M389.71,177.81l.43.71c.82-.17.51,1.14,1.25,2.1a24.8,24.8,0,0,1,1.36,2.3l-.19,0c-1.33-.08-12.26.39-14.57-6.3h10.88"/><path class="cls-31" d="M364.05,160.82a6.46,6.46,0,0,0-4.32-1.65H347.85v6.48h11.88a6.48,6.48,0,0,1,6.48,6.48v-6.48A6.46,6.46,0,0,0,364.05,160.82Z"/><path class="cls-32" d="M347.85,176.45v-10.8a6.48,6.48,0,0,1,6.48-6.48h-6.48a6.48,6.48,0,0,0-6.48,6.48V170A6.48,6.48,0,0,0,347.85,176.45Z"/><path class="cls-33" d="M364.05,160.82a6.46,6.46,0,0,0-4.32-1.65H347.85v6.48h11.88s6.48,7,6.48,10.61V165.65A6.46,6.46,0,0,0,364.05,160.82Z"/><path class="cls-34" d="M347.85,176.45V165.62l6.94-6.45s0,0,0,0h-6.94a6.48,6.48,0,0,0-6.48,6.48V170C341.36,173.55,342.81,176.45,347.85,176.45Z"/><path class="cls-35" d="M381.71,159l11,23.89h0a11.41,11.41,0,0,1-9.7-6.32l-5.27-11.38a4.36,4.36,0,0,1,3.93-6.19Z"/><path class="cls-36" d="M359.73,165.65v10.78c0,4.2-6.27,6.51-9.85,6.51h9.85a6.48,6.48,0,0,0,6.48-6.48v-4.32Z"/><path class="cls-37" d="M381.76,159A12,12,0,0,0,370.32,167c-4.45,10.89-7.36,16-18.32,16h10.27c5.57,0,8.9-2,12-8.19C377.27,168.95,377.62,162.67,381.76,159Z"/><path class="cls-38" d="M341.37,175.17a7.41,7.41,0,0,0,6.51,7.76h5c3.64,0,6.82-3.67,6.82-6.48H347.85L341.37,169"/><path class="cls-39" d="M87.07,36.81l-5.85,5.85m12.64-1.75-5.08,5.16M101.6,44l-5.34,5.34"/><polyline class="cls-9" points="208.23 401.09 220.39 413.24 232.53 401.09"/><line class="cls-40" x1="220.61" y1="389.97" x2="220.61" y2="411.51"/><line class="cls-9" x1="220.61" y1="228.97" x2="220.61" y2="253.5"/><polyline class="cls-9" points="208.23 242.36 220.39 254.52 232.53 242.37"/><line class="cls-9" x1="116.88" y1="233.42" x2="93.06" y2="257.25"/><polyline class="cls-9" points="92.18 240.62 92.18 257.81 109.36 257.81"/><line class="cls-9" x1="177.33" y1="233.42" x2="153.5" y2="257.25"/><polyline class="cls-9" points="152.63 240.62 152.63 257.81 169.81 257.81"/><line class="cls-9" x1="322.75" y1="233.42" x2="346.26" y2="256.93"/><polyline class="cls-9" points="329.64 257.81 346.82 257.81 346.82 240.63"/><line class="cls-9" x1="263.07" y1="233.42" x2="286.59" y2="256.93"/><polyline class="cls-9" points="269.96 257.81 287.15 257.81 287.15 240.63"/><line class="cls-9" x1="11.72" y1="440.05" x2="11.72" y2="437.05"/><line class="cls-41" x1="11.72" y1="432.26" x2="11.72" y2="425.75"/><polyline class="cls-9" points="11.72 423.35 11.72 420.35 14.72 420.35"/><line class="cls-42" x1="21.74" y1="420.35" x2="422.54" y2="420.35"/><polyline class="cls-9" points="426.05 420.35 429.05 420.35 429.05 423.35"/><line class="cls-41" x1="429.05" y1="428.15" x2="429.05" y2="434.66"/><line class="cls-9" x1="429.05" y1="437.05" x2="429.05" y2="440.05"/><text class="cls-19" transform="translate(167.4 98.32)"><tspan class="cls-43">Y</tspan><tspan x="8.62" y="0">our </tspan><tspan class="cls-20" x="37.41" y="0">a</tspan><tspan class="cls-44" x="46.13" y="0">c</tspan><tspan x="54.51" y="0">tivities</tspan></text><text class="cls-19" transform="translate(142.04 223.54)"><tspan class="cls-43">Y</tspan><tspan x="8.62" y="0">our boo</tspan><tspan class="cls-45" x="65.41" y="0">k</tspan><tspan x="74.59" y="0">i</tspan><tspan class="cls-20" x="78.81" y="0">n</tspan><tspan x="88.56" y="0">g </tspan><tspan class="cls-46" x="102.33" y="0">s</tspan><tspan class="cls-47" x="109.62" y="0">y</tspan><tspan x="117.88" y="0">s</tspan><tspan class="cls-48" x="125.31" y="0">t</tspan><tspan x="131.17" y="0">em</tspan></text><line class="cls-9" x1="11.72" y1="66.31" x2="14.61" y2="67.09"/><polyline class="cls-49" points="21.43 68.94 221.33 123.31 422.75 68.03"/><line class="cls-9" x1="426.16" y1="67.1" x2="429.05" y2="66.31"/><circle class="cls-50" cx="213.19" cy="35.37" r="9.67" transform="translate(37.43 161.11) rotate(-45)"/><path class="cls-51" d="M171.14,60.84c2.27,3.24,5.32,5,8.59,5A10.11,10.11,0,0,0,187.39,62a9.59,9.59,0,0,0,15.33,0A9.59,9.59,0,0,0,218,62a10.11,10.11,0,0,0,7.66,3.83c3.28,0,6.33-1.78,8.59-5m-11.48-2.12,10.31-10.28a4.49,4.49,0,0,0,.63-5.68,3.59,3.59,0,0,0-3.22-1.86,4.7,4.7,0,0,0-3.42,1.27l-9.24,9.22a1.13,1.13,0,0,1-1.34.2L193,38.88a7.9,7.9,0,0,0-9.38,1.37l-9,9a4.45,4.45,0,0,0-.29,6.11,4.23,4.23,0,0,0,3.12,1.44,4.42,4.42,0,0,0,3.19-1.27l6.87-6.84a1.14,1.14,0,0,1,1.43-.14L193,51.24l-3.57,3.61m28.76,17.46a9.59,9.59,0,0,1-15.33,0,9.59,9.59,0,0,1-15.33,0"/><path class="cls-52" d="M372,57.56a17.19,17.19,0,0,1,17.19-17.19M371.44,57.56a17.19,17.19,0,0,0-17.19-17.19"/><path class="cls-53" d="M354.24,57.56h35.62m-74.17-.28L326.85,73c4.82,6.8,16.09,7.17,21.33,3.45l-.46.32c5.24-3.72,8.63-14.47,3.82-21.27L340.39,39.79Zm21.58,4.29-33.94-47.9m-9.75,4.61L310.92,6"/><path class="cls-54" d="M120.54,55.05C119.1,57.62,102.38,65.18,89,62s-35.81-2.84-35.81-2.84m67.43-5.21v1.65a10.42,10.42,0,0,1-4,8.24c-5.12,3.93-12.37,6.11-20.4,6.14H56.72a5.82,5.82,0,0,1-5.81-5.81,5,5,0,0,1,.84-2.77l1.49-2.23V37.38a4.65,4.65,0,0,1,4.65-4.65,2.92,2.92,0,0,1,2.69,1.77l.49,1.14a8.14,8.14,0,0,0,13.77,2l2.31-2.81a4.66,4.66,0,0,1,6-1l7.93,4.88a45.33,45.33,0,0,0,12,5.17l12.42,3.34A7,7,0,0,1,120.66,53.91Z"/><path class="cls-55" d="M263.65,50.47C267.79,31.53,285.16,30,285.16,30M249.78,55S259.17,67.8,278,62m12.11,9s6.56-14.61-8.78-27.45m13-5.66s-15.64,1-19.48,14.57m-23-10.23s7.8,12.65,22.47,9.56m3.55,24.36s6.6-14-4.55-23.95m1-25.12a25,25,0,1,0,25,25A25,25,0,0,0,274.27,27.07Z"/><path class="cls-56" d="M152.54,63l6.18-3.6,10.65,18.25-6.18,3.6Zm-1.62-9.87-6.85,2L152.54,63l6.18-3.6-2.45-11m-5.34,4.72c8.16-4.76,10.11-16.61,4.36-26.46s-17-14-25.18-9.23S120,34,125.74,43.87,142.77,57.86,150.92,53.1Z"/><circle class="cls-57" cx="158.33" cy="35.17" r="7.45" transform="translate(3.85 84.59) rotate(-30.26)"/><path class="cls-58" d="M271.49,171.85h27.88m33.8,10.91V160.3a5.69,5.69,0,0,0-5.67-5.67H305a5.69,5.69,0,0,0-5.67,5.67v22.46a5.69,5.69,0,0,0,5.67,5.67h22.46A5.69,5.69,0,0,0,333.16,182.76Z"/><rect class="cls-59" x="231.02" y="184.67" width="23.69" height="6.02"/><path class="cls-60" d="M220.14,134.94h47.75a3,3,0,0,1,3.27,2.72v63.75a3,3,0,0,1-3.27,2.72H171.4a3,3,0,0,1-3.27-2.72V137.65a3,3,0,0,1,3.27-2.72h48.74M169.67,148H270.49M182.6,165.63h3m-3,11.4h3m-3,11.4h3m6.35-22.8h26.31M191.93,177h26.31m-26.31,11.4h26.31m40.34-13.2v-6.75a4.2,4.2,0,0,0-4.19-4.19H231.09a4.2,4.2,0,0,0-4.19,4.19v6.75a4.2,4.2,0,0,0,4.19,4.19H254.4A4.2,4.2,0,0,0,258.59,175.23Z"/><rect class="cls-61" x="165.36" y="278.05" width="110.04" height="84.24" rx="5.41" ry="5.41"/><path class="cls-61" d="M270,280.83a2.64,2.64,0,0,1,2.63,2.63v73.42A2.64,2.64,0,0,1,270,359.5H170.77a2.64,2.64,0,0,1-2.63-2.63V283.46a2.64,2.64,0,0,1,2.63-2.63H270m0-5.56H170.77a8.2,8.2,0,0,0-8.19,8.19v73.42a8.2,8.2,0,0,0,8.19,8.19H270a8.2,8.2,0,0,0,8.19-8.19V283.46a8.2,8.2,0,0,0-8.19-8.19Z"/><path class="cls-62" d="M202.26,328.77l-7.62-7.17L185,331.72m32-6.61-6.94-6-13.15,16.41"/><path class="cls-63" d="M270,359.5H170.77a2.64,2.64,0,0,1-2.63-2.63V283.46a2.64,2.64,0,0,1,2.63-2.63H270a2.64,2.64,0,0,1,2.63,2.63v73.42A2.64,2.64,0,0,1,270,359.5ZM168.14,293H272.62M224,307.25h34.24m-34.24,9h34.24M224,326h34.24M224,335.48h34.24m-72.51,10.39h72.51M217,335.07V308.12a.88.88,0,0,0-.87-.87H185.85a.88.88,0,0,0-.87.87v26.95a.88.88,0,0,0,.87.87H216.1A.88.88,0,0,0,217,335.07Z"/><path class="cls-64" d="M152.7,336.34h-2.87L148.58,347l-8.27-10.67h-34.8a2,2,0,0,1-2-2v-37a2,2,0,0,1,2-2H152.7a2,2,0,0,1,2,2v37A2,2,0,0,1,152.7,336.34Z"/><path class="cls-64" d="M77.62,350.78h3l1.3,11.51,8.62-11.51h36.28a2.15,2.15,0,0,0,2.1-2.18v-40a2.15,2.15,0,0,0-2.1-2.18H77.62a2.15,2.15,0,0,0-2.1,2.18v40A2.15,2.15,0,0,0,77.62,350.78Z"/><path class="cls-65" d="M77.62,350.78h3l1.3,11.51,8.62-11.51h36.28a2.15,2.15,0,0,0,2.1-2.18v-40a2.15,2.15,0,0,0-2.1-2.18H77.62a2.15,2.15,0,0,0-2.1,2.18v40A2.15,2.15,0,0,0,77.62,350.78Zm77.1-53.5v37a2,2,0,0,1-2,2h-2.87L148.58,347l-8.27-10.67H128.92v-27.7a2.15,2.15,0,0,0-2.1-2.18H103.5v-9.19a2,2,0,0,1,2-2H152.7A2,2,0,0,1,154.72,297.27Z"/><path class="cls-66" d="M258.59,141.88a3,3,0,1,1,3,3A3,3,0,0,1,258.59,141.88Zm-5.25,3a3,3,0,1,0-3-3A3,3,0,0,0,253.34,144.88Zm-9.28,0a3,3,0,1,0-3-3A3,3,0,0,0,244.06,144.88Z"/><path class="cls-67" d="M259.33,287.13a3,3,0,1,1,3,3A3,3,0,0,1,259.33,287.13Zm-5.25,3a3,3,0,1,0-3-3A3,3,0,0,0,254.08,290.13Zm-9.28,0a3,3,0,1,0-3-3A3,3,0,0,0,244.8,290.13Z"/><circle class="cls-68" cx="37.85" cy="440.76" r="7.2"/><path class="cls-69" d="M14.63,502.28a5,5,0,0,1-2.46-6.67l7.43-17,0-.09c.63-1.44,1.22-2.81,3.34-3.17h.09l11.48-1.21L34.81,463l-12.37,5a4.61,4.61,0,0,1-4-8.28l21.32-10.47.1,0a6,6,0,0,1,5.75.56,6.4,6.4,0,0,1,2.83,5.1v1.36c-.12,13.86-.18,21.65-.18,23.14a6.47,6.47,0,0,1-6.27,6.34l-13.27.14L21.31,499.9l0,0a5.23,5.23,0,0,1-4.52,2.82A5,5,0,0,1,14.63,502.28ZM51,468.64a1.41,1.41,0,0,1,1.64-1.12A17.69,17.69,0,1,1,32.43,490.1a1.4,1.4,0,1,1,2.69-.83"/><circle class="cls-70" cx="157.41" cy="438.47" r="6.86"/><path class="cls-70" d="M176.5,504.71a6.15,6.15,0,0,1-6.15-6.15l-.06-25.73-6.82-10.76-4.14,5.48a1.89,1.89,0,0,1-1.51.75H145.9a5.27,5.27,0,1,1,0-10.55h7.55l7-10.69c1.2-1.86,2.65-3.68,6-3.68a6.52,6.52,0,0,1,5.51,3.09l0,.05,8.28,12.56,0,0,.22.35a11.37,11.37,0,0,1,2.11,6.67c0,2.29,0,32.1,0,32.4A6.16,6.16,0,0,1,176.5,504.71Zm-30.1,0a1.89,1.89,0,0,1-1.89-1.89V471.48a1.89,1.89,0,0,1,3.79,0v31.34A1.89,1.89,0,0,1,146.4,504.71Z"/><circle class="cls-61" cx="77.29" cy="438.59" r="7.78"/><path class="cls-61" d="M77.29,432.14a6.45,6.45,0,1,1-6.45,6.45,6.45,6.45,0,0,1,6.45-6.45m0-2.66a9.11,9.11,0,1,0,9.11,9.11,9.12,9.12,0,0,0-9.11-9.11Z"/><path class="cls-71" d="M77.29,474.08v25.27a3.67,3.67,0,0,1-7.35,0V456.23m15.53,17.85c2.07,0,5-1.44,5-6V454c0-3.61-2.56-5.51-5.75-5.51H69.86c-3.19,0-5.75,1.9-5.75,5.51v14.06c0,4.59,2.92,6,5,6m8.19,25.27a3.67,3.67,0,0,0,7.35,0V456.23"/><rect class="cls-61" x="71.92" y="460.85" width="11.15" height="27.14"/><circle class="cls-61" cx="198.29" cy="438.59" r="7.78"/><path class="cls-61" d="M198.29,432.14a6.45,6.45,0,1,1-6.45,6.45,6.45,6.45,0,0,1,6.45-6.45m0-2.66a9.11,9.11,0,1,0,9.11,9.11,9.12,9.12,0,0,0-9.11-9.11Z"/><path class="cls-71" d="M198.29,474.08v25.27a3.67,3.67,0,0,1-7.35,0V456.23m15.53,17.85c2.07,0,5-1.44,5-6V454c0-3.61-2.56-5.51-5.75-5.51H190.86c-3.19,0-5.75,1.9-5.75,5.51v14.06c0,4.59,2.92,6,5,6m8.19,25.27a3.67,3.67,0,0,0,7.35,0V456.23"/><rect class="cls-61" x="192.92" y="460.85" width="11.15" height="27.14"/><path class="cls-72" d="M20.06,499.25a3.64,3.64,0,1,1-6.59-3.07l7.43-17c.62-1.42.92-2.19,2.32-2.43l12.7-1.34.33-14.49-14.4,5.79A3.2,3.2,0,1,1,19,460.95l21.32-10.47A4.86,4.86,0,0,1,47,454.83c0,.2-.2,21.87-.2,24.51a5,5,0,0,1-4.88,4.94l-14.11.15Zm13.71-9.56a16.29,16.29,0,1,0,18.65-20.78"/><path class="cls-73" d="M99.22,469.49A2.82,2.82,0,0,1,93.79,468l4.55-15.2a5.82,5.82,0,0,1,5.8-4.58h4.63M99.1,470l3.14-11.32-6.17,22.28h6.64V500a3,3,0,1,0,6.06,0V479.21m9.54-9.72a2.82,2.82,0,1,0,5.43-1.51l-4.46-14.91c-.5-1.76-2-4.87-5.88-4.87h-4.63m0,51.81a3,3,0,1,0,6.06,0V480.91h6.64l-6.17-22.28L118.43,470"/><path class="cls-74" d="M172.18,472.28l-8.57-13.54-5.78,7.66H145.89a3.38,3.38,0,0,1,0-6.76h8.58L162,448.11c1.17-1.82,2.16-2.83,4.43-2.83a4.66,4.66,0,0,1,4,2.29l8.28,12.56a10,10,0,0,1,2,6c0,2.32,0,32.4,0,32.4a4.25,4.25,0,0,1-8.51,0Zm-25.79-.8v31.34"/><path class="cls-75" d="M77.29,474.08v25.27a3.67,3.67,0,0,1-7.35,0V456.23m15.53,17.85c2.07,0,5-1.44,5-6V454c0-3.61-2.56-5.51-5.75-5.51H69.86c-3.19,0-5.75,1.9-5.75,5.51v14.06c0,4.59,2.92,6,5,6m8.19,25.27a3.67,3.67,0,0,0,7.35,0V456.23"/><path class="cls-76" d="M198.29,474.08v25.27a3.67,3.67,0,0,1-7.35,0V456.23m15.53,17.85c2.07,0,5-1.44,5-6V454c0-3.61-2.56-5.51-5.75-5.51H190.86c-3.19,0-5.75,1.9-5.75,5.51v14.06c0,4.59,2.92,6,5,6m8.19,25.27a3.67,3.67,0,0,0,7.35,0V456.23"/><path class="cls-77" d="M132.07,489.2c0,3.84,0,10.31,0,10.31a3.51,3.51,0,1,1-7,0V474.73a0,0,0,0,0-.07,0l-5.09,3a2.66,2.66,0,1,1-2.66-4.6l6.44-4.13a7,7,0,0,1,3.76-1.09h9.31a7,7,0,0,1,3.76,1.09l6.44,4.13a2.66,2.66,0,1,1-2.66,4.6l-5.09-3a0,0,0,0,0-.07,0v24.79a3.51,3.51,0,1,1-7,0s0-6.48,0-10.31"/><path class="cls-78" d="M132.07,489.2c0,3.84,0,10.31,0,10.31a3.51,3.51,0,1,1-7,0V474.73a0,0,0,0,0-.07,0l-5.09,3a2.66,2.66,0,1,1-2.66-4.6l6.44-4.13a7,7,0,0,1,3.76-1.09h9.31a7,7,0,0,1,3.76,1.09l6.44,4.13a2.66,2.66,0,1,1-2.66,4.6l-5.09-3a0,0,0,0,0-.07,0v24.79a3.51,3.51,0,1,1-7,0s0-6.48,0-10.31"/><circle class="cls-79" cx="37.85" cy="440.76" r="7.2"/><circle class="cls-80" cx="108.84" cy="438.9" r="6.86"/><circle class="cls-81" cx="157.41" cy="438.47" r="6.58"/><circle class="cls-82" cx="77.29" cy="438.59" r="6.45"/><circle class="cls-83" cx="198.29" cy="438.59" r="6.45"/><circle class="cls-84" cx="132.15" cy="459.59" r="6"/><circle class="cls-68" cx="238.42" cy="440.76" r="7.2"/><path class="cls-69" d="M215.21,502.28a5,5,0,0,1-2.46-6.67l7.43-17,0-.09c.63-1.44,1.22-2.81,3.34-3.17h.09l11.48-1.21.25-11.12L223,468a4.61,4.61,0,0,1-4-8.28l21.32-10.47.1,0a6,6,0,0,1,5.75.56,6.4,6.4,0,0,1,2.83,5.1v1.36c-.12,13.86-.18,21.65-.18,23.14a6.47,6.47,0,0,1-6.27,6.34l-13.27.14-7.36,14.08,0,0a5.23,5.23,0,0,1-4.52,2.82A5,5,0,0,1,215.21,502.28Zm36.41-33.64a1.41,1.41,0,0,1,1.64-1.12A17.69,17.69,0,1,1,233,490.1a1.4,1.4,0,1,1,2.69-.83"/><circle class="cls-70" cx="357.98" cy="438.47" r="6.86"/><path class="cls-70" d="M377.07,504.71a6.15,6.15,0,0,1-6.15-6.15l-.06-25.73L364,462.07l-4.14,5.48a1.89,1.89,0,0,1-1.51.75H346.47a5.27,5.27,0,1,1,0-10.55H354l7-10.69c1.2-1.86,2.65-3.68,6-3.68a6.52,6.52,0,0,1,5.51,3.09l0,.05,8.28,12.56,0,0,.22.35a11.37,11.37,0,0,1,2.11,6.67c0,2.29,0,32.1,0,32.4A6.16,6.16,0,0,1,377.07,504.71Zm-30.1,0a1.89,1.89,0,0,1-1.89-1.89V471.48a1.89,1.89,0,0,1,3.79,0v31.34A1.89,1.89,0,0,1,347,504.71Z"/><circle class="cls-61" cx="277.86" cy="438.59" r="7.78"/><path class="cls-61" d="M277.86,432.14a6.45,6.45,0,1,1-6.45,6.45,6.45,6.45,0,0,1,6.45-6.45m0-2.66a9.11,9.11,0,1,0,9.11,9.11,9.12,9.12,0,0,0-9.11-9.11Z"/><path class="cls-71" d="M277.86,474.08v25.27a3.67,3.67,0,0,1-7.35,0V456.23M286,474.08c2.07,0,5-1.44,5-6V454c0-3.61-2.56-5.51-5.75-5.51H270.43c-3.19,0-5.75,1.9-5.75,5.51v14.06c0,4.59,2.92,6,5,6m8.19,25.27a3.67,3.67,0,0,0,7.35,0V456.23"/><rect class="cls-61" x="272.5" y="460.85" width="11.15" height="27.14"/><circle class="cls-61" cx="398.86" cy="438.59" r="7.78"/><path class="cls-61" d="M398.86,432.14a6.45,6.45,0,1,1-6.45,6.45,6.45,6.45,0,0,1,6.45-6.45m0-2.66a9.11,9.11,0,1,0,9.11,9.11,9.12,9.12,0,0,0-9.11-9.11Z"/><path class="cls-71" d="M398.86,474.08v25.27a3.67,3.67,0,0,1-7.35,0V456.23M407,474.08c2.07,0,5-1.44,5-6V454c0-3.61-2.56-5.51-5.75-5.51H391.43c-3.19,0-5.75,1.9-5.75,5.51v14.06c0,4.59,2.92,6,5,6m8.19,25.27a3.67,3.67,0,0,0,7.35,0V456.23"/><rect class="cls-61" x="393.5" y="460.85" width="11.15" height="27.14"/><path class="cls-85" d="M220.63,499.25a3.64,3.64,0,1,1-6.59-3.07l7.43-17c.62-1.42.92-2.19,2.32-2.43l12.7-1.34.33-14.49-14.4,5.79a3.2,3.2,0,0,1-2.86-5.74l21.32-10.47a4.86,4.86,0,0,1,6.66,4.35c0,.2-.2,21.87-.2,24.51a5,5,0,0,1-4.88,4.94l-14.11.15Zm13.71-9.56A16.29,16.29,0,1,0,253,468.91"/><path class="cls-86" d="M299.79,469.49a2.82,2.82,0,0,1-5.43-1.51l4.55-15.2a5.82,5.82,0,0,1,5.8-4.58h4.63M299.67,470l3.14-11.32-6.17,22.28h6.64V500a3,3,0,0,0,6.06,0V479.21m9.54-9.72a2.82,2.82,0,0,0,5.43-1.51l-4.46-14.91c-.5-1.76-2-4.87-5.88-4.87h-4.63m0,51.81a3,3,0,1,0,6.06,0V480.91H322l-6.17-22.28L319,470"/><path class="cls-87" d="M372.76,472.28l-8.57-13.54-5.78,7.66H346.47a3.38,3.38,0,0,1,0-6.76H355l7.53-11.55c1.17-1.82,2.16-2.83,4.43-2.83a4.66,4.66,0,0,1,4,2.29l8.28,12.56a10,10,0,0,1,2,6c0,2.32,0,32.4,0,32.4a4.25,4.25,0,1,1-8.51,0Zm-25.79-.8v31.34"/><path class="cls-88" d="M277.86,474.08v25.27a3.67,3.67,0,0,1-7.35,0V456.23M286,474.08c2.07,0,5-1.44,5-6V454c0-3.61-2.56-5.51-5.75-5.51H270.43c-3.19,0-5.75,1.9-5.75,5.51v14.06c0,4.59,2.92,6,5,6m8.19,25.27a3.67,3.67,0,0,0,7.35,0V456.23"/><path class="cls-89" d="M398.86,474.08v25.27a3.67,3.67,0,0,1-7.35,0V456.23M407,474.08c2.07,0,5-1.44,5-6V454c0-3.61-2.56-5.51-5.75-5.51H391.43c-3.19,0-5.75,1.9-5.75,5.51v14.06c0,4.59,2.92,6,5,6m8.19,25.27a3.67,3.67,0,0,0,7.35,0V456.23"/><path class="cls-77" d="M332.64,489.2c0,3.84,0,10.31,0,10.31a3.51,3.51,0,1,1-7,0V474.73a0,0,0,0,0-.07,0l-5.09,3a2.66,2.66,0,1,1-2.66-4.6l6.44-4.13a7,7,0,0,1,3.76-1.09h9.31a7,7,0,0,1,3.76,1.09l6.44,4.13a2.66,2.66,0,1,1-2.66,4.6l-5.09-3a0,0,0,0,0-.07,0v24.79a3.51,3.51,0,1,1-7,0s0-6.48,0-10.31"/><path class="cls-90" d="M332.64,489.2c0,3.84,0,10.31,0,10.31a3.51,3.51,0,1,1-7,0V474.73a0,0,0,0,0-.07,0l-5.09,3a2.66,2.66,0,1,1-2.66-4.6l6.44-4.13a7,7,0,0,1,3.76-1.09h9.31a7,7,0,0,1,3.76,1.09l6.44,4.13a2.66,2.66,0,1,1-2.66,4.6l-5.09-3a0,0,0,0,0-.07,0v24.79a3.51,3.51,0,1,1-7,0s0-6.48,0-10.31"/><circle class="cls-91" cx="238.42" cy="440.76" r="7.2"/><circle class="cls-92" cx="309.42" cy="438.9" r="6.86"/><circle class="cls-93" cx="357.98" cy="438.47" r="6.58"/><circle class="cls-94" cx="277.86" cy="438.59" r="6.45"/><circle class="cls-95" cx="398.86" cy="438.59" r="6.45"/><circle class="cls-96" cx="332.72" cy="459.59" r="6"/><path class="cls-97" d="M111.22,329.08a4.06,4.06,0,1,1,4.06,4.06A4.07,4.07,0,0,1,111.22,329.08Zm-9.27,4.06a4.06,4.06,0,1,0-4.06-4.06A4.07,4.07,0,0,0,101.95,333.14Zm-13.33,0a4.06,4.06,0,1,0-4.06-4.06A4.07,4.07,0,0,0,88.62,333.14Z"/></svg>