<?xml version="1.0" encoding="utf-8"?>
<!-- Generator: Adobe Illustrator 22.0.1, SVG Export Plug-In . SVG Version: 6.00 Build 0)  -->
<svg version="1.1" id="Layer_1" xmlns="http://www.w3.org/2000/svg" xmlns:xlink="http://www.w3.org/1999/xlink" x="0px" y="0px"
	 viewBox="0 0 239.8 86.1" style="enable-background:new 0 0 239.8 86.1;" xml:space="preserve">
<style type="text/css">
	.st0{fill:#FFFFFF;}
	.st1{fill:none;stroke:url(#SVGID_1_);stroke-width:3;stroke-linecap:round;stroke-miterlimit:10;}
	.st2{fill:#F5A735;}
	.st3{fill:#E73C2F;}
	.st4{fill:url(#SVGID_2_);}
	.st5{fill:url(#SVGID_3_);}
	.st6{fill:#209AD6;}
	.st7{fill:#0A69B1;}
	.st8{fill:#DF1B81;}
	.st9{fill:#76C9F1;}
	.st10{fill:#922680;}
	.st11{fill:#443F8F;}
	.st12{fill:none;stroke:url(#SVGID_4_);stroke-width:3;stroke-linecap:round;stroke-miterlimit:10;}
	.st13{fill:url(#SVGID_5_);}
	.st14{fill:none;stroke:url(#SVGID_6_);stroke-width:3;stroke-linecap:round;stroke-miterlimit:10;}
	.st15{fill:url(#SVGID_7_);}
</style>
<path class="st0" d="M168.3,63.1h-22.2c-3.6,0-6.5-2.9-6.5-6.5V34.5c0-3.6,2.9-6.5,6.5-6.5h22.2c3.6,0,6.5,2.9,6.5,6.5v22.2
	C174.7,60.2,171.8,63.1,168.3,63.1z"/>
<rect x="8.4" y="9.7" class="st0" width="102.4" height="68.2"/>
<linearGradient id="SVGID_1_" gradientUnits="userSpaceOnUse" x1="531.763" y1="356.2675" x2="516.9494" y2="341.4539" gradientTransform="matrix(0 1 -1 0 505.5219 -481.403)">
	<stop  offset="0" style="stop-color:#F6A733"/>
	<stop  offset="0.7203" style="stop-color:#EA6031"/>
	<stop  offset="1" style="stop-color:#E73B30"/>
</linearGradient>
<polyline class="st1" points="147.6,46.6 153,52 165.7,39.3 "/>
<g>
	<path class="st2" d="M214.2,50.3h4h7h2.6c3.9,0-0.7,2.1-0.7-1.4v1l1.6,1.5l1.1,0.6c0.8-0.2-0.2,1.3,0.6,2.2
		c0.5,0.6,2.3,2.2,2.4,2.3h-9.6C219.3,56.6,214.2,53.8,214.2,50.3z"/>
	<path class="st3" d="M230,51.5l0.4,0.7c0.8-0.2,0.5,1.1,1.3,2.1c0.5,0.6,1.3,2.1,1.4,2.3l-0.2,0c-1.3-0.1-12.3,0.4-14.6-6.3h3.9h7
		h0"/>
	<linearGradient id="SVGID_2_" gradientUnits="userSpaceOnUse" x1="188.1237" y1="39.3433" x2="206.4897" y2="39.3433">
		<stop  offset="0" style="stop-color:#525252"/>
		<stop  offset="6.994039e-02" style="stop-color:#787878"/>
		<stop  offset="0.1496" style="stop-color:#9C9C9C"/>
		<stop  offset="0.2368" style="stop-color:#BBBBBB"/>
		<stop  offset="0.3316" style="stop-color:#D4D4D4"/>
		<stop  offset="0.4372" style="stop-color:#E7E7E7"/>
		<stop  offset="0.5593" style="stop-color:#F5F5F5"/>
		<stop  offset="0.713" style="stop-color:#FDFDFD"/>
		<stop  offset="1" style="stop-color:#FFFFFF"/>
	</linearGradient>
	<path class="st4" d="M204.3,34.5c-1.1-1-2.7-1.7-4.3-1.7h-3h-3.5h-5.4v6.5h2.4h6.5h3c3.6,0,6.5,2.9,6.5,6.5v-1.1v-3.2v-2.2
		C206.5,37.4,205.7,35.7,204.3,34.5z"/>
	<linearGradient id="SVGID_3_" gradientUnits="userSpaceOnUse" x1="188.1237" y1="50.1468" x2="188.1237" y2="32.8612">
		<stop  offset="0" style="stop-color:#525252"/>
		<stop  offset="6.994039e-02" style="stop-color:#787878"/>
		<stop  offset="0.1496" style="stop-color:#9C9C9C"/>
		<stop  offset="0.2368" style="stop-color:#BBBBBB"/>
		<stop  offset="0.3316" style="stop-color:#D4D4D4"/>
		<stop  offset="0.4372" style="stop-color:#E7E7E7"/>
		<stop  offset="0.5593" style="stop-color:#F5F5F5"/>
		<stop  offset="0.713" style="stop-color:#FDFDFD"/>
		<stop  offset="1" style="stop-color:#FFFFFF"/>
	</linearGradient>
	<path class="st5" d="M188.1,50.1v-5.4v-5.4c0-3.6,2.9-6.5,6.5-6.5h-6.5c-1.7,0-3.2,0.6-4.3,1.7c-1.3,1.2-2.2,2.9-2.2,4.8v2.2v2.2
		C181.6,47.2,184.5,50.1,188.1,50.1z"/>
	<path class="st6" d="M204.3,34.5c-1.1-1-2.7-1.7-4.3-1.7h-3h-3.5h-5.4v6.5h2.4h6.5h3c0,0,6.5,7,6.5,10.6v-4.1v-4.3v-2.2
		C206.5,37.4,205.7,35.7,204.3,34.5z"/>
	<path class="st7" d="M188.1,50.1v-5.4v-5.4c0,0,6.9-6.5,6.9-6.4c0,0,0,0,0,0h-6.9c-1.7,0-3.2,0.6-4.3,1.7c-1.3,1.2-2.2,2.9-2.2,4.8
		v2.2v2.2C181.6,47.2,183.1,50.1,188.1,50.1z"/>
	<path class="st8" d="M222,32.7l11,23.9h0c0,0-6.6,0-9.7-6.3l-5.3-11.4C216.7,36,218.8,32.7,222,32.7L222,32.7z"/>
	<path class="st9" d="M200,39.3v5.4v5.4c0,4.2-6.3,6.5-9.9,6.5h9.9c1.7,0,3.2-0.6,4.3-1.7c1.3-1.2,2.2-2.9,2.2-4.8V48v-2.2
		C206.5,45.8,200,39.3,200,39.3z"/>
	<path class="st10" d="M222,32.7c0,0-8-0.6-11.4,7.9c-4.4,10.9-7.4,16-18.3,16c-0.1,0,5.9,0,10.3,0c5.6,0,8.9-2,12-8.2
		C217.5,42.6,217.9,36.4,222,32.7z"/>
	<path class="st9" d="M197.9,35.3"/>
	<path class="st3" d="M224.5,47.8"/>
	<path class="st3" d="M205.8,49"/>
	<path class="st9" d="M202.8,40.3"/>
	<path class="st11" d="M181.6,48.9c0,5.9,4.8,7.8,6.5,7.8h5c3.6,0,6.8-3.7,6.8-6.5h-2.9h-3.6h-5.3c0,0-6.5-7.5-6.5-7.5"/>
</g>
<linearGradient id="SVGID_4_" gradientUnits="userSpaceOnUse" x1="129.5957" y1="25.5917" x2="169.1794" y2="65.1755">
	<stop  offset="0" style="stop-color:#14ACE3"/>
	<stop  offset="0.1536" style="stop-color:#0991CF"/>
	<stop  offset="0.2852" style="stop-color:#067EC1"/>
	<stop  offset="0.3579" style="stop-color:#0378BC"/>
	<stop  offset="0.7261" style="stop-color:#343679"/>
	<stop  offset="0.9658" style="stop-color:#231E55"/>
</linearGradient>
<path class="st12" d="M111.8,45.5h27.9 M173.4,56.5V34c0-3.1-2.6-5.7-5.7-5.7h-22.5c-3.1,0-5.7,2.6-5.7,5.7v22.5
	c0,3.1,2.6,5.7,5.7,5.7h22.5C170.9,62.1,173.4,59.6,173.4,56.5z"/>
<linearGradient id="SVGID_5_" gradientUnits="userSpaceOnUse" x1="75.7154" y1="53.9484" x2="90.5725" y2="68.8055">
	<stop  offset="0" style="stop-color:#FDED24"/>
	<stop  offset="0.3707" style="stop-color:#F08F34"/>
	<stop  offset="1" style="stop-color:#E2332D"/>
</linearGradient>
<rect x="71.3" y="58.4" class="st13" width="23.7" height="6"/>
<linearGradient id="SVGID_6_" gradientUnits="userSpaceOnUse" x1="16.6734" y1="-2.215079e-02" x2="103.169" y2="86.4734">
	<stop  offset="0" style="stop-color:#14ACE3"/>
	<stop  offset="0.1536" style="stop-color:#0991CF"/>
	<stop  offset="0.2852" style="stop-color:#067EC1"/>
	<stop  offset="0.3579" style="stop-color:#0378BC"/>
	<stop  offset="0.7261" style="stop-color:#343679"/>
	<stop  offset="0.9658" style="stop-color:#231E55"/>
</linearGradient>
<path class="st14" d="M60.4,8.6h47.7c1.8,0,3.3,1.2,3.3,2.7v63.8c0,1.5-1.5,2.7-3.3,2.7H11.7c-1.8,0-3.3-1.2-3.3-2.7V11.3
	c0-1.5,1.5-2.7,3.3-2.7H60.4 M10,21.7h100.8 M22.9,39.3h3 M22.9,50.7h3 M22.9,62.1h3 M32.2,39.3h26.3 M32.2,50.7h26.3 M32.2,62.1
	h26.3 M98.9,48.9v-6.7c0-2.3-1.9-4.2-4.2-4.2H71.4c-2.3,0-4.2,1.9-4.2,4.2v6.7c0,2.3,1.9,4.2,4.2,4.2h23.3
	C97,53.1,98.9,51.2,98.9,48.9z"/>
<linearGradient id="SVGID_7_" gradientUnits="userSpaceOnUse" x1="86.5949" y1="9.0707" x2="99.6034" y2="22.0792">
	<stop  offset="0" style="stop-color:#FDED24"/>
	<stop  offset="0.3707" style="stop-color:#F08F34"/>
	<stop  offset="1" style="stop-color:#E2332D"/>
</linearGradient>
<path class="st15" d="M98.9,15.6c0-1.7,1.3-3,3-3s3,1.3,3,3s-1.3,3-3,3S98.9,17.2,98.9,15.6z M93.6,18.6c1.7,0,3-1.3,3-3s-1.3-3-3-3
	s-3,1.3-3,3S92,18.6,93.6,18.6z M84.3,18.6c1.7,0,3-1.3,3-3s-1.3-3-3-3c-1.7,0-3,1.3-3,3S82.7,18.6,84.3,18.6z"/>
</svg>
