<svg xmlns="http://www.w3.org/2000/svg" viewBox="0 0 109.2 101.64"><defs><style>.cls-1{fill:#1f9cd8;}</style></defs><title>Investors</title><g id="Layer_2" data-name="Layer 2"><g id="Layer_1-2" data-name="Layer 1"><path class="cls-1" d="M45.92,83.83c-2.11-1.33-3.28-2.61-3.28-4.72V68.41c0-10,29.87-10.31,33.28-10.31s33.28.29,33.28,10.31S79.32,78.72,75.92,78.72A91.52,91.52,0,0,1,59.49,77.2a5.34,5.34,0,0,1-4.12-6.72h0A80,80,0,0,0,75.92,73.1c15.48,0,25.4-2.85,27.44-4.69-2-1.84-12-4.68-27.44-4.68-16.16,0-26.26,3.1-27.66,4.92V78.88c1.4,1.82,11.5,4.89,27.66,4.92,18.73,0,27.66-4.87,27.66-4.69h4.84a.78.78,0,0,1,.78.78V91.33c0,10-29.88,10.31-33.28,10.31-3.08,0-29.24-.24-34.31-7.65-.55-.8-1-3.78-1-3.75a62.92,62.92,0,0,1-7.29.5C29.88,90.74,0,90.46,0,80.44V69.71a.78.78,0,0,1,.78-.78H5.62a.84.84,0,0,0-.07-.35c1.07,1.81,11.26,5,27.73,5h.89l-.09-5.89h-.8C29.88,67.73,0,67.44,0,57.42V46.52a.61.61,0,0,1,.61-.61h5c0-.18,9.37,5.13,27.66,4.68,16.15-.38,26.26-3.1,27.66-4.92v-5c-8.83,3.9-25.19,4.05-27.66,4.05C29.88,44.71,0,44.42,0,34.4V23.5a.61.61,0,0,1,.61-.61h5c0-.18,6.56,4.72,27.66,4.69,16.16,0,26.26-3.1,27.66-4.93V16.57c-8.83,3.9-25.19,4.05-27.66,4.05C29.88,20.62,0,20.33,0,10.31S29.88,0,33.28,0c8.89,0,17.43,1,23.44,2.59h0A6,6,0,0,1,50,6.89,103.12,103.12,0,0,0,33.28,5.62c-15.47,0-25.4,2.85-27.44,4.69,2,1.84,12,4.34,27.44,4.69,19.2.43,27.66-4.87,27.66-4.69h5a.6.6,0,0,1,.6.61v12c0,10-29.87,10.31-33.28,10.31-2.47,0-18.83-.15-27.66-4.05v5C7,36,17.13,39.27,33.28,39.09c20.14-.24,27.66-4.87,27.66-4.69h5a.6.6,0,0,1,.6.61v10.9c0,10-29.87,10.31-33.28,10.31-2.47,0-18.83-.15-27.66-4v5C7,59,17.13,62.1,33.28,62.1c1,0,3.44-.08,3.47-.08L39,61.93a.61.61,0,0,1,.63.6l.25,16.59-2.79.06s-2.52.06-3.81.06c-2.47,0-18.83-.16-27.66-4v5C7,82,17.13,85.12,33.28,85.12c1.92,0,7.81-.09,10.29-.29.48,1.82,2.35,6.27,2.35,6.27,1.39,1.82,13.84,4.92,30,4.92s26.26-3.1,27.66-4.93V85.37c-8.83,3.9-25.19,4-27.66,4s-18.83-.15-27.66-4Z"/></g></g></svg>