<svg xmlns="http://www.w3.org/2000/svg" viewBox="0 0 314.9 238.09"><defs><style>.line-graphic-corner-1{fill:#9d358a;}.line-graphic-corner-2{fill:#6d358b;}.line-graphic-corner-3{fill:#482667;}.line-graphic-corner-4{fill:#a54994;}.line-graphic-corner-5{fill:#e11482;}.line-graphic-corner-6{fill:#894a96;}.line-graphic-corner-7{fill:#931e80;}.line-graphic-corner-8{fill:#bd1622;}.line-graphic-corner-9{fill:#0085bc;}.line-graphic-corner-10{fill:#e73178;}.line-graphic-corner-11{fill:#364b99;}.line-graphic-corner-12{fill:#334394;}.line-graphic-corner-13{fill:#e63b2e;}.line-graphic-corner-14{fill:#ec688a;}.line-graphic-corner-15{fill:#005faa;}</style></defs><title>line-graphic-corner</title><g id="Layer_2" data-name="Layer 2"><g id="Layer_1-2" data-name="Layer 1"><polygon class="line-graphic-corner-1" points="225.48 64.49 185.5 34.43 232 34.3 270.75 64.25 225.48 64.49"/><polygon class="line-graphic-corner-2" points="314.89 114.82 263.27 70.16 223.62 70.27 314.89 149.22 314.89 114.82"/><polygon class="line-graphic-corner-3" points="314.89 79.01 223.76 0.06 223.87 35.74 314.89 114.5 314.89 79.01"/><polygon class="line-graphic-corner-4" points="314.89 148.34 226.64 72.31 226.9 154.41 314.89 230.42 314.89 148.34"/><polygon class="line-graphic-corner-5" points="314.89 148.34 226.64 72.31 226.9 104.88 314.89 181.65 314.89 148.34"/><polygon class="line-graphic-corner-2" points="185.04 0.11 224.19 0 224.3 34.51 185.14 34.46 185.04 0.11"/><rect class="line-graphic-corner-6" x="223.95" y="34.87" width="39.15" height="35.7" transform="translate(-0.16 0.72) rotate(-0.17)"/><polygon class="line-graphic-corner-7" points="156.6 159.5 156.32 73.09 226.66 72.31 226.93 158.72 156.6 159.5"/><polygon class="line-graphic-corner-8" points="119.69 238.09 115.81 234.74 115.82 238.09 119.69 238.09"/><polygon class="line-graphic-corner-9" points="282.74 238.09 314.89 238.09 314.89 230.48 271.07 192.67 271.18 228.12 282.74 238.09"/><polygon class="line-graphic-corner-9" points="282.98 238.09 314.89 238.09 314.89 230.27 176.6 110.94 176.71 146.4 282.98 238.09"/><polygon class="line-graphic-corner-10" points="119.84 238.09 163.51 238.09 116.92 197.54 117.04 235.67 119.84 238.09"/><polygon class="line-graphic-corner-11" points="163.53 238.09 242.98 238.09 99.52 113.5 99.74 182.54 163.53 238.09"/><polygon class="line-graphic-corner-12" points="283.17 238.09 176.6 145.98 135.85 146.21 242.26 238.09 283.17 238.09"/><polygon class="line-graphic-corner-13" points="117.04 238.09 117.03 234.02 77.88 234.13 77.89 238.09 117.04 238.09"/><polygon class="line-graphic-corner-2" points="0.01 91.94 22.22 92.17 22.32 114.55 0 114.49 0.01 91.94"/><polygon class="line-graphic-corner-2" points="134.37 52.49 156.58 52.72 156.69 75.1 134.37 75.05 134.37 52.49"/><polygon class="line-graphic-corner-5" points="110.95 74.68 133.16 74.91 133.26 97.29 110.94 97.23 110.95 74.68"/><rect class="line-graphic-corner-14" x="38.65" y="197.65" width="78.47" height="38.19" transform="translate(-0.68 0.25) rotate(-0.18)"/><polygon class="line-graphic-corner-12" points="38.57 197.97 21.51 182.88 99.99 182.66 117.16 197.74 38.57 197.97"/><rect class="line-graphic-corner-15" x="21.47" y="113.48" width="78.47" height="69.87" transform="translate(-0.47 0.19) rotate(-0.18)"/><polygon class="line-graphic-corner-15" points="135.91 146.34 135.8 111.41 176.76 111.06 176.87 145.99 135.91 146.34"/></g></g></svg>