<svg xmlns="http://www.w3.org/2000/svg" viewBox="0 0 139.94 91.87"><defs><style>.cls-1,.cls-2{fill:#1f9cd8;}.cls-2{stroke:#1f9cd8;stroke-miterlimit:10;stroke-width:0.75px;}</style></defs><title>Mentorship</title><g id="Layer_2" data-name="Layer 2"><g id="Layer_1-2" data-name="Layer 1"><path class="cls-1" d="M126.72,52.54l-9.41-1.47a.67.67,0,0,1-.59-.68l.24-8.87a.59.59,0,0,1,.18-.41,23.88,23.88,0,0,0,6.41-18.59C122.44,10.4,111.9.73,99.11,0,84.05-.77,71.52,10.62,71.52,24.74A24.25,24.25,0,0,0,79.89,42.9a26.68,26.68,0,0,0,17.6,6.58h.27a21.66,21.66,0,0,0,9.65-2.28,6,6,0,0,1,.57-.29c-1.79-2.27-4-3.82-7-3.25a17.52,17.52,0,0,1-3.45.34,20.84,20.84,0,0,1-13.77-5.12,18.88,18.88,0,0,1-6.52-14.14C77.29,13.82,86.92,5,98.55,5.5c10.49.47,19,8.73,19.32,18.7a18.68,18.68,0,0,1-5.82,14.05l-.6.58a.61.61,0,0,0-.2.45L110.82,55a.69.69,0,0,0,.59.68l13.8,2.11c6.59,2,8,4.05,8,6.58L134,82.74a187.79,187.79,0,0,1-73.64,0l.85-18.21v-.12c0-3.71,4.27-5.62,7.92-6.57l9.69-1.54c3.33,3.39,10.06,6.57,18.74,6.57h0a33,33,0,0,0,5-.37,4.87,4.87,0,0,0,3.92-6.69h0a24.43,24.43,0,0,1-8.94,1.58h0c-8.57,0-13.9-3.74-15.13-5.55l-1-1.51L68.05,52.46l-.28.06c-7.91,2-12.28,6.22-12.31,11.82l-1,21.31a1.76,1.76,0,0,0,1.43,1.77l.87.19A195,195,0,0,0,97.2,91.87a195,195,0,0,0,40.44-4.26l.86-.19a1.75,1.75,0,0,0,1.43-1.77l-1-21.31C138.89,56.09,130.05,53.51,126.72,52.54Z"/><path class="cls-2" d="M51.5,44.15,63.91,49a.4.4,0,0,1,0,.76l-4.16,1.48c-4,1.52-7.89,5.5-8,9.35L50.45,79.7l-2.65.24c-3.4.32-6.89.65-10.37.65-.66,0-1.33,0-2,0h0A153.3,153.3,0,0,1,3.76,77.2l-.67-.14A3.33,3.33,0,0,1,.38,73.7l.77-16.51c0-5.13,4.06-9.15,11-10.95l.32-.07,8.29-1.64V36.19a19.08,19.08,0,0,1-4.1-11.75c0-11.19,9.91-20.23,21.85-19.63,10.45.53,19,8.65,19.56,18.57.63,11.32-8.89,20.73-20.69,20.73a21.6,21.6,0,0,1-10-2.46h0a4.71,4.71,0,0,1,5.34-2.08,17.7,17.7,0,0,0,4.7.64c9.79,0,17.62-8.07,16.51-17.57-.86-7.25-7-13.09-14.69-13.87C28.81,7.71,20,15.9,20.88,25.76a16,16,0,0,0,3.85,8.86l.19.22V47.7L13.23,50c-3.64.94-7.95,3-8,7.27L4.51,73.37l.14,0a149.36,149.36,0,0,0,30.88,3.25,85.62,85.62,0,0,0,11-.5l1.18-15.71c.1-3.66,2.1-8.83,6.16-11.4L52,48.43"/><path class="cls-2" d="M52,48.43c-6.8,3.75-13.7,4.72-20.56,2.89a3.55,3.55,0,0,1-2.36-5h0c7.16,3.06,14.43,2.48,21.61-1.73l.83-.48"/></g></g></svg>