<svg xmlns="http://www.w3.org/2000/svg" viewBox="0 0 114.04 114.39"><defs><style>.cls-1{fill:#1f9cd8;}</style></defs><title>networking</title><g id="Layer_2" data-name="Layer 2"><g id="Layer_1-2" data-name="Layer 1"><path class="cls-1" d="M18.75,114.39C8.41,114.39,0,106.27,0,96.28s8.41-18.1,18.75-18.1c7.69,0,12.52,4.17,15.9,8.32,10-4.26,24.19-10.36,28.51-12.35,0-.28,0-.55,0-.82a23.78,23.78,0,0,1,2.54-10.68L48.26,36.83a20.62,20.62,0,0,1-8.9,2c-11.09,0-20.12-8.71-20.12-19.42S28.27,0,39.36,0,59.47,8.71,59.47,19.42a18.91,18.91,0,0,1-1.8,8l17,25.34a26.18,26.18,0,0,1,13.93-4c14,0,25.45,11,25.45,24.54S102.62,97.87,88.59,97.87A25.65,25.65,0,0,1,67.32,86.81l-27,12a4.89,4.89,0,0,1-6.47-2.47h0L69.33,80.55l1.09,2A20.68,20.68,0,0,0,88.59,93c11.33,0,20.55-8.81,20.55-19.64S99.92,53.69,88.59,53.69a21.18,21.18,0,0,0-13,4.47L73.46,59.8,51.94,27.71l.76-1.32a14.06,14.06,0,0,0,1.87-7c0-8-6.82-14.52-15.21-14.52S24.14,11.41,24.14,19.42,31,33.94,39.36,33.94a15.69,15.69,0,0,0,8.37-2.41l2-1.27L71.43,62.42l-.78,1.33a18.78,18.78,0,0,0-2.5,11.58c.19,1.8-1.18,2.44-2.76,3.18-.88.41-2.14,1-3.65,1.64-3,1.33-7,3.06-11,4.77-8,3.44-15.94,6.83-15.94,6.83l-1.77.75L31.92,91c-4.18-5.6-8-7.88-13.17-7.88C11.11,83.08,4.9,89,4.9,96.28s6.21,13.21,13.85,13.21a14.17,14.17,0,0,0,10.92-5.11,5.82,5.82,0,0,1,6.62-1.76h0A18.8,18.8,0,0,1,18.75,114.39Z"/></g></g></svg>