<svg xmlns="http://www.w3.org/2000/svg" viewBox="0 0 132.85 98.25"><defs><style>.cls-1{fill:#1f9cd8;}</style></defs><title>Office Space</title><g id="Layer_2" data-name="Layer 2"><g id="Layer_1-2" data-name="Layer 1"><path class="cls-1" d="M88.47,77.47V72.72h0V70.55a.78.78,0,0,0-.78-.78H75.11v-3.9h28.15a1.79,1.79,0,0,0,1.79-1.78V1.79A1.79,1.79,0,0,0,103.26,0H25.46a1.78,1.78,0,0,0-1.78,1.79V48.28a4.67,4.67,0,0,0,4.65-4.68V4.65H100.4V61.22H71.09V74.07H84.32v7.55h44.39V93.88H4.14V81.62H45.47V74.07H58.68V61.22H28.33v-6H93a4.67,4.67,0,0,0,4.7-4.65h-74V64.09a1.78,1.78,0,0,0,1.78,1.78H54.72v4.18H42.1a.77.77,0,0,0-.77.77v1.9h0v4.75H0V98.25L132.85,98V77.47Z"/><path class="cls-1" d="M87.19,36.08a1.43,1.43,0,0,1-1.06-.47l-4.75-5.28-5.15-5.16-7,7-6.08-4.42-7.86,7.59H41.5V16.89h0a2.7,2.7,0,0,1,2.7,2.7V32.67h10l8.7-8.41,6,4.4,7.32-7.31,7.14,7.15,2.5,2.78L85.65,14.4H45.54a2.7,2.7,0,0,1-2.7-2.7H88.33v1.36l.27,21.58A1.45,1.45,0,0,1,87.7,36,1.48,1.48,0,0,1,87.19,36.08Z"/><path class="cls-1" d="M86.71,45H43a1.75,1.75,0,0,1-1.75-1.76V40.22A1.75,1.75,0,0,1,43,38.46H82.3a2.7,2.7,0,0,1-2.7,2.7H43.92v1.17H84a2.7,2.7,0,0,1,2.7,2.7Z"/><path class="cls-1" d="M92.22,28.46h0a2.7,2.7,0,0,1-.62-3.77l.62-.88-.62-.88a2.7,2.7,0,0,1,.62-3.77h0l3.32,4.65Z"/><path class="cls-1" d="M37.05,28.46l-3.32-4.65,3.32-4.65h0a2.7,2.7,0,0,1,.63,3.77l-.63.88.63.88a2.7,2.7,0,0,1-.63,3.77Z"/></g></g></svg>