<svg xmlns="http://www.w3.org/2000/svg" viewBox="0 0 116.39 84.2"><defs><style>.cls-1{fill:#1f9cd8;}</style></defs><title>Partners</title><g id="Layer_2" data-name="Layer 2"><g id="Layer_1-2" data-name="Layer 1"><path class="cls-1" d="M115.57,28,90,.94A3,3,0,0,0,87.82,0L86.51,0,72.69,13.85,60.17,16h0a5.68,5.68,0,0,0,6.6,4.58l7.77-1.25L75.6,19,87.72,6.85,109.65,30,83.78,56.26l-6.93-7.15a3,3,0,0,0-2.13-.92l-1.24,0L58.89,63a11,11,0,0,1-2.8,2.5,1.92,1.92,0,0,1-1.76-.56L37,46.33l11.31-12,3.5,3.5a14.84,14.84,0,0,0,20.63.22,3,3,0,0,0,.92-2.13l0-1.3L54,15.21l-.67-.63-.82-.18-12-1.4L28.82,1.37A2.91,2.91,0,0,0,26.67.49L25.36.55.83,26.37a3,3,0,0,0,0,4.18L16.31,46l4.62,8,26.49,26.5S50.26,84.2,58.2,84.2c5.89,0,8.26-2.17,11-4.94l13-13.21a5.68,5.68,0,0,0-8,.06l-9,9.14c-1.91,1.91-4.33,3.72-7,3.45a8.48,8.48,0,0,1-6.75-2L25.85,51.13l-5-8.63L6.74,28.39l20-21L37.1,17.68l.67.64.83.17,12,1.4L66.25,35.55a9.13,9.13,0,0,1-10.38-1.73l-5.4-5.4a3,3,0,0,0-2.13-.9l-1.3.05L32,43.52a7.65,7.65,0,0,0,1.83,7.61L50.26,68.87a7.66,7.66,0,0,0,5.48,2.31,7.9,7.9,0,0,0,1.36-.12c2.5-.46,3.94-2.33,5.63-4.42L74.59,55l3,3.2,6.18,6.18,31.72-32.21A3,3,0,0,0,115.57,28Z"/></g></g></svg>