<svg xmlns="http://www.w3.org/2000/svg" viewBox="0 0 81.16 102.97"><defs><style>.cls-1{fill:#1f9cd8;}</style></defs><title>Perks</title><g id="Layer_2" data-name="Layer 2"><g id="Layer_1-2" data-name="Layer 1"><path class="cls-1" d="M58.81,66H39.93A13.75,13.75,0,1,0,53.37,79.75a14,14,0,0,0-2-7.3l-.06,0a5.66,5.66,0,0,0-2.53,5.78,8.9,8.9,0,1,1-8.8-7.74H56.46a20.54,20.54,0,0,1,2.24,9.16A19,19,0,1,1,20.78,79c.39-10.27,9.15-18.24,19.42-18.24H49L81.16,0H59.33L32.17,48.9,7.21,4.31H19.28L33,30.26a4.32,4.32,0,0,0,5.78,1.95L22,0H0L30,54a2.36,2.36,0,0,0,2.14,1.33,2.33,2.33,0,0,0,2.1-1.27L61.91,4.31H74.1L46.38,56.41H40.3C27.7,56.41,17,66.2,16.47,78.79a23.28,23.28,0,1,0,46.54.9,24.71,24.71,0,0,0-4-13.4Z"/></g></g></svg>