<svg xmlns="http://www.w3.org/2000/svg" viewBox="0 0 258.67 192.67"><defs><style>.quote-svg{fill:#fff;}</style></defs><title>quote</title><g id="Layer_2" data-name="Layer 2"><g id="Layer_1-2" data-name="Layer 1"><path class="quote-svg" d="M60.43,192.67c-17.26,0-31.79-5.68-43.19-16.87S0,150.1,0,132.79C0,98.35,25.22,58,28.1,53.49c7.21-11.26,18-23.28,32.06-35.56C67.6,11.43,85-3.79,106.86.88l-.11.51A17.69,17.69,0,0,1,92.92,14.85c-8.52,1.82-16.21,7.56-23.39,13.82-9.92,8.66-19.48,17-29.43,32.51-9.6,15-25.85,46.94-25.85,71.61,0,13.53,4.24,24.27,13,32.83s19.62,12.79,33.19,12.79,24.34-4.09,32.92-12.51,12.7-19.22,12.7-33.11c0-9.56-2.21-17.88-6.58-24.74-4.25-6.67-16.58-15.68-24.76-19.29C67.3,85.5,63,81.06,61.45,75.19c-1.32-5.14,3.59-15.65,10-26.45A193.51,193.51,0,0,1,82.5,32.15a14,14,0,0,1,19.93-3.09h0L97.3,35.8C83,54.61,73.74,65.73,75.26,71.63c.43,1.67,3.07,3.14,5.21,4.08,10.24,4.51,25,15.23,31,24.67,5.85,9.19,8.81,20.09,8.81,32.4,0,17.67-5.71,32.23-17,43.29S77.68,192.67,60.43,192.67Z"/><path class="quote-svg" d="M198.79,192.67c-17.26,0-31.79-5.68-43.19-16.87s-17.24-25.7-17.24-43c0-34.44,25.22-74.81,28.1-79.3,7.21-11.26,18-23.28,32.06-35.56C206,11.43,223.39-3.79,245.22.88l-.11.51a17.69,17.69,0,0,1-13.83,13.46c-8.52,1.82-16.21,7.56-23.39,13.82-9.92,8.66-19.48,17-29.43,32.51-9.6,15-25.85,46.94-25.85,71.61,0,13.53,4.24,24.27,13,32.83s19.62,12.79,33.19,12.79,24.34-4.09,32.92-12.51,12.7-19.22,12.7-33.11c0-9.56-2.21-17.88-6.58-24.74-4.25-6.67-16.58-15.68-24.76-19.29-7.42-3.27-11.75-7.71-13.27-13.58-1.32-5.14,3.59-15.65,10-26.45a193.51,193.51,0,0,1,11.06-16.58,14,14,0,0,1,19.93-3.09h0l-5.13,6.74c-14.34,18.81-23.56,29.93-22,35.83.43,1.67,3.07,3.14,5.21,4.08,10.24,4.51,25,15.23,31,24.67,5.85,9.19,8.81,20.09,8.81,32.4,0,17.67-5.71,32.23-17,43.29S216,192.67,198.79,192.67Z"/></g></g></svg>