<svg id="Artwork" xmlns="http://www.w3.org/2000/svg" width="147.7mm" height="77.38mm" viewBox="0 0 418.67 219.33">
  <defs>
    <style>
      .cls-1 {
        fill: #1d1d1b;
      }

      .cls-2 {
        fill: #fff;
      }

      .cls-3, .cls-4 {
        fill: #003764;
      }

      .cls-4 {
        fill-rule: evenodd;
      }
    </style>
  </defs>
  <title>Artboard 1</title>
  <g>
    <path class="cls-1" d="M12.1,171.47h8.66v25H35.88v7.63H12.1Z"/>
    <path class="cls-1" d="M53.18,204.9a17.43,17.43,0,0,1-6.78-1.3A16.52,16.52,0,0,1,41,200a16.08,16.08,0,0,1-3.55-5.43,19.21,19.21,0,0,1,0-13.75,15.9,15.9,0,0,1,8.93-9,17.73,17.73,0,0,1,6.78-1.27,17.91,17.91,0,0,1,6.8,1.27,15.88,15.88,0,0,1,5.38,3.55,16.28,16.28,0,0,1,3.52,5.43,19.21,19.21,0,0,1,0,13.75,15.9,15.9,0,0,1-8.91,9A17.61,17.61,0,0,1,53.18,204.9Zm0-8.12a7.84,7.84,0,0,0,3.4-.71,7.38,7.38,0,0,0,2.52-1.93,8.5,8.5,0,0,0,1.57-2.89,11.79,11.79,0,0,0,0-7,8.51,8.51,0,0,0-1.57-2.89,7.4,7.4,0,0,0-2.52-1.93,8.51,8.51,0,0,0-6.8,0,7.39,7.39,0,0,0-2.52,1.93,8.51,8.51,0,0,0-1.57,2.89,11.8,11.8,0,0,0,0,7,8.49,8.49,0,0,0,1.57,2.89,7.37,7.37,0,0,0,2.52,1.93A7.83,7.83,0,0,0,53.18,196.77Z"/>
    <path class="cls-1" d="M80.52,179.06h-10v-7.58H99.21v7.58H89.28v25.05H80.52Z"/>
    <path class="cls-1" d="M110.2,179.06h-10v-7.58H128.9v7.58H119v25.05H110.2Z"/>
    <path class="cls-1" d="M130.78,171.47h23.49V179H139.44v5h12.18v7H139.44v5.58h15.85v7.49H130.78Z"/>
    <path class="cls-1" d="M158.68,171.47h13.5a15.52,15.52,0,0,1,4.77.69,10.07,10.07,0,0,1,3.65,2,9,9,0,0,1,2.35,3.35,12.07,12.07,0,0,1,.83,4.65,10.72,10.72,0,0,1-1.42,5.6,10.9,10.9,0,0,1-3.77,3.79l7,12.53h-9.3L170.77,193h-3.62v11.11h-8.46Zm12.67,14.73a3.82,3.82,0,0,0,2.79-1.05,3.76,3.76,0,0,0,1.08-2.81,4.08,4.08,0,0,0-1-2.94,3.8,3.8,0,0,0-2.89-1.08h-4.16v7.88Z"/>
    <path class="cls-1" d="M194.94,191.1l-11.6-19.62h9.93l6.36,11.65,6-11.65h9.64L203.6,191v13.06h-8.66Z"/>
    <path class="cls-1" d="M224.06,171.47h22.75v7.58H232.72v6.31h10.91v7.14H232.72v11.6h-8.66Z"/>
    <path class="cls-1" d="M248.74,171.47h8.66v19.13a7.3,7.3,0,0,0,1.25,4.4,4.77,4.77,0,0,0,4.13,1.71,4.67,4.67,0,0,0,4.11-1.74,7.42,7.42,0,0,0,1.22-4.38V171.47h8.76v19.92a14.85,14.85,0,0,1-1,5.65,12,12,0,0,1-2.91,4.28,12.83,12.83,0,0,1-4.45,2.69,16.52,16.52,0,0,1-5.65.93,16.73,16.73,0,0,1-5.68-.93,13,13,0,0,1-4.48-2.67,11.71,11.71,0,0,1-2.91-4.26,15,15,0,0,1-1-5.7Z"/>
    <path class="cls-1" d="M281.34,171.47h7.88l12.53,18.2v-18.2h8.56v32.64h-7.39l-13-18.74v18.74h-8.56Z"/>
    <path class="cls-1" d="M315,171.47h12.53a23.82,23.82,0,0,1,7,1,15.34,15.34,0,0,1,5.55,3,13.57,13.57,0,0,1,3.67,5.14A18.92,18.92,0,0,1,345,188a17.2,17.2,0,0,1-1.35,7.07,14.25,14.25,0,0,1-3.69,5,15.38,15.38,0,0,1-5.58,3,23.31,23.31,0,0,1-6.95,1H315Zm12.18,25a8.19,8.19,0,0,0,8.91-8.71,11,11,0,0,0-.54-3.55,7.29,7.29,0,0,0-1.64-2.74,7.44,7.44,0,0,0-2.76-1.79,11.1,11.1,0,0,0-4-.64h-3.52v17.42Z"/>
    <path class="cls-1" d="M348.16,171.47h23.49V179H356.82v5H369v7H356.82v5.58h15.85v7.49H348.16Z"/>
    <path class="cls-1" d="M376.06,171.47h12.53a23.82,23.82,0,0,1,7,1,15.34,15.34,0,0,1,5.55,3,13.57,13.57,0,0,1,3.67,5.14A18.92,18.92,0,0,1,406.1,188a17.2,17.2,0,0,1-1.35,7.07,14.25,14.25,0,0,1-3.69,5,15.38,15.38,0,0,1-5.58,3,23.31,23.31,0,0,1-6.95,1H376.06Zm12.18,25a8.19,8.19,0,0,0,8.91-8.71,11,11,0,0,0-.54-3.55,7.29,7.29,0,0,0-1.64-2.74,7.44,7.44,0,0,0-2.76-1.79,11.1,11.1,0,0,0-4-.64h-3.52v17.42Z"/>
  </g>
  <g id="_Group_" data-name="&lt;Group&gt;">
    <g id="_Group_2" data-name="&lt;Group&gt;">
      <path id="_Path_" data-name="&lt;Path&gt;" class="cls-1" d="M105.31,67.08a8.51,8.51,0,0,0-5.09,2c.51-5.94-1.69-10.34-5.76-11.87a10.69,10.69,0,0,0-7.63.34l-3.31-8c3-7.46,8.39-16.55,8.39-24,0-5.76-2.91-10-8.5-10-3.39,0-7.13,2.78-10,6.37-3.9-8.64-8-12.72-12.37-12.72-7,0-9.83,7-9.83,12.89,0,4.92,1.35,13.05,6.61,24.59a211.09,211.09,0,0,0-9.5,24.75,28,28,0,0,0-20-8.81A20.47,20.47,0,0,0,16.83,65.9c-2.88,2-4.58,4.74-4.58,7.63,0,4.23,2.88,7.12,7.29,8.31,7.63,2,11,8.13,13.9,20.17,5.26,21.7,18.81,34.76,39.66,34.76a40.08,40.08,0,0,0,40-40,46.92,46.92,0,0,0-.84-8.64A34.92,34.92,0,0,0,113.79,83c1.86-9.33-1.7-15.94-8.47-15.94"/>
    </g>
    <path id="_Path_2" data-name="&lt;Path&gt;" class="cls-2" d="M92.73,62c3.54,1.64,3.81,9,.25,17.82-2.88,8.49-7,13.67-10.89,13.69-3,0-5.59-2.16-5.59-7.92,0-10.85,8.91-27,16.23-23.59"/>
    <path id="_Path_3" data-name="&lt;Path&gt;" class="cls-2" d="M56.15,22.15c0-3.56,1.52-7.8,4.92-7.8q3.55,0,8.64,11.19a90.53,90.53,0,0,0-9,14.76c-3.06-8-4.58-13.91-4.58-18.15"/>
    <path id="_Path_4" data-name="&lt;Path&gt;" class="cls-2" d="M73.11,131.68c-17.79,0-30-12.38-34.75-30.86-3.22-12.72-7.29-21.19-17.63-23.9-1.19-.34-3.39-1.19-3.39-3.39,0-2.38,3.9-5.77,11-5.77,8.44,0,15.43,5.18,20.17,12.07l3.62-1.35c.54-6.95,4.08-16.44,10.28-29.71,7.79-16.78,15.72-28.22,21-28.08,1.68,0,3.68,2,3.68,4.92,0,7-6.13,17.37-11.49,28.71-.54,1.14-3,6.51-3,6.51l3.51,1.52C77.27,60.41,79.65,55.77,80,55l2.63,5.81C77,65.56,72.09,76.74,72.09,85.56,72.09,92,75,96,79.21,97.38c3.9,1.2,7.63.05,10.51-3.35.68,4.08,3.39,7.59,8.65,7.59,4.65,0,7.7-2.67,10-7.25.84,21.36-16.79,37.3-35.26,37.3"/>
    <path id="_Path_5" data-name="&lt;Path&gt;" class="cls-2" d="M109.21,82.34c-1.19,7.13-5.52,15-10.85,15-5.09,0-4.79-6.73-3.6-10.81,1.87-7.29,6.83-14.92,10.55-14.92,3.39,0,4.91,4.58,3.9,10.68"/>
    <path id="_Path_6" data-name="&lt;Path&gt;" class="cls-1" d="M91.2,118.06c-15.09,8.57-29.13,3.1-34.43-12.53l4.39-2.06c4.32,12.73,16.75,16.22,28.25,10.23Z"/>
    <path id="_Path_7" data-name="&lt;Path&gt;" class="cls-1" d="M87.09,85.4a3.94,3.94,0,1,1-3.94-3.93,3.93,3.93,0,0,1,3.94,3.93"/>
    <path id="_Path_8" data-name="&lt;Path&gt;" class="cls-1" d="M103.67,90.16a3.54,3.54,0,1,1-3.54-3.54,3.54,3.54,0,0,1,3.54,3.54"/>
    <g id="_Group_3" data-name="&lt;Group&gt;">
      <path id="_Compound_Path_" data-name="&lt;Compound Path&gt;" class="cls-1" d="M96.92,26.83a3.39,3.39,0,0,1-1.34-.26,3.32,3.32,0,0,1-1.08-.73,3.51,3.51,0,0,1-.72-1.09,3.51,3.51,0,0,1,0-2.67,3.36,3.36,0,0,1,1.8-1.81A3.37,3.37,0,0,1,96.93,20a3.32,3.32,0,0,1,1.33.27,3.43,3.43,0,0,1,1.07.73,3.46,3.46,0,0,1,.72,1.08,3.51,3.51,0,0,1,0,2.67,3.54,3.54,0,0,1-.72,1.09,3.29,3.29,0,0,1-1.08.73A3.4,3.4,0,0,1,96.92,26.83Zm0-.65A2.68,2.68,0,0,0,98,26a2.53,2.53,0,0,0,.84-.58,2.62,2.62,0,0,0,.56-.87,3,3,0,0,0,0-2.16A2.63,2.63,0,0,0,98,20.88a2.71,2.71,0,0,0-2.12,0,2.7,2.7,0,0,0-.85.59,2.63,2.63,0,0,0-.56.88,3,3,0,0,0,0,2.16,2.71,2.71,0,0,0,.56.87,2.56,2.56,0,0,0,.85.58A2.68,2.68,0,0,0,96.92,26.17Zm-1.18-4.5h1.33a1.49,1.49,0,0,1,.55.09A1.21,1.21,0,0,1,98,22a.86.86,0,0,1,.22.33,1,1,0,0,1,.07.36,1.13,1.13,0,0,1-.17.6,1,1,0,0,1-.51.41l.84,1.43h-.74l-.77-1.34h-.55v1.34h-.66Zm1.3,1.6a.58.58,0,0,0,.44-.15.55.55,0,0,0,.14-.39.47.47,0,0,0-.15-.38.71.71,0,0,0-.47-.13h-.61v1Z"/>
    </g>
  </g>
  <g id="_Group_4" data-name="&lt;Group&gt;">
    <g id="_Group_5" data-name="&lt;Group&gt;">
      <path id="_Path_9" data-name="&lt;Path&gt;" class="cls-3" d="M256.74,52a2.18,2.18,0,0,0-.84-2,3.59,3.59,0,0,0-2.15-.54c-1.24,0-2.85.37-2.85,1.95,0,1.81,3.59,1.91,5.94,2.75,4.16,1.48,5.57,3.76,5.57,6.61,0,5.77-5.6,8.49-10.8,8.49-5.5,0-10.47-2.52-10.16-8.62h7.15a3.54,3.54,0,0,0,.91,2.72,4.05,4.05,0,0,0,2.72.6c1.44,0,3.22-.74,3.22-2.31,0-1.74-2.45-2-5.77-3.09-2.92-1-5.74-2.52-5.74-6.51,0-5.4,5.23-7.88,10.06-7.88,5.1,0,9.7,1.91,9.56,7.82Z"/>
      <path id="_Compound_Path_2" data-name="&lt;Compound Path&gt;" class="cls-3" d="M267.41,44.76h11.88c4.39,0,7.25,2.42,7.25,7.72,0,4.83-4.06,9-10.37,9h-5l-1.51,7.25h-7.28Zm5,11h2.82c3,0,3.92-1.11,3.92-2.72,0-1.84-1.64-2.15-3.19-2.15h-2.52Z"/>
      <path id="_Compound_Path_3" data-name="&lt;Compound Path&gt;" class="cls-3" d="M300.42,44.19c6.78,0,10.9,3.19,10.9,10.5,0,8.05-5.3,14.59-13.45,14.59-6.78,0-10.9-3.59-10.9-10.5,0-8.05,5.3-14.59,13.45-14.59m-2.35,19.12c4.43,0,5.87-5.23,5.87-8.79,0-2.18-.84-4.36-3.72-4.36-4.43,0-5.87,5.23-5.87,8.79,0,2.18.84,4.36,3.72,4.36"/>
      <path id="_Compound_Path_4" data-name="&lt;Compound Path&gt;" class="cls-3" d="M315.18,44.76h12.14c4.43,0,7.82,1.21,7.82,6.27a6.38,6.38,0,0,1-5.6,6.61v.07c2.18.6,2.48,2.65,2.48,4.9s-.27,4.7.34,6.11h-7a5.68,5.68,0,0,1-.3-2.35c0-1.14.37-2.62.37-3.83s-.94-2.18-3-2.18h-3.19l-1.74,8.35h-7.25Zm5.1,10.47h3.89c2.45,0,3.59-1.24,3.59-2.68,0-.94-.57-2.08-2.48-2.08h-4Z"/>
      <polygon id="_Path_10" data-name="&lt;Path&gt;" class="cls-3" points="342.79 50.9 336.15 50.9 337.42 44.76 358.09 44.76 356.81 50.9 350.17 50.9 346.48 68.72 339.1 68.72 342.79 50.9"/>
      <polygon id="_Path_11" data-name="&lt;Path&gt;" class="cls-3" points="246.21 77.23 266 77.23 264.76 83.37 252.35 83.37 251.71 86.35 263.22 86.35 262.04 92.06 250.5 92.06 249.87 95.04 262.55 95.04 261.27 101.18 241.21 101.18 246.21 77.23"/>
      <polygon id="_Path_12" data-name="&lt;Path&gt;" class="cls-3" points="268.21 77.23 275.53 77.23 280.02 90.31 280.09 90.31 282.77 77.23 289.79 77.23 284.75 101.18 277.51 101.18 273.11 87.76 273.05 87.76 270.26 101.18 263.25 101.18 268.21 77.23"/>
      <path id="_Path_13" data-name="&lt;Path&gt;" class="cls-3" d="M305,98.87l-.07-.07a7.74,7.74,0,0,1-6.47,3c-8.39,0-9.73-7.11-9.73-10.1,0-7.51,4.29-15,13.69-15,5.37,0,9.86,2.72,9.93,9h-7c-.2-2.21-1.51-3-3.39-3-4.06,0-5.87,4.33-5.87,8.45,0,2.82,1.21,4.7,4.19,4.7,2,0,3.66-.7,4.39-2.65h-3.35L302.4,88h9.8l-2.75,13.18h-4.66Z"/>
      <polygon id="_Path_14" data-name="&lt;Path&gt;" class="cls-3" points="316.72 77.23 324.1 77.23 320.41 95.04 331.01 95.04 329.74 101.18 311.76 101.18 316.72 77.23"/>
      <path id="_Compound_Path_5" data-name="&lt;Compound Path&gt;" class="cls-3" d="M344.3,77.23h7.25l3.72,24H348l-.4-3.42H339.8L338,101.18h-7.51Zm-1.81,15.4h4.6l-.81-7.18h-.07Z"/>
    </g>
    <g id="_Group_6" data-name="&lt;Group&gt;">
      <polygon id="_Path_15" data-name="&lt;Path&gt;" class="cls-3" points="361.31 77.23 368.62 77.23 373.12 90.31 373.18 90.31 375.87 77.23 382.88 77.23 377.85 101.18 370.6 101.18 366.2 87.76 366.14 87.76 363.35 101.18 356.34 101.18 361.31 77.23"/>
      <path id="_Compound_Path_6" data-name="&lt;Compound Path&gt;" class="cls-3" d="M385.06,77.23h11c4.39,0,9.93,2.75,9.53,10.57-.4,8-5.4,13.39-13.72,13.39H380.06ZM388.75,95h3.56c4.83,0,5.94-5,5.94-7.21,0-3.59-1.85-4.46-4.33-4.46H391.2Z"/>
    </g>
    <g id="_Group_7" data-name="&lt;Group&gt;">
      <path id="_Path_16" data-name="&lt;Path&gt;" class="cls-4" d="M224.21,71.38c0,.39.13.92.13,1.31A38.57,38.57,0,0,1,200.86,108l-.13-12.92s0-11.09,6.78-17a28.67,28.67,0,0,1,16.7-6.78"/>
      <path id="_Path_17" data-name="&lt;Path&gt;" class="cls-4" d="M171.37,108a38.23,38.23,0,0,1-23.48-35.36c0-.39.13-.91.13-1.31a28.93,28.93,0,0,1,16.7,6.78c6.78,5.88,6.65,17,6.65,17Z"/>
      <path id="_Compound_Path_7" data-name="&lt;Compound Path&gt;" class="cls-4" d="M172.55,57.55A13.37,13.37,0,1,1,186,70.86a13.4,13.4,0,0,1-13.45-13.31m11.74,53.36h3.52v-18s.13-14.87,10.57-23.74,23.35-10.44,23.35-10.44a38.27,38.27,0,0,0-71.23,0,49.82,49.82,0,0,1,23.35,10.44c10.44,8.87,10.57,23.74,10.57,23.74v17.88Z"/>
    </g>
  </g>
</svg>
