<?xml version="1.0" encoding="utf-8"?>
<!-- Generator: Adobe Illustrator 22.0.1, SVG Export Plug-In . SVG Version: 6.00 Build 0)  -->
<svg version="1.1" id="Artwork" xmlns="http://www.w3.org/2000/svg" xmlns:xlink="http://www.w3.org/1999/xlink" x="0px" y="0px"
	 viewBox="0 0 270.7 94.3" style="enable-background:new 0 0 270.7 94.3;" xml:space="preserve">
<style type="text/css">
	.st0{fill:#003764;}
</style>
<title>Artboard 1</title>
<g id="_Group_4">
	<g id="_Group_5">
		<path id="_Path_9" class="st0" d="M116.7,26c0.1-0.8-0.2-1.5-0.8-2c-0.6-0.4-1.4-0.6-2.2-0.5c-1.2,0-2.9,0.4-2.9,2
			c0,1.8,3.6,1.9,5.9,2.8c4.2,1.5,5.6,3.8,5.6,6.6c0,5.8-5.6,8.5-10.8,8.5c-5.5,0-10.5-2.5-10.2-8.6h7.2c-0.1,1,0.2,2,0.9,2.7
			c0.8,0.5,1.8,0.7,2.7,0.6c1.4,0,3.2-0.7,3.2-2.3c0-1.7-2.5-2-5.8-3.1c-2.9-1-5.7-2.5-5.7-6.5c0-5.4,5.2-7.9,10.1-7.9
			c5.1,0,9.7,1.9,9.6,7.8L116.7,26z"/>
		<path id="_Compound_Path_2" class="st0" d="M127.4,18.8h11.9c4.4,0,7.3,2.4,7.3,7.7c0,4.8-4.1,9-10.4,9h-5l-1.5,7.3h-7.3
			L127.4,18.8z M132.4,29.8h2.8c3,0,3.9-1.1,3.9-2.7c0-1.8-1.6-2.2-3.2-2.2h-2.5L132.4,29.8z"/>
		<path id="_Compound_Path_3" class="st0" d="M160.4,18.2c6.8,0,10.9,3.2,10.9,10.5c0,8.1-5.3,14.6-13.5,14.6
			c-6.8,0-10.9-3.6-10.9-10.5C147,24.7,152.3,18.2,160.4,18.2 M158.1,37.3c4.4,0,5.9-5.2,5.9-8.8c0-2.2-0.8-4.4-3.7-4.4
			c-4.4,0-5.9,5.2-5.9,8.8C154.4,35.1,155.2,37.3,158.1,37.3"/>
		<path id="_Compound_Path_4" class="st0" d="M175.2,18.8h12.1c4.4,0,7.8,1.2,7.8,6.3c0.1,3.3-2.3,6.2-5.6,6.6v0.1
			c2.2,0.6,2.5,2.7,2.5,4.9s-0.3,4.7,0.3,6.1h-7c-0.3-0.8-0.4-1.6-0.3-2.4c0-1.1,0.4-2.6,0.4-3.8c0-1.2-0.9-2.2-3-2.2h-3.2l-1.7,8.4
			h-7.3L175.2,18.8z M180.3,29.2h3.9c2.5,0,3.6-1.2,3.6-2.7c0-0.9-0.6-2.1-2.5-2.1h-4L180.3,29.2z"/>
		<polygon id="_Path_10" class="st0" points="202.8,24.9 196.2,24.9 197.4,18.8 218.1,18.8 216.8,24.9 210.2,24.9 206.5,42.7 
			199.1,42.7 		"/>
		<polygon id="_Path_11" class="st0" points="106.2,51.2 126,51.2 124.8,57.4 112.4,57.4 111.7,60.4 123.2,60.4 122,66.1 
			110.5,66.1 109.9,69 122.6,69 121.3,75.2 101.2,75.2 		"/>
		<polygon id="_Path_12" class="st0" points="128.2,51.2 135.5,51.2 140,64.3 140.1,64.3 142.8,51.2 149.8,51.2 144.8,75.2 
			137.5,75.2 133.1,61.8 133.1,61.8 130.3,75.2 123.3,75.2 		"/>
		<path id="_Path_13" class="st0" d="M165,72.9L165,72.9c-1.6,1.9-4,3-6.5,2.9c-8.4,0-9.7-7.1-9.7-10.1c0-7.5,4.3-15,13.7-15
			c5.4,0,9.9,2.7,9.9,9h-7c-0.2-2.2-1.5-3-3.4-3c-4.1,0-5.9,4.3-5.9,8.5c0,2.8,1.2,4.7,4.2,4.7c2,0,3.7-0.7,4.4-2.7h-3.4l1.1-5.2
			h9.8l-2.8,13.2h-4.7L165,72.9z"/>
		<polygon id="_Path_14" class="st0" points="176.7,51.2 184.1,51.2 180.4,69 191,69 189.7,75.2 171.8,75.2 		"/>
		<path id="_Compound_Path_5" class="st0" d="M204.3,51.2h7.3l3.7,24H208l-0.4-3.4h-7.8l-1.8,3.4h-7.5L204.3,51.2z M202.5,66.6h4.6
			l-0.8-7.2h-0.1L202.5,66.6z"/>
	</g>
	<g id="_Group_6">
		<polygon id="_Path_15" class="st0" points="221.3,51.2 228.6,51.2 233.1,64.3 233.2,64.3 235.9,51.2 242.9,51.2 237.9,75.2 
			230.6,75.2 226.2,61.8 226.1,61.8 223.4,75.2 216.3,75.2 		"/>
		<path id="_Compound_Path_6" class="st0" d="M245.1,51.2h11c4.4,0,9.9,2.8,9.5,10.6c-0.4,8-5.4,13.4-13.7,13.4h-11.8L245.1,51.2z
			 M248.8,69h3.6c4.8,0,5.9-5,5.9-7.2c0-3.6-1.9-4.5-4.3-4.5h-2.7L248.8,69z"/>
	</g>
	<g id="_Group_7">
		<path id="_Path_16" class="st0" d="M84.2,45.4c0,0.4,0.1,0.9,0.1,1.3C84.3,62.1,75,76,60.9,82l-0.1-12.9c0,0,0-11.1,6.8-17
			C72.2,48.1,78.1,45.7,84.2,45.4"/>
		<path id="_Path_17" class="st0" d="M31.4,82C17.1,76,7.9,62.1,7.9,46.6c0-0.4,0.1-0.9,0.1-1.3c6.1,0.4,12,2.8,16.7,6.8
			c6.8,5.9,6.7,17,6.7,17V82z"/>
		<path id="_Compound_Path_7" class="st0" d="M32.6,31.6c0-7.4,5.9-13.4,13.3-13.4c7.4,0,13.4,5.9,13.4,13.3
			c0,7.4-5.9,13.4-13.3,13.4C38.6,44.9,32.6,38.9,32.6,31.6 M44.3,84.9h3.5v-18c0,0,0.1-14.9,10.6-23.7s23.4-10.4,23.4-10.4
			C74,13.1,51.8,3.4,32.1,11.1C22.2,15,14.4,22.8,10.5,32.7c8.6,1.4,16.6,5,23.4,10.4C44.3,52,44.4,66.9,44.4,66.9v17.9L44.3,84.9z"
			/>
	</g>
</g>
</svg>
