<svg xmlns="http://www.w3.org/2000/svg" viewBox="0 0 146.26 55.85"><defs><style>.cls-1{fill:#1c9ad7;}.cls-2,.cls-3,.cls-4{fill:none;}.cls-2,.cls-3{stroke:#1c9ad7;stroke-miterlimit:10;}.cls-2{stroke-width:0.56px;}.cls-3{stroke-width:0.54px;}</style></defs><title>using-1</title><g id="Layer_2" data-name="Layer 2"><g id="Layer_1-2" data-name="Layer 1"><path class="cls-1" d="M145.92,47.64H101.34a.34.34,0,0,1-.34-.35V21.05h0a2.3,2.3,0,0,1,2.28,2.32v22H144v-31h-40.7v2.75h37a2.3,2.3,0,0,1,2.28,2.32H101.34A.34.34,0,0,1,101,19V12.33a.34.34,0,0,1,.34-.35h44.58a.34.34,0,0,1,.34.35v35A.34.34,0,0,1,145.92,47.64Z"/><ellipse class="cls-1" cx="141.71" cy="15.73" rx="0.75" ry="0.77"/><ellipse class="cls-1" cx="139.7" cy="15.73" rx="0.75" ry="0.77"/><ellipse class="cls-1" cx="137.69" cy="15.73" rx="0.75" ry="0.77"/><path class="cls-1" d="M141.4,22.67H122a1,1,0,0,1-1-1h19.39a1,1,0,0,1,1,1Z"/><path class="cls-1" d="M141.4,25.59H122a1,1,0,0,1-1-1h19.39a1,1,0,0,1,1,1Z"/><path class="cls-1" d="M141.4,28.51H122a1,1,0,0,1-1-1h19.39a1,1,0,0,1,1,1Z"/><path class="cls-1" d="M141.4,31.43H122a1,1,0,0,1-1-1h19.39a1,1,0,0,1,1,1Z"/><path class="cls-1" d="M141.4,34.35H122a1,1,0,0,1-1-1h19.39a1,1,0,0,1,1,1Z"/><path class="cls-1" d="M141.4,37.27h-35a1,1,0,0,1-1-1h35a1,1,0,0,1,1,1Z"/><path class="cls-1" d="M141.4,40.19h-35a1,1,0,0,1-1-1h35a1,1,0,0,1,1,1Z"/><path class="cls-1" d="M141.4,43.11h-35a1,1,0,0,1-1-1h35a1,1,0,0,1,1,1Z"/><path class="cls-1" d="M119.42,33.22V22.81h0v-.74a.37.37,0,0,0-.37-.38H106a.37.37,0,0,0-.37.38v.74h0V33.22h0V34a.37.37,0,0,0,.37.38h13a.37.37,0,0,0,.37-.38v-.74h0Zm-1-.81L113.2,28l5.24-4.39Zm-.37-9.73.11,0-5.67,4.75-5.67-4.75.11,0Zm-11.47.95L111.84,28,106.6,32.4Zm.37,9.73-.11,0,5.67-4.75,5.67,4.75-.11,0Z"/><path class="cls-1" d="M70.35,55.85H.53A.54.54,0,0,1,0,55.31V14.21H0a3.6,3.6,0,0,1,3.57,3.63V52.22H67.31V3.63H3.57V7.94h58a3.6,3.6,0,0,1,3.57,3.63H.53A.54.54,0,0,1,0,11V.54A.54.54,0,0,1,.53,0H70.35a.54.54,0,0,1,.53.54V55.31A.54.54,0,0,1,70.35,55.85Z"/><ellipse class="cls-1" cx="63.77" cy="5.87" rx="1.18" ry="1.2"/><ellipse class="cls-1" cx="60.62" cy="5.87" rx="1.18" ry="1.2"/><ellipse class="cls-1" cx="57.47" cy="5.87" rx="1.18" ry="1.2"/><rect class="cls-2" x="7.65" y="20.7" width="24.25" height="4.3"/><rect class="cls-2" x="35.12" y="20.7" width="24.25" height="4.3"/><rect class="cls-3" x="7.93" y="30.54" width="51.5" height="4.47"/><path class="cls-1" d="M9.35,28.77h-1a.33.33,0,0,0,.13.2.43.43,0,0,0,.26.07.52.52,0,0,0,.19,0,.46.46,0,0,0,.15-.1l.21.23a.7.7,0,0,1-.56.22.88.88,0,0,1-.41-.09A.65.65,0,0,1,8,29a.7.7,0,0,1-.1-.37A.72.72,0,0,1,8,28.29.67.67,0,0,1,8.29,28,.79.79,0,0,1,9,28a.63.63,0,0,1,.25.25.75.75,0,0,1,.09.38Zm-.92-.44a.33.33,0,0,0-.11.21H9a.34.34,0,0,0-.11-.21.36.36,0,0,0-.45,0Z"/><path class="cls-1" d="M11.77,28.1a.63.63,0,0,1,.15.46v.79h-.39v-.73a.38.38,0,0,0-.07-.24.23.23,0,0,0-.19-.08.28.28,0,0,0-.22.09.4.4,0,0,0-.08.27v.69h-.39v-.73c0-.22-.09-.33-.26-.33a.27.27,0,0,0-.22.09.4.4,0,0,0-.08.27v.69H9.62V28H10v.16a.5.5,0,0,1,.19-.13.61.61,0,0,1,.24,0,.57.57,0,0,1,.26.06.46.46,0,0,1,.19.17.56.56,0,0,1,.21-.17.66.66,0,0,1,.28-.06A.54.54,0,0,1,11.77,28.1Z"/><path class="cls-1" d="M13.3,28.1a.59.59,0,0,1,.17.46v.79H13.1v-.17a.44.44,0,0,1-.41.19.64.64,0,0,1-.27-.05.4.4,0,0,1-.17-.15.39.39,0,0,1-.06-.22.36.36,0,0,1,.14-.3.72.72,0,0,1,.44-.11h.31a.26.26,0,0,0-.08-.2.34.34,0,0,0-.23-.07.67.67,0,0,0-.21,0,.58.58,0,0,0-.18.09l-.14-.28A.85.85,0,0,1,12.5,28a1.18,1.18,0,0,1,.32,0A.7.7,0,0,1,13.3,28.1Zm-.33,1a.26.26,0,0,0,.11-.14v-.14h-.27c-.16,0-.24.05-.24.16a.15.15,0,0,0,.06.12.26.26,0,0,0,.16,0A.34.34,0,0,0,13,29.05Z"/><path class="cls-1" d="M13.85,27.71a.22.22,0,0,1,0-.32.25.25,0,0,1,.18-.06.25.25,0,0,1,.18.06.2.2,0,0,1,.07.15.22.22,0,0,1-.07.17.27.27,0,0,1-.35,0Zm0,.26h.39v1.38h-.39Z"/><path class="cls-1" d="M14.58,27.45H15v1.9h-.39Z"/><path class="cls-1" d="M8.26,18.17h.36v.32H8.27v1.07H7.87V18.49H7.65v-.32h.22v-.06A.52.52,0,0,1,8,17.72a.54.54,0,0,1,.4-.14l.17,0,.14.06-.11.3a.28.28,0,0,0-.16,0q-.18,0-.18.21Zm.79-.3a.23.23,0,0,1,0-.33.25.25,0,0,1,.18-.07.26.26,0,0,1,.18.06.2.2,0,0,1,.07.16.23.23,0,0,1-.07.17.25.25,0,0,1-.18.07A.26.26,0,0,1,9.05,17.87Zm0,.26h.41v1.42H9Z"/><path class="cls-1" d="M10.4,18.17a.72.72,0,0,1,.28-.05v.38h-.09a.37.37,0,0,0-.27.1.4.4,0,0,0-.1.3v.67H9.81V18.14h.39v.19A.45.45,0,0,1,10.4,18.17Z"/><path class="cls-1" d="M11.06,19.54a.88.88,0,0,1-.26-.11l.14-.3a.83.83,0,0,0,.23.1.93.93,0,0,0,.26,0q.26,0,.26-.13a.09.09,0,0,0-.07-.09l-.22,0-.28-.06a.44.44,0,0,1-.19-.12.35.35,0,0,1-.08-.25.39.39,0,0,1,.08-.24.5.5,0,0,1,.22-.16.94.94,0,0,1,.35-.06,1.33,1.33,0,0,1,.3,0,.82.82,0,0,1,.24.09l-.14.29a.8.8,0,0,0-.4-.11.4.4,0,0,0-.19,0,.11.11,0,0,0-.07.09.09.09,0,0,0,.07.09l.22.05.28.06a.42.42,0,0,1,.19.12.34.34,0,0,1,.08.24.38.38,0,0,1-.08.23.5.5,0,0,1-.23.16,1,1,0,0,1-.35.06A1.34,1.34,0,0,1,11.06,19.54Z"/><path class="cls-1" d="M13.21,19.49a.41.41,0,0,1-.15.07l-.18,0a.54.54,0,0,1-.39-.13.5.5,0,0,1-.14-.38v-.58h-.22v-.32h.22v-.35h.41v.35h.35v.32h-.35v.58a.2.2,0,0,0,0,.14.17.17,0,0,0,.13,0,.26.26,0,0,0,.16-.05Z"/><path class="cls-1" d="M15.44,18.28a.64.64,0,0,1,.16.47v.81H15.2v-.75a.37.37,0,0,0-.07-.25.26.26,0,0,0-.21-.08.32.32,0,0,0-.24.1.4.4,0,0,0-.09.29v.7h-.41V18.14h.39v.17a.54.54,0,0,1,.2-.14.69.69,0,0,1,.26,0A.57.57,0,0,1,15.44,18.28Z"/><path class="cls-1" d="M17,18.27a.61.61,0,0,1,.17.47v.81h-.38v-.18a.45.45,0,0,1-.43.2.66.66,0,0,1-.28-.06.42.42,0,0,1-.18-.15.4.4,0,0,1-.06-.22.37.37,0,0,1,.15-.31.74.74,0,0,1,.45-.11h.32a.26.26,0,0,0-.08-.21.35.35,0,0,0-.24-.07.69.69,0,0,0-.22,0,.57.57,0,0,0-.18.1l-.15-.29a.87.87,0,0,1,.27-.13,1.22,1.22,0,0,1,.33,0A.72.72,0,0,1,17,18.27Zm-.35,1a.27.27,0,0,0,.11-.14V19h-.28q-.25,0-.25.17a.15.15,0,0,0,.06.13.27.27,0,0,0,.17,0A.35.35,0,0,0,16.69,19.25Z"/><path class="cls-1" d="M19.78,18.27a.64.64,0,0,1,.15.47v.81h-.41v-.75a.39.39,0,0,0-.07-.25.24.24,0,0,0-.2-.08.29.29,0,0,0-.23.09.41.41,0,0,0-.08.28v.71h-.41v-.75q0-.34-.27-.34a.28.28,0,0,0-.22.09.41.41,0,0,0-.08.28v.71h-.41V18.14H18v.16a.51.51,0,0,1,.19-.14.63.63,0,0,1,.25,0,.6.6,0,0,1,.27.06.47.47,0,0,1,.19.17.58.58,0,0,1,.22-.17.67.67,0,0,1,.29-.06A.56.56,0,0,1,19.78,18.27Z"/><path class="cls-1" d="M21.68,19H20.62a.33.33,0,0,0,.14.21.44.44,0,0,0,.27.08.53.53,0,0,0,.19,0,.47.47,0,0,0,.16-.1l.22.24a.72.72,0,0,1-.58.23.9.9,0,0,1-.42-.09.68.68,0,0,1-.28-.26.77.77,0,0,1,0-.75.69.69,0,0,1,.27-.26.82.82,0,0,1,.75,0,.65.65,0,0,1,.26.26.78.78,0,0,1,.1.39Zm-.95-.46a.34.34,0,0,0-.11.22h.69a.33.33,0,0,0-.34-.3A.35.35,0,0,0,20.73,18.51Z"/><path class="cls-1" d="M35.12,17.53h.41v2h-.41Z"/><path class="cls-1" d="M37,18.21a.61.61,0,0,1,.17.47v.81h-.38v-.18a.45.45,0,0,1-.43.2.66.66,0,0,1-.28-.06.42.42,0,0,1-.18-.15.4.4,0,0,1-.06-.22.37.37,0,0,1,.15-.31.74.74,0,0,1,.45-.11h.32a.26.26,0,0,0-.08-.21.35.35,0,0,0-.24-.07.69.69,0,0,0-.22,0,.57.57,0,0,0-.18.1l-.15-.29a.87.87,0,0,1,.27-.13,1.22,1.22,0,0,1,.33,0A.72.72,0,0,1,37,18.21Zm-.35,1a.27.27,0,0,0,.11-.14V18.9h-.28q-.25,0-.25.17a.15.15,0,0,0,.06.13.27.27,0,0,0,.17,0A.35.35,0,0,0,36.62,19.19Z"/><path class="cls-1" d="M37.63,19.47a.88.88,0,0,1-.26-.11l.14-.3a.83.83,0,0,0,.23.1.93.93,0,0,0,.26,0q.26,0,.26-.13a.09.09,0,0,0-.07-.09l-.22,0-.28-.06a.44.44,0,0,1-.19-.12.35.35,0,0,1-.08-.25.39.39,0,0,1,.08-.24.5.5,0,0,1,.22-.16.94.94,0,0,1,.35-.06,1.33,1.33,0,0,1,.3,0,.82.82,0,0,1,.24.09l-.14.29a.8.8,0,0,0-.4-.11.4.4,0,0,0-.19,0,.11.11,0,0,0-.07.09.09.09,0,0,0,.07.09l.22.05.28.06a.42.42,0,0,1,.19.12.34.34,0,0,1,.08.24.38.38,0,0,1-.08.23.5.5,0,0,1-.23.16,1,1,0,0,1-.35.06A1.34,1.34,0,0,1,37.63,19.47Z"/><path class="cls-1" d="M39.79,19.42a.41.41,0,0,1-.15.07l-.18,0a.54.54,0,0,1-.39-.13.5.5,0,0,1-.14-.38v-.58h-.22V18.1h.22v-.35h.41v.35h.35v.32h-.35V19a.2.2,0,0,0,0,.14.17.17,0,0,0,.13,0,.26.26,0,0,0,.16-.05Z"/><path class="cls-1" d="M42,18.21a.64.64,0,0,1,.16.47v.81h-.41v-.75a.37.37,0,0,0-.07-.25.26.26,0,0,0-.21-.08.32.32,0,0,0-.24.1.4.4,0,0,0-.09.29v.7h-.41V18.07h.39v.17a.54.54,0,0,1,.2-.14.69.69,0,0,1,.26,0A.57.57,0,0,1,42,18.21Z"/><path class="cls-1" d="M43.61,18.21a.61.61,0,0,1,.17.47v.81h-.38v-.18a.45.45,0,0,1-.43.2.66.66,0,0,1-.28-.06.42.42,0,0,1-.18-.15.4.4,0,0,1-.06-.22.37.37,0,0,1,.15-.31.74.74,0,0,1,.45-.11h.32a.26.26,0,0,0-.08-.21.35.35,0,0,0-.24-.07.69.69,0,0,0-.22,0,.57.57,0,0,0-.18.1l-.15-.29a.87.87,0,0,1,.27-.13,1.22,1.22,0,0,1,.33,0A.72.72,0,0,1,43.61,18.21Zm-.35,1a.27.27,0,0,0,.11-.14V18.9H43.1q-.25,0-.25.17a.15.15,0,0,0,.06.13.27.27,0,0,0,.17,0A.35.35,0,0,0,43.26,19.19Z"/><path class="cls-1" d="M46.36,18.21a.65.65,0,0,1,.15.47v.81h-.41v-.75a.39.39,0,0,0-.07-.25.24.24,0,0,0-.2-.08.29.29,0,0,0-.23.09.41.41,0,0,0-.08.28v.71h-.41v-.75c0-.22-.09-.34-.27-.34a.29.29,0,0,0-.22.09.41.41,0,0,0-.08.28v.71h-.41V18.07h.39v.16a.51.51,0,0,1,.19-.14A.62.62,0,0,1,45,18a.59.59,0,0,1,.27.06.47.47,0,0,1,.19.17.57.57,0,0,1,.22-.17.67.67,0,0,1,.29-.06A.56.56,0,0,1,46.36,18.21Z"/><path class="cls-1" d="M48.26,18.9H47.2a.33.33,0,0,0,.14.21.44.44,0,0,0,.27.08.53.53,0,0,0,.19,0,.47.47,0,0,0,.16-.1l.22.24a.72.72,0,0,1-.58.23.9.9,0,0,1-.42-.09.68.68,0,0,1-.28-.26.77.77,0,0,1,0-.75.69.69,0,0,1,.27-.26.82.82,0,0,1,.75,0,.65.65,0,0,1,.26.26.78.78,0,0,1,.1.39Zm-.95-.46a.34.34,0,0,0-.11.22h.69a.33.33,0,0,0-.34-.3A.35.35,0,0,0,47.31,18.44Z"/><path class="cls-4" d="M16.8,40.49a.16.16,0,0,1-.12,0,.19.19,0,0,1,0-.13v-.55H17v-.3h-.33v-.33h-.39v.33H16v.3h.21v.56a.48.48,0,0,0,.13.36.51.51,0,0,0,.37.12l.18,0a.39.39,0,0,0,.14-.06l-.1-.28A.25.25,0,0,1,16.8,40.49Z"/><path class="cls-4" d="M13.41,39.6a.53.53,0,0,0-.44-.19.7.7,0,0,0-.34.08.62.62,0,0,0-.24.23.7.7,0,0,0,0,.69.62.62,0,0,0,.24.23.7.7,0,0,0,.34.08.54.54,0,0,0,.42-.17v.06a.37.37,0,0,1-.1.28A.42.42,0,0,1,13,41a.84.84,0,0,1-.26,0,.63.63,0,0,1-.21-.11l-.15.28a.8.8,0,0,0,.29.14,1.37,1.37,0,0,0,.37,0,.78.78,0,0,0,.56-.18.73.73,0,0,0,.19-.56V39.43h-.37Zm-.11.7a.35.35,0,0,1-.25.09.36.36,0,0,1-.25-.09.34.34,0,0,1,0-.48.36.36,0,0,1,.25-.09.35.35,0,0,1,.25.09.35.35,0,0,1,0,.48Z"/><path class="cls-4" d="M14.33,38.8a.24.24,0,0,0-.17.06.22.22,0,0,0,0,.31.24.24,0,0,0,.17.06.24.24,0,0,0,.17-.06.22.22,0,0,0,.07-.16.19.19,0,0,0-.07-.15A.25.25,0,0,0,14.33,38.8Z"/><path class="cls-4" d="M15.71,40,15.44,40l-.21,0a.09.09,0,0,1-.07-.09.1.1,0,0,1,.06-.09.38.38,0,0,1,.19,0,.76.76,0,0,1,.39.1l.13-.28a.78.78,0,0,0-.23-.09,1.27,1.27,0,0,0-.28,0,.9.9,0,0,0-.33.06.48.48,0,0,0-.21.16.37.37,0,0,0-.07.23.33.33,0,0,0,.08.24.42.42,0,0,0,.18.12l.27.06.21,0a.09.09,0,0,1,.07.08q0,.12-.25.12a.9.9,0,0,1-.25,0,.8.8,0,0,1-.22-.09l-.13.28a.84.84,0,0,0,.25.1,1.28,1.28,0,0,0,.33,0,1,1,0,0,0,.34-.05.48.48,0,0,0,.22-.15.36.36,0,0,0,.07-.22.33.33,0,0,0-.08-.23A.41.41,0,0,0,15.71,40Z"/><path class="cls-4" d="M18.21,39.49a.78.78,0,0,0-.72,0,.65.65,0,0,0-.26.25.74.74,0,0,0,0,.72.65.65,0,0,0,.27.25.86.86,0,0,0,.4.09.69.69,0,0,0,.55-.22l-.21-.23a.45.45,0,0,1-.15.1.51.51,0,0,1-.18,0,.42.42,0,0,1-.25-.07.32.32,0,0,1-.13-.2h1v-.11a.74.74,0,0,0-.09-.37A.62.62,0,0,0,18.21,39.49Zm-.68.49a.32.32,0,0,1,.11-.21.33.33,0,0,1,.22-.08.32.32,0,0,1,.33.28Z"/><path class="cls-4" d="M19.18,39.6v-.18h-.37v1.36h.39v-.64a.38.38,0,0,1,.09-.28.35.35,0,0,1,.26-.09h.09v-.36a.69.69,0,0,0-.27.05A.44.44,0,0,0,19.18,39.6Z"/><path class="cls-4" d="M11.8,39.49a.78.78,0,0,0-.72,0,.65.65,0,0,0-.26.25.7.7,0,0,0-.09.36.69.69,0,0,0,.09.36.65.65,0,0,0,.27.25.86.86,0,0,0,.4.09.69.69,0,0,0,.55-.22l-.21-.23a.45.45,0,0,1-.15.1.51.51,0,0,1-.18,0,.42.42,0,0,1-.25-.07.32.32,0,0,1-.13-.2h1v-.11a.74.74,0,0,0-.09-.37A.62.62,0,0,0,11.8,39.49Zm-.68.49a.32.32,0,0,1,.11-.21.33.33,0,0,1,.22-.08.32.32,0,0,1,.33.28Z"/><rect class="cls-4" x="14.14" y="39.43" width="0.39" height="1.36"/><path class="cls-4" d="M10.15,39.6v-.18H9.78v1.36h.39v-.64a.38.38,0,0,1,.09-.28.35.35,0,0,1,.26-.09h.09v-.36a.69.69,0,0,0-.27.05A.44.44,0,0,0,10.15,39.6Z"/><path class="cls-1" d="M17.86,39.7a.33.33,0,0,0-.22.08.32.32,0,0,0-.11.21h.66a.32.32,0,0,0-.33-.28Z"/><path class="cls-1" d="M13,39.73a.36.36,0,0,0-.25.09.34.34,0,0,0,0,.48.36.36,0,0,0,.25.09.35.35,0,0,0,.25-.09.35.35,0,0,0,0-.48A.35.35,0,0,0,13,39.73Z"/><path class="cls-1" d="M11.45,39.7a.33.33,0,0,0-.22.08.32.32,0,0,0-.11.21h.66a.32.32,0,0,0-.33-.28Z"/><path class="cls-1" d="M20.7,39.31l1.25.41V38.1a.24.24,0,0,0-.24-.24H7.89a.24.24,0,0,0-.24.24V42a.24.24,0,0,0,.24.24H20.56l-.73-2A.67.67,0,0,1,20.7,39.31Zm-10.08.46h-.09a.35.35,0,0,0-.26.09.38.38,0,0,0-.09.28v.64H9.78V39.43h.37v.18a.44.44,0,0,1,.19-.15.69.69,0,0,1,.27-.05Zm1.52.45h-1a.32.32,0,0,0,.13.2.42.42,0,0,0,.25.07.51.51,0,0,0,.18,0,.45.45,0,0,0,.15-.1l.21.23a.69.69,0,0,1-.55.22.86.86,0,0,1-.4-.09.65.65,0,0,1-.27-.25.69.69,0,0,1-.09-.36.7.7,0,0,1,.09-.36.65.65,0,0,1,.26-.25.78.78,0,0,1,.72,0,.62.62,0,0,1,.25.25.74.74,0,0,1,.09.37Zm1.64.34a.73.73,0,0,1-.19.56.78.78,0,0,1-.56.18,1.37,1.37,0,0,1-.37,0,.8.8,0,0,1-.29-.14l.15-.28a.63.63,0,0,0,.21.11A.84.84,0,0,0,13,41a.42.42,0,0,0,.3-.09.37.37,0,0,0,.1-.28v-.06a.54.54,0,0,1-.42.17.7.7,0,0,1-.34-.08.62.62,0,0,1-.24-.23.7.7,0,0,1,0-.69.62.62,0,0,1,.24-.23.7.7,0,0,1,.34-.08.53.53,0,0,1,.44.19v-.17h.37Zm.75.23h-.39V39.43h.39Zm0-1.61a.24.24,0,0,1-.17.06.24.24,0,0,1-.17-.06.22.22,0,0,1,0-.31.24.24,0,0,1,.17-.06.25.25,0,0,1,.17.06.19.19,0,0,1,.07.15A.22.22,0,0,1,14.5,39.17Zm1.39,1.42a.48.48,0,0,1-.22.15,1,1,0,0,1-.34.05,1.28,1.28,0,0,1-.33,0,.84.84,0,0,1-.25-.1l.13-.28a.8.8,0,0,0,.22.09.9.9,0,0,0,.25,0q.25,0,.25-.12a.09.09,0,0,0-.07-.08l-.21,0-.27-.06a.42.42,0,0,1-.18-.12.33.33,0,0,1-.08-.24.37.37,0,0,1,.07-.23.48.48,0,0,1,.21-.16.9.9,0,0,1,.33-.06,1.27,1.27,0,0,1,.28,0,.78.78,0,0,1,.23.09l-.13.28a.76.76,0,0,0-.39-.1.38.38,0,0,0-.19,0,.1.1,0,0,0-.06.09.09.09,0,0,0,.07.09l.21,0,.27.06a.41.41,0,0,1,.18.11.33.33,0,0,1,.08.23A.36.36,0,0,1,15.89,40.6Zm1,.19-.18,0a.51.51,0,0,1-.37-.12.48.48,0,0,1-.13-.36v-.56H16v-.3h.21v-.33h.39v.33H17v.3h-.33v.55a.19.19,0,0,0,0,.13.16.16,0,0,0,.12,0,.25.25,0,0,0,.16-.05l.1.28A.39.39,0,0,1,16.92,40.78Zm1.62-.57h-1a.32.32,0,0,0,.13.2.42.42,0,0,0,.25.07.51.51,0,0,0,.18,0,.45.45,0,0,0,.15-.1l.21.23a.69.69,0,0,1-.55.22.86.86,0,0,1-.4-.09.65.65,0,0,1-.27-.25.74.74,0,0,1,0-.72.65.65,0,0,1,.26-.25.78.78,0,0,1,.72,0,.62.62,0,0,1,.25.25.74.74,0,0,1,.09.37Zm1.1-.45h-.09a.35.35,0,0,0-.26.09.38.38,0,0,0-.09.28v.64h-.39V39.43h.37v.18a.44.44,0,0,1,.19-.15.69.69,0,0,1,.27-.05Z"/><path class="cls-1" d="M29.25,42.57l-2.33-.77-5.21-1.72-1.08-.36a.33.33,0,0,0-.41.43l.63,1.74.22.61,2.23,6.17a.32.32,0,0,0,.62,0L25,45.26l2.14,2.18a1.16,1.16,0,0,0-.21-1.61l-2-2a.32.32,0,0,0-.54.13l-.54,1.69a.32.32,0,0,1-.62,0L22.1,42.5l-.28-.78a.33.33,0,0,1,.41-.43L25.9,42.5l.65.22a.33.33,0,0,1,.12.55,1.11,1.11,0,0,0-.44,1.1l3-1.17A.33.33,0,0,0,29.25,42.57Z"/><path class="cls-1" d="M88.75,33.67l2.43-1.28,5.45-2.87,1.13-.6a.37.37,0,0,0,0-.66l-1.89-.85-.66-.3-6.71-3a.36.36,0,0,0-.47.51l1.9,3.52L75,28.17a1.3,1.3,0,0,0,1.47,1.08l14.67,0a.36.36,0,0,0,.31-.54l-.95-1.76a.36.36,0,0,1,.47-.51L94.37,28l.85.38a.37.37,0,0,1,0,.66l-3.84,2-.68.36a.37.37,0,0,1-.54-.33,1.25,1.25,0,0,0-.55-1.21l-1.41,3.36A.37.37,0,0,0,88.75,33.67Z"/></g></g></svg>