<svg id="Layer_1" data-name="Layer 1" xmlns="http://www.w3.org/2000/svg" xmlns:xlink="http://www.w3.org/1999/xlink" viewBox="0 0 113.39 113.39"><defs><style>.cls-1{fill:url(#linear-gradient);}.cls-2,.cls-4{fill:none;stroke-linecap:round;stroke-miterlimit:10;stroke-width:3.2px;}.cls-2{stroke:url(#linear-gradient-2);}.cls-3{fill:url(#linear-gradient-3);}.cls-4{stroke:url(#linear-gradient-4);}.cls-5{fill:url(#linear-gradient-5);}.cls-6{fill:url(#linear-gradient-6);}</style><linearGradient id="linear-gradient" x1="53.82" y1="25.11" x2="53.82" y2="37.33" gradientUnits="userSpaceOnUse"><stop offset="0" stop-color="#f7a834"/><stop offset="0.18" stop-color="#f59a33"/><stop offset="0.53" stop-color="#f07632"/><stop offset="0.99" stop-color="#e73b30"/><stop offset="1" stop-color="#e73a30"/></linearGradient><linearGradient id="linear-gradient-2" x1="37.85" y1="78.65" x2="69.62" y2="46.88" gradientUnits="userSpaceOnUse"><stop offset="0" stop-color="#1d9ad7"/><stop offset="0.48" stop-color="#1366af"/><stop offset="1" stop-color="#423f92"/></linearGradient><linearGradient id="linear-gradient-3" x1="23.25" y1="44.28" x2="23.25" y2="54.96" xlink:href="#linear-gradient"/><linearGradient id="linear-gradient-4" x1="11" y1="82.94" x2="35.55" y2="58.39" xlink:href="#linear-gradient-2"/><linearGradient id="linear-gradient-5" x1="71.06" y1="84.91" x2="105.74" y2="50.23" xlink:href="#linear-gradient-2"/><linearGradient id="linear-gradient-6" x1="523.5" y1="62.74" x2="534.9" y2="62.74" gradientTransform="translate(146.33 -495.58) rotate(90)" xlink:href="#linear-gradient"/></defs><title>age</title><circle class="cls-1" cx="53.82" cy="31.22" r="6.11"/><path class="cls-2" d="M57.83,39.48c3.39,0,4.77,2.79,5.28,4.34l4.17,13.7c.83,2.95-4.09,4.21-5,1.34,0,0-3.34-11.93-3-10.51h0l5.74,20.07a.14.14,0,0,1-.14.19H59.14V86c0,3-5.39,3-5.39,0v0c0,3-5.4,3-5.4,0V68.6H42.54a.14.14,0,0,1-.14-.19s5.09-18,5.54-19.64h0L45.15,58.85c-.89,2.75-5.78,1.62-4.92-1.33l4.16-13.71a5.47,5.47,0,0,1,5.24-4.34Z"/><circle class="cls-3" cx="23.25" cy="49.62" r="5.34"/><path class="cls-4" d="M36.82,61.95l-6.58-4.06A6.2,6.2,0,0,0,27,57H19.19a6.21,6.21,0,0,0-3.34,1l-6,3.8a2.3,2.3,0,0,0-.62,3.09h0c.62,1,1.85,1.9,2.88,1.08L17,63.06a0,0,0,0,1,.06,0V75.94h0V86.17c0,1.13,1.6,2.09,2.73,2.11s3.53-.81,3.53-2.06V76a0,0,0,0,1,0,0h-.14a0,0,0,0,1,0,0V86.17c0,1.13,2.2,2.09,3.33,2.11s2.81-.81,2.81-2.06V75.94h0V63.1a0,0,0,0,1,.06,0l4.87,3c1,.62,2.26-.26,2.88-1.08h0A2.41,2.41,0,0,0,36.82,61.95Z"/><path class="cls-5" d="M99.68,88.28a5.22,5.22,0,0,1-5.36-5.38L94.26,62l-5.6-8.85c-3.67,5-3.71,5-4.39,5.09-.12,0,3.36,0-10.12,0A4.35,4.35,0,0,1,69.88,53a4.39,4.39,0,0,1,4.33-3.46h6.15L86,40.89a5.56,5.56,0,0,1,7.12-2.73,6.07,6.07,0,0,1,2.51,2.19l6.81,10.33a11.13,11.13,0,0,1,2,5.65h0c.07.68.07,1.88.07,4.25s0,5.76,0,9c0,6.57,0,13.13,0,13.13C104.45,86.21,102.66,88.28,99.68,88.28Zm-11-39h.08a2.28,2.28,0,0,1,1.85,1.06L97.1,60.5a2.28,2.28,0,0,1,.35,1.22l.05,21.17a1.93,1.93,0,0,0,2,2.18c.32,0,1.7,0,1.7-2.32,0-10,0-25,0-26.14v0a8,8,0,0,0-1.47-4.18L93,42.07a2.9,2.9,0,0,0-1.11-1,2.41,2.41,0,0,0-3,1.32l-.09.16L82.1,52.77H74.22a1.2,1.2,0,0,0-1.2.89,1.15,1.15,0,0,0,1.12,1.41l9.13,0,3.6-4.88A2.28,2.28,0,0,1,88.71,49.24Zm5.55,12.49h0Zm-19.7,26A1.52,1.52,0,0,1,73,86.25V60.7a1.52,1.52,0,0,1,3,0V86.25A1.52,1.52,0,0,1,74.56,87.77Z"/><circle class="cls-6" cx="83.59" cy="33.62" r="5.7"/></svg>