<svg id="Layer_1" data-name="Layer 1" xmlns="http://www.w3.org/2000/svg" xmlns:xlink="http://www.w3.org/1999/xlink" viewBox="0 0 113.39 113.39"><defs><style>.cls-1{fill:url(#linear-gradient);}.cls-2{fill:url(#linear-gradient-2);}</style><linearGradient id="linear-gradient" x1="18.46" y1="73.85" x2="72.96" y2="73.85" gradientUnits="userSpaceOnUse"><stop offset="0" stop-color="#1d9ad7"/><stop offset="0.48" stop-color="#1366af"/><stop offset="1" stop-color="#423f92"/></linearGradient><linearGradient id="linear-gradient-2" x1="15.44" y1="39.04" x2="97.95" y2="39.04" gradientUnits="userSpaceOnUse"><stop offset="0" stop-color="#f7a834"/><stop offset="0.18" stop-color="#f59a33"/><stop offset="0.53" stop-color="#f07632"/><stop offset="0.99" stop-color="#e73b30"/><stop offset="1" stop-color="#e73a30"/></linearGradient></defs><title>attendance</title><path class="cls-1" d="M31.13,62.49h5.5a1.19,1.19,0,0,1,1.19,1.19v31.1A1.19,1.19,0,0,1,36.63,96h-5.5a1.19,1.19,0,0,1-1.19-1.19V63.68A1.19,1.19,0,0,1,31.13,62.49ZM18.46,69.56V94.79A1.19,1.19,0,0,0,19.66,96h5.5a1.19,1.19,0,0,0,1.19-1.19V69.56a1.19,1.19,0,0,0-1.19-1.19h-5.5A1.19,1.19,0,0,0,18.46,69.56ZM41.65,57V94.79A1.19,1.19,0,0,0,42.84,96h5.5a1.19,1.19,0,0,0,1.19-1.19V57a1.19,1.19,0,0,0-1.19-1.19h-5.5A1.19,1.19,0,0,0,41.65,57Zm12,5.56v32.2A1.19,1.19,0,0,0,54.8,96h5.5a1.19,1.19,0,0,0,1.19-1.19V62.59a1.19,1.19,0,0,0-1.19-1.19H54.8A1.19,1.19,0,0,0,53.61,62.59Zm11.47-9.67V94.79A1.19,1.19,0,0,0,66.27,96h5.5A1.19,1.19,0,0,0,73,94.79V52.92a1.19,1.19,0,0,0-1.19-1.19h-5.5A1.19,1.19,0,0,0,65.07,52.92Z"/><path class="cls-2" d="M15.44,59.58h0L46,34.78a1.16,1.16,0,0,1,1.53,0l.53.34,15.65,9.73c.54.32,1.08.59,1.58.21l.09-.07,19.5-17.38L73.28,23.82a.46.46,0,0,1,0-.88l24.16-5.53a.41.41,0,0,1,.49.52L91.31,41.15a.46.46,0,0,1-.87,0L87.08,30.78l.34-.11a2.62,2.62,0,0,1,3.31,1.68h0l3-10.38a.41.41,0,0,0-.49-.52l-8.66,2a.46.46,0,0,0,0,.88l3.83,1.24a1.42,1.42,0,0,1,.43,2.41L65.63,49.15a1.3,1.3,0,0,1-1.63,0c-.27-.18-.69-.43-.71-.46L47.58,38.51c-.66-.53-1.08-.59-1.58-.22l-.11.09L19.91,60C18.73,61.13,16.58,60.76,15.44,59.58Z"/></svg>