<svg id="Layer_1" data-name="Layer 1" xmlns="http://www.w3.org/2000/svg" xmlns:xlink="http://www.w3.org/1999/xlink" viewBox="0 0 113.39 113.39"><defs><style>.cls-1,.cls-2,.cls-3,.cls-4,.cls-5,.cls-6,.cls-7{fill:none;stroke-miterlimit:10;stroke-width:4.48px;}.cls-1{stroke:url(#linear-gradient);}.cls-2{stroke:url(#linear-gradient-2);}.cls-3{stroke:url(#linear-gradient-3);}.cls-4{stroke:url(#linear-gradient-4);}.cls-5{stroke:url(#linear-gradient-5);}.cls-6{stroke:url(#linear-gradient-6);}.cls-7{stroke:url(#linear-gradient-7);}.cls-8{fill:url(#New_Gradient_Swatch_copy_5);}</style><linearGradient id="linear-gradient" x1="82.76" y1="20.88" x2="82.76" y2="40.5" gradientUnits="userSpaceOnUse"><stop offset="0" stop-color="#f7a834"/><stop offset="1" stop-color="#ee7133"/></linearGradient><linearGradient id="linear-gradient-2" x1="56.75" y1="20.88" x2="56.75" y2="40.5" xlink:href="#linear-gradient"/><linearGradient id="linear-gradient-3" x1="30.75" y1="20.88" x2="30.75" y2="40.5" xlink:href="#linear-gradient"/><linearGradient id="linear-gradient-4" x1="30.75" y1="46.88" x2="30.75" y2="66.51" gradientUnits="userSpaceOnUse"><stop offset="0" stop-color="#ee7033"/><stop offset="0.26" stop-color="#ed6833"/><stop offset="0.67" stop-color="#ea5131"/><stop offset="1" stop-color="#e73a30"/></linearGradient><linearGradient id="linear-gradient-5" x1="56.75" y1="46.88" x2="56.75" y2="66.51" xlink:href="#linear-gradient-4"/><linearGradient id="linear-gradient-6" x1="82.76" y1="46.88" x2="82.76" y2="66.51" xlink:href="#linear-gradient-4"/><linearGradient id="linear-gradient-7" x1="30.75" y1="72.88" x2="30.75" y2="92.51" gradientUnits="userSpaceOnUse"><stop offset="0" stop-color="#ea5230"/><stop offset="1" stop-color="#e73a30"/></linearGradient><linearGradient id="New_Gradient_Swatch_copy_5" x1="20.61" y1="92.78" x2="92.78" y2="20.61" gradientUnits="userSpaceOnUse"><stop offset="0" stop-color="#1d9ad7"/><stop offset="0.5" stop-color="#1366af"/><stop offset="1" stop-color="#423f92"/></linearGradient></defs><title>availabiity</title><line class="cls-1" x1="90.99" y1="22.46" x2="74.53" y2="38.92"/><line class="cls-2" x1="64.98" y1="22.46" x2="48.52" y2="38.92"/><line class="cls-3" x1="38.98" y1="22.46" x2="22.52" y2="38.92"/><line class="cls-4" x1="38.98" y1="48.46" x2="22.52" y2="64.92"/><line class="cls-5" x1="64.98" y1="48.46" x2="48.52" y2="64.92"/><line class="cls-6" x1="90.99" y1="48.46" x2="74.53" y2="64.92"/><line class="cls-7" x1="38.98" y1="74.46" x2="22.52" y2="90.92"/><path class="cls-8" d="M37.38,42.12H23.88a4.69,4.69,0,0,1-4.68-4.68V23.94a4.69,4.69,0,0,1,4.68-4.68H37.38a4.69,4.69,0,0,1,4.68,4.68V37.44A4.69,4.69,0,0,1,37.38,42.12ZM23.88,23.74a.2.2,0,0,0-.2.2V37.44a.2.2,0,0,0,.2.2H37.38a.2.2,0,0,0,.2-.2V23.94a.2.2,0,0,0-.2-.2ZM37.38,42.12H23.88a4.69,4.69,0,0,1-4.68-4.68V23.94a4.69,4.69,0,0,1,4.68-4.68H37.38a4.69,4.69,0,0,1,4.68,4.68V37.44A4.69,4.69,0,0,1,37.38,42.12ZM23.88,23.74a.2.2,0,0,0-.2.2V37.44a.2.2,0,0,0,.2.2H37.38a.2.2,0,0,0,.2-.2V23.94a.2.2,0,0,0-.2-.2ZM63.5,42.12H50a4.69,4.69,0,0,1-4.68-4.68V23.94A4.69,4.69,0,0,1,50,19.27H63.5a4.69,4.69,0,0,1,4.68,4.68V37.44A4.69,4.69,0,0,1,63.5,42.12ZM50,23.74a.2.2,0,0,0-.2.2V37.44a.2.2,0,0,0,.2.2H63.5a.2.2,0,0,0,.2-.2V23.94a.2.2,0,0,0-.2-.2ZM89.5,42.12H76a4.69,4.69,0,0,1-4.68-4.68V23.94A4.69,4.69,0,0,1,76,19.27H89.5a4.69,4.69,0,0,1,4.68,4.68V37.44A4.69,4.69,0,0,1,89.5,42.12ZM76,23.74a.2.2,0,0,0-.2.2V37.44a.2.2,0,0,0,.2.2H89.5a.2.2,0,0,0,.2-.2V23.94a.2.2,0,0,0-.2-.2ZM37.38,68.12H23.88a4.69,4.69,0,0,1-4.68-4.68V49.95a4.69,4.69,0,0,1,4.68-4.68H37.38a4.69,4.69,0,0,1,4.68,4.68V63.44A4.69,4.69,0,0,1,37.38,68.12ZM23.88,49.74a.2.2,0,0,0-.2.2V63.44a.2.2,0,0,0,.2.2H37.38a.2.2,0,0,0,.2-.2V49.95a.2.2,0,0,0-.2-.2ZM63.5,68.12H50a4.69,4.69,0,0,1-4.68-4.68V49.95A4.69,4.69,0,0,1,50,45.27H63.5a4.69,4.69,0,0,1,4.68,4.68V63.44A4.69,4.69,0,0,1,63.5,68.12ZM50,49.74a.2.2,0,0,0-.2.2V63.44a.2.2,0,0,0,.2.2H63.5a.2.2,0,0,0,.2-.2V49.95a.2.2,0,0,0-.2-.2ZM89.5,68.12H76a4.69,4.69,0,0,1-4.68-4.68V49.95A4.69,4.69,0,0,1,76,45.27H89.5a4.69,4.69,0,0,1,4.68,4.68V63.44A4.69,4.69,0,0,1,89.5,68.12ZM76,49.74a.2.2,0,0,0-.2.2V63.44a.2.2,0,0,0,.2.2H89.5a.2.2,0,0,0,.2-.2V49.95a.2.2,0,0,0-.2-.2ZM37.38,94.12H23.88a4.69,4.69,0,0,1-4.68-4.68V75.95a4.69,4.69,0,0,1,4.68-4.68H37.38a4.69,4.69,0,0,1,4.68,4.68V89.44A4.69,4.69,0,0,1,37.38,94.12ZM23.88,75.75a.2.2,0,0,0-.2.2V89.44a.2.2,0,0,0,.2.2H37.38a.2.2,0,0,0,.2-.2V75.95a.2.2,0,0,0-.2-.2ZM63.5,94.12H50a4.69,4.69,0,0,1-4.68-4.68V75.95A4.69,4.69,0,0,1,50,71.27H63.5a4.69,4.69,0,0,1,4.68,4.68V89.44A4.69,4.69,0,0,1,63.5,94.12ZM50,75.75a.2.2,0,0,0-.2.2V89.44a.2.2,0,0,0,.2.2H63.5a.2.2,0,0,0,.2-.2V75.95a.2.2,0,0,0-.2-.2ZM89.5,94.12H76a4.69,4.69,0,0,1-4.68-4.68V75.95A4.69,4.69,0,0,1,76,71.27H89.5a4.69,4.69,0,0,1,4.68,4.68V89.44A4.69,4.69,0,0,1,89.5,94.12ZM76,75.75a.2.2,0,0,0-.2.2V89.44a.2.2,0,0,0,.2.2H89.5a.2.2,0,0,0,.2-.2V75.95a.2.2,0,0,0-.2-.2Z"/></svg>