<?xml version="1.0" encoding="utf-8"?>
<!-- Generator: Adobe Illustrator 22.1.0, SVG Export Plug-In . SVG Version: 6.00 Build 0)  -->
<svg version="1.1" xmlns="http://www.w3.org/2000/svg" xmlns:xlink="http://www.w3.org/1999/xlink" x="0px" y="0px"
	 viewBox="0 0 250 250" style="enable-background:new 0 0 250 250;" xml:space="preserve">
<style type="text/css">
	.st0{fill:#FFFFFF;stroke:#FFFFFF;stroke-width:22;stroke-miterlimit:10;}
	.st1{fill:none;stroke:url(#SVGID_1_);stroke-width:8;stroke-miterlimit:10;}
	.st2{fill:none;stroke:url(#SVGID_2_);stroke-width:8;stroke-miterlimit:10;}
</style>
<g id="White">
	<path class="st0" d="M68.2,77H19.8c-4.1,0-7.5-3.4-7.5-7.5V21.1c0-4.1,3.4-7.5,7.5-7.5h48.4c4.1,0,7.5,3.4,7.5,7.5v48.4
		C75.7,73.6,72.4,77,68.2,77z M75.7,150.4V102c0-4.1-3.4-7.5-7.5-7.5H19.8c-4.1,0-7.5,3.4-7.5,7.5v48.4c0,4.1,3.4,7.5,7.5,7.5h48.4
		C72.4,157.8,75.7,154.5,75.7,150.4z M75.7,231.2v-48.4c0-4.1-3.4-7.5-7.5-7.5H19.8c-4.1,0-7.5,3.4-7.5,7.5v48.4
		c0,4.1,3.4,7.5,7.5,7.5h48.4C72.4,238.7,75.7,235.3,75.7,231.2z M158,69.5V21.1c0-4.1-3.4-7.5-7.5-7.5h-48.4
		c-4.1,0-7.5,3.4-7.5,7.5v48.4c0,4.1,3.4,7.5,7.5,7.5h48.4C154.7,77,158,73.6,158,69.5z M158,150.4V102c0-4.1-3.4-7.5-7.5-7.5h-48.4
		c-4.1,0-7.5,3.4-7.5,7.5v48.4c0,4.1,3.4,7.5,7.5,7.5h48.4C154.7,157.8,158,154.5,158,150.4z M158,231.2v-48.4
		c0-4.1-3.4-7.5-7.5-7.5h-48.4c-4.1,0-7.5,3.4-7.5,7.5v48.4c0,4.1,3.4,7.5,7.5,7.5h48.4C154.7,238.7,158,235.3,158,231.2z
		 M238.4,69.5V21.1c0-4.1-3.4-7.5-7.5-7.5h-48.4c-4.1,0-7.5,3.4-7.5,7.5v48.4c0,4.1,3.4,7.5,7.5,7.5h48.4
		C235,77,238.4,73.6,238.4,69.5z M238.4,150.4V102c0-4.1-3.4-7.5-7.5-7.5h-48.4c-4.1,0-7.5,3.4-7.5,7.5v48.4c0,4.1,3.4,7.5,7.5,7.5
		h48.4C235,157.8,238.4,154.5,238.4,150.4z M238.4,231.2v-48.4c0-4.1-3.4-7.5-7.5-7.5h-48.4c-4.1,0-7.5,3.4-7.5,7.5v48.4
		c0,4.1,3.4,7.5,7.5,7.5h48.4C235,238.7,238.4,235.3,238.4,231.2z"/>
	<rect x="46.7" y="62" class="st0" width="169.3" height="136.7"/>
</g>
<g id="orange">
	<g id="Orange">
	</g>
	<linearGradient id="SVGID_1_" gradientUnits="userSpaceOnUse" x1="41.6416" y1="42.4317" x2="170.0504" y2="170.8406">
		<stop  offset="0" style="stop-color:#FFEE25"/>
		<stop  offset="0.3707" style="stop-color:#F08F34"/>
		<stop  offset="1" style="stop-color:#E2312D"/>
	</linearGradient>
	<path class="st1" d="M14.9,74.8L73.7,16 M156.5,16L97.7,74.8 M236.9,16l-58.8,58.8 M73.7,98.3l-58.8,58.8 M73.7,178.6l-58.8,58.8
		 M156.5,98.3l-58.8,58.8 M178.2,157.1l58.8-58.8"/>
</g>
<g id="Blue_1_">
	<linearGradient id="SVGID_2_" gradientUnits="userSpaceOnUse" x1="11.9588" y1="12.76" x2="238.7722" y2="239.5734">
		<stop  offset="0" style="stop-color:#00ADE6"/>
		<stop  offset="5.543736e-02" style="stop-color:#00A3DE"/>
		<stop  offset="0.25" style="stop-color:#0083C5"/>
		<stop  offset="0.3579" style="stop-color:#0077BC"/>
		<stop  offset="0.7261" style="stop-color:#353579"/>
		<stop  offset="0.9658" style="stop-color:#1D1A55"/>
	</linearGradient>
	<path class="st2" d="M68.2,77H19.8c-4.1,0-7.5-3.4-7.5-7.5V21.1c0-4.1,3.4-7.5,7.5-7.5h48.4c4.1,0,7.5,3.4,7.5,7.5v48.4
		C75.7,73.6,72.4,77,68.2,77z M75.7,150.4V102c0-4.1-3.4-7.5-7.5-7.5H19.8c-4.1,0-7.5,3.4-7.5,7.5v48.4c0,4.1,3.4,7.5,7.5,7.5h48.4
		C72.4,157.8,75.7,154.5,75.7,150.4z M75.7,231.2v-48.4c0-4.1-3.4-7.5-7.5-7.5H19.8c-4.1,0-7.5,3.4-7.5,7.5v48.4
		c0,4.1,3.4,7.5,7.5,7.5h48.4C72.4,238.7,75.7,235.3,75.7,231.2z M158,69.5V21.1c0-4.1-3.4-7.5-7.5-7.5h-48.4
		c-4.1,0-7.5,3.4-7.5,7.5v48.4c0,4.1,3.4,7.5,7.5,7.5h48.4C154.7,77,158,73.6,158,69.5z M158,150.4V102c0-4.1-3.4-7.5-7.5-7.5h-48.4
		c-4.1,0-7.5,3.4-7.5,7.5v48.4c0,4.1,3.4,7.5,7.5,7.5h48.4C154.7,157.8,158,154.5,158,150.4z M158,231.2v-48.4
		c0-4.1-3.4-7.5-7.5-7.5h-48.4c-4.1,0-7.5,3.4-7.5,7.5v48.4c0,4.1,3.4,7.5,7.5,7.5h48.4C154.7,238.7,158,235.3,158,231.2z
		 M238.4,69.5V21.1c0-4.1-3.4-7.5-7.5-7.5h-48.4c-4.1,0-7.5,3.4-7.5,7.5v48.4c0,4.1,3.4,7.5,7.5,7.5h48.4
		C235,77,238.4,73.6,238.4,69.5z M238.4,150.4V102c0-4.1-3.4-7.5-7.5-7.5h-48.4c-4.1,0-7.5,3.4-7.5,7.5v48.4c0,4.1,3.4,7.5,7.5,7.5
		h48.4C235,157.8,238.4,154.5,238.4,150.4z M238.4,231.2v-48.4c0-4.1-3.4-7.5-7.5-7.5h-48.4c-4.1,0-7.5,3.4-7.5,7.5v48.4
		c0,4.1,3.4,7.5,7.5,7.5h48.4C235,238.7,238.4,235.3,238.4,231.2z"/>
</g>
</svg>
