<?xml version="1.0" encoding="utf-8"?>
<!-- Generator: Adobe Illustrator 22.1.0, SVG Export Plug-In . SVG Version: 6.00 Build 0)  -->
<svg version="1.1" xmlns="http://www.w3.org/2000/svg" xmlns:xlink="http://www.w3.org/1999/xlink" x="0px" y="0px"
	 viewBox="0 0 250 250" style="enable-background:new 0 0 250 250;" xml:space="preserve">
<style type="text/css">
	.st0{fill:#FFFFFF;stroke:#FFFFFF;stroke-width:16;stroke-miterlimit:10;}
	.st1{fill:url(#SVGID_1_);}
	.st2{fill:none;stroke:url(#SVGID_2_);stroke-width:8;stroke-linecap:round;stroke-linejoin:round;stroke-miterlimit:10;}
</style>
<g id="White">
	<path class="st0" d="M238,202c-2.2,0-4-1.8-4-4v-40H16v40c0,2.2-1.8,4-4,4s-4-1.8-4-4V52c0-2.2,1.8-4,4-4s4,1.8,4,4v66l58,8v-20
		c0-2.2,1.8-4,4-4h160c2.2,0,4,1.8,4,4v92C242,200.2,240.2,202,238,202z"/>
	<circle class="st0" cx="47" cy="101" r="19"/>
</g>
<g id="Orange">
	<linearGradient id="SVGID_1_" gradientUnits="userSpaceOnUse" x1="33.565" y1="87.565" x2="60.435" y2="114.435">
		<stop  offset="0" style="stop-color:#FFEE25"/>
		<stop  offset="0.3707" style="stop-color:#F08F34"/>
		<stop  offset="1" style="stop-color:#E2312D"/>
	</linearGradient>
	<circle class="st1" cx="47" cy="101" r="19"/>
</g>
<g id="Blue_1_">
	<linearGradient id="SVGID_2_" gradientUnits="userSpaceOnUse" x1="-10.1173" y1="91.8419" x2="240.0524" y2="203.2246">
		<stop  offset="0" style="stop-color:#00ADE6"/>
		<stop  offset="5.543736e-02" style="stop-color:#00A3DE"/>
		<stop  offset="0.25" style="stop-color:#0083C5"/>
		<stop  offset="0.3579" style="stop-color:#0077BC"/>
		<stop  offset="0.7261" style="stop-color:#353579"/>
		<stop  offset="0.9658" style="stop-color:#1D1A55"/>
	</linearGradient>
	<path class="st2" d="M12,52v146 M12.2,154h225.5 M238,198v-92H78v24H12.2 M102,106.2v47.5"/>
</g>
</svg>
