<svg xmlns="http://www.w3.org/2000/svg" xmlns:xlink="http://www.w3.org/1999/xlink" viewBox="0 0 64.32 71.27"><defs><style>.cls-1{fill:url(#linear-gradient);}.cls-2{fill:url(#linear-gradient-2);}.cls-3{fill:url(#linear-gradient-3);}</style><linearGradient id="linear-gradient" x1="-1.42" y1="69.22" x2="65.74" y2="2.06" gradientUnits="userSpaceOnUse"><stop offset="0" stop-color="#1c9bd8"/><stop offset="0.48" stop-color="#0c65af"/><stop offset="1" stop-color="#423e92"/></linearGradient><linearGradient id="linear-gradient-2" x1="31.74" y1="10.96" x2="31.74" y2="29.21" gradientUnits="userSpaceOnUse"><stop offset="0" stop-color="#f6a734"/><stop offset="1" stop-color="#ee7031"/></linearGradient><linearGradient id="linear-gradient-3" x1="12.25" y1="43.23" x2="12.25" y2="60.75" gradientUnits="userSpaceOnUse"><stop offset="0" stop-color="#ee6f31"/><stop offset="0.26" stop-color="#ed6731"/><stop offset="0.68" stop-color="#ea5030"/><stop offset="1" stop-color="#e73a2f"/></linearGradient></defs><title>brochure_1</title><g id="Layer_2" data-name="Layer 2"><g id="Layer_1-2" data-name="Layer 1"><path class="cls-1" d="M62.89.06,42.1,6.91,23.17.67a2.2,2.2,0,0,0-.91-.24H22a2.12,2.12,0,0,0-.91.24L.75,7.36a1.08,1.08,0,0,0-.75,1v61.8a1.09,1.09,0,0,0,1.43,1L22.11,64.4l19,6.27a2.23,2.23,0,0,0,1,.1,2.2,2.2,0,0,0,.94-.1l20.53-6.76a1.08,1.08,0,0,0,.75-1V1.09A1.09,1.09,0,0,0,62.89.06ZM19.13,60.67,5.9,65a1.08,1.08,0,0,1-1.42-1V11.63a1.09,1.09,0,0,1,.74-1L18.45,6.24a1.09,1.09,0,0,1,1.42,1V59.64A1.08,1.08,0,0,1,19.13,60.67Zm20.62,2.8a1.46,1.46,0,0,1-1.93,1.39l-12.46-4.1a1.47,1.47,0,0,1-1-1.39V7.8a1.46,1.46,0,0,1,1.92-1.39l12.47,4.1a1.47,1.47,0,0,1,1,1.4Zm20.09-3.83a1.07,1.07,0,0,1-.75,1L46,65a1.16,1.16,0,0,1-1.52-1.1V11.68a1.16,1.16,0,0,1,.79-1.1L58.42,6.24a1.09,1.09,0,0,1,1.42,1Z"/><path class="cls-2" d="M36.16,13.66,28.07,11a1.2,1.2,0,0,0-1.59,1.07V25.44a1.13,1.13,0,0,0,.83,1.07l8.09,2.64A1.2,1.2,0,0,0,37,28.08V14.73A1.13,1.13,0,0,0,36.16,13.66Z"/><path class="cls-3" d="M16.48,43.28l-9.13,3a1.07,1.07,0,0,0-.75,1V59.66a1.08,1.08,0,0,0,1.43,1l9.13-3a1.08,1.08,0,0,0,.75-1V44.31A1.09,1.09,0,0,0,16.48,43.28Z"/></g></g></svg>