<?xml version="1.0" encoding="utf-8"?>
<!-- Generator: Adobe Illustrator 22.1.0, SVG Export Plug-In . SVG Version: 6.00 Build 0)  -->
<svg version="1.1" xmlns="http://www.w3.org/2000/svg" xmlns:xlink="http://www.w3.org/1999/xlink" x="0px" y="0px"
	 viewBox="0 0 250 250" style="enable-background:new 0 0 250 250;" xml:space="preserve">
<style type="text/css">
	.st0{fill:#FFFFFF;stroke:#FFFFFF;stroke-width:23;stroke-linecap:round;stroke-miterlimit:10;}
	.st1{fill:#FFFFFF;stroke:#FFFFFF;stroke-width:16;stroke-miterlimit:10;}
	.st2{fill:#1D70B7;}
	.st3{fill:#0C4596;}
	.st4{fill:none;stroke:url(#SVGID_1_);stroke-width:8;stroke-linecap:round;stroke-miterlimit:10;}
	.st5{fill:url(#SVGID_2_);}
</style>
<g id="White">
	<path class="st0" d="M207.5,230.6V46.3c0-4-3.2-7.2-7.2-7.2H50.8c-4,0-7.2,3.2-7.2,7.2v184.3c0,4,3.2,7.2,7.2,7.2h149.5
		C204.3,237.8,207.5,234.5,207.5,230.6z"/>
	<path class="st1" d="M136.7,24c0.7-3,1.5-6.4-2.4-10.5c-2.1-2.2-5.9-3.6-9-3.6c-6.2,0.1-11.3,5.2-11.3,11.5c0,0.9,0.1,1.8,0.3,2.6
		H94.8c-0.8,0-1.4,0.6-1.4,1.4v30.3c0,0.8,0.6,1.4,1.4,1.4h61.6c0.8,0,1.4-0.6,1.4-1.4V25.4c0-0.8-0.6-1.4-1.4-1.4H136.7z"/>
</g>
<g id="Blue_1_">
	<circle class="st2" cx="76.2" cy="85.8" r="7.3"/>
	<circle class="st2" cx="76.2" cy="139.6" r="7.3"/>
	<circle class="st3" cx="76.2" cy="193" r="7.3"/>
	<linearGradient id="SVGID_1_" gradientUnits="userSpaceOnUse" x1="34.243" y1="47.0792" x2="216.9411" y2="229.7773">
		<stop  offset="0" style="stop-color:#00ADE6"/>
		<stop  offset="5.543736e-02" style="stop-color:#00A3DE"/>
		<stop  offset="0.25" style="stop-color:#0083C5"/>
		<stop  offset="0.3579" style="stop-color:#0077BC"/>
		<stop  offset="0.7261" style="stop-color:#353579"/>
		<stop  offset="0.9658" style="stop-color:#1D1A55"/>
	</linearGradient>
	<path class="st4" d="M102.3,85.8h78.7 M102.3,139.4h78.7 M102.3,194.4h78.7 M207.5,230.6V46.3c0-4-3.2-7.2-7.2-7.2H50.8
		c-4,0-7.2,3.2-7.2,7.2v184.3c0,4,3.2,7.2,7.2,7.2h149.5C204.3,237.8,207.5,234.5,207.5,230.6z"/>
</g>
<g id="orange">
	<g id="Orange">
	</g>
	<linearGradient id="SVGID_2_" gradientUnits="userSpaceOnUse" x1="101.6113" y1="16.5436" x2="149.5728" y2="64.505">
		<stop  offset="0" style="stop-color:#FFEE25"/>
		<stop  offset="0.3707" style="stop-color:#F08F34"/>
		<stop  offset="1" style="stop-color:#E2312D"/>
	</linearGradient>
	<path class="st5" d="M136.7,24c0.7-3,1.5-6.4-2.4-10.5c-2.1-2.2-5.9-3.6-9-3.6c-6.2,0.1-11.3,5.2-11.3,11.5c0,0.9,0.1,1.8,0.3,2.6
		H94.8c-0.8,0-1.4,0.6-1.4,1.4v30.3c0,0.8,0.6,1.4,1.4,1.4h61.6c0.8,0,1.4-0.6,1.4-1.4V25.4c0-0.8-0.6-1.4-1.4-1.4H136.7z"/>
</g>
</svg>
