<svg id="Layer_1" data-name="Layer 1" xmlns="http://www.w3.org/2000/svg" xmlns:xlink="http://www.w3.org/1999/xlink" viewBox="0 0 113.39 113.39"><defs><style>.cls-1,.cls-2,.cls-3,.cls-4,.cls-5,.cls-6,.cls-7,.cls-8,.cls-9{fill:none;stroke-linecap:round;stroke-miterlimit:10;}.cls-1,.cls-2,.cls-3{stroke-width:4.19px;}.cls-1{stroke:url(#linear-gradient);}.cls-2{stroke:url(#linear-gradient-2);}.cls-3{stroke:url(#linear-gradient-3);}.cls-4,.cls-5,.cls-6,.cls-7,.cls-8,.cls-9{stroke-width:4.19px;}.cls-4{stroke:url(#linear-gradient-4);}.cls-5{stroke:url(#linear-gradient-5);}.cls-6{stroke:url(#linear-gradient-6);}.cls-7{stroke:url(#linear-gradient-7);}.cls-8{stroke:url(#linear-gradient-8);}.cls-9{stroke:url(#linear-gradient-9);}</style><linearGradient id="linear-gradient" x1="56.69" y1="27.64" x2="56.69" y2="91.2" gradientUnits="userSpaceOnUse"><stop offset="0" stop-color="#1d9ad7"/><stop offset="0.03" stop-color="#1b92d1"/><stop offset="0.14" stop-color="#1572b8"/><stop offset="0.2" stop-color="#1366af"/><stop offset="0.49" stop-color="#423f92"/><stop offset="0.74" stop-color="#404294"/></linearGradient><linearGradient id="linear-gradient-2" x1="56.69" y1="25.71" x2="56.69" y2="88.98" xlink:href="#linear-gradient"/><linearGradient id="linear-gradient-3" x1="56.69" y1="22.18" x2="56.69" y2="88.8" xlink:href="#linear-gradient"/><linearGradient id="linear-gradient-4" x1="38.17" y1="36.59" x2="38.17" y2="40.79" gradientUnits="userSpaceOnUse"><stop offset="0" stop-color="#f7a834"/><stop offset="1" stop-color="#ee7133"/></linearGradient><linearGradient id="linear-gradient-5" x1="38.17" y1="51.09" x2="38.17" y2="55.28" gradientUnits="userSpaceOnUse"><stop offset="0" stop-color="#ee7033"/><stop offset="0.26" stop-color="#ed6833"/><stop offset="0.67" stop-color="#ea5131"/><stop offset="1" stop-color="#e73a30"/></linearGradient><linearGradient id="linear-gradient-6" x1="38.17" y1="65.59" x2="38.17" y2="69.78" gradientUnits="userSpaceOnUse"><stop offset="0" stop-color="#ea5230"/><stop offset="1" stop-color="#e73a30"/></linearGradient><linearGradient id="linear-gradient-7" x1="75.65" y1="36.59" x2="75.65" y2="40.79" xlink:href="#linear-gradient-4"/><linearGradient id="linear-gradient-8" x1="75.65" y1="51.09" x2="75.65" y2="55.28" xlink:href="#linear-gradient-5"/><linearGradient id="linear-gradient-9" x1="75.65" y1="65.59" x2="75.65" y2="69.78" xlink:href="#linear-gradient-6"/></defs><title>courses</title><path class="cls-1" d="M94.77,29.74h1.7a3.59,3.59,0,0,1,3.59,3.59V85.51a3.59,3.59,0,0,1-3.59,3.59H16.91a3.59,3.59,0,0,1-3.59-3.59V33.33a3.59,3.59,0,0,1,3.59-3.59"/><line class="cls-2" x1="56.69" y1="27.81" x2="56.69" y2="86.88"/><path class="cls-3" d="M92,83.65c-26.66,0-32.09-1.41-35.12,2.95a.27.27,0,0,1-.42,0c-4.4-4.38-9.8-3-35-3a2.21,2.21,0,0,1-2.21-2.21v-55a2.21,2.21,0,0,1,2.21-2.21c28.93,0,32.94.33,35.29,3.53C59.07,24,65.32,24.29,92,24.29a2.21,2.21,0,0,1,2.21,2.21V81.44A2.21,2.21,0,0,1,92,83.65Z"/><line class="cls-4" x1="27" y1="38.69" x2="49.33" y2="38.69"/><line class="cls-5" x1="27" y1="53.19" x2="49.33" y2="53.19"/><line class="cls-6" x1="27" y1="67.68" x2="49.33" y2="67.68"/><line class="cls-7" x1="64.48" y1="38.69" x2="86.81" y2="38.69"/><line class="cls-8" x1="64.48" y1="53.19" x2="86.81" y2="53.19"/><line class="cls-9" x1="64.48" y1="67.68" x2="86.81" y2="67.68"/></svg>