<svg id="Layer_1" data-name="Layer 1" xmlns="http://www.w3.org/2000/svg" xmlns:xlink="http://www.w3.org/1999/xlink" viewBox="0 0 113.39 113.39"><defs><style>.cls-1,.cls-4,.cls-5{fill:none;stroke-linecap:round;stroke-miterlimit:10;}.cls-1{stroke-width:4.23px;stroke:url(#linear-gradient);}.cls-2{fill:url(#linear-gradient-2);}.cls-3{fill:url(#linear-gradient-3);}.cls-4,.cls-5{stroke-width:4.48px;}.cls-4{stroke:url(#linear-gradient-4);}.cls-5{stroke:url(#linear-gradient-5);}</style><linearGradient id="linear-gradient" x1="19.16" y1="94.22" x2="94.22" y2="19.16" gradientUnits="userSpaceOnUse"><stop offset="0" stop-color="#1d9ad7"/><stop offset="0.48" stop-color="#1366af"/><stop offset="1" stop-color="#423f92"/></linearGradient><linearGradient id="linear-gradient-2" x1="38.71" y1="38.79" x2="38.71" y2="55.89" gradientUnits="userSpaceOnUse"><stop offset="0" stop-color="#f7a834"/><stop offset="0.18" stop-color="#f59a33"/><stop offset="0.53" stop-color="#f07632"/><stop offset="0.99" stop-color="#e73b30"/><stop offset="1" stop-color="#e73a30"/></linearGradient><linearGradient id="linear-gradient-3" x1="-114.46" y1="65.74" x2="358.26" y2="65.74" xlink:href="#linear-gradient"/><linearGradient id="linear-gradient-4" x1="58.08" y1="42.05" x2="91.86" y2="42.05" gradientUnits="userSpaceOnUse"><stop offset="0" stop-color="#1d9ad7"/><stop offset="0.03" stop-color="#1b92d1"/><stop offset="0.14" stop-color="#1572b8"/><stop offset="0.2" stop-color="#1366af"/><stop offset="0.49" stop-color="#423f92"/><stop offset="0.74" stop-color="#404294"/></linearGradient><linearGradient id="linear-gradient-5" x1="58.08" y1="51.72" x2="81.36" y2="51.72" xlink:href="#linear-gradient-4"/></defs><title>customer</title><path class="cls-1" d="M57.1,25.88H96.74a2.58,2.58,0,0,1,2.72,2.42V85.08a2.58,2.58,0,0,1-2.72,2.42H16.65a2.58,2.58,0,0,1-2.72-2.42V28.3a2.58,2.58,0,0,1,2.72-2.42H57.1"/><circle class="cls-2" cx="38.71" cy="47.34" r="8.55"/><path class="cls-3" d="M49,56.7H28.84a8.65,8.65,0,0,0-8.65,8.65v6.52a2.92,2.92,0,0,0,2.92,2.92H54.78a2.92,2.92,0,0,0,2.92-2.92V65.35A8.65,8.65,0,0,0,49,56.7Zm1.85,13.87V68a2.25,2.25,0,0,0-4.5,0v2.52H31.29V68a2.25,2.25,0,0,0-4.5,0v2.52h-2.2V65.35a4.21,4.21,0,0,1,4.15-4.15h20.4a4.21,4.21,0,0,1,4.15,4.15v5.22Z"/><line class="cls-4" x1="60.32" y1="42.05" x2="89.62" y2="42.05"/><line class="cls-5" x1="60.32" y1="51.72" x2="79.12" y2="51.72"/></svg>