<svg id="Layer_1" data-name="Layer 1" xmlns="http://www.w3.org/2000/svg" xmlns:xlink="http://www.w3.org/1999/xlink" viewBox="0 0 113.39 113.39"><defs><style>.cls-1{fill:url(#linear-gradient);}.cls-2{fill:url(#linear-gradient-2);}.cls-3{fill:url(#linear-gradient-3);}.cls-4{fill:url(#linear-gradient-4);}.cls-5{fill:url(#linear-gradient-5);}.cls-6{fill:url(#linear-gradient-6);}.cls-7{fill:url(#linear-gradient-7);}.cls-8{fill:url(#linear-gradient-8);}</style><linearGradient id="linear-gradient" x1="63.42" y1="42.88" x2="68.34" y2="42.88" gradientUnits="userSpaceOnUse"><stop offset="0" stop-color="#f6a734"/><stop offset="0.18" stop-color="#f49933"/><stop offset="0.53" stop-color="#ef7532"/><stop offset="1" stop-color="#e73a2f"/></linearGradient><linearGradient id="linear-gradient-2" x1="83.42" y1="42.88" x2="88.34" y2="42.88" xlink:href="#linear-gradient"/><linearGradient id="linear-gradient-3" x1="43.42" y1="55.88" x2="48.34" y2="55.88" xlink:href="#linear-gradient"/><linearGradient id="linear-gradient-4" x1="53.42" y1="55.88" x2="58.34" y2="55.88" xlink:href="#linear-gradient"/><linearGradient id="linear-gradient-5" x1="73.42" y1="68.88" x2="78.34" y2="68.88" xlink:href="#linear-gradient"/><linearGradient id="linear-gradient-6" x1="83.42" y1="68.88" x2="88.34" y2="68.88" xlink:href="#linear-gradient"/><linearGradient id="linear-gradient-7" x1="53.42" y1="81.89" x2="58.34" y2="81.89" xlink:href="#linear-gradient"/><linearGradient id="linear-gradient-8" x1="11.69" y1="56.69" x2="101.7" y2="56.69" gradientUnits="userSpaceOnUse"><stop offset="0" stop-color="#1c9bd8"/><stop offset="0.48" stop-color="#0c65af"/><stop offset="1" stop-color="#423e92"/></linearGradient></defs><title>dash</title><circle class="cls-1" cx="65.88" cy="42.88" r="2.46"/><circle class="cls-2" cx="85.88" cy="42.88" r="2.46"/><circle class="cls-3" cx="45.88" cy="55.88" r="2.46"/><circle class="cls-4" cx="55.88" cy="55.88" r="2.46"/><circle class="cls-5" cx="75.88" cy="68.88" r="2.46"/><circle class="cls-6" cx="85.88" cy="68.88" r="2.46"/><circle class="cls-7" cx="55.88" cy="81.89" r="2.46"/><path class="cls-8" d="M96.74,19.86H16.65a5,5,0,0,0-5,5V88.57a5,5,0,0,0,5,5H96.74a5,5,0,0,0,5-5V24.82A5,5,0,0,0,96.74,19.86ZM16.65,24.34H96.74a.48.48,0,0,1,.48.48v6.42h-81V24.82A.48.48,0,0,1,16.65,24.34ZM96.74,89.05H16.65a.48.48,0,0,1-.48-.48V35.72h81V88.57A.48.48,0,0,1,96.74,89.05ZM34,45.12H22.29a2.24,2.24,0,0,1,0-4.48H34a2.24,2.24,0,0,1,0,4.48Zm0,13H22.29a2.24,2.24,0,0,1,0-4.48H34a2.24,2.24,0,0,1,0,4.48Zm0,13H22.29a2.24,2.24,0,1,1,0-4.48H34a2.24,2.24,0,0,1,0,4.48Zm0,13H22.29a2.24,2.24,0,1,1,0-4.48H34a2.24,2.24,0,0,1,0,4.48ZM48.34,42.88a2.46,2.46,0,1,1-2.46-2.46A2.46,2.46,0,0,1,48.34,42.88Zm10,0a2.46,2.46,0,1,1-2.46-2.46A2.46,2.46,0,0,1,58.34,42.88Zm20,0a2.46,2.46,0,1,1-2.46-2.46A2.46,2.46,0,0,1,78.34,42.88Zm-10,13a2.46,2.46,0,1,1-2.46-2.46A2.46,2.46,0,0,1,68.34,55.88Zm10,0a2.46,2.46,0,1,1-2.46-2.46A2.46,2.46,0,0,1,78.34,55.88Zm10,0a2.46,2.46,0,1,1-2.46-2.46A2.46,2.46,0,0,1,88.34,55.88Zm-40,13a2.46,2.46,0,1,1-2.46-2.46A2.46,2.46,0,0,1,48.34,68.88Zm10,0a2.46,2.46,0,1,1-2.46-2.46A2.46,2.46,0,0,1,58.34,68.88Zm10,0a2.46,2.46,0,1,1-2.46-2.46A2.46,2.46,0,0,1,68.34,68.88Zm-20,13a2.46,2.46,0,1,1-2.46-2.46A2.46,2.46,0,0,1,48.34,81.89Zm20,0a2.46,2.46,0,1,1-2.46-2.46A2.46,2.46,0,0,1,68.34,81.89Zm10,0a2.46,2.46,0,1,1-2.46-2.46A2.46,2.46,0,0,1,78.34,81.89Zm10,0a2.46,2.46,0,1,1-2.46-2.46A2.46,2.46,0,0,1,88.34,81.89Z"/></svg>