<?xml version="1.0" encoding="utf-8"?>
<!-- Generator: Adobe Illustrator 22.1.0, SVG Export Plug-In . SVG Version: 6.00 Build 0)  -->
<svg version="1.1" xmlns="http://www.w3.org/2000/svg" xmlns:xlink="http://www.w3.org/1999/xlink" x="0px" y="0px"
	 viewBox="0 0 250 250" style="enable-background:new 0 0 250 250;" xml:space="preserve">
<style type="text/css">
	.st0{fill:#FFFFFF;stroke:#FFFFFF;stroke-width:23;stroke-linecap:round;stroke-linejoin:round;stroke-miterlimit:10;}
	.st1{fill:#FFFFFF;}
	.st2{fill:url(#SVGID_1_);}
	.st3{fill:none;stroke:url(#SVGID_2_);stroke-width:8;stroke-linecap:round;stroke-linejoin:round;stroke-miterlimit:10;}
</style>
<g id="White">
	<path class="st0" d="M125.1,12.7c32.3,0,52.6,25.5,52.6,55.2c0,35.2-23.6,77.9-39.2,102c-0.6,0.9-1.1,1.8-1.7,2.6
		c-0.6,0.9-1.2,1.8-1.7,2.6c-2.4,3.5-5.6,7.1-8,9.6c-1.6,1.7-4.3,1.5-5.7-0.4c-1.8-2.4-4.3-5.9-6.6-9.2c-0.6-0.8-1.1-1.7-1.7-2.6
		c-0.6-0.8-1.1-1.7-1.7-2.6c-15.6-23.8-39-65.9-39-102C72.5,38.3,92.9,12.7,125.1,12.7z M85.1,125l-15.5,7.7l-56,101.2l55-31.8
		l55.9,34 M68.7,202L91,137.5 M163.9,125l15.5,7.7l56,101.2l-55-31.8l-55.9,34 M158,137.5l22.3,64.5 M124.6,236v-47.5"/>
	<rect x="95" y="173" class="st1" width="61.8" height="35.8"/>
</g>
<g id="orange">
	<g id="Orange">
	</g>
	<linearGradient id="SVGID_1_" gradientUnits="userSpaceOnUse" x1="104.4294" y1="49.2963" x2="144.7573" y2="89.6243">
		<stop  offset="0" style="stop-color:#FFEE25"/>
		<stop  offset="0.3707" style="stop-color:#F08F34"/>
		<stop  offset="1" style="stop-color:#E2312D"/>
	</linearGradient>
	<path class="st2" d="M152.7,69.5c0-15.9-12.6-28.9-28.1-28.9c-15.5,0-28.1,13-28.1,28.9c0,15.9,12.6,28.9,28.1,28.9
		C140.1,98.4,152.7,85.4,152.7,69.5z"/>
</g>
<g id="Blue_1_">
	<linearGradient id="SVGID_2_" gradientUnits="userSpaceOnUse" x1="33.6458" y1="76.511" x2="215.9682" y2="258.8333">
		<stop  offset="0" style="stop-color:#00ADE6"/>
		<stop  offset="5.543736e-02" style="stop-color:#00A3DE"/>
		<stop  offset="0.25" style="stop-color:#0083C5"/>
		<stop  offset="0.3579" style="stop-color:#0077BC"/>
		<stop  offset="0.7261" style="stop-color:#353579"/>
		<stop  offset="0.9658" style="stop-color:#1D1A55"/>
	</linearGradient>
	<path class="st3" d="M125.1,12.7c32.3,0,52.6,25.5,52.6,55.2c0,35.2-23.6,77.9-39.2,102c-0.6,0.9-1.1,1.8-1.7,2.6
		c-0.6,0.9-1.2,1.8-1.7,2.6c-2.4,3.5-5.6,7.1-8,9.6c-1.6,1.7-4.3,1.5-5.7-0.4c-1.8-2.4-4.3-5.9-6.6-9.2c-0.6-0.8-1.1-1.7-1.7-2.6
		c-0.6-0.8-1.1-1.7-1.7-2.6c-15.6-23.8-39-65.9-39-102C72.5,38.3,92.9,12.7,125.1,12.7z M85.1,125l-15.5,7.7l-56,101.2l55-31.8
		l55.9,34 M68.7,202L91,137.5 M163.9,125l15.5,7.7l56,101.2l-55-31.8l-55.9,34 M158,137.5l22.3,64.5 M124.6,236v-47.5"/>
</g>
</svg>
