<svg id="Layer_1" data-name="Layer 1" xmlns="http://www.w3.org/2000/svg" xmlns:xlink="http://www.w3.org/1999/xlink" viewBox="0 0 113.39 113.39"><defs><style>.cls-1{fill:url(#New_Gradient_Swatch_copy);}.cls-2{fill:url(#linear-gradient);}</style><linearGradient id="New_Gradient_Swatch_copy" x1="57.61" y1="23.73" x2="57.61" y2="45.68" gradientUnits="userSpaceOnUse"><stop offset="0" stop-color="#f6a734"/><stop offset="1" stop-color="#e73a2f"/></linearGradient><linearGradient id="linear-gradient" x1="21.91" y1="110.81" x2="94.01" y2="38.72" gradientUnits="userSpaceOnUse"><stop offset="0" stop-color="#1c9bd8"/><stop offset="0.48" stop-color="#0c65af"/><stop offset="1" stop-color="#423e92"/></linearGradient></defs><title>dash-map</title><path class="cls-1" d="M68,34.7a10.73,10.73,0,0,0-10.43-11,10.73,10.73,0,0,0-10.43,11,10.73,10.73,0,0,0,10.43,11A10.73,10.73,0,0,0,68,34.7Z"/><path class="cls-2" d="M103.51,98.49,81.74,59.6a2.64,2.64,0,0,0-1.07-1l-4.22-2.21a4.9,4.9,0,0,0-1.6-.51c3-6.85,5.24-14.29,5.24-21.11,0-13-9.52-22.76-22.14-22.76S35.8,21.73,35.8,34.71c0,6.94,2.22,14.35,5.14,21.13a4.93,4.93,0,0,0-1.44.49l-4.22,2.21a2.64,2.64,0,0,0-1.08,1L12.44,98.48a2.77,2.77,0,0,0,3.8,3.75L35.82,89.54l20.42,12.84a2.43,2.43,0,0,0,2.35.1,3.07,3.07,0,0,0,.56-.28l21-12.67,19.51,12.65.07,0a2.65,2.65,0,0,0,2.57.14A2.77,2.77,0,0,0,103.51,98.49ZM57.94,15.95c11.91,0,18.14,9.44,18.14,18.76,0,13-9.19,29-14.67,37.28l-.63,1-.65,1A21.3,21.3,0,0,1,58.44,76,.83.83,0,0,1,57.15,76c-.47-.64-1-1.35-1.47-2.06l-.66-1-.64-1C48.93,63.8,39.8,48.09,39.8,34.71,39.8,25.39,46,15.95,57.94,15.95ZM34.13,85.87,18.36,96.1,37.12,62.59a2.64,2.64,0,0,1,1.08-1l3.17-1.66a.85.85,0,0,1,1,.12.87.87,0,0,1,.23,1Zm4.07.45L45.46,65c2,3.56,3.93,6.71,5.58,9.18l.67,1,.68,1c.91,1.32,1.9,2.64,2.56,3.53a3.41,3.41,0,0,0,.71.68V97.3ZM59.89,97.08l-.23-16.63a3.43,3.43,0,0,0,.48-.4,30.57,30.57,0,0,0,3.29-3.88l.67-1,.66-1c1.67-2.53,3.66-5.76,5.65-9.38l7.32,21.49ZM81.82,85.87,73.33,61a.89.89,0,0,1,1.25-1.1l3.17,1.66a2.64,2.64,0,0,1,1.07,1L97.59,96.1Z"/></svg>