<svg xmlns="http://www.w3.org/2000/svg" xmlns:xlink="http://www.w3.org/1999/xlink" viewBox="0 0 83.28 66.64"><defs><style>.cls-1{fill:none;stroke-linecap:round;stroke-miterlimit:10;stroke-width:4.48px;stroke:url(#New_Gradient_Swatch_copy);}.cls-2{fill:url(#New_Gradient_Swatch_copy_5);}.cls-3{fill:url(#New_Gradient_Swatch_copy_5-2);}.cls-4{fill:url(#New_Gradient_Swatch_copy_5-3);}.cls-5{fill:url(#New_Gradient_Swatch_copy_5-4);}.cls-6{fill:url(#New_Gradient_Swatch_copy_5-5);}.cls-7{fill:url(#New_Gradient_Swatch_copy_5-6);}.cls-8{fill:url(#linear-gradient);}</style><linearGradient id="New_Gradient_Swatch_copy" x1="20.66" y1="13.94" x2="20.66" y2="40.62" gradientUnits="userSpaceOnUse"><stop offset="0" stop-color="#f6a734"/><stop offset="1" stop-color="#e73a2f"/></linearGradient><linearGradient id="New_Gradient_Swatch_copy_5" x1="4.9" y1="70.23" x2="78.49" y2="-3.36" gradientUnits="userSpaceOnUse"><stop offset="0" stop-color="#1c9bd8"/><stop offset="0.5" stop-color="#0c65af"/><stop offset="1" stop-color="#423e92"/></linearGradient><linearGradient id="New_Gradient_Swatch_copy_5-2" x1="53.56" y1="24.08" x2="73.99" y2="3.65" xlink:href="#New_Gradient_Swatch_copy_5"/><linearGradient id="New_Gradient_Swatch_copy_5-3" x1="53.56" y1="36.15" x2="73.99" y2="15.72" xlink:href="#New_Gradient_Swatch_copy_5"/><linearGradient id="New_Gradient_Swatch_copy_5-4" x1="53.56" y1="49.56" x2="73.99" y2="29.13" xlink:href="#New_Gradient_Swatch_copy_5"/><linearGradient id="New_Gradient_Swatch_copy_5-5" x1="20.36" y1="73.47" x2="62.92" y2="30.9" xlink:href="#New_Gradient_Swatch_copy_5"/><linearGradient id="New_Gradient_Swatch_copy_5-6" x1="20.36" y1="85.69" x2="62.92" y2="43.12" xlink:href="#New_Gradient_Swatch_copy_5"/><linearGradient id="linear-gradient" x1="44.36" y1="2.24" x2="83.19" y2="2.24" gradientUnits="userSpaceOnUse"><stop offset="0" stop-color="#1c9bd8"/><stop offset="0.03" stop-color="#1991d0"/><stop offset="0.14" stop-color="#1071b8"/><stop offset="0.2" stop-color="#0c65af"/><stop offset="0.49" stop-color="#423e92"/><stop offset="0.74" stop-color="#3f4094"/></linearGradient></defs><title>description_2</title><g id="Layer_2" data-name="Layer 2"><g id="Layer_1-2" data-name="Layer 1"><polyline class="cls-1" points="2.24 34.32 12.19 20.79 20.74 30.07 14.3 39.35 29.45 17.51 39.07 27.96"/><path class="cls-2" d="M38.5,41.58H2.81A2.81,2.81,0,0,1,0,38.78v-36A2.81,2.81,0,0,1,2.81,0H38.5a2.81,2.81,0,0,1,2.81,2.81v36A2.81,2.81,0,0,1,38.5,41.58Zm-34-4.47H36.84V4.48H4.48Zm34,4.47H2.81A2.81,2.81,0,0,1,0,38.78v-36A2.81,2.81,0,0,1,2.81,0H38.5a2.81,2.81,0,0,1,2.81,2.81v36A2.81,2.81,0,0,1,38.5,41.58Zm-34-4.47H36.84V4.48H4.48ZM81,16.1H46.51a2.24,2.24,0,1,1,0-4.48H81a2.24,2.24,0,0,1,0,4.48Zm0,12.07H46.51a2.24,2.24,0,1,1,0-4.47H81a2.24,2.24,0,1,1,0,4.47Zm0,13.41H46.51a2.24,2.24,0,1,1,0-4.47H81a2.24,2.24,0,1,1,0,4.47Zm0,12.85H2.24a2.24,2.24,0,0,1,0-4.48H81a2.24,2.24,0,0,1,0,4.48Zm0,12.21H2.24a2.24,2.24,0,1,1,0-4.47H81a2.24,2.24,0,1,1,0,4.47ZM81,4.39H46.51a2.15,2.15,0,1,1,0-4.3H81a2.15,2.15,0,0,1,0,4.3Z"/><path class="cls-3" d="M81,16.1H46.51a2.24,2.24,0,1,1,0-4.48H81a2.24,2.24,0,0,1,0,4.48Z"/><path class="cls-4" d="M81,28.17H46.51a2.24,2.24,0,1,1,0-4.47H81a2.24,2.24,0,1,1,0,4.47Z"/><path class="cls-5" d="M81,41.58H46.51a2.24,2.24,0,1,1,0-4.47H81a2.24,2.24,0,1,1,0,4.47Z"/><path class="cls-6" d="M81,54.43H2.24a2.24,2.24,0,0,1,0-4.48H81a2.24,2.24,0,0,1,0,4.48Z"/><path class="cls-7" d="M81,66.64H2.24a2.24,2.24,0,1,1,0-4.47H81a2.24,2.24,0,1,1,0,4.47Z"/><path class="cls-8" d="M81,4.39H46.51a2.15,2.15,0,1,1,0-4.3H81a2.15,2.15,0,0,1,0,4.3Z"/></g></g></svg>