<svg xmlns="http://www.w3.org/2000/svg" xmlns:xlink="http://www.w3.org/1999/xlink" viewBox="0 0 66.61 72.48"><defs><style>.cls-1{fill:none;stroke-linecap:round;stroke-miterlimit:10;stroke-width:4.48px;stroke:url(#New_Gradient_Swatch_copy);}.cls-2{fill:url(#New_Gradient_Swatch_copy_5);}</style><linearGradient id="New_Gradient_Swatch_copy" x1="36.38" y1="5.37" x2="36.38" y2="34.85" gradientUnits="userSpaceOnUse"><stop offset="0" stop-color="#f6a734"/><stop offset="1" stop-color="#e73a2f"/></linearGradient><linearGradient id="New_Gradient_Swatch_copy_5" x1="-3.14" y1="68.02" x2="64.92" y2="-0.04" gradientUnits="userSpaceOnUse"><stop offset="0" stop-color="#1c9bd8"/><stop offset="0.5" stop-color="#0c65af"/><stop offset="1" stop-color="#423e92"/></linearGradient></defs><title>description_1</title><g id="Layer_2" data-name="Layer 2"><g id="Layer_1-2" data-name="Layer 1"><polyline class="cls-1" points="9.38 32.62 24.6 14.84 32.49 23.73 25.37 32.62 44.38 8.9 63.38 31.61"/><path class="cls-2" d="M63.81,34.85h-61A2.81,2.81,0,0,1,0,32V2.81A2.81,2.81,0,0,1,2.81,0h61a2.81,2.81,0,0,1,2.8,2.81V32A2.81,2.81,0,0,1,63.81,34.85ZM4.48,30.38H62.14V4.48H4.48ZM47.93,53H2.81A2.81,2.81,0,0,1,0,50.17V43.7a2.81,2.81,0,0,1,2.81-2.81H47.93a2.81,2.81,0,0,1,2.81,2.81v6.47A2.81,2.81,0,0,1,47.93,53ZM4.48,48.5H46.27V45.37H4.48Zm59.9,14.31H2.24a2.24,2.24,0,1,1,0-4.48H64.38a2.24,2.24,0,0,1,0,4.48Zm-20,9.67H2.24a2.24,2.24,0,1,1,0-4.48H44.38a2.24,2.24,0,0,1,0,4.48Z"/></g></g></svg>