<svg id="Layer_1" data-name="Layer 1" xmlns="http://www.w3.org/2000/svg" xmlns:xlink="http://www.w3.org/1999/xlink" viewBox="0 0 113.39 113.39"><defs><style>.cls-1,.cls-2,.cls-3,.cls-4,.cls-5,.cls-6,.cls-7,.cls-8{fill:none;stroke-linecap:round;stroke-miterlimit:10;}.cls-1{stroke-width:4.3px;stroke:url(#linear-gradient);}.cls-2,.cls-3,.cls-4,.cls-5,.cls-6,.cls-7,.cls-8{stroke-width:4.48px;}.cls-2{stroke:url(#New_Gradient_Swatch_copy);}.cls-3{stroke:url(#New_Gradient_Swatch_copy_5);}.cls-4{stroke:url(#New_Gradient_Swatch_copy_5-2);}.cls-5{stroke:url(#New_Gradient_Swatch_copy_5-3);}.cls-6{stroke:url(#New_Gradient_Swatch_copy_5-4);}.cls-7{stroke:url(#New_Gradient_Swatch_copy_5-5);}.cls-8{stroke:url(#New_Gradient_Swatch_copy_5-6);}</style><linearGradient id="linear-gradient" x1="59.41" y1="25.61" x2="98.25" y2="25.61" gradientUnits="userSpaceOnUse"><stop offset="0" stop-color="#1d9ad7"/><stop offset="0.03" stop-color="#1b92d1"/><stop offset="0.14" stop-color="#1572b8"/><stop offset="0.2" stop-color="#1366af"/><stop offset="0.49" stop-color="#423f92"/><stop offset="0.74" stop-color="#404294"/></linearGradient><linearGradient id="New_Gradient_Swatch_copy" x1="35.71" y1="37.31" x2="35.71" y2="63.99" gradientUnits="userSpaceOnUse"><stop offset="0" stop-color="#f7a834"/><stop offset="1" stop-color="#e73a30"/></linearGradient><linearGradient id="New_Gradient_Swatch_copy_5" x1="15.81" y1="64.06" x2="55.61" y2="24.26" gradientUnits="userSpaceOnUse"><stop offset="0" stop-color="#1d9ad7"/><stop offset="0.5" stop-color="#1366af"/><stop offset="1" stop-color="#423f92"/></linearGradient><linearGradient id="New_Gradient_Swatch_copy_5-2" x1="68.61" y1="47.45" x2="89.04" y2="27.02" xlink:href="#New_Gradient_Swatch_copy_5"/><linearGradient id="New_Gradient_Swatch_copy_5-3" x1="68.61" y1="59.52" x2="89.04" y2="39.09" xlink:href="#New_Gradient_Swatch_copy_5"/><linearGradient id="New_Gradient_Swatch_copy_5-4" x1="68.61" y1="72.93" x2="89.04" y2="52.5" xlink:href="#New_Gradient_Swatch_copy_5"/><linearGradient id="New_Gradient_Swatch_copy_5-5" x1="35.41" y1="96.84" x2="77.98" y2="54.28" xlink:href="#New_Gradient_Swatch_copy_5"/><linearGradient id="New_Gradient_Swatch_copy_5-6" x1="35.41" y1="109.06" x2="77.98" y2="66.49" xlink:href="#New_Gradient_Swatch_copy_5"/></defs><title>descriptions</title><line class="cls-1" x1="61.56" y1="25.61" x2="96.09" y2="25.61"/><polyline class="cls-2" points="17.29 57.69 27.24 44.16 35.79 53.44 29.35 62.72 44.51 40.88 54.13 51.33"/><rect class="cls-3" x="17.29" y="25.61" width="36.84" height="37.11" rx="0.57" ry="0.57"/><line class="cls-4" x1="61.56" y1="37.23" x2="96.09" y2="37.23"/><line class="cls-5" x1="61.56" y1="49.3" x2="96.09" y2="49.3"/><line class="cls-6" x1="61.56" y1="62.72" x2="96.09" y2="62.72"/><line class="cls-7" x1="17.29" y1="75.56" x2="96.09" y2="75.56"/><line class="cls-8" x1="17.29" y1="87.78" x2="96.09" y2="87.78"/></svg>