<?xml version="1.0" encoding="utf-8"?>
<!-- Generator: Adobe Illustrator 22.1.0, SVG Export Plug-In . SVG Version: 6.00 Build 0)  -->
<svg version="1.1" xmlns="http://www.w3.org/2000/svg" xmlns:xlink="http://www.w3.org/1999/xlink" x="0px" y="0px"
	 viewBox="0 0 250 250" style="enable-background:new 0 0 250 250;" xml:space="preserve">
<style type="text/css">
	.st0{fill:#FFFFFF;stroke:#FFFFFF;stroke-width:16;stroke-miterlimit:10;}
	.st1{fill:url(#SVGID_1_);}
	.st2{fill:url(#SVGID_2_);}
	.st3{fill:none;stroke:url(#SVGID_3_);stroke-width:8;stroke-linecap:round;stroke-linejoin:round;stroke-miterlimit:10;}
</style>
<g id="White">
	<ellipse class="st0" cx="142.9" cy="55.3" rx="16.6" ry="16.6"/>
	<path class="st0" d="M237.5,215.2h-37.2c-2.2,0-4-1.8-4-4V42.8c0-2.2,1.8-4,4-4h37.2c2.2,0,4,1.8,4,4v168.4
		C241.5,213.4,239.7,215.2,237.5,215.2z"/>
	<path class="st0" d="M107.1,215.2c-2.5,0-5-0.7-7.1-2.1c-5.9-3.7-7.9-11.6-4.5-18.1l19.4-36.8l-34.1-21.9c0,0-0.1,0-0.1-0.1
		c-4.4-3-6.6-7.2-6.4-12.3c0.2-4.5,2.2-9.6,6.3-15.6c5.2-7.7,13.9-20.8,18.5-27.9L88,78.1L63.5,93c-3.7,2.3-8,2.5-11.4,0.7
		c-3.3-1.8-5.4-5.2-5.5-8.9c-0.1-3.9,2-7.5,5.8-9.8L80.3,58c0.1-0.1,0.2-0.1,0.3-0.2c3-1.5,5.4-1.8,8.5-1.1l20.6,4.5
		c3.9,0.9,5.9,1.7,9.3,4l19.5,14.5c0,0,0.1,0,0.1,0.1c2.8,2.2,4.5,4,6.3,7.6l6.9,15h25.6c5.9,0,10.6,4.8,10.6,10.6
		s-4.8,10.6-10.6,10.6c0,0,0,0,0,0l-32.6,0c-4.2,0-7.9-2.6-9.9-7l-4.5-9.8l-13.8,20.8l23.2,14.9c6,3.9,8,11.7,4.4,17.8l0,0.1
		L119,208c-1.8,3.3-4.8,5.8-8.4,6.7C109.4,215.1,108.3,215.2,107.1,215.2z M65.9,178.2c-0.1,0-43.7,0-44,0l0,0
		c-7.4,0-13.4-6-13.4-13.4s6-13.4,13.4-13.4h37.3l10.7-13.7c1.3-1.6,3.6-2,5.3-0.9l15.6,10c0.9,0.6,1.6,1.6,1.8,2.7
		c0.2,1.1-0.1,2.2-0.7,3.1l-15.3,20.2C74.1,176.1,70.1,178.2,65.9,178.2z"/>
</g>
<g id="Orange">
	<linearGradient id="SVGID_1_" gradientUnits="userSpaceOnUse" x1="131.1403" y1="43.5924" x2="154.6285" y2="67.0806">
		<stop  offset="0" style="stop-color:#FFEE25"/>
		<stop  offset="0.3707" style="stop-color:#F08F34"/>
		<stop  offset="1" style="stop-color:#E2312D"/>
	</linearGradient>
	<ellipse class="st1" cx="142.9" cy="55.3" rx="16.6" ry="16.6"/>
	<linearGradient id="SVGID_2_" gradientUnits="userSpaceOnUse" x1="177.7612" y1="106.1495" x2="260.0871" y2="188.4754">
		<stop  offset="0" style="stop-color:#FFEE25"/>
		<stop  offset="0.3707" style="stop-color:#F08F34"/>
		<stop  offset="1" style="stop-color:#E2312D"/>
	</linearGradient>
	<path class="st2" d="M200.3,178.1h37.3V211h-37.3V178.1z M200.3,175.6h37.3v-29h-37.3V175.6z M200.3,144.1h37.3v-29h-37.3V144.1z
		 M200.3,112.6h37.3v-29h-37.3V112.6z"/>
</g>
<g id="Blue_1_">
	<linearGradient id="SVGID_3_" gradientUnits="userSpaceOnUse" x1="73.0243" y1="53.756" x2="236.8286" y2="217.5603">
		<stop  offset="0" style="stop-color:#00ADE6"/>
		<stop  offset="5.543736e-02" style="stop-color:#00A3DE"/>
		<stop  offset="0.25" style="stop-color:#0083C5"/>
		<stop  offset="0.3579" style="stop-color:#0077BC"/>
		<stop  offset="0.7261" style="stop-color:#353579"/>
		<stop  offset="0.9658" style="stop-color:#1D1A55"/>
	</linearGradient>
	<path class="st3" d="M237.5,211.2h-37.2V42.8h37.2V211.2z M65.9,174.2c2.9,0,5.8-1.4,7.5-3.8l15.3-20.2l-15.6-10l-11.9,15.2H21.9
		c-5.2,0-9.4,4.2-9.4,9.4s4.2,9.4,9.4,9.4C21.9,174.1,65.8,174.2,65.9,174.2z M144.8,119.5c-2.6,0-4.9-1.7-6.3-4.7L131,98.5
		l-20,30.2l26.6,17.1c4.2,2.7,5.6,8.2,3.1,12.5l-0.1,0.1l-25.2,47.7c-1.2,2.3-3.4,4.1-5.9,4.7c-0.8,0.2-1.6,0.3-2.4,0.3
		c-1.7,0-3.5-0.5-5-1.5c-4.1-2.6-5.5-8.2-3.1-12.8l21.1-40L83,133.1c-6.4-4.4-6.3-11.7,1-22.3c7.5-11,21.8-32.9,21.8-32.9l-18.4-4
		L61.4,89.6c-1.4,0.9-3,1.3-4.4,1.3c-1.1,0-2.1-0.3-3.1-0.8c-2-1.1-3.3-3.2-3.4-5.5c-0.1-2.5,1.3-4.8,3.9-6.3l27.9-16.9
		c1.9-1,3.4-1.3,5.9-0.8l20.6,4.5c3.5,0.8,4.9,1.4,7.8,3.4l19.4,14.4c2.5,1.9,3.7,3.2,5.2,6.2l7.9,17.2h28.2c3.7,0,6.6,3,6.6,6.6
		s-3,6.6-6.6,6.6C177.3,119.6,144.9,119.5,144.8,119.5z"/>
</g>
</svg>
