<svg id="Layer_1" data-name="Layer 1" xmlns="http://www.w3.org/2000/svg" xmlns:xlink="http://www.w3.org/1999/xlink" viewBox="0 0 113.39 113.39"><defs><style>.cls-1{fill:none;}.cls-2{fill:url(#New_Gradient_Swatch_copy);}.cls-3{fill:url(#New_Gradient_Swatch_copy-2);}.cls-4{fill:url(#New_Gradient_Swatch_copy-3);}.cls-5{fill:url(#New_Gradient_Swatch_copy-4);}.cls-6{fill:url(#linear-gradient);}.cls-7{fill:url(#linear-gradient-2);}.cls-8{clip-path:url(#clip-path);}.cls-9{fill:#f7a834;}.cls-10{fill:#f6a734;}.cls-11{fill:#f7a634;}.cls-12{fill:#f7a534;}.cls-13{fill:#f6a434;}.cls-14{fill:#f6a334;}.cls-15{fill:#f6a235;}.cls-16{fill:#f6a135;}.cls-17{fill:#f6a036;}.cls-18{fill:#f59e36;}.cls-19{fill:#f59d35;}.cls-20{fill:#f59c35;}.cls-21{fill:#f59b35;}.cls-22{fill:#f59a35;}.cls-23{fill:#f49936;}.cls-24{fill:#f49736;}.cls-25{fill:#f49636;}.cls-26{fill:#f49535;}.cls-27{fill:#f39434;}.cls-28{fill:#f39233;}.cls-29{fill:#f39133;}.cls-30{fill:#f39033;}.cls-31{fill:#f28e33;}.cls-32{fill:#f28c33;}.cls-33{fill:#f28b34;}.cls-34{fill:#f28a34;}.cls-35{fill:#f18934;}.cls-36{fill:#f18734;}.cls-37{fill:#f18634;}.cls-38{fill:#f18633;}.cls-39{fill:#f18434;}.cls-40{fill:#f18334;}.cls-41{fill:#f08235;}.cls-42{fill:#f08135;}.cls-43{fill:#f07f34;}.cls-44{fill:#f07e34;}.cls-45{fill:#f07d34;}.cls-46{fill:#ef7c34;}.cls-47{fill:#ef7b34;}.cls-48{fill:#ef7a33;}.cls-49{fill:#ef7833;}.cls-50{fill:#ef7733;}.cls-51{fill:#ee7633;}.cls-52{fill:#ee7533;}.cls-53{fill:#ee7433;}.cls-54{fill:#ee7334;}.cls-55{fill:#ee7234;}.cls-56{fill:#ee7033;}.cls-57{fill:#ed6f34;}.cls-58{fill:#ed6e34;}.cls-59{fill:#ed6c33;}.cls-60{fill:#ed6b33;}.cls-61{fill:#ed6a33;}.cls-62{fill:#ed6933;}.cls-63{fill:#ec6832;}.cls-64{fill:#ec6732;}.cls-65{fill:#ec6633;}.cls-66{fill:#ec6533;}.cls-67{fill:#ec6433;}.cls-68{fill:#ec6332;}.cls-69{fill:#ec6232;}.cls-70{fill:#ec6132;}.cls-71{fill:#eb6133;}.cls-72{fill:#eb5f33;}.cls-73{fill:#eb5e32;}.cls-74{fill:#eb5d33;}.cls-75{fill:#eb5c33;}.cls-76{fill:#eb5a31;}.cls-77{fill:#ea5931;}.cls-78{fill:#ea5831;}.cls-79{fill:#ea5731;}.cls-80{fill:#ea5631;}.cls-81{fill:#ea5530;}.cls-82{fill:#ea5431;}.cls-83{fill:#ea5330;}.cls-84{fill:#ea5230;}.cls-85{fill:#e95030;}.cls-86{fill:#e94f31;}.cls-87{fill:#e94e30;}.cls-88{fill:#e94d31;}.cls-89{fill:#e94c30;}.cls-90{fill:#e94a31;}.cls-91{fill:#e94930;}.cls-92{fill:#e94830;}.cls-93{fill:#e94730;}.cls-94{fill:#e84630;}.cls-95{fill:#e8452f;}.cls-96{fill:#e8442f;}.cls-97{fill:#e8432f;}.cls-98{fill:#e8422f;}.cls-99{fill:#e8412f;}.cls-100{fill:#e8402f;}.cls-101{fill:#e83f30;}.cls-102{fill:#e83d30;}.cls-103{fill:#e73c30;}.cls-104{fill:#e73b30;}.cls-105{fill:#e73a30;}</style><linearGradient id="New_Gradient_Swatch_copy" x1="90.07" y1="82.36" x2="101.12" y2="82.36" gradientUnits="userSpaceOnUse"><stop offset="0" stop-color="#f7a834"/><stop offset="1" stop-color="#e73a30"/></linearGradient><linearGradient id="New_Gradient_Swatch_copy-2" x1="90.07" y1="70.36" x2="101.12" y2="70.36" xlink:href="#New_Gradient_Swatch_copy"/><linearGradient id="New_Gradient_Swatch_copy-3" x1="90.07" y1="58.36" x2="101.12" y2="58.36" xlink:href="#New_Gradient_Swatch_copy"/><linearGradient id="New_Gradient_Swatch_copy-4" x1="90.07" y1="46.36" x2="101.12" y2="46.36" xlink:href="#New_Gradient_Swatch_copy"/><linearGradient id="linear-gradient" x1="86.51" y1="56.7" x2="104.68" y2="56.7" gradientUnits="userSpaceOnUse"><stop offset="0" stop-color="#1d9ad7"/><stop offset="0.48" stop-color="#1366af"/><stop offset="1" stop-color="#423f92"/></linearGradient><linearGradient id="linear-gradient-2" x1="21.96" y1="83.26" x2="69.22" y2="36" xlink:href="#linear-gradient"/><clipPath id="clip-path"><path id="SVGID" class="cls-1" d="M65.33,21.94a6.56,6.56,0,1,0,6.54,6.54A6.55,6.55,0,0,0,65.33,21.94Z"/></clipPath></defs><title>difficulty</title><rect class="cls-2" x="90.07" y="76.84" width="11.05" height="11.05"/><rect class="cls-3" x="90.07" y="64.84" width="11.05" height="11.05"/><rect class="cls-4" x="90.07" y="52.84" width="11.05" height="11.05"/><rect class="cls-5" x="90.07" y="40.84" width="11.05" height="11.05"/><path class="cls-6" d="M101.27,21.94H89.92a3.41,3.41,0,0,0-3.41,3.41V88a3.41,3.41,0,0,0,3.41,3.41h11.35A3.41,3.41,0,0,0,104.68,88V25.36A3.41,3.41,0,0,0,101.27,21.94Zm-.15,65.77H90.07v-62h11.05Z"/><path class="cls-7" d="M51.07,91.45a5.3,5.3,0,0,1-2.84-.84,5.5,5.5,0,0,1-1.79-7.21L54,69.07,40.73,60.53c-1.6-1.07-3.23-3.11-2.09-6.83h0a20.15,20.15,0,0,1,1.8-3.93l.18-.28,7.16-10.87-4.15-.91-9.5,5.8a4.48,4.48,0,0,1-4.57.26,4.21,4.21,0,0,1-2.19-3.59,4.49,4.49,0,0,1,2.32-3.95l10.86-6.62A4.49,4.49,0,0,1,42.93,29a5.44,5.44,0,0,1,1.16.13l8,1.76a8.69,8.69,0,0,1,3.68,1.61l7.61,5.67a7.64,7.64,0,0,1,2.51,3L68.56,47h9.57a4.27,4.27,0,1,1,0,8.52H66a4.38,4.38,0,0,1-4.15-2.8L60.14,49,54.93,57l9,5.78a5.32,5.32,0,0,1,1.76,7.12L55.8,88.57a5.38,5.38,0,0,1-3.35,2.69A5.31,5.31,0,0,1,51.07,91.45ZM41.84,54.68c-.54,1.77-.12,2.48.73,3L58.33,67.89l-.69,1.41L49.41,85A2.17,2.17,0,0,0,50,87.78a2,2,0,0,0,1.56.25,2,2,0,0,0,1.26-1L62.73,68.2a2,2,0,0,0-.66-2.65L51.13,58.5l-.3-1.4.39-.61,8.29-12.57,2,.14L62,45l2.89,6.34c.18.4.51.87,1,.84H78.14c1.16,0,1.25-.7,1.25-.91s-.09-.91-1.25-.91H66.43l-.48-1-3.06-6.72a4.26,4.26,0,0,0-1.52-1.81l-7.55-5.62a5.38,5.38,0,0,0-2.45-1.05l-8-1.75a2.14,2.14,0,0,0-.47-.05,1.05,1.05,0,0,0-.58.15L31.43,39.11a1.26,1.26,0,0,0-.72,1,.86.86,0,0,0,.44.73,1.26,1.26,0,0,0,1.22-.18L43,34.17l.67.12,8,1.75.69,1.66-.49.77L43.35,51.43a17,17,0,0,0-1.51,3.25ZM35,76.92H17.83a5.37,5.37,0,0,1-3.94-1.71,5.27,5.27,0,0,1-1.39-4,5.5,5.5,0,0,1,5.54-4.94H32.32l3.55-4.76a2.61,2.61,0,0,1,3.49-.63l4.59,3a2.64,2.64,0,0,1,.68,3.8l-5.35,7.16A5.35,5.35,0,0,1,35,76.92Zm-17-7.35a2.17,2.17,0,0,0-2.21,1.85,2,2,0,0,0,.51,1.5,2,2,0,0,0,1.48.64h17a2.07,2.07,0,0,0,1.75-.81l4.9-6.56L38.13,64,34,69.55l-.87,0Z"/><g class="cls-8"><rect class="cls-9" x="58.78" y="21.94" width="13.09" height="0.12"/><rect class="cls-10" x="58.78" y="22.06" width="13.09" height="0.12"/><rect class="cls-11" x="58.78" y="22.18" width="13.09" height="0.12"/><rect class="cls-12" x="58.78" y="22.3" width="13.09" height="0.12"/><rect class="cls-13" x="58.78" y="22.42" width="13.09" height="0.12"/><rect class="cls-14" x="58.78" y="22.54" width="13.09" height="0.12"/><rect class="cls-15" x="58.78" y="22.66" width="13.09" height="0.12"/><rect class="cls-16" x="58.78" y="22.79" width="13.09" height="0.12"/><rect class="cls-17" x="58.78" y="22.91" width="13.09" height="0.12"/><rect class="cls-18" x="58.78" y="23.03" width="13.09" height="0.12"/><rect class="cls-18" x="58.78" y="23.15" width="13.09" height="0.12"/><rect class="cls-19" x="58.78" y="23.27" width="13.09" height="0.12"/><rect class="cls-20" x="58.78" y="23.39" width="13.09" height="0.12"/><rect class="cls-21" x="58.78" y="23.51" width="13.09" height="0.12"/><rect class="cls-22" x="58.78" y="23.63" width="13.09" height="0.12"/><rect class="cls-23" x="58.78" y="23.75" width="13.09" height="0.12"/><rect class="cls-24" x="58.78" y="23.87" width="13.09" height="0.12"/><rect class="cls-25" x="58.78" y="23.99" width="13.09" height="0.12"/><rect class="cls-25" x="58.78" y="24.11" width="13.09" height="0.12"/><rect class="cls-26" x="58.78" y="24.23" width="13.09" height="0.12"/><rect class="cls-27" x="58.78" y="24.35" width="13.09" height="0.12"/><rect class="cls-28" x="58.78" y="24.47" width="13.09" height="0.12"/><rect class="cls-29" x="58.78" y="24.59" width="13.09" height="0.12"/><rect class="cls-30" x="58.78" y="24.71" width="13.09" height="0.12"/><rect class="cls-30" x="58.78" y="24.83" width="13.09" height="0.12"/><rect class="cls-31" x="58.78" y="24.95" width="13.09" height="0.12"/><rect class="cls-31" x="58.78" y="25.07" width="13.09" height="0.12"/><rect class="cls-32" x="58.78" y="25.19" width="13.09" height="0.12"/><rect class="cls-33" x="58.78" y="25.31" width="13.09" height="0.12"/><rect class="cls-34" x="58.78" y="25.43" width="13.09" height="0.12"/><rect class="cls-35" x="58.78" y="25.55" width="13.09" height="0.12"/><rect class="cls-36" x="58.78" y="25.67" width="13.09" height="0.12"/><rect class="cls-37" x="58.78" y="25.79" width="13.09" height="0.12"/><rect class="cls-38" x="58.78" y="25.91" width="13.09" height="0.12"/><rect class="cls-38" x="58.78" y="26.03" width="13.09" height="0.12"/><rect class="cls-39" x="58.78" y="26.15" width="13.09" height="0.12"/><rect class="cls-40" x="58.78" y="26.27" width="13.09" height="0.12"/><rect class="cls-41" x="58.78" y="26.39" width="13.09" height="0.12"/><rect class="cls-41" x="58.78" y="26.52" width="13.09" height="0.12"/><rect class="cls-42" x="58.78" y="26.64" width="13.09" height="0.12"/><rect class="cls-43" x="58.78" y="26.76" width="13.09" height="0.12"/><rect class="cls-44" x="58.78" y="26.88" width="13.09" height="0.12"/><rect class="cls-45" x="58.78" y="27" width="13.09" height="0.12"/><rect class="cls-46" x="58.78" y="27.12" width="13.09" height="0.12"/><rect class="cls-46" x="58.78" y="27.24" width="13.09" height="0.12"/><rect class="cls-47" x="58.78" y="27.36" width="13.09" height="0.12"/><rect class="cls-48" x="58.78" y="27.48" width="13.09" height="0.12"/><rect class="cls-49" x="58.78" y="27.6" width="13.09" height="0.12"/><rect class="cls-50" x="58.78" y="27.72" width="13.09" height="0.12"/><rect class="cls-51" x="58.78" y="27.84" width="13.09" height="0.12"/><rect class="cls-52" x="58.78" y="27.96" width="13.09" height="0.12"/><rect class="cls-52" x="58.78" y="28.08" width="13.09" height="0.12"/><rect class="cls-53" x="58.78" y="28.2" width="13.09" height="0.12"/><rect class="cls-54" x="58.78" y="28.32" width="13.09" height="0.12"/><rect class="cls-55" x="58.78" y="28.44" width="13.09" height="0.12"/><rect class="cls-56" x="58.78" y="28.56" width="13.09" height="0.12"/><rect class="cls-57" x="58.78" y="28.68" width="13.09" height="0.12"/><rect class="cls-58" x="58.78" y="28.8" width="13.09" height="0.12"/><rect class="cls-59" x="58.78" y="28.92" width="13.09" height="0.12"/><rect class="cls-60" x="58.78" y="29.04" width="13.09" height="0.12"/><rect class="cls-61" x="58.78" y="29.16" width="13.09" height="0.12"/><rect class="cls-61" x="58.78" y="29.28" width="13.09" height="0.12"/><rect class="cls-62" x="58.78" y="29.4" width="13.09" height="0.12"/><rect class="cls-63" x="58.78" y="29.52" width="13.09" height="0.12"/><rect class="cls-64" x="58.78" y="29.64" width="13.09" height="0.12"/><rect class="cls-65" x="58.78" y="29.76" width="13.09" height="0.12"/><rect class="cls-66" x="58.78" y="29.88" width="13.09" height="0.12"/><rect class="cls-67" x="58.78" y="30" width="13.09" height="0.12"/><rect class="cls-68" x="58.78" y="30.12" width="13.09" height="0.12"/><rect class="cls-69" x="58.78" y="30.25" width="13.09" height="0.12"/><rect class="cls-70" x="58.78" y="30.37" width="13.09" height="0.12"/><rect class="cls-71" x="58.78" y="30.49" width="13.09" height="0.12"/><rect class="cls-72" x="58.78" y="30.61" width="13.09" height="0.12"/><rect class="cls-73" x="58.78" y="30.73" width="13.09" height="0.12"/><rect class="cls-74" x="58.78" y="30.85" width="13.09" height="0.12"/><rect class="cls-75" x="58.78" y="30.97" width="13.09" height="0.12"/><rect class="cls-76" x="58.78" y="31.09" width="13.09" height="0.12"/><rect class="cls-76" x="58.78" y="31.21" width="13.09" height="0.12"/><rect class="cls-77" x="58.78" y="31.33" width="13.09" height="0.12"/><rect class="cls-78" x="58.78" y="31.45" width="13.09" height="0.12"/><rect class="cls-78" x="58.78" y="31.57" width="13.09" height="0.12"/><rect class="cls-79" x="58.78" y="31.69" width="13.09" height="0.12"/><rect class="cls-80" x="58.78" y="31.81" width="13.09" height="0.12"/><rect class="cls-81" x="58.78" y="31.93" width="13.09" height="0.12"/><rect class="cls-82" x="58.78" y="32.05" width="13.09" height="0.12"/><rect class="cls-83" x="58.78" y="32.17" width="13.09" height="0.12"/><rect class="cls-84" x="58.78" y="32.29" width="13.09" height="0.12"/><rect class="cls-85" x="58.78" y="32.41" width="13.09" height="0.12"/><rect class="cls-86" x="58.78" y="32.53" width="13.09" height="0.12"/><rect class="cls-87" x="58.78" y="32.65" width="13.09" height="0.12"/><rect class="cls-88" x="58.78" y="32.77" width="13.09" height="0.12"/><rect class="cls-89" x="58.78" y="32.89" width="13.09" height="0.12"/><rect class="cls-90" x="58.78" y="33.01" width="13.09" height="0.12"/><rect class="cls-91" x="58.78" y="33.13" width="13.09" height="0.12"/><rect class="cls-92" x="58.78" y="33.25" width="13.09" height="0.12"/><rect class="cls-92" x="58.78" y="33.37" width="13.09" height="0.12"/><rect class="cls-93" x="58.78" y="33.49" width="13.09" height="0.12"/><rect class="cls-94" x="58.78" y="33.61" width="13.09" height="0.12"/><rect class="cls-95" x="58.78" y="33.73" width="13.09" height="0.12"/><rect class="cls-96" x="58.78" y="33.86" width="13.09" height="0.12"/><rect class="cls-97" x="58.78" y="33.98" width="13.09" height="0.12"/><rect class="cls-98" x="58.78" y="34.1" width="13.09" height="0.12"/><rect class="cls-99" x="58.78" y="34.22" width="13.09" height="0.12"/><rect class="cls-100" x="58.78" y="34.34" width="13.09" height="0.12"/><rect class="cls-101" x="58.78" y="34.46" width="13.09" height="0.12"/><rect class="cls-102" x="58.78" y="34.58" width="13.09" height="0.12"/><rect class="cls-103" x="58.78" y="34.7" width="13.09" height="0.12"/><rect class="cls-104" x="58.78" y="34.82" width="13.09" height="0.12"/><rect class="cls-105" x="58.78" y="34.94" width="13.09" height="0.12"/><rect class="cls-105" x="58.78" y="35.06" width="13.09"/></g></svg>