<svg id="Layer_1" data-name="Layer 1" xmlns="http://www.w3.org/2000/svg" xmlns:xlink="http://www.w3.org/1999/xlink" viewBox="0 0 544.71 113.14"><defs><style>.cls-1{fill:url(#linear-gradient);}.cls-2{fill:url(#linear-gradient-2);}.cls-3{fill:url(#linear-gradient-3);}.cls-4{fill:url(#linear-gradient-4);}.cls-5{fill:url(#linear-gradient-5);}.cls-6{fill:url(#linear-gradient-6);}.cls-7{fill:url(#linear-gradient-7);}.cls-8{fill:url(#linear-gradient-8);}.cls-9{fill:url(#linear-gradient-9);}.cls-10{fill:url(#linear-gradient-10);}.cls-11{fill:url(#linear-gradient-11);}.cls-12{fill:url(#linear-gradient-12);}.cls-13{fill:url(#linear-gradient-13);}.cls-14,.cls-16{fill:none;stroke-linecap:round;stroke-miterlimit:10;}.cls-14{stroke-width:5.02px;stroke:url(#linear-gradient-14);}.cls-15{fill:url(#linear-gradient-15);}.cls-16{stroke-width:5.25px;stroke:url(#linear-gradient-16);}</style><linearGradient id="linear-gradient" x1="633.04" y1="-511.68" x2="688.31" y2="-566.94" gradientTransform="translate(-255.06 603.78)" gradientUnits="userSpaceOnUse"><stop offset="0" stop-color="#1d9ad7"/><stop offset="0.48" stop-color="#1366af"/><stop offset="1" stop-color="#423f92"/></linearGradient><linearGradient id="linear-gradient-2" x1="660.41" y1="-599.54" x2="660.41" y2="-579.49" gradientTransform="translate(-255.06 603.78)" gradientUnits="userSpaceOnUse"><stop offset="0" stop-color="#f7a834"/><stop offset="0.18" stop-color="#f59a33"/><stop offset="0.53" stop-color="#f07632"/><stop offset="0.99" stop-color="#e73b30"/><stop offset="1" stop-color="#e73a30"/></linearGradient><linearGradient id="linear-gradient-3" x1="711.84" y1="-511.68" x2="767.1" y2="-566.94" xlink:href="#linear-gradient"/><linearGradient id="linear-gradient-4" x1="739.2" y1="-599.54" x2="739.2" y2="-579.49" xlink:href="#linear-gradient-2"/><linearGradient id="linear-gradient-5" x1="-2698.77" y1="-6435.85" x2="-2680.06" y2="-6435.85" gradientTransform="translate(-6123.23 2719.24) rotate(90)" xlink:href="#linear-gradient-2"/><linearGradient id="linear-gradient-6" x1="672.42" y1="-366.59" x2="726.26" y2="-420.43" gradientTransform="translate(-384.58 477.01)" xlink:href="#linear-gradient"/><linearGradient id="linear-gradient-7" x1="592.82" y1="-372.02" x2="649.73" y2="-428.94" gradientTransform="translate(-384.58 477.01)" xlink:href="#linear-gradient"/><linearGradient id="linear-gradient-8" x1="-2707.79" y1="-6352.04" x2="-2689.08" y2="-6352.04" gradientTransform="translate(-6123.23 2719.24) rotate(90)" xlink:href="#linear-gradient-2"/><linearGradient id="linear-gradient-9" x1="566.98" y1="-242.54" x2="622.25" y2="-297.8" gradientTransform="translate(-534.31 334.64)" xlink:href="#linear-gradient"/><linearGradient id="linear-gradient-10" x1="594.34" y1="-330.4" x2="594.34" y2="-310.35" gradientTransform="translate(-534.31 334.64)" xlink:href="#linear-gradient-2"/><linearGradient id="linear-gradient-11" x1="672.78" y1="-511.68" x2="728.04" y2="-566.94" xlink:href="#linear-gradient"/><linearGradient id="linear-gradient-12" x1="700.14" y1="-599.54" x2="700.14" y2="-579.49" xlink:href="#linear-gradient-2"/><linearGradient id="linear-gradient-13" x1="696.39" y1="-323.18" x2="696.39" y2="-304.02" gradientTransform="translate(-534.31 334.64)" xlink:href="#linear-gradient-2"/><linearGradient id="linear-gradient-14" x1="671.35" y1="-239.21" x2="721.17" y2="-289.04" gradientTransform="translate(-534.31 334.64)" xlink:href="#linear-gradient"/><linearGradient id="linear-gradient-15" x1="643.49" y1="-296.33" x2="643.49" y2="-278.81" gradientTransform="translate(-534.31 334.64)" xlink:href="#linear-gradient-2"/><linearGradient id="linear-gradient-16" x1="623.37" y1="-232.88" x2="663.68" y2="-273.18" gradientTransform="translate(-534.31 334.64)" xlink:href="#linear-gradient"/></defs><title>eco-4</title><path class="cls-1" d="M417.47,25.24H393.77a10.16,10.16,0,0,0-10.15,10.15V57.33a10.63,10.63,0,0,0,7.86,10.2v34.61a8.4,8.4,0,0,0,8.39,8.39,8.76,8.76,0,0,0,5.73-2.23,8.15,8.15,0,0,0,5.76,2.23,8.4,8.4,0,0,0,8.39-8.39V67.64a10.63,10.63,0,0,0,7.86-10.2V35.39A10.16,10.16,0,0,0,417.47,25.24ZM417,35.92a2.64,2.64,0,0,0-2.64,2.64v63.69a3.11,3.11,0,1,1-6.22,0V65.3a2.64,2.64,0,1,0-5.28,0v36.83a3.11,3.11,0,0,1-6.22,0V38.56a2.64,2.64,0,1,0-5.28,0V62a5.32,5.32,0,0,1-2.58-4.55V35.39a4.93,4.93,0,0,1,4.87-4.87h23.93a4.93,4.93,0,0,1,4.87,4.87V57.31a5.48,5.48,0,0,1-2.81,4.59V38.56A2.64,2.64,0,0,0,417,35.92Z"/><circle class="cls-2" cx="405.35" cy="14.26" r="10.03"/><path class="cls-3" d="M496.26,25.24H472.57a10.16,10.16,0,0,0-10.15,10.15V57.33a10.63,10.63,0,0,0,7.86,10.2v34.61a8.4,8.4,0,0,0,8.39,8.39,8.76,8.76,0,0,0,5.73-2.23,8.15,8.15,0,0,0,5.76,2.23,8.4,8.4,0,0,0,8.39-8.39V67.64a10.63,10.63,0,0,0,7.86-10.2V35.39A10.16,10.16,0,0,0,496.26,25.24Zm-.47,10.67a2.64,2.64,0,0,0-2.64,2.64v63.69a3.11,3.11,0,1,1-6.22,0V65.3a2.64,2.64,0,1,0-5.28,0v36.83a3.11,3.11,0,0,1-6.22,0V38.56a2.64,2.64,0,0,0-5.28,0V62a5.32,5.32,0,0,1-2.58-4.55V35.39a4.93,4.93,0,0,1,4.87-4.87h23.93a4.93,4.93,0,0,1,4.87,4.87V57.31a5.48,5.48,0,0,1-2.81,4.59V38.56A2.64,2.64,0,0,0,495.79,35.92Z"/><circle class="cls-4" cx="484.15" cy="14.26" r="10.03"/><circle class="cls-5" cx="312.62" cy="29.83" r="9.35"/><path class="cls-6" d="M340.52,110.52c-3.51,0-6.44-2.07-8.7-6.15l-7.93-15.32-17.08-.18a9.65,9.65,0,0,1-8.49-7.74l0-.49c-.08-9.77-.26-32.49-.26-32.58a8.89,8.89,0,0,1,8.88-8.88,14.46,14.46,0,0,1,3.56.75l26.61,13.15A7,7,0,0,1,335,66.78c-.67,0-.67,0-11.49-4.36l-6-2.43.28,12.2L332,73.69a6.89,6.89,0,0,1,5.12,4.94l10,22.92a5.86,5.86,0,0,1-.42,5.71A7.24,7.24,0,0,1,340.52,110.52ZM307.26,83.65l19.84.19,9.34,18.06c1.88,3.38,3.53,3.38,4.08,3.38a2,2,0,0,0,1.66-.84.66.66,0,0,0,.07-.71L332.17,80.51,332,80a1.61,1.61,0,0,0-1.1-1.19l-18.33-1.91L312,52.12l3.7,1.5,9.71,3.93c6.66,2.68,9,3.62,9.88,3.94a1.76,1.76,0,0,0,.1-3.42l-.46-.18-26.52-13.1a15.85,15.85,0,0,0-1.6-.35,3.63,3.63,0,0,0-3.55,3.64c0,.31.23,29.13.25,32.26A4.42,4.42,0,0,0,307.26,83.65Zm-9.59,26.87A23.52,23.52,0,0,1,292.94,64,2.63,2.63,0,1,1,294,69.1a18.27,18.27,0,1,0,21.32,22.66,2.63,2.63,0,0,1,5.07,1.37A23.55,23.55,0,0,1,297.67,110.52Z"/><path class="cls-7" d="M255.2,110.52c-6.46,0-8.8-5.28-8.8-8.83l-.09-34.31-9.2-14.52c-6,8.2-6.09,8.21-7.2,8.35-.2,0,5.52.05-16.61.07a7.15,7.15,0,0,1-7-8.6A7.21,7.21,0,0,1,213.42,47h10.1l9.31-14.25a9.13,9.13,0,0,1,11.69-4.48,10,10,0,0,1,4.12,3.6l11.17,17A18.27,18.27,0,0,1,263,58.09H263c.11,1.11.11,3.09.12,7,0,4.05,0,9.45,0,14.84,0,10.78,0,21.55,0,21.55C263,107.13,260.11,110.52,255.2,110.52Zm-18-64.08h.13a3.75,3.75,0,0,1,3,1.74L251,64.93a3.74,3.74,0,0,1,.58,2l.09,34.75a3.16,3.16,0,0,0,3.34,3.58c.52,0,2.79,0,2.79-3.81,0-16.34.07-41,0-42.91v0a13.16,13.16,0,0,0-2.41-6.86l-11.18-17a4.77,4.77,0,0,0-1.82-1.62,4,4,0,0,0-4.93,2.17l-.15.26L226.36,52.24H213.42a2,2,0,0,0-2,1.47A1.89,1.89,0,0,0,213.3,56c7.12,0,11.48,0,15,0,1-1.41,3.17-4.29,5.9-8A3.74,3.74,0,0,1,237.21,46.44Zm9.11,20.5h0ZM214,109.69a2.5,2.5,0,0,1-2.5-2.5V65.26a2.5,2.5,0,0,1,5,0v41.93A2.5,2.5,0,0,1,214,109.69Z"/><circle class="cls-8" cx="228.81" cy="20.81" r="9.35"/><path class="cls-9" d="M72.15,25.24H48.45A10.16,10.16,0,0,0,38.31,35.39V57.33a10.63,10.63,0,0,0,7.86,10.2v34.61a8.4,8.4,0,0,0,8.39,8.39,8.76,8.76,0,0,0,5.73-2.23A8.15,8.15,0,0,0,66,110.52a8.4,8.4,0,0,0,8.39-8.39V67.64a10.63,10.63,0,0,0,7.86-10.2V35.39A10.16,10.16,0,0,0,72.15,25.24Zm-.47,10.67A2.64,2.64,0,0,0,69,38.56v63.69a3.11,3.11,0,1,1-6.22,0V65.3a2.64,2.64,0,1,0-5.28,0v36.83a3.11,3.11,0,0,1-6.22,0V38.56a2.64,2.64,0,1,0-5.28,0V62a5.32,5.32,0,0,1-2.58-4.55V35.39a4.93,4.93,0,0,1,4.87-4.87H72.26a4.93,4.93,0,0,1,4.87,4.87V57.31a5.48,5.48,0,0,1-2.81,4.59V38.56A2.64,2.64,0,0,0,71.68,35.92Z"/><circle class="cls-10" cx="60.03" cy="14.26" r="10.03"/><path class="cls-11" d="M457.2,25.24H433.51a10.16,10.16,0,0,0-10.15,10.15V57.33a10.63,10.63,0,0,0,7.86,10.2v34.61a8.4,8.4,0,0,0,8.39,8.39,8.76,8.76,0,0,0,5.73-2.23,8.15,8.15,0,0,0,5.76,2.23,8.4,8.4,0,0,0,8.39-8.39V67.64a10.63,10.63,0,0,0,7.86-10.2V35.39A10.16,10.16,0,0,0,457.2,25.24Zm-.47,10.67a2.64,2.64,0,0,0-2.64,2.64v63.69a3.11,3.11,0,1,1-6.22,0V65.3a2.64,2.64,0,1,0-5.28,0v36.83a3.11,3.11,0,0,1-6.22,0V38.56a2.64,2.64,0,1,0-5.28,0V62a5.32,5.32,0,0,1-2.58-4.55V35.39a4.93,4.93,0,0,1,4.87-4.87h23.93a4.93,4.93,0,0,1,4.87,4.87V57.31a5.48,5.48,0,0,1-2.81,4.59V38.56A2.64,2.64,0,0,0,456.73,35.92Z"/><circle class="cls-12" cx="445.08" cy="14.26" r="10.03"/><circle class="cls-13" cx="162.08" cy="21.04" r="9.58"/><path class="cls-14" d="M168.37,34c5.32,0,7.48,4.38,8.28,6.8l6.53,21.48c1.3,4.62-6.41,6.61-7.81,2.11,0,0-5.24-18.71-4.65-16.48h0l9,31.47a.23.23,0,0,1-.22.29h-9.09V107c0,4.66-8.45,4.64-8.45,0v0c0,4.7-8.46,4.66-8.46,0V79.66h-9.11a.23.23,0,0,1-.22-.29s8-28.16,8.68-30.8h0l-4.37,15.8c-1.4,4.31-9.07,2.54-7.71-2.08l6.53-21.5c.7-2.45,2.84-6.8,8.21-6.8Z"/><circle class="cls-15" cx="109.18" cy="47.07" r="8.76"/><path class="cls-16" d="M131.45,67.3l-10.81-6.66a10.18,10.18,0,0,0-5.36-1.52H102.51A10.2,10.2,0,0,0,97,60.72L87.22,67a3.78,3.78,0,0,0-1,5.06h0c1,1.69,3,3.12,4.73,1.77l8-4.67a.07.07,0,0,1,.1.06V90.26h0v16.8c0,1.85,2.63,3.43,4.48,3.46,2.06,0,5.79-1.33,5.79-3.38V90.33a.07.07,0,0,1,.07-.07h-.24a.07.07,0,0,1,.07.07v16.73c0,1.85,3.62,3.43,5.47,3.46,2.06,0,4.62-1.33,4.62-3.38V90.26h0V69.19a.07.07,0,0,1,.1-.06l8,5c1.69,1,3.71-.42,4.73-1.77h0C133.14,70.34,132.8,68.31,131.45,67.3Z"/></svg>