<svg id="Layer_1" data-name="Layer 1" xmlns="http://www.w3.org/2000/svg" xmlns:xlink="http://www.w3.org/1999/xlink" viewBox="0 0 113.39 113.39"><defs><style>.cls-1{fill:url(#linear-gradient);}.cls-2,.cls-3{fill:none;stroke-linecap:round;stroke-miterlimit:10;stroke-width:4.48px;}.cls-2{stroke:url(#New_Gradient_Swatch_copy);}.cls-3{stroke:url(#New_Gradient_Swatch_copy-2);}.cls-4{fill:url(#New_Gradient_Swatch_copy_5);}.cls-5{fill:url(#New_Gradient_Swatch_copy_5-2);}.cls-6{fill:url(#New_Gradient_Swatch_copy_5-3);}.cls-7{fill:url(#New_Gradient_Swatch_copy_5-4);}.cls-8{fill:url(#New_Gradient_Swatch_copy_5-5);}.cls-9{fill:url(#New_Gradient_Swatch_copy_5-6);}.cls-10{fill:url(#New_Gradient_Swatch_copy_5-7);}.cls-11{fill:url(#New_Gradient_Swatch_copy-3);}.cls-12{fill:url(#New_Gradient_Swatch_copy_5-8);}.cls-13{fill:url(#New_Gradient_Swatch_copy_5-9);}.cls-14{fill:url(#New_Gradient_Swatch_copy_5-10);}.cls-15{fill:url(#New_Gradient_Swatch_copy_5-11);}.cls-16{fill:url(#New_Gradient_Swatch_copy_5-12);}.cls-17{fill:url(#New_Gradient_Swatch_copy-4);}</style><linearGradient id="linear-gradient" x1="11.69" y1="58.21" x2="101.69" y2="58.21" gradientUnits="userSpaceOnUse"><stop offset="0" stop-color="#1d9ad7"/><stop offset="0.48" stop-color="#1366af"/><stop offset="1" stop-color="#423f92"/></linearGradient><linearGradient id="New_Gradient_Swatch_copy" x1="31.38" y1="30.73" x2="31.38" y2="16.1" gradientUnits="userSpaceOnUse"><stop offset="0" stop-color="#f7a834"/><stop offset="1" stop-color="#e73a30"/></linearGradient><linearGradient id="New_Gradient_Swatch_copy-2" x1="82.72" y1="30.73" x2="82.72" y2="16.1" xlink:href="#New_Gradient_Swatch_copy"/><linearGradient id="New_Gradient_Swatch_copy_5" x1="65.43" y1="55.16" x2="77.12" y2="43.47" gradientUnits="userSpaceOnUse"><stop offset="0" stop-color="#1d9ad7"/><stop offset="0.5" stop-color="#1366af"/><stop offset="1" stop-color="#423f92"/></linearGradient><linearGradient id="New_Gradient_Swatch_copy_5-2" x1="65.43" y1="70.28" x2="77.12" y2="58.59" xlink:href="#New_Gradient_Swatch_copy_5"/><linearGradient id="New_Gradient_Swatch_copy_5-3" x1="65.43" y1="85.4" x2="77.12" y2="73.71" xlink:href="#New_Gradient_Swatch_copy_5"/><linearGradient id="New_Gradient_Swatch_copy_5-4" x1="80.74" y1="55.16" x2="92.43" y2="43.47" xlink:href="#New_Gradient_Swatch_copy_5"/><linearGradient id="New_Gradient_Swatch_copy_5-5" x1="80.74" y1="70.28" x2="92.43" y2="58.59" xlink:href="#New_Gradient_Swatch_copy_5"/><linearGradient id="New_Gradient_Swatch_copy_5-6" x1="35.42" y1="55.16" x2="47.11" y2="43.47" xlink:href="#New_Gradient_Swatch_copy_5"/><linearGradient id="New_Gradient_Swatch_copy_5-7" x1="50.54" y1="55.16" x2="62.23" y2="43.47" xlink:href="#New_Gradient_Swatch_copy_5"/><linearGradient id="New_Gradient_Swatch_copy-3" x1="19.43" y1="64.44" x2="32.72" y2="64.44" xlink:href="#New_Gradient_Swatch_copy"/><linearGradient id="New_Gradient_Swatch_copy_5-8" x1="35.42" y1="70.28" x2="47.11" y2="58.59" xlink:href="#New_Gradient_Swatch_copy_5"/><linearGradient id="New_Gradient_Swatch_copy_5-9" x1="50.54" y1="70.28" x2="62.23" y2="58.59" xlink:href="#New_Gradient_Swatch_copy_5"/><linearGradient id="New_Gradient_Swatch_copy_5-10" x1="20.23" y1="85.4" x2="31.92" y2="73.71" xlink:href="#New_Gradient_Swatch_copy_5"/><linearGradient id="New_Gradient_Swatch_copy_5-11" x1="35.42" y1="85.4" x2="47.11" y2="73.71" xlink:href="#New_Gradient_Swatch_copy_5"/><linearGradient id="New_Gradient_Swatch_copy_5-12" x1="50.54" y1="85.4" x2="62.23" y2="73.71" xlink:href="#New_Gradient_Swatch_copy_5"/><linearGradient id="New_Gradient_Swatch_copy-4" x1="239.85" y1="-592.11" x2="246.08" y2="-592.11" gradientTransform="translate(181.04 686.02) rotate(-36.3)" xlink:href="#New_Gradient_Swatch_copy"/></defs><title>events</title><path class="cls-1" d="M96.74,21.38H16.65a5,5,0,0,0-5,5V90.09a5,5,0,0,0,5,5H96.74a5,5,0,0,0,5-5V26.33A5,5,0,0,0,96.74,21.38Zm.48,13.38h-81m0,0V26.33a.48.48,0,0,1,.48-.48H96.74a.48.48,0,0,1,.48.48v8.42m-81,4.48h81V90.09a.48.48,0,0,1-.48.48H16.65a.48.48,0,0,1-.48-.48V39.23"/><line class="cls-2" x1="31.38" y1="18.34" x2="31.38" y2="28.49"/><line class="cls-3" x1="82.72" y1="18.34" x2="82.72" y2="28.49"/><path class="cls-4" d="M75.2,56H67.35a2.72,2.72,0,0,1-2.72-2.72V45.4a2.72,2.72,0,0,1,2.72-2.72H75.2a2.72,2.72,0,0,1,2.72,2.72v7.85A2.72,2.72,0,0,1,75.2,56ZM67.35,45.28a.12.12,0,0,0-.12.12v7.85a.12.12,0,0,0,.12.12H75.2a.12.12,0,0,0,.12-.12V45.4a.12.12,0,0,0-.12-.12Z"/><path class="cls-5" d="M75.2,71.08H67.35a2.72,2.72,0,0,1-2.72-2.72V60.52a2.72,2.72,0,0,1,2.72-2.72H75.2a2.72,2.72,0,0,1,2.72,2.72v7.85A2.72,2.72,0,0,1,75.2,71.08ZM67.35,60.4a.12.12,0,0,0-.12.12v7.85a.12.12,0,0,0,.12.12H75.2a.12.12,0,0,0,.12-.12V60.52a.12.12,0,0,0-.12-.12Z"/><path class="cls-6" d="M75.2,86.2H67.35a2.72,2.72,0,0,1-2.72-2.72V75.64a2.72,2.72,0,0,1,2.72-2.72H75.2a2.72,2.72,0,0,1,2.72,2.72v7.85A2.72,2.72,0,0,1,75.2,86.2ZM67.35,75.52a.12.12,0,0,0-.12.12v7.85a.12.12,0,0,0,.12.12H75.2a.12.12,0,0,0,.12-.12V75.64a.12.12,0,0,0-.12-.12Z"/><path class="cls-7" d="M90.51,56H82.67a2.72,2.72,0,0,1-2.72-2.72V45.4a2.72,2.72,0,0,1,2.72-2.72h7.85a2.72,2.72,0,0,1,2.72,2.72v7.85A2.72,2.72,0,0,1,90.51,56ZM82.67,45.28a.12.12,0,0,0-.12.12v7.85a.12.12,0,0,0,.12.12h7.85a.12.12,0,0,0,.12-.12V45.4a.12.12,0,0,0-.12-.12Z"/><path class="cls-8" d="M90.51,71.08H82.67a2.72,2.72,0,0,1-2.72-2.72V60.52a2.72,2.72,0,0,1,2.72-2.72h7.85a2.72,2.72,0,0,1,2.72,2.72v7.85A2.72,2.72,0,0,1,90.51,71.08ZM82.67,60.4a.12.12,0,0,0-.12.12v7.85a.12.12,0,0,0,.12.12h7.85a.12.12,0,0,0,.12-.12V60.52a.12.12,0,0,0-.12-.12Z"/><path class="cls-9" d="M45.19,42.67H37.34a2.72,2.72,0,0,0-2.72,2.72v7.85A2.72,2.72,0,0,0,37.34,56h7.85a2.72,2.72,0,0,0,2.72-2.72V45.4A2.72,2.72,0,0,0,45.19,42.67Zm.12,10.57a.12.12,0,0,1-.12.12H37.34a.12.12,0,0,1-.12-.12V45.4a.12.12,0,0,1,.12-.12h7.85a.12.12,0,0,1,.12.12Z"/><path class="cls-10" d="M60.31,42.67H52.46a2.72,2.72,0,0,0-2.72,2.72v7.85A2.72,2.72,0,0,0,52.46,56h7.85A2.72,2.72,0,0,0,63,53.24V45.4A2.72,2.72,0,0,0,60.31,42.67Zm.12,10.57a.12.12,0,0,1-.12.12H52.46a.12.12,0,0,1-.12-.12V45.4a.12.12,0,0,1,.12-.12h7.85a.12.12,0,0,1,.12.12Z"/><path class="cls-11" d="M30,57.79H22.15a2.72,2.72,0,0,0-2.72,2.72v7.85a2.72,2.72,0,0,0,2.72,2.72H30a2.72,2.72,0,0,0,2.72-2.72V60.52A2.72,2.72,0,0,0,30,57.79Zm.12,10.57a.12.12,0,0,1-.12.12H22.15a.12.12,0,0,1-.12-.12V60.52a.12.12,0,0,1,.12-.12H30a.12.12,0,0,1,.12.12Z"/><path class="cls-12" d="M45.19,57.79H37.34a2.72,2.72,0,0,0-2.72,2.72v7.85a2.72,2.72,0,0,0,2.72,2.72h7.85a2.72,2.72,0,0,0,2.72-2.72V60.52A2.72,2.72,0,0,0,45.19,57.79Zm.12,10.57a.12.12,0,0,1-.12.12H37.34a.12.12,0,0,1-.12-.12V60.52a.12.12,0,0,1,.12-.12h7.85a.12.12,0,0,1,.12.12Z"/><path class="cls-13" d="M60.31,57.79H52.46a2.72,2.72,0,0,0-2.72,2.72v7.85a2.72,2.72,0,0,0,2.72,2.72h7.85A2.72,2.72,0,0,0,63,68.36V60.52A2.72,2.72,0,0,0,60.31,57.79Zm.12,10.57a.12.12,0,0,1-.12.12H52.46a.12.12,0,0,1-.12-.12V60.52a.12.12,0,0,1,.12-.12h7.85a.12.12,0,0,1,.12.12Z"/><path class="cls-14" d="M30,72.91H22.15a2.72,2.72,0,0,0-2.72,2.72v7.85a2.72,2.72,0,0,0,2.72,2.72H30a2.72,2.72,0,0,0,2.72-2.72V75.64A2.72,2.72,0,0,0,30,72.91Zm.12,10.57a.12.12,0,0,1-.12.12H22.15a.12.12,0,0,1-.12-.12V75.64a.12.12,0,0,1,.12-.12H30a.12.12,0,0,1,.12.12Z"/><path class="cls-15" d="M45.19,72.91H37.34a2.72,2.72,0,0,0-2.72,2.72v7.85a2.72,2.72,0,0,0,2.72,2.72h7.85a2.72,2.72,0,0,0,2.72-2.72V75.64A2.72,2.72,0,0,0,45.19,72.91Zm.12,10.57a.12.12,0,0,1-.12.12H37.34a.12.12,0,0,1-.12-.12V75.64a.12.12,0,0,1,.12-.12h7.85a.12.12,0,0,1,.12.12Z"/><path class="cls-16" d="M60.31,72.91H52.46a2.72,2.72,0,0,0-2.72,2.72v7.85a2.72,2.72,0,0,0,2.72,2.72h7.85A2.72,2.72,0,0,0,63,83.48V75.64A2.72,2.72,0,0,0,60.31,72.91Zm.12,10.57a.12.12,0,0,1-.12.12H52.46a.12.12,0,0,1-.12-.12V75.64a.12.12,0,0,1,.12-.12h7.85a.12.12,0,0,1,.12.12Z"/><polygon class="cls-17" points="25.11 63.43 26.06 61.47 27.03 63.42 29.19 63.72 27.64 65.24 28.02 67.39 26.09 66.39 24.17 67.41 24.52 65.26 22.96 63.75 25.11 63.43"/></svg>