<?xml version="1.0" encoding="utf-8"?>
<!-- Generator: Adobe Illustrator 22.1.0, SVG Export Plug-In . SVG Version: 6.00 Build 0)  -->
<svg version="1.1" xmlns="http://www.w3.org/2000/svg" xmlns:xlink="http://www.w3.org/1999/xlink" x="0px" y="0px"
	 viewBox="0 0 250 250" style="enable-background:new 0 0 250 250;" xml:space="preserve">
<style type="text/css">
	.st0{fill:#FFFFFF;stroke:#FFFFFF;stroke-width:16;stroke-miterlimit:10;}
	.st1{fill:none;stroke:url(#SVGID_1_);stroke-width:8;stroke-linecap:round;stroke-linejoin:round;stroke-miterlimit:10;}
	.st2{fill:none;stroke:url(#SVGID_2_);stroke-width:8;stroke-linecap:round;stroke-miterlimit:10;}
	.st3{fill:none;stroke:url(#SVGID_3_);stroke-width:8;stroke-linecap:round;stroke-miterlimit:10;}
	.st4{fill:url(#SVGID_4_);}
	.st5{fill:none;stroke:url(#SVGID_5_);stroke-width:2.9833;stroke-linecap:round;stroke-miterlimit:10;}
</style>
<g id="White">
	<path class="st0" d="M229.9,37.2h-34.7v-9.2c0-2.2-1.8-4-4-4s-4,1.8-4,4v9.2H62.9v-9.2c0-2.2-1.8-4-4-4s-4,1.8-4,4v9.2H20.1
		C14,37.2,9,42.1,9,48.1v167c0,6,5,10.9,11.1,10.9h209.7c6.1,0,11.1-4.9,11.1-10.9v-167C241,42.1,236,37.2,229.9,37.2z"/>
</g>
<g id="Blue_1_">
	<linearGradient id="SVGID_1_" gradientUnits="userSpaceOnUse" x1="23.0496" y1="29.6251" x2="226.9504" y2="233.5259">
		<stop  offset="0" style="stop-color:#00ADE6"/>
		<stop  offset="5.543736e-02" style="stop-color:#00A3DE"/>
		<stop  offset="0.25" style="stop-color:#0083C5"/>
		<stop  offset="0.3579" style="stop-color:#0077BC"/>
		<stop  offset="0.7261" style="stop-color:#353579"/>
		<stop  offset="0.9658" style="stop-color:#1D1A55"/>
	</linearGradient>
	<path class="st1" d="M126.1,41.2H20.1c-3.9,0-7.1,3.1-7.1,6.9v167c0,3.8,3.2,6.9,7.1,6.9h209.7c3.9,0,7.1-3.1,7.1-6.9v-167
		c0-3.8-3.2-6.9-7.1-6.9H126.1 M14,74.1h222 M57.5,161.5h-27v-27h27V161.5z M57.5,202.1h-27v-27h27V202.1z M98,121H71V94h27V121z
		 M98,161.5H71v-27h27V161.5z M98,202.1H71v-27h27V202.1z M138.5,121h-27V94h27V121z M138.5,161.5h-27v-27h27V161.5z M138.5,202.1
		h-27v-27h27V202.1z M179,121h-27V94h27V121z M179,161.5h-27v-27h27V161.5z M179,202.1h-27v-27h27V202.1z M219.6,121h-27V94h27V121z
		 M219.6,161.5h-27v-27h27V161.5z"/>
</g>
<g id="Orange">
	<linearGradient id="SVGID_2_" gradientUnits="userSpaceOnUse" x1="49.4991" y1="31.7614" x2="68.2302" y2="50.4925">
		<stop  offset="0" style="stop-color:#FFEE25"/>
		<stop  offset="0.3707" style="stop-color:#F08F34"/>
		<stop  offset="1" style="stop-color:#E2312D"/>
	</linearGradient>
	<line class="st2" x1="58.9" y1="28.1" x2="58.9" y2="54.2"/>
	<linearGradient id="SVGID_3_" gradientUnits="userSpaceOnUse" x1="181.7698" y1="31.7609" x2="200.5009" y2="50.492">
		<stop  offset="0" style="stop-color:#FFEE25"/>
		<stop  offset="0.3707" style="stop-color:#F08F34"/>
		<stop  offset="1" style="stop-color:#E2312D"/>
	</linearGradient>
	<line class="st3" x1="191.1" y1="28.1" x2="191.1" y2="54.2"/>
	
		<linearGradient id="SVGID_4_" gradientUnits="userSpaceOnUse" x1="298.5108" y1="-971.1465" x2="300.9073" y2="-955.4768" gradientTransform="matrix(0.8059 -0.5921 0.5921 0.8059 372.8145 1103.1548)">
		<stop  offset="0" style="stop-color:#FFEE25"/>
		<stop  offset="0.3707" style="stop-color:#F08F34"/>
		<stop  offset="1" style="stop-color:#E2312D"/>
	</linearGradient>
	<polygon class="st4" points="41.5,145.4 43.9,140.4 46.4,145.4 52,146.2 48,150.1 49,155.6 44,153 39,155.7 40,150.1 35.9,146.2 	
		"/>
	<linearGradient id="SVGID_5_" gradientUnits="userSpaceOnUse" x1="21.1125" y1="125.3947" x2="63.7397" y2="168.022">
		<stop  offset="0" style="stop-color:#FFEE25"/>
		<stop  offset="0.3707" style="stop-color:#F08F34"/>
		<stop  offset="1" style="stop-color:#E2312D"/>
	</linearGradient>
	<path class="st5" d="M33.6,115c0,0,47.8,12.4,36.4,41.6c-5.9,15.2-21.8,17.8-36.1,13.3c-14.4-4.5-28.7-20.6-17.2-35.2
		c8.3-10.5,16.5-5.3,16.5-5.3"/>
</g>
</svg>
