<?xml version="1.0" encoding="utf-8"?>
<!-- Generator: Adobe Illustrator 22.1.0, SVG Export Plug-In . SVG Version: 6.00 Build 0)  -->
<svg version="1.1" xmlns="http://www.w3.org/2000/svg" xmlns:xlink="http://www.w3.org/1999/xlink" x="0px" y="0px"
	 viewBox="0 0 250 250" style="enable-background:new 0 0 250 250;" xml:space="preserve">
<style type="text/css">
	.st0{fill:#FFFFFF;stroke:#FFFFFF;stroke-width:17.5727;stroke-miterlimit:10;}
	.st1{fill:#FFFFFF;stroke:#FFFFFF;stroke-width:22.7412;stroke-linecap:round;stroke-linejoin:round;stroke-miterlimit:10;}
	.st2{fill:#FFFFFF;stroke:#FFFFFF;stroke-width:28;stroke-linecap:square;stroke-miterlimit:10;}
	.st3{fill:#FFFFFF;}
	.st4{fill:url(#SVGID_1_);}
	.st5{fill:none;stroke:url(#SVGID_2_);stroke-width:8;stroke-linecap:round;stroke-linejoin:round;stroke-miterlimit:10;}
	.st6{fill:none;stroke:url(#SVGID_3_);stroke-width:15;stroke-linecap:square;stroke-miterlimit:10;}
</style>
<g id="White">
	<path class="st0" d="M95.2,146.7c-7.6,0-13.7-6.1-13.7-13.7c0-7.6,6.1-13.7,13.7-13.7c7.6,0,13.7,6.1,13.7,13.7
		C108.9,140.5,102.8,146.7,95.2,146.7z M95.2,127.2c-3.2,0-5.8,2.6-5.8,5.8s2.6,5.8,5.8,5.8s5.8-2.6,5.8-5.8S98.4,127.2,95.2,127.2z
		 M148.5,122.9c-7.6,0-13.7-6.1-13.7-13.7c0-7.6,6.1-13.7,13.7-13.7s13.7,6.1,13.7,13.7C162.2,116.7,156,122.9,148.5,122.9z
		 M148.5,103.4c-3.2,0-5.8,2.6-5.8,5.8s2.6,5.8,5.8,5.8s5.8-2.6,5.8-5.8S151.6,103.4,148.5,103.4z"/>
	<path class="st1" d="M12,39.2V207 M56.8,39.2V207 M192.2,39.2V207 M148.5,56.1v47.3 M95.2,56.1v71.1 M237,39.2V207 M12,55.1h225
		 M13.7,86.1h41.1 M13.7,119.3h41.1 M13.7,149.5h41.1 M13.7,181.2h43.1 M194.6,86.1h41.1 M194.6,119.3h41.1 M194.6,149.5h41.1
		 M194.6,181.2h42.1"/>
	<line class="st2" x1="14.7" y1="230.9" x2="236" y2="230.9"/>
	<rect x="18.5" y="59.2" class="st3" width="36.2" height="120.3"/>
	<rect x="198.8" y="61.3" class="st3" width="37.9" height="113.7"/>
</g>
<g id="orange">
	<g id="Orange">
	</g>
	<linearGradient id="SVGID_1_" gradientUnits="userSpaceOnUse" x1="104.7977" y1="104.0249" x2="138.8954" y2="138.1226">
		<stop  offset="0" style="stop-color:#FFEE25"/>
		<stop  offset="0.3707" style="stop-color:#F08F34"/>
		<stop  offset="1" style="stop-color:#E2312D"/>
	</linearGradient>
	<path class="st4" d="M95.2,146.7c-7.6,0-13.7-6.1-13.7-13.7c0-7.6,6.1-13.7,13.7-13.7c7.6,0,13.7,6.1,13.7,13.7
		C108.9,140.5,102.8,146.7,95.2,146.7z M95.2,127.2c-3.2,0-5.8,2.6-5.8,5.8s2.6,5.8,5.8,5.8s5.8-2.6,5.8-5.8S98.4,127.2,95.2,127.2z
		 M148.5,122.9c-7.6,0-13.7-6.1-13.7-13.7c0-7.6,6.1-13.7,13.7-13.7s13.7,6.1,13.7,13.7C162.2,116.7,156,122.9,148.5,122.9z
		 M148.5,103.4c-3.2,0-5.8,2.6-5.8,5.8s2.6,5.8,5.8,5.8s5.8-2.6,5.8-5.8S151.6,103.4,148.5,103.4z"/>
</g>
<g id="Blue_1_">
	<linearGradient id="SVGID_2_" gradientUnits="userSpaceOnUse" x1="23.471" y1="22.0814" x2="225.529" y2="224.1395">
		<stop  offset="0" style="stop-color:#00ADE6"/>
		<stop  offset="5.543736e-02" style="stop-color:#00A3DE"/>
		<stop  offset="0.25" style="stop-color:#0083C5"/>
		<stop  offset="0.3579" style="stop-color:#0077BC"/>
		<stop  offset="0.7261" style="stop-color:#353579"/>
		<stop  offset="0.9658" style="stop-color:#1D1A55"/>
	</linearGradient>
	<path class="st5" d="M12,39.2V207 M56.8,39.2V207 M192.2,39.2V207 M148.5,56.1v47.3 M95.2,56.1v71.1 M237,39.2V207 M12,55.1h225
		 M13.7,86.1h41.1 M13.7,119.3h41.1 M13.7,149.5h41.1 M13.7,181.2h43.1 M194.6,86.1h41.1 M194.6,119.3h41.1 M194.6,149.5h41.1
		 M194.6,181.2h42.1"/>
	<linearGradient id="SVGID_3_" gradientUnits="userSpaceOnUse" x1="62.528" y1="168.0918" x2="188.176" y2="293.7397">
		<stop  offset="0" style="stop-color:#00ADE6"/>
		<stop  offset="5.543736e-02" style="stop-color:#00A3DE"/>
		<stop  offset="0.25" style="stop-color:#0083C5"/>
		<stop  offset="0.3579" style="stop-color:#0077BC"/>
		<stop  offset="0.7261" style="stop-color:#353579"/>
		<stop  offset="0.9658" style="stop-color:#1D1A55"/>
	</linearGradient>
	<line class="st6" x1="14.7" y1="230.9" x2="236" y2="230.9"/>
</g>
</svg>
