<svg id="Layer_1" data-name="Layer 1" xmlns="http://www.w3.org/2000/svg" xmlns:xlink="http://www.w3.org/1999/xlink" viewBox="0 0 113.39 113.39"><defs><style>.cls-1{fill:url(#New_Gradient_Swatch_copy);}.cls-2{fill:url(#New_Gradient_Swatch_copy-2);}.cls-3{fill:url(#linear-gradient);}</style><linearGradient id="New_Gradient_Swatch_copy" x1="45.57" y1="50.06" x2="45.57" y2="60.43" gradientUnits="userSpaceOnUse"><stop offset="0" stop-color="#f7a834"/><stop offset="1" stop-color="#e73a30"/></linearGradient><linearGradient id="New_Gradient_Swatch_copy-2" x1="65.73" y1="41.06" x2="65.73" y2="51.43" xlink:href="#New_Gradient_Swatch_copy"/><linearGradient id="linear-gradient" x1="14.64" y1="99.78" x2="98.75" y2="15.67" gradientUnits="userSpaceOnUse"><stop offset="0" stop-color="#1d9ad7"/><stop offset="0.48" stop-color="#1366af"/><stop offset="1" stop-color="#423f92"/></linearGradient></defs><title>facilities</title><path class="cls-1" d="M45.57,60.43a5.19,5.19,0,1,1,5.19-5.19A5.19,5.19,0,0,1,45.57,60.43Zm0-7.37a2.19,2.19,0,1,0,2.19,2.19A2.19,2.19,0,0,0,45.57,53.06Z"/><path class="cls-2" d="M65.73,51.43a5.19,5.19,0,1,1,5.19-5.19A5.19,5.19,0,0,1,65.73,51.43Zm0-7.37a2.19,2.19,0,1,0,2.19,2.19A2.19,2.19,0,0,0,65.73,44.06Z"/><path class="cls-3" d="M14.19,85.6a2.24,2.24,0,0,0,2.24-2.24V75.85H29v7.51a2.24,2.24,0,0,0,4.48,0V28.1h9.9V52.86a2.24,2.24,0,0,0,4.48,0V28.1H63.49V43.86a2.24,2.24,0,0,0,4.48,0V28.1H80V83.36a2.24,2.24,0,0,0,4.48,0V75.85H97v7.51a2.24,2.24,0,1,0,4.48,0V19.29a2.24,2.24,0,1,0-4.48,0v4.33H84.44V19.29a2.24,2.24,0,0,0-4.48,0v4.33H33.43V19.29a2.24,2.24,0,0,0-4.48,0v4.33H16.43V19.29a2.24,2.24,0,0,0-4.48,0V83.36A2.24,2.24,0,0,0,14.19,85.6ZM84.44,28.1H97v7.27H84.44Zm0,11.75H97v7.52H84.44Zm0,12H97v7.52H84.44Zm0,12H97v7.52H84.44Zm-68-35.75H29v7.27H16.43Zm0,11.75H29v7.52H16.43Zm0,12H29v7.52H16.43Zm0,12H29v7.52H16.43ZM11.19,96.33h91V88h-91Z"/></svg>