<svg id="Layer_1" data-name="Layer 1" xmlns="http://www.w3.org/2000/svg" xmlns:xlink="http://www.w3.org/1999/xlink" viewBox="0 0 113.39 113.39"><defs><style>.cls-1{fill:url(#linear-gradient);}.cls-2{fill:url(#linear-gradient-2);}.cls-3{fill:url(#linear-gradient-3);}.cls-4{fill:none;stroke-linecap:round;stroke-miterlimit:10;stroke-width:4.48px;stroke:url(#linear-gradient-4);}</style><linearGradient id="linear-gradient" x1="7.26" y1="86.3" x2="54.38" y2="39.18" gradientUnits="userSpaceOnUse"><stop offset="0" stop-color="#1d9ad7"/><stop offset="0.48" stop-color="#1366af"/><stop offset="1" stop-color="#423f92"/></linearGradient><linearGradient id="linear-gradient-2" x1="30.59" y1="11.39" x2="30.59" y2="28.48" gradientUnits="userSpaceOnUse"><stop offset="0" stop-color="#f7a834"/><stop offset="0.18" stop-color="#f59a33"/><stop offset="0.53" stop-color="#f07632"/><stop offset="0.99" stop-color="#e73b30"/><stop offset="1" stop-color="#e73a30"/></linearGradient><linearGradient id="linear-gradient-3" x1="82.36" y1="12.2" x2="82.36" y2="29.3" xlink:href="#linear-gradient-2"/><linearGradient id="linear-gradient-4" x1="60" y1="87.13" x2="104.47" y2="42.66" xlink:href="#linear-gradient"/></defs><title>gender</title><path class="cls-1" d="M40.92,29.3H20.72a8.66,8.66,0,0,0-8.65,8.65v18.7a9.06,9.06,0,0,0,6.7,8.7v29.5A7.16,7.16,0,0,0,25.92,102a7.47,7.47,0,0,0,4.89-1.9,7,7,0,0,0,4.91,1.9,7.16,7.16,0,0,0,7.15-7.15V65.44a9.06,9.06,0,0,0,6.7-8.7V37.95A8.66,8.66,0,0,0,40.92,29.3Zm-.4,9.1a2.25,2.25,0,0,0-2.25,2.25v54.3a2.65,2.65,0,1,1-5.3,0V63.45a2.25,2.25,0,1,0-4.5,0v31.4a2.65,2.65,0,0,1-5.3,0V40.65a2.25,2.25,0,0,0-4.5,0v20a4.54,4.54,0,0,1-2.2-3.88V37.95a4.21,4.21,0,0,1,4.15-4.15H41a4.21,4.21,0,0,1,4.15,4.15V56.64a4.67,4.67,0,0,1-2.4,3.91V40.65A2.25,2.25,0,0,0,40.52,38.4Z"/><circle class="cls-2" cx="30.59" cy="19.94" r="8.55"/><circle class="cls-3" cx="82.36" cy="20.75" r="8.55"/><path class="cls-4" d="M88,32.31c4.75,0,6.67,3.91,7.39,6.07l5.83,19.17c1.16,4.12-5.72,5.9-7,1.88,0,0-4.68-16.69-4.14-14.71h0l8,28.08a.2.2,0,0,1-.19.26H89.8v24.4c0,4.16-7.54,4.14-7.54,0v0c0,4.2-7.55,4.16-7.55,0V73.06H66.57a.2.2,0,0,1-.19-.26s7.12-25.12,7.75-27.48h0l-3.9,14.1c-1.25,3.85-8.09,2.27-6.88-1.86l5.82-19.18c.62-2.19,2.54-6.07,7.33-6.07Z"/></svg>