<?xml version="1.0" encoding="utf-8"?>
<!-- Generator: Adobe Illustrator 22.1.0, SVG Export Plug-In . SVG Version: 6.00 Build 0)  -->
<svg version="1.1" xmlns="http://www.w3.org/2000/svg" xmlns:xlink="http://www.w3.org/1999/xlink" x="0px" y="0px"
	 viewBox="0 0 250 250" style="enable-background:new 0 0 250 250;" xml:space="preserve">
<style type="text/css">
	.st0{fill:#FFFFFF;}
	.st1{fill:url(#SVGID_1_);}
	.st2{fill:none;stroke:url(#SVGID_2_);stroke-width:8;stroke-linecap:round;stroke-miterlimit:10;}
</style>
<g id="white">
	<g>
		<path class="st0" d="M17.6,220.2c-6.4,0-11.7-5.2-11.7-11.7V50.2c0-6.4,5.2-11.7,11.7-11.7h214c6.4,0,11.7,5.2,11.7,11.7v158.3
			c0,6.4-5.2,11.7-11.7,11.7H17.6z"/>
		<path class="st0" d="M231.6,44.5c3.1,0,5.7,2.6,5.7,5.7v158.3c0,3.1-2.6,5.7-5.7,5.7h-214c-3.1,0-5.7-2.6-5.7-5.7V50.2
			c0-3.1,2.6-5.7,5.7-5.7H231.6 M231.6,32.5h-214C7.9,32.5,0,40.4,0,50.2v158.3c0,9.7,7.9,17.7,17.7,17.7h214
			c9.7,0,17.7-7.9,17.7-17.7V50.2C249.3,40.4,241.4,32.5,231.6,32.5L231.6,32.5z"/>
	</g>
</g>
<g id="orange">
	<linearGradient id="SVGID_1_" gradientUnits="userSpaceOnUse" x1="160.417" y1="142.8127" x2="210.0288" y2="192.4245">
		<stop  offset="0" style="stop-color:#FEEC31"/>
		<stop  offset="0.3707" style="stop-color:#F08F33"/>
		<stop  offset="1" style="stop-color:#E2322E"/>
	</linearGradient>
	<path class="st1" d="M214.5,162.3l-52.2-19.8c-1.5-0.6-2.9,0.8-2.3,2.3l19.9,52.2c0.6,1.7,3,1.6,3.5-0.1l4.8-17.9l13.4,13.4
		c1.2,1.2,2.7,1.7,4.2,1.7c1.5,0,3-0.6,4.2-1.7c2.3-2.3,2.3-6.1,0-8.4l-13.5-13.5l17.9-4.8C216.2,165.3,216.2,162.9,214.5,162.3z"/>
</g>
<g id="Blue">
	<linearGradient id="SVGID_2_" gradientUnits="userSpaceOnUse" x1="24.7069" y1="29.4153" x2="224.551" y2="229.2594">
		<stop  offset="0" style="stop-color:#00AEE7"/>
		<stop  offset="0.1635" style="stop-color:#0090D1"/>
		<stop  offset="0.2887" style="stop-color:#007EC2"/>
		<stop  offset="0.3579" style="stop-color:#0077BD"/>
		<stop  offset="0.7261" style="stop-color:#363579"/>
		<stop  offset="0.9658" style="stop-color:#1C1B55"/>
	</linearGradient>
	<path class="st2" d="M231.6,214.2h-214c-3.1,0-5.7-2.6-5.7-5.7V50.2c0-3.1,2.6-5.7,5.7-5.7h214c3.1,0,5.7,2.6,5.7,5.7v158.3
		C237.3,211.6,234.8,214.2,231.6,214.2z M12,70.8h225.3"/>
</g>
</svg>
