<svg id="Layer_1" data-name="Layer 1" xmlns="http://www.w3.org/2000/svg" xmlns:xlink="http://www.w3.org/1999/xlink" viewBox="0 0 113.39 113.39"><defs><style>.cls-1{fill:url(#linear-gradient);}.cls-2{fill:url(#New_Gradient_Swatch_copy);}</style><linearGradient id="linear-gradient" x1="27.38" y1="79.88" x2="86" y2="21.26" gradientUnits="userSpaceOnUse"><stop offset="0" stop-color="#1d9ad7"/><stop offset="0.48" stop-color="#1366af"/><stop offset="1" stop-color="#423f92"/></linearGradient><linearGradient id="New_Gradient_Swatch_copy" x1="56.8" y1="25.91" x2="56.99" y2="91.24" gradientTransform="translate(-0.03 0.56) rotate(0.16)" gradientUnits="userSpaceOnUse"><stop offset="0" stop-color="#f7a834"/><stop offset="1" stop-color="#e73a30"/></linearGradient></defs><title>leagues</title><path class="cls-1" d="M56.69,101.52l-.73-.25c-.34-.12-33.88-12.11-33.77-44.57V27.44a2.4,2.4,0,0,1,3-2.32c13.29,3.48,22.91-.45,29.39-12a2.41,2.41,0,0,1,2.08-1.23,2.44,2.44,0,0,1,2.1,1.2c6.7,11.64,16.31,15.58,29.39,12.06h0a2.4,2.4,0,0,1,3,2.32V56.71c.11,32.45-33.43,44.44-33.77,44.56Zm-30-71.47V56.71C26.58,83.47,52,94.9,56.7,96.76c4.81-1.87,30.1-13,30-40V30.06c-12.56,2.56-22.84-1.51-30-11.87C49.67,28.68,39.59,32.66,26.67,30.05Zm62.66-.61h0Z"/><path class="cls-2" d="M56.57,92l-.83-.33a51.93,51.93,0,0,1-12.79-8C34.48,76.5,30,67.69,30.09,58.19l.06-20.14a2.4,2.4,0,0,1,2.77-2.37c9.6,1.49,17-1.22,21.88-8a2.41,2.41,0,0,1,1.93-1h0a2.41,2.41,0,0,1,1.93,1c4.53,6.15,11.54,8.74,22.08,8.17h0a2.4,2.4,0,0,1,2.53,2.4l-.06,20.18c0,9.49-4.49,18.27-13,25.4A51.91,51.91,0,0,1,57.4,91.64Zm-22-51.56-.05,17.8c-.11,17.63,17.9,27,22,28.9,4.12-1.89,22.19-11.19,22.17-28.77l.05-18c-9.74.14-17-2.49-22-8C51.33,38.58,43.9,41.29,34.62,40.41Zm-2.38-.3h0Zm2.39-2.05h0Zm23.81-7.81h0Z"/></svg>