<?xml version="1.0" encoding="utf-8"?>
<!-- Generator: Adobe Illustrator 22.1.0, SVG Export Plug-In . SVG Version: 6.00 Build 0)  -->
<svg version="1.1" xmlns="http://www.w3.org/2000/svg" xmlns:xlink="http://www.w3.org/1999/xlink" x="0px" y="0px"
	 viewBox="0 0 250 250" style="enable-background:new 0 0 250 250;" xml:space="preserve">
<style type="text/css">
	.st0{fill:#FFFFFF;stroke:#FFFFFF;stroke-width:24;stroke-linecap:round;stroke-linejoin:round;stroke-miterlimit:10;}
	.st1{fill:none;stroke:url(#SVGID_1_);stroke-width:8;stroke-linejoin:round;stroke-miterlimit:10;}
	.st2{fill:none;stroke:url(#SVGID_2_);stroke-width:8;stroke-linejoin:round;stroke-miterlimit:10;}
</style>
<g id="White">
	<g>
		<path class="st0" d="M39,49.5v74.5c-0.2,74.8,70.9,106.7,83.9,111.9c13.4-5.2,84.1-36.4,83.9-111.9V49.5
			c-35.1,7.1-63.8-4.2-83.8-33.2C103.3,45.6,75.1,56.8,39,49.5z"/>
	</g>
</g>
<g id="orange">
	<g id="Orange">
	</g>
	<g>
		<linearGradient id="SVGID_1_" gradientUnits="userSpaceOnUse" x1="71.5255" y1="67.2955" x2="174.4146" y2="170.1845">
			<stop  offset="0" style="stop-color:#FFEE25"/>
			<stop  offset="0.3707" style="stop-color:#F08F34"/>
			<stop  offset="1" style="stop-color:#E2312D"/>
		</linearGradient>
		<path class="st1" d="M66.2,78.2v50.3c-0.2,50.5,47.9,72.1,56.7,75.6c9.1-3.5,56.8-24.6,56.6-75.6V78.3
			c-23.7,4.8-43.1-2.9-56.6-22.4C109.6,75.6,90.6,83.2,66.2,78.2z"/>
	</g>
</g>
<g id="Blue_1_">
	<g>
		<linearGradient id="SVGID_2_" gradientUnits="userSpaceOnUse" x1="48.201" y1="34.6255" x2="197.8099" y2="184.2344">
			<stop  offset="0" style="stop-color:#00ADE6"/>
			<stop  offset="5.543736e-02" style="stop-color:#00A3DE"/>
			<stop  offset="0.25" style="stop-color:#0083C5"/>
			<stop  offset="0.3579" style="stop-color:#0077BC"/>
			<stop  offset="0.7261" style="stop-color:#353579"/>
			<stop  offset="0.9658" style="stop-color:#1D1A55"/>
		</linearGradient>
		<path class="st2" d="M39,49.5v74.5c-0.2,74.8,70.9,106.7,83.9,111.9c13.4-5.2,84.1-36.4,83.9-111.9V49.5
			c-35.1,7.1-63.8-4.2-83.8-33.2C103.3,45.6,75.1,56.8,39,49.5z"/>
	</g>
</g>
</svg>
