<svg xmlns="http://www.w3.org/2000/svg" xmlns:xlink="http://www.w3.org/1999/xlink" viewBox="0 0 91 79.28"><defs><style>.cls-1{fill:url(#New_Gradient_Swatch_copy);}.cls-2{fill:url(#New_Gradient_Swatch_copy-2);}.cls-3{fill:url(#linear-gradient);}</style><linearGradient id="New_Gradient_Swatch_copy" x1="34.38" y1="33" x2="34.38" y2="43.38" gradientUnits="userSpaceOnUse"><stop offset="0" stop-color="#f6a734"/><stop offset="1" stop-color="#e73a2f"/></linearGradient><linearGradient id="New_Gradient_Swatch_copy-2" x1="54.53" y1="24" x2="54.53" y2="34.38" xlink:href="#New_Gradient_Swatch_copy"/><linearGradient id="linear-gradient" x1="3.45" y1="82.73" x2="87.55" y2="-1.38" gradientUnits="userSpaceOnUse"><stop offset="0" stop-color="#1c9bd8"/><stop offset="0.48" stop-color="#0c65af"/><stop offset="1" stop-color="#423e92"/></linearGradient></defs><title>leisure</title><g id="Layer_2" data-name="Layer 2"><g id="Layer_1-2" data-name="Layer 1"><path class="cls-1" d="M34.38,43.38a5.19,5.19,0,1,1,5.18-5.19A5.19,5.19,0,0,1,34.38,43.38Zm0-7.38a2.19,2.19,0,1,0,2.18,2.19A2.19,2.19,0,0,0,34.38,36Z"/><path class="cls-2" d="M54.53,34.38a5.19,5.19,0,1,1,5.19-5.19A5.19,5.19,0,0,1,54.53,34.38Zm0-7.38a2.19,2.19,0,1,0,2.19,2.19A2.19,2.19,0,0,0,54.53,27Z"/><path class="cls-3" d="M3,68.54A2.24,2.24,0,0,0,5.24,66.3V58.79H17.76V66.3a2.24,2.24,0,0,0,4.48,0V11h9.9V35.8a2.24,2.24,0,1,0,4.47,0V11H52.29V26.8a2.24,2.24,0,0,0,4.48,0V11h12V66.3a2.24,2.24,0,1,0,4.47,0V58.79H85.77V66.3a2.24,2.24,0,1,0,4.47,0V2.24a2.24,2.24,0,1,0-4.47,0V6.57H73.24V2.24a2.24,2.24,0,1,0-4.47,0V6.57H22.24V2.24a2.24,2.24,0,1,0-4.48,0V6.57H5.24V2.24a2.24,2.24,0,0,0-4.48,0V66.3A2.24,2.24,0,0,0,3,68.54ZM73.24,11H85.77v7.28H73.24Zm0,11.75H85.77v7.53H73.24Zm0,12H85.77v7.53H73.24Zm0,12H85.77v7.53H73.24ZM5.24,11H17.76v7.28H5.24Zm0,11.75H17.76v7.53H5.24Zm0,12H17.76v7.53H5.24Zm0,12H17.76v7.53H5.24ZM0,79.28H91V70.93H0Z"/></g></g></svg>