<svg xmlns="http://www.w3.org/2000/svg" xmlns:xlink="http://www.w3.org/1999/xlink" viewBox="0 0 37.5 90.61"><defs><style>.cls-1{fill:url(#linear-gradient);}.cls-2{fill:url(#linear-gradient-2);}</style><linearGradient id="linear-gradient" x1="-4.81" y1="74.91" x2="42.31" y2="27.79" gradientUnits="userSpaceOnUse"><stop offset="0" stop-color="#1c9bd8"/><stop offset="0.48" stop-color="#0c65af"/><stop offset="1" stop-color="#423e92"/></linearGradient><linearGradient id="linear-gradient-2" x1="18.52" x2="18.52" y2="17.1" gradientUnits="userSpaceOnUse"><stop offset="0" stop-color="#f6a734"/><stop offset="0.18" stop-color="#f49933"/><stop offset="0.53" stop-color="#ef7532"/><stop offset="1" stop-color="#e73a2f"/></linearGradient></defs><title>male</title><g id="Layer_2" data-name="Layer 2"><g id="Layer_1-2" data-name="Layer 1"><path class="cls-1" d="M28.85,17.91H8.65A8.66,8.66,0,0,0,0,26.56v18.7A9.08,9.08,0,0,0,6.7,54v29.5a7.16,7.16,0,0,0,7.15,7.15,7.46,7.46,0,0,0,4.89-1.9,6.94,6.94,0,0,0,4.91,1.9,7.16,7.16,0,0,0,7.15-7.15V54.06a9.08,9.08,0,0,0,6.7-8.7V26.56A8.66,8.66,0,0,0,28.85,17.91Zm-.4,9.1a2.25,2.25,0,0,0-2.25,2.25v54.3a2.65,2.65,0,0,1-5.3,0V52.06a2.25,2.25,0,0,0-4.5,0v31.4a2.65,2.65,0,1,1-5.3,0V29.26a2.25,2.25,0,0,0-4.5,0v20a4.54,4.54,0,0,1-2.2-3.88V26.56a4.2,4.2,0,0,1,4.15-4.15H29a4.2,4.2,0,0,1,4.15,4.15V45.25a4.66,4.66,0,0,1-2.4,3.91V29.26A2.25,2.25,0,0,0,28.45,27Z"/><circle class="cls-2" cx="18.52" cy="8.55" r="8.55"/></g></g></svg>