<?xml version="1.0" encoding="utf-8"?>
<!-- Generator: Adobe Illustrator 22.1.0, SVG Export Plug-In . SVG Version: 6.00 Build 0)  -->
<svg version="1.1" xmlns="http://www.w3.org/2000/svg" xmlns:xlink="http://www.w3.org/1999/xlink" x="0px" y="0px"
	 viewBox="0 0 250 250" style="enable-background:new 0 0 250 250;" xml:space="preserve">
<style type="text/css">
	.st0{fill:#FFFFFF;stroke:#FFFFFF;stroke-width:12;stroke-miterlimit:10;}
	.st1{fill:url(#SVGID_1_);}
	.st2{fill:none;stroke:url(#SVGID_2_);stroke-width:8;stroke-linecap:round;stroke-linejoin:round;stroke-miterlimit:10;}
</style>
<g id="White">
	<circle class="st0" cx="111.6" cy="30.9" r="21.8"/>
	<path class="st0" d="M172.1,240.8c-10.7,0-19.5-8.7-19.5-19.5l-0.2-81.6l-21.6-34.1l-13.1,17.4c-1.1,1.5-2.9,2.4-4.8,2.4l-37.8,0
		c-9.2,0-16.7-7.5-16.7-16.7c0-9.2,7.5-16.7,16.7-16.7H99l22.1-33.9c3.8-5.9,8.4-11.7,19.1-11.7c10.5,0,15.6,7.1,17.5,9.8
		c0,0.1,0.1,0.1,0.1,0.2L184,96.3c0,0,0.1,0.1,0.1,0.1c0.2,0.4,0.5,0.7,0.7,1.1c2.8,4.5,6.7,10.6,6.7,21.1
		c0,7.3,0.1,101.7,0.1,102.7C191.6,232.1,182.9,240.8,172.1,240.8z M76.7,240.8c-3.3,0-6-2.7-6-6v-99.3c0-3.3,2.7-6,6-6
		c3.3,0,6,2.7,6,6v99.3C82.7,238.2,80,240.8,76.7,240.8z"/>
</g>
<g id="Orange">
	
		<linearGradient id="SVGID_1_" gradientUnits="userSpaceOnUse" x1="378.3483" y1="319.6687" x2="407.8383" y2="290.1786" gradientTransform="matrix(0 1 -1 0 416.5263 -362.1865)">
		<stop  offset="0" style="stop-color:#FFEE25"/>
		<stop  offset="0.3707" style="stop-color:#F08F34"/>
		<stop  offset="1" style="stop-color:#E2312D"/>
	</linearGradient>
	<circle class="st1" cx="111.6" cy="30.9" r="20.9"/>
</g>
<g id="Blue_1_">
	<linearGradient id="SVGID_2_" gradientUnits="userSpaceOnUse" x1="65.3974" y1="97.688" x2="192.9531" y2="225.2437">
		<stop  offset="0" style="stop-color:#00ADE6"/>
		<stop  offset="5.543736e-02" style="stop-color:#00A3DE"/>
		<stop  offset="0.25" style="stop-color:#0083C5"/>
		<stop  offset="0.3579" style="stop-color:#0077BC"/>
		<stop  offset="0.7261" style="stop-color:#353579"/>
		<stop  offset="0.9658" style="stop-color:#1D1A55"/>
	</linearGradient>
	<path class="st2" d="M158.4,138.1l-27.2-42.9l-18.3,24.3l-37.8,0c-5.9,0-10.7-4.8-10.7-10.7c0-5.9,4.8-10.7,10.7-10.7h27.2
		l23.9-36.6c3.7-5.8,6.8-9,14-9s10.7,4.6,12.6,7.3L179,99.6c2.8,4.5,6.5,9.4,6.5,19.1c0,7.3,0.1,102.7,0.1,102.7
		c0,7.4-6,13.5-13.5,13.5s-13.5-6-13.5-13.5L158.4,138.1z M76.7,135.5v99.3"/>
</g>
</svg>
