<svg xmlns="http://www.w3.org/2000/svg" xmlns:xlink="http://www.w3.org/1999/xlink" viewBox="0 0 82.04 90.61"><defs><style>.cls-1{fill:url(#New_Gradient_Swatch_copy);}.cls-2{fill:none;stroke-linecap:round;stroke-miterlimit:10;stroke-width:4.48px;stroke:url(#New_Gradient_Swatch_copy_5);}</style><linearGradient id="New_Gradient_Swatch_copy" x1="35.15" x2="35.15" y2="24.19" gradientUnits="userSpaceOnUse"><stop offset="0" stop-color="#f6a734"/><stop offset="1" stop-color="#e73a2f"/></linearGradient><linearGradient id="New_Gradient_Swatch_copy_5" x1="9.62" y1="86.14" x2="70.78" y2="24.98" gradientUnits="userSpaceOnUse"><stop offset="0" stop-color="#1c9bd8"/><stop offset="0.5" stop-color="#0c65af"/><stop offset="1" stop-color="#423e92"/></linearGradient></defs><title>money_2</title><g id="Layer_2" data-name="Layer 2"><g id="Layer_1-2" data-name="Layer 1"><path class="cls-1" d="M44,23.9a13.57,13.57,0,1,0-17.27.29A22,22,0,0,1,44,23.9Z"/><path class="cls-2" d="M37.15,23.42c-16.18,0-30,8.91-33.84,21.27a21.25,21.25,0,0,0-1.06,6.85c0,8.36,4.62,15.75,11.63,20.84V86.43a1.94,1.94,0,0,0,1.94,1.94h12.6A1.93,1.93,0,0,0,30.3,87l2.21-7.67a41.48,41.48,0,0,0,4.64.37,41.11,41.11,0,0,0,4.63-.37L44,87a1.93,1.93,0,0,0,1.87,1.42H58.48a1.93,1.93,0,0,0,1.93-1.94v-14a29.27,29.27,0,0,0,8.85-9.94l9.09-2.3a1.94,1.94,0,0,0,1.45-1.88V45.72a1.94,1.94,0,0,0-1.45-1.88L69.8,41.69a28.38,28.38,0,0,0-9-10.78l1.54-10.12a1.93,1.93,0,0,0-1.64-2.2,2,2,0,0,0-.42,0h0a1.78,1.78,0,0,0-.72.18l-12,6a42.67,42.67,0,0,0-10.42-1.31"/></g></g></svg>