<?xml version="1.0" encoding="utf-8"?>
<!-- Generator: Adobe Illustrator 22.1.0, SVG Export Plug-In . SVG Version: 6.00 Build 0)  -->
<svg version="1.1" xmlns="http://www.w3.org/2000/svg" xmlns:xlink="http://www.w3.org/1999/xlink" x="0px" y="0px"
	 viewBox="0 0 250 250" style="enable-background:new 0 0 250 250;" xml:space="preserve">
<style type="text/css">
	.st0{fill:#FFFFFF;stroke:#FFFFFF;stroke-width:16;stroke-miterlimit:10;}
	.st1{fill:url(#SVGID_1_);}
	.st2{fill:url(#SVGID_2_);}
	.st3{fill:none;stroke:url(#SVGID_3_);stroke-width:8;stroke-linecap:round;stroke-linejoin:round;stroke-miterlimit:10;}
	.st4{fill:none;stroke:url(#SVGID_4_);stroke-width:8;stroke-linecap:round;stroke-miterlimit:10;}
</style>
<g id="White">
	<g>
		<circle class="st0" cx="61.3" cy="34.3" r="21.8"/>
	</g>
	<g>
		<circle class="st0" cx="186.4" cy="99.8" r="19"/>
	</g>
	<path class="st0" d="M70.6,241.5c-3.7,0-7.1-1.5-9.6-4c-2.5,2.5-5.9,4-9.6,4c-7.5,0-13.6-6.1-13.6-13.6l0-3.6l0-52.9H20.8
		c-1.2,0-2.4-0.6-3.2-1.6c-0.8-1-1-2.3-0.7-3.5l6.8-24.7c-1.7,0.2-3.4,0.1-5.1-0.4c-3.3-0.9-6.1-3.1-7.8-6.1c-1.7-3-2.1-6.5-1.2-9.8
		L23.9,78c1.2-4.3,6.5-18.3,22.5-18.3H61c0,0,0,0,0,0h14.7c16,0,21.3,14,22.5,18.3l14.1,47.2c0.9,3.4,0.5,6.9-1.2,9.9
		c-1.7,3-4.5,5.2-7.8,6.1c-1.7,0.5-3.4,0.6-5.1,0.4l6.8,24.7c0.3,1.2,0.1,2.5-0.7,3.5c-0.8,1-1.9,1.6-3.2,1.6H84.2l0,52.9l0,3.6
		C84.2,235.4,78.1,241.5,70.6,241.5z"/>
	<path class="st0" d="M197.3,241.5c-4.4,0-8.4-1.9-11.2-4.9c-2.8,3-6.8,4.9-11.2,4.9c-8.3,0-15.1-6.8-15.1-15.1v-71.9l-10.4,6
		c-2.9,1.7-6.2,2.1-9.4,1.2c-3.2-0.9-5.9-2.9-7.5-5.8c-3.4-5.9-1.4-13.5,4.5-16.9l20.3-13c4.2-2.7,9.1-4.1,14.1-4.1c0,0,0,0,0,0
		c4.2,0,25.3,0,29.5,0c0,0,0,0,0,0c5,0,9.8,1.4,14,4.1l20.3,13c2.8,1.7,4.8,4.3,5.7,7.5c0.9,3.2,0.4,6.6-1.2,9.4
		c-1.7,2.9-4.3,4.9-7.5,5.8c-3.2,0.9-6.6,0.4-9.4-1.2l-10.4-6v71.9C212.5,234.7,205.7,241.5,197.3,241.5z M182.2,226.4L182.2,226.4
		L182.2,226.4z M206.7,151.1C206.7,151.1,206.7,151.1,206.7,151.1L206.7,151.1z M165.7,151.1L165.7,151.1
		C165.7,151.1,165.7,151.1,165.7,151.1z"/>
</g>
<g id="Orange">
	<g>
		<linearGradient id="SVGID_1_" gradientUnits="userSpaceOnUse" x1="45.8944" y1="18.8891" x2="76.6535" y2="49.6483">
			<stop  offset="0" style="stop-color:#FFEE25"/>
			<stop  offset="0.3707" style="stop-color:#F08F34"/>
			<stop  offset="1" style="stop-color:#E2312D"/>
		</linearGradient>
		<circle class="st1" cx="61.3" cy="34.3" r="21.8"/>
	</g>
	<g>
		<linearGradient id="SVGID_2_" gradientUnits="userSpaceOnUse" x1="172.9832" y1="86.3856" x2="199.8533" y2="113.2557">
			<stop  offset="0" style="stop-color:#FFEE25"/>
			<stop  offset="0.3707" style="stop-color:#F08F34"/>
			<stop  offset="1" style="stop-color:#E2312D"/>
		</linearGradient>
		<circle class="st2" cx="186.4" cy="99.8" r="19"/>
	</g>
</g>
<g id="Blue_1_">
	<linearGradient id="SVGID_3_" gradientUnits="userSpaceOnUse" x1="5.752" y1="90.9393" x2="116.2895" y2="201.4768">
		<stop  offset="0" style="stop-color:#00ADE6"/>
		<stop  offset="5.543736e-02" style="stop-color:#00A3DE"/>
		<stop  offset="0.25" style="stop-color:#0083C5"/>
		<stop  offset="0.3579" style="stop-color:#0077BC"/>
		<stop  offset="0.7261" style="stop-color:#353579"/>
		<stop  offset="0.9658" style="stop-color:#1D1A55"/>
	</linearGradient>
	<path class="st3" d="M30.8,131.2c-1.3,4.8-6.3,7.5-11,6.2c-4.8-1.3-7.5-6.3-6.2-11l14.1-47.3c1.6-5.6,6.5-15.4,18.6-15.4H61
		 M30.4,132.7l9.9-35.9l-19.6,70.6h21l0,56.9l0,3.6c0,5.3,4.3,9.6,9.6,9.6s9.6-4.3,9.6-9.6V162 M91.3,131.2c1.3,4.8,6.3,7.5,11,6.2
		c4.8-1.3,7.5-6.3,6.2-11L94.4,79.1c-1.6-5.6-6.5-15.4-18.6-15.4H61 M61,227.9c0,5.3,4.3,9.6,9.6,9.6c5.3,0,9.6-4.3,9.6-9.6l0-3.6
		l0-56.9h21L81.7,96.8l9.9,35.9"/>
	<linearGradient id="SVGID_4_" gradientUnits="userSpaceOnUse" x1="143.7748" y1="131.7555" x2="228.5585" y2="216.5392">
		<stop  offset="0" style="stop-color:#00ADE6"/>
		<stop  offset="5.543736e-02" style="stop-color:#00A3DE"/>
		<stop  offset="0.25" style="stop-color:#0083C5"/>
		<stop  offset="0.3579" style="stop-color:#0077BC"/>
		<stop  offset="0.7261" style="stop-color:#353579"/>
		<stop  offset="0.9658" style="stop-color:#1D1A55"/>
	</linearGradient>
	<path class="st4" d="M186.2,193.7c0,12.2,0,32.7,0,32.7c0,6.1-5,11.1-11.1,11.1c-6.1,0-11.1-5-11.1-11.1l0-32.8v-45.7
		c0-0.1-0.1-0.2-0.2-0.1l-16.1,9.4c-4,2.3-9.2,0.9-11.5-3.1c-2.3-4-0.9-9.2,3.1-11.5l20.4-13.1c3.6-2.3,7.7-3.5,11.9-3.5
		c4.2,0,25.3,0,29.5,0c4.2,0,8.3,1.2,11.9,3.5l20.4,13.1c4,2.3,5.4,7.5,3.1,11.5c-2.3,4-7.5,5.4-11.5,3.1l-16.1-9.4
		c-0.1-0.1-0.2,0-0.2,0.1v45.7l0,32.8c0,6.1-5,11.1-11.1,11.1c-6.1,0-11.1-5-11.1-11.1C186.2,226.4,186.2,205.8,186.2,193.7"/>
</g>
</svg>
