<svg id="Layer_1" data-name="Layer 1" xmlns="http://www.w3.org/2000/svg" xmlns:xlink="http://www.w3.org/1999/xlink" viewBox="0 0 113.39 113.39"><defs><style>.cls-1{fill:url(#linear-gradient);}.cls-2{fill:url(#New_Gradient_Swatch_copy_5);}.cls-3{fill:url(#linear-gradient-2);}.cls-4{fill:url(#New_Gradient_Swatch_2);}.cls-5{fill:url(#New_Gradient_Swatch_2-2);}.cls-6{fill:url(#New_Gradient_Swatch_2-3);}.cls-7,.cls-8,.cls-9{fill:none;stroke-linecap:round;stroke-miterlimit:10;stroke-width:1.82px;}.cls-7{stroke:url(#linear-gradient-3);}.cls-8{stroke:url(#linear-gradient-4);}.cls-9{stroke:url(#linear-gradient-5);}.cls-10{fill:url(#linear-gradient-6);}</style><linearGradient id="linear-gradient" x1="11.69" y1="55.05" x2="101.69" y2="55.05" gradientUnits="userSpaceOnUse"><stop offset="0" stop-color="#1d9ad7"/><stop offset="0.48" stop-color="#1366af"/><stop offset="1" stop-color="#423f92"/></linearGradient><linearGradient id="New_Gradient_Swatch_copy_5" x1="27.99" y1="76.33" x2="60.74" y2="43.58" gradientUnits="userSpaceOnUse"><stop offset="0" stop-color="#1d9ad7"/><stop offset="0.5" stop-color="#1366af"/><stop offset="1" stop-color="#423f92"/></linearGradient><linearGradient id="linear-gradient-2" x1="1276.87" y1="-1133.53" x2="1283.6" y2="-1140.26" gradientTransform="translate(1178.8 1340.18) rotate(-90)" gradientUnits="userSpaceOnUse"><stop offset="0" stop-color="#f7a834"/><stop offset="0.18" stop-color="#f59a33"/><stop offset="0.53" stop-color="#f07632"/><stop offset="0.99" stop-color="#e73b30"/><stop offset="1" stop-color="#e73a30"/></linearGradient><linearGradient id="New_Gradient_Swatch_2" x1="74.71" y1="50.49" x2="74.71" y2="53.33" gradientUnits="userSpaceOnUse"><stop offset="0" stop-color="#1d9ad7"/><stop offset="0.03" stop-color="#1b92d1"/><stop offset="0.14" stop-color="#1572b8"/><stop offset="0.2" stop-color="#1366af"/><stop offset="0.49" stop-color="#423f92"/><stop offset="0.74" stop-color="#404294"/><stop offset="1" stop-color="#0d69b1"/></linearGradient><linearGradient id="New_Gradient_Swatch_2-2" x1="73.29" y1="59.85" x2="76.13" y2="59.85" xlink:href="#New_Gradient_Swatch_2"/><linearGradient id="New_Gradient_Swatch_2-3" x1="73.29" y1="67.99" x2="76.13" y2="67.99" xlink:href="#New_Gradient_Swatch_2"/><linearGradient id="linear-gradient-3" x1="78.34" y1="51.91" x2="91.81" y2="51.91" gradientUnits="userSpaceOnUse"><stop offset="0" stop-color="#1d9ad7"/><stop offset="0.03" stop-color="#1b92d1"/><stop offset="0.14" stop-color="#1572b8"/><stop offset="0.2" stop-color="#1366af"/><stop offset="0.49" stop-color="#423f92"/><stop offset="0.74" stop-color="#404294"/></linearGradient><linearGradient id="linear-gradient-4" x1="78.34" y1="59.85" x2="91.81" y2="59.85" xlink:href="#linear-gradient-3"/><linearGradient id="linear-gradient-5" x1="78.34" y1="67.99" x2="91.81" y2="67.99" xlink:href="#linear-gradient-3"/><linearGradient id="linear-gradient-6" x1="86.13" y1="71.58" x2="86.13" y2="95.17" gradientTransform="matrix(1, 0, 0, 1, 0, 0)" xlink:href="#linear-gradient-2"/></defs><title>online-classes</title><path class="cls-1" d="M96.74,18.21H16.65a5,5,0,0,0-5,5V86.92a5,5,0,0,0,5,5H96.74a5,5,0,0,0,5-5V23.17A5,5,0,0,0,96.74,18.21Zm.48,13.38h-81m0,0V23.17a.48.48,0,0,1,.48-.48H96.74a.48.48,0,0,1,.48.48v8.42m-81,4.48h81V86.92a.48.48,0,0,1-.48.48H16.65a.48.48,0,0,1-.48-.48V36.07"/><path class="cls-2" d="M64.71,71.58H24a1.88,1.88,0,0,1-1.87-1.87V50.2A1.88,1.88,0,0,1,24,48.33H64.71a1.88,1.88,0,0,1,1.87,1.87V69.7A1.88,1.88,0,0,1,64.71,71.58Zm-39.58-3H63.6V51.31H25.13Z"/><polygon class="cls-3" points="40.1 59.95 40.1 55.03 44.37 57.49 48.63 59.95 44.37 62.41 40.1 64.88 40.1 59.95"/><circle class="cls-4" cx="74.71" cy="51.91" r="1.42"/><circle class="cls-5" cx="74.71" cy="59.85" r="1.42"/><circle class="cls-6" cx="74.71" cy="67.99" r="1.42"/><line class="cls-7" x1="79.25" y1="51.91" x2="90.9" y2="51.91"/><line class="cls-8" x1="79.25" y1="59.85" x2="90.9" y2="59.85"/><line class="cls-9" x1="79.25" y1="67.99" x2="90.9" y2="67.99"/><path class="cls-10" d="M97.42,80,75.36,71.63a.76.76,0,0,0-1,1l8.43,22a.78.78,0,0,0,1.48,0l2-7.55L92,92.73a2.5,2.5,0,0,0,3.54-3.54l-5.69-5.69,7.55-2A.78.78,0,0,0,97.42,80Z"/></svg>