<svg xmlns="http://www.w3.org/2000/svg" xmlns:xlink="http://www.w3.org/1999/xlink" viewBox="0 0 113.4 53.44"><defs><style>.cls-1{fill:url(#linear-gradient);}.cls-2{fill:url(#linear-gradient-2);}</style><linearGradient id="linear-gradient" x1="28.04" y1="8.43" x2="28.04" y2="25.53" gradientUnits="userSpaceOnUse"><stop offset="0" stop-color="#f6a734"/><stop offset="0.18" stop-color="#f49933"/><stop offset="0.53" stop-color="#ef7532"/><stop offset="1" stop-color="#e73a2f"/></linearGradient><linearGradient id="linear-gradient-2" x1="7.5" y1="58.65" x2="88.23" y2="-22.08" gradientUnits="userSpaceOnUse"><stop offset="0" stop-color="#1c9bd8"/><stop offset="0.48" stop-color="#0c65af"/><stop offset="1" stop-color="#423e92"/></linearGradient></defs><title>personal_info_2</title><g id="Layer_2" data-name="Layer 2"><g id="Layer_1-2" data-name="Layer 1"><circle class="cls-1" cx="28.04" cy="16.98" r="8.55"/><path class="cls-2" d="M38.14,27.34H17.94A8.65,8.65,0,0,0,9.29,36v6.53a2.91,2.91,0,0,0,2.92,2.91H43.88a2.91,2.91,0,0,0,2.91-2.91V36A8.65,8.65,0,0,0,38.14,27.34ZM40,41.21V38.69a2.25,2.25,0,0,0-4.5,0v2.52H20.39V38.69a2.25,2.25,0,0,0-4.5,0v2.52h-2.2V36a4.2,4.2,0,0,1,4.15-4.15h20.4A4.2,4.2,0,0,1,42.39,36v5.22ZM52.32,53.44H3.76a3.92,3.92,0,0,1-3.76-4V4A3.91,3.91,0,0,1,3.76,0H52.32a3.91,3.91,0,0,1,3.76,4V49.39A3.92,3.92,0,0,1,52.32,53.44ZM4.22,49.21H51.85v-45H4.23Zm48.1-45h0Zm58,11.71H62.68a3.07,3.07,0,0,1-3.07-3.06V4.35a3.07,3.07,0,0,1,3.07-3.06h47.65a3.07,3.07,0,0,1,3.07,3.06v8.52A3.07,3.07,0,0,1,110.33,15.93ZM64.09,11.46h44.83V5.77H64.09Zm39.57,14H61.85a2.11,2.11,0,0,1,0-4.22h41.81a2.11,2.11,0,1,1,0,4.22Zm-10.33,9H61.85a2.12,2.12,0,0,1,0-4.23H93.33a2.12,2.12,0,0,1,0,4.23Z"/></g></g></svg>