<svg xmlns="http://www.w3.org/2000/svg" xmlns:xlink="http://www.w3.org/1999/xlink" viewBox="0 0 45.98 77.42"><defs><style>.cls-1,.cls-14,.cls-2,.cls-3{fill:none;stroke-linecap:round;stroke-miterlimit:10;stroke-width:4px;}.cls-1{stroke:url(#linear-gradient);}.cls-2{stroke:url(#linear-gradient-2);}.cls-3{stroke:url(#linear-gradient-3);}.cls-4{fill:url(#linear-gradient-4);}.cls-5{fill:url(#linear-gradient-5);}.cls-6{fill:url(#linear-gradient-6);}.cls-7{fill:url(#linear-gradient-7);}.cls-8{fill:url(#linear-gradient-8);}.cls-9{fill:url(#linear-gradient-9);}.cls-10{fill:url(#linear-gradient-10);}.cls-11{fill:url(#linear-gradient-11);}.cls-12{fill:url(#linear-gradient-12);}.cls-13{fill:url(#linear-gradient-13);}.cls-14{stroke:url(#linear-gradient-14);}</style><linearGradient id="linear-gradient" x1="0.43" y1="59.48" x2="45.98" y2="59.48" gradientUnits="userSpaceOnUse"><stop offset="0" stop-color="#1c9bd8"/><stop offset="0.48" stop-color="#0c65af"/></linearGradient><linearGradient id="linear-gradient-2" x1="11.41" y1="23.79" x2="35.01" y2="0.19" gradientUnits="userSpaceOnUse"><stop offset="0" stop-color="#1c9bd8"/><stop offset="0.48" stop-color="#0c65af"/><stop offset="1" stop-color="#423e92"/></linearGradient><linearGradient id="linear-gradient-3" x1="-6.75" y1="68.45" x2="52.73" y2="8.97" xlink:href="#linear-gradient-2"/><linearGradient id="linear-gradient-4" x1="20.46" y1="64.38" x2="25.95" y2="69.87" gradientTransform="translate(-43.92 90.33) rotate(-90)" xlink:href="#linear-gradient"/><linearGradient id="linear-gradient-5" x1="22.93" y1="28.75" x2="22.93" y2="38.01" gradientUnits="userSpaceOnUse"><stop offset="0" stop-color="#ee6f31"/><stop offset="0.26" stop-color="#ed6731"/><stop offset="0.68" stop-color="#ea5030"/><stop offset="1" stop-color="#e73a2f"/></linearGradient><linearGradient id="linear-gradient-6" x1="11.85" y1="17.29" x2="11.85" y2="26.55" gradientUnits="userSpaceOnUse"><stop offset="0" stop-color="#f6a734"/><stop offset="1" stop-color="#ee7031"/></linearGradient><linearGradient id="linear-gradient-7" x1="22.93" y1="17.29" x2="22.93" y2="26.55" xlink:href="#linear-gradient-6"/><linearGradient id="linear-gradient-8" x1="34.04" y1="17.29" x2="34.04" y2="26.55" xlink:href="#linear-gradient-6"/><linearGradient id="linear-gradient-9" x1="11.85" y1="28.75" x2="11.85" y2="38.01" xlink:href="#linear-gradient-5"/><linearGradient id="linear-gradient-10" x1="34.04" y1="28.75" x2="34.04" y2="38.01" xlink:href="#linear-gradient-5"/><linearGradient id="linear-gradient-11" x1="11.85" y1="39.94" x2="11.85" y2="49.2" gradientUnits="userSpaceOnUse"><stop offset="0" stop-color="#ea5030"/><stop offset="1" stop-color="#e73a2f"/></linearGradient><linearGradient id="linear-gradient-12" x1="22.93" y1="39.94" x2="22.93" y2="49.2" xlink:href="#linear-gradient-11"/><linearGradient id="linear-gradient-13" x1="34.04" y1="39.94" x2="34.04" y2="49.2" xlink:href="#linear-gradient-11"/><linearGradient id="linear-gradient-14" x1="17.32" y1="7.01" x2="29.09" y2="7.01" xlink:href="#linear-gradient-2"/></defs><title>phone</title><g id="Layer_2" data-name="Layer 2"><g id="Layer_1-2" data-name="Layer 1"><line class="cls-1" x1="2.43" y1="59.48" x2="43.98" y2="59.48"/><line class="cls-2" x1="2.43" y1="11.99" x2="43.98" y2="11.99"/><path class="cls-3" d="M23.19,2H42.65C43.38,2,44,3.33,44,5V72.45c0,1.64-.6,3-1.33,3H3.33c-.73,0-1.33-1.33-1.33-3V5c0-1.64.6-3,1.33-3H23.19"/><circle class="cls-4" cx="23.21" cy="67.12" r="3.89"/><rect class="cls-5" x="18.3" y="28.75" width="9.26" height="9.26" rx="1.7" ry="1.7"/><rect class="cls-6" x="7.21" y="17.29" width="9.26" height="9.26" rx="1.7" ry="1.7"/><rect class="cls-7" x="18.3" y="17.29" width="9.26" height="9.26" rx="1.7" ry="1.7"/><rect class="cls-8" x="29.41" y="17.29" width="9.27" height="9.26" rx="1.7" ry="1.7"/><rect class="cls-9" x="7.21" y="28.75" width="9.26" height="9.26" rx="1.7" ry="1.7"/><rect class="cls-10" x="29.41" y="28.75" width="9.27" height="9.26" rx="1.7" ry="1.7"/><rect class="cls-11" x="7.21" y="39.94" width="9.26" height="9.26" rx="1.7" ry="1.7"/><rect class="cls-12" x="18.3" y="39.94" width="9.26" height="9.26" rx="1.7" ry="1.7"/><rect class="cls-13" x="29.41" y="39.94" width="9.27" height="9.26" rx="1.7" ry="1.7"/><line class="cls-14" x1="19.32" y1="7.01" x2="27.09" y2="7.01"/></g></g></svg>