<?xml version="1.0" encoding="utf-8"?>
<!-- Generator: Adobe Illustrator 22.1.0, SVG Export Plug-In . SVG Version: 6.00 Build 0)  -->
<svg version="1.1" xmlns="http://www.w3.org/2000/svg" xmlns:xlink="http://www.w3.org/1999/xlink" x="0px" y="0px"
	 viewBox="0 0 250 250" style="enable-background:new 0 0 250 250;" xml:space="preserve">
<style type="text/css">
	.st0{fill:#FFFFFF;stroke:#FFFFFF;stroke-width:16;stroke-miterlimit:10;}
	.st1{fill:url(#SVGID_1_);}
	.st2{fill:url(#SVGID_2_);}
	.st3{fill:url(#SVGID_3_);}
	.st4{fill:url(#SVGID_4_);}
	.st5{fill:none;stroke:url(#SVGID_5_);stroke-width:8;stroke-linecap:round;stroke-linejoin:round;stroke-miterlimit:10;}
</style>
<g id="White">
	<path class="st0" d="M208.4,98c-14.4-0.4-37.5-1-44.9-1.2l-9.8-18.2h6.6c6.4,0,11.5-5.1,11.5-11.5c0-6.4-5.1-11.5-11.5-11.5h-19
		L137,48h5.5c5.5,0,10-4.5,10-10c0-5.5-4.5-10-10-10h-16.3l-5.6-10.4c-0.7-1.3-2-2.1-3.5-2.1H91.5c-1.2,0-2.4,0.6-3.2,1.5
		c-1.6,2-1.9,2.3,7.7,45.8c3.3,14.8,6.6,29.8,8.2,37l-39,3.1l-23.4-37c-0.7-1.2-2-1.9-3.4-1.9l-24.9,0.3c-1.2,0-2.3,0.5-3,1.4
		s-1.1,2.1-0.9,3.2l7.7,45.7c-5.9,3.8-8.8,7.3-8.8,10.4v0c0,3.1,3,6.6,8.8,10.4l-7.7,45.7c-0.2,1.2,0.1,2.3,0.9,3.2s1.9,1.4,3,1.4
		l24.9,0.3c1.4,0,2.7-0.7,3.4-1.9l23.4-37l39,3.1c-1.6,7.2-5,22.1-8.2,37c-9.5,43.5-9.3,43.8-7.7,45.8c0.8,1,1.9,1.5,3.2,1.5h25.6
		c1.5,0,2.8-0.8,3.5-2.1l5.6-10.4h16.3c5.5,0,10-4.5,10-10c0-5.5-4.5-10-10-10H137l4.1-7.7h19c6.4,0,11.5-5.1,11.5-11.5
		s-5.1-11.5-11.5-11.5h-6.6l9.8-18.2c7.4-0.2,30.5-0.8,44.9-1.2c22.4-0.7,33-16.5,33.1-27C241.4,114.5,230.8,98.7,208.4,98z"/>
</g>
<g id="Orange">
	<linearGradient id="SVGID_1_" gradientUnits="userSpaceOnUse" x1="144.1386" y1="176.1907" x2="163.6426" y2="195.6947">
		<stop  offset="0" style="stop-color:#FFEE25"/>
		<stop  offset="0.3707" style="stop-color:#F08F34"/>
		<stop  offset="1" style="stop-color:#E2312D"/>
	</linearGradient>
	<path class="st1" d="M149,171.3h11.2c6.4,0,11.5,5.1,11.5,11.5s-5.1,11.5-11.5,11.5h-23.7L149,171.3z"/>
	<linearGradient id="SVGID_2_" gradientUnits="userSpaceOnUse" x1="128.3447" y1="206.154" x2="145.4442" y2="223.2536">
		<stop  offset="0" style="stop-color:#FFEE25"/>
		<stop  offset="0.3707" style="stop-color:#F08F34"/>
		<stop  offset="1" style="stop-color:#E2312D"/>
	</linearGradient>
	<path class="st2" d="M132.5,202h10.1c5.5,0,10,4.5,10,10s-4.5,10-10,10h-20.9L132.5,202z"/>
	
		<linearGradient id="SVGID_3_" gradientUnits="userSpaceOnUse" x1="141.0292" y1="198.8041" x2="166.752" y2="173.0813" gradientTransform="matrix(1 0 0 -1 0 250)">
		<stop  offset="0" style="stop-color:#FFEE25"/>
		<stop  offset="0.3707" style="stop-color:#F08F34"/>
		<stop  offset="1" style="stop-color:#E2312D"/>
	</linearGradient>
	<path class="st3" d="M149,78.7h11.2c6.4,0,11.5-5.1,11.5-11.5s-5.1-11.5-11.5-11.5h-23.7L149,78.7z"/>
	
		<linearGradient id="SVGID_4_" gradientUnits="userSpaceOnUse" x1="125.6409" y1="225.9574" x2="148.148" y2="203.4502" gradientTransform="matrix(1 0 0 -1 0 250)">
		<stop  offset="0" style="stop-color:#FFEE25"/>
		<stop  offset="0.3707" style="stop-color:#F08F34"/>
		<stop  offset="1" style="stop-color:#E2312D"/>
	</linearGradient>
	<path class="st4" d="M132.5,48h10.1c5.5,0,10-4.5,10-10s-4.5-10-10-10h-20.9L132.5,48z"/>
</g>
<g id="Blue_1_">
	
		<linearGradient id="SVGID_5_" gradientUnits="userSpaceOnUse" x1="309.4521" y1="493.2201" x2="459.0817" y2="343.5906" gradientTransform="matrix(0 1 -1 0 519.2669 -259.2669)">
		<stop  offset="0" style="stop-color:#00ADE6"/>
		<stop  offset="5.543736e-02" style="stop-color:#00A3DE"/>
		<stop  offset="0.25" style="stop-color:#0083C5"/>
		<stop  offset="0.3579" style="stop-color:#0077BC"/>
		<stop  offset="0.7261" style="stop-color:#353579"/>
		<stop  offset="0.9658" style="stop-color:#1D1A55"/>
	</linearGradient>
	<path class="st5" d="M12.5,125c0-3,9.2-8.4,9.2-8.4l-8.1-48.3L38.6,68l24.6,39.1l46-3.6c0,0-19.1-83.9-17.7-83.9h25.6l44,81.3
		c0,0,29.8,0.7,47.2,1.2c20.6,0.6,29.2,14.9,29.3,23c-0.1,8.1-8.7,22.4-29.3,23c-17.4,0.5-47.2,1.2-47.2,1.2l-44,81.3H91.5
		c-1.4,0,17.7-83.9,17.7-83.9l-46-3.6L38.6,182l-24.9-0.3l8.1-48.3C21.7,133.4,12.5,128,12.5,125L12.5,125z"/>
</g>
</svg>
