<svg xmlns="http://www.w3.org/2000/svg" xmlns:xlink="http://www.w3.org/1999/xlink" viewBox="0 0 82.07 87.05"><defs><style>.cls-1{fill:url(#linear-gradient);}.cls-2{fill:url(#linear-gradient-2);}.cls-3{fill:url(#linear-gradient-3);}.cls-4{fill:url(#linear-gradient-4);}.cls-5{fill:none;stroke-linecap:round;stroke-miterlimit:10;stroke-width:4.48px;stroke:url(#linear-gradient-5);}</style><linearGradient id="linear-gradient" x1="18.11" y1="27.18" x2="18.11" y2="39.24" gradientUnits="userSpaceOnUse"><stop offset="0" stop-color="#f6a734"/><stop offset="0.18" stop-color="#f49933"/><stop offset="0.53" stop-color="#ef7532"/><stop offset="1" stop-color="#e73a2f"/></linearGradient><linearGradient id="linear-gradient-2" x1="7.76" y1="33.91" x2="7.76" y2="45.24" xlink:href="#linear-gradient"/><linearGradient id="linear-gradient-3" x1="63.96" y1="27.18" x2="63.96" y2="39.24" xlink:href="#linear-gradient"/><linearGradient id="linear-gradient-4" x1="74.31" y1="33.91" x2="74.31" y2="45.24" xlink:href="#linear-gradient"/><linearGradient id="linear-gradient-5" x1="13.38" y1="79.45" x2="68.69" y2="24.15" gradientUnits="userSpaceOnUse"><stop offset="0" stop-color="#1c9bd8"/><stop offset="0.48" stop-color="#0c65af"/><stop offset="1" stop-color="#423e92"/></linearGradient></defs><title>planes</title><g id="Layer_2" data-name="Layer 2"><g id="Layer_1-2" data-name="Layer 1"><path class="cls-1" d="M18.11,38.88c-2.35,0-4.26,1.27-4.26-.93V31.18a4.14,4.14,0,0,1,4.26-4,4.14,4.14,0,0,1,4.27,4v6C19.16,37.49,20.46,38.88,18.11,38.88Z"/><path class="cls-2" d="M7.76,45.24c-2,0-3.68-.22-3.68-2.24V37.59a3.69,3.69,0,0,1,7.37,0V43C8,44.43,9.79,45.24,7.76,45.24Z"/><path class="cls-3" d="M64,38.88c2.36,0,4.27,1.27,4.27-.93V31.18a4.27,4.27,0,0,0-8.53,0v6C62.91,37.49,61.61,38.88,64,38.88Z"/><path class="cls-4" d="M74.31,45.24c2,0,3.69-.22,3.69-2.24V37.59a3.69,3.69,0,0,0-7.38,0V43C74,44.43,72.28,45.24,74.31,45.24Z"/><path class="cls-5" d="M41,84.81a1.76,1.76,0,0,1-1.47-.8l-1.63-2.58L22.15,84a1.73,1.73,0,0,1-2-1.69l-.05-6.26a1.71,1.71,0,0,1,.8-1.47l13.57-8.4L33.11,49.32,4.29,55.4A1.78,1.78,0,0,1,2.86,55a1.74,1.74,0,0,1-.62-1.33V47.24a1.71,1.71,0,0,1,.92-1.52l29-15.42c.11-3.06.45-12.44.45-17.32,0-7,5.49-10.71,8.44-10.74S49.49,6,49.49,13c0,4.88.34,14.26.45,17.32l29,15.42a1.72,1.72,0,0,1,.92,1.52V53.7a1.73,1.73,0,0,1-2,1.7L49,49.32,47.62,66.2l13.57,8.4a1.69,1.69,0,0,1,.8,1.47l-.05,6.26a1.73,1.73,0,0,1-.62,1.31,1.66,1.66,0,0,1-1.4.38L44.13,81.43,42.5,84A1.74,1.74,0,0,1,41,84.81Z"/></g></g></svg>