<svg id="Layer_1" data-name="Layer 1" xmlns="http://www.w3.org/2000/svg" xmlns:xlink="http://www.w3.org/1999/xlink" viewBox="0 0 113.39 113.39"><defs><style>.cls-1{fill:url(#linear-gradient);}.cls-2{fill:url(#New_Gradient_Swatch_copy);}</style><linearGradient id="linear-gradient" x1="14.01" y1="56.69" x2="99.37" y2="56.69" gradientUnits="userSpaceOnUse"><stop offset="0" stop-color="#1d9ad7"/><stop offset="0.48" stop-color="#1366af"/><stop offset="1" stop-color="#423f92"/></linearGradient><linearGradient id="New_Gradient_Swatch_copy" x1="58.4" y1="37.42" x2="58.4" y2="67.85" gradientUnits="userSpaceOnUse"><stop offset="0" stop-color="#f7a834"/><stop offset="1" stop-color="#e73a30"/></linearGradient></defs><title>price</title><path class="cls-1" d="M51,99.9a6.14,6.14,0,0,1-4.25-1.69h0L15.93,68.91a6.18,6.18,0,0,1-.22-8.72L57.86,15.5a6.21,6.21,0,0,1,4.46-1.92l30.28-.09h0a6.2,6.2,0,0,1,6.17,6l.59,29.35a6.13,6.13,0,0,1-1.7,4.37L55.48,98A6.17,6.17,0,0,1,51,99.9ZM49.84,95a1.69,1.69,0,0,0,2.39-.06L94.42,50.17A1.69,1.69,0,0,0,94.89,49L94.3,19.62A1.7,1.7,0,0,0,92.61,18h0l-30.28.09a1.7,1.7,0,0,0-1.22.53L19,63.26a1.7,1.7,0,0,0,.05,2.4ZM88.89,26.32a3.53,3.53,0,1,1-3.62-3.44A3.53,3.53,0,0,1,88.89,26.32Z"/><path class="cls-2" d="M66.85,63.47H54.63a11,11,0,0,0,2-8.2h5.7a2.19,2.19,0,0,0,0-4.38h-7l-.12-.3c-1.28-3.26-1.81-4.93.12-7.31a3.56,3.56,0,0,1,2.56-1.48c2.19-.18,4.76,1.64,5.56,2.36a2.19,2.19,0,0,0,2.93-3.25c-.43-.39-4.36-3.82-8.82-3.48a8,8,0,0,0-5.63,3.09c-3.15,3.88-2.38,7.4-1.3,10.37h-.7a2.19,2.19,0,0,0,0,4.38h2.24c.54,2.37.17,4.72-3,7.9a2.77,2.77,0,0,0-.59,3,2.71,2.71,0,0,0,2.51,1.66H66.85a2.19,2.19,0,1,0,0-4.38Z"/></svg>