<svg xmlns="http://www.w3.org/2000/svg" xmlns:xlink="http://www.w3.org/1999/xlink" viewBox="0 0 78.3 78.3"><defs><style>.cls-1{fill:#be1622;}.cls-2{fill:url(#linear-gradient);}.cls-3{fill:none;stroke-linecap:round;stroke-miterlimit:10;stroke-width:4.3px;stroke:url(#New_Gradient_Swatch_copy);}</style><linearGradient id="linear-gradient" x1="12.01" y1="66.24" x2="66.28" y2="11.97" gradientUnits="userSpaceOnUse"><stop offset="0" stop-color="#1c9bd8"/><stop offset="0.48" stop-color="#0c65af"/><stop offset="1" stop-color="#423e92"/></linearGradient><linearGradient id="New_Gradient_Swatch_copy" x1="39.15" x2="39.15" y2="78.3" gradientUnits="userSpaceOnUse"><stop offset="0" stop-color="#f6a734"/><stop offset="1" stop-color="#e73a2f"/></linearGradient></defs><title>public_2</title><g id="Layer_2" data-name="Layer 2"><g id="Layer_1-2" data-name="Layer 1"><path class="cls-1" d="M.43,38.42s0,.06,0,.09v-.22S.43,38.38.43,38.42Z"/><path class="cls-2" d="M75.68,36.63H61.36A39.76,39.76,0,0,0,58,24.14a72.85,72.85,0,0,0,9.69-4.09c1.24-.64,2.49-1.32,3.73-2a36.82,36.82,0,0,0-2.53-3.42c-1.28.72-2.56,1.41-3.83,2a67.38,67.38,0,0,1-8.94,3.7,71.58,71.58,0,0,0-11.35-15C43.46,4,42.08,2.57,40.59,1.2a.48.48,0,0,0-.11-.09A1.33,1.33,0,0,0,40.29,1l-.18-.1L39.92.78a1.17,1.17,0,0,0-.2-.06l-.19,0a2,2,0,0,0-.24,0h-.18l-.24,0h0l-.15,0,.14,0-.12,0h-.48a2.17,2.17,0,0,0-1.1.5c-1.67,1.45-3.23,2.91-4.7,4.37A64.57,64.57,0,0,0,21.19,20.08a67.6,67.6,0,0,1-8-3.41c-1.27-.63-2.55-1.32-3.82-2.05A36.82,36.82,0,0,0,6.84,18c1.24.72,2.48,1.4,3.73,2a71.15,71.15,0,0,0,8.76,3.77,37.36,37.36,0,0,0-3.1,12.78H2.61a2.11,2.11,0,0,0-2.11,2v.22a2.11,2.11,0,0,0,2.11,2H16.24a39.12,39.12,0,0,0,3.25,12.92,74.73,74.73,0,0,0-9.21,4q-1.86,1-3.72,2a36.84,36.84,0,0,0,2.49,3.45c1.26-.73,2.52-1.43,3.78-2.07a70.73,70.73,0,0,1,8.48-3.64A71.2,71.2,0,0,0,32.75,72.83q2,2.15,4.33,4.27a2.1,2.1,0,0,0,1.21.55l.24,0,.12,0,.5,0h0a2.85,2.85,0,0,0,.4,0l.14,0a1.13,1.13,0,0,0,.24-.08l.15-.07.2-.1.15-.11a.48.48,0,0,0,.11-.09c1.62-1.4,3.13-2.81,4.56-4.23A64,64,0,0,0,56.91,57.42a64,64,0,0,1,8.61,3.72c1.26.65,2.51,1.35,3.77,2.09a38.65,38.65,0,0,0,2.48-3.45c-1.24-.73-2.47-1.42-3.71-2.07a70.11,70.11,0,0,0-9.38-4.1,36.61,36.61,0,0,0,2.8-12.75h14.2a2.12,2.12,0,0,0,2.12-2v-.08s0-.09,0-.14A2.11,2.11,0,0,0,75.68,36.63Zm-18.59,0H41.27V27.28a59,59,0,0,0,12.65-1.92A35.89,35.89,0,0,1,57.09,36.63ZM52,21.57a53.39,53.39,0,0,1-10.69,1.57V7.79A69,69,0,0,1,52,21.57ZM37.59,1.3l0,0a.76.76,0,0,0-.11.14ZM37,7V23.14a53.07,53.07,0,0,1-11.68-1.79A63.61,63.61,0,0,1,37,7ZM23.41,25.13A57.84,57.84,0,0,0,37,27.28v9.35H20.48A33.49,33.49,0,0,1,23.41,25.13Zm-2.9,15.73H37V50.3a58.43,58.43,0,0,0-13.46,2.19A35.16,35.16,0,0,1,20.51,40.86Zm4.95,15.43A53.63,53.63,0,0,1,37,54.44v16.7A69.19,69.19,0,0,1,25.46,56.29ZM41.27,70.72V54.42a52.49,52.49,0,0,1,11.5,1.74A61.8,61.8,0,0,1,41.27,70.72ZM54.61,52.35a57.38,57.38,0,0,0-13.34-2.06V40.86h16A32.78,32.78,0,0,1,54.61,52.35Z"/><circle class="cls-3" cx="39.15" cy="39.15" r="37"/></g></g></svg>