<svg xmlns="http://www.w3.org/2000/svg" xmlns:xlink="http://www.w3.org/1999/xlink" viewBox="0 0 250 250"><defs><style>.cls-1,.cls-2{fill:#fff;}.cls-1{stroke-linecap:round;stroke-linejoin:round;stroke-width:5px;stroke:url(#linear-gradient);}.cls-3{fill:url(#NEW_GRAD_3);}.cls-4{fill:url(#New_Gradient_Swatch_3);}.cls-5{fill:url(#NEW_GRAD_3-2);}.cls-6{fill:url(#New_Gradient_Swatch_3-2);}</style><linearGradient id="linear-gradient" x1="63.67" y1="124.88" x2="187" y2="124.88" gradientUnits="userSpaceOnUse"><stop offset="0" stop-color="#1f9ad7"/><stop offset="0.48" stop-color="#1867af"/><stop offset="1" stop-color="#434092"/></linearGradient><linearGradient id="NEW_GRAD_3" x1="30.73" y1="162.55" x2="74.57" y2="206.39" gradientUnits="userSpaceOnUse"><stop offset="0" stop-color="#16ade4"/><stop offset="0.05" stop-color="#14a4dd"/><stop offset="0.25" stop-color="#0d84c5"/><stop offset="0.36" stop-color="#0a78bc"/><stop offset="0.73" stop-color="#343579"/><stop offset="0.97" stop-color="#262551"/></linearGradient><linearGradient id="New_Gradient_Swatch_3" x1="44.45" y1="167.84" x2="61.12" y2="184.51" gradientUnits="userSpaceOnUse"><stop offset="0" stop-color="#feec31"/><stop offset="0.37" stop-color="#f08f33"/><stop offset="1" stop-color="#e2322e"/></linearGradient><linearGradient id="NEW_GRAD_3-2" x1="175.16" y1="34.94" x2="219" y2="78.78" xlink:href="#NEW_GRAD_3"/><linearGradient id="New_Gradient_Swatch_3-2" x1="188.88" y1="39.13" x2="205.55" y2="55.8" xlink:href="#New_Gradient_Swatch_3"/></defs><title>routes</title><g id="white"><path class="cls-1" d="M181.51,50.2a53,53,0,0,0-29.4,7.4c-19.58,11.77-31.48,36-35.38,72-2.18,20.15-8.68,33.59-19.32,40-8.75,5.24-19.32,5.25-27.53,4l-3.72,25a84.45,84.45,0,0,0,12.3.94c10.11,0,21.36-2,31.77-8.13,17.95-10.64,28.61-30.53,31.71-59.12,2.94-27.14,10.89-45.42,23-52.86a29.18,29.18,0,0,1,19.35-3.71l.21-1.28Z"/><path class="cls-2" d="M52.78,155.29a22.6,22.6,0,0,0-3.59.31A19.68,19.68,0,0,0,44.27,157c-7.57,3.37-11.49,11.2-11.49,19,0,9.17,3.9,19.34,8.29,27.88.78,1.53,1.58,3,2.38,4.4,1.91,3.38,3.8,6.39,5.4,8.79l.71,1.06.72,1.05c.78,1.12,1.62,2.27,2.29,3.17a26.84,26.84,0,0,0,2.63-3.16l.72-1.06.7-1.06c6-9.17,16.16-26.71,16.16-41.08C72.78,165.69,65.91,155.29,52.78,155.29Z"/><path class="cls-3" d="M52.78,150.73a26,26,0,0,0-3.59.25l-4.92,1.2c-9.46,3.4-15.88,12.43-15.88,23.62,0,9.54,3.79,19.89,8.18,28.69h0l2.53,5,.09,0c2.11,3.8,4.22,7.17,6,9.83l.73,1.1.75,1.09c1,1.43,2.08,2.91,2.82,3.88a3.78,3.78,0,0,0,2.77,1.5h.25a3.78,3.78,0,0,0,2.69-1.13,33.49,33.49,0,0,0,3.62-4.27l.74-1.1.72-1.09c6.31-9.59,16.89-28,16.89-43.5C77.18,161.51,66.69,150.73,52.78,150.73Zm3.77,66-.7,1.06-.72,1.06A26.84,26.84,0,0,1,52.51,222c-.67-.9-1.51-2-2.29-3.17l-.72-1.05-.71-1.06c-1.6-2.4-3.49-5.41-5.4-8.79-.8-1.41-1.59-2.87-2.38-4.4-4.39-8.55-8.29-18.72-8.29-27.88,0-7.76,3.92-15.58,11.49-19a19.68,19.68,0,0,1,4.92-1.42,22.6,22.6,0,0,1,3.59-.31c13.13,0,20,10.4,20,20.68C72.72,190,62.59,207.51,56.56,216.69Z"/><path class="cls-4" d="M64.28,176.18c0-6.67-5.16-12.09-11.49-12.09s-11.49,5.43-11.49,12.09,5.16,12.1,11.49,12.1S64.28,182.84,64.28,176.18Z"/><path class="cls-2" d="M197.22,27.68a22.6,22.6,0,0,0-3.59.31,19.68,19.68,0,0,0-4.92,1.42c-7.57,3.37-11.49,11.2-11.49,19,0,9.17,3.9,19.34,8.29,27.88.78,1.53,1.58,3,2.38,4.4,1.91,3.38,3.8,6.39,5.4,8.79l.71,1.06.72,1.05c.78,1.12,1.62,2.27,2.29,3.17a26.84,26.84,0,0,0,2.63-3.16l.72-1.06.7-1.06c6-9.17,16.16-26.71,16.16-41.08C217.21,38.08,210.34,27.68,197.22,27.68Z"/><path class="cls-5" d="M197.22,23.11a26,26,0,0,0-3.59.25l-4.92,1.2C179.25,28,172.82,37,172.82,48.19c0,9.54,3.79,19.89,8.18,28.69h0l2.53,5,.09,0c2.11,3.8,4.22,7.17,6,9.83l.73,1.1.75,1.09c1,1.43,2.08,2.91,2.82,3.88a3.78,3.78,0,0,0,2.77,1.5h.25a3.78,3.78,0,0,0,2.69-1.13,33.49,33.49,0,0,0,3.62-4.27l.74-1.1.72-1.09c6.31-9.59,16.89-28,16.89-43.5C221.61,33.89,211.12,23.11,197.22,23.11Zm3.77,66-.7,1.06-.72,1.06a26.84,26.84,0,0,1-2.63,3.16c-.67-.9-1.51-2-2.29-3.17l-.72-1.05-.71-1.06c-1.6-2.4-3.49-5.41-5.4-8.79-.8-1.41-1.59-2.87-2.38-4.4C181,67.33,177.15,57.16,177.15,48c0-7.76,3.92-15.58,11.49-19a19.68,19.68,0,0,1,4.92-1.42,22.6,22.6,0,0,1,3.59-.31c13.13,0,20,10.4,20,20.68C217.15,62.36,207,79.9,201,89.07Z"/><path class="cls-6" d="M208.71,47.46c0-6.67-5.16-12.09-11.49-12.09s-11.49,5.43-11.49,12.09,5.16,12.1,11.49,12.1S208.71,54.13,208.71,47.46Z"/></g></svg>