<?xml version="1.0" encoding="utf-8"?>
<!-- Generator: Adobe Illustrator 22.1.0, SVG Export Plug-In . SVG Version: 6.00 Build 0)  -->
<svg version="1.1" xmlns="http://www.w3.org/2000/svg" xmlns:xlink="http://www.w3.org/1999/xlink" x="0px" y="0px"
	 viewBox="0 0 250 250" style="enable-background:new 0 0 250 250;" xml:space="preserve">
<style type="text/css">
	.st0{fill:#FFFFFF;stroke:#FFFFFF;stroke-width:23;stroke-linecap:round;stroke-miterlimit:10;}
	.st1{fill:url(#SVGID_1_);}
	.st2{fill:none;stroke:url(#SVGID_2_);stroke-width:8.146;stroke-linecap:round;stroke-miterlimit:10;}
</style>
<g id="White">
	<g>
		<g>
			
				<ellipse transform="matrix(0.7071 -0.7071 0.7071 0.7071 -52.1934 125.1726)" class="st0" cx="125" cy="125.6" rx="112.3" ry="112.3"/>
		</g>
	</g>
</g>
<g id="orange">
	<g id="Orange">
	</g>
	<linearGradient id="SVGID_1_" gradientUnits="userSpaceOnUse" x1="100.5209" y1="101.5028" x2="149.4791" y2="150.461">
		<stop  offset="0" style="stop-color:#FFEE25"/>
		<stop  offset="0.3707" style="stop-color:#F08F34"/>
		<stop  offset="1" style="stop-color:#E2312D"/>
	</linearGradient>
	<circle class="st1" cx="125" cy="126" r="34.6"/>
</g>
<g id="Blue_1_">
	<linearGradient id="SVGID_2_" gradientUnits="userSpaceOnUse" x1="42.7801" y1="43.3694" x2="207.2199" y2="207.8093">
		<stop  offset="0" style="stop-color:#00ADE6"/>
		<stop  offset="5.543736e-02" style="stop-color:#00A3DE"/>
		<stop  offset="0.25" style="stop-color:#0083C5"/>
		<stop  offset="0.3579" style="stop-color:#0077BC"/>
		<stop  offset="0.7261" style="stop-color:#353579"/>
		<stop  offset="0.9658" style="stop-color:#1D1A55"/>
	</linearGradient>
	<path class="st2" d="M25.4,126c60.8-60,126.7-65.5,199.3,0v0.6c-60.8,60-126.7,65.5-199.3,0V126z M237.3,125.6
		c0,61.9-50.4,112.3-112.3,112.3S12.7,187.5,12.7,125.6C12.7,63.7,63.1,13.3,125,13.3S237.3,63.7,237.3,125.6z M204.4,46.2L45.6,205
		"/>
</g>
</svg>
