<?xml version="1.0" encoding="utf-8"?>
<!-- Generator: Adobe Illustrator 22.1.0, SVG Export Plug-In . SVG Version: 6.00 Build 0)  -->
<svg version="1.1" xmlns="http://www.w3.org/2000/svg" xmlns:xlink="http://www.w3.org/1999/xlink" x="0px" y="0px"
	 viewBox="0 0 250 250" style="enable-background:new 0 0 250 250;" xml:space="preserve">
<style type="text/css">
	.st0{fill:#FFFFFF;stroke:#FFFFFF;stroke-width:16;stroke-miterlimit:10;}
	.st1{fill:url(#SVGID_1_);}
	.st2{fill:none;stroke:url(#SVGID_2_);stroke-width:8;stroke-linecap:round;stroke-linejoin:round;stroke-miterlimit:10;}
	.st3{fill:none;stroke:url(#SVGID_3_);stroke-width:8;stroke-linecap:round;stroke-miterlimit:10;}
	.st4{fill:url(#SVGID_4_);}
	.st5{fill:none;stroke:url(#SVGID_5_);stroke-width:8;stroke-linecap:round;stroke-linejoin:round;stroke-miterlimit:10;}
	.st6{fill:url(#SVGID_6_);}
</style>
<g id="White">
	<path class="st0" d="M196.5,212.6h-50.3c-5.1,0-9.7-2.3-12.7-6c0,0-0.1,0-0.1,0c-15.1,3.4-30.5,5.4-45.5,5.9c0,0-0.1,0-0.1,0h-0.3
		c-0.1,0-0.2,0-0.3,0H24.5c-8.8,0-16-7.2-16-16s7.2-16,16-16h41.1c0-0.1,0-0.2,0-0.3c0-4,1.6-7.9,4.3-10.6
		c3.5-3.4,8.9-6.9,15.3-10.9c9.2-5.8,20.7-13,29.9-22.6c5.4-5.6,9-10,12.1-13.9c6.3-7.7,10.4-12.7,21-17.8c0.1-0.1,0.2-0.1,0.4-0.2
		l0.6-0.2l-0.3-0.5C138.5,86.6,119.7,76,99.7,76c-1.5,0-3,0.1-4.4,0.2c-0.4,0-0.8,0-1.1,0c-3.4,0-6.6-1.2-9.2-3.4
		c-2.9-2.5-4.7-5.9-4.9-9.7c-0.6-7.5,4.8-14.1,12.2-15.2l0.1,0c0.2-0.1,0.5-0.1,0.7-0.1c1-0.1,1.9-0.1,2.8-0.2
		c1.4-0.1,2.7-0.1,4.1-0.1c45.9,0,83.6,36,85.8,81.8l0,0.1c0,0.6,0,1.3,0,2c-0.4,14.1-1.4,28.7-3.1,43.2l0,0.4l0.4,0.1
		c7.1,2.1,13.5,4.2,19.3,6.4c6.2,2.4,10.3,8.4,10.3,15C212.6,205.4,205.4,212.6,196.5,212.6z"/>
	<path class="st0" d="M208.5,86c-18.2,0-33-14.8-33-33s14.8-33,33-33s33,14.8,33,33S226.7,86,208.5,86z"/>
	<circle class="st0" cx="112.1" cy="103.4" r="21.8"/>
	<linearGradient id="SVGID_1_" gradientUnits="userSpaceOnUse" x1="65.5" y1="151.875" x2="65.5" y2="151.875">
		<stop  offset="0" style="stop-color:#1C9BD8"/>
		<stop  offset="0.4846" style="stop-color:#0C65AF"/>
		<stop  offset="1" style="stop-color:#423E92"/>
	</linearGradient>
	<path class="st1" d="M65.5,151.9"/>
</g>
<g id="Blue_1_">
	<linearGradient id="SVGID_2_" gradientUnits="userSpaceOnUse" x1="41.3675" y1="94.7098" x2="181.206" y2="234.5483">
		<stop  offset="0" style="stop-color:#00ADE6"/>
		<stop  offset="5.543736e-02" style="stop-color:#00A3DE"/>
		<stop  offset="0.25" style="stop-color:#0083C5"/>
		<stop  offset="0.3579" style="stop-color:#0077BC"/>
		<stop  offset="0.7261" style="stop-color:#353579"/>
		<stop  offset="0.9658" style="stop-color:#1D1A55"/>
	</linearGradient>
	<path class="st2" d="M132.5,202.7c-14.9,3.3-30,5.3-44.8,5.9h-0.5l0,0h0H24.5c-6.6,0-12-5.4-12-12s5.4-12,12-12h45.1 M96.3,183.3
		c6.3-0.7,25.6-2.8,30.3-3.9l3.1-0.7l0.4-3.1c0.5-4,1-7.3,1.3-10.5l1.3-11.5l-14.8,12.4c-4,3.5-14.3,10.7-19.8,14.4l-9.7,7.6
		c-5.1,3.9-11.3,4.3-15.6,0s-4-11.6,0-15.6c7.9-7.8,29.4-17,45.3-33.6c16.3-17.1,17.3-23.8,32-30.8l5.2-1.9l-2.9-4.7
		C141.2,83.3,121,72,99.7,72c-1.6,0-3.2,0.1-4.7,0.2c-0.3,0-0.6,0-0.8,0c-2.5,0-4.8-0.9-6.6-2.5c-2.1-1.8-3.3-4.3-3.6-7
		c-0.4-5.4,3.5-10.2,8.8-10.9l0.3,0l0.3-0.1c0.9-0.1,1.8-0.1,2.6-0.2c1.3-0.1,2.6-0.1,3.9-0.1c43.8,0,79.7,34.3,81.8,78l0,0.1
		c0,0.5,0,1.1,0,1.7c-0.4,14-1.4,28.4-3.1,42.8l-0.4,3.8l3.7,1.1c7,2,13.2,4.1,19,6.3c4.6,1.8,7.7,6.3,7.8,11.2c0,6.6-5.4,12-12,12
		h-36.3h-14c-6.9,0-12.5-5.6-12.5-12.5s5.6-12.5,12.5-12.5h31"/>
	<linearGradient id="SVGID_3_" gradientUnits="userSpaceOnUse" x1="185.1751" y1="29.6451" x2="231.8249" y2="76.2949">
		<stop  offset="0" style="stop-color:#00ADE6"/>
		<stop  offset="5.543736e-02" style="stop-color:#00A3DE"/>
		<stop  offset="0.25" style="stop-color:#0083C5"/>
		<stop  offset="0.3579" style="stop-color:#0077BC"/>
		<stop  offset="0.7261" style="stop-color:#353579"/>
		<stop  offset="0.9658" style="stop-color:#1D1A55"/>
	</linearGradient>
	<path class="st3" d="M208.5,24c-16,0-29,13-29,29c0,16,13,29,29,29s29-13,29-29C237.5,37,224.5,24,208.5,24z"/>
</g>
<g id="Orange">
	<linearGradient id="SVGID_4_" gradientUnits="userSpaceOnUse" x1="96.738" y1="88.0265" x2="127.4972" y2="118.7857">
		<stop  offset="0" style="stop-color:#FFEE25"/>
		<stop  offset="0.3707" style="stop-color:#F08F34"/>
		<stop  offset="1" style="stop-color:#E2312D"/>
	</linearGradient>
	<circle class="st4" cx="112.1" cy="103.4" r="21.8"/>
	<linearGradient id="SVGID_5_" gradientUnits="userSpaceOnUse" x1="201.6682" y1="37.1005" x2="224.8851" y2="60.3173">
		<stop  offset="0" style="stop-color:#FFEE25"/>
		<stop  offset="0.3707" style="stop-color:#F08F34"/>
		<stop  offset="1" style="stop-color:#E2312D"/>
	</linearGradient>
	<polyline class="st5" points="208.5,35.9 208.5,53 226.6,53 	"/>
	<linearGradient id="SVGID_6_" gradientUnits="userSpaceOnUse" x1="65.5" y1="151.875" x2="65.5" y2="151.875">
		<stop  offset="0" style="stop-color:#1C9BD8"/>
		<stop  offset="0.4846" style="stop-color:#0C65AF"/>
		<stop  offset="1" style="stop-color:#423E92"/>
	</linearGradient>
	<path class="st6" d="M65.5,151.9"/>
</g>
</svg>
