<svg id="Layer_1" data-name="Layer 1" xmlns="http://www.w3.org/2000/svg" xmlns:xlink="http://www.w3.org/1999/xlink" viewBox="0 0 113.39 113.39"><defs><style>.cls-1{fill:url(#linear-gradient);}.cls-2{fill:url(#linear-gradient-2);}</style><linearGradient id="linear-gradient" x1="11.69" y1="56.69" x2="101.69" y2="56.69" gradientUnits="userSpaceOnUse"><stop offset="0" stop-color="#1d9ad7"/><stop offset="0.48" stop-color="#1366af"/><stop offset="1" stop-color="#423f92"/></linearGradient><linearGradient id="linear-gradient-2" x1="21.08" y1="56.69" x2="92.31" y2="56.69" gradientUnits="userSpaceOnUse"><stop offset="0" stop-color="#f7a834"/><stop offset="0.18" stop-color="#f59a33"/><stop offset="0.53" stop-color="#f07632"/><stop offset="0.99" stop-color="#e73b30"/><stop offset="1" stop-color="#e73a30"/></linearGradient></defs><title>tab1-step3</title><path class="cls-1" d="M96.74,19.86H16.65a5,5,0,0,0-5,5V88.57a5,5,0,0,0,5,5H96.74a5,5,0,0,0,5-5V24.82A5,5,0,0,0,96.74,19.86ZM16.65,24.34H96.74a.48.48,0,0,1,.48.48v6.42h-81V24.82A.48.48,0,0,1,16.65,24.34ZM96.74,89H16.65a.48.48,0,0,1-.48-.48V35.72h81V88.57A.48.48,0,0,1,96.74,89Z"/><path class="cls-2" d="M22.36,44.54a.45.45,0,0,1-.25.18.45.45,0,0,1,.25.18.72.72,0,0,1,.08.39v.82a.38.38,0,0,0,.09.28.37.37,0,0,0,.27.1h.09v.62h-.3a1,1,0,0,1-.71-.23.89.89,0,0,1-.24-.69v-.89a.25.25,0,0,0-.06-.17.21.21,0,0,0-.16-.06h-.16v-.62h.16a.21.21,0,0,0,.16-.06.25.25,0,0,0,.06-.18v-.91a.89.89,0,0,1,.24-.67,1,1,0,0,1,.71-.23h.3V43h-.09a.37.37,0,0,0-.27.1.38.38,0,0,0-.09.28v.82A.72.72,0,0,1,22.36,44.54Zm2.55.91a.5.5,0,0,1-.32.1.33.33,0,0,1-.25-.09.37.37,0,0,1-.09-.26V44.08h.67v-.61h-.67v-.66h-.82v.66H23v.61h.42V45.2a1,1,0,0,0,.26.72,1.05,1.05,0,0,0,.75.25,1.43,1.43,0,0,0,.35,0,.82.82,0,0,0,.29-.13Zm1-2.42a.49.49,0,0,0,.35-.13.43.43,0,0,0,.14-.33.39.39,0,0,0-.14-.3.51.51,0,0,0-.35-.12.5.5,0,0,0-.35.12l0,0a.43.43,0,0,0,0,.6A.5.5,0,0,0,25.92,43Zm-.35,3.08h.82V43.39h-.82Zm3.05-.66a.5.5,0,0,1-.32.1.33.33,0,0,1-.25-.09.37.37,0,0,1-.09-.26V44.08h.67v-.61H28v-.66h-.82v.66h-.42v.61h.42V45.2a1,1,0,0,0,.26.72,1.05,1.05,0,0,0,.75.25,1.43,1.43,0,0,0,.35,0,.82.82,0,0,0,.29-.13Zm.62.69h.82V42.4h-.82Zm4.17-1.35a1.46,1.46,0,0,0-.18-.74,1.25,1.25,0,0,0-.51-.49,1.6,1.6,0,0,0-1.46,0,1.32,1.32,0,0,0-.52.5,1.38,1.38,0,0,0-.19.72,1.36,1.36,0,0,0,.19.72,1.31,1.31,0,0,0,.54.49,1.77,1.77,0,0,0,.82.18,1.41,1.41,0,0,0,1.12-.45l-.42-.45a.91.91,0,0,1-.3.2,1,1,0,0,1-.38.07.86.86,0,0,1-.51-.15.64.64,0,0,1-.26-.39h2C33.4,44.86,33.41,44.79,33.41,44.79ZM32,44a.67.67,0,0,1,.44.16.65.65,0,0,1,.22.41H31.3a.64.64,0,0,1,.22-.41A.67.67,0,0,1,32,44Zm2.61.25a.48.48,0,0,0,.14-.35.46.46,0,0,0-.14-.35.52.52,0,0,0-.7,0,.46.46,0,0,0-.14.35.48.48,0,0,0,.14.35A.5.5,0,0,0,34.57,44.22Zm0,1.81a.48.48,0,0,0,.14-.35.46.46,0,0,0-.14-.35.52.52,0,0,0-.7,0,.46.46,0,0,0-.14.35.48.48,0,0,0,.14.35A.5.5,0,0,0,34.57,46Zm1.16-2.8.22-.82h-.5l-.3.72a2.26,2.26,0,0,0-.11.3.82.82,0,0,0,0,.2.47.47,0,0,0,.14.35.52.52,0,0,0,.7,0,.47.47,0,0,0,.14-.35.48.48,0,0,0-.07-.26A.44.44,0,0,0,35.73,43.23Zm1.19,0,.22-.82h-.5l-.3.72a2.25,2.25,0,0,0-.11.3.82.82,0,0,0,0,.2.47.47,0,0,0,.14.35.52.52,0,0,0,.7,0,.47.47,0,0,0,.14-.35.48.48,0,0,0-.07-.26A.44.44,0,0,0,36.92,43.23Zm2.92.22-.76,1.84-.76-1.84H37.5l1.18,2.73h0a.67.67,0,0,1-.22.25.42.42,0,0,1-.26.08.65.65,0,0,1-.24,0,.67.67,0,0,1-.21-.12l-.29.56a.92.92,0,0,0,.34.18,1.38,1.38,0,0,0,.42.07,1.13,1.13,0,0,0,.67-.19,1.41,1.41,0,0,0,.46-.66l1.23-2.88ZM42.93,46a1.33,1.33,0,0,0,.53-.49,1.45,1.45,0,0,0,0-1.44,1.33,1.33,0,0,0-.53-.49,1.73,1.73,0,0,0-1.54,0,1.33,1.33,0,0,0-.53.49,1.45,1.45,0,0,0,0,1.44,1.32,1.32,0,0,0,.53.49A1.73,1.73,0,0,0,42.93,46Zm-.78-.43a.67.67,0,0,1-.5-.21.82.82,0,0,1,0-1.09.67.67,0,0,1,.5-.21.66.66,0,0,1,.49.21.86.86,0,0,1,0,1.09A.66.66,0,0,1,42.15,45.56Zm4.09-2.15v.35a1.08,1.08,0,0,0-.9-.39,1.44,1.44,0,0,0-.68.16,1.25,1.25,0,0,0-.49.46,1.39,1.39,0,0,0,0,1.37,1.25,1.25,0,0,0,.49.46,1.44,1.44,0,0,0,.68.16,1.1,1.1,0,0,0,.82-.34v.12a.73.73,0,0,1-.2.56.82.82,0,0,1-.6.18,1.72,1.72,0,0,1-.53-.08,1.28,1.28,0,0,1-.44-.22l-.31.57a1.64,1.64,0,0,0,.58.28,2.84,2.84,0,0,0,.75.1,1.64,1.64,0,0,0,1.13-.36,1.45,1.45,0,0,0,.39-1.11V43.43ZM46,45.17a.72.72,0,0,1-.47.19.73.73,0,0,1-.55-.18h0a.67.67,0,0,1,0-1,.73.73,0,0,1,.51-.18.72.72,0,0,1,.51.18.68.68,0,0,1,0,1Zm2.81-1.78a2.38,2.38,0,0,0-.64.08,1.7,1.7,0,0,0-.53.24l.28.53a1.13,1.13,0,0,1,.35-.18,1.37,1.37,0,0,1,.43-.07.69.69,0,0,1,.47.14.5.5,0,0,1,.16.39h-.62a1.45,1.45,0,0,0-.88.25.71.71,0,0,0-.29.59.76.76,0,0,0,.12.42.82.82,0,0,0,.35.3,1.28,1.28,0,0,0,.54.11.88.88,0,0,0,.82-.38v.34h.73V44.62a1.15,1.15,0,0,0-.34-.9A1.41,1.41,0,0,0,48.78,43.39Zm.29,2.15a.68.68,0,0,1-.32.13.53.53,0,0,1-.33-.09.28.28,0,0,1-.12-.24q0-.32.49-.32h.5v.28a.51.51,0,0,1-.22.27Zm4.46.63a1.49,1.49,0,0,0,.75-.18,1.09,1.09,0,0,0,.47-.5l-.61-.33a.66.66,0,0,1-.61.37.69.69,0,0,1-.51-.21.82.82,0,0,1,0-1.1.69.69,0,0,1,.51-.2.67.67,0,0,1,.61.37l.61-.33a1.06,1.06,0,0,0-.47-.51,1.51,1.51,0,0,0-.75-.18,1.64,1.64,0,0,0-.78.18,1.34,1.34,0,0,0-.54.49,1.44,1.44,0,0,0,0,1.44,1.34,1.34,0,0,0,.54.49A1.64,1.64,0,0,0,53.52,46.18Zm1.64,0H56V42.4h-.82Zm2.61-2.75a2.38,2.38,0,0,0-.64.08,1.7,1.7,0,0,0-.53.24l.28.53a1.13,1.13,0,0,1,.35-.18,1.37,1.37,0,0,1,.43-.07.69.69,0,0,1,.47.14.5.5,0,0,1,.16.39h-.62a1.45,1.45,0,0,0-.87.25.71.71,0,0,0-.29.59.76.76,0,0,0,.12.42.82.82,0,0,0,.35.3,1.28,1.28,0,0,0,.54.11.88.88,0,0,0,.82-.38v.34h.73V44.62a1.15,1.15,0,0,0-.34-.9A1.41,1.41,0,0,0,57.78,43.39Zm.29,2.15a.68.68,0,0,1-.35.13.53.53,0,0,1-.33-.09.28.28,0,0,1-.12-.24q0-.32.49-.32h.54v.28a.51.51,0,0,1-.22.27Zm2.64.64a2,2,0,0,0,.69-.11,1,1,0,0,0,.44-.3.72.72,0,0,0,.15-.45.65.65,0,0,0-.16-.46.82.82,0,0,0-.37-.23,4.63,4.63,0,0,0-.54-.12,2.38,2.38,0,0,1-.44-.1.18.18,0,0,1-.14-.17.21.21,0,0,1,.12-.18.82.82,0,0,1,.38-.07,1.56,1.56,0,0,1,.78.2l.26-.56a1.64,1.64,0,0,0-.47-.17,2.65,2.65,0,0,0-.58-.07,1.85,1.85,0,0,0-.67.11,1,1,0,0,0-.44.31.74.74,0,0,0-.15.45.66.66,0,0,0,.16.48.82.82,0,0,0,.38.23,4,4,0,0,0,.55.12,2,2,0,0,1,.42.08.17.17,0,0,1,.14.16q0,.25-.5.25a1.83,1.83,0,0,1-.5-.07,1.64,1.64,0,0,1-.44-.19l-.26.57a1.72,1.72,0,0,0,.51.21A2.63,2.63,0,0,0,60.71,46.19Zm2.66,0a2,2,0,0,0,.69-.11,1,1,0,0,0,.44-.3.72.72,0,0,0,.15-.45.65.65,0,0,0-.16-.46.82.82,0,0,0-.37-.23,4.63,4.63,0,0,0-.54-.12,2.38,2.38,0,0,1-.43-.12.18.18,0,0,1-.14-.17.21.21,0,0,1,.12-.18.82.82,0,0,1,.38-.07,1.56,1.56,0,0,1,.78.2l.26-.56a1.64,1.64,0,0,0-.47-.17,2.65,2.65,0,0,0-.58-.07,1.85,1.85,0,0,0-.67.11,1,1,0,0,0-.44.31.74.74,0,0,0-.15.45.66.66,0,0,0,.16.48.82.82,0,0,0,.38.23,4,4,0,0,0,.55.12,2,2,0,0,1,.42.08.17.17,0,0,1,.14.16q0,.25-.5.25a1.83,1.83,0,0,1-.5-.07,1.64,1.64,0,0,1-.44-.19l-.26.57a1.72,1.72,0,0,0,.51.21A2.63,2.63,0,0,0,63.37,46.2Zm2.08-3.86a.49.49,0,0,0-.35.13.47.47,0,0,0-.14.35.49.49,0,0,0,.07.26.44.44,0,0,0,.2.16l-.21.82h.5l.3-.72a2.65,2.65,0,0,0,.11-.3.82.82,0,0,0,0-.21.47.47,0,0,0-.14-.35A.48.48,0,0,0,65.45,42.34Zm1.19,0a.49.49,0,0,0-.35.13.46.46,0,0,0-.14.35.49.49,0,0,0,.07.26.43.43,0,0,0,.2.16l-.21.82h.5l.3-.72a2.63,2.63,0,0,0,.11-.3.82.82,0,0,0,0-.21.47.47,0,0,0-.14-.35A.48.48,0,0,0,66.65,42.34Zm1.23,2.86a.49.49,0,0,0-.35.13.46.46,0,0,0-.14.35.48.48,0,0,0,.07.26.42.42,0,0,0,.2.16l-.22.82h.5l.29-.72a2.3,2.3,0,0,0,.11-.3.82.82,0,0,0,0-.2.47.47,0,0,0-.14-.35A.48.48,0,0,0,67.88,45.2ZM23.37,48.45v1.32a1,1,0,0,0-.82-.33,1.41,1.41,0,0,0-.69.17,1.23,1.23,0,0,0-.49.49,1.64,1.64,0,0,0,0,1.47,1.23,1.23,0,0,0,.49.49,1.41,1.41,0,0,0,.69.17,1,1,0,0,0,.82-.35v.31h.75V48.44Zm-1.22,2.92a.82.82,0,0,1,0-1.09.71.71,0,0,1,1,0,.82.82,0,0,1,0,1.09A.71.71,0,0,1,22.16,51.37Zm5.34-.54a1.46,1.46,0,0,0-.18-.74,1.25,1.25,0,0,0-.51-.49,1.6,1.6,0,0,0-1.46,0,1.32,1.32,0,0,0-.52.5,1.38,1.38,0,0,0-.19.72,1.36,1.36,0,0,0,.19.72,1.31,1.31,0,0,0,.54.49,1.77,1.77,0,0,0,.82.18,1.41,1.41,0,0,0,1.12-.44l-.42-.45a.91.91,0,0,1-.3.2,1,1,0,0,1-.38.06.86.86,0,0,1-.51-.15.64.64,0,0,1-.26-.39h2.06C27.5,50.91,27.5,50.83,27.5,50.83ZM26.1,50a.67.67,0,0,1,.44.16.65.65,0,0,1,.22.41H25.43a.64.64,0,0,1,.22-.41A.67.67,0,0,1,26.1,50Zm2.85,2.22a2,2,0,0,0,.69-.11,1,1,0,0,0,.44-.3.72.72,0,0,0,.15-.45.65.65,0,0,0-.16-.46.82.82,0,0,0-.37-.23,4.63,4.63,0,0,0-.54-.12,2.38,2.38,0,0,1-.44-.1.18.18,0,0,1-.14-.17.21.21,0,0,1,.12-.18.82.82,0,0,1,.38-.07,1.56,1.56,0,0,1,.78.2l.26-.56a1.64,1.64,0,0,0-.47-.17,2.65,2.65,0,0,0-.58-.07,1.85,1.85,0,0,0-.67.11,1,1,0,0,0-.44.31.74.74,0,0,0-.15.45.66.66,0,0,0,.16.48.82.82,0,0,0,.38.23,4,4,0,0,0,.55.12,2,2,0,0,1,.42.08.17.17,0,0,1,.14.16q0,.25-.5.25a1.83,1.83,0,0,1-.5-.07,1.64,1.64,0,0,1-.44-.19l-.26.57a1.72,1.72,0,0,0,.51.21A2.63,2.63,0,0,0,28.95,52.23Zm3.08,0a1.49,1.49,0,0,0,.75-.18,1.09,1.09,0,0,0,.47-.5l-.61-.33a.66.66,0,0,1-.61.37.69.69,0,0,1-.51-.21.82.82,0,0,1,0-1.1.69.69,0,0,1,.49-.21.67.67,0,0,1,.61.37l.61-.33a1.06,1.06,0,0,0-.47-.51,1.51,1.51,0,0,0-.75-.18,1.64,1.64,0,0,0-.78.18,1.34,1.34,0,0,0-.54.49,1.44,1.44,0,0,0,0,1.44,1.34,1.34,0,0,0,.54.49A1.64,1.64,0,0,0,32,52.24Zm2.37-2.42v-.35h-.75v2.72h.82V50.91a.76.76,0,0,1,.19-.57.72.72,0,0,1,.53-.19h.17v-.72a1.41,1.41,0,0,0-.55.1A.88.88,0,0,0,34.4,49.82Zm1.83-.72a.49.49,0,0,0,.35-.13.43.43,0,0,0,.14-.33.39.39,0,0,0-.14-.3.51.51,0,0,0-.35-.12.5.5,0,0,0-.35.12l0,0a.43.43,0,0,0,0,.6A.5.5,0,0,0,36.23,49.1Zm-.35,3.08h.82V49.46h-.82Zm3.05-2.75a1,1,0,0,0-.82.35v-.31h-.8v3.68h.82V51.88a1,1,0,0,0,.82.33,1.38,1.38,0,0,0,.69-.17,1.25,1.25,0,0,0,.49-.49,1.64,1.64,0,0,0,0-1.46,1.25,1.25,0,0,0-.49-.49A1.38,1.38,0,0,0,38.92,49.43Zm-.61,1.94a.86.86,0,0,1,0-1.09.71.71,0,0,1,1,0,.86.86,0,0,1,0,1.09A.71.71,0,0,1,38.31,51.37Zm4.09.12a.5.5,0,0,1-.32.1.33.33,0,0,1-.25-.09.37.37,0,0,1-.09-.26v-1.1h.67v-.61h-.67v-.66h-.82v.66H40.5v.61h.42v1.12a1,1,0,0,0,.26.72,1.05,1.05,0,0,0,.75.25,1.43,1.43,0,0,0,.35,0,.82.82,0,0,0,.29-.13Zm1-2.38a.49.49,0,0,0,.35-.13.43.43,0,0,0,.14-.33.39.39,0,0,0-.12-.31.51.51,0,0,0-.35-.12.5.5,0,0,0-.35.12l0,0a.43.43,0,0,0,0,.6A.5.5,0,0,0,43.36,49.11ZM43,52.18h.82V49.47H43ZM46.59,52a1.33,1.33,0,0,0,.53-.49,1.45,1.45,0,0,0,0-1.44,1.33,1.33,0,0,0-.53-.49,1.73,1.73,0,0,0-1.54,0,1.33,1.33,0,0,0-.53.49,1.45,1.45,0,0,0,0,1.44A1.32,1.32,0,0,0,45,52,1.73,1.73,0,0,0,46.59,52Zm-.76-.44a.67.67,0,0,1-.5-.21.82.82,0,0,1,0-1.09.67.67,0,0,1,.5-.21.66.66,0,0,1,.49.21.86.86,0,0,1,0,1.08A.66.66,0,0,1,45.83,51.59Zm3.61-2.15a1.35,1.35,0,0,0-.51.09,1,1,0,0,0-.39.26v-.32h-.75v2.71h.82V50.83a.76.76,0,0,1,.17-.54.62.62,0,0,1,.44-.18.52.52,0,0,1,.41.16.71.71,0,0,1,.14.48v1.43h.82V50.62a1.2,1.2,0,0,0-.31-.9A1.12,1.12,0,0,0,49.44,49.44Zm2.52.86a.48.48,0,0,0,.14-.35.46.46,0,0,0-.14-.35.52.52,0,0,0-.7,0,.46.46,0,0,0-.14.35.48.48,0,0,0,.14.35A.5.5,0,0,0,52,50.29Zm0,1.81a.48.48,0,0,0,.14-.35.46.46,0,0,0-.14-.35.52.52,0,0,0-.7,0,.46.46,0,0,0-.14.35.48.48,0,0,0,.14.35A.5.5,0,0,0,52,52.1Zm2.59-2.83.22-.82h-.5l-.3.72a2.26,2.26,0,0,0-.11.3.82.82,0,0,0,0,.2A.47.47,0,0,0,54,50a.52.52,0,0,0,.7,0,.47.47,0,0,0,.14-.35.48.48,0,0,0-.07-.26A.44.44,0,0,0,54.54,49.27Zm1.41.13a.44.44,0,0,0-.21-.13l.22-.82h-.5l-.3.72a2.25,2.25,0,0,0-.11.3.82.82,0,0,0,0,.2.47.47,0,0,0,.14.35.52.52,0,0,0,.7,0,.47.47,0,0,0,.14-.35A.48.48,0,0,0,56,49.4Zm2.3,2.08a.5.5,0,0,1-.32.1.33.33,0,0,1-.25-.09.37.37,0,0,1-.09-.26v-1.1h.67v-.61h-.67v-.66h-.82v.66h-.42v.61h.39v1.09a1,1,0,0,0,.26.72,1.05,1.05,0,0,0,.77.28,1.43,1.43,0,0,0,.35,0,.82.82,0,0,0,.29-.13Zm2.26-2.06a1.36,1.36,0,0,0-.49.08,1,1,0,0,0-.38.24V48.44h-.82V52.2h.82V50.86a.76.76,0,0,1,.17-.54.62.62,0,0,1,.48-.18.52.52,0,0,1,.41.16.71.71,0,0,1,.11.45v1.43h.82V50.62a1.2,1.2,0,0,0-.31-.9A1.12,1.12,0,0,0,60.51,49.43ZM65,50.82a1.46,1.46,0,0,0-.18-.74,1.25,1.25,0,0,0-.51-.49,1.6,1.6,0,0,0-1.46,0,1.32,1.32,0,0,0-.52.5,1.38,1.38,0,0,0-.19.72,1.36,1.36,0,0,0,.19.72,1.31,1.31,0,0,0,.54.49,1.77,1.77,0,0,0,.82.18,1.41,1.41,0,0,0,1.12-.44l-.42-.45a.91.91,0,0,1-.3.2,1,1,0,0,1-.38.07.86.86,0,0,1-.51-.15A.64.64,0,0,1,63,51H65C65,50.91,65,50.82,65,50.82ZM63.62,50a.67.67,0,0,1,.44.16.65.65,0,0,1,.22.41H63a.64.64,0,0,1,.22-.41A.67.67,0,0,1,63.62,50Zm4.18-.65q0-.39.36-.39a.53.53,0,0,1,.32.1l.21-.57a.82.82,0,0,0-.26-.11,1.43,1.43,0,0,0-.34,0,1.05,1.05,0,0,0-.77.27,1,1,0,0,0-.27.73v.12h-.42v.61H67v2.06h.82v-2h.66v-.61h-.68Zm3.14.11v1.35a.77.77,0,0,1-.17.54.59.59,0,0,1-.45.18q-.55,0-.55-.66V49.47h-.82V51a1.23,1.23,0,0,0,.31.91,1.15,1.15,0,0,0,.82.3,1.18,1.18,0,0,0,.47-.09,1,1,0,0,0,.37-.27v.33h.75V49.47Zm3,0a1.35,1.35,0,0,0-.51.09,1,1,0,0,0-.39.26v-.32h-.75v2.71h.82V50.83a.76.76,0,0,1,.17-.54.62.62,0,0,1,.48-.18.52.52,0,0,1,.41.16.71.71,0,0,1,.14.48v1.43h.82V50.62a1.2,1.2,0,0,0-.31-.9A1.12,1.12,0,0,0,74,49.44Zm5.35,2.75h.93L79,50.62l1.13-1.15h-.94l-1.13,1.09V48.44h-.82v3.73h.82v-.69l.38-.37ZM81,49.1a.49.49,0,0,0,.35-.13.43.43,0,0,0,.14-.33.39.39,0,0,0-.14-.3.51.51,0,0,0-.35-.12.5.5,0,0,0-.35.12l0,0a.43.43,0,0,0,0,.6A.5.5,0,0,0,81,49.1Zm-.35,3.08h.82V49.46h-.82Zm3.05-2.74a1.35,1.35,0,0,0-.51.09,1,1,0,0,0-.39.26v-.32H82v2.71h.82V50.83a.76.76,0,0,1,.17-.54.62.62,0,0,1,.48-.18.52.52,0,0,1,.41.16.71.71,0,0,1,.14.48v1.43h.82V50.62a1.2,1.2,0,0,0-.31-.9A1.12,1.12,0,0,0,83.69,49.44Zm3.95-1v1.32a1,1,0,0,0-.82-.33,1.41,1.41,0,0,0-.69.17,1.23,1.23,0,0,0-.49.49,1.64,1.64,0,0,0,0,1.47,1.23,1.23,0,0,0,.49.49,1.41,1.41,0,0,0,.69.17,1,1,0,0,0,.82-.35v.31h.75V48.44Zm-.21,2.94a.71.71,0,0,1-1,0,.82.82,0,0,1,0-1.09.71.71,0,0,1,1,0,.82.82,0,0,1,0,1.08Zm2-3a.49.49,0,0,0-.35.13.47.47,0,0,0-.14.35.49.49,0,0,0,.07.26.44.44,0,0,0,.2.16l-.21.82h.5l.3-.72a2.65,2.65,0,0,0,.11-.3.82.82,0,0,0,0-.21.47.47,0,0,0-.14-.35A.48.48,0,0,0,89.43,48.38Zm1.19,0a.49.49,0,0,0-.35.13.46.46,0,0,0-.14.35.49.49,0,0,0,.07.26.43.43,0,0,0,.2.16l-.21.82h.5l.3-.72a2.63,2.63,0,0,0,.11-.3.82.82,0,0,0,0-.21.47.47,0,0,0-.14-.35A.48.48,0,0,0,90.62,48.38Zm1.2,2.83a.49.49,0,0,0-.35.13.46.46,0,0,0-.14.35.48.48,0,0,0,.07.26.42.42,0,0,0,.2.16l-.22.82h.53l.29-.72a2.3,2.3,0,0,0,.11-.3.82.82,0,0,0,0-.2.47.47,0,0,0-.14-.35A.48.48,0,0,0,91.82,51.21ZM22.89,55.47a1,1,0,0,0-.82.35v-.31h-.75v3.68h.82V57.92a1,1,0,0,0,.82.33,1.38,1.38,0,0,0,.69-.17,1.25,1.25,0,0,0,.49-.49,1.64,1.64,0,0,0,0-1.46,1.25,1.25,0,0,0-.49-.49A1.38,1.38,0,0,0,22.89,55.47Zm-.58,1.94a.86.86,0,0,1,0-1.09.71.71,0,0,1,1,0,.86.86,0,0,1,0,1.09A.71.71,0,0,1,22.31,57.41Zm3.26-1.54v-.35h-.75v2.71h.82V57a.76.76,0,0,1,.19-.57.72.72,0,0,1,.53-.19h.17v-.72a1.41,1.41,0,0,0-.55.1A.88.88,0,0,0,25.56,55.87Zm1.83-.73a.49.49,0,0,0,.35-.13.43.43,0,0,0,.14-.33.39.39,0,0,0-.14-.3.51.51,0,0,0-.35-.12.5.5,0,0,0-.35.12l0,0a.43.43,0,0,0,0,.6A.5.5,0,0,0,27.39,55.14ZM27,58.22h.82V55.5H27Zm2.8,0a1.49,1.49,0,0,0,.75-.18,1.09,1.09,0,0,0,.47-.5l-.61-.33a.66.66,0,0,1-.61.37.69.69,0,0,1-.51-.21.82.82,0,0,1,0-1.1.69.69,0,0,1,.51-.2.67.67,0,0,1,.61.37l.61-.33a1.06,1.06,0,0,0-.47-.51,1.51,1.51,0,0,0-.75-.18,1.64,1.64,0,0,0-.78.18,1.34,1.34,0,0,0-.54.49,1.44,1.44,0,0,0,0,1.44,1.34,1.34,0,0,0,.54.49A1.64,1.64,0,0,0,29.84,58.27Zm4.27-1.41a1.46,1.46,0,0,0-.18-.74,1.25,1.25,0,0,0-.51-.49,1.6,1.6,0,0,0-1.46,0,1.32,1.32,0,0,0-.52.5,1.38,1.38,0,0,0-.19.72,1.36,1.36,0,0,0,.19.72,1.31,1.31,0,0,0,.54.49,1.77,1.77,0,0,0,.82.18,1.41,1.41,0,0,0,1.12-.44l-.42-.45a.91.91,0,0,1-.3.2,1,1,0,0,1-.38.07.86.86,0,0,1-.51-.15.64.64,0,0,1-.26-.39h2C34.1,57,34.1,56.86,34.1,56.86Zm-1.41-.81a.67.67,0,0,1,.44.16.65.65,0,0,1,.22.41H32a.64.64,0,0,1,.22-.41A.67.67,0,0,1,32.7,56.05Zm2.58.25a.48.48,0,0,0,.14-.35.46.46,0,0,0-.14-.35.52.52,0,0,0-.7,0,.46.46,0,0,0-.14.35.48.48,0,0,0,.14.35A.5.5,0,0,0,35.28,56.31Zm0,1.81a.48.48,0,0,0,.14-.35.46.46,0,0,0-.14-.35.52.52,0,0,0-.7,0,.46.46,0,0,0-.14.35.48.48,0,0,0,.14.35A.5.5,0,0,0,35.28,58.12Zm2.6-2.8.22-.82h-.53l-.3.72a2.26,2.26,0,0,0-.08.3.82.82,0,0,0,0,.2.47.47,0,0,0,.14.35.52.52,0,0,0,.7,0,.47.47,0,0,0,.14-.35.48.48,0,0,0-.07-.26A.44.44,0,0,0,37.88,55.32Zm1.39.12a.44.44,0,0,0-.2-.13l.22-.82h-.5l-.3.72a2.25,2.25,0,0,0-.11.3.82.82,0,0,0,0,.2.47.47,0,0,0,.14.35.52.52,0,0,0,.7,0,.47.47,0,0,0,.14-.35.48.48,0,0,0-.07-.26Zm.48-.76v.66h.68v2.87h.82V54.69ZM43,57.57l.82-.76a2.08,2.08,0,0,0,.47-.58,1.23,1.23,0,0,0,.12-.54.94.94,0,0,0-.16-.55,1.06,1.06,0,0,0-.46-.36,1.71,1.71,0,0,0-.69-.13,1.9,1.9,0,0,0-.82.17,1.4,1.4,0,0,0-.57.48l.59.39a.82.82,0,0,1,.31-.26,1,1,0,0,1,.42-.09.67.67,0,0,1,.42.12.39.39,0,0,1,.14.32.65.65,0,0,1-.07.3,1.45,1.45,0,0,1-.3.35l-1.36,1.28v.53H44.5v-.67Zm2.73.55a.48.48,0,0,0,.14-.35.46.46,0,0,0-.14-.35.52.52,0,0,0-.7,0,.46.46,0,0,0-.14.35.48.48,0,0,0,.14.35A.5.5,0,0,0,45.7,58.12Zm2.73-.06a1.46,1.46,0,0,0,.53-.62,2.57,2.57,0,0,0,0-2,1.46,1.46,0,0,0-.53-.62,1.51,1.51,0,0,0-1.56,0,1.46,1.46,0,0,0-.53.62,2.57,2.57,0,0,0,0,2,1.45,1.45,0,0,0,.53.62A1.51,1.51,0,0,0,48.43,58.06ZM48,57.49a.6.6,0,0,1-.83-.18,2.09,2.09,0,0,1,0-1.71.6.6,0,0,1,1,0,2.09,2.09,0,0,1,0,1.71A.6.6,0,0,1,48,57.49Zm3.88.57a1.46,1.46,0,0,0,.53-.62,2.57,2.57,0,0,0,0-2,1.46,1.46,0,0,0-.53-.62,1.51,1.51,0,0,0-1.56,0,1.46,1.46,0,0,0-.53.62,2.57,2.57,0,0,0,0,2,1.45,1.45,0,0,0,.53.62A1.51,1.51,0,0,0,51.85,58.06Zm-.46-.57a.6.6,0,0,1-.83-.18,2.09,2.09,0,0,1,0-1.71.6.6,0,0,1,1,0,2.09,2.09,0,0,1,0,1.71A.6.6,0,0,1,51.39,57.49Zm2.07-3.07a.49.49,0,0,0-.35.13.47.47,0,0,0-.14.35.49.49,0,0,0,.07.26.44.44,0,0,0,.2.16l-.21.82h.5l.3-.72a2.65,2.65,0,0,0,.11-.3.82.82,0,0,0,0-.21.47.47,0,0,0-.14-.35A.48.48,0,0,0,53.46,54.43Zm1.19,0a.49.49,0,0,0-.35.13.46.46,0,0,0-.14.35.49.49,0,0,0,.07.26.43.43,0,0,0,.2.16l-.21.82h.5l.3-.72a2.63,2.63,0,0,0,.11-.3.82.82,0,0,0,0-.21.47.47,0,0,0-.14-.35A.48.48,0,0,0,54.65,54.43Zm1.23,2.84a.49.49,0,0,0-.35.13.46.46,0,0,0-.14.35.48.48,0,0,0,.07.26.42.42,0,0,0,.2.16l-.22.82h.5l.29-.72a2.3,2.3,0,0,0,.11-.3.82.82,0,0,0,0-.2.47.47,0,0,0-.14-.35A.48.48,0,0,0,55.88,57.26ZM22.07,61.91v-.35h-.75v2.71h.82V63a.76.76,0,0,1,.19-.57.72.72,0,0,1,.53-.19H23v-.72a1.41,1.41,0,0,0-.55.1A.88.88,0,0,0,22.07,61.91Zm4.12,1a1.46,1.46,0,0,0-.18-.74,1.25,1.25,0,0,0-.51-.49,1.6,1.6,0,0,0-1.46,0,1.32,1.32,0,0,0-.52.5,1.38,1.38,0,0,0-.19.72,1.36,1.36,0,0,0,.19.72,1.31,1.31,0,0,0,.54.49,1.77,1.77,0,0,0,.82.18A1.41,1.41,0,0,0,26,63.86l-.42-.45a.91.91,0,0,1-.3.2,1,1,0,0,1-.38.07.86.86,0,0,1-.51-.15.64.64,0,0,1-.26-.39h2A1,1,0,0,1,26.19,62.9Zm-1.89-.64a.67.67,0,0,1,.44-.16.67.67,0,0,1,.44.16.65.65,0,0,1,.22.41H24.07a.64.64,0,0,1,.22-.41Zm5.83-.75a1.32,1.32,0,0,0-.56.12,1.11,1.11,0,0,0-.42.33.92.92,0,0,0-.37-.33,1.17,1.17,0,0,0-.52-.12,1.24,1.24,0,0,0-.48.09,1,1,0,0,0-.37.26v-.31h-.86v2.71h.82V62.9a.77.77,0,0,1,.16-.53.55.55,0,0,1,.44-.18q.51,0,.51.64v1.44h.82V62.91a.77.77,0,0,1,.16-.53.56.56,0,0,1,.44-.18.47.47,0,0,1,.38.16.73.73,0,0,1,.13.48v1.44h.82V62.7a1.23,1.23,0,0,0-.3-.9A1.09,1.09,0,0,0,30.12,61.51Zm2.93,0a2.38,2.38,0,0,0-.64.08,1.7,1.7,0,0,0-.53.24l.26.59a1.13,1.13,0,0,1,.35-.18,1.37,1.37,0,0,1,.43-.07.69.69,0,0,1,.47.14.5.5,0,0,1,.16.39h-.62a1.45,1.45,0,0,0-.88.21.71.71,0,0,0-.29.59.76.76,0,0,0,.12.42.82.82,0,0,0,.35.3,1.28,1.28,0,0,0,.54.11.88.88,0,0,0,.82-.38v.34h.73V62.71a1.15,1.15,0,0,0-.34-.9A1.41,1.41,0,0,0,33.05,61.48Zm.3,2.2a.68.68,0,0,1-.39.08.53.53,0,0,1-.33-.09.28.28,0,0,1-.12-.24q0-.32.49-.32h.54v.28a.51.51,0,0,1-.22.27Zm2.1-2.5a.49.49,0,0,0,.35-.13.43.43,0,0,0,.14-.33.39.39,0,0,0-.14-.3.51.51,0,0,0-.35-.12.5.5,0,0,0-.35.12l0,0a.43.43,0,0,0,0,.6A.5.5,0,0,0,35.45,61.19Zm-.35,3.08h.82V61.55H35.1Zm3.05-2.75a1.35,1.35,0,0,0-.51.09,1,1,0,0,0-.39.26v-.32H36.5v2.71h.82V62.92a.76.76,0,0,1,.17-.54A.62.62,0,0,1,38,62.2a.52.52,0,0,1,.41.16.71.71,0,0,1,.14.48v1.44h.82V62.7a1.2,1.2,0,0,0-.31-.9A1.12,1.12,0,0,0,38.15,61.52Zm2.3-.34a.49.49,0,0,0,.35-.13.43.43,0,0,0,.14-.33.39.39,0,0,0-.14-.3.51.51,0,0,0-.35-.12.5.5,0,0,0-.35.12l0,0a.43.43,0,0,0,0,.6A.5.5,0,0,0,40.45,61.19Zm-.35,3.08h.82V61.55H40.1Zm3.05-2.75a1.35,1.35,0,0,0-.51.09,1,1,0,0,0-.39.26v-.32H41.5v2.71h.82V62.92a.76.76,0,0,1,.17-.54A.62.62,0,0,1,43,62.2a.52.52,0,0,1,.41.16.71.71,0,0,1,.14.48v1.44h.82V62.7a1.2,1.2,0,0,0-.31-.9A1.12,1.12,0,0,0,43.15,61.52Zm4,0v.33a1.08,1.08,0,0,0-.9-.39,1.44,1.44,0,0,0-.68.16,1.25,1.25,0,0,0-.49.46,1.39,1.39,0,0,0,0,1.37,1.25,1.25,0,0,0,.49.46,1.44,1.44,0,0,0,.68.16,1.1,1.1,0,0,0,.82-.34v.12a.73.73,0,0,1-.2.56.82.82,0,0,1-.6.18,1.72,1.72,0,0,1-.53-.08,1.28,1.28,0,0,1-.44-.22L45,64.9a1.64,1.64,0,0,0,.58.28,2.84,2.84,0,0,0,.75.1,1.64,1.64,0,0,0,1.13-.36,1.45,1.45,0,0,0,.39-1.11V61.56Zm-.26,1.75a.72.72,0,0,1-.52.18.73.73,0,0,1-.51-.18h0a.67.67,0,0,1,0-1,.73.73,0,0,1,.51-.18.72.72,0,0,1,.51.18.68.68,0,0,1,0,1Zm2.86,1a2.06,2.06,0,0,0,.82-.15,1.13,1.13,0,0,0,.51-.39,1,1,0,0,0,.17-.55.82.82,0,0,0-.18-.56,1.09,1.09,0,0,0-.44-.3,5.76,5.76,0,0,0-.66-.19,3,3,0,0,1-.58-.17.29.29,0,0,1-.19-.27.34.34,0,0,1,.16-.3.92.92,0,0,1,.51-.11,2,2,0,0,1,1,.28l.25-.62a2,2,0,0,0-.57-.23,2.7,2.7,0,0,0-.66-.08,2,2,0,0,0-.82.15,1.12,1.12,0,0,0-.5.39,1,1,0,0,0-.16.56.82.82,0,0,0,.18.57,1.07,1.07,0,0,0,.44.3,5.76,5.76,0,0,0,.66.19l.42.11a.75.75,0,0,1,.25.13.26.26,0,0,1,.1.21.31.31,0,0,1-.16.27,1,1,0,0,1-.51.11,2,2,0,0,1-.62-.1,1.87,1.87,0,0,1-.54-.26l-.28.62a1.91,1.91,0,0,0,.62.3A2.89,2.89,0,0,0,49.77,64.32Zm3.54-2.8a1,1,0,0,0-.82.35v-.31h-.75v3.68h.82V64a1,1,0,0,0,.82.33,1.38,1.38,0,0,0,.69-.17,1.25,1.25,0,0,0,.49-.49,1.64,1.64,0,0,0,0-1.46,1.25,1.25,0,0,0-.49-.49A1.38,1.38,0,0,0,53.3,61.51Zm-.58,1.93a.86.86,0,0,1,0-1.09.71.71,0,0,1,1,0,.86.86,0,0,1,0,1.09A.71.71,0,0,1,52.73,63.45Zm3.58-2a2.38,2.38,0,0,0-.64.08,1.7,1.7,0,0,0-.53.24l.27.58a1.13,1.13,0,0,1,.35-.18,1.37,1.37,0,0,1,.43-.07.69.69,0,0,1,.47.14.5.5,0,0,1,.16.39h-.62a1.45,1.45,0,0,0-.86.18.71.71,0,0,0-.29.59.76.76,0,0,0,.12.46.82.82,0,0,0,.35.3,1.28,1.28,0,0,0,.54.11.88.88,0,0,0,.82-.38v.34h.73V62.71a1.15,1.15,0,0,0-.34-.9A1.41,1.41,0,0,0,56.31,61.48Zm.29,2.2a.68.68,0,0,1-.35.08.53.53,0,0,1-.33-.09.28.28,0,0,1-.12-.24q0-.32.49-.32h.54v.28a.51.51,0,0,1-.22.27Zm3.09.61a1.49,1.49,0,0,0,.75-.18,1.09,1.09,0,0,0,.47-.5l-.61-.33a.66.66,0,0,1-.64.39.69.69,0,0,1-.51-.21.82.82,0,0,1,0-1.1.69.69,0,0,1,.51-.2.67.67,0,0,1,.61.37l.61-.33a1.06,1.06,0,0,0-.47-.51,1.51,1.51,0,0,0-.75-.18,1.64,1.64,0,0,0-.78.18,1.34,1.34,0,0,0-.54.49,1.44,1.44,0,0,0,0,1.44,1.34,1.34,0,0,0,.54.49A1.64,1.64,0,0,0,59.69,64.29Zm4.25-1.39a1.46,1.46,0,0,0-.18-.74,1.25,1.25,0,0,0-.51-.49,1.6,1.6,0,0,0-1.46,0,1.32,1.32,0,0,0-.52.5,1.38,1.38,0,0,0-.19.72,1.36,1.36,0,0,0,.19.72,1.31,1.31,0,0,0,.54.49,1.77,1.77,0,0,0,.82.18,1.41,1.41,0,0,0,1.12-.44l-.42-.45a.91.91,0,0,1-.3.2,1,1,0,0,1-.38.07.86.86,0,0,1-.51-.15.64.64,0,0,1-.26-.39h2A1.87,1.87,0,0,0,63.94,62.9Zm-1.85-.64a.67.67,0,0,1,.44-.16.67.67,0,0,1,.44.16.65.65,0,0,1,.22.41H61.86a.64.64,0,0,1,.22-.41Zm3.3,2.06a2,2,0,0,0,.69-.11,1,1,0,0,0,.44-.3.72.72,0,0,0,.15-.45.65.65,0,0,0-.16-.46.82.82,0,0,0-.37-.23,4.63,4.63,0,0,0-.54-.12,2.38,2.38,0,0,1-.44-.1.18.18,0,0,1-.14-.17.21.21,0,0,1,.12-.18.82.82,0,0,1,.38-.07,1.56,1.56,0,0,1,.78.2l.26-.56a1.64,1.64,0,0,0-.47-.17,2.65,2.65,0,0,0-.58-.07,1.85,1.85,0,0,0-.67.11,1,1,0,0,0-.44.31.74.74,0,0,0-.15.45.66.66,0,0,0,.16.48.82.82,0,0,0,.38.23,4,4,0,0,0,.55.12,2,2,0,0,1,.42.08.17.17,0,0,1,.14.16q0,.25-.5.25a1.83,1.83,0,0,1-.5-.07,1.64,1.64,0,0,1-.44-.19l-.26.57a1.72,1.72,0,0,0,.51.21A2.63,2.63,0,0,0,65.39,64.32Zm2.4-2a.48.48,0,0,0,.14-.35.46.46,0,0,0-.14-.35.52.52,0,0,0-.7,0A.46.46,0,0,0,67,62a.48.48,0,0,0,.14.35A.5.5,0,0,0,67.79,62.35Zm0,1.81a.48.48,0,0,0,.14-.35.46.46,0,0,0-.14-.35.52.52,0,0,0-.7,0,.46.46,0,0,0-.14.35.48.48,0,0,0,.14.35A.5.5,0,0,0,67.79,64.16Zm2.58-2.8.22-.82h-.5l-.3.72a2.26,2.26,0,0,0-.11.3.82.82,0,0,0,0,.2.47.47,0,0,0,.14.35.52.52,0,0,0,.7,0,.47.47,0,0,0,.14-.35.48.48,0,0,0-.07-.26A.44.44,0,0,0,70.37,61.36Zm1.44.13a.44.44,0,0,0-.22-.13l.22-.82h-.53l-.3.72a2.25,2.25,0,0,0-.11.3.82.82,0,0,0,0,.2.47.47,0,0,0,.14.35.52.52,0,0,0,.7,0,.47.47,0,0,0,.14-.35.48.48,0,0,0-.07-.26Zm1.64.58h-.3l.06-.67h1.46v-.66H72.51l-.18,2h.9a1.27,1.27,0,0,1,.64.12.38.38,0,0,1,.18.35.39.39,0,0,1-.17.34.82.82,0,0,1-.49.12,1.77,1.77,0,0,1-.54-.08,1.54,1.54,0,0,1-.46-.23l-.32.62a1.88,1.88,0,0,0,.61.28,2.77,2.77,0,0,0,.73.1,1.87,1.87,0,0,0,.82-.16,1.13,1.13,0,0,0,.49-.42,1.1,1.1,0,0,0,.16-.58,1,1,0,0,0-.35-.82A1.69,1.69,0,0,0,73.45,62.07Zm2.26-1.6a.49.49,0,0,0-.35.13.47.47,0,0,0-.14.35.49.49,0,0,0,.07.26.44.44,0,0,0,.2.16l-.21.82h.5l.3-.72a2.65,2.65,0,0,0,.11-.3.82.82,0,0,0,0-.21.47.47,0,0,0-.14-.35A.48.48,0,0,0,75.72,60.47Zm1.51.15a.48.48,0,0,0-.32-.15.49.49,0,0,0-.35.13.46.46,0,0,0-.14.35.49.49,0,0,0,.07.26.43.43,0,0,0,.2.16l-.21.82H77l.3-.72a2.63,2.63,0,0,0,.11-.3.82.82,0,0,0,0-.21.47.47,0,0,0-.14-.35Zm-54.68,8a.21.21,0,0,1-.16-.06.25.25,0,0,1-.06-.17v-.91a.89.89,0,0,0-.24-.67,1,1,0,0,0-.71-.23h-.3v.61h.09a.36.36,0,0,1,.27.1.38.38,0,0,1,.09.28v.73a.72.72,0,0,0,.08.39.45.45,0,0,0,.25.18.45.45,0,0,0-.25.18.72.72,0,0,0-.08.39v.82a.38.38,0,0,1-.09.28.36.36,0,0,1-.27.1h-.09v.62h.3a1,1,0,0,0,.71-.23.89.89,0,0,0,.24-.67v-.91a.25.25,0,0,1,.06-.17.21.21,0,0,1,.16-.06h.16v-.58Z"/></svg>