<?xml version="1.0" encoding="utf-8"?>
<!-- Generator: Adobe Illustrator 22.1.0, SVG Export Plug-In . SVG Version: 6.00 Build 0)  -->
<svg version="1.1" xmlns="http://www.w3.org/2000/svg" xmlns:xlink="http://www.w3.org/1999/xlink" x="0px" y="0px"
	 viewBox="0 0 250 250" style="enable-background:new 0 0 250 250;" xml:space="preserve">
<style type="text/css">
	.st0{fill:#FFFFFF;}
	.st1{fill:url(#SVGID_1_);}
	.st2{fill:none;stroke:url(#SVGID_2_);stroke-width:8;stroke-linecap:round;stroke-miterlimit:10;}
	.st3{fill:url(#SVGID_3_);}
	.st4{fill:url(#SVGID_4_);}
	.st5{fill:url(#SVGID_5_);}
</style>
<g id="white">
	<g>
		<path class="st0" d="M17.6,220.2c-6.4,0-11.7-5.2-11.7-11.7V50.2c0-6.4,5.2-11.7,11.7-11.7h214c6.4,0,11.7,5.2,11.7,11.7v158.3
			c0,6.4-5.2,11.7-11.7,11.7H17.6z"/>
		<path class="st0" d="M231.6,44.5c3.1,0,5.7,2.6,5.7,5.7v158.3c0,3.1-2.6,5.7-5.7,5.7h-214c-3.1,0-5.7-2.6-5.7-5.7V50.2
			c0-3.1,2.6-5.7,5.7-5.7H231.6 M231.6,32.5h-214C7.9,32.5,0,40.4,0,50.2v158.3c0,9.7,7.9,17.7,17.7,17.7h214
			c9.7,0,17.7-7.9,17.7-17.7V50.2C249.3,40.4,241.4,32.5,231.6,32.5L231.6,32.5z"/>
	</g>
</g>
<g id="Blue">
	<g>
		<linearGradient id="SVGID_1_" gradientUnits="userSpaceOnUse" x1="69.9653" y1="88.513" x2="180.0347" y2="198.5825">
			<stop  offset="0" style="stop-color:#FEEC31"/>
			<stop  offset="0.3707" style="stop-color:#F08F33"/>
			<stop  offset="1" style="stop-color:#E2322E"/>
		</linearGradient>
		<path class="st1" d="M216.3,161.3v-35.5c0-1.4-1.1-2.5-2.5-2.5H36.2c-1.4,0-2.5,1.1-2.5,2.5v35.5c0,1.4,1.1,2.5,2.5,2.5h177.6
			C215.2,163.8,216.3,162.7,216.3,161.3z"/>
	</g>
	<linearGradient id="SVGID_2_" gradientUnits="userSpaceOnUse" x1="24.7069" y1="29.4153" x2="224.551" y2="229.2594">
		<stop  offset="0" style="stop-color:#16ADE4"/>
		<stop  offset="0.1517" style="stop-color:#0192D1"/>
		<stop  offset="0.2845" style="stop-color:#057FC2"/>
		<stop  offset="0.3579" style="stop-color:#0A78BC"/>
		<stop  offset="0.7261" style="stop-color:#343579"/>
		<stop  offset="0.9658" style="stop-color:#262551"/>
	</linearGradient>
	<path class="st2" d="M231.6,214.2h-214c-3.1,0-5.7-2.6-5.7-5.7V50.2c0-3.1,2.6-5.7,5.7-5.7h214c3.1,0,5.7,2.6,5.7,5.7v158.3
		C237.3,211.6,234.8,214.2,231.6,214.2z M12,70.8h225.3 M210.9,212v-28.9c0-1.2-1-2.2-2.2-2.2H41.1c-1.2,0-2.2,1-2.2,2.2V212
		c0,1.2,1,2.2,2.2,2.2h167.6C209.9,214.2,210.9,213.2,210.9,212z M210.9,101.9V73c0-1.2-1-2.2-2.2-2.2H41.1c-1.2,0-2.2,1-2.2,2.2
		v28.9c0,1.2,1,2.2,2.2,2.2h167.6C209.9,104.1,210.9,103.1,210.9,101.9z"/>
	<linearGradient id="SVGID_3_" gradientUnits="userSpaceOnUse" x1="194.0593" y1="49.9552" x2="210.649" y2="66.5448">
		<stop  offset="0" style="stop-color:#FEEC31"/>
		<stop  offset="0.3707" style="stop-color:#F08F33"/>
		<stop  offset="1" style="stop-color:#E2322E"/>
	</linearGradient>
	<path class="st3" d="M211.5,58.2c0-1.7,1.4-3.1,3.1-3.1c1.7,0,3.1,1.4,3.1,3.1s-1.4,3.1-3.1,3.1C212.9,61.3,211.5,60,211.5,58.2z
		 M202.5,61.3c1.7,0,3.1-1.4,3.1-3.1s-1.4-3.1-3.1-3.1s-3.1,1.4-3.1,3.1S200.8,61.3,202.5,61.3z M190.1,61.3c1.7,0,3.1-1.4,3.1-3.1
		s-1.4-3.1-3.1-3.1s-3.1,1.4-3.1,3.1S188.4,61.3,190.1,61.3z"/>
	<g>
		<path class="st0" d="M53.2,137v12.6h-2.5v-1.1c-0.7,0.8-1.6,1.2-2.9,1.2c-0.9,0-1.6-0.2-2.3-0.6c-0.7-0.4-1.2-0.9-1.6-1.6
			s-0.6-1.5-0.6-2.5c0-0.9,0.2-1.8,0.6-2.5s0.9-1.3,1.6-1.6c0.7-0.4,1.5-0.6,2.3-0.6c1.2,0,2.1,0.4,2.7,1.1V137H53.2z M49.9,146.9
			c0.4-0.5,0.7-1.1,0.7-1.8c0-0.8-0.2-1.4-0.7-1.8s-1-0.7-1.7-0.7c-0.7,0-1.2,0.2-1.7,0.7c-0.4,0.5-0.7,1.1-0.7,1.8
			c0,0.8,0.2,1.4,0.7,1.8c0.4,0.5,1,0.7,1.7,0.7C48.9,147.6,49.5,147.3,49.9,146.9z"/>
		<path class="st0" d="M62.6,141.3c0.8,0.7,1.1,1.7,1.1,3.1v5.2h-2.5v-1.1c-0.5,0.8-1.4,1.3-2.8,1.3c-0.7,0-1.3-0.1-1.8-0.4
			c-0.5-0.2-0.9-0.6-1.2-1c-0.3-0.4-0.4-0.9-0.4-1.4c0-0.9,0.3-1.5,1-2s1.6-0.7,3-0.7h2.1c0-0.6-0.2-1-0.5-1.3
			c-0.4-0.3-0.9-0.5-1.6-0.5c-0.5,0-1,0.1-1.4,0.2c-0.5,0.2-0.9,0.4-1.2,0.6l-1-1.9c0.5-0.4,1.1-0.6,1.8-0.8
			c0.7-0.2,1.4-0.3,2.2-0.3C60.8,140.3,61.8,140.7,62.6,141.3z M60.3,147.7c0.4-0.2,0.6-0.5,0.7-0.9v-0.9h-1.8
			c-1.1,0-1.6,0.4-1.6,1.1c0,0.3,0.1,0.6,0.4,0.8s0.6,0.3,1.1,0.3C59.6,148,60,147.9,60.3,147.7z"/>
		<path class="st0" d="M72,149.2c-0.3,0.2-0.6,0.3-1,0.4c-0.4,0.1-0.8,0.1-1.2,0.1c-1.1,0-1.9-0.3-2.5-0.8c-0.6-0.6-0.9-1.4-0.9-2.4
			v-3.8h-1.4v-2h1.4v-2.2h2.7v2.2h2.3v2h-2.3v3.7c0,0.4,0.1,0.7,0.3,0.9c0.2,0.2,0.5,0.3,0.8,0.3c0.4,0,0.8-0.1,1.1-0.3L72,149.2z"
			/>
		<path class="st0" d="M80.5,141.3c0.8,0.7,1.1,1.7,1.1,3.1v5.2h-2.5v-1.1c-0.5,0.8-1.4,1.3-2.8,1.3c-0.7,0-1.3-0.1-1.8-0.4
			c-0.5-0.2-0.9-0.6-1.2-1c-0.3-0.4-0.4-0.9-0.4-1.4c0-0.9,0.3-1.5,1-2s1.6-0.7,3-0.7H79c0-0.6-0.2-1-0.5-1.3
			c-0.4-0.3-0.9-0.5-1.6-0.5c-0.5,0-1,0.1-1.4,0.2c-0.5,0.2-0.9,0.4-1.2,0.6l-1-1.9c0.5-0.4,1.1-0.6,1.8-0.8
			c0.7-0.2,1.4-0.3,2.2-0.3C78.6,140.3,79.7,140.7,80.5,141.3z M78.2,147.7c0.4-0.2,0.6-0.5,0.7-0.9v-0.9h-1.8
			c-1.1,0-1.6,0.4-1.6,1.1c0,0.3,0.1,0.6,0.4,0.8s0.6,0.3,1.1,0.3C77.5,148,77.9,147.9,78.2,147.7z"/>
		<path class="st0" d="M83.9,149.3c-0.3-0.3-0.5-0.7-0.5-1.2c0-0.5,0.2-0.9,0.5-1.2c0.3-0.3,0.7-0.5,1.2-0.5c0.5,0,0.9,0.2,1.2,0.5
			c0.3,0.3,0.5,0.7,0.5,1.2c0,0.5-0.2,0.9-0.5,1.2s-0.7,0.5-1.2,0.5C84.6,149.8,84.2,149.6,83.9,149.3z"/>
		<path class="st0" d="M96.2,140.9c0.7,0.4,1.2,0.9,1.6,1.6c0.4,0.7,0.6,1.5,0.6,2.5c0,0.9-0.2,1.8-0.6,2.5
			c-0.4,0.7-0.9,1.3-1.6,1.6c-0.7,0.4-1.5,0.6-2.3,0.6c-1.3,0-2.2-0.4-2.9-1.2v1.1h-2.5V137h2.7v4.4c0.7-0.7,1.6-1.1,2.8-1.1
			C94.7,140.3,95.5,140.5,96.2,140.9z M95.1,146.9c0.4-0.5,0.7-1.1,0.7-1.8c0-0.8-0.2-1.4-0.7-1.8c-0.4-0.5-1-0.7-1.7-0.7
			c-0.7,0-1.2,0.2-1.7,0.7c-0.4,0.5-0.7,1.1-0.7,1.8c0,0.8,0.2,1.4,0.7,1.8c0.4,0.5,1,0.7,1.7,0.7C94.1,147.6,94.7,147.3,95.1,146.9
			z"/>
		<path class="st0" d="M109.1,145.8h-6.9c0.1,0.6,0.4,1,0.9,1.3c0.5,0.3,1,0.5,1.7,0.5c0.5,0,0.9-0.1,1.3-0.2c0.4-0.1,0.7-0.4,1-0.7
			l1.4,1.5c-0.9,1-2.1,1.5-3.8,1.5c-1,0-1.9-0.2-2.7-0.6s-1.4-1-1.8-1.7c-0.4-0.7-0.6-1.5-0.6-2.4c0-0.9,0.2-1.7,0.6-2.4
			c0.4-0.7,1-1.3,1.8-1.7c0.7-0.4,1.6-0.6,2.5-0.6c0.9,0,1.7,0.2,2.4,0.6c0.7,0.4,1.3,0.9,1.7,1.7c0.4,0.7,0.6,1.6,0.6,2.5
			C109.2,145.1,109.2,145.3,109.1,145.8z M102.9,142.8c-0.4,0.3-0.7,0.8-0.7,1.4h4.5c-0.1-0.6-0.3-1-0.7-1.4s-0.9-0.5-1.5-0.5
			C103.8,142.3,103.3,142.5,102.9,142.8z"/>
		<path class="st0" d="M116.8,149.2c-0.3,0.2-0.6,0.3-1,0.4c-0.4,0.1-0.8,0.1-1.2,0.1c-1.1,0-1.9-0.3-2.5-0.8
			c-0.6-0.6-0.9-1.4-0.9-2.4v-3.8h-1.4v-2h1.4v-2.2h2.7v2.2h2.3v2h-2.3v3.7c0,0.4,0.1,0.7,0.3,0.9c0.2,0.2,0.5,0.3,0.8,0.3
			c0.4,0,0.8-0.1,1.1-0.3L116.8,149.2z"/>
		<path class="st0" d="M124,149.2c-0.3,0.2-0.6,0.3-1,0.4c-0.4,0.1-0.8,0.1-1.2,0.1c-1.1,0-1.9-0.3-2.5-0.8
			c-0.6-0.6-0.9-1.4-0.9-2.4v-3.8H117v-2h1.4v-2.2h2.7v2.2h2.3v2h-2.3v3.7c0,0.4,0.1,0.7,0.3,0.9c0.2,0.2,0.5,0.3,0.8,0.3
			c0.4,0,0.8-0.1,1.1-0.3L124,149.2z"/>
		<path class="st0" d="M134.1,145.8h-6.9c0.1,0.6,0.4,1,0.9,1.3c0.5,0.3,1,0.5,1.7,0.5c0.5,0,0.9-0.1,1.3-0.2s0.7-0.4,1-0.7l1.4,1.5
			c-0.9,1-2.1,1.5-3.8,1.5c-1,0-1.9-0.2-2.7-0.6c-0.8-0.4-1.4-1-1.8-1.7c-0.4-0.7-0.6-1.5-0.6-2.4c0-0.9,0.2-1.7,0.6-2.4
			s1-1.3,1.8-1.7s1.6-0.6,2.5-0.6c0.9,0,1.7,0.2,2.4,0.6c0.7,0.4,1.3,0.9,1.7,1.7c0.4,0.7,0.6,1.6,0.6,2.5
			C134.2,145.1,134.2,145.3,134.1,145.8z M127.9,142.8c-0.4,0.3-0.7,0.8-0.7,1.4h4.5c-0.1-0.6-0.3-1-0.7-1.4
			c-0.4-0.3-0.9-0.5-1.5-0.5C128.8,142.3,128.3,142.5,127.9,142.8z"/>
		<path class="st0" d="M139.8,140.7c0.5-0.2,1.2-0.3,1.9-0.3v2.4c-0.3,0-0.5,0-0.6,0c-0.8,0-1.4,0.2-1.8,0.6
			c-0.4,0.4-0.6,1.1-0.6,1.9v4.3H136v-9.1h2.5v1.2C138.8,141.2,139.2,140.9,139.8,140.7z"/>
		<path class="st0" d="M142.9,149.3c-0.3-0.3-0.5-0.7-0.5-1.2c0-0.5,0.2-0.9,0.5-1.2c0.3-0.3,0.7-0.5,1.2-0.5s0.9,0.2,1.2,0.5
			c0.3,0.3,0.5,0.7,0.5,1.2c0,0.5-0.2,0.9-0.5,1.2c-0.3,0.3-0.7,0.5-1.2,0.5S143.3,149.6,142.9,149.3z"/>
		<path class="st0" d="M149.2,149.1c-0.8-0.4-1.4-1-1.8-1.7c-0.4-0.7-0.6-1.5-0.6-2.4c0-0.9,0.2-1.7,0.6-2.4c0.4-0.7,1-1.3,1.8-1.7
			s1.6-0.6,2.6-0.6c1,0,1.8,0.2,2.6,0.6c0.8,0.4,1.4,1,1.8,1.7c0.4,0.7,0.6,1.5,0.6,2.4c0,0.9-0.2,1.7-0.6,2.4
			c-0.4,0.7-1,1.3-1.8,1.7c-0.8,0.4-1.6,0.6-2.6,0.6C150.8,149.8,150,149.5,149.2,149.1z M153.5,146.9c0.4-0.5,0.7-1.1,0.7-1.8
			c0-0.8-0.2-1.4-0.7-1.8c-0.4-0.5-1-0.7-1.7-0.7s-1.2,0.2-1.7,0.7c-0.4,0.5-0.7,1.1-0.7,1.8c0,0.8,0.2,1.4,0.7,1.8
			c0.4,0.5,1,0.7,1.7,0.7S153,147.3,153.5,146.9z"/>
		<path class="st0" d="M162.4,140.7c0.5-0.2,1.2-0.3,1.9-0.3v2.4c-0.3,0-0.5,0-0.6,0c-0.8,0-1.4,0.2-1.8,0.6
			c-0.4,0.4-0.6,1.1-0.6,1.9v4.3h-2.7v-9.1h2.5v1.2C161.4,141.2,161.9,140.9,162.4,140.7z"/>
		<path class="st0" d="M175.2,140.5v7.6c0,1.7-0.4,2.9-1.3,3.7c-0.9,0.8-2.1,1.2-3.8,1.2c-0.9,0-1.7-0.1-2.5-0.3
			c-0.8-0.2-1.5-0.5-2-0.9l1.1-1.9c0.4,0.3,0.9,0.6,1.5,0.8c0.6,0.2,1.2,0.3,1.8,0.3c0.9,0,1.6-0.2,2-0.6s0.7-1,0.7-1.9V148
			c-0.7,0.8-1.7,1.1-2.9,1.1c-0.8,0-1.6-0.2-2.3-0.6s-1.2-0.9-1.7-1.6s-0.6-1.4-0.6-2.3c0-0.9,0.2-1.6,0.6-2.3s1-1.2,1.7-1.6
			s1.5-0.6,2.3-0.6c1.3,0,2.3,0.4,3,1.3v-1.2H175.2z M171.9,146.4c0.4-0.4,0.7-1,0.7-1.6c0-0.7-0.2-1.2-0.7-1.6
			c-0.4-0.4-1-0.6-1.7-0.6c-0.7,0-1.3,0.2-1.7,0.6s-0.7,1-0.7,1.6c0,0.7,0.2,1.2,0.7,1.6s1,0.6,1.7,0.6
			C170.9,147,171.5,146.8,171.9,146.4z"/>
		<path class="st0" d="M177.5,149.3c-0.3-0.3-0.5-0.7-0.5-1.2c0-0.5,0.2-0.9,0.5-1.2c0.3-0.3,0.7-0.5,1.2-0.5s0.9,0.2,1.2,0.5
			c0.3,0.3,0.5,0.7,0.5,1.2c0,0.5-0.2,0.9-0.5,1.2c-0.3,0.3-0.7,0.5-1.2,0.5S177.8,149.6,177.5,149.3z"/>
		<path class="st0" d="M191.2,140.5v9.1h-2.5v-1.1c-0.4,0.4-0.8,0.7-1.3,0.9c-0.5,0.2-1,0.3-1.6,0.3c-1.2,0-2.2-0.3-2.9-1
			c-0.7-0.7-1.1-1.7-1.1-3.1v-5.2h2.7v4.8c0,1.5,0.6,2.2,1.9,2.2c0.6,0,1.1-0.2,1.5-0.6c0.4-0.4,0.6-1,0.6-1.8v-4.5H191.2z"/>
		<path class="st0" d="M197.6,146l-1.3,1.3v2.3h-2.7V137h2.7v7.1l3.9-3.7h3.2l-3.8,3.9l4.1,5.3h-3.2L197.6,146z"/>
	</g>
	<linearGradient id="SVGID_4_" gradientUnits="userSpaceOnUse" x1="57.8462" y1="77.1656" x2="191.6904" y2="211.0098">
		<stop  offset="0" style="stop-color:#16ADE4"/>
		<stop  offset="0.1517" style="stop-color:#0192D1"/>
		<stop  offset="0.2845" style="stop-color:#057FC2"/>
		<stop  offset="0.3579" style="stop-color:#0A78BC"/>
		<stop  offset="0.7261" style="stop-color:#343579"/>
		<stop  offset="0.9658" style="stop-color:#262551"/>
	</linearGradient>
	<path class="st4" d="M56.3,82v10.4h-2.1v-0.9c-0.5,0.7-1.3,1-2.4,1c-0.7,0-1.4-0.2-1.9-0.5c-0.6-0.3-1-0.8-1.4-1.4s-0.5-1.3-0.5-2
		c0-0.8,0.2-1.5,0.5-2c0.3-0.6,0.8-1,1.4-1.4c0.6-0.3,1.2-0.5,1.9-0.5c1,0,1.7,0.3,2.3,0.9V82H56.3z M53.7,90.1
		c0.4-0.4,0.5-0.9,0.5-1.5s-0.2-1.1-0.5-1.5c-0.4-0.4-0.8-0.6-1.4-0.6c-0.6,0-1,0.2-1.4,0.6c-0.4,0.4-0.5,0.9-0.5,1.5
		s0.2,1.1,0.5,1.5c0.4,0.4,0.8,0.6,1.4,0.6C52.8,90.7,53.3,90.5,53.7,90.1z M64.1,85.6c0.6,0.6,0.9,1.4,0.9,2.5v4.3h-2v-0.9
		c-0.4,0.7-1.2,1.1-2.3,1.1c-0.6,0-1.1-0.1-1.5-0.3c-0.4-0.2-0.7-0.5-1-0.8c-0.2-0.3-0.3-0.7-0.3-1.2c0-0.7,0.3-1.3,0.8-1.7
		S60,88,61.1,88h1.7c0-0.5-0.1-0.8-0.4-1.1c-0.3-0.3-0.7-0.4-1.3-0.4c-0.4,0-0.8,0.1-1.2,0.2s-0.7,0.3-1,0.5l-0.8-1.5
		c0.4-0.3,0.9-0.5,1.5-0.7c0.6-0.2,1.2-0.2,1.8-0.2C62.6,84.7,63.5,85,64.1,85.6z M62.2,90.8c0.3-0.2,0.5-0.4,0.6-0.8v-0.8h-1.5
		c-0.9,0-1.3,0.3-1.3,0.9c0,0.3,0.1,0.5,0.3,0.7c0.2,0.2,0.5,0.2,0.9,0.2C61.6,91,61.9,90.9,62.2,90.8z M71.9,92
		c-0.2,0.2-0.5,0.3-0.8,0.4c-0.3,0.1-0.6,0.1-1,0.1c-0.9,0-1.6-0.2-2.1-0.7c-0.5-0.5-0.7-1.1-0.7-2v-3.1h-1.2V85h1.2v-1.8h2.2V85
		h1.9v1.7h-1.9v3.1c0,0.3,0.1,0.6,0.2,0.7c0.2,0.2,0.4,0.3,0.7,0.3c0.3,0,0.6-0.1,0.9-0.3L71.9,92z M78.8,85.6
		c0.6,0.6,0.9,1.4,0.9,2.5v4.3h-2v-0.9c-0.4,0.7-1.2,1.1-2.3,1.1c-0.6,0-1.1-0.1-1.5-0.3c-0.4-0.2-0.7-0.5-1-0.8
		c-0.2-0.3-0.3-0.7-0.3-1.2c0-0.7,0.3-1.3,0.8-1.7s1.3-0.6,2.4-0.6h1.7c0-0.5-0.1-0.8-0.4-1.1c-0.3-0.3-0.7-0.4-1.3-0.4
		c-0.4,0-0.8,0.1-1.2,0.2s-0.7,0.3-1,0.5l-0.8-1.5c0.4-0.3,0.9-0.5,1.5-0.7c0.6-0.2,1.2-0.2,1.8-0.2C77.3,84.7,78.2,85,78.8,85.6z
		 M77,90.8c0.3-0.2,0.5-0.4,0.6-0.8v-0.8h-1.5c-0.9,0-1.3,0.3-1.3,0.9c0,0.3,0.1,0.5,0.3,0.7c0.2,0.2,0.5,0.2,0.9,0.2
		C76.3,91,76.7,90.9,77,90.8z M81.6,92.1c-0.3-0.3-0.4-0.6-0.4-1c0-0.4,0.1-0.7,0.4-1c0.3-0.2,0.6-0.4,1-0.4s0.7,0.1,1,0.4
		c0.3,0.2,0.4,0.6,0.4,1c0,0.4-0.1,0.7-0.4,1c-0.3,0.3-0.6,0.4-1,0.4S81.8,92.4,81.6,92.1z M86.7,92c-0.6-0.3-1.1-0.8-1.5-1.4
		c-0.4-0.6-0.5-1.3-0.5-2c0-0.7,0.2-1.4,0.5-2c0.4-0.6,0.8-1,1.5-1.4c0.6-0.3,1.3-0.5,2.1-0.5c0.8,0,1.5,0.2,2.1,0.5
		c0.6,0.3,1.1,0.8,1.5,1.4c0.4,0.6,0.5,1.3,0.5,2c0,0.7-0.2,1.4-0.5,2c-0.4,0.6-0.8,1-1.5,1.4c-0.6,0.3-1.3,0.5-2.1,0.5
		C88.1,92.5,87.4,92.3,86.7,92z M90.3,90.1c0.4-0.4,0.5-0.9,0.5-1.5s-0.2-1.1-0.5-1.5c-0.4-0.4-0.8-0.6-1.4-0.6
		c-0.6,0-1,0.2-1.4,0.6C87.1,87.5,87,88,87,88.6s0.2,1.1,0.5,1.5c0.4,0.4,0.8,0.6,1.4,0.6C89.4,90.7,89.9,90.5,90.3,90.1z
		 M102.1,84.9v7.5H100v-0.9c-0.3,0.3-0.6,0.6-1,0.7c-0.4,0.2-0.8,0.3-1.3,0.3c-1,0-1.8-0.3-2.4-0.9s-0.9-1.4-0.9-2.5v-4.3h2.2v3.9
		c0,1.2,0.5,1.8,1.5,1.8c0.5,0,0.9-0.2,1.3-0.5s0.5-0.8,0.5-1.5v-3.7H102.1z M107.2,85c0.4-0.2,1-0.3,1.5-0.3v2c-0.2,0-0.4,0-0.5,0
		c-0.6,0-1.1,0.2-1.5,0.5c-0.4,0.3-0.5,0.9-0.5,1.6v3.6h-2.2v-7.5h2.1v1C106.4,85.5,106.8,85.2,107.2,85z M116.4,85.2
		c0.6,0.3,1,0.8,1.4,1.4c0.3,0.6,0.5,1.3,0.5,2c0,0.8-0.2,1.5-0.5,2c-0.3,0.6-0.8,1-1.4,1.4c-0.6,0.3-1.2,0.5-1.9,0.5
		c-1,0-1.7-0.3-2.3-0.9v3.5h-2.2V84.9h2.1v0.9c0.5-0.7,1.3-1,2.4-1C115.2,84.7,115.9,84.9,116.4,85.2z M115.5,90.1
		c0.4-0.4,0.5-0.9,0.5-1.5s-0.2-1.1-0.5-1.5s-0.8-0.6-1.4-0.6s-1,0.2-1.4,0.6c-0.4,0.4-0.5,0.9-0.5,1.5s0.2,1.1,0.5,1.5
		c0.4,0.4,0.8,0.6,1.4,0.6S115.2,90.5,115.5,90.1z M125.3,85.6c0.6,0.6,0.9,1.4,0.9,2.5v4.3h-2v-0.9c-0.4,0.7-1.2,1.1-2.3,1.1
		c-0.6,0-1.1-0.1-1.5-0.3c-0.4-0.2-0.7-0.5-1-0.8c-0.2-0.3-0.3-0.7-0.3-1.2c0-0.7,0.3-1.3,0.8-1.7s1.3-0.6,2.4-0.6h1.7
		c0-0.5-0.1-0.8-0.4-1.1c-0.3-0.3-0.7-0.4-1.3-0.4c-0.4,0-0.8,0.1-1.2,0.2s-0.7,0.3-1,0.5l-0.8-1.5c0.4-0.3,0.9-0.5,1.5-0.7
		c0.6-0.2,1.2-0.2,1.8-0.2C123.8,84.7,124.7,85,125.3,85.6z M123.5,90.8c0.3-0.2,0.5-0.4,0.6-0.8v-0.8h-1.5c-0.9,0-1.3,0.3-1.3,0.9
		c0,0.3,0.1,0.5,0.3,0.7c0.2,0.2,0.5,0.2,0.9,0.2C122.8,91,123.2,90.9,123.5,90.8z M131.4,85c0.4-0.2,1-0.3,1.5-0.3v2
		c-0.2,0-0.4,0-0.5,0c-0.6,0-1.1,0.2-1.5,0.5c-0.4,0.3-0.5,0.9-0.5,1.6v3.6h-2.2v-7.5h2.1v1C130.6,85.5,130.9,85.2,131.4,85z
		 M137.4,89.4l-1,1v1.9h-2.2V82h2.2v5.9l3.2-3h2.6l-3.1,3.2l3.4,4.3h-2.6L137.4,89.4z M143.9,92.3c-0.6-0.2-1.1-0.3-1.4-0.6l0.7-1.6
		c0.3,0.2,0.7,0.4,1.2,0.5c0.5,0.1,0.9,0.2,1.4,0.2c0.9,0,1.4-0.2,1.4-0.7c0-0.2-0.1-0.4-0.4-0.5c-0.3-0.1-0.6-0.2-1.2-0.2
		c-0.6-0.1-1.1-0.2-1.5-0.3s-0.7-0.3-1-0.6c-0.3-0.3-0.4-0.7-0.4-1.3c0-0.5,0.1-0.9,0.4-1.3c0.3-0.4,0.7-0.7,1.2-0.9
		s1.2-0.3,1.9-0.3c0.5,0,1.1,0.1,1.6,0.2c0.5,0.1,1,0.3,1.3,0.5l-0.7,1.6c-0.7-0.4-1.4-0.6-2.2-0.6c-0.5,0-0.8,0.1-1,0.2
		c-0.2,0.1-0.4,0.3-0.4,0.5c0,0.2,0.1,0.4,0.4,0.5c0.3,0.1,0.7,0.2,1.2,0.3c0.6,0.1,1.1,0.2,1.5,0.3c0.4,0.1,0.7,0.3,1,0.6
		c0.3,0.3,0.4,0.7,0.4,1.3c0,0.5-0.1,0.9-0.4,1.2c-0.3,0.4-0.7,0.6-1.2,0.8c-0.5,0.2-1.2,0.3-1.9,0.3
		C145.1,92.5,144.5,92.4,143.9,92.3z M150.5,92.1c-0.3-0.3-0.4-0.6-0.4-1c0-0.4,0.1-0.7,0.4-1c0.3-0.2,0.6-0.4,1-0.4s0.7,0.1,1,0.4
		c0.3,0.2,0.4,0.6,0.4,1c0,0.4-0.1,0.7-0.4,1c-0.3,0.3-0.6,0.4-1,0.4S150.8,92.4,150.5,92.1z M155.7,92c-0.6-0.3-1.1-0.8-1.5-1.4
		c-0.4-0.6-0.5-1.3-0.5-2c0-0.7,0.2-1.4,0.5-2c0.4-0.6,0.8-1,1.5-1.4c0.6-0.3,1.3-0.5,2.1-0.5s1.5,0.2,2.1,0.5
		c0.6,0.3,1.1,0.8,1.5,1.4c0.4,0.6,0.5,1.3,0.5,2c0,0.7-0.2,1.4-0.5,2c-0.4,0.6-0.8,1-1.5,1.4s-1.3,0.5-2.1,0.5S156.3,92.3,155.7,92
		z M159.2,90.1c0.4-0.4,0.5-0.9,0.5-1.5s-0.2-1.1-0.5-1.5s-0.8-0.6-1.4-0.6c-0.6,0-1,0.2-1.4,0.6s-0.5,0.9-0.5,1.5s0.2,1.1,0.5,1.5
		s0.8,0.6,1.4,0.6C158.3,90.7,158.8,90.5,159.2,90.1z M166.5,85c0.4-0.2,1-0.3,1.5-0.3v2c-0.2,0-0.4,0-0.5,0c-0.6,0-1.1,0.2-1.5,0.5
		c-0.4,0.3-0.5,0.9-0.5,1.6v3.6h-2.2v-7.5h2.1v1C165.7,85.5,166.1,85.2,166.5,85z M177.1,84.9v6.3c0,1.4-0.4,2.4-1.1,3.1
		s-1.8,1-3.2,1c-0.7,0-1.4-0.1-2.1-0.3c-0.7-0.2-1.2-0.4-1.6-0.8l0.9-1.6c0.3,0.3,0.7,0.5,1.2,0.6c0.5,0.2,1,0.2,1.5,0.2
		c0.8,0,1.3-0.2,1.7-0.5c0.4-0.3,0.5-0.9,0.5-1.5v-0.3c-0.6,0.6-1.4,0.9-2.4,0.9c-0.7,0-1.3-0.2-1.9-0.5c-0.6-0.3-1-0.7-1.4-1.3
		s-0.5-1.2-0.5-1.9s0.2-1.4,0.5-1.9s0.8-1,1.4-1.3c0.6-0.3,1.2-0.5,1.9-0.5c1.1,0,1.9,0.4,2.5,1.1v-1H177.1z M174.3,89.7
		c0.4-0.3,0.6-0.8,0.6-1.3s-0.2-1-0.6-1.3c-0.4-0.3-0.8-0.5-1.4-0.5c-0.6,0-1.1,0.2-1.4,0.5s-0.6,0.8-0.6,1.3s0.2,1,0.6,1.3
		s0.8,0.5,1.4,0.5C173.5,90.2,174,90.1,174.3,89.7z M178.9,92.1c-0.3-0.3-0.4-0.6-0.4-1c0-0.4,0.1-0.7,0.4-1c0.3-0.2,0.6-0.4,1-0.4
		s0.7,0.1,1,0.4c0.3,0.2,0.4,0.6,0.4,1c0,0.4-0.1,0.7-0.4,1c-0.3,0.3-0.6,0.4-1,0.4S179.2,92.4,178.9,92.1z M190.2,84.9v7.5h-2.1
		v-0.9c-0.3,0.3-0.6,0.6-1,0.7c-0.4,0.2-0.8,0.3-1.3,0.3c-1,0-1.8-0.3-2.4-0.9c-0.6-0.6-0.9-1.4-0.9-2.5v-4.3h2.2v3.9
		c0,1.2,0.5,1.8,1.5,1.8c0.5,0,0.9-0.2,1.3-0.5s0.5-0.8,0.5-1.5v-3.7H190.2z M195.5,89.4l-1,1v1.9h-2.2V82h2.2v5.9l3.2-3h2.6
		l-3.1,3.2l3.4,4.3h-2.6L195.5,89.4z M54.2,192.9v9.6h-1.9v-0.8c-0.5,0.6-1.2,0.9-2.2,0.9c-0.7,0-1.3-0.1-1.8-0.4
		c-0.5-0.3-1-0.7-1.3-1.3s-0.5-1.2-0.5-1.9c0-0.7,0.2-1.4,0.5-1.9c0.3-0.5,0.7-1,1.3-1.3c0.5-0.3,1.1-0.4,1.8-0.4
		c0.9,0,1.6,0.3,2.1,0.8v-3.4H54.2z M51.8,200.5c0.3-0.4,0.5-0.8,0.5-1.4c0-0.6-0.2-1.1-0.5-1.4c-0.3-0.4-0.8-0.5-1.3-0.5
		c-0.5,0-0.9,0.2-1.3,0.5c-0.3,0.4-0.5,0.8-0.5,1.4c0,0.6,0.2,1.1,0.5,1.4c0.3,0.4,0.8,0.5,1.3,0.5C51,201,51.4,200.8,51.8,200.5z
		 M61.4,196.2c0.6,0.5,0.9,1.3,0.9,2.3v4h-1.9v-0.9c-0.4,0.7-1.1,1-2.1,1c-0.5,0-1-0.1-1.4-0.3c-0.4-0.2-0.7-0.4-0.9-0.8
		s-0.3-0.7-0.3-1.1c0-0.7,0.2-1.2,0.7-1.5s1.2-0.6,2.3-0.6h1.6c0-0.4-0.1-0.8-0.4-1c-0.3-0.2-0.7-0.4-1.2-0.4
		c-0.4,0-0.7,0.1-1.1,0.2c-0.4,0.1-0.7,0.3-0.9,0.5l-0.7-1.4c0.4-0.3,0.8-0.5,1.4-0.6c0.5-0.1,1.1-0.2,1.6-0.2
		C60,195.4,60.9,195.7,61.4,196.2z M59.7,201c0.3-0.2,0.5-0.4,0.6-0.7v-0.7h-1.4c-0.8,0-1.2,0.3-1.2,0.8c0,0.3,0.1,0.5,0.3,0.6
		c0.2,0.2,0.5,0.2,0.8,0.2C59.1,201.3,59.4,201.2,59.7,201z M68.7,202.2c-0.2,0.1-0.4,0.3-0.7,0.3c-0.3,0.1-0.6,0.1-0.9,0.1
		c-0.8,0-1.5-0.2-1.9-0.6c-0.5-0.4-0.7-1-0.7-1.9v-2.9h-1.1v-1.6h1.1V194h2v1.7h1.7v1.6h-1.7v2.8c0,0.3,0.1,0.5,0.2,0.7
		c0.2,0.2,0.4,0.2,0.6,0.2c0.3,0,0.6-0.1,0.8-0.3L68.7,202.2z M75.1,196.2c0.6,0.5,0.9,1.3,0.9,2.3v4h-1.9v-0.9
		c-0.4,0.7-1.1,1-2.1,1c-0.5,0-1-0.1-1.4-0.3c-0.4-0.2-0.7-0.4-0.9-0.8s-0.3-0.7-0.3-1.1c0-0.7,0.2-1.2,0.7-1.5s1.2-0.6,2.3-0.6H74
		c0-0.4-0.1-0.8-0.4-1c-0.3-0.2-0.7-0.4-1.2-0.4c-0.4,0-0.7,0.1-1.1,0.2c-0.4,0.1-0.7,0.3-0.9,0.5l-0.7-1.4c0.4-0.3,0.8-0.5,1.4-0.6
		c0.5-0.1,1.1-0.2,1.6-0.2C73.7,195.4,74.5,195.7,75.1,196.2z M73.4,201c0.3-0.2,0.5-0.4,0.6-0.7v-0.7h-1.4c-0.8,0-1.2,0.3-1.2,0.8
		c0,0.3,0.1,0.5,0.3,0.6c0.2,0.2,0.5,0.2,0.8,0.2C72.8,201.3,73.1,201.2,73.4,201z M77.7,202.3c-0.2-0.2-0.4-0.5-0.4-0.9
		c0-0.4,0.1-0.7,0.4-0.9c0.2-0.2,0.5-0.3,0.9-0.3c0.4,0,0.7,0.1,0.9,0.3s0.4,0.5,0.4,0.9c0,0.4-0.1,0.7-0.4,0.9
		c-0.2,0.2-0.5,0.4-0.9,0.4C78.2,202.6,77.9,202.5,77.7,202.3z M87.1,195.9c0.5,0.3,1,0.7,1.3,1.3c0.3,0.5,0.5,1.2,0.5,1.9
		c0,0.7-0.2,1.3-0.5,1.9c-0.3,0.5-0.7,1-1.3,1.3c-0.5,0.3-1.1,0.4-1.8,0.4c-1,0-1.7-0.3-2.2-0.9v0.8h-1.9v-9.6h2v3.4
		c0.5-0.6,1.2-0.8,2.1-0.8C86,195.4,86.6,195.6,87.1,195.9z M86.3,200.5c0.3-0.4,0.5-0.8,0.5-1.4c0-0.6-0.2-1.1-0.5-1.4
		c-0.3-0.4-0.8-0.5-1.3-0.5c-0.5,0-0.9,0.2-1.3,0.5c-0.3,0.4-0.5,0.8-0.5,1.4c0,0.6,0.2,1.1,0.5,1.4c0.3,0.4,0.8,0.5,1.3,0.5
		C85.5,201,86,200.8,86.3,200.5z M91.5,202.2c-0.6-0.3-1-0.7-1.4-1.3c-0.3-0.5-0.5-1.2-0.5-1.9s0.2-1.3,0.5-1.9
		c0.3-0.5,0.8-1,1.4-1.3c0.6-0.3,1.2-0.5,2-0.5c0.7,0,1.4,0.2,2,0.5c0.6,0.3,1,0.7,1.4,1.3c0.3,0.5,0.5,1.2,0.5,1.9
		s-0.2,1.3-0.5,1.9c-0.3,0.5-0.8,1-1.4,1.3c-0.6,0.3-1.2,0.5-2,0.5C92.8,202.6,92.1,202.5,91.5,202.2z M94.8,200.5
		c0.3-0.4,0.5-0.8,0.5-1.4c0-0.6-0.2-1.1-0.5-1.4c-0.3-0.4-0.8-0.5-1.3-0.5s-0.9,0.2-1.3,0.5c-0.3,0.4-0.5,0.8-0.5,1.4
		c0,0.6,0.2,1.1,0.5,1.4c0.3,0.4,0.8,0.5,1.3,0.5S94.5,200.8,94.8,200.5z M100.1,202.2c-0.6-0.3-1-0.7-1.4-1.3
		c-0.3-0.5-0.5-1.2-0.5-1.9s0.2-1.3,0.5-1.9c0.3-0.5,0.8-1,1.4-1.3c0.6-0.3,1.2-0.5,2-0.5c0.7,0,1.4,0.2,2,0.5
		c0.6,0.3,1,0.7,1.4,1.3c0.3,0.5,0.5,1.2,0.5,1.9s-0.2,1.3-0.5,1.9c-0.3,0.5-0.8,1-1.4,1.3c-0.6,0.3-1.2,0.5-2,0.5
		C101.3,202.6,100.6,202.5,100.1,202.2z M103.3,200.5c0.3-0.4,0.5-0.8,0.5-1.4c0-0.6-0.2-1.1-0.5-1.4c-0.3-0.4-0.8-0.5-1.3-0.5
		s-0.9,0.2-1.3,0.5c-0.3,0.4-0.5,0.8-0.5,1.4c0,0.6,0.2,1.1,0.5,1.4c0.3,0.4,0.8,0.5,1.3,0.5S103,200.8,103.3,200.5z M110.2,199.8
		l-1,1v1.8h-2v-9.6h2v5.5l3-2.8h2.4l-2.9,3l3.2,4h-2.5L110.2,199.8z M126.6,195.5l-2.5,7h-1.9l-1.6-4.3l-1.6,4.3H117l-2.5-7h1.9
		l1.7,4.7l1.7-4.7h1.7l1.7,4.7l1.7-4.7H126.6z M133.9,196.2c0.5,0.5,0.8,1.3,0.8,2.3v4h-2v-3.7c0-0.6-0.1-1-0.4-1.2
		c-0.2-0.3-0.6-0.4-1.1-0.4c-0.5,0-0.9,0.2-1.2,0.5s-0.5,0.8-0.5,1.4v3.5h-2v-9.6h2v3.4c0.3-0.3,0.6-0.5,1-0.6
		c0.4-0.1,0.8-0.2,1.2-0.2C132.7,195.4,133.4,195.7,133.9,196.2z M143.5,199.6h-5.3c0.1,0.4,0.3,0.8,0.7,1c0.4,0.3,0.8,0.4,1.3,0.4
		c0.4,0,0.7-0.1,1-0.2c0.3-0.1,0.5-0.3,0.8-0.5l1.1,1.2c-0.7,0.8-1.6,1.1-2.9,1.1c-0.8,0-1.5-0.2-2.1-0.5c-0.6-0.3-1.1-0.7-1.4-1.3
		c-0.3-0.5-0.5-1.2-0.5-1.9c0-0.7,0.2-1.3,0.5-1.9c0.3-0.5,0.8-1,1.3-1.3s1.2-0.5,1.9-0.5c0.7,0,1.3,0.1,1.9,0.4
		c0.6,0.3,1,0.7,1.3,1.3c0.3,0.6,0.5,1.2,0.5,1.9C143.5,199.1,143.5,199.3,143.5,199.6z M138.7,197.4c-0.3,0.3-0.5,0.6-0.6,1.1h3.4
		c-0.1-0.4-0.3-0.8-0.6-1.1c-0.3-0.3-0.7-0.4-1.1-0.4C139.4,197,139,197.1,138.7,197.4z M151.2,196.2c0.5,0.5,0.8,1.3,0.8,2.3v4h-2
		v-3.7c0-0.6-0.1-1-0.4-1.2c-0.2-0.3-0.6-0.4-1.1-0.4c-0.5,0-0.9,0.2-1.2,0.5s-0.5,0.8-0.5,1.4v3.5h-2v-7h1.9v0.8
		c0.3-0.3,0.6-0.5,1-0.7s0.8-0.2,1.3-0.2C150,195.4,150.7,195.7,151.2,196.2z M153.7,202.3c-0.2-0.2-0.4-0.5-0.4-0.9
		c0-0.4,0.1-0.7,0.4-0.9c0.2-0.2,0.5-0.3,0.9-0.3s0.7,0.1,0.9,0.3c0.2,0.2,0.4,0.5,0.4,0.9c0,0.4-0.1,0.7-0.4,0.9
		c-0.2,0.2-0.5,0.4-0.9,0.4S153.9,202.5,153.7,202.3z M158.5,202.2c-0.6-0.3-1-0.7-1.4-1.3c-0.3-0.5-0.5-1.2-0.5-1.9
		s0.2-1.3,0.5-1.9c0.3-0.5,0.8-1,1.4-1.3s1.2-0.5,2-0.5c0.7,0,1.4,0.2,2,0.5c0.6,0.3,1,0.7,1.4,1.3c0.3,0.5,0.5,1.2,0.5,1.9
		s-0.2,1.3-0.5,1.9c-0.3,0.5-0.8,1-1.4,1.3c-0.6,0.3-1.2,0.5-2,0.5C159.7,202.6,159.1,202.5,158.5,202.2z M161.8,200.5
		c0.3-0.4,0.5-0.8,0.5-1.4c0-0.6-0.2-1.1-0.5-1.4c-0.3-0.4-0.8-0.5-1.3-0.5c-0.5,0-0.9,0.2-1.3,0.5c-0.3,0.4-0.5,0.8-0.5,1.4
		c0,0.6,0.2,1.1,0.5,1.4c0.3,0.4,0.8,0.5,1.3,0.5C161,201,161.4,200.8,161.8,200.5z M168.6,195.7c0.4-0.2,0.9-0.3,1.4-0.3v1.9
		c-0.2,0-0.4,0-0.5,0c-0.6,0-1,0.2-1.4,0.5s-0.5,0.8-0.5,1.5v3.3h-2v-7h1.9v0.9C167.8,196.1,168.2,195.9,168.6,195.7z M178.4,195.5
		v5.8c0,1.3-0.3,2.2-1,2.9c-0.7,0.6-1.6,0.9-2.9,0.9c-0.7,0-1.3-0.1-1.9-0.2s-1.1-0.4-1.5-0.7l0.8-1.5c0.3,0.2,0.7,0.4,1.1,0.6
		c0.5,0.1,0.9,0.2,1.4,0.2c0.7,0,1.2-0.2,1.6-0.5c0.3-0.3,0.5-0.8,0.5-1.4v-0.3c-0.5,0.6-1.3,0.9-2.2,0.9c-0.6,0-1.2-0.1-1.8-0.4
		c-0.5-0.3-1-0.7-1.3-1.2c-0.3-0.5-0.5-1.1-0.5-1.8c0-0.7,0.2-1.3,0.5-1.8c0.3-0.5,0.7-0.9,1.3-1.2c0.5-0.3,1.1-0.4,1.8-0.4
		c1,0,1.8,0.3,2.3,1v-0.9H178.4z M175.8,200.1c0.3-0.3,0.5-0.7,0.5-1.2s-0.2-0.9-0.5-1.2c-0.3-0.3-0.8-0.5-1.3-0.5
		c-0.5,0-1,0.2-1.3,0.5c-0.3,0.3-0.5,0.7-0.5,1.2s0.2,0.9,0.5,1.2s0.8,0.5,1.3,0.5C175.1,200.5,175.5,200.4,175.8,200.1z
		 M180.1,202.3c-0.2-0.2-0.4-0.5-0.4-0.9c0-0.4,0.1-0.7,0.4-0.9c0.2-0.2,0.5-0.3,0.9-0.3s0.7,0.1,0.9,0.3c0.2,0.2,0.4,0.5,0.4,0.9
		c0,0.4-0.1,0.7-0.4,0.9c-0.2,0.2-0.5,0.4-0.9,0.4S180.4,202.5,180.1,202.3z M190.6,195.5v7h-1.9v-0.8c-0.3,0.3-0.6,0.5-1,0.7
		c-0.4,0.2-0.8,0.2-1.2,0.2c-0.9,0-1.6-0.3-2.2-0.8c-0.5-0.5-0.8-1.3-0.8-2.4v-4h2v3.7c0,1.1,0.5,1.7,1.4,1.7c0.5,0,0.9-0.2,1.2-0.5
		c0.3-0.3,0.4-0.8,0.4-1.4v-3.5H190.6z M195.5,199.8l-1,1v1.8h-2v-9.6h2v5.5l3-2.8h2.4l-2.9,3l3.2,4h-2.5L195.5,199.8z"/>
</g>
<g id="orange">
	
		<linearGradient id="SVGID_5_" gradientUnits="userSpaceOnUse" x1="176.7435" y1="94.9752" x2="216.4997" y2="55.2189" gradientTransform="matrix(1 0 0 -1 0 252)">
		<stop  offset="0" style="stop-color:#FEEC31"/>
		<stop  offset="0.3707" style="stop-color:#F08F33"/>
		<stop  offset="1" style="stop-color:#E2322E"/>
	</linearGradient>
	<path class="st5" d="M220.1,172.6l-41.8-15.9c-0.7-0.3-1.6,0-1.9,0.7c-0.2,0.4-0.2,0.8,0,1.1l16,41.7c0.3,0.8,1.1,1.2,1.9,0.9
		c0.4-0.1,0.8-0.5,0.9-0.9l3.8-14.3l10.9,10.7c1.9,1.9,4.9,1.9,6.7,0c1.9-1.9,1.9-4.9,0-6.7l-10.8-10.8l14.3-3.8
		c0.8-0.2,1.3-1,1-1.8C220.9,173.2,220.6,172.8,220.1,172.6z"/>
</g>
</svg>
