<svg id="Layer_1" data-name="Layer 1" xmlns="http://www.w3.org/2000/svg" xmlns:xlink="http://www.w3.org/1999/xlink" viewBox="0 0 113.39 113.39"><defs><style>.cls-1,.cls-2,.cls-3,.cls-4,.cls-5{fill:none;stroke-linecap:round;stroke-miterlimit:10;}.cls-1,.cls-4{stroke-width:3.22px;}.cls-1{stroke:url(#linear-gradient);}.cls-2,.cls-3{stroke-width:3.04px;}.cls-2{stroke:url(#linear-gradient-2);}.cls-3{stroke:url(#linear-gradient-3);}.cls-4{stroke:url(#linear-gradient-4);}.cls-5{stroke-width:3.09px;stroke:url(#linear-gradient-5);}.cls-6{fill:url(#linear-gradient-6);}</style><linearGradient id="linear-gradient" x1="51.6" y1="59.77" x2="90.23" y2="59.77" gradientTransform="matrix(1, 0, 0, -1, 0, 113.92)" gradientUnits="userSpaceOnUse"><stop offset="0" stop-color="#1f9ad7"/><stop offset="0.03" stop-color="#2492d1"/><stop offset="0.14" stop-color="#1773b8"/><stop offset="0.2" stop-color="#1867af"/><stop offset="0.49" stop-color="#434092"/><stop offset="0.74" stop-color="#414394"/></linearGradient><linearGradient id="linear-gradient-2" x1="51.69" y1="49.18" x2="84.75" y2="49.18" gradientTransform="matrix(1, 0, 0, -1, 0, 113.92)" gradientUnits="userSpaceOnUse"><stop offset="0" stop-color="#1f9ad7"/><stop offset="0.48" stop-color="#1867af"/><stop offset="1" stop-color="#434092"/></linearGradient><linearGradient id="linear-gradient-3" x1="51.69" y1="42.73" x2="77.33" y2="42.73" xlink:href="#linear-gradient-2"/><linearGradient id="linear-gradient-4" x1="23.16" y1="53.23" x2="48.6" y2="53.23" xlink:href="#linear-gradient-2"/><linearGradient id="linear-gradient-5" x1="35.88" y1="59.65" x2="35.88" y2="46.17" gradientTransform="matrix(1, 0, 0, -1, 0, 113.92)" gradientUnits="userSpaceOnUse"><stop offset="0" stop-color="#f7a935"/><stop offset="1" stop-color="#e73a31"/></linearGradient><linearGradient id="linear-gradient-6" x1="11.69" y1="56.69" x2="101.69" y2="56.69" gradientUnits="userSpaceOnUse"><stop offset="0" stop-color="#1d9ad7"/><stop offset="0.48" stop-color="#1366af"/><stop offset="1" stop-color="#423f92"/></linearGradient></defs><title>tab2-step2</title><rect class="cls-1" x="53.21" y="50.5" width="35.41" height="7.3" rx="0.6" ry="0.6"/><line class="cls-2" x1="53.21" y1="64.75" x2="83.23" y2="64.75"/><line class="cls-3" x1="53.21" y1="71.19" x2="75.81" y2="71.19"/><rect class="cls-4" x="24.77" y="49.58" width="22.23" height="22.23" rx="1.52" ry="1.52"/><polyline class="cls-5" points="42.92 55.81 33.16 65.57 28.84 61.25"/><path class="cls-6" d="M96.74,19.86H16.65a5,5,0,0,0-5,5V88.57a5,5,0,0,0,5,5H96.74a5,5,0,0,0,5-5V24.82A5,5,0,0,0,96.74,19.86ZM16.65,24.34H96.74a.48.48,0,0,1,.48.48v6.42h-81V24.82A.48.48,0,0,1,16.65,24.34ZM96.74,89H16.65a.48.48,0,0,1-.48-.48V35.72h81V88.57A.48.48,0,0,1,96.74,89Z"/></svg>