<svg id="Layer_1" data-name="Layer 1" xmlns="http://www.w3.org/2000/svg" xmlns:xlink="http://www.w3.org/1999/xlink" viewBox="0 0 113.39 113.39"><defs><style>.cls-1{fill:url(#linear-gradient);}.cls-2{fill:url(#linear-gradient-2);}.cls-3{fill:url(#linear-gradient-3);}.cls-4{fill:url(#linear-gradient-4);}.cls-5{fill:url(#linear-gradient-5);}</style><linearGradient id="linear-gradient" x1="22.31" y1="39.43" x2="91.08" y2="39.43" gradientUnits="userSpaceOnUse"><stop offset="0" stop-color="#1d9ad7"/><stop offset="0.48" stop-color="#1366af"/><stop offset="1" stop-color="#423f92"/></linearGradient><linearGradient id="linear-gradient-2" x1="22.09" y1="85.44" x2="90.86" y2="85.44" xlink:href="#linear-gradient"/><linearGradient id="linear-gradient-3" x1="22.45" y1="62.43" x2="91.08" y2="62.43" gradientUnits="userSpaceOnUse"><stop offset="0" stop-color="#f7a834"/><stop offset="0.18" stop-color="#f59a33"/><stop offset="0.53" stop-color="#f07632"/><stop offset="0.99" stop-color="#e73b30"/><stop offset="1" stop-color="#e73a30"/></linearGradient><linearGradient id="linear-gradient-4" x1="11.69" y1="56.69" x2="101.69" y2="56.69" xlink:href="#linear-gradient"/><linearGradient id="linear-gradient-5" x1="71.41" y1="68.65" x2="71.41" y2="92.24" xlink:href="#linear-gradient-3"/></defs><title>tab2-step3</title><path class="cls-1" d="M87.4,47H26a3.68,3.68,0,0,1-3.68-3.68V34.1a2.24,2.24,0,0,1,4.48,0v8.43H86.6V34.1a2.24,2.24,0,0,1,4.48,0v9.23A3.68,3.68,0,0,1,87.4,47Z"/><path class="cls-2" d="M88.62,93a2.24,2.24,0,0,1-2.24-2.24V82.34H26.56v8.43a2.24,2.24,0,0,1-4.48,0V81.54a3.68,3.68,0,0,1,3.68-3.68H87.18a3.68,3.68,0,0,1,3.68,3.68v9.23A2.24,2.24,0,0,1,88.62,93Z"/><path class="cls-3" d="M89.64,53.41H23.89a1.44,1.44,0,0,0-1.44,1.44V70a1.44,1.44,0,0,0,1.44,1.44H89.64A1.44,1.44,0,0,0,91.08,70V54.85A1.44,1.44,0,0,0,89.64,53.41Zm-61,11V64a1.35,1.35,0,0,1-1.1.46,1.83,1.83,0,0,1-.9-.22A1.59,1.59,0,0,1,26,63.6a2.1,2.1,0,0,1,0-1.91,1.58,1.58,0,0,1,.63-.64,1.83,1.83,0,0,1,.9-.22,1.35,1.35,0,0,1,1.06.43V59.54h1l0,4.87Zm5.06,0h-1V64a1.14,1.14,0,0,1-1.08.49,1.67,1.67,0,0,1-.7-.14,1,1,0,0,1-.62-.93.92.92,0,0,1,.37-.77,1.88,1.88,0,0,1,1.14-.28h.81a.66.66,0,0,0-.2-.51.9.9,0,0,0-.61-.18,1.77,1.77,0,0,0-.46,0,1.43,1.43,0,0,0-.46.24l-.37-.71a2.23,2.23,0,0,1,.69-.32,3.12,3.12,0,0,1,.83-.11,1.83,1.83,0,0,1,1.26.39,1.49,1.49,0,0,1,.44,1.18Zm2.83,0h0a1.9,1.9,0,0,1-.46.06,1.37,1.37,0,0,1-1-.32,1.22,1.22,0,0,1-.34-.94V61.7h-.54v-.79h.54V60.1h1V61h.88v.74h-.88v1.44a.49.49,0,0,0,.11.34.43.43,0,0,0,.32.12.66.66,0,0,0,.41-.13l.28.72A1,1,0,0,1,36.55,64.4Zm3.07,0V64a1.14,1.14,0,0,1-1.08.49,1.68,1.68,0,0,1-.7-.14,1,1,0,0,1-.62-.93.92.92,0,0,1,.37-.77,1.88,1.88,0,0,1,1.14-.28h.81a.66.66,0,0,0-.2-.51.9.9,0,0,0-.61-.18,1.77,1.77,0,0,0-.55.09,1.43,1.43,0,0,0-.46.24l-.35-.73a2.23,2.23,0,0,1,.69-.32,3.12,3.12,0,0,1,.83-.11,1.83,1.83,0,0,1,1.26.39,1.49,1.49,0,0,1,.44,1.18l0,2Zm2.75-.13a.65.65,0,0,1-.9,0,.62.62,0,0,1-.18-.46.6.6,0,0,1,.18-.46.68.68,0,0,1,.9,0,.6.6,0,0,1,.18.46A.62.62,0,0,1,42.37,64.28Zm4.53-.67h0a1.64,1.64,0,0,1-.63.64,1.81,1.81,0,0,1-.9.23A1.36,1.36,0,0,1,44.22,64v.41h-1V59.54h1v1.71a1.36,1.36,0,0,1,1.15-.42,1.8,1.8,0,0,1,.9.23,1.63,1.63,0,0,1,.63.64A2.1,2.1,0,0,1,46.9,63.61Zm4.31-.68H48.54a.83.83,0,0,0,.34.52,1.13,1.13,0,0,0,.67.19,1.36,1.36,0,0,0,.49-.08,1.19,1.19,0,0,0,.4-.26l.54.59a1.83,1.83,0,0,1-1.45.57,2.3,2.3,0,0,1-1.06-.23,1.7,1.7,0,0,1-.71-.65,1.89,1.89,0,0,1,0-1.87,1.72,1.72,0,0,1,.68-.65,2.09,2.09,0,0,1,1.9,0,1.63,1.63,0,0,1,.66.64,1.9,1.9,0,0,1,.24,1A.85.85,0,0,0,51.21,62.93Zm2.61,1.47h0a1.9,1.9,0,0,1-.46.06,1.37,1.37,0,0,1-1-.32,1.22,1.22,0,0,1-.34-.94V61.7h-.54v-.79H52V60.1h1V61h.88v.74H53v1.44a.49.49,0,0,0,.11.34.43.43,0,0,0,.32.12.66.66,0,0,0,.41-.13l.28.72A1,1,0,0,1,53.82,64.4Zm2.77,0h0a1.9,1.9,0,0,1-.46.06,1.37,1.37,0,0,1-1-.32,1.22,1.22,0,0,1-.34-.94V61.7h-.51v-.79h.54V60.1h1V61h.88v.74h-.88v1.44a.49.49,0,0,0,.11.34.43.43,0,0,0,.32.12.66.66,0,0,0,.41-.13l.28.72A1,1,0,0,1,56.59,64.4Zm4.26-1.46H58.19a.83.83,0,0,0,.34.52,1.13,1.13,0,0,0,.67.19,1.35,1.35,0,0,0,.49-.08,1.19,1.19,0,0,0,.4-.26l.54.59a1.83,1.83,0,0,1-1.45.57,2.3,2.3,0,0,1-1.06-.23,1.7,1.7,0,0,1-.71-.65,1.89,1.89,0,0,1,0-1.89,1.72,1.72,0,0,1,.68-.65,2.09,2.09,0,0,1,1.9,0,1.63,1.63,0,0,1,.66.64,1.9,1.9,0,0,1,.24,1,.82.82,0,0,1,0,.24Zm2.89-1.16h-.23a.93.93,0,0,0-.69.25,1,1,0,0,0-.25.74v1.66h-1V60.88h1v.46a1.15,1.15,0,0,1,.49-.39,1.85,1.85,0,0,1,.72-.13Zm1.42,2.5h0a.65.65,0,0,1-.9,0,.62.62,0,0,1-.18-.46.6.6,0,0,1,.18-.46.68.68,0,0,1,.9,0,.6.6,0,0,1,.18.46A.62.62,0,0,1,65.16,64.28Zm4.21-.71,0,0a1.74,1.74,0,0,1-.69.65,2.25,2.25,0,0,1-2,0,1.73,1.73,0,0,1-.69-.65,1.88,1.88,0,0,1,0-1.87,1.73,1.73,0,0,1,.69-.65,2.25,2.25,0,0,1,2,0,1.74,1.74,0,0,1,.71.63A1.88,1.88,0,0,1,69.37,63.57Zm3.1-1.79h-.23a.93.93,0,0,0-.69.25,1,1,0,0,0-.25.74v1.66h-1V60.88h1v.46a1.15,1.15,0,0,1,.49-.39,1.85,1.85,0,0,1,.72-.13Zm4.21,2a1.89,1.89,0,0,1-.5,1.44,2.09,2.09,0,0,1-1.48.47,3.68,3.68,0,0,1-1-.12,2.12,2.12,0,0,1-.76-.36l.41-.73a1.67,1.67,0,0,0,.56.29,2.25,2.25,0,0,0,.68.11,1.11,1.11,0,0,0,.78-.18,1,1,0,0,0,.25-.72V63.8a1.43,1.43,0,0,1-1.11.44,1.88,1.88,0,0,1-.89-.21,1.62,1.62,0,0,1-.64-.6,1.8,1.8,0,0,1,0-1.78,1.62,1.62,0,0,1,.64-.6,1.88,1.88,0,0,1,.89-.21,1.4,1.4,0,0,1,1.17.5v-.45h1Zm1.79.5v0a.65.65,0,0,1-.9,0,.62.62,0,0,1-.18-.46.6.6,0,0,1,.18-.46.68.68,0,0,1,.9,0,.6.6,0,0,1,.18.46A.62.62,0,0,1,78.47,64.28Zm3.38.09V64a1.37,1.37,0,0,1-.48.35,1.53,1.53,0,0,1-.61.12,1.5,1.5,0,0,1-1.1-.4,1.59,1.59,0,0,1-.41-1.19v-2h1V62.7c0,.57.24.85.71.85a.77.77,0,0,0,.59-.24,1,1,0,0,0,.22-.71V60.88h1l.08,3.49Zm4.58,0L85.37,63l-.49.49v.9h-1V59.54h1V62.3l1.49-1.42h1.22l-1.47,1.49,1.6,2Zm-26.8-2.56a.84.84,0,0,1,.29.53H58.18a.84.84,0,0,1,.29-.54.88.88,0,0,1,.58-.2A.86.86,0,0,1,59.63,61.81Zm15.79.13a.89.89,0,0,1,0,1.25.94.94,0,0,1-.67.24,1,1,0,0,1-.67-.24h0a.88.88,0,0,1,0-1.24,1,1,0,0,1,.67-.24A.94.94,0,0,1,75.42,61.94ZM38.84,63h.7v.36a.67.67,0,0,1-.29.36.88.88,0,0,1-.46.12.7.7,0,0,1-.42-.11.37.37,0,0,1-.11-.36Q38.26,62.93,38.84,63Zm29.47-1a1.13,1.13,0,0,1,0,1.42.92.92,0,0,1-1.29,0A1.11,1.11,0,0,1,67,62a.86.86,0,0,1,.65-.27A.85.85,0,0,1,68.31,62ZM50,61.81a.84.84,0,0,1,.29.53H48.5a.84.84,0,0,1,.29-.54.88.88,0,0,1,.58-.2A.86.86,0,0,1,50,61.81ZM28.39,62a1.11,1.11,0,0,1,0,1.42.85.85,0,0,1-.64.27.87.87,0,0,1-.65-.27,1.11,1.11,0,0,1,0-1.42.86.86,0,0,1,.65-.27A.85.85,0,0,1,28.39,62ZM45.8,62a1.13,1.13,0,0,1,0,1.42.92.92,0,0,1-1.29,0,1.13,1.13,0,0,1,0-1.42.91.91,0,0,1,1.29,0ZM32,62.92h.7v.36a.67.67,0,0,1-.29.36.88.88,0,0,1-.46.12.7.7,0,0,1-.42-.11.37.37,0,0,1-.15-.31Q31.37,62.93,32,62.92Z"/><path class="cls-4" d="M96.74,19.86H16.65a5,5,0,0,0-5,5V88.57a5,5,0,0,0,5,5H96.74a5,5,0,0,0,5-5V24.82A5,5,0,0,0,96.74,19.86Zm-65.91,69h0a.71.71,0,0,1-.26.16h-.49a.71.71,0,0,1-.26-.16.89.89,0,0,1,0-1.13.72.72,0,0,1,1,0A.89.89,0,0,1,30.83,88.89Zm3.43,0a.52.52,0,0,1-.14.2h-.85a.28.28,0,0,1-.07-.19q0-.33.5-.33h.55Zm5.45,0a.52.52,0,0,1-.14.2h-.85a.28.28,0,0,1-.07-.19q0-.33.5-.33h.55Zm5,0a.72.72,0,0,1-.23.15h-.55a.72.72,0,0,1-.23-.15.9.9,0,0,1,0-1.13.72.72,0,0,1,1,0A.9.9,0,0,1,44.67,88.89Zm3.41,0a.68.68,0,0,1-.23.15h-.58a.68.68,0,0,1-.23-.15.89.89,0,0,1,0-1.13.69.69,0,0,1,.51-.21.68.68,0,0,1,.51.21.9.9,0,0,1,0,1.13Zm3.4,0a.68.68,0,0,1-.23.15h-.57a.68.68,0,0,1-.23-.15.89.89,0,0,1,0-1.13.69.69,0,0,1,.51-.21.68.68,0,0,1,.51.21A.9.9,0,0,1,51.47,88.89Zm2.35.15v0l.39-.38.35.42Zm1.75,0-.74-.93L56,87,56.7,89ZM58,89,58.37,88,58.75,89Zm5.28,0H62v-.71a.78.78,0,0,1,.18-.56.65.65,0,0,1,.49-.19.53.53,0,0,1,.42.16.73.73,0,0,1,.15.5Zm2.84-1.56a.69.69,0,0,1,.46.16.67.67,0,0,1,.23.42H65.39a.66.66,0,0,1,.23-.43v0A.7.7,0,0,1,66.09,87.49Zm4,1.56H68.87v-.71a.78.78,0,0,1,.18-.56.65.65,0,0,1,.49-.19.53.53,0,0,1,.42.16.73.73,0,0,1,.15.5Zm7.75-.15a.68.68,0,0,1-.24.15h-.57a.68.68,0,0,1-.25-.16.89.89,0,0,1,0-1.13.69.69,0,0,1,.54-.2.68.68,0,0,1,.51.21.9.9,0,0,1,0,1.13Zm3.56.15H80.29v-.72a.78.78,0,0,1,.16-.55.57.57,0,0,1,.44-.19q.53,0,.53.66Zm1.92,0H82.2v-.72a.78.78,0,0,1,.16-.55.58.58,0,0,1,.45-.19.48.48,0,0,1,.39.16.78.78,0,0,1,.14.5Zm13.87-.48a.48.48,0,0,1-.48.48H84.13v-.92a1.25,1.25,0,0,0-.31-.93,1.13,1.13,0,0,0-.72-.31,1.36,1.36,0,0,0-.58.12,1.15,1.15,0,0,0-.44.34A.94.94,0,0,0,81.7,87a1.2,1.2,0,0,0-.54-.12,1.29,1.29,0,0,0-.5.09,1,1,0,0,0-.38.27v-.32h-.78V89h-.84a1.49,1.49,0,0,0,0-1.46,1.37,1.37,0,0,0-.55-.51,1.78,1.78,0,0,0-1.56,0,1.36,1.36,0,0,0-.55.51A1.49,1.49,0,0,0,76,89h-.47l-.59-.32a.67.67,0,0,1-.34.32H74a.7.7,0,0,1-.22-.15.87.87,0,0,1,0-1.13.71.71,0,0,1,.52-.21.69.69,0,0,1,.63.38l.63-.34a1.09,1.09,0,0,0-.48-.53,1.56,1.56,0,0,0-.78-.19,1.72,1.72,0,0,0-.78.19A1.41,1.41,0,0,0,73,89h-.54a.47.47,0,0,0-.1-.15.54.54,0,0,0-.72,0,.47.47,0,0,0-.1.15h-.62v-.92a1.24,1.24,0,0,0-.32-.93,1.15,1.15,0,0,0-.8-.32,1.4,1.4,0,0,0-.52.09,1.08,1.08,0,0,0-.37.28v-.33h-.78V89h-1l-.2-.22a.94.94,0,0,1-.31.2h-.7a.9.9,0,0,1-.22-.1.66.66,0,0,1-.27-.41h2.11c0-.11,0-.27,0-.27a1.51,1.51,0,0,0-.19-.78,1.29,1.29,0,0,0-.52-.51,1.65,1.65,0,0,0-1.5,0,1.36,1.36,0,0,0-.54.51,1.43,1.43,0,0,0-.19.78,1.41,1.41,0,0,0,.19.78H64v-.92a1.24,1.24,0,0,0-.32-.93,1.15,1.15,0,0,0-.81-.32,1.41,1.41,0,0,0-.5.09,1.07,1.07,0,0,0-.39.25V85.87h-.78V89H60l.77-2.12H60l-.68,1.89-.66-1.89H58l-.69,1.89-.61-1.89H55l-1.18,1.12V85.87H53V89h-.75a1.49,1.49,0,0,0,0-1.46,1.37,1.37,0,0,0-.55-.51,1.78,1.78,0,0,0-1.56,0,1.36,1.36,0,0,0-.55.51,1.49,1.49,0,0,0,0,1.46h-.74a1.49,1.49,0,0,0,0-1.46,1.37,1.37,0,0,0-.55-.51,1.78,1.78,0,0,0-1.56,0,1.36,1.36,0,0,0-.55.51,1.49,1.49,0,0,0,0,1.46h-.69a1.66,1.66,0,0,0,0-1.47,1.28,1.28,0,0,0-.5-.51,1.43,1.43,0,0,0-.75-.18,1.08,1.08,0,0,0-.84.34V85.87h-.78V89H42a.47.47,0,0,0-.1-.15.54.54,0,0,0-.72,0,.48.48,0,0,0-.1.15h-.6v-.91a1.18,1.18,0,0,0-.35-.94,1.46,1.46,0,0,0-1-.35,2.46,2.46,0,0,0-.65.09,1.75,1.75,0,0,0-.55.25l.29.57a1.15,1.15,0,0,1,.37-.19,1.4,1.4,0,0,1,.44-.07.71.71,0,0,1,.48.14.51.51,0,0,1,.16.41h-.65a1.5,1.5,0,0,0-.9.23.73.73,0,0,0-.3.62.77.77,0,0,0,0,.16h-.47l0,0-.09,0h-.43l-.06,0a.38.38,0,0,1-.09-.27V87.6h.69V87h-.69V86.3h-.78V87H35.5v.64h.4v1.12a1,1,0,0,0,0,.31h-.86v-.91a1.18,1.18,0,0,0-.35-.94,1.46,1.46,0,0,0-1-.35,2.46,2.46,0,0,0-.65.09,1.75,1.75,0,0,0-.55.25l.29.57a1.15,1.15,0,0,1,.37-.19,1.4,1.4,0,0,1,.44-.07.71.71,0,0,1,.48.14.51.51,0,0,1,.16.41H33.6a1.5,1.5,0,0,0-.9.23.73.73,0,0,0-.3.62.78.78,0,0,0,0,.16h-.56V85.87H31v1.35a1.07,1.07,0,0,0-.83-.34,1.46,1.46,0,0,0-.72.18,1.26,1.26,0,0,0-.5.51A1.67,1.67,0,0,0,29,89H16.65a.48.48,0,0,1-.48-.48V35.72h15v.49a1,1,0,0,0-.81-.32,1.42,1.42,0,0,0-.7.17,1.22,1.22,0,0,0-.49.49,1.62,1.62,0,0,0,0,1.48,1.23,1.23,0,0,0,.49.49,1.42,1.42,0,0,0,.7.17,1,1,0,0,0,.85-.36v.31h.77V35.72h3.92V36h-.42v.6h.42V37.7a.94.94,0,0,0,.26.73,1.06,1.06,0,0,0,.77.25,1.43,1.43,0,0,0,.36,0,.77.77,0,0,0,.29-.13l-.26-.56A.5.5,0,0,1,37,38a.32.32,0,0,1-.25-.09.37.37,0,0,1-.08-.26V36.58h.68V36h-.68v-.26H60.09v2.92h.77v-.7l.38-.37.84,1.05h1L61.8,37.07,63,35.92H62L60.86,37V35.72H81v2.92h.77v-.7l.38-.37L83,38.62h1l-1.23-1.55,1.14-1.15H83L81.8,37V35.72H97.22ZM31,37.82a.71.71,0,0,1-1,0,.86.86,0,0,1,0-1.1.71.71,0,0,1,1,0A.87.87,0,0,1,31,37.82Zm66.25-6.58h-81V24.82a.48.48,0,0,1,.48-.48H96.74a.48.48,0,0,1,.48.48ZM33.8,35.88a2.4,2.4,0,0,0-.64.09,1.7,1.7,0,0,0-.53.24l.22.51a1.13,1.13,0,0,1,.36-.19,1.37,1.37,0,0,1,.43-.07.7.7,0,0,1,.47.14.5.5,0,0,1,.15.39h-.63a1.46,1.46,0,0,0-.88.22.71.71,0,0,0-.29.6.77.77,0,0,0,.12.43.81.81,0,0,0,.35.29,1.29,1.29,0,0,0,.54.11.88.88,0,0,0,.83-.38v.34h.77V37a1.15,1.15,0,0,0-.34-.9A1.42,1.42,0,0,0,33.8,35.88Zm.49,1.86a.51.51,0,0,1-.22.28v0a.68.68,0,0,1-.36,0,.53.53,0,0,1-.32-.09.29.29,0,0,1-.12-.24q0-.32.49-.32h.54Zm4.78-1.86a2.4,2.4,0,0,0-.64.09,1.7,1.7,0,0,0-.53.24l.29.55a1.13,1.13,0,0,1,.36-.19A1.37,1.37,0,0,1,39,36.5a.7.7,0,0,1,.47.14.5.5,0,0,1,.15.39h-.67a1.46,1.46,0,0,0-.88.22.71.71,0,0,0-.29.6.77.77,0,0,0,.12.43.81.81,0,0,0,.35.29,1.29,1.29,0,0,0,.54.11.88.88,0,0,0,.83-.38v.34h.77V37.08a1.15,1.15,0,0,0-.31-.94A1.42,1.42,0,0,0,39.07,35.88Zm.53,1.86a.51.51,0,0,1-.22.28v0a.68.68,0,0,1-.36,0,.53.53,0,0,1-.32-.09.29.29,0,0,1-.12-.24q0-.32.49-.32h.54Zm2.15.09a.46.46,0,0,1,.14.35.48.48,0,0,1-.14.36.5.5,0,0,1-.7,0,.48.48,0,0,1-.14-.36.46.46,0,0,1,.14-.35A.52.52,0,0,1,41.75,37.83ZM44.46,36a1.74,1.74,0,0,0-1.55,0,1.32,1.32,0,0,0-.53.49,1.45,1.45,0,0,0,0,1.45,1.33,1.33,0,0,0,.53.49,1.74,1.74,0,0,0,1.55,0A1.34,1.34,0,0,0,45,38a1.45,1.45,0,0,0,0-1.45A1.33,1.33,0,0,0,44.46,36Zm-.28,1.76v0a.66.66,0,0,1-.49.17.67.67,0,0,1-.5-.2.87.87,0,0,1,0-1.1.66.66,0,0,1,.5-.2.66.66,0,0,1,.49.2A.87.87,0,0,1,44.18,37.79Zm3.43-1.87h.83v2.72h-.77v-.32a1,1,0,0,1-.37.27,1.18,1.18,0,0,1-.47.09,1.16,1.16,0,0,1-.85-.31,1.23,1.23,0,0,1-.31-.91V35.91h.77v1.42q0,.66.55.66a.59.59,0,0,0,.46-.19.77.77,0,0,0,.17-.55Zm2.7.06a1.42,1.42,0,0,1,.56-.1v.73h-.18a.72.72,0,0,0-.53.19.77.77,0,0,0-.19.56v1.28h-.77V35.92H50v.36A.87.87,0,0,1,50.31,36Zm3.32.07a1.38,1.38,0,0,0-.65-.18,1,1,0,0,0-.86.36v-.31h-.77v3.7h.77V38.35a1.05,1.05,0,0,0,.82.32,1.38,1.38,0,0,0,.69-.18,1.26,1.26,0,0,0,.49-.49,1.62,1.62,0,0,0,0-1.47A1.25,1.25,0,0,0,53.63,36Zm-.32,1.77a.71.71,0,0,1-1,0,.87.87,0,0,1,0-1.1.71.71,0,0,1,1,0A.87.87,0,0,1,53.3,37.82Zm2.54-2a2.4,2.4,0,0,0-.64.09,1.7,1.7,0,0,0-.53.24l.29.55a1.13,1.13,0,0,1,.36-.19,1.37,1.37,0,0,1,.43-.07.7.7,0,0,1,.47.14.5.5,0,0,1,.15.39h-.63a1.46,1.46,0,0,0-.88.22.71.71,0,0,0-.29.6.77.77,0,0,0,.12.43.81.81,0,0,0,.35.29,1.29,1.29,0,0,0,.54.11.88.88,0,0,0,.83-.38v.34h.77V37a1.15,1.15,0,0,0-.34-.9A1.42,1.42,0,0,0,55.84,35.84Zm.55,1.89a.51.51,0,0,1-.22.28v0a.68.68,0,0,1-.39,0,.53.53,0,0,1-.32-.09.29.29,0,0,1-.12-.24q0-.32.49-.32h.56ZM59,36a1.42,1.42,0,0,1,.56-.1v.73h-.18a.72.72,0,0,0-.53.19.77.77,0,0,0-.19.56v1.28h-.77V35.92h.77v.36A.87.87,0,0,1,59,36Zm6.33,1.38a.66.66,0,0,1,.15.46.72.72,0,0,1-.15.45,1,1,0,0,1-.44.3,2,2,0,0,1-.69.11,2.64,2.64,0,0,1-.67-.09,1.75,1.75,0,0,1-.52-.21l.26-.56a1.67,1.67,0,0,0,.44.19,1.85,1.85,0,0,0,.5.07c.33,0,.5-.09.5-.25a.18.18,0,0,0-.14-.17,2,2,0,0,0-.42-.09,4.09,4.09,0,0,1-.55-.12.86.86,0,0,1-.38-.23.66.66,0,0,1-.16-.47.77.77,0,0,1,.15-.46,1,1,0,0,1,.43-.31,1.86,1.86,0,0,1,.67-.11,2.64,2.64,0,0,1,.57.06,1.61,1.61,0,0,1,.47.18l-.26.56a1.55,1.55,0,0,0-.77-.2.77.77,0,0,0-.38.07.21.21,0,0,0-.12.19.18.18,0,0,0,.14.18,2.39,2.39,0,0,0,.43.09,4.56,4.56,0,0,1,.55.12A.82.82,0,0,1,65.35,37.36Zm1.27.46a.46.46,0,0,1,.14.35.48.48,0,0,1-.14.36.5.5,0,0,1-.7,0,.48.48,0,0,1-.14-.36.46.46,0,0,1,.14-.35A.52.52,0,0,1,66.62,37.83ZM69.34,36a1.74,1.74,0,0,0-1.55,0,1.32,1.32,0,0,0-.53.49,1.45,1.45,0,0,0,0,1.45,1.33,1.33,0,0,0,.53.49,1.74,1.74,0,0,0,1.55,0,1.34,1.34,0,0,0,.53-.49,1.45,1.45,0,0,0,0-1.45A1.33,1.33,0,0,0,69.34,36Zm-.28,1.76v0a.66.66,0,0,1-.49.17.67.67,0,0,1-.5-.2.87.87,0,0,1,0-1.1.66.66,0,0,1,.5-.2.66.66,0,0,1,.49.2A.87.87,0,0,1,69.06,37.79ZM71.71,36a1.42,1.42,0,0,1,.56-.1v.73h-.2a.72.72,0,0,0-.53.19.77.77,0,0,0-.19.56v1.28h-.77V35.92h.77v.36A.87.87,0,0,1,71.71,36Zm3,.29a1.07,1.07,0,0,0-.9-.39,1.45,1.45,0,0,0-.69.16,1.25,1.25,0,0,0-.49.46,1.39,1.39,0,0,0,0,1.38,1.25,1.25,0,0,0,.49.46,1.45,1.45,0,0,0,.69.16,1.1,1.1,0,0,0,.86-.34v.12a.77.77,0,0,1-.19.56.85.85,0,0,1-.6.19,1.72,1.72,0,0,1-.53-.09,1.3,1.3,0,0,1-.43-.22l-.32.56a1.64,1.64,0,0,0,.59.28,2.87,2.87,0,0,0,.77.09,1.61,1.61,0,0,0,1.14-.36,1.45,1.45,0,0,0,.39-1.11V35.92h-.77Zm-.2,1.42a.73.73,0,0,1-.51.19.77.77,0,0,1-.52-.19h0a.68.68,0,0,1,0-1,.77.77,0,0,1,.52-.19.73.73,0,0,1,.51.19h0A.68.68,0,0,1,74.54,37.69Zm2.35.14a.46.46,0,0,1,.14.35.48.48,0,0,1-.14.36.5.5,0,0,1-.7,0,.48.48,0,0,1-.14-.36.46.46,0,0,1,.14-.35A.52.52,0,0,1,76.89,37.83Zm2.56-1.91h.83v2.72h-.77v-.32a1,1,0,0,1-.37.27,1.18,1.18,0,0,1-.47.09,1.16,1.16,0,0,1-.85-.31,1.23,1.23,0,0,1-.31-.91V35.91h.77v1.42q0,.66.55.66a.59.59,0,0,0,.46-.19.77.77,0,0,0,.17-.55Z"/><path class="cls-5" d="M82.7,77.08,60.64,68.71a.76.76,0,0,0-1,1l8.43,22a.78.78,0,0,0,1.48,0l2-7.55,5.66,5.66a2.5,2.5,0,0,0,3.54-3.54l-5.69-5.69,7.55-2A.78.78,0,0,0,82.7,77.08Z"/></svg>