<?xml version="1.0" encoding="utf-8"?>
<!-- Generator: Adobe Illustrator 22.1.0, SVG Export Plug-In . SVG Version: 6.00 Build 0)  -->
<svg version="1.1" xmlns="http://www.w3.org/2000/svg" xmlns:xlink="http://www.w3.org/1999/xlink" x="0px" y="0px"
	 viewBox="0 0 250 250" style="enable-background:new 0 0 250 250;" xml:space="preserve">
<style type="text/css">
	.st0{fill:#FFFFFF;stroke:#FFFFFF;stroke-width:23;stroke-linecap:round;stroke-linejoin:round;stroke-miterlimit:10;}
	.st1{fill:#FFFFFF;stroke:url(#SVGID_1_);stroke-width:8;stroke-linecap:round;stroke-linejoin:round;stroke-miterlimit:10;}
	.st2{fill:url(#SVGID_2_);}
</style>
<g id="White">
	<path class="st0" d="M231.3,134h-8.1l-3.5,30l-23.2-30H98.7c-3.1,0-5.7-2.6-5.7-5.7V24.2c0-3.1,2.6-5.7,5.7-5.7h132.7
		c3.1,0,5.7,2.6,5.7,5.7v104.2C237,131.4,234.4,134,231.3,134z"/>
	<path class="st0" d="M20.2,174.6h8.4l3.6,32.4l24.2-32.4h102c3.3,0,5.9-2.8,5.9-6.1V56.1c0-3.4-2.7-6.1-5.9-6.1H20.2
		c-3.3,0-5.9,2.8-5.9,6.1v112.4C14.3,171.8,17,174.6,20.2,174.6z"/>
</g>
<g id="Blue_1_">
	<linearGradient id="SVGID_1_" gradientUnits="userSpaceOnUse" x1="41.2381" y1="20.97" x2="204.8375" y2="184.5694">
		<stop  offset="0" style="stop-color:#00ADE6"/>
		<stop  offset="5.543736e-02" style="stop-color:#00A3DE"/>
		<stop  offset="0.25" style="stop-color:#0083C5"/>
		<stop  offset="0.3579" style="stop-color:#0077BC"/>
		<stop  offset="0.7261" style="stop-color:#353579"/>
		<stop  offset="0.9658" style="stop-color:#1D1A55"/>
	</linearGradient>
	<path class="st1" d="M20.2,174.6h8.4l3.6,32.4l24.2-32.4h102c3.3,0,5.9-2.8,5.9-6.1V56.1c0-3.4-2.7-6.1-5.9-6.1H20.2
		c-3.3,0-5.9,2.8-5.9,6.1v112.4C14.3,171.8,17,174.6,20.2,174.6z M237,24.2v104.2c0,3.1-2.6,5.7-5.7,5.7h-8.1l-3.5,30l-23.2-30h-32
		V56.1c0-3.4-2.7-6.1-5.9-6.1H93V24.2c0-3.1,2.6-5.7,5.7-5.7h132.7C234.4,18.5,237,21.1,237,24.2z"/>
</g>
<g id="orange">
	<g id="Orange">
		
			<linearGradient id="SVGID_2_" gradientUnits="userSpaceOnUse" x1="5895.9087" y1="86.7773" x2="5842.2949" y2="140.3912" gradientTransform="matrix(-1 0 0 1 5957.748 0)">
			<stop  offset="0" style="stop-color:#FFEE25"/>
			<stop  offset="0.3707" style="stop-color:#F08F34"/>
			<stop  offset="1" style="stop-color:#E2312D"/>
		</linearGradient>
		<path class="st2" d="M114.7,113.6c0-6.3,5.1-11.4,11.4-11.4c6.3,0,11.4,5.1,11.4,11.4c0,6.3-5.1,11.4-11.4,11.4
			C119.8,125,114.7,119.9,114.7,113.6z M88.6,125c6.3,0,11.4-5.1,11.4-11.4c0-6.3-5.1-11.4-11.4-11.4c-6.3,0-11.4,5.1-11.4,11.4
			C77.2,119.9,82.3,125,88.6,125z M51.2,125c6.3,0,11.4-5.1,11.4-11.4c0-6.3-5.1-11.4-11.4-11.4c-6.3,0-11.4,5.1-11.4,11.4
			C39.8,119.9,44.9,125,51.2,125z"/>
	</g>
</g>
</svg>
