<svg xmlns="http://www.w3.org/2000/svg" xmlns:xlink="http://www.w3.org/1999/xlink" viewBox="0 0 51.97 84.31"><defs><style>.cls-1{fill:url(#linear-gradient);}.cls-2{fill:url(#New_Gradient_Swatch_copy);}</style><linearGradient id="linear-gradient" x1="7.28" y1="60.53" x2="47.99" y2="19.83" gradientUnits="userSpaceOnUse"><stop offset="0" stop-color="#1c9bd8"/><stop offset="0.48" stop-color="#0c65af"/><stop offset="1" stop-color="#423e92"/></linearGradient><linearGradient id="New_Gradient_Swatch_copy" x1="35.99" y1="33.39" x2="51.71" y2="29.25" gradientUnits="userSpaceOnUse"><stop offset="0" stop-color="#f6a734"/><stop offset="1" stop-color="#e73a2f"/></linearGradient></defs><title>tennis_racket_1</title><g id="Layer_2" data-name="Layer 2"><g id="Layer_1-2" data-name="Layer 1"><path class="cls-1" d="M36.86,44a.34.34,0,0,1,.09-.2c5.34-5.82,7.6-15,5.17-24.28h0C38.58,6.12,26.48-2.39,15.14.6S-2.56,16.94,1,30.37C3.4,39.6,9.88,46.49,17.37,48.94a.4.4,0,0,1,.18.14l6.8,10.27a.42.42,0,0,1,0,.1L30.86,84a.37.37,0,0,0,.44.26l10.53-2.77a.37.37,0,0,0,.26-.44L35.63,56.54a.28.28,0,0,1,0-.13ZM5.19,29.27c-2.92-11.12,2-22.09,11-24.46a13.87,13.87,0,0,1,3.54-.46c7.89,0,15.58,6.64,18.12,16.31,2.93,11.12-2,22.09-11,24.46S8.11,40.38,5.19,29.27ZM23.34,49.93a18.31,18.31,0,0,0,4.62-.6A17.77,17.77,0,0,0,31.54,48a.36.36,0,0,1,.52.35l-.64,6.37a.36.36,0,0,1-.27.31l-3.55.94a.35.35,0,0,1-.39-.15l-3.88-5.85ZM34,78.72,29.15,60.4A.35.35,0,0,1,29.4,60l2.11-.56a.37.37,0,0,1,.44.26L36.77,78a.36.36,0,0,1-.26.43L34.4,79A.36.36,0,0,1,34,78.72Z"/><circle class="cls-2" cx="43.85" cy="31.32" r="8.13"/></g></g></svg>