<svg xmlns="http://www.w3.org/2000/svg" xmlns:xlink="http://www.w3.org/1999/xlink" viewBox="0 0 250 250"><defs><style>.cls-1,.cls-2,.cls-3,.cls-4{fill:none;stroke-linecap:round;stroke-miterlimit:10;stroke-width:7.92px;}.cls-1{stroke:url(#linear-gradient);}.cls-2{stroke:url(#New_Gradient_Swatch_copy_2);}.cls-3{stroke:url(#New_Gradient_Swatch_copy_2-2);}.cls-4{stroke:url(#New_Gradient_Swatch_copy_2-3);}.cls-5{fill:url(#New_Gradient_Swatch_copy_2-4);}</style><linearGradient id="linear-gradient" x1="53.25" y1="189.38" x2="185.45" y2="57.17" gradientUnits="userSpaceOnUse"><stop offset="0" stop-color="#1d9ad7"/><stop offset="0.48" stop-color="#1366af"/><stop offset="1" stop-color="#423f92"/></linearGradient><linearGradient id="New_Gradient_Swatch_copy_2" x1="127.35" y1="47.58" x2="127.35" y2="76.35" gradientUnits="userSpaceOnUse"><stop offset="0" stop-color="#f7a834"/><stop offset="1" stop-color="#e73a30"/></linearGradient><linearGradient id="New_Gradient_Swatch_copy_2-2" x1="148.35" y1="47.58" x2="148.35" y2="76.35" xlink:href="#New_Gradient_Swatch_copy_2"/><linearGradient id="New_Gradient_Swatch_copy_2-3" x1="106.78" y1="47.58" x2="106.78" y2="76.35" xlink:href="#New_Gradient_Swatch_copy_2"/><linearGradient id="New_Gradient_Swatch_copy_2-4" x1="89.37" y1="114.67" x2="89.37" y2="173.46" xlink:href="#New_Gradient_Swatch_copy_2"/></defs><title>trainer</title><g id="white"><path class="cls-1" d="M211.16,89.67H140.39a2.86,2.86,0,0,0-2.86,2.86V99a2.86,2.86,0,0,1-2.86,2.86H122A2.86,2.86,0,0,1,119.17,99V92.52a2.86,2.86,0,0,0-2.86-2.86H90.37a54.4,54.4,0,1,0,53.92,61.62c.17-1.3.3-3.35.38-4.94a2.85,2.85,0,0,1,2.39-2.67l44.42-8.18a2.86,2.86,0,0,0,2.09-1.54l20.15-40.16A2.86,2.86,0,0,0,211.16,89.67Z"/><line class="cls-2" x1="127.35" y1="72.39" x2="127.35" y2="51.54"/><line class="cls-3" x1="142.61" y1="72.39" x2="154.08" y2="51.54"/><line class="cls-4" x1="112.52" y1="72.39" x2="101.05" y2="51.54"/><path class="cls-5" d="M117.3,144.06c0-16.21-12.53-29.4-27.93-29.4s-27.93,13.19-27.93,29.4,12.53,29.4,27.93,29.4S117.3,160.27,117.3,144.06Z"/></g></svg>