<?xml version="1.0" encoding="utf-8"?>
<!-- Generator: Adobe Illustrator 22.1.0, SVG Export Plug-In . SVG Version: 6.00 Build 0)  -->
<svg version="1.1" xmlns="http://www.w3.org/2000/svg" xmlns:xlink="http://www.w3.org/1999/xlink" x="0px" y="0px"
	 viewBox="0 0 250 250" style="enable-background:new 0 0 250 250;" xml:space="preserve">
<style type="text/css">
	.st0{fill:#FFFFFF;stroke:#FFFFFF;stroke-width:17.8112;stroke-miterlimit:10;}
	.st1{fill:#FFFFFF;stroke:#FFFFFF;stroke-width:17;stroke-miterlimit:10;}
	.st2{fill:url(#SVGID_1_);}
	.st3{fill:none;stroke:url(#SVGID_2_);stroke-width:8;stroke-linecap:round;stroke-linejoin:round;stroke-miterlimit:10;}
</style>
<g id="White">
	<circle class="st0" cx="129.9" cy="40.2" r="22.8"/>
	<path class="st1" d="M196.7,236.7c-5.7,0-11.1-3.2-14.3-8.9c0,0-0.1-0.1-0.1-0.1L159,183l-42.1-0.4c-10.6,0-19.9-9.4-19.9-20.1
		c0-4.7-0.2-29.4-0.6-73.4c0-2.6,0-4.2,0-4.3c0-6.1,3.5-12.5,9-16.2c5.4-3.7,11.9-4.3,18.2-1.8c0.1,0,0.2,0.1,0.3,0.1l67.6,33.2
		c3.5,1.7,6.1,4.7,7.4,8.4c1.2,3.7,1,7.7-0.8,11.2c-3.6,7.2-12.2,10.1-19.4,6.7l-39.2-15.8l0.8,35.2l36.4,3.8c0.1,0,0.2,0,0.3,0
		c6.7,1.1,8.6,5.5,10.6,10l0.1,0.3c2,4.5,23.6,54,23.6,54c3.7,7.9,0.2,17.4-7.8,21.1C201.2,236.2,198.9,236.7,196.7,236.7z
		 M138.5,193.9c0.7-2.4,3.2-3.7,5.6-2.9c2.4,0.7,3.7,3.2,2.9,5.6c-7.3,23.7-28.8,39.6-53.6,39.6c-30.9,0-56.1-25.2-56.1-56.1
		c0-26.9,19.1-50,45.5-55.1c2.4-0.5,4.7,1.1,5.2,3.5"/>
</g>
<g id="Orange">
	
		<linearGradient id="SVGID_1_" gradientUnits="userSpaceOnUse" x1="386.2038" y1="302.8093" x2="418.4771" y2="270.5361" gradientTransform="matrix(0 1 -1 0 416.5263 -362.1865)">
		<stop  offset="0" style="stop-color:#FFEE25"/>
		<stop  offset="0.3707" style="stop-color:#F08F34"/>
		<stop  offset="1" style="stop-color:#E2312D"/>
	</linearGradient>
	<circle class="st2" cx="129.9" cy="40.2" r="22.8"/>
</g>
<g id="Blue_1_">
	<linearGradient id="SVGID_2_" gradientUnits="userSpaceOnUse" x1="68.6904" y1="105.4188" x2="201.2829" y2="238.0113">
		<stop  offset="0" style="stop-color:#00ADE6"/>
		<stop  offset="5.543736e-02" style="stop-color:#00A3DE"/>
		<stop  offset="0.25" style="stop-color:#0083C5"/>
		<stop  offset="0.3579" style="stop-color:#0077BC"/>
		<stop  offset="0.7261" style="stop-color:#353579"/>
		<stop  offset="0.9658" style="stop-color:#1D1A55"/>
	</linearGradient>
	<path class="st3" d="M161.7,178.5l-44.7-0.5c-8.2,0-15.5-7.3-15.5-15.6s-0.6-77.1-0.6-77.7c0-8.3,9.2-18.5,21.1-13.8l67.6,33.2
		c5,2.5,7.1,8.6,4.6,13.6c-2.5,5-8.6,7.1-13.6,4.6l-45.6-18.4l1,45.9l40.3,4.2c4.4,0.7,5.4,3.2,7.4,7.7c2,4.5,23.6,54,23.6,54
		c2.7,5.8,0.2,12.6-5.6,15.3c-5.8,2.7-12,0.3-15.3-5.6L161.7,178.5z M83.6,129.4c-23.8,4.6-41.8,25.5-41.8,50.7
		c0,28.5,23.1,51.6,51.6,51.6c23.2,0,42.9-15.3,49.3-36.4"/>
</g>
</svg>
