<svg id="Layer_1" data-name="Layer 1" xmlns="http://www.w3.org/2000/svg" xmlns:xlink="http://www.w3.org/1999/xlink" viewBox="0 0 454.09 145.95"><defs><style>.cls-1,.cls-10,.cls-11,.cls-3,.cls-4,.cls-6,.cls-7,.cls-8,.cls-9{fill:none;}.cls-1,.cls-10,.cls-3,.cls-4,.cls-6,.cls-7,.cls-8,.cls-9{stroke-linecap:round;}.cls-1,.cls-3,.cls-4,.cls-9{stroke-linejoin:round;}.cls-1,.cls-10,.cls-11,.cls-6,.cls-7,.cls-8,.cls-9{stroke-width:3px;}.cls-1{stroke:url(#New_Gradient_Swatch_3);}.cls-2{fill:#433e8f;}.cls-3,.cls-4{stroke:#c6c6c5;stroke-width:2px;}.cls-4{stroke-dasharray:6.05 7.06;}.cls-5{fill:url(#New_Gradient_Swatch_3-2);}.cls-10,.cls-11,.cls-6,.cls-7,.cls-8{stroke-miterlimit:10;}.cls-6{stroke:url(#New_Gradient_Swatch_2);}.cls-7{stroke:url(#New_Gradient_Swatch_3-3);}.cls-8{stroke:url(#New_Gradient_Swatch_2-2);}.cls-9{stroke:url(#New_Gradient_Swatch_2-3);}.cls-10{stroke:url(#New_Gradient_Swatch_2-4);}.cls-11{stroke:url(#New_Gradient_Swatch_2-5);}.cls-12{fill:url(#New_Gradient_Swatch_3-4);}</style><linearGradient id="New_Gradient_Swatch_3" x1="91.59" y1="45.15" x2="104.56" y2="58.12" gradientUnits="userSpaceOnUse"><stop offset="0" stop-color="#ffee25"/><stop offset="0.37" stop-color="#f08f34"/><stop offset="1" stop-color="#e2312d"/></linearGradient><linearGradient id="New_Gradient_Swatch_3-2" x1="213.01" y1="36.85" x2="226.69" y2="50.53" xlink:href="#New_Gradient_Swatch_3"/><linearGradient id="New_Gradient_Swatch_2" x1="192.78" y1="43.87" x2="230.74" y2="81.83" gradientUnits="userSpaceOnUse"><stop offset="0" stop-color="#00ade6"/><stop offset="0.06" stop-color="#00a3de"/><stop offset="0.25" stop-color="#0083c5"/><stop offset="0.36" stop-color="#0077bc"/><stop offset="0.73" stop-color="#353579"/><stop offset="0.97" stop-color="#1d1a55"/></linearGradient><linearGradient id="New_Gradient_Swatch_3-3" x1="368.58" y1="38.9" x2="388.16" y2="58.49" xlink:href="#New_Gradient_Swatch_3"/><linearGradient id="New_Gradient_Swatch_2-2" x1="308" y1="16.72" x2="377.9" y2="86.62" xlink:href="#New_Gradient_Swatch_2"/><linearGradient id="New_Gradient_Swatch_2-3" x1="63.45" y1="38.1" x2="111.51" y2="86.16" xlink:href="#New_Gradient_Swatch_2"/><linearGradient id="New_Gradient_Swatch_2-4" x1="262.17" y1="41.66" x2="299.68" y2="79.17" xlink:href="#New_Gradient_Swatch_2"/><linearGradient id="New_Gradient_Swatch_2-5" x1="510.32" y1="-481.89" x2="529.17" y2="-410.19" gradientTransform="matrix(0.86, -0.5, 0.5, 0.86, -66.25, 701.46)" xlink:href="#New_Gradient_Swatch_2"/><linearGradient id="New_Gradient_Swatch_3-4" x1="529.44" y1="-458.96" x2="533.23" y2="-444.54" gradientTransform="matrix(0.86, -0.5, 0.5, 0.86, -66.25, 701.46)" xlink:href="#New_Gradient_Swatch_3"/></defs><title>first_t</title><path class="cls-1" d="M93.73,45.13,87.88,51m12.64-1.75-5.08,5.16m12.82-2.09-5.35,5.35"/><path class="cls-2" d="M180.93,103.17v3.48h-2.27v-3.51l-3.8-6.3h2.41l2.62,4.36,2.62-4.36h2.23Z"/><path class="cls-2" d="M184.13,102.88a4.15,4.15,0,1,1,4.14,3.88A3.88,3.88,0,0,1,184.13,102.88Zm6.06,0a1.93,1.93,0,1,0-1.92,2.08A1.9,1.9,0,0,0,190.19,102.88Z"/><path class="cls-2" d="M201.45,99.11v7.54h-2.07v-.9a3.06,3.06,0,0,1-2.34,1c-1.89,0-3.22-1.07-3.22-3.39V99.11H196v3.94c0,1.26.56,1.82,1.53,1.82s1.73-.65,1.73-2V99.11Z"/><path class="cls-2" d="M208.16,99v2l-.49,0a1.85,1.85,0,0,0-2,2.1v3.56h-2.18V99.11h2.08v1A3.08,3.08,0,0,1,208.16,99Z"/><path class="cls-2" d="M220.14,102.34v4.31h-2v-.94a2.5,2.5,0,0,1-2.3,1.05c-1.77,0-2.82-1-2.82-2.29s.94-2.25,3.24-2.25H218c0-.94-.57-1.49-1.74-1.49a3.63,3.63,0,0,0-2.17.7l-.79-1.52a5.8,5.8,0,0,1,3.25-.91C218.81,99,220.14,100.06,220.14,102.34ZM218,104.26v-.77h-1.5c-1,0-1.35.38-1.35.89s.46.91,1.23.91A1.63,1.63,0,0,0,218,104.26Z"/><path class="cls-2" d="M221.63,102.88A3.9,3.9,0,0,1,225.84,99a3.44,3.44,0,0,1,3.37,1.92l-1.69.91a1.88,1.88,0,0,0-1.7-1,2.09,2.09,0,0,0,0,4.17,1.85,1.85,0,0,0,1.7-1l1.69.92a3.48,3.48,0,0,1-3.37,1.91A3.9,3.9,0,0,1,221.63,102.88Z"/><path class="cls-2" d="M235.44,106.28a3.15,3.15,0,0,1-1.78.48,2.48,2.48,0,0,1-2.81-2.71V101h-1.17V99.28h1.17V97.44H233v1.84h1.88V101H233V104a.88.88,0,0,0,.94,1,1.49,1.49,0,0,0,.88-.28Z"/><path class="cls-2" d="M236.4,96.84a1.25,1.25,0,0,1,1.36-1.22,1.23,1.23,0,0,1,1.36,1.18,1.37,1.37,0,0,1-2.72,0Zm.27,2.27h2.18v7.54h-2.18Z"/><path class="cls-2" d="M248.36,99.11l-3.18,7.54h-2.25l-3.17-7.54H242l2.08,5.13,2.16-5.13Z"/><path class="cls-2" d="M249,96.84a1.25,1.25,0,0,1,1.36-1.22,1.23,1.23,0,0,1,1.36,1.18,1.37,1.37,0,0,1-2.72,0Zm.27,2.27h2.18v7.54h-2.18Z"/><path class="cls-2" d="M258.33,106.28a3.15,3.15,0,0,1-1.78.48,2.49,2.49,0,0,1-2.82-2.71V101h-1.16V99.28h1.16V97.44h2.19v1.84h1.88V101h-1.88V104a.88.88,0,0,0,.94,1,1.49,1.49,0,0,0,.88-.28Z"/><path class="cls-2" d="M259.29,96.84a1.25,1.25,0,0,1,1.36-1.22A1.23,1.23,0,0,1,262,96.8a1.37,1.37,0,0,1-2.72,0Zm.27,2.27h2.18v7.54h-2.18Z"/><path class="cls-2" d="M271.11,103.49h-5.7a2,2,0,0,0,2.16,1.52,2.55,2.55,0,0,0,1.89-.73l1.16,1.26a3.94,3.94,0,0,1-3.11,1.22c-2.6,0-4.3-1.64-4.3-3.88a3.83,3.83,0,0,1,4-3.88,3.72,3.72,0,0,1,3.92,3.91C271.15,103.07,271.13,103.31,271.11,103.49Zm-5.73-1.27h3.72a1.89,1.89,0,0,0-3.72,0Z"/><path class="cls-2" d="M271.88,106l.73-1.57a5.17,5.17,0,0,0,2.62.72c1,0,1.38-.26,1.38-.68,0-1.23-4.55,0-4.55-3,0-1.42,1.29-2.43,3.49-2.43a6.24,6.24,0,0,1,2.9.66l-.73,1.55a4.34,4.34,0,0,0-2.17-.56c-1,0-1.4.31-1.4.7,0,1.29,4.55,0,4.55,3,0,1.4-1.3,2.4-3.56,2.4A6.49,6.49,0,0,1,271.88,106Z"/><line class="cls-3" x1="18.38" y1="74.63" x2="21.27" y2="75.41"/><polyline class="cls-4" points="28.08 77.27 227.99 131.63 429.41 76.36"/><line class="cls-3" x1="432.82" y1="75.42" x2="435.71" y2="74.63"/><circle class="cls-5" cx="219.85" cy="43.69" r="9.67"/><path class="cls-6" d="M177.8,69.16c2.26,3.24,5.32,5,8.59,5a10.09,10.09,0,0,0,7.66-3.83,9.59,9.59,0,0,0,15.33,0,9.59,9.59,0,0,0,15.33,0,10.09,10.09,0,0,0,7.66,3.83c3.27,0,6.33-1.79,8.59-5M229.48,67l10.31-10.28a4.5,4.5,0,0,0,.63-5.69,3.6,3.6,0,0,0-3.23-1.86,4.7,4.7,0,0,0-3.42,1.27l-9.24,9.22a1.12,1.12,0,0,1-1.34.2L199.61,47.2a7.9,7.9,0,0,0-9.37,1.37l-9,9a4.45,4.45,0,0,0-.28,6.1,4.22,4.22,0,0,0,3.12,1.44,4.41,4.41,0,0,0,3.18-1.27L194.11,57a1.15,1.15,0,0,1,1.43-.14l4.11,2.71-3.56,3.61m28.76,17.46a9.6,9.6,0,0,1-15.33,0,9.59,9.59,0,0,1-15.32,0"/><path class="cls-7" d="M378.64,65.88a17.2,17.2,0,0,1,17.2-17.19M378.1,65.88a17.2,17.2,0,0,0-17.2-17.19"/><path class="cls-8" d="M360.9,65.88h35.62m-74.17-.28,11.16,15.75c4.82,6.8,16.09,7.17,21.34,3.45l-.46.33c5.24-3.72,8.63-14.47,3.82-21.27L347.05,48.11Zm21.59,4.29L310,22m-9.75,4.61,17.33-12.28"/><path class="cls-9" d="M127.2,63.37C125.76,65.94,109,73.5,95.7,70.28s-35.81-2.84-35.81-2.84m67.43-5.21v1.64a10.43,10.43,0,0,1-4,8.25c-5.13,3.93-12.37,6.11-20.41,6.14H63.38a5.82,5.82,0,0,1-5.81-5.82,5,5,0,0,1,.84-2.77l1.48-2.23V45.7a4.66,4.66,0,0,1,4.65-4.65,2.92,2.92,0,0,1,2.69,1.78L67.72,44a8.14,8.14,0,0,0,13.77,2l2.31-2.82a4.67,4.67,0,0,1,6-1L97.76,47a45.35,45.35,0,0,0,12,5.17l12.42,3.34A7,7,0,0,1,127.32,62.23Z"/><path class="cls-10" d="M270.31,58.79c4.14-18.93,21.51-20.45,21.51-20.45m-35.38,25s9.39,12.79,28.18,7m12.1,9s6.56-14.61-8.78-27.45m13-5.66s-15.64,1.05-19.48,14.58m-23-10.23s7.8,12.65,22.46,9.55m3.55,24.36s6.6-14-4.55-23.94m1.05-25.12a25,25,0,1,0,25,25A25,25,0,0,0,280.93,35.39Z"/><path class="cls-11" d="M159.2,71.29l6.18-3.61L176,85.93l-6.17,3.6Zm-1.62-9.87-6.84,2,8.46,7.82,6.18-3.61-2.45-11m-5.35,4.72c8.16-4.76,10.11-16.61,4.36-26.46s-17-14-25.18-9.23-10.11,16.61-4.36,26.46S149.43,66.18,157.58,61.42Z"/><circle class="cls-12" cx="164.99" cy="43.49" r="7.45"/></svg>