<svg xmlns="http://www.w3.org/2000/svg" xmlns:xlink="http://www.w3.org/1999/xlink" viewBox="0 0 454.09 146.72"><defs><style>.cls-1,.cls-10,.cls-4,.cls-5,.cls-9{fill:none;}.cls-1,.cls-2,.cls-4,.cls-5{stroke:#c6c6c5;stroke-width:2px;}.cls-1,.cls-10,.cls-2,.cls-4,.cls-5,.cls-8,.cls-9{stroke-linecap:round;stroke-linejoin:round;}.cls-2{fill:#b1b1b1;}.cls-3{fill:#433e8f;}.cls-4{stroke-dasharray:4.11 4.8;}.cls-5{stroke-dasharray:6.09 7.11;}.cls-6,.cls-7,.cls-8{fill:#fff;}.cls-6,.cls-8{stroke:#fff;}.cls-6{stroke-miterlimit:10;stroke-width:5.12px;}.cls-8{stroke-width:7.68px;}.cls-9{stroke-width:2.56px;stroke:url(#New_Gradient_Swatch_2);}.cls-10{stroke-width:3px;stroke:url(#New_Gradient_Swatch_2-2);}.cls-11{fill:url(#New_Gradient_Swatch_3);}.cls-12{fill:url(#New_Gradient_Swatch_3-2);}</style><linearGradient id="New_Gradient_Swatch_2" x1="187.19" y1="67.05" x2="224.42" y2="104.28" gradientUnits="userSpaceOnUse"><stop offset="0" stop-color="#00ade6"/><stop offset="0.06" stop-color="#00a3de"/><stop offset="0.25" stop-color="#0083c5"/><stop offset="0.36" stop-color="#0077bc"/><stop offset="0.73" stop-color="#353579"/><stop offset="0.97" stop-color="#1d1a55"/></linearGradient><linearGradient id="New_Gradient_Swatch_2-2" x1="195.98" y1="57.96" x2="252.33" y2="114.31" xlink:href="#New_Gradient_Swatch_2"/><linearGradient id="New_Gradient_Swatch_3" x1="239.51" y1="45.86" x2="249.36" y2="55.7" gradientUnits="userSpaceOnUse"><stop offset="0" stop-color="#ffee25"/><stop offset="0.37" stop-color="#f08f34"/><stop offset="1" stop-color="#e2312d"/></linearGradient><linearGradient id="New_Gradient_Swatch_3-2" x1="201.18" y1="45.84" x2="210.43" y2="55.08" xlink:href="#New_Gradient_Swatch_3"/></defs><title>four_ut</title><g id="Orange-3" data-name="Orange"><polyline class="cls-1" points="214.89 14.95 227.05 27.1 239.19 14.95"/><line class="cls-2" x1="227.27" y1="3.83" x2="227.27" y2="25.37"/><path class="cls-3" d="M184.8,135.14v3.48h-2.27v-3.5l-3.79-6.31h2.41l2.62,4.36,2.62-4.36h2.22Z"/><path class="cls-3" d="M188,134.85a4.14,4.14,0,1,1,4.14,3.88A3.88,3.88,0,0,1,188,134.85Zm6.06,0a1.93,1.93,0,1,0-1.92,2.09A1.9,1.9,0,0,0,194.07,134.85Z"/><path class="cls-3" d="M205.33,131.08v7.54h-2.07v-.9a3.06,3.06,0,0,1-2.34,1c-1.9,0-3.23-1.06-3.23-3.39v-4.26h2.19V135c0,1.26.56,1.82,1.53,1.82s1.73-.64,1.73-2v-3.73Z"/><path class="cls-3" d="M212,131v2a4.15,4.15,0,0,0-.49,0,1.85,1.85,0,0,0-2,2.1v3.56h-2.18v-7.54h2.08v1A3,3,0,0,1,212,131Z"/><path class="cls-3" d="M225.06,134.3v4.32h-2.19v-4c0-1.22-.56-1.78-1.53-1.78s-1.8.65-1.8,2v3.73h-2.19v-7.54h2.09V132a3.31,3.31,0,0,1,2.49-1C223.71,131,225.06,132,225.06,134.3Z"/><path class="cls-3" d="M234.45,135.47h-5.7A2,2,0,0,0,230.9,137a2.58,2.58,0,0,0,1.9-.73l1.16,1.26a3.94,3.94,0,0,1-3.11,1.22c-2.61,0-4.3-1.64-4.3-3.88a3.83,3.83,0,0,1,4-3.88,3.73,3.73,0,0,1,3.92,3.91C234.49,135.05,234.46,135.28,234.45,135.47Zm-5.73-1.28h3.71a1.88,1.88,0,0,0-3.71,0Z"/><path class="cls-3" d="M240.8,138.25a3,3,0,0,1-1.78.48,2.48,2.48,0,0,1-2.81-2.7v-3.1h-1.16v-1.68h1.16v-1.83h2.18v1.83h1.88v1.68h-1.88V136a.88.88,0,0,0,.94,1,1.45,1.45,0,0,0,.89-.28Z"/><path class="cls-3" d="M254,131.08l-2.74,7.54h-2.1l-1.69-4.68-1.75,4.68h-2.1l-2.72-7.54H243l1.78,5.1,1.85-5.1h1.84l1.8,5.1,1.83-5.1Z"/><path class="cls-3" d="M254.24,134.85a4.15,4.15,0,1,1,4.15,3.88A3.88,3.88,0,0,1,254.24,134.85Zm6.07,0a1.94,1.94,0,1,0-1.92,2.09A1.91,1.91,0,0,0,260.31,134.85Z"/><path class="cls-3" d="M268.65,131v2a4.15,4.15,0,0,0-.49,0,1.85,1.85,0,0,0-2,2.1v3.56H264v-7.54h2.09v1A3,3,0,0,1,268.65,131Z"/><path class="cls-3" d="M273.18,135.66l-1.05,1v1.92H270v-10.4h2.18v5.89l3.2-3h2.6l-3.13,3.2,3.41,4.34h-2.64Z"/><line class="cls-1" x1="108.29" y1="53.91" x2="108.29" y2="50.91"/><line class="cls-4" x1="108.29" y1="46.12" x2="108.29" y2="39.61"/><polyline class="cls-1" points="108.29 37.21 108.29 34.21 111.29 34.21"/><line class="cls-5" x1="118.4" y1="34.21" x2="339.24" y2="34.21"/><polyline class="cls-1" points="342.79 34.21 345.79 34.21 345.79 37.21"/><line class="cls-4" x1="345.79" y1="42.01" x2="345.79" y2="48.52"/><line class="cls-1" x1="345.79" y1="50.91" x2="345.79" y2="53.91"/><circle class="cls-6" cx="244.43" cy="50.78" r="6.96"/><path class="cls-6" d="M247.43,117.1a4.35,4.35,0,0,1-3.08-1.28,4.32,4.32,0,0,1-3.07,1.28,4.37,4.37,0,0,1-4.36-4.36V94.67h-5.45a1.28,1.28,0,0,1-1-.51,1.26,1.26,0,0,1-.22-1.11l2.19-7.91a4,4,0,0,1-1.61-.12,4.14,4.14,0,0,1-2.88-5.1l4.53-15.15c.39-1.36,2.07-5.85,7.19-5.85h9.4c5.13,0,6.81,4.49,7.2,5.87l4.52,15.1A4.16,4.16,0,0,1,257.9,85a4.05,4.05,0,0,1-1.62.12l2.19,7.91a1.26,1.26,0,0,1-.21,1.11,1.28,1.28,0,0,1-1,.51h-5.46v18.07A4.36,4.36,0,0,1,247.43,117.1Z"/><path class="cls-7" d="M205.81,58.35a7.89,7.89,0,1,1,7.89-7.89A7.9,7.9,0,0,1,205.81,58.35Z"/><path class="cls-7" d="M205.81,43.92a6.54,6.54,0,1,1-6.54,6.54,6.54,6.54,0,0,1,6.54-6.54m0-2.7a9.24,9.24,0,1,0,9.24,9.24,9.25,9.25,0,0,0-9.24-9.24Z"/><path class="cls-8" d="M205.81,86.46v25.63a3.73,3.73,0,1,1-7.45,0V68.36m15.75,18.1c2.1,0,5.06-1.46,5.06-6.12V66.09c0-3.66-2.59-5.59-5.83-5.59H198.28c-3.24,0-5.84,1.93-5.84,5.59V80.34c0,4.66,3,6.12,5.07,6.12m8.3,25.63a3.73,3.73,0,1,0,7.45,0V68.36"/><rect class="cls-7" x="200.37" y="73.04" width="11.31" height="27.52"/><path class="cls-9" d="M205.81,86.46v25.63a3.73,3.73,0,1,1-7.45,0V68.36m15.75,18.1c2.1,0,5.06-1.46,5.06-6.12V66.09c0-3.66-2.59-5.59-5.83-5.59H198.28c-3.24,0-5.84,1.93-5.84,5.59V80.34c0,4.66,3,6.12,5.07,6.12m8.3,25.63a3.73,3.73,0,1,0,7.45,0V68.36"/><path class="cls-10" d="M234.67,81.8a2.86,2.86,0,0,1-5.51-1.54l4.53-15.12c.5-1.78,2.06-4.94,6-4.94h4.7m-9.8,22.08,3.18-11.49-6.26,22.6h6.73v19.35a3.08,3.08,0,1,0,6.15,0V91.65M254,81.8a2.86,2.86,0,0,0,5.51-1.54L255,65.14c-.51-1.78-2.07-4.94-6-4.94h-4.69m0,52.54a3.08,3.08,0,1,0,6.15,0V93.39h6.74L251,70.79l3.18,11.49m-48.35,4.18v25.63a3.73,3.73,0,1,1-7.45,0V68.36m15.75,18.1c2.1,0,5.06-1.46,5.06-6.12V66.09c0-3.66-2.59-5.59-5.83-5.59H198.28c-3.24,0-5.84,1.93-5.84,5.59V80.34c0,4.66,3,6.12,5.07,6.12m8.3,25.63a3.73,3.73,0,1,0,7.45,0V68.36"/><circle class="cls-11" cx="244.43" cy="50.78" r="6.96"/><circle class="cls-12" cx="205.81" cy="50.46" r="6.54"/></g></svg>