<svg xmlns="http://www.w3.org/2000/svg" xmlns:xlink="http://www.w3.org/1999/xlink" viewBox="0 0 454.09 145.95"><defs><style>.cls-1,.cls-12,.cls-14{fill:none;stroke-linecap:round;}.cls-1,.cls-14{stroke-miterlimit:10;stroke-width:3px;}.cls-1{stroke:url(#New_Gradient_Swatch_2);}.cls-2{fill:#f5a634;}.cls-3{fill:#e63a2e;}.cls-4{fill:url(#linear-gradient);}.cls-5{fill:url(#linear-gradient-2);}.cls-6{fill:#1c9ad7;}.cls-7{fill:#0768b0;}.cls-8{fill:#e01581;}.cls-9{fill:#75c9f1;}.cls-10{fill:#922080;}.cls-11{fill:#433e8f;}.cls-12{stroke:#c6c6c5;stroke-linejoin:round;stroke-width:2px;}.cls-13{fill:url(#New_Gradient_Swatch_3);}.cls-14{stroke:url(#linear-gradient-3);}.cls-15{fill:url(#New_Gradient_Swatch_3-2);}</style><linearGradient id="New_Gradient_Swatch_2" x1="297.13" y1="33.57" x2="336.72" y2="73.15" gradientUnits="userSpaceOnUse"><stop offset="0" stop-color="#00ade6"/><stop offset="0.06" stop-color="#00a3de"/><stop offset="0.25" stop-color="#0083c5"/><stop offset="0.36" stop-color="#0077bc"/><stop offset="0.73" stop-color="#353579"/><stop offset="0.97" stop-color="#1d1a55"/></linearGradient><linearGradient id="linear-gradient" x1="354.2" y1="47.32" x2="372.56" y2="47.32" gradientUnits="userSpaceOnUse"><stop offset="0" stop-color="#525252"/><stop offset="0.07" stop-color="#787878"/><stop offset="0.15" stop-color="#9c9c9c"/><stop offset="0.24" stop-color="#bbb"/><stop offset="0.33" stop-color="#d4d4d4"/><stop offset="0.44" stop-color="#e7e7e7"/><stop offset="0.56" stop-color="#f5f5f5"/><stop offset="0.71" stop-color="#fdfdfd"/><stop offset="1" stop-color="#fff"/></linearGradient><linearGradient id="linear-gradient-2" x1="354.2" y1="58.13" x2="354.2" y2="40.84" xlink:href="#linear-gradient"/><linearGradient id="New_Gradient_Swatch_3" x1="243.25" y1="61.93" x2="258.11" y2="76.78" gradientUnits="userSpaceOnUse"><stop offset="0" stop-color="#ffee25"/><stop offset="0.37" stop-color="#f08f34"/><stop offset="1" stop-color="#e2312d"/></linearGradient><linearGradient id="linear-gradient-3" x1="184.21" y1="7.96" x2="270.71" y2="94.45" xlink:href="#New_Gradient_Swatch_2"/><linearGradient id="New_Gradient_Swatch_3-2" x1="254.13" y1="17.05" x2="267.14" y2="30.06" xlink:href="#New_Gradient_Swatch_3"/></defs><title>second_ut</title><g id="Orange-3" data-name="Orange"><path class="cls-1" d="M279.3,53.52h27.88M341,64.43V42a5.69,5.69,0,0,0-5.67-5.67H312.85A5.69,5.69,0,0,0,307.18,42V64.43a5.68,5.68,0,0,0,5.67,5.67h22.46A5.68,5.68,0,0,0,341,64.43Z"/><path class="cls-2" d="M380.31,58.31h13.58c3.86,0-.74,2.06-.74-1.42v1l1.57,1.53,1.12.6c.82-.17-.18,1.25.56,2.21.48.61,2.27,2.17,2.36,2.32H389.2C385.35,64.6,380.31,61.78,380.31,58.31Z"/><path class="cls-3" d="M396.06,59.48l.42.71c.82-.17.51,1.14,1.26,2.1a24.32,24.32,0,0,1,1.35,2.3l-.18,0c-1.33-.08-12.26.39-14.57-6.3h10.89"/><path class="cls-4" d="M370.4,42.49a6.47,6.47,0,0,0-4.32-1.65H354.2v6.48h11.88a6.48,6.48,0,0,1,6.48,6.48V47.32A6.45,6.45,0,0,0,370.4,42.49Z"/><path class="cls-5" d="M354.2,58.13V47.32a6.48,6.48,0,0,1,6.48-6.48H354.2a6.48,6.48,0,0,0-6.48,6.48v4.32A6.49,6.49,0,0,0,354.2,58.13Z"/><path class="cls-6" d="M370.4,42.49a6.47,6.47,0,0,0-4.32-1.65H354.2v6.48h11.88s6.48,7,6.48,10.61V47.32A6.45,6.45,0,0,0,370.4,42.49Z"/><path class="cls-7" d="M354.2,58.13V47.29l6.94-6.45H354.2a6.48,6.48,0,0,0-6.48,6.48v4.32C347.72,55.22,349.16,58.13,354.2,58.13Z"/><path class="cls-8" d="M388.06,40.7l11,23.89h0a11.41,11.41,0,0,1-9.7-6.32l-5.27-11.38a4.35,4.35,0,0,1,3.93-6.19Z"/><path class="cls-9" d="M366.08,47.32V58.1c0,4.2-6.27,6.51-9.85,6.51h9.85a6.48,6.48,0,0,0,6.48-6.48V53.8Z"/><path class="cls-10" d="M388.12,40.7a12,12,0,0,0-11.44,7.93c-4.45,10.89-7.36,16-18.32,16h10.27c5.57,0,8.9-2,12-8.19C383.62,50.62,384,44.34,388.12,40.7Z"/><path class="cls-11" d="M347.72,56.84a7.41,7.41,0,0,0,6.51,7.77h5c3.63,0,6.82-3.67,6.82-6.48H354.2s-6.48-7.49-6.48-7.49"/><line class="cls-12" x1="226.96" y1="113.1" x2="226.96" y2="135.64"/><polyline class="cls-12" points="214.59 124.5 226.74 136.65 238.88 124.5"/><path class="cls-11" d="M155.26,101.74v3.47H153v-3.5l-3.79-6.3h2.41l2.62,4.35,2.61-4.35h2.23Z"/><path class="cls-11" d="M158.46,101.45a4.15,4.15,0,1,1,4.15,3.88A3.89,3.89,0,0,1,158.46,101.45Zm6.07,0a1.93,1.93,0,1,0-1.92,2.08A1.9,1.9,0,0,0,164.53,101.45Z"/><path class="cls-11" d="M175.79,97.68v7.53h-2.08v-.89a3.07,3.07,0,0,1-2.34,1c-1.89,0-3.22-1.07-3.22-3.39V97.68h2.19v3.93c0,1.26.56,1.82,1.52,1.82s1.74-.64,1.74-2V97.68Z"/><path class="cls-11" d="M182.49,97.56v2c-.18,0-.32,0-.49,0a1.85,1.85,0,0,0-2,2.11v3.55h-2.19V97.68h2.09v1A3,3,0,0,1,182.49,97.56Z"/><path class="cls-11" d="M196,101.45a3.67,3.67,0,0,1-3.76,3.88,2.93,2.93,0,0,1-2.36-1v.86h-2.09V94.82H190v3.66a2.92,2.92,0,0,1,2.27-.92A3.67,3.67,0,0,1,196,101.45Zm-2.22,0a1.92,1.92,0,1,0-1.91,2.08A1.9,1.9,0,0,0,193.8,101.45Z"/><path class="cls-11" d="M196.91,101.45a4.15,4.15,0,1,1,4.15,3.88A3.89,3.89,0,0,1,196.91,101.45Zm6.06,0a1.93,1.93,0,1,0-1.91,2.08A1.9,1.9,0,0,0,203,101.45Z"/><path class="cls-11" d="M206.08,101.45a4.15,4.15,0,1,1,4.15,3.88A3.89,3.89,0,0,1,206.08,101.45Zm6.06,0a1.93,1.93,0,1,0-1.91,2.08A1.9,1.9,0,0,0,212.14,101.45Z"/><path class="cls-11" d="M219,102.26l-1,1v1.92h-2.18V94.82H218v5.88l3.2-3h2.6l-3.13,3.19,3.41,4.34h-2.64Z"/><path class="cls-11" d="M224.73,95.41a1.24,1.24,0,0,1,1.36-1.22,1.22,1.22,0,0,1,1.35,1.18,1.36,1.36,0,0,1-2.71,0Zm.26,2.27h2.19v7.53H225Z"/><path class="cls-11" d="M236.91,100.9v4.31h-2.18v-4c0-1.21-.56-1.77-1.53-1.77s-1.81.64-1.81,2v3.72h-2.18V97.68h2.08v.88a3.34,3.34,0,0,1,2.5-1C235.57,97.56,236.91,98.6,236.91,100.9Z"/><path class="cls-11" d="M246.74,97.68V104c0,2.8-1.51,4.09-4.23,4.09a6.25,6.25,0,0,1-3.7-1l.87-1.57a4.47,4.47,0,0,0,2.66.85c1.54,0,2.21-.7,2.21-2.06v-.32a3.1,3.1,0,0,1-2.38.94,3.65,3.65,0,1,1,0-7.29,3.07,3.07,0,0,1,2.5,1.08v-1Zm-2.16,3.53a2,2,0,0,0-4,0,2,2,0,0,0,4,0Z"/><path class="cls-11" d="M252,104.51l.73-1.57a5.08,5.08,0,0,0,2.62.73c1,0,1.38-.26,1.38-.68,0-1.24-4.55,0-4.55-3,0-1.43,1.29-2.44,3.49-2.44a6.24,6.24,0,0,1,2.9.66l-.73,1.56a4.31,4.31,0,0,0-2.17-.56c-1,0-1.4.31-1.4.7,0,1.29,4.55,0,4.55,3,0,1.4-1.3,2.4-3.56,2.4A6.49,6.49,0,0,1,252,104.51Z"/><path class="cls-11" d="M267.5,97.68l-3.4,8c-.73,1.82-1.77,2.36-3.13,2.36a3.37,3.37,0,0,1-2.1-.68l.8-1.56a1.92,1.92,0,0,0,1.23.48c.6,0,.94-.27,1.24-.94l0-.07-3.26-7.59h2.25l2.12,5.11,2.13-5.11Z"/><path class="cls-11" d="M267.55,104.51l.73-1.57a5.11,5.11,0,0,0,2.62.73c1,0,1.39-.26,1.39-.68,0-1.24-4.56,0-4.56-3,0-1.43,1.29-2.44,3.49-2.44a6.18,6.18,0,0,1,2.9.66l-.73,1.56a4.31,4.31,0,0,0-2.17-.56c-1,0-1.4.31-1.4.7,0,1.29,4.55,0,4.55,3,0,1.4-1.3,2.4-3.55,2.4A6.5,6.5,0,0,1,267.55,104.51Z"/><path class="cls-11" d="M280.57,104.85a3.1,3.1,0,0,1-1.77.48,2.49,2.49,0,0,1-2.82-2.71V99.53h-1.16V97.85H276V96h2.19v1.84H280v1.68h-1.87v3.06a.88.88,0,0,0,.93,1,1.5,1.5,0,0,0,.89-.28Z"/><path class="cls-11" d="M288.91,102.06H283.2a2,2,0,0,0,2.16,1.51,2.55,2.55,0,0,0,1.89-.72l1.17,1.26a4,4,0,0,1-3.11,1.22c-2.61,0-4.3-1.64-4.3-3.88a3.84,3.84,0,0,1,4-3.89,3.73,3.73,0,0,1,3.92,3.91C289,101.64,288.92,101.88,288.91,102.06Zm-5.73-1.27h3.71a1.88,1.88,0,0,0-3.71,0Z"/><path class="cls-11" d="M303.13,100.9v4.31H301v-4c0-1.21-.55-1.77-1.43-1.77s-1.67.63-1.67,2v3.78h-2.18v-4c0-1.21-.52-1.77-1.43-1.77s-1.66.63-1.66,2v3.78H290.4V97.68h2.09v.87a3,3,0,0,1,2.36-1,2.81,2.81,0,0,1,2.48,1.24,3.42,3.42,0,0,1,2.72-1.24C301.84,97.56,303.13,98.6,303.13,100.9Z"/><rect class="cls-13" x="238.84" y="66.35" width="23.69" height="6.02"/><path class="cls-14" d="M228,16.61H275.7A3,3,0,0,1,279,19.33V83.08a3,3,0,0,1-3.28,2.72H179.22a3,3,0,0,1-3.28-2.72V19.33a3,3,0,0,1,3.28-2.72H228M177.49,29.7H278.3M190.41,47.31h3m-3,11.4h3m-3,11.39h3m6.36-22.79h26.31m-26.31,11.4h26.31M199.75,70.1h26.31M266.4,56.91V50.16A4.2,4.2,0,0,0,262.21,46H238.9a4.2,4.2,0,0,0-4.19,4.19v6.75a4.21,4.21,0,0,0,4.19,4.19h23.31A4.2,4.2,0,0,0,266.4,56.91Z"/><path class="cls-15" d="M266.4,23.55a3,3,0,1,1,3,3A3,3,0,0,1,266.4,23.55Zm-5.25,3a3,3,0,1,0-3-3A3,3,0,0,0,261.15,26.55Zm-9.28,0a3,3,0,1,0-3-3A3,3,0,0,0,251.87,26.55Z"/></g></svg>