<svg xmlns="http://www.w3.org/2000/svg" xmlns:xlink="http://www.w3.org/1999/xlink" viewBox="0 0 454.09 161.39"><defs><style>.cls-1,.cls-10,.cls-12,.cls-15,.cls-16,.cls-5,.cls-8,.cls-9{fill:none;}.cls-1,.cls-10,.cls-2{stroke:#c6c6c5;stroke-width:2px;}.cls-1,.cls-10,.cls-12,.cls-15,.cls-16,.cls-17,.cls-18,.cls-2,.cls-5,.cls-8,.cls-9{stroke-linecap:round;}.cls-1,.cls-10,.cls-12,.cls-17,.cls-18,.cls-2{stroke-linejoin:round;}.cls-2{fill:#b1b1b1;}.cls-3{fill:#1d70b7;}.cls-4{fill:#0c4596;}.cls-15,.cls-16,.cls-5,.cls-8,.cls-9{stroke-miterlimit:10;}.cls-12,.cls-15,.cls-16,.cls-18,.cls-5,.cls-8{stroke-width:3px;}.cls-5{stroke:url(#New_Gradient_Swatch_2);}.cls-6{fill:url(#linear-gradient);}.cls-7{fill:url(#linear-gradient-2);}.cls-8{stroke:url(#New_Gradient_Swatch_2-2);}.cls-9{stroke:#2d2e82;stroke-width:6px;}.cls-10{stroke-dasharray:6.09 7.1;}.cls-11{fill:#433e8f;}.cls-12{stroke:url(#New_Gradient_Swatch_2-3);}.cls-13{fill:url(#linear-gradient-3);}.cls-14,.cls-17,.cls-18{fill:#fff;}.cls-15{stroke:url(#linear-gradient-4);}.cls-16{stroke:url(#New_Gradient_Swatch_2-4);}.cls-17{stroke:#fff;stroke-width:8.18px;}.cls-18{stroke:url(#New_Gradient_Swatch_2-5);}.cls-19{fill:url(#New_Gradient_Swatch_3);}.cls-20{fill:url(#linear-gradient-5);}</style><linearGradient id="New_Gradient_Swatch_2" x1="376.13" y1="63.18" x2="430.99" y2="118.05" gradientUnits="userSpaceOnUse"><stop offset="0" stop-color="#00ade6"/><stop offset="0.06" stop-color="#00a3de"/><stop offset="0.25" stop-color="#0083c5"/><stop offset="0.36" stop-color="#0077bc"/><stop offset="0.73" stop-color="#353579"/><stop offset="0.97" stop-color="#1d1a55"/></linearGradient><linearGradient id="linear-gradient" x1="396.41" y1="54.3" x2="410.7" y2="68.59" gradientUnits="userSpaceOnUse"><stop offset="0" stop-color="#ffee25"/><stop offset="0.37" stop-color="#f08f34"/><stop offset="1" stop-color="#e2312d"/></linearGradient><linearGradient id="linear-gradient-2" x1="320.59" y1="50.93" x2="350.42" y2="80.76" xlink:href="#linear-gradient"/><linearGradient id="New_Gradient_Swatch_2-2" x1="306.96" y1="42.56" x2="364.14" y2="99.74" xlink:href="#New_Gradient_Swatch_2"/><linearGradient id="New_Gradient_Swatch_2-3" x1="19.49" y1="64.64" x2="58.78" y2="103.94" xlink:href="#New_Gradient_Swatch_2"/><linearGradient id="linear-gradient-3" x1="60.58" y1="94.96" x2="71.32" y2="94.96" gradientUnits="userSpaceOnUse"><stop offset="0" stop-color="#f6a633"/><stop offset="0.89" stop-color="#e8452f"/><stop offset="1" stop-color="#e6392f"/></linearGradient><linearGradient id="linear-gradient-4" x1="200.31" y1="63.53" x2="215.38" y2="78.6" xlink:href="#linear-gradient"/><linearGradient id="New_Gradient_Swatch_2-4" x1="181.3" y1="16.86" x2="273.46" y2="109.02" xlink:href="#New_Gradient_Swatch_2"/><linearGradient id="New_Gradient_Swatch_2-5" x1="92.03" y1="38.86" x2="150.33" y2="97.16" xlink:href="#New_Gradient_Swatch_2"/><linearGradient id="New_Gradient_Swatch_3" x1="254.05" y1="23.4" x2="267.06" y2="36.41" xlink:href="#linear-gradient"/><linearGradient id="linear-gradient-5" x1="3526.68" y1="62.32" x2="3507.61" y2="81.39" gradientTransform="matrix(-1, 0, 0, 1, 3626.09, 0)" xlink:href="#linear-gradient"/></defs><title>third_t</title><g id="Orange-3" data-name="Orange"><polyline class="cls-1" points="215.23 143.86 227.38 156.01 239.53 143.87"/><line class="cls-2" x1="227.6" y1="132.75" x2="227.6" y2="154.28"/><circle class="cls-3" cx="388.84" cy="74.95" r="2.86"/><circle class="cls-3" cx="388.84" cy="90.92" r="2.86"/><circle class="cls-4" cx="388.84" cy="107.29" r="2.86"/><path class="cls-5" d="M396.61,75h23.44m-23.44,16h23.44m-23.44,16.37h23.44M428,118.07V63.17A2.14,2.14,0,0,0,425.83,61H381.29a2.14,2.14,0,0,0-2.14,2.14v54.9a2.14,2.14,0,0,0,2.14,2.14h44.54A2.14,2.14,0,0,0,428,118.07Z"/><path class="cls-6" d="M406.88,56.51a3,3,0,0,0-.71-3.13,3.86,3.86,0,0,0-2.67-1.06,3.42,3.42,0,0,0-3.36,3.41,3.33,3.33,0,0,0,.1.78h-5.85a.43.43,0,0,0-.43.43v9a.43.43,0,0,0,.43.43h18.34a.43.43,0,0,0,.43-.43v-9a.43.43,0,0,0-.43-.43Z"/><path class="cls-7" d="M340,63.12v5.71a1.65,1.65,0,0,1-1.65,1.65h-5.7A1.65,1.65,0,0,1,331,68.83V63.12a1.65,1.65,0,0,1,1.65-1.65h5.7A1.65,1.65,0,0,1,340,63.12ZM327.57,50.33h-5.7A1.65,1.65,0,0,0,320.21,52v5.7a1.66,1.66,0,0,0,1.66,1.66h5.7a1.65,1.65,0,0,0,1.65-1.66V52A1.65,1.65,0,0,0,327.57,50.33Zm10.77,0h-5.7A1.65,1.65,0,0,0,331,52v5.7a1.65,1.65,0,0,0,1.65,1.66h5.7A1.65,1.65,0,0,0,340,57.68V52A1.65,1.65,0,0,0,338.34,50.33Zm10.8,0h-5.7A1.65,1.65,0,0,0,341.78,52v5.7a1.66,1.66,0,0,0,1.66,1.66h5.7a1.65,1.65,0,0,0,1.65-1.66V52A1.65,1.65,0,0,0,349.14,50.33ZM327.57,61.47h-5.7a1.65,1.65,0,0,0-1.66,1.65v5.71a1.65,1.65,0,0,0,1.66,1.65h5.7a1.65,1.65,0,0,0,1.65-1.65V63.12A1.65,1.65,0,0,0,327.57,61.47Zm21.57,0h-5.7a1.65,1.65,0,0,0-1.66,1.65v5.71a1.65,1.65,0,0,0,1.66,1.65h5.7a1.65,1.65,0,0,0,1.65-1.65V63.12A1.65,1.65,0,0,0,349.14,61.47ZM327.57,72.35h-5.7A1.65,1.65,0,0,0,320.21,74v5.7a1.65,1.65,0,0,0,1.66,1.65h5.7a1.65,1.65,0,0,0,1.65-1.65V74A1.65,1.65,0,0,0,327.57,72.35Zm10.77,0h-5.7A1.65,1.65,0,0,0,331,74v5.7a1.65,1.65,0,0,0,1.65,1.65h5.7A1.65,1.65,0,0,0,340,79.7V74A1.65,1.65,0,0,0,338.34,72.35Zm10.8,0h-5.7A1.65,1.65,0,0,0,341.78,74v5.7a1.65,1.65,0,0,0,1.66,1.65h5.7a1.65,1.65,0,0,0,1.65-1.65V74A1.65,1.65,0,0,0,349.14,72.35Z"/><path class="cls-8" d="M335.74,35.48h18.91c.71,0,1.3,1.29,1.3,2.88V104c0,1.59-.59,2.88-1.3,2.88H316.44c-.71,0-1.29-1.29-1.29-2.88V38.36c0-1.59.58-2.88,1.29-2.88h19.3m-20.17,9.7H356M315.57,91.33H356m-24-51h7.55"/><line class="cls-9" x1="335.61" y1="98.98" x2="335.9" y2="98.98"/><line class="cls-1" x1="18.38" y1="34.43" x2="21.34" y2="33.98"/><polyline class="cls-10" points="28.37 32.92 227.99 2.95 429.23 33.44"/><line class="cls-1" x1="432.74" y1="33.98" x2="435.71" y2="34.43"/><path class="cls-11" d="M152.32,121.72l0-5.88-2.88,4.84h-1L145.52,116v5.76H143.4v-9.81h1.87l3.67,6.1,3.62-6.1h1.86l0,9.81Z"/><path class="cls-11" d="M156.05,118a4.15,4.15,0,1,1,4.15,3.88A3.88,3.88,0,0,1,156.05,118Zm6.07,0A1.94,1.94,0,1,0,160.2,120,1.91,1.91,0,0,0,162.12,118Z"/><path class="cls-11" d="M170.46,114.07v2a4.15,4.15,0,0,0-.49,0,1.85,1.85,0,0,0-2,2.1v3.56h-2.19v-7.54h2.09v1A3,3,0,0,1,170.46,114.07Z"/><path class="cls-11" d="M179,118.57h-5.7a2,2,0,0,0,2.16,1.51,2.57,2.57,0,0,0,1.89-.73l1.16,1.26a3.94,3.94,0,0,1-3.11,1.22c-2.61,0-4.3-1.64-4.3-3.88a3.83,3.83,0,0,1,4-3.88,3.73,3.73,0,0,1,3.92,3.91C179.07,118.15,179,118.38,179,118.57Zm-5.73-1.28H177a1.88,1.88,0,0,0-3.71,0Z"/><path class="cls-11" d="M191.15,117.42v4.3h-2v-.94a2.47,2.47,0,0,1-2.3,1c-1.76,0-2.81-1-2.81-2.28s.93-2.26,3.23-2.26H189c0-.94-.56-1.48-1.74-1.48a3.59,3.59,0,0,0-2.17.7l-.78-1.53a5.74,5.74,0,0,1,3.24-.91C189.82,114.07,191.15,115.13,191.15,117.42ZM189,119.34v-.77h-1.5c-1,0-1.35.37-1.35.88s.47.91,1.24.91A1.61,1.61,0,0,0,189,119.34Z"/><path class="cls-11" d="M201.33,118a3.66,3.66,0,0,1-3.75,3.88,2.91,2.91,0,0,1-2.27-.91v3.52h-2.19V114.18h2.09v.87a2.93,2.93,0,0,1,2.37-1A3.66,3.66,0,0,1,201.33,118Zm-2.21,0A1.93,1.93,0,1,0,197.2,120,1.91,1.91,0,0,0,199.12,118Z"/><path class="cls-11" d="M211,118a3.66,3.66,0,0,1-3.75,3.88,2.91,2.91,0,0,1-2.27-.91v3.52h-2.19V114.18h2.09v.87a2.93,2.93,0,0,1,2.37-1A3.66,3.66,0,0,1,211,118Zm-2.21,0a1.93,1.93,0,1,0-1.92,2.09A1.91,1.91,0,0,0,208.78,118Z"/><path class="cls-11" d="M211.72,121l.72-1.57a5.24,5.24,0,0,0,2.62.73c1,0,1.39-.27,1.39-.69,0-1.23-4.55,0-4.55-3,0-1.43,1.29-2.44,3.49-2.44a6.17,6.17,0,0,1,2.89.66l-.72,1.55a4.36,4.36,0,0,0-2.17-.56c-1,0-1.41.31-1.41.7,0,1.29,4.56,0,4.56,3,0,1.41-1.31,2.4-3.56,2.4A6.46,6.46,0,0,1,211.72,121Z"/><path class="cls-11" d="M230.51,117.42v4.3h-2v-.94a2.46,2.46,0,0,1-2.3,1c-1.76,0-2.81-1-2.81-2.28s.94-2.26,3.23-2.26h1.74c0-.94-.56-1.48-1.74-1.48a3.61,3.61,0,0,0-2.17.7l-.78-1.53a5.78,5.78,0,0,1,3.25-.91C229.18,114.07,230.51,115.13,230.51,117.42Zm-2.19,1.92v-.77h-1.5c-1,0-1.34.37-1.34.88s.46.91,1.23.91A1.61,1.61,0,0,0,228.32,119.34Z"/><path class="cls-11" d="M240.18,117.4v4.32H238v-4c0-1.22-.57-1.78-1.53-1.78s-1.81.65-1.81,2v3.73h-2.18v-7.54h2.08v.88a3.32,3.32,0,0,1,2.5-1C238.84,114.07,240.18,115.11,240.18,117.4Z"/><path class="cls-11" d="M249.91,111.32v10.4h-2.09v-.87a2.88,2.88,0,0,1-2.35,1,3.88,3.88,0,0,1,0-7.76,2.87,2.87,0,0,1,2.25.91v-3.66ZM247.77,118a1.93,1.93,0,1,0-1.92,2.09A1.91,1.91,0,0,0,247.77,118Z"/><path class="cls-11" d="M255.16,121l.72-1.57a5.24,5.24,0,0,0,2.62.73c1,0,1.39-.27,1.39-.69,0-1.23-4.55,0-4.55-3,0-1.43,1.29-2.44,3.49-2.44a6.17,6.17,0,0,1,2.89.66l-.72,1.55a4.36,4.36,0,0,0-2.17-.56c-1,0-1.4.31-1.4.7,0,1.29,4.55,0,4.55,3,0,1.41-1.31,2.4-3.56,2.4A6.46,6.46,0,0,1,255.16,121Z"/><path class="cls-11" d="M270.66,118.57H265a2,2,0,0,0,2.15,1.51,2.54,2.54,0,0,0,1.89-.73l1.17,1.26a3.94,3.94,0,0,1-3.11,1.22c-2.61,0-4.3-1.64-4.3-3.88a3.83,3.83,0,0,1,4-3.88A3.73,3.73,0,0,1,270.7,118C270.7,118.15,270.67,118.38,270.66,118.57Zm-5.73-1.28h3.71a1.88,1.88,0,0,0-3.71,0Z"/><path class="cls-11" d="M276.83,114.07v2a4.15,4.15,0,0,0-.49,0,1.85,1.85,0,0,0-2,2.1v3.56h-2.19v-7.54h2.09v1A3,3,0,0,1,276.83,114.07Z"/><path class="cls-11" d="M285.88,114.18l-3.18,7.54h-2.26l-3.17-7.54h2.26l2.09,5.13,2.15-5.13Z"/><path class="cls-11" d="M286.5,111.91a1.26,1.26,0,0,1,1.36-1.22,1.23,1.23,0,0,1,1.36,1.18,1.37,1.37,0,0,1-2.72,0Zm.27,2.27H289v7.54h-2.18Z"/><path class="cls-11" d="M290.42,118a3.89,3.89,0,0,1,4.2-3.88A3.47,3.47,0,0,1,298,116l-1.7.91a1.86,1.86,0,0,0-1.69-1,2.09,2.09,0,0,0,0,4.18,1.84,1.84,0,0,0,1.69-1l1.7.93a3.5,3.5,0,0,1-3.38,1.9A3.89,3.89,0,0,1,290.42,118Z"/><path class="cls-11" d="M306.5,118.57h-5.7a2,2,0,0,0,2.15,1.51,2.54,2.54,0,0,0,1.89-.73l1.17,1.26a3.94,3.94,0,0,1-3.11,1.22c-2.61,0-4.3-1.64-4.3-3.88a3.83,3.83,0,0,1,4-3.88,3.73,3.73,0,0,1,3.92,3.91C306.54,118.15,306.51,118.38,306.5,118.57Zm-5.73-1.28h3.71a1.88,1.88,0,0,0-3.71,0Z"/><path class="cls-11" d="M307.26,121l.73-1.57a5.21,5.21,0,0,0,2.62.73c1,0,1.39-.27,1.39-.69,0-1.23-4.56,0-4.56-3,0-1.43,1.29-2.44,3.49-2.44a6.18,6.18,0,0,1,2.9.66l-.73,1.55a4.31,4.31,0,0,0-2.17-.56c-1,0-1.4.31-1.4.7,0,1.29,4.55,0,4.55,3,0,1.41-1.3,2.4-3.55,2.4A6.5,6.5,0,0,1,307.26,121Z"/><path class="cls-12" d="M61.28,95.67A9.84,9.84,0,0,0,53.55,99,7.61,7.61,0,0,0,52,101.83a24.13,24.13,0,0,0-.68,3.48v0a14.52,14.52,0,0,1-4.07,8A14.36,14.36,0,0,1,37,117.57h0A14.47,14.47,0,0,1,26.8,92.87a15.91,15.91,0,0,1,6.73-3.51l.58-.19c2.35-.75,4.41-1.5,5.74-3.1a7.93,7.93,0,0,0,1.76-4.28l0-.48M27.27,62H24.21c0,10.5,7.62,19,17,19s17-8.52,17-19H55.36"/><path class="cls-13" d="M66,92.59a2.37,2.37,0,0,1,1.68,4,2.39,2.39,0,0,1-3.36,0,2.37,2.37,0,0,1,1.68-4m0-3a5.37,5.37,0,1,0,3.8,1.57A5.36,5.36,0,0,0,66,89.59Z"/><rect class="cls-14" x="172.36" y="20.82" width="110.04" height="84.24" rx="5.41" ry="5.41"/><path class="cls-14" d="M277,23.6a2.64,2.64,0,0,1,2.63,2.63V99.65a2.64,2.64,0,0,1-2.63,2.63H177.77a2.64,2.64,0,0,1-2.63-2.63V26.23a2.64,2.64,0,0,1,2.63-2.63H277M277,18H177.77a8.2,8.2,0,0,0-8.19,8.19V99.65a8.19,8.19,0,0,0,8.19,8.19H277a8.19,8.19,0,0,0,8.19-8.19V26.23A8.2,8.2,0,0,0,277,18Z"/><path class="cls-15" d="M209.26,71.55l-7.63-7.17L192,74.49m32-6.61-6.94-6L203.88,78.25"/><path class="cls-16" d="M277,102.28H177.77a2.64,2.64,0,0,1-2.63-2.63V26.23a2.64,2.64,0,0,1,2.63-2.63H277a2.64,2.64,0,0,1,2.63,2.63V99.65A2.64,2.64,0,0,1,277,102.28ZM175.14,35.82H279.62M231,50h34.24M231,59h34.24M231,68.81h34.24M231,78.25h34.24M192.75,88.64h72.51M224,77.84V50.9a.88.88,0,0,0-.87-.88H192.84a.88.88,0,0,0-.87.88V77.84a.88.88,0,0,0,.87.88H223.1A.88.88,0,0,0,224,77.84Z"/><path class="cls-17" d="M159.7,79.12h-2.88l-1.24,10.67-8.27-10.67h-34.8a2,2,0,0,1-2-2v-37a2,2,0,0,1,2-2H159.7a2,2,0,0,1,2,2V77.1A2,2,0,0,1,159.7,79.12Z"/><path class="cls-17" d="M84.62,93.55h3l1.3,11.52,8.62-11.52h36.29a2.14,2.14,0,0,0,2.1-2.17v-40a2.15,2.15,0,0,0-2.1-2.17H84.62a2.15,2.15,0,0,0-2.11,2.17v40A2.14,2.14,0,0,0,84.62,93.55Z"/><path class="cls-18" d="M84.62,93.55h3l1.3,11.52,8.62-11.52h36.29a2.14,2.14,0,0,0,2.1-2.17v-40a2.15,2.15,0,0,0-2.1-2.17H84.62a2.15,2.15,0,0,0-2.11,2.17v40A2.14,2.14,0,0,0,84.62,93.55Zm77.09-53.5V77.1a2,2,0,0,1-2,2h-2.88l-1.24,10.67-8.27-10.67H135.92V51.41a2.15,2.15,0,0,0-2.1-2.17H110.49V40.05a2,2,0,0,1,2-2H159.7A2,2,0,0,1,161.71,40.05Z"/><path class="cls-19" d="M266.32,29.91a3,3,0,1,1,3,3A3,3,0,0,1,266.32,29.91Zm-5.25,3a3,3,0,1,0-3-3A3,3,0,0,0,261.07,32.91Zm-9.28,0a3,3,0,1,0-3-3A3,3,0,0,0,251.79,32.91Z"/><path class="cls-20" d="M118.21,71.85a4.07,4.07,0,1,1,4.07,4.07A4.08,4.08,0,0,1,118.21,71.85ZM109,75.92a4.07,4.07,0,1,0-4.07-4.07A4.07,4.07,0,0,0,109,75.92Zm-13.33,0a4.07,4.07,0,1,0-4.06-4.07A4.07,4.07,0,0,0,95.62,75.92Z"/></g></svg>