<svg id="Layer_1" data-name="Layer 1" xmlns="http://www.w3.org/2000/svg" xmlns:xlink="http://www.w3.org/1999/xlink" viewBox="0 0 113.39 113.39"><defs><style>.cls-1{fill:url(#linear-gradient);}.cls-2{fill:url(#linear-gradient-2);}</style><linearGradient id="linear-gradient" x1="13.45" y1="76.1" x2="75.09" y2="76.1" gradientUnits="userSpaceOnUse"><stop offset="0" stop-color="#1d9ad7"/><stop offset="0.48" stop-color="#1366af"/><stop offset="1" stop-color="#423f92"/></linearGradient><linearGradient id="linear-gradient-2" x1="10.04" y1="36.73" x2="103.35" y2="36.73" gradientUnits="userSpaceOnUse"><stop offset="0" stop-color="#f7a834"/><stop offset="0.18" stop-color="#f59a33"/><stop offset="0.53" stop-color="#f07632"/><stop offset="0.99" stop-color="#e73b30"/><stop offset="1" stop-color="#e73a30"/></linearGradient></defs><title>upward-graph</title><path class="cls-1" d="M27.78,63.25H34a1.35,1.35,0,0,1,1.35,1.35V99.78A1.35,1.35,0,0,1,34,101.13H27.78a1.35,1.35,0,0,1-1.35-1.35V64.6A1.35,1.35,0,0,1,27.78,63.25Zm-14.33,8V99.78a1.35,1.35,0,0,0,1.35,1.35H21a1.35,1.35,0,0,0,1.35-1.35V71.25A1.35,1.35,0,0,0,21,69.9H14.8A1.35,1.35,0,0,0,13.45,71.25ZM39.68,57.08v42.7A1.35,1.35,0,0,0,41,101.13h6.22a1.35,1.35,0,0,0,1.35-1.35V57.08a1.35,1.35,0,0,0-1.35-1.35H41A1.35,1.35,0,0,0,39.68,57.08ZM53.2,63.36V99.78a1.35,1.35,0,0,0,1.35,1.35h6.22a1.35,1.35,0,0,0,1.35-1.35V63.36A1.35,1.35,0,0,0,60.77,62H54.55A1.35,1.35,0,0,0,53.2,63.36Zm13-10.93V99.78a1.35,1.35,0,0,0,1.35,1.35h6.22a1.35,1.35,0,0,0,1.35-1.35V52.43a1.35,1.35,0,0,0-1.35-1.35H67.52A1.35,1.35,0,0,0,66.17,52.43Z"/><path class="cls-2" d="M10,60h0L44.63,31.91a1.32,1.32,0,0,1,1.74,0l.6.38,17.71,11c.61.36,1.23.66,1.78.24l.1-.08L88.6,23.76,75.46,19.52a.52.52,0,0,1,0-1l27.32-6.25a.46.46,0,0,1,.55.59L95.85,39.12a.52.52,0,0,1-1,0L91.06,27.39l.39-.12a3,3,0,0,1,3.74,1.9h0l3.38-11.74a.46.46,0,0,0-.55-.59l-9.79,2.21a.52.52,0,0,0,0,1l4.33,1.41A1.6,1.6,0,0,1,93,24.18l-26.23,24a1.47,1.47,0,0,1-1.85,0c-.31-.2-.78-.49-.81-.52L46.39,36.13c-.75-.6-1.22-.67-1.78-.25l-.12.1L15.09,60.42C13.75,61.71,11.33,61.29,10,60Z"/></svg>