<?xml version="1.0" encoding="utf-8"?>
<!-- Generator: Adobe Illustrator 21.1.0, SVG Export Plug-In . SVG Version: 6.00 Build 0)  -->
<svg version="1.1" id="Layer_1" xmlns="http://www.w3.org/2000/svg" xmlns:xlink="http://www.w3.org/1999/xlink" x="0px" y="0px"
	 viewBox="0 0 1464 561" style="enable-background:new 0 0 1464 561;" xml:space="preserve">
<style type="text/css">
	.st0{fill:#009EE3;stroke:#FFFFFF;stroke-width:4;stroke-miterlimit:10;}
	.st1{fill:#0067B1;stroke:#FFFFFF;stroke-width:4;stroke-miterlimit:10;}
	.st2{fill:#931E80;stroke:#FFFFFF;stroke-width:4;stroke-miterlimit:10;}
	.st3{fill:#F6A635;stroke:#FFFFFF;stroke-width:4;stroke-miterlimit:10;}
	.st4{fill:#E11482;stroke:#FFFFFF;stroke-width:4;stroke-miterlimit:10;}
	.st5{fill:#E63B2E;stroke:#FFFFFF;stroke-width:4;stroke-miterlimit:10;}
	.st6{display:none;}
	.st7{display:inline;opacity:0.2;fill:#F5F5F5;enable-background:new    ;}
	.st8{display:inline;opacity:0.3;fill:#F5F5F5;enable-background:new    ;}
	.st9{display:inline;fill:#F5F5F5;}
	.st10{display:inline;}
	.st11{fill:#F5F5F5;}
	.st12{display:inline;opacity:0.4;fill:#F5F5F5;enable-background:new    ;}
	.st13{opacity:0.4;fill:#F5F5F5;enable-background:new    ;}
	.st14{opacity:0.4;}
	.st15{display:inline;opacity:0.6;fill:#F5F5F5;enable-background:new    ;}
	.st16{fill:none;stroke:#FFFFFF;stroke-width:3;stroke-miterlimit:10;}
	.st17{fill:#FFFFFF;}
	.st18{fill:none;}
	.st19{font-family:'Montserrat-Regular';}
	.st20{font-size:41px;}
	.st21{font-size:17px;}
	.st22{font-family:'SourceSansPro-Regular';}
	.st23{font-size:23px;}
</style>
<g id="Layer_4">
	<circle class="st0" cx="126.6" cy="260" r="36.9"/>
	<circle class="st1" cx="265.1" cy="260" r="36.9"/>
	<circle class="st2" cx="401.2" cy="259" r="36.9"/>
	<circle class="st3" cx="1173.7" cy="260" r="36.9"/>
	<path class="st4" d="M703.5,223.1c-13.4,0-25.2,7.2-31.7,17.9c-6.5-10.7-18.2-17.9-31.7-17.9c-20.4,0-36.9,16.5-36.9,36.9
		s16.5,36.9,36.9,36.9c13.4,0,25.2-7.2,31.7-17.9c6.5,10.7,18.2,17.9,31.7,17.9c20.4,0,36.9-16.5,36.9-36.9
		C740.5,239.6,723.9,223.1,703.5,223.1z"/>
	<path class="st5" d="M1039.2,223.1c-13.4,0-25.2,7.2-31.7,17.9c-6.5-10.7-18.2-17.9-31.7-17.9c-20.4,0-36.9,16.5-36.9,36.9
		s16.5,36.9,36.9,36.9c13.4,0,25.2-7.2,31.7-17.9c6.5,10.7,18.2,17.9,31.7,17.9c20.4,0,36.9-16.5,36.9-36.9
		S1059.6,223.1,1039.2,223.1z"/>
</g>
<g id="dots">
	<g class="st6">
		<rect x="261.3" y="364" class="st7" width="155.6" height="107.8"/>
		<polygon class="st8" points="261.4,441.8 270,438.8 293,411.9 316.1,399.9 339.1,411.9 362.2,399.9 385.2,376 408.3,405.9 
			416.9,411.9 416.9,471.8 261.3,471.8 		"/>
		<path class="st9" d="M429.8,478.3l0.6-0.6l-0.6-0.6l0,0l-5.8-6c-0.3-0.3-0.8-0.3-1.1,0s-0.3,0.9,0,1.2l4.4,4.6H256.4V355.2
			l4.4,4.6c0.2,0.2,0.4,0.2,0.6,0.2s0.4-0.1,0.6-0.2c0.3-0.3,0.3-0.9,0-1.2l-5.8-6l0,0l-0.6-0.6l-0.6,0.6l0,0l-5.8,6
			c-0.3,0.3-0.3,0.9,0,1.2s0.8,0.3,1.1,0l4.4-4.6v13.9h-2.1c-0.4,0-0.8,0.4-0.8,0.8c0,0.5,0.4,0.8,0.8,0.8h2.1v4.3h-2.1
			c-0.4,0-0.8,0.4-0.8,0.8c0,0.5,0.4,0.8,0.8,0.8h2.1v4.3h-2.1c-0.4,0-0.8,0.4-0.8,0.8c0,0.5,0.4,0.8,0.8,0.8h2.1v4.3h-2.1
			c-0.4,0-0.8,0.4-0.8,0.8c0,0.5,0.4,0.8,0.8,0.8h2.1v4.3h-2.1c-0.4,0-0.8,0.4-0.8,0.8c0,0.5,0.4,0.8,0.8,0.8h2.1v4.3h-2.1
			c-0.4,0-0.8,0.4-0.8,0.8s0.4,0.8,0.8,0.8h2.1v4.3h-2.1c-0.4,0-0.8,0.4-0.8,0.8c0,0.5,0.4,0.8,0.8,0.8h2.1v4.3h-2.1
			c-0.4,0-0.8,0.4-0.8,0.8c0,0.5,0.4,0.8,0.8,0.8h2.1v4.3h-2.1c-0.4,0-0.8,0.4-0.8,0.8c0,0.5,0.4,0.8,0.8,0.8h2.1v4.3h-2.1
			c-0.4,0-0.8,0.4-0.8,0.8c0,0.5,0.4,0.8,0.8,0.8h2.1v4.3h-2.1c-0.4,0-0.8,0.4-0.8,0.8c0,0.5,0.4,0.8,0.8,0.8h2.1v4.3h-2.1
			c-0.4,0-0.8,0.4-0.8,0.8c0,0.5,0.4,0.8,0.8,0.8h2.1v4.3h-2.1c-0.4,0-0.8,0.4-0.8,0.8s0.4,0.8,0.8,0.8h2.1v4.3h-2.1
			c-0.4,0-0.8,0.4-0.8,0.8s0.4,0.8,0.8,0.8h2.1v4.3h-2.1c-0.4,0-0.8,0.4-0.8,0.8c0,0.5,0.4,0.8,0.8,0.8h2.1v4.3h-2.1
			c-0.4,0-0.8,0.4-0.8,0.8c0,0.5,0.4,0.8,0.8,0.8h2.1v4.3h-2.1c-0.4,0-0.8,0.4-0.8,0.8c0,0.5,0.4,0.8,0.8,0.8h2.1v4.3h-2.1
			c-0.4,0-0.8,0.4-0.8,0.8c0,0.5,0.4,0.8,0.8,0.8h2.1v6h5.8v2.3c0,0.5,0.4,0.8,0.8,0.8s0.8-0.4,0.8-0.8V477h4.2v2.3
			c0,0.5,0.4,0.8,0.8,0.8s0.8-0.4,0.8-0.8V477h4.2v2.3c0,0.5,0.4,0.8,0.8,0.8s0.8-0.4,0.8-0.8V477h4.2v2.3c0,0.5,0.4,0.8,0.8,0.8
			s0.8-0.4,0.8-0.8V477h4.2v2.3c0,0.5,0.4,0.8,0.8,0.8s0.8-0.4,0.8-0.8V477h4.2v2.3c0,0.5,0.4,0.8,0.8,0.8s0.8-0.4,0.8-0.8V477h4.2
			v2.3c0,0.5,0.4,0.8,0.8,0.8s0.8-0.4,0.8-0.8V477h4.2v2.3c0,0.5,0.4,0.8,0.8,0.8s0.8-0.4,0.8-0.8V477h4.2v2.3
			c0,0.5,0.4,0.8,0.8,0.8s0.8-0.4,0.8-0.8V477h4.2v2.3c0,0.5,0.4,0.8,0.8,0.8s0.8-0.4,0.8-0.8V477h4.2v2.3c0,0.5,0.4,0.8,0.8,0.8
			s0.8-0.4,0.8-0.8V477h4.2v2.3c0,0.5,0.4,0.8,0.8,0.8s0.8-0.4,0.8-0.8V477h4.2v2.3c0,0.5,0.4,0.8,0.8,0.8s0.8-0.4,0.8-0.8V477h4.2
			v2.3c0,0.5,0.4,0.8,0.8,0.8c0.4,0,0.8-0.4,0.8-0.8V477h4.2v2.3c0,0.5,0.4,0.8,0.8,0.8c0.4,0,0.8-0.4,0.8-0.8V477h4.2v2.3
			c0,0.5,0.4,0.8,0.8,0.8c0.4,0,0.8-0.4,0.8-0.8V477h4.2v2.3c0,0.5,0.4,0.8,0.8,0.8c0.4,0,0.8-0.4,0.8-0.8V477h4.2v2.2
			c0,0.5,0.4,0.8,0.8,0.8c0.4,0,0.8-0.4,0.8-0.8V477h4.2v2.2c0,0.5,0.4,0.8,0.8,0.8c0.4,0,0.8-0.4,0.8-0.8V477h4.2v2.2
			c0,0.5,0.4,0.8,0.8,0.8c0.4,0,0.8-0.4,0.8-0.8V477h4.2v2.2c0,0.5,0.4,0.8,0.8,0.8c0.4,0,0.8-0.4,0.8-0.8V477h4.2v2.2
			c0,0.5,0.4,0.8,0.8,0.8c0.4,0,0.8-0.4,0.8-0.8V477h4.2v2.2c0,0.5,0.4,0.8,0.8,0.8c0.4,0,0.8-0.4,0.8-0.8V477h4.2v2.2
			c0,0.5,0.4,0.8,0.8,0.8c0.4,0,0.8-0.4,0.8-0.8V477h4.2v2.2c0,0.5,0.4,0.8,0.8,0.8c0.4,0,0.8-0.4,0.8-0.8V477h4.2v2.2
			c0,0.5,0.4,0.8,0.8,0.8c0.4,0,0.8-0.4,0.8-0.8V477h21.1l-4.4,4.6c-0.3,0.3-0.3,0.9,0,1.2c0.2,0.2,0.4,0.2,0.6,0.2
			c0.2,0,0.4-0.1,0.6-0.2L429.8,478.3L429.8,478.3z"/>
		<rect x="267.1" y="364" class="st7" width="5.8" height="107.8"/>
		<rect x="278.6" y="364" class="st7" width="5.8" height="107.8"/>
		<rect x="290.1" y="364" class="st7" width="5.8" height="107.8"/>
		<rect x="301.7" y="364" class="st7" width="5.8" height="107.8"/>
		<rect x="313.2" y="364" class="st7" width="5.8" height="107.8"/>
		<rect x="324.7" y="364" class="st7" width="5.8" height="107.8"/>
		<rect x="336.2" y="364" class="st7" width="5.8" height="107.8"/>
		<rect x="347.8" y="364" class="st7" width="5.8" height="107.8"/>
		<rect x="359.3" y="364" class="st7" width="5.8" height="107.8"/>
		<rect x="370.8" y="364" class="st7" width="5.8" height="107.8"/>
		<rect x="382.3" y="364" class="st7" width="5.8" height="107.8"/>
		<rect x="393.9" y="364" class="st7" width="5.8" height="107.8"/>
		<rect x="405.4" y="364" class="st7" width="5.8" height="107.8"/>
		<path class="st9" d="M261.4,442.5c-0.3,0-0.5-0.2-0.6-0.5s0.1-0.7,0.4-0.8l8.4-2.9l23-26.9l23.4-12.2l23,12l22.7-11.8l23.5-24.4
			l23.4,30.4l8.6,5.9c0.3,0.2,0.4,0.6,0.2,0.9c-0.2,0.3-0.6,0.4-0.9,0.2l-8.7-6l-0.1-0.1l-22.6-29.4l-22.6,23.5h-0.1l-23.3,12.1
			l-23-12l-22.7,11.8l-23.1,27l-8.7,3.1C261.6,442.5,261.5,442.5,261.4,442.5z"/>
		<path class="st9" d="M410.3,478.6v2.2c0,0.5,0.4,0.8,0.8,0.8c0.4,0,0.8-0.4,0.8-0.8v-2.2H410.3z"/>
		<g class="st10">
			<path class="st11" d="M411.1,405.9c0,1.7-1.3,3-2.9,3c-1.6,0-2.9-1.3-2.9-3s1.3-3,2.9-3S411.1,404.2,411.1,405.9z"/>
			<path class="st11" d="M409.7,405.9c0,0.8-0.6,1.5-1.4,1.5c-0.8,0-1.4-0.7-1.4-1.5s0.6-1.5,1.4-1.5
				C409.1,404.4,409.7,405.1,409.7,405.9z"/>
		</g>
		<g class="st10">
			<path class="st11" d="M388.3,376.1c0,1.7-1.3,3-2.9,3c-1.6,0-2.9-1.3-2.9-3s1.3-3,2.9-3S388.3,374.4,388.3,376.1z"/>
			<path class="st11" d="M386.9,376.1c0,0.8-0.6,1.5-1.4,1.5c-0.8,0-1.4-0.7-1.4-1.5s0.6-1.5,1.4-1.5
				C386.2,374.6,386.9,375.2,386.9,376.1z"/>
		</g>
		<g class="st10">
			<path class="st11" d="M365,399.9c0,1.7-1.3,3-2.9,3c-1.6,0-2.9-1.3-2.9-3s1.3-3,2.9-3C363.8,396.9,365,398.2,365,399.9z"/>
			<path class="st11" d="M363.6,399.9c0,0.8-0.6,1.5-1.4,1.5c-0.8,0-1.4-0.7-1.4-1.5s0.6-1.5,1.4-1.5S363.6,399.1,363.6,399.9z"/>
		</g>
		<g class="st10">
			<path class="st11" d="M342,411.9c0,1.7-1.3,3-2.9,3c-1.6,0-2.9-1.3-2.9-3s1.3-3,2.9-3C340.7,408.9,342,410.2,342,411.9z"/>
			<path class="st11" d="M340.6,411.9c0,0.8-0.6,1.5-1.4,1.5s-1.4-0.7-1.4-1.5s0.6-1.5,1.4-1.5S340.6,411.1,340.6,411.9z"/>
		</g>
		<g class="st10">
			<path class="st11" d="M318.9,399.9c0,1.7-1.3,3-2.9,3s-2.9-1.3-2.9-3s1.3-3,2.9-3C317.7,396.9,318.9,398.2,318.9,399.9z"/>
			<path class="st11" d="M317.5,399.9c0,0.8-0.6,1.5-1.4,1.5s-1.4-0.7-1.4-1.5s0.6-1.5,1.4-1.5S317.5,399.1,317.5,399.9z"/>
		</g>
		<g class="st10">
			<path class="st11" d="M295.9,411.9c0,1.7-1.3,3-2.9,3s-2.9-1.3-2.9-3s1.3-3,2.9-3S295.9,410.2,295.9,411.9z"/>
			<path class="st11" d="M294.5,411.9c0,0.8-0.6,1.5-1.4,1.5s-1.4-0.7-1.4-1.5s0.6-1.5,1.4-1.5C293.8,410.4,294.5,411.1,294.5,411.9
				z"/>
		</g>
		<g class="st10">
			<path class="st11" d="M272.8,438.8c0,1.7-1.3,3-2.9,3s-2.9-1.3-2.9-3s1.3-3,2.9-3C271.6,435.8,272.8,437.2,272.8,438.8z"/>
			<path class="st11" d="M271.4,438.8c0,0.8-0.6,1.5-1.4,1.5s-1.4-0.7-1.4-1.5s0.6-1.5,1.4-1.5S271.4,438,271.4,438.8z"/>
		</g>
	</g>
	<g class="st6">
		<rect x="828.9" y="-192.5" class="st7" width="303.7" height="67.5"/>
		<polygon class="st9" points="1133.2,-193.1 830.1,-193.1 830.1,-260 828.9,-260 828.9,-125 830.1,-125 830.1,-191.9 
			1133.2,-191.9 		"/>
		<path class="st9" d="M1082.6-260.2h-0.2H1032h-0.2h-50.4h-0.2h-50.4h-0.2h-50.4H880h-50.6v34v33.5v33.7v0.2v33.8H880h0.2h50.4h0.2
			h50.4h0.2h50.4h0.2h50.4h0.2h50.6v-33.7v-0.3v-33.7v-33.5v-34H1082.6L1082.6-260.2z M1133-260v33.5h-50.4V-260H1133z M1082.3-260
			v33.5H1032V-260H1082.3z M981.1-192.7h-50.4v-33.5h50.4V-192.7z M981.4-226.2h50.4v33.5h-50.4V-226.2z M930.5-192.7h-50.4v-33.5
			h50.4V-192.7z M930.5-192.5v33.5h-50.4v-33.5H930.5z M930.7-192.5h50.4v33.5h-50.4V-192.5z M981.4-192.5h50.4v33.5h-50.4V-192.5z
			 M1032-192.5h50.4v33.5H1032V-192.5z M1032-192.7v-33.5h50.4v33.5H1032z M1031.7-260v33.5h-50.4V-260H1031.7z M981.1-260v33.5
			h-50.4V-260H981.1z M930.5-260v33.5h-50.4V-260H930.5z M829.5-260h50.4v33.5h-50.4V-260z M829.5-226.2h50.4v33.5h-50.4V-226.2z
			 M829.5-192.5h50.4v33.5h-50.4V-192.5z M829.5-125.2v-33.5h50.4v33.5H829.5z M880.1-125.2v-33.5h50.4v33.5H880.1z M930.7-125.2
			v-33.5h50.4v33.5H930.7z M981.4-125.2v-33.5h50.4v33.5H981.4z M1032-125.2v-33.5h50.4v33.5H1032z M1133-125.2h-50.4v-33.5h50.4
			V-125.2z M1082.6-159v-33.5h50.4v33.5H1082.6z M1133-192.7h-50.4v-33.5h50.4V-192.7z"/>
		<rect x="831.6" y="-243.1" class="st9" width="12.7" height="50.6"/>
		<rect x="848.5" y="-222" class="st9" width="12.7" height="29.5"/>
		<rect x="865.4" y="-207.2" class="st9" width="12.7" height="14.8"/>
		<rect x="882.2" y="-203" class="st9" width="12.7" height="10.5"/>
		<rect x="899.1" y="-196.7" class="st12" width="12.7" height="12.7"/>
		<path class="st9" d="M927.7-191.6v8.7h-10.8v-8.7H927.7L927.7-191.6z M928.6-192.5H916v10.5h12.7L928.6-192.5L928.6-192.5z"/>
		<path class="st9" d="M944.6-191.6v19.3h-10.8v-19.3H944.6L944.6-191.6z M945.5-192.5h-12.7v21.1h12.7V-192.5L945.5-192.5z"/>
		<path class="st9" d="M961.5-191.6v15.1h-10.8v-15.1H961.5L961.5-191.6z M962.4-192.5h-12.7v16.9h12.7V-192.5L962.4-192.5z"/>
		<path class="st9" d="M978.3-191.6v6.6h-10.8v-6.6H978.3L978.3-191.6z M979.2-192.5h-12.7v8.4h12.7V-192.5L979.2-192.5z"/>
		<rect x="983.5" y="-200.9" class="st12" width="12.7" height="12.7"/>
		<rect x="1000.3" y="-213.6" class="st9" width="12.7" height="21.1"/>
		<rect x="1017.2" y="-217.8" class="st9" width="12.7" height="25.3"/>
		<rect x="1034.1" y="-209.4" class="st9" width="12.7" height="16.9"/>
		<rect x="1050.9" y="-196.7" class="st12" width="12.7" height="21.1"/>
		<path class="st9" d="M1079.6-191.6v19.4h-10.8v-19.4H1079.6L1079.6-191.6z M1080.5-192.5h-12.7v21.2h12.7V-192.5L1080.5-192.5z"/>
		<path class="st9" d="M1096.4-191.6v44.3h-10.8v-44.3H1096.4L1096.4-191.6z M1097.3-192.5h-12.7v46.2h12.7V-192.5L1097.3-192.5z"/>
		<path class="st9" d="M1113.3-191.6v53.6h-10.8v-53.6H1113.3L1113.3-191.6z M1114.2-192.5h-12.7v55.4h12.7V-192.5L1114.2-192.5z"/>
		<path class="st9" d="M1130.2-191.6v25.6h-10.8v-25.6H1130.2L1130.2-191.6z M1131.1-192.5h-12.7v27.4h12.7V-192.5L1131.1-192.5z"/>
		<g class="st10">
			<path class="st11" d="M835.7-186.7h0.7v-1.9l0.1-0.3l-0.2,0.3l-0.4,0.3l-0.3-0.4l1.1-0.9h0.4v3h0.7v0.5h-2L835.7-186.7
				L835.7-186.7z"/>
			<path class="st11" d="M838.1-187.9c0-0.6,0.1-1.1,0.3-1.3c0.2-0.3,0.5-0.4,0.9-0.4s0.7,0.1,0.9,0.4s0.3,0.7,0.3,1.4
				c0,0.6-0.1,1.1-0.3,1.4s-0.5,0.4-0.9,0.4s-0.7-0.2-0.9-0.5C838.2-186.9,838.1-187.3,838.1-187.9z M838.8-187.9
				c0,0.4,0,0.7,0.1,0.9c0.1,0.2,0.2,0.3,0.4,0.3s0.3-0.1,0.4-0.3c0.1-0.2,0.1-0.5,0.1-1c0-0.4,0-0.7-0.1-0.9
				c-0.1-0.2-0.2-0.3-0.4-0.3s-0.3,0.1-0.4,0.3C838.8-188.6,838.8-188.3,838.8-187.9z"/>
		</g>
		<g class="st10">
			<path class="st11" d="M854.4-188.8c0,0.2,0,0.3-0.1,0.5s-0.1,0.3-0.2,0.5s-0.2,0.3-0.3,0.5c-0.1,0.2-0.2,0.3-0.3,0.4l-0.3,0.2
				l0,0l0.4-0.1h0.9v0.5h-2.1v-0.3c0.1-0.1,0.2-0.2,0.3-0.3c0.1-0.1,0.2-0.2,0.3-0.4c0.1-0.1,0.2-0.2,0.3-0.4
				c0.1-0.1,0.2-0.3,0.3-0.4c0.1-0.1,0.1-0.3,0.2-0.4c0-0.1,0.1-0.2,0.1-0.4c0-0.1,0-0.2-0.1-0.3c-0.1-0.1-0.2-0.1-0.4-0.1
				c-0.1,0-0.2,0-0.3,0.1c-0.1,0-0.2,0.1-0.3,0.2l-0.3-0.5c0.1-0.1,0.3-0.2,0.4-0.3c0.2-0.1,0.4-0.1,0.6-0.1c0.1,0,0.3,0,0.4,0.1
				c0.1,0,0.2,0.1,0.3,0.2c0.1,0.1,0.2,0.2,0.2,0.3C854.3-189,854.4-188.9,854.4-188.8z"/>
			<path class="st11" d="M855-187.9c0-0.6,0.1-1.1,0.3-1.3c0.2-0.3,0.5-0.4,0.9-0.4s0.7,0.1,0.9,0.4c0.2,0.3,0.3,0.7,0.3,1.4
				c0,0.6-0.1,1.1-0.3,1.4s-0.5,0.4-0.9,0.4s-0.7-0.2-0.9-0.5C855.1-186.9,855-187.3,855-187.9z M855.7-187.9c0,0.4,0,0.7,0.1,0.9
				c0.1,0.2,0.2,0.3,0.4,0.3c0.2,0,0.3-0.1,0.4-0.3c0.1-0.2,0.1-0.5,0.1-1c0-0.4,0-0.7-0.1-0.9c-0.1-0.2-0.2-0.3-0.4-0.3
				c-0.2,0-0.3,0.1-0.4,0.3C855.7-188.6,855.7-188.3,855.7-187.9z"/>
		</g>
		<g class="st10">
			<path class="st11" d="M870.1-186.6c0.2,0,0.4-0.1,0.5-0.2s0.2-0.2,0.2-0.4c0-0.2-0.1-0.3-0.2-0.4s-0.3-0.1-0.5-0.1h-0.4v-0.3
				l0.6-0.8l0.3-0.2h-0.4h-0.8v-0.5h1.9v0.3l-0.7,0.9l-0.2,0.1l0,0h0.2c0.1,0,0.2,0,0.3,0.1c0.1,0,0.2,0.1,0.3,0.2
				c0.1,0.1,0.1,0.2,0.2,0.3c0,0.1,0.1,0.3,0.1,0.4c0,0.2,0,0.4-0.1,0.5s-0.2,0.3-0.3,0.4c-0.1,0.1-0.2,0.2-0.4,0.2
				c-0.2,0-0.3,0.1-0.5,0.1c-0.1,0-0.3,0-0.4,0c-0.2,0-0.3-0.1-0.4-0.1l0.2-0.5c0.1,0,0.2,0.1,0.3,0.1
				C869.8-186.6,870-186.6,870.1-186.6z"/>
			<path class="st11" d="M871.9-187.9c0-0.6,0.1-1.1,0.3-1.3c0.2-0.3,0.5-0.4,0.9-0.4s0.7,0.1,0.9,0.4c0.2,0.3,0.3,0.7,0.3,1.4
				c0,0.6-0.1,1.1-0.3,1.4c-0.2,0.3-0.5,0.4-0.9,0.4s-0.7-0.2-0.9-0.5C872-186.9,871.9-187.3,871.9-187.9z M872.5-187.9
				c0,0.4,0,0.7,0.1,0.9c0.1,0.2,0.2,0.3,0.4,0.3c0.2,0,0.3-0.1,0.4-0.3c0.1-0.2,0.1-0.5,0.1-1c0-0.4,0-0.7-0.1-0.9
				c-0.1-0.2-0.2-0.3-0.4-0.3c-0.2,0-0.3,0.1-0.4,0.3C872.6-188.6,872.5-188.3,872.5-187.9z"/>
		</g>
		<g class="st10">
			<path class="st11" d="M888.5-187.1H888v1h-0.6v-1h-1.5v-0.4l1.6-2.1h0.5v2h0.5V-187.1z M887.4-188.4v-0.4l0,0l-0.2,0.4l-0.5,0.7
				l-0.2,0.2h0.3h0.6L887.4-188.4L887.4-188.4z"/>
			<path class="st11" d="M888.8-187.9c0-0.6,0.1-1.1,0.3-1.3c0.2-0.3,0.5-0.4,0.9-0.4s0.7,0.1,0.9,0.4c0.2,0.3,0.3,0.7,0.3,1.4
				c0,0.6-0.1,1.1-0.3,1.4c-0.2,0.3-0.5,0.4-0.9,0.4s-0.7-0.2-0.9-0.5C888.9-186.9,888.8-187.3,888.8-187.9z M889.4-187.9
				c0,0.4,0,0.7,0.1,0.9c0.1,0.2,0.2,0.3,0.4,0.3c0.2,0,0.3-0.1,0.4-0.3c0.1-0.2,0.1-0.5,0.1-1c0-0.4,0-0.7-0.1-0.9
				c-0.1-0.2-0.2-0.3-0.4-0.3c-0.2,0-0.3,0.1-0.4,0.3C889.4-188.6,889.4-188.3,889.4-187.9z"/>
		</g>
		<g class="st10">
			<path class="st11" d="M903.7-186.7c0.2,0,0.4-0.1,0.5-0.2s0.2-0.2,0.2-0.4c0-0.2-0.1-0.3-0.2-0.4s-0.3-0.1-0.6-0.1h-0.4v-1.8h1.7
				v0.6h-1.1v0.7h0.2c0.2,0,0.3,0,0.4,0.1s0.2,0.1,0.3,0.2c0.1,0.1,0.2,0.2,0.2,0.3c0.1,0.1,0.1,0.3,0.1,0.4c0,0.2,0,0.4-0.1,0.5
				s-0.2,0.3-0.3,0.4c-0.1,0.1-0.3,0.2-0.4,0.2c-0.2,0.1-0.3,0.1-0.5,0.1c-0.1,0-0.3,0-0.4,0s-0.2-0.1-0.3-0.1l0.2-0.5
				c0.1,0,0.2,0.1,0.2,0.1C903.5-186.7,903.6-186.7,903.7-186.7z"/>
			<path class="st11" d="M905.6-187.9c0-0.6,0.1-1.1,0.3-1.3c0.2-0.3,0.5-0.4,0.9-0.4s0.7,0.1,0.9,0.4c0.2,0.3,0.3,0.7,0.3,1.4
				c0,0.6-0.1,1.1-0.3,1.4c-0.2,0.3-0.5,0.4-0.9,0.4s-0.7-0.2-0.9-0.5C905.7-186.9,905.6-187.3,905.6-187.9z M906.3-187.9
				c0,0.4,0,0.7,0.1,0.9c0.1,0.2,0.2,0.3,0.4,0.3c0.2,0,0.3-0.1,0.4-0.3c0.1-0.2,0.1-0.5,0.1-1c0-0.4,0-0.7-0.1-0.9
				c-0.1-0.2-0.2-0.3-0.4-0.3c-0.2,0-0.3,0.1-0.4,0.3C906.3-188.6,906.3-188.3,906.3-187.9z"/>
		</g>
		<g class="st10">
			<path class="st11" d="M922.1-187.2c0,0.2,0,0.3-0.1,0.4s-0.1,0.3-0.2,0.4s-0.2,0.2-0.4,0.2c-0.1,0.1-0.3,0.1-0.5,0.1
				s-0.3,0-0.5-0.1c-0.1-0.1-0.3-0.1-0.4-0.2s-0.2-0.2-0.2-0.4c-0.1-0.2-0.1-0.4-0.1-0.6c0-0.3,0-0.6,0.1-0.9s0.2-0.5,0.4-0.7
				c0.2-0.2,0.3-0.4,0.6-0.5c0.2-0.1,0.4-0.2,0.7-0.2l0.1,0.5c-0.2,0-0.3,0.1-0.5,0.2c-0.1,0.1-0.3,0.2-0.4,0.3
				c-0.1,0.1-0.2,0.2-0.3,0.4c-0.1,0.1-0.1,0.3-0.2,0.4c0.1-0.1,0.2-0.2,0.3-0.2c0.1-0.1,0.2-0.1,0.4-0.1c0.1,0,0.3,0,0.4,0.1
				c0.1,0,0.2,0.1,0.3,0.2c0.1,0.1,0.2,0.2,0.2,0.3C922-187.5,922.1-187.4,922.1-187.2z M921.5-187.2c0-0.4-0.2-0.6-0.5-0.6
				c-0.1,0-0.2,0-0.3,0.1c-0.1,0.1-0.2,0.1-0.2,0.2v0.1v0.1c0,0.1,0,0.2,0,0.2c0,0.1,0.1,0.1,0.1,0.2s0.1,0.1,0.2,0.1
				s0.2,0.1,0.2,0.1c0.2,0,0.3-0.1,0.4-0.2C921.4-186.9,921.5-187,921.5-187.2z"/>
			<path class="st11" d="M922.5-187.9c0-0.6,0.1-1.1,0.3-1.3c0.2-0.3,0.5-0.4,0.9-0.4s0.7,0.1,0.9,0.4c0.2,0.3,0.3,0.7,0.3,1.4
				c0,0.6-0.1,1.1-0.3,1.4c-0.2,0.3-0.5,0.4-0.9,0.4s-0.7-0.2-0.9-0.5C922.6-186.9,922.5-187.3,922.5-187.9z M923.1-187.9
				c0,0.4,0,0.7,0.1,0.9c0.1,0.2,0.2,0.3,0.4,0.3c0.2,0,0.3-0.1,0.4-0.3c0.1-0.2,0.1-0.5,0.1-1c0-0.4,0-0.7-0.1-0.9
				c-0.1-0.2-0.2-0.3-0.4-0.3c-0.2,0-0.3,0.1-0.4,0.3C923.2-188.6,923.1-188.3,923.1-187.9z"/>
		</g>
		<g class="st10">
			<path class="st11" d="M936.9-186.2l1.1-2.7l0.2-0.2h-0.3h-1.3v-0.6h2.2v0.2l-1.4,3.3L936.9-186.2L936.9-186.2z"/>
			<path class="st11" d="M939.4-187.9c0-0.6,0.1-1.1,0.3-1.3c0.2-0.3,0.5-0.4,0.9-0.4s0.7,0.1,0.9,0.4c0.2,0.3,0.3,0.7,0.3,1.4
				c0,0.6-0.1,1.1-0.3,1.4c-0.2,0.3-0.5,0.4-0.9,0.4s-0.7-0.2-0.9-0.5C939.5-186.9,939.4-187.3,939.4-187.9z M940-187.9
				c0,0.4,0,0.7,0.1,0.9c0.1,0.2,0.2,0.3,0.4,0.3c0.2,0,0.3-0.1,0.4-0.3c0.1-0.2,0.1-0.5,0.1-1c0-0.4,0-0.7-0.1-0.9
				c-0.1-0.2-0.2-0.3-0.4-0.3c-0.2,0-0.3,0.1-0.4,0.3C940.1-188.6,940-188.3,940-187.9z"/>
		</g>
		<g class="st10">
			<path class="st11" d="M953.6-187c0-0.1,0-0.2,0-0.3c0-0.1,0.1-0.2,0.1-0.2c0.1-0.1,0.1-0.1,0.2-0.2s0.2-0.1,0.2-0.2
				c-0.2-0.1-0.3-0.2-0.4-0.4c-0.1-0.1-0.1-0.3-0.1-0.5c0-0.1,0-0.2,0.1-0.4c0-0.1,0.1-0.2,0.2-0.3c0.1-0.1,0.2-0.1,0.3-0.2
				c0.1,0,0.3-0.1,0.4-0.1s0.3,0,0.4,0.1c0.1,0,0.2,0.1,0.3,0.2c0.1,0.1,0.2,0.2,0.2,0.3c0,0.1,0.1,0.2,0.1,0.3c0,0.2,0,0.4-0.1,0.5
				s-0.2,0.3-0.4,0.4c0.2,0.1,0.3,0.2,0.4,0.4c0.1,0.1,0.2,0.3,0.2,0.5c0,0.1,0,0.3-0.1,0.4s-0.1,0.2-0.2,0.3
				c-0.1,0.1-0.2,0.2-0.4,0.2c-0.1,0-0.3,0.1-0.5,0.1s-0.3,0-0.4-0.1c-0.1,0-0.2-0.1-0.3-0.2c-0.1-0.1-0.2-0.2-0.2-0.3
				C953.6-186.7,953.6-186.9,953.6-187z M955.1-187.1c0-0.1,0-0.1-0.1-0.2c0-0.1-0.1-0.1-0.1-0.2c-0.1-0.1-0.1-0.1-0.2-0.1
				s-0.1-0.1-0.2-0.1c-0.2,0.1-0.3,0.2-0.3,0.3c-0.1,0.1-0.1,0.2-0.1,0.3c0,0.1,0,0.2,0.1,0.3c0.1,0.1,0.2,0.1,0.4,0.1
				c0.1,0,0.3,0,0.4-0.1C955.1-186.8,955.1-186.9,955.1-187.1z M954.2-188.8c0,0.1,0,0.1,0,0.2s0.1,0.1,0.1,0.2
				c0.1,0,0.1,0.1,0.2,0.1s0.1,0.1,0.2,0.1c0.2-0.2,0.3-0.4,0.3-0.6c0-0.1,0-0.2-0.1-0.3c-0.1-0.1-0.2-0.1-0.3-0.1
				c-0.1,0-0.3,0-0.3,0.1C954.3-188.9,954.2-188.9,954.2-188.8z"/>
			<path class="st11" d="M956.2-187.9c0-0.6,0.1-1.1,0.3-1.3c0.2-0.3,0.5-0.4,0.9-0.4s0.7,0.1,0.9,0.4c0.2,0.3,0.3,0.7,0.3,1.4
				c0,0.6-0.1,1.1-0.3,1.4c-0.2,0.3-0.5,0.4-0.9,0.4s-0.7-0.2-0.9-0.5C956.3-186.9,956.2-187.3,956.2-187.9z M956.9-187.9
				c0,0.4,0,0.7,0.1,0.9c0.1,0.2,0.2,0.3,0.4,0.3c0.2,0,0.3-0.1,0.4-0.3c0.1-0.2,0.1-0.5,0.1-1c0-0.4,0-0.7-0.1-0.9
				c-0.1-0.2-0.2-0.3-0.4-0.3c-0.2,0-0.3,0.1-0.4,0.3C956.9-188.6,956.9-188.3,956.9-187.9z"/>
		</g>
		<g class="st10">
			<path class="st11" d="M970.3-188.5c0-0.2,0-0.3,0.1-0.5c0-0.1,0.1-0.3,0.2-0.4s0.2-0.2,0.4-0.2c0.1-0.1,0.3-0.1,0.5-0.1
				c0.4,0,0.7,0.1,0.9,0.3c0.2,0.2,0.3,0.5,0.3,1c0,0.4,0,0.7-0.1,1s-0.2,0.5-0.4,0.7c-0.2,0.2-0.4,0.3-0.6,0.4s-0.4,0.2-0.7,0.2
				l-0.1-0.5c0.2,0,0.3-0.1,0.5-0.1c0.1-0.1,0.3-0.1,0.4-0.2s0.2-0.2,0.2-0.3c0.1-0.1,0.1-0.3,0.1-0.4c-0.1,0.1-0.2,0.1-0.3,0.2
				c-0.1,0-0.2,0-0.4,0c-0.1,0-0.2,0-0.4-0.1c-0.1,0-0.2-0.1-0.3-0.2c-0.1-0.1-0.2-0.2-0.2-0.3C970.4-188.2,970.3-188.3,970.3-188.5
				z M971-188.6c0,0.2,0.1,0.3,0.2,0.4s0.2,0.1,0.4,0.1c0.1,0,0.2,0,0.3-0.1c0.1,0,0.2-0.1,0.2-0.2s0-0.1,0-0.2s0-0.2,0-0.3
				c0-0.1-0.1-0.2-0.1-0.2c0-0.1-0.1-0.1-0.2-0.2c-0.1,0-0.2-0.1-0.3-0.1c-0.2,0-0.3,0.1-0.4,0.2C971-188.9,971-188.7,971-188.6z"/>
			<path class="st11" d="M973.1-187.9c0-0.6,0.1-1.1,0.3-1.3c0.2-0.3,0.5-0.4,0.9-0.4s0.7,0.1,0.9,0.4c0.2,0.3,0.3,0.7,0.3,1.4
				c0,0.6-0.1,1.1-0.3,1.4c-0.2,0.3-0.5,0.4-0.9,0.4s-0.7-0.2-0.9-0.5C973.2-186.9,973.1-187.3,973.1-187.9z M973.8-187.9
				c0,0.4,0,0.7,0.1,0.9c0.1,0.2,0.2,0.3,0.4,0.3c0.2,0,0.3-0.1,0.4-0.3c0.1-0.2,0.1-0.5,0.1-1c0-0.4,0-0.7-0.1-0.9
				c-0.1-0.2-0.2-0.3-0.4-0.3c-0.2,0-0.3,0.1-0.4,0.3C973.8-188.6,973.8-188.3,973.8-187.9z"/>
		</g>
		<g class="st10">
			<path class="st11" d="M986.1-186.7h0.7v-1.9l0.1-0.3l-0.2,0.3l-0.4,0.3l-0.3-0.4l1.1-0.9h0.4v3h0.7v0.5h-2L986.1-186.7
				L986.1-186.7z"/>
			<path class="st11" d="M988.6-187.9c0-0.6,0.1-1.1,0.3-1.3c0.2-0.3,0.5-0.4,0.9-0.4s0.7,0.1,0.9,0.4c0.2,0.3,0.3,0.7,0.3,1.4
				c0,0.6-0.1,1.1-0.3,1.4c-0.2,0.3-0.5,0.4-0.9,0.4s-0.7-0.2-0.9-0.5S988.6-187.3,988.6-187.9z M989.2-187.9c0,0.4,0,0.7,0.1,0.9
				c0.1,0.2,0.2,0.3,0.4,0.3c0.2,0,0.3-0.1,0.4-0.3c0.1-0.2,0.1-0.5,0.1-1c0-0.4,0-0.7-0.1-0.9c-0.1-0.2-0.2-0.3-0.4-0.3
				c-0.2,0-0.3,0.1-0.4,0.3C989.3-188.6,989.2-188.3,989.2-187.9z"/>
			<path class="st11" d="M991.4-187.9c0-0.6,0.1-1.1,0.3-1.3c0.2-0.3,0.5-0.4,0.9-0.4s0.7,0.1,0.9,0.4c0.2,0.3,0.3,0.7,0.3,1.4
				c0,0.6-0.1,1.1-0.3,1.4s-0.5,0.4-0.9,0.4s-0.7-0.2-0.9-0.5S991.4-187.3,991.4-187.9z M992-187.9c0,0.4,0,0.7,0.1,0.9
				c0.1,0.2,0.2,0.3,0.4,0.3c0.2,0,0.3-0.1,0.4-0.3c0.1-0.2,0.1-0.5,0.1-1c0-0.4,0-0.7-0.1-0.9c-0.1-0.2-0.2-0.3-0.4-0.3
				c-0.2,0-0.3,0.1-0.4,0.3C992.1-188.6,992-188.3,992-187.9z"/>
		</g>
		<g class="st10">
			<path class="st11" d="M1003-186.7h0.7v-1.9l0.1-0.3l-0.2,0.3l-0.4,0.3l-0.3-0.4l1.1-0.9h0.4v3h0.7v0.5h-2L1003-186.7L1003-186.7z
				"/>
			<path class="st11" d="M1005.8-186.7h0.7v-1.9l0.1-0.3l-0.2,0.3l-0.4,0.3l-0.3-0.4l1.1-0.9h0.4v3h0.7v0.5h-2L1005.8-186.7
				L1005.8-186.7z"/>
			<path class="st11" d="M1008.3-187.9c0-0.6,0.1-1.1,0.3-1.3c0.2-0.3,0.5-0.4,0.9-0.4s0.7,0.1,0.9,0.4c0.2,0.3,0.3,0.7,0.3,1.4
				c0,0.6-0.1,1.1-0.3,1.4c-0.2,0.3-0.5,0.4-0.9,0.4s-0.7-0.2-0.9-0.5C1008.3-186.9,1008.3-187.3,1008.3-187.9z M1008.9-187.9
				c0,0.4,0,0.7,0.1,0.9c0.1,0.2,0.2,0.3,0.4,0.3c0.2,0,0.3-0.1,0.4-0.3c0.1-0.2,0.1-0.5,0.1-1c0-0.4,0-0.7-0.1-0.9
				c-0.1-0.2-0.2-0.3-0.4-0.3c-0.2,0-0.3,0.1-0.4,0.3C1008.9-188.6,1008.9-188.3,1008.9-187.9z"/>
		</g>
		<g class="st10">
			<path class="st11" d="M1019.8-186.7h0.7v-1.9l0.1-0.3l-0.2,0.3l-0.4,0.3l-0.3-0.4l1.1-0.9h0.4v3h0.7v0.5h-2L1019.8-186.7
				L1019.8-186.7z"/>
			<path class="st11" d="M1024.5-188.8c0,0.2,0,0.3-0.1,0.5s-0.1,0.3-0.2,0.5s-0.2,0.3-0.3,0.5c-0.1,0.2-0.2,0.3-0.3,0.4l-0.3,0.2
				l0,0l0.4-0.1h0.9v0.5h-2.1v-0.3c0.1-0.1,0.2-0.2,0.3-0.3c0.1-0.1,0.2-0.2,0.3-0.4c0.1-0.1,0.2-0.2,0.3-0.4
				c0.1-0.1,0.2-0.3,0.3-0.4c0.1-0.1,0.1-0.3,0.2-0.4c0-0.1,0.1-0.2,0.1-0.4c0-0.1,0-0.2-0.1-0.3c-0.1-0.1-0.2-0.1-0.4-0.1
				c-0.1,0-0.2,0-0.3,0.1c-0.1,0-0.2,0.1-0.3,0.2l-0.3-0.5c0.1-0.1,0.3-0.2,0.4-0.3c0.2-0.1,0.4-0.1,0.6-0.1c0.1,0,0.3,0,0.4,0.1
				c0.1,0,0.2,0.1,0.3,0.2c0.1,0.1,0.2,0.2,0.2,0.3C1024.4-189,1024.5-188.9,1024.5-188.8z"/>
			<path class="st11" d="M1025.1-187.9c0-0.6,0.1-1.1,0.3-1.3c0.2-0.3,0.5-0.4,0.9-0.4s0.7,0.1,0.9,0.4c0.2,0.3,0.3,0.7,0.3,1.4
				c0,0.6-0.1,1.1-0.3,1.4c-0.2,0.3-0.5,0.4-0.9,0.4s-0.7-0.2-0.9-0.5C1025.2-186.9,1025.1-187.3,1025.1-187.9z M1025.8-187.9
				c0,0.4,0,0.7,0.1,0.9c0.1,0.2,0.2,0.3,0.4,0.3c0.2,0,0.3-0.1,0.4-0.3c0.1-0.2,0.1-0.5,0.1-1c0-0.4,0-0.7-0.1-0.9
				c-0.1-0.2-0.2-0.3-0.4-0.3c-0.2,0-0.3,0.1-0.4,0.3C1025.8-188.6,1025.8-188.3,1025.8-187.9z"/>
		</g>
		<g class="st10">
			<path class="st11" d="M1036.7-186.7h0.7v-1.9l0.1-0.3l-0.2,0.3l-0.4,0.3l-0.3-0.4l1.1-0.9h0.4v3h0.7v0.5h-2L1036.7-186.7
				L1036.7-186.7z"/>
			<path class="st11" d="M1040.2-186.6c0.2,0,0.4-0.1,0.5-0.2s0.2-0.2,0.2-0.4c0-0.2-0.1-0.3-0.2-0.4s-0.3-0.1-0.5-0.1h-0.4v-0.3
				l0.6-0.8l0.3-0.2h-0.4h-0.8v-0.5h1.9v0.3l-0.7,0.9l-0.2,0.1l0,0h0.2c0.1,0,0.2,0,0.3,0.1c0.1,0,0.2,0.1,0.3,0.2
				c0.1,0.1,0.1,0.2,0.2,0.3c0,0.1,0.1,0.3,0.1,0.4c0,0.2,0,0.4-0.1,0.5s-0.2,0.3-0.3,0.4c-0.1,0.1-0.2,0.2-0.4,0.2
				c-0.2,0-0.3,0.1-0.5,0.1c-0.1,0-0.3,0-0.4,0c-0.2,0-0.3-0.1-0.4-0.1l0.2-0.5c0.1,0,0.2,0.1,0.3,0.1
				C1039.9-186.6,1040.1-186.6,1040.2-186.6z"/>
			<path class="st11" d="M1042-187.9c0-0.6,0.1-1.1,0.3-1.3c0.2-0.3,0.5-0.4,0.9-0.4s0.7,0.1,0.9,0.4c0.2,0.3,0.3,0.7,0.3,1.4
				c0,0.6-0.1,1.1-0.3,1.4c-0.2,0.3-0.5,0.4-0.9,0.4s-0.7-0.2-0.9-0.5C1042.1-186.9,1042-187.3,1042-187.9z M1042.6-187.9
				c0,0.4,0,0.7,0.1,0.9c0.1,0.2,0.2,0.3,0.4,0.3c0.2,0,0.3-0.1,0.4-0.3c0.1-0.2,0.1-0.5,0.1-1c0-0.4,0-0.7-0.1-0.9
				c-0.1-0.2-0.2-0.3-0.4-0.3c-0.2,0-0.3,0.1-0.4,0.3C1042.7-188.6,1042.6-188.3,1042.6-187.9z"/>
		</g>
		<g class="st10">
			<path class="st11" d="M1053.6-186.7h0.7v-1.9l0.1-0.3l-0.2,0.3l-0.4,0.3l-0.3-0.4l1.1-0.9h0.4v3h0.7v0.5h-2L1053.6-186.7
				L1053.6-186.7z"/>
			<path class="st11" d="M1058.6-187.1h-0.5v1h-0.6v-1h-1.5v-0.4l1.6-2.1h0.5v2h0.5V-187.1z M1057.5-188.4v-0.4l0,0l-0.2,0.4
				l-0.5,0.7l-0.2,0.2h0.3h0.6L1057.5-188.4L1057.5-188.4z"/>
			<path class="st11" d="M1058.9-187.9c0-0.6,0.1-1.1,0.3-1.3c0.2-0.3,0.5-0.4,0.9-0.4s0.7,0.1,0.9,0.4c0.2,0.3,0.3,0.7,0.3,1.4
				c0,0.6-0.1,1.1-0.3,1.4c-0.2,0.3-0.5,0.4-0.9,0.4s-0.7-0.2-0.9-0.5C1059-186.9,1058.9-187.3,1058.9-187.9z M1059.5-187.9
				c0,0.4,0,0.7,0.1,0.9c0.1,0.2,0.2,0.3,0.4,0.3c0.2,0,0.3-0.1,0.4-0.3c0.1-0.2,0.1-0.5,0.1-1c0-0.4,0-0.7-0.1-0.9
				c-0.1-0.2-0.2-0.3-0.4-0.3c-0.2,0-0.3,0.1-0.4,0.3C1059.5-188.6,1059.5-188.3,1059.5-187.9z"/>
		</g>
		<g class="st10">
			<path class="st11" d="M1070.5-186.7h0.7v-1.9l0.1-0.3l-0.2,0.3l-0.4,0.3l-0.3-0.4l1.1-0.9h0.4v3h0.7v0.5h-2L1070.5-186.7
				L1070.5-186.7z"/>
			<path class="st11" d="M1073.8-186.7c0.2,0,0.4-0.1,0.5-0.2s0.2-0.2,0.2-0.4c0-0.2-0.1-0.3-0.2-0.4s-0.3-0.1-0.6-0.1h-0.4v-1.8
				h1.7v0.6h-1.1v0.7h0.2c0.2,0,0.3,0,0.4,0.1s0.2,0.1,0.3,0.2c0.1,0.1,0.2,0.2,0.2,0.3c0,0.1,0.1,0.3,0.1,0.4c0,0.2,0,0.4-0.1,0.5
				s-0.2,0.3-0.3,0.4c-0.1,0.1-0.3,0.2-0.4,0.2c-0.2,0.1-0.3,0.1-0.5,0.1c-0.1,0-0.3,0-0.4,0s-0.2-0.1-0.3-0.1l0.2-0.5
				c0.1,0,0.2,0.1,0.2,0.1C1073.6-186.7,1073.7-186.7,1073.8-186.7z"/>
			<path class="st11" d="M1075.7-187.9c0-0.6,0.1-1.1,0.3-1.3c0.2-0.3,0.5-0.4,0.9-0.4s0.7,0.1,0.9,0.4c0.2,0.3,0.3,0.7,0.3,1.4
				c0,0.6-0.1,1.1-0.3,1.4c-0.2,0.3-0.5,0.4-0.9,0.4s-0.7-0.2-0.9-0.5S1075.7-187.3,1075.7-187.9z M1076.4-187.9
				c0,0.4,0,0.7,0.1,0.9c0.1,0.2,0.2,0.3,0.4,0.3c0.2,0,0.3-0.1,0.4-0.3c0.1-0.2,0.1-0.5,0.1-1c0-0.4,0-0.7-0.1-0.9
				c-0.1-0.2-0.2-0.3-0.4-0.3c-0.2,0-0.3,0.1-0.4,0.3C1076.4-188.6,1076.4-188.3,1076.4-187.9z"/>
		</g>
		<g class="st10">
			<path class="st11" d="M1087.3-186.7h0.7v-1.9l0.1-0.3l-0.2,0.3l-0.4,0.3l-0.3-0.4l1.1-0.9h0.4v3h0.7v0.5h-2L1087.3-186.7
				L1087.3-186.7z"/>
			<path class="st11" d="M1092.2-187.2c0,0.2,0,0.3-0.1,0.4s-0.1,0.3-0.2,0.4s-0.2,0.2-0.4,0.2c-0.1,0.1-0.3,0.1-0.5,0.1
				s-0.3,0-0.5-0.1c-0.1-0.1-0.3-0.1-0.4-0.2s-0.2-0.2-0.2-0.4c-0.1-0.2-0.1-0.4-0.1-0.6c0-0.3,0-0.6,0.1-0.9s0.2-0.5,0.4-0.7
				c0.2-0.2,0.3-0.4,0.6-0.5c0.2-0.1,0.4-0.2,0.7-0.2l0.1,0.5c-0.2,0-0.3,0.1-0.5,0.2c-0.1,0.1-0.3,0.2-0.4,0.3
				c-0.1,0.1-0.2,0.2-0.3,0.4c-0.1,0.1-0.1,0.3-0.2,0.4c0.1-0.1,0.2-0.2,0.3-0.2c0.1-0.1,0.2-0.1,0.4-0.1c0.1,0,0.3,0,0.4,0.1
				c0.1,0,0.2,0.1,0.3,0.2c0.1,0.1,0.2,0.2,0.2,0.3C1092.2-187.5,1092.2-187.4,1092.2-187.2z M1091.6-187.2c0-0.4-0.2-0.6-0.5-0.6
				c-0.1,0-0.2,0-0.3,0.1c-0.1,0.1-0.2,0.1-0.2,0.2v0.1v0.1c0,0.1,0,0.2,0,0.2c0,0.1,0.1,0.1,0.1,0.2s0.1,0.1,0.2,0.1
				s0.2,0.1,0.2,0.1c0.2,0,0.3-0.1,0.4-0.2C1091.5-186.9,1091.6-187,1091.6-187.2z"/>
			<path class="st11" d="M1092.6-187.9c0-0.6,0.1-1.1,0.3-1.3c0.2-0.3,0.5-0.4,0.9-0.4s0.7,0.1,0.9,0.4c0.2,0.3,0.3,0.7,0.3,1.4
				c0,0.6-0.1,1.1-0.3,1.4c-0.2,0.3-0.5,0.4-0.9,0.4s-0.7-0.2-0.9-0.5S1092.6-187.3,1092.6-187.9z M1093.2-187.9
				c0,0.4,0,0.7,0.1,0.9c0.1,0.2,0.2,0.3,0.4,0.3c0.2,0,0.3-0.1,0.4-0.3c0.1-0.2,0.1-0.5,0.1-1c0-0.4,0-0.7-0.1-0.9
				c-0.1-0.2-0.2-0.3-0.4-0.3c-0.2,0-0.3,0.1-0.4,0.3C1093.3-188.6,1093.2-188.3,1093.2-187.9z"/>
		</g>
		<g class="st10">
			<path class="st11" d="M1104.2-186.7h0.7v-1.9l0.1-0.3l-0.2,0.3l-0.4,0.3l-0.3-0.4l1.1-0.9h0.4v3h0.7v0.5h-2L1104.2-186.7
				L1104.2-186.7z"/>
			<path class="st11" d="M1107-186.2l1.1-2.7l0.2-0.2h-0.3h-1.3v-0.6h2.2v0.2l-1.4,3.3L1107-186.2L1107-186.2z"/>
			<path class="st11" d="M1109.5-187.9c0-0.6,0.1-1.1,0.3-1.3c0.2-0.3,0.5-0.4,0.9-0.4s0.7,0.1,0.9,0.4c0.2,0.3,0.3,0.7,0.3,1.4
				c0,0.6-0.1,1.1-0.3,1.4c-0.2,0.3-0.5,0.4-0.9,0.4s-0.7-0.2-0.9-0.5S1109.5-187.3,1109.5-187.9z M1110.1-187.9
				c0,0.4,0,0.7,0.1,0.9c0.1,0.2,0.2,0.3,0.4,0.3c0.2,0,0.3-0.1,0.4-0.3c0.1-0.2,0.1-0.5,0.1-1c0-0.4,0-0.7-0.1-0.9
				c-0.1-0.2-0.2-0.3-0.4-0.3c-0.2,0-0.3,0.1-0.4,0.3C1110.2-188.6,1110.1-188.3,1110.1-187.9z"/>
		</g>
		<g class="st10">
			<path class="st11" d="M1121.1-186.7h0.7v-1.9l0.1-0.3l-0.2,0.3l-0.4,0.3l-0.3-0.4l1.1-0.9h0.4v3h0.7v0.5h-2L1121.1-186.7
				L1121.1-186.7z"/>
			<path class="st11" d="M1123.7-187c0-0.1,0-0.2,0-0.3c0-0.1,0.1-0.2,0.1-0.2c0.1-0.1,0.1-0.1,0.2-0.2s0.2-0.1,0.2-0.2
				c-0.2-0.1-0.3-0.2-0.4-0.4c-0.1-0.1-0.1-0.3-0.1-0.5c0-0.1,0-0.2,0.1-0.4c0-0.1,0.1-0.2,0.2-0.3c0.1-0.1,0.2-0.1,0.3-0.2
				c0.1,0,0.3-0.1,0.4-0.1s0.3,0,0.4,0.1c0.1,0,0.2,0.1,0.3,0.2c0.1,0.1,0.2,0.2,0.2,0.3c0,0.1,0.1,0.2,0.1,0.3c0,0.2,0,0.4-0.1,0.5
				s-0.2,0.3-0.4,0.4c0.2,0.1,0.3,0.2,0.4,0.4c0.1,0.1,0.2,0.3,0.2,0.5c0,0.1,0,0.3-0.1,0.4s-0.1,0.2-0.2,0.3
				c-0.1,0.1-0.2,0.2-0.4,0.2c-0.1,0-0.3,0.1-0.5,0.1s-0.3,0-0.4-0.1c-0.1,0-0.2-0.1-0.3-0.2c-0.1-0.1-0.2-0.2-0.2-0.3
				C1123.7-186.7,1123.7-186.9,1123.7-187z M1125.2-187.1c0-0.1,0-0.1-0.1-0.2c0-0.1-0.1-0.1-0.1-0.2c-0.1-0.1-0.1-0.1-0.2-0.1
				s-0.1-0.1-0.2-0.1c-0.2,0.1-0.3,0.2-0.3,0.3c-0.1,0.1-0.1,0.2-0.1,0.3c0,0.1,0,0.2,0.1,0.3c0.1,0.1,0.2,0.1,0.4,0.1
				c0.1,0,0.3,0,0.4-0.1C1125.2-186.8,1125.2-186.9,1125.2-187.1z M1124.4-188.8c0,0.1,0,0.1,0,0.2s0.1,0.1,0.1,0.2
				c0.1,0,0.1,0.1,0.2,0.1s0.1,0.1,0.2,0.1c0.2-0.2,0.3-0.4,0.3-0.6c0-0.1,0-0.2-0.1-0.3c-0.1-0.1-0.2-0.1-0.3-0.1
				c-0.1,0-0.3,0-0.3,0.1C1124.4-188.9,1124.4-188.9,1124.4-188.8z"/>
			<path class="st11" d="M1126.3-187.9c0-0.6,0.1-1.1,0.3-1.3c0.2-0.3,0.5-0.4,0.9-0.4s0.7,0.1,0.9,0.4c0.2,0.3,0.3,0.7,0.3,1.4
				c0,0.6-0.1,1.1-0.3,1.4c-0.2,0.3-0.5,0.4-0.9,0.4s-0.7-0.2-0.9-0.5C1126.4-186.9,1126.3-187.3,1126.3-187.9z M1127-187.9
				c0,0.4,0,0.7,0.1,0.9c0.1,0.2,0.2,0.3,0.4,0.3c0.2,0,0.3-0.1,0.4-0.3c0.1-0.2,0.1-0.5,0.1-1c0-0.4,0-0.7-0.1-0.9
				c-0.1-0.2-0.2-0.3-0.4-0.3c-0.2,0-0.3,0.1-0.4,0.3C1127-188.6,1127-188.3,1127-187.9z"/>
		</g>
	</g>
	<g class="st6">
		<path class="st9" d="M1107.5,477.9l-9.8-3.4c-0.4-0.1-0.6-0.5-0.4-0.9c0.1-0.4,0.5-0.6,0.9-0.5l9.1,3.2l25.1-16.3l25.6-33.2
			l25.9-10.1l25.3,6.6l25.6-36.5l26.3,10.2l9.7,16.8c0.2,0.3,0.1,0.8-0.2,1c-0.3,0.2-0.8,0.1-1-0.3l-9.4-16.4l-24.8-9.7l-25.5,36.4
			l-25.8-6.7l-25.1,9.8l-25.5,33.1l-0.1,0.1L1107.5,477.9z"/>
		<path class="st9" d="M1285.5,500.9l0.6-0.7l-0.6-0.7l0,0l-6.4-6.6c-0.3-0.4-0.9-0.4-1.3,0c-0.3,0.4-0.3,0.9,0,1.3l4.9,5.1h-189.3
			V364.5l4.9,5.1c0.2,0.2,0.4,0.3,0.6,0.3s0.5-0.1,0.6-0.3c0.3-0.4,0.3-0.9,0-1.3l-6.4-6.6l0,0l-0.6-0.7l-0.6,0.7l0,0l-6.4,6.6
			c-0.3,0.4-0.3,0.9,0,1.3c0.3,0.4,0.9,0.4,1.3,0l4.9-5.1V380h-2.3c-0.5,0-0.9,0.4-0.9,0.9s0.4,0.9,0.9,0.9h2.3v4.8h-2.3
			c-0.5,0-0.9,0.4-0.9,0.9s0.4,0.9,0.9,0.9h2.3v4.8h-2.3c-0.5,0-0.9,0.4-0.9,0.9s0.4,0.9,0.9,0.9h2.3v4.8h-2.3
			c-0.5,0-0.9,0.4-0.9,0.9s0.4,0.9,0.9,0.9h2.3v4.8h-2.3c-0.5,0-0.9,0.4-0.9,0.9s0.4,0.9,0.9,0.9h2.3v4.8h-2.3
			c-0.5,0-0.9,0.4-0.9,0.9s0.4,0.9,0.9,0.9h2.3v4.8h-2.3c-0.5,0-0.9,0.4-0.9,0.9s0.4,0.9,0.9,0.9h2.3v4.8h-2.3
			c-0.5,0-0.9,0.4-0.9,0.9s0.4,0.9,0.9,0.9h2.3v4.8h-2.3c-0.5,0-0.9,0.4-0.9,0.9s0.4,0.9,0.9,0.9h2.3v4.8h-2.3
			c-0.5,0-0.9,0.4-0.9,0.9s0.4,0.9,0.9,0.9h2.3v4.8h-2.3c-0.5,0-0.9,0.4-0.9,0.9s0.4,0.9,0.9,0.9h2.3v4.8h-2.3
			c-0.5,0-0.9,0.4-0.9,0.9s0.4,0.9,0.9,0.9h2.3v4.8h-2.3c-0.5,0-0.9,0.4-0.9,0.9s0.4,0.9,0.9,0.9h2.3v4.8h-2.3
			c-0.5,0-0.9,0.4-0.9,0.9s0.4,0.9,0.9,0.9h2.3v4.8h-2.3c-0.5,0-0.9,0.4-0.9,0.9s0.4,0.9,0.9,0.9h2.3v4.8h-2.3
			c-0.5,0-0.9,0.4-0.9,0.9s0.4,0.9,0.9,0.9h2.3v4.8h-2.3c-0.5,0-0.9,0.4-0.9,0.9s0.4,0.9,0.9,0.9h2.3v4.8h-2.3
			c-0.5,0-0.9,0.4-0.9,0.9s0.4,0.9,0.9,0.9h2.3v6.6h6.4v2.6c0,0.5,0.4,0.9,0.9,0.9s0.9-0.4,0.9-0.9v-2.6h4.6v2.6
			c0,0.5,0.4,0.9,0.9,0.9s0.9-0.4,0.9-0.9v-2.6h4.6v2.6c0,0.5,0.4,0.9,0.9,0.9s0.9-0.4,0.9-0.9v-2.6h4.6v2.6c0,0.5,0.4,0.9,0.9,0.9
			s0.9-0.4,0.9-0.9v-2.6h4.6v2.6c0,0.5,0.4,0.9,0.9,0.9s0.9-0.4,0.9-0.9v-2.6h4.6v2.6c0,0.5,0.4,0.9,0.9,0.9s0.9-0.4,0.9-0.9v-2.6
			h4.6v2.6c0,0.5,0.4,0.9,0.9,0.9s0.9-0.4,0.9-0.9v-2.6h4.6v2.6c0,0.5,0.4,0.9,0.9,0.9s0.9-0.4,0.9-0.9v-2.6h4.6v2.6
			c0,0.5,0.4,0.9,0.9,0.9s0.9-0.4,0.9-0.9v-2.6h4.6v2.6c0,0.5,0.4,0.9,0.9,0.9s0.9-0.4,0.9-0.9v-2.6h4.6v2.6c0,0.5,0.4,0.9,0.9,0.9
			s0.9-0.4,0.9-0.9v-2.6h4.6v2.6c0,0.5,0.4,0.9,0.9,0.9s0.9-0.4,0.9-0.9v-2.6h4.6v2.6c0,0.5,0.4,0.9,0.9,0.9s0.9-0.4,0.9-0.9v-2.6
			h4.6v2.6c0,0.5,0.4,0.9,0.9,0.9s0.9-0.4,0.9-0.9v-2.6h4.6v2.6c0,0.5,0.4,0.9,0.9,0.9s0.9-0.4,0.9-0.9v-2.6h4.6v2.6
			c0,0.5,0.4,0.9,0.9,0.9s0.9-0.4,0.9-0.9v-2.6h4.6v2.6c0,0.5,0.4,0.9,0.9,0.9s0.9-0.4,0.9-0.9v-2.6h4.6v2.4c0,0.5,0.4,0.9,0.9,0.9
			s0.9-0.4,0.9-0.9v-2.4h4.6v2.4c0,0.5,0.4,0.9,0.9,0.9s0.9-0.4,0.9-0.9v-2.4h4.6v2.4c0,0.5,0.4,0.9,0.9,0.9s0.9-0.4,0.9-0.9v-2.4
			h4.6v2.4c0,0.5,0.4,0.9,0.9,0.9s0.9-0.4,0.9-0.9v-2.4h4.6v2.4c0,0.5,0.4,0.9,0.9,0.9s0.9-0.4,0.9-0.9v-2.4h4.6v2.4
			c0,0.5,0.4,0.9,0.9,0.9s0.9-0.4,0.9-0.9v-2.4h4.6v2.4c0,0.5,0.4,0.9,0.9,0.9s0.9-0.4,0.9-0.9v-2.4h4.6v2.4c0,0.5,0.4,0.9,0.9,0.9
			s0.9-0.4,0.9-0.9v-2.4h4.6v2.4c0,0.5,0.4,0.9,0.9,0.9s0.9-0.4,0.9-0.9v-2.4h23.4l-4.9,5.1c-0.3,0.4-0.3,0.9,0,1.3
			c0.2,0.2,0.4,0.3,0.6,0.3s0.5-0.1,0.6-0.3L1285.5,500.9L1285.5,500.9z"/>
		<g class="st10">
			<path class="st11" d="M1263.8,397.5c0,1.8-1.4,3.3-3.2,3.3s-3.2-1.5-3.2-3.3s1.4-3.3,3.2-3.3S1263.8,395.6,1263.8,397.5z"/>
			<ellipse class="st11" cx="1260.6" cy="397.5" rx="1.6" ry="1.7"/>
		</g>
		<g class="st10">
			<path class="st11" d="M1238.2,387.5c0,1.8-1.4,3.3-3.2,3.3c-1.8,0-3.2-1.5-3.2-3.3s1.4-3.3,3.2-3.3
				C1236.8,384.2,1238.2,385.7,1238.2,387.5z"/>
			<path class="st11" d="M1236.7,387.5c0,0.9-0.7,1.7-1.6,1.7s-1.6-0.7-1.6-1.7c0-0.9,0.7-1.7,1.6-1.7
				C1235.9,385.9,1236.7,386.6,1236.7,387.5z"/>
		</g>
		<g class="st10">
			<path class="st11" d="M1212.7,424c0,1.8-1.4,3.3-3.2,3.3c-1.8,0-3.2-1.5-3.2-3.3s1.4-3.3,3.2-3.3
				C1211.3,420.7,1212.7,422.2,1212.7,424z"/>
			<path class="st11" d="M1211.1,424c0,0.9-0.7,1.7-1.6,1.7s-1.6-0.7-1.6-1.7c0-0.9,0.7-1.7,1.6-1.7S1211.1,423.1,1211.1,424z"/>
		</g>
		<g class="st10">
			<path class="st11" d="M1187.2,417.4c0,1.8-1.4,3.3-3.2,3.3c-1.8,0-3.2-1.5-3.2-3.3s1.4-3.3,3.2-3.3
				C1185.8,414.1,1187.2,415.5,1187.2,417.4z"/>
			<path class="st11" d="M1185.6,417.4c0,0.9-0.7,1.7-1.6,1.7s-1.6-0.7-1.6-1.7c0-0.9,0.7-1.7,1.6-1.7S1185.6,416.5,1185.6,417.4z"
				/>
		</g>
		<g class="st10">
			<path class="st11" d="M1161.7,427.3c0,1.8-1.4,3.3-3.2,3.3c-1.8,0-3.2-1.5-3.2-3.3s1.4-3.3,3.2-3.3
				C1160.2,424,1161.7,425.5,1161.7,427.3z"/>
			<path class="st11" d="M1160.1,427.3c0,0.9-0.7,1.7-1.6,1.7s-1.6-0.7-1.6-1.7c0-0.9,0.7-1.7,1.6-1.7
				C1159.4,425.7,1160.1,426.4,1160.1,427.3z"/>
		</g>
		<g class="st10">
			<path class="st11" d="M1136.1,460.5c0,1.8-1.4,3.3-3.2,3.3c-1.8,0-3.2-1.5-3.2-3.3s1.4-3.3,3.2-3.3S1136.1,458.7,1136.1,460.5z"
				/>
			<ellipse class="st11" cx="1132.9" cy="460.5" rx="1.6" ry="1.7"/>
		</g>
		<g class="st10">
			<path class="st11" d="M1110.6,477.1c0,1.8-1.4,3.3-3.2,3.3s-3.2-1.5-3.2-3.3s1.4-3.3,3.2-3.3S1110.6,475.2,1110.6,477.1z"/>
			<path class="st11" d="M1109,477.1c0,0.9-0.7,1.7-1.6,1.7s-1.6-0.7-1.6-1.7c0-0.9,0.7-1.7,1.6-1.7
				C1108.3,475.4,1109,476.1,1109,477.1z"/>
		</g>
		<path class="st12" d="M1209.6,477.3l-25.8-19.3l-25.6,7.7l-25.7-22.2l-25.1-5.8l-9.2,5.7c-0.3,0.2-0.8,0.1-1-0.3
			c-0.2-0.3-0.1-0.8,0.2-1l9.7-6l26,6l25.4,22l25.5-7.7l0.3,0.2l25,18.8l25.2-30.9l0.2-0.1l26.1-9.8l9.9,17.9c0.2,0.4,0.1,0.8-0.3,1
			c-0.3,0.2-0.8,0.1-1-0.3l-9.3-16.8l-24.8,9.3L1209.6,477.3z"/>
		<g class="st10">
			<path class="st11" d="M1263.8,435.4c0,1.8-1.4,3.3-3.2,3.3s-3.2-1.5-3.2-3.3s1.4-3.3,3.2-3.3S1263.8,433.6,1263.8,435.4z"/>
			<path class="st11" d="M1262.2,435.4c0,0.9-0.7,1.7-1.6,1.7s-1.6-0.7-1.6-1.7c0-0.9,0.7-1.7,1.6-1.7S1262.2,434.5,1262.2,435.4z"
				/>
		</g>
		<g class="st10">
			<path class="st11" d="M1238.2,445c0,1.8-1.4,3.3-3.2,3.3c-1.8,0-3.2-1.5-3.2-3.3s1.4-3.3,3.2-3.3
				C1236.8,441.7,1238.2,443.2,1238.2,445z"/>
			<path class="st11" d="M1236.7,445c0,0.9-0.7,1.7-1.6,1.7s-1.6-0.7-1.6-1.7c0-0.9,0.7-1.7,1.6-1.7
				C1235.9,443.3,1236.7,444.1,1236.7,445z"/>
		</g>
		<g class="st10">
			<path class="st11" d="M1212.7,476.3c0,1.8-1.4,3.3-3.2,3.3c-1.8,0-3.2-1.5-3.2-3.3s1.4-3.3,3.2-3.3
				C1211.3,473,1212.7,474.5,1212.7,476.3z"/>
			<path class="st11" d="M1211.1,476.3c0,0.9-0.7,1.7-1.6,1.7s-1.6-0.7-1.6-1.7c0-0.9,0.7-1.7,1.6-1.7
				C1210.4,474.7,1211.1,475.4,1211.1,476.3z"/>
		</g>
		<g class="st10">
			<path class="st11" d="M1187.2,457.2c0,1.8-1.4,3.3-3.2,3.3c-1.8,0-3.2-1.5-3.2-3.3s1.4-3.3,3.2-3.3
				C1185.8,453.8,1187.2,455.3,1187.2,457.2z"/>
			<path class="st11" d="M1185.6,457.2c0,0.9-0.7,1.7-1.6,1.7s-1.6-0.7-1.6-1.7c0-0.9,0.7-1.7,1.6-1.7S1185.6,456.2,1185.6,457.2z"
				/>
		</g>
		<g class="st10">
			<path class="st11" d="M1161.7,464.9c0,1.8-1.4,3.3-3.2,3.3c-1.8,0-3.2-1.5-3.2-3.3s1.4-3.3,3.2-3.3
				C1160.2,461.6,1161.7,463.1,1161.7,464.9z"/>
			<path class="st11" d="M1160.1,464.9c0,0.9-0.7,1.7-1.6,1.7s-1.6-0.7-1.6-1.7c0-0.9,0.7-1.7,1.6-1.7S1160.1,464,1160.1,464.9z"/>
		</g>
		<g class="st10">
			<path class="st11" d="M1136.1,442.8c0,1.8-1.4,3.3-3.2,3.3c-1.8,0-3.2-1.5-3.2-3.3s1.4-3.3,3.2-3.3S1136.1,441,1136.1,442.8z"/>
			<path class="st11" d="M1134.5,442.8c0,0.9-0.7,1.7-1.6,1.7s-1.6-0.7-1.6-1.7c0-0.9,0.7-1.7,1.6-1.7S1134.5,441.9,1134.5,442.8z"
				/>
		</g>
		<g class="st10">
			<path class="st11" d="M1110.6,436.9c0,1.8-1.4,3.3-3.2,3.3s-3.2-1.5-3.2-3.3s1.4-3.3,3.2-3.3S1110.6,435.1,1110.6,436.9z"/>
			<path class="st11" d="M1109,436.9c0,0.9-0.7,1.7-1.6,1.7s-1.6-0.7-1.6-1.7s0.7-1.7,1.6-1.7S1109,436,1109,436.9z"/>
		</g>
	</g>
	<g class="st6">
		<g class="st10">
			<g>
				<path class="st11" d="M512.9-277.1c15.8,0,28.6,12.8,28.6,28.6c0,8.6-3.8,16.4-9.9,21.6l4.3,5c7.4-6.5,12.1-16,12.1-26.6
					c0-19.4-15.8-35.2-35.2-35.2l0,0v6.6H512.9z"/>
				<path class="st11" d="M511.9-282.7v4.6c-12,0.4-22.6,8-26.7,19.3l-4.4-1.5c1.6-4.3,3.9-8.1,7-11.5c2.6-2.8,5.5-5.1,8.8-6.8
					C501.3-281.1,506.5-282.5,511.9-282.7L511.9-282.7z M512.9-283.7c-6.1,0-11.8,1.5-16.8,4.2c-3.4,1.8-6.4,4.2-9.1,7
					c-3.4,3.6-6,8-7.6,12.8l6.3,2.1c3.8-11.4,14.5-19.5,27.1-19.5L512.9-283.7L512.9-283.7z"/>
				<path class="st13" d="M531.6-226.9c-5,4.3-11.6,7-18.7,7c-15.8,0-28.6-12.8-28.6-28.6c0-3.2,0.5-6.2,1.5-9l-6.3-2.1
					c-1.2,3.5-1.8,7.2-1.8,11.1c0,19.4,15.8,35.2,35.2,35.2c8.8,0,16.9-3.2,23-8.6L531.6-226.9z"/>
				<g>
					<g>
						<path class="st11" d="M507.8-245.5c0.6,0,1.1-0.2,1.4-0.5c0.3-0.3,0.5-0.7,0.5-1.2c0-0.6-0.2-1-0.5-1.2
							c-0.3-0.3-0.9-0.4-1.6-0.4h-1.1v-1l1.8-2.4l0.8-0.7l-1.2,0.1h-2.5v-1.6h5.6v1l-2.1,2.8l-0.6,0.4v0.1l0.6-0.1
							c0.3,0,0.7,0.1,1,0.2c0.3,0.1,0.6,0.3,0.8,0.5s0.4,0.5,0.5,0.9s0.2,0.8,0.2,1.2c0,0.6-0.1,1.1-0.3,1.5s-0.5,0.8-0.8,1.1
							s-0.7,0.5-1.2,0.6c-0.4,0.1-0.9,0.2-1.5,0.2c-0.4,0-0.9,0-1.3-0.1c-0.5-0.1-0.8-0.2-1.1-0.3l0.5-1.6c0.3,0.1,0.5,0.2,0.8,0.3
							C507.1-245.6,507.4-245.5,507.8-245.5z"/>
						<path class="st11" d="M516.4-245.6c0.6,0,1.1-0.2,1.5-0.5c0.3-0.3,0.5-0.7,0.5-1.3s-0.2-1-0.6-1.3c-0.4-0.3-1-0.4-1.7-0.4
							h-1.2v-5.4h5v1.8h-3.4v2l0.6-0.1c0.5,0,0.9,0.1,1.3,0.3c0.4,0.2,0.7,0.4,1,0.7s0.5,0.6,0.6,1s0.2,0.8,0.2,1.3
							c0,0.6-0.1,1.1-0.3,1.5s-0.5,0.8-0.8,1.1s-0.8,0.5-1.2,0.7c-0.5,0.1-1,0.2-1.5,0.2c-0.4,0-0.9,0-1.3-0.1
							c-0.4-0.1-0.7-0.2-1-0.3l0.5-1.6c0.2,0.1,0.5,0.2,0.7,0.2C515.7-245.6,516-245.6,516.4-245.6z"/>
					</g>
				</g>
			</g>
			<g>
				<g class="st14">
					<path class="st11" d="M600.8-283.7v35.2h-35.2c0,19.4,15.8,35.2,35.2,35.2s35.2-15.8,35.2-35.2
						C636-268,620.2-283.7,600.8-283.7z"/>
				</g>
				<path class="st11" d="M600.8-276.1c15.2,0,27.6,12.4,27.6,27.6c0,15.2-12.4,27.6-27.6,27.6c-15.2,0-27.6-12.4-27.6-27.6
					S585.6-276.1,600.8-276.1L600.8-276.1z M600.8-277.1c-15.8,0-28.6,12.8-28.6,28.6s12.8,28.6,28.6,28.6s28.6-12.8,28.6-28.6
					C629.4-264.3,616.6-277.1,600.8-277.1L600.8-277.1z"/>
				<g>
					<g>
						<path class="st11" d="M593.7-244.1l3.4-7.9l0.6-0.7l-0.9,0.1H593v-1.8h6.6v0.6l-4.1,9.7L593.7-244.1L593.7-244.1z"/>
						<path class="st11" d="M604.3-245.6c0.6,0,1.1-0.2,1.5-0.5c0.3-0.3,0.5-0.7,0.5-1.3s-0.2-1-0.6-1.3c-0.4-0.3-1-0.4-1.7-0.4
							h-1.2v-5.4h5v1.8h-3.4v2l0.6-0.1c0.5,0,0.9,0.1,1.3,0.3c0.4,0.2,0.7,0.4,1,0.7s0.5,0.6,0.6,1s0.2,0.8,0.2,1.3
							c0,0.6-0.1,1.1-0.3,1.5s-0.5,0.8-0.8,1.1s-0.8,0.5-1.2,0.7c-0.5,0.1-1,0.2-1.5,0.2c-0.4,0-0.9,0-1.3-0.1
							c-0.4-0.1-0.7-0.2-1-0.3l0.5-1.6c0.2,0.1,0.5,0.2,0.7,0.2C603.6-245.6,604-245.6,604.3-245.6z"/>
					</g>
				</g>
			</g>
		</g>
		<g class="st10">
			<g>
				<path class="st11" d="M513.9-194.3c18.4,0.5,33.2,15.7,33.2,34.2c0,18.8-15.3,34.2-34.2,34.2c-13.7,0-25.9-8-31.4-20.6l4.3-1.7
					c4.7,10.8,15.3,17.7,27.1,17.7c16.3,0,29.6-13.3,29.6-29.6c0-16-12.7-29-28.6-29.6L513.9-194.3L513.9-194.3z M512.9-195.4v6.6
					c15.8,0,28.6,12.8,28.6,28.6c0,15.8-12.8,28.6-28.6,28.6c-12,0-22.3-7.4-26.5-18l-6.1,2.5c5.2,13,17.9,22.1,32.7,22.1
					c19.4,0,35.2-15.8,35.2-35.2C548.1-179.6,532.3-195.4,512.9-195.4L512.9-195.4z"/>
				<path class="st13" d="M512.9-188.8c-15.8,0-28.6,12.8-28.6,28.6c0,3.8,0.7,7.3,2,10.6c4.2,10.5,14.5,18,26.5,18
					c15.8,0,28.6-12.8,28.6-28.6C541.5-176,528.7-188.8,512.9-188.8z"/>
				<g>
					<g>
						<path class="st11" d="M511.9-159c0,0.5-0.1,0.9-0.2,1.3c-0.2,0.4-0.4,0.8-0.7,1.1c-0.3,0.3-0.6,0.5-1.1,0.7
							c-0.4,0.2-0.9,0.3-1.4,0.3s-1-0.1-1.4-0.2c-0.4-0.2-0.8-0.4-1.1-0.7c-0.3-0.3-0.6-0.7-0.7-1.2c-0.2-0.5-0.3-1.1-0.3-1.7
							c0-1,0.1-1.8,0.4-2.6c0.3-0.8,0.7-1.5,1.1-2c0.5-0.6,1-1,1.7-1.4c0.6-0.4,1.3-0.6,2-0.7l0.4,1.5c-0.5,0.1-0.9,0.2-1.3,0.5
							c-0.4,0.2-0.8,0.5-1.1,0.8s-0.6,0.7-0.8,1c-0.2,0.4-0.4,0.8-0.5,1.2c0.2-0.2,0.4-0.5,0.8-0.6c0.3-0.2,0.7-0.3,1.2-0.3
							c0.4,0,0.8,0.1,1.2,0.2s0.7,0.3,1,0.6c0.3,0.3,0.5,0.6,0.6,1C511.8-159.9,511.9-159.5,511.9-159z M510-158.9
							c0-1.1-0.5-1.6-1.6-1.6c-0.4,0-0.7,0.1-1,0.3c-0.3,0.2-0.5,0.4-0.6,0.6c0,0.1,0,0.2,0,0.3c0,0.1,0,0.2,0,0.2
							c0,0.2,0,0.5,0.1,0.7s0.2,0.4,0.3,0.6s0.3,0.3,0.5,0.4s0.4,0.2,0.7,0.2c0.5,0,0.8-0.2,1.1-0.5C509.9-158,510-158.4,510-158.9z
							"/>
						<path class="st11" d="M520.1-163.5c0,0.5-0.1,1-0.3,1.5s-0.4,1-0.7,1.5s-0.6,1-0.9,1.4c-0.3,0.5-0.7,0.9-1,1.3l-0.8,0.6v0.1
							l1.1-0.2h2.8v1.6h-6.2v-1c0.2-0.2,0.5-0.5,0.8-0.9c0.3-0.3,0.6-0.7,0.9-1c0.3-0.4,0.6-0.7,0.9-1.1c0.3-0.4,0.5-0.8,0.8-1.2
							c0.2-0.4,0.4-0.8,0.5-1.2c0.1-0.4,0.2-0.7,0.2-1.1s-0.1-0.7-0.3-1s-0.6-0.4-1.1-0.4c-0.3,0-0.6,0.1-1,0.2
							c-0.3,0.1-0.6,0.3-0.8,0.5l-0.8-1.3c0.4-0.3,0.8-0.6,1.3-0.8c0.5-0.2,1.1-0.3,1.7-0.3c0.4,0,0.8,0.1,1.2,0.2s0.7,0.3,0.9,0.5
							c0.3,0.2,0.5,0.5,0.6,0.8C520.1-164.4,520.1-164,520.1-163.5z"/>
					</g>
				</g>
			</g>
			<g>
				<path class="st11" d="M593-160.7v-5.3v-1h1h5h1v1v1.8v1h-1h-2c0.3,0.1,0.6,0.1,0.9,0.3c0.5,0.2,1,0.5,1.3,0.9
					c0.4,0.4,0.7,0.8,0.9,1.4c0.1,0.2,0.1,0.4,0.2,0.6h0.5c0-0.2,0-0.5,0-0.7c0-0.6,0-1.2,0.1-1.7v-26.1
					c-15.8,0-28.6,12.8-28.6,28.6H593V-160.7z"/>
				<path class="st11" d="M599.2-162.1c-0.4-0.4-0.8-0.7-1.3-0.9c-0.3-0.1-0.6-0.2-0.9-0.3h2h1v-1v-1.7v-1h-1h-5h-1v1v5.4v0.5h4
					l-0.1-0.1c-0.4-0.3-1-0.4-1.7-0.4H594v-5.4h5v1.8h-3.4v2l0.6-0.1c0.5,0,0.9,0.1,1.3,0.3c0.4,0.2,0.7,0.4,1,0.7
					c0.3,0.3,0.5,0.6,0.6,1c0,0.1,0,0.2,0.1,0.2h1c0-0.2-0.1-0.4-0.2-0.6C599.9-161.3,599.6-161.7,599.2-162.1z"/>
				<path class="st11" d="M600.7-160.2L600.7-160.2l0.1-2.5c-0.1,0.5-0.1,1.1-0.1,1.7C600.7-160.7,600.7-160.4,600.7-160.2z"/>
				<g class="st14">
					<path class="st11" d="M600.8-195.4v6.6v26.1v2.5h-0.1h-0.5h-1c0.1,0.3,0.2,0.7,0.2,1.1c0,0.6-0.1,1.1-0.3,1.5s-0.5,0.8-0.8,1.1
						c-0.3,0.3-0.8,0.5-1.2,0.7c-0.5,0.1-1,0.2-1.5,0.2c-0.4,0-0.9,0-1.3-0.1c-0.4-0.1-0.7-0.2-1-0.3l0.5-1.6
						c0.2,0.1,0.5,0.2,0.7,0.2c0.3,0.1,0.6,0.1,1,0.1c0.6,0,1.1-0.2,1.5-0.5c0.3-0.3,0.5-0.7,0.5-1.3c0-0.5-0.2-0.9-0.5-1.2h-4
						h-20.7h-6.6c0,19.4,15.8,35.2,35.2,35.2s35.2-15.8,35.2-35.2C636-179.6,620.2-195.4,600.8-195.4z M607.9-156.9
						c-0.6,0.9-1.5,1.3-2.7,1.3s-2.1-0.5-2.7-1.4c-0.6-0.9-0.9-2.2-0.9-4s0.3-3.1,0.9-4c0.6-0.9,1.5-1.3,2.7-1.3s2.1,0.4,2.7,1.3
						c0.6,0.9,0.9,2.2,0.9,4C608.9-159.1,608.5-157.8,607.9-156.9z"/>
					<path class="st11" d="M605.3-164.6c-0.6,0-1,0.3-1.3,0.9s-0.4,1.5-0.4,2.8c0,1.2,0.1,2.1,0.4,2.8c0.3,0.7,0.7,1,1.3,1
						s1-0.3,1.3-0.9s0.4-1.5,0.4-2.8c0-1.2-0.1-2.1-0.4-2.7C606.3-164.3,605.9-164.6,605.3-164.6z"/>
				</g>
			</g>
		</g>
	</g>
	<g class="st6">
		<g class="st10">
			<path class="st11" d="M591.6,373.4c-0.3,0-0.6,0.3-0.6,0.6s0.3,0.6,0.6,0.6h14.9c0-0.2-0.1-0.4-0.1-0.6c0-0.2,0-0.4,0.1-0.6
				H591.6z"/>
			<path class="st11" d="M748.1,373.4c0,0.2,0.1,0.4,0.1,0.6c0,0.2,0,0.4-0.1,0.6h19.2c0-0.2-0.1-0.4-0.1-0.6c0-0.2,0-0.4,0.1-0.6
				H748.1z"/>
			<path class="st11" d="M801.7,373.4c0,0.2,0.1,0.4,0.1,0.6c0,0.2,0,0.4-0.1,0.6h19.2c0-0.2-0.1-0.4-0.1-0.6c0-0.2,0-0.4,0.1-0.6
				H801.7z"/>
			<path class="st11" d="M774.9,373.4c0,0.2,0.1,0.4,0.1,0.6c0,0.2,0,0.4-0.1,0.6h19.2c0-0.2-0.1-0.4-0.1-0.6c0-0.2,0-0.4,0.1-0.6
				H774.9z"/>
			<path class="st11" d="M882.1,373.4c0,0.2,0.1,0.4,0.1,0.6s0,0.4-0.1,0.6h19.2c0-0.2-0.1-0.4-0.1-0.6s0-0.4,0.1-0.6H882.1z"/>
			<path class="st11" d="M855.3,373.4c0,0.2,0.1,0.4,0.1,0.6c0,0.2,0,0.4-0.1,0.6h19.2c0-0.2-0.1-0.4-0.1-0.6s0-0.4,0.1-0.6H855.3z"
				/>
			<path class="st11" d="M923.9,373.4H909c0,0.2,0.1,0.4,0.1,0.6s0,0.4-0.1,0.6h14.9c0.3,0,0.6-0.3,0.6-0.6
				C924.4,373.6,924.2,373.4,923.9,373.4z"/>
			<path class="st11" d="M828.5,373.4c0,0.2,0.1,0.4,0.1,0.6c0,0.2,0,0.4-0.1,0.6h19.2c0-0.2-0.1-0.4-0.1-0.6c0-0.2,0-0.4,0.1-0.6
				H828.5z"/>
			<path class="st11" d="M721.4,373.4c0,0.2,0.1,0.4,0.1,0.6c0,0.2,0,0.4-0.1,0.6h19.2c0-0.2-0.1-0.4-0.1-0.6c0-0.2,0-0.4,0.1-0.6
				H721.4z"/>
			<path class="st11" d="M667.8,373.4c0,0.2,0.1,0.4,0.1,0.6c0,0.2,0,0.4-0.1,0.6H687c0-0.2-0.1-0.4-0.1-0.6c0-0.2,0-0.4,0.1-0.6
				H667.8z"/>
			<path class="st11" d="M641,373.4c0,0.2,0.1,0.4,0.1,0.6c0,0.2,0,0.4-0.1,0.6h19.2c0-0.2-0.1-0.4-0.1-0.6c0-0.2,0-0.4,0.1-0.6H641
				z"/>
			<path class="st11" d="M614.2,373.4c0,0.2,0.1,0.4,0.1,0.6c0,0.2,0,0.4-0.1,0.6h19.2c0-0.2-0.1-0.4-0.1-0.6c0-0.2,0-0.4,0.1-0.6
				H614.2z"/>
			<path class="st11" d="M694.6,373.4c0,0.2,0.1,0.4,0.1,0.6c0,0.2,0,0.4-0.1,0.6h19.2c0-0.2-0.1-0.4-0.1-0.6c0-0.2,0-0.4,0.1-0.6
				H694.6z"/>
			<path class="st11" d="M613,373.4L613,373.4c-0.3-1.2-1.3-2.1-2.6-2.1s-2.3,0.9-2.6,2.1l0,0l0,0c0,0.2-0.1,0.4-0.1,0.6
				s0,0.4,0.1,0.6l0,0l0,0c0.3,1.2,1.3,2.1,2.6,2.1s2.3-0.9,2.6-2.1l0,0l0,0c0-0.2,0.1-0.4,0.1-0.6C613,373.8,613,373.6,613,373.4
				L613,373.4z"/>
			<path class="st11" d="M639.8,373.4L639.8,373.4c-0.3-1.2-1.3-2.1-2.6-2.1s-2.3,0.9-2.6,2.1l0,0l0,0c0,0.2-0.1,0.4-0.1,0.6
				c0,0.2,0,0.4,0.1,0.6l0,0l0,0c0.3,1.2,1.3,2.1,2.6,2.1s2.3-0.9,2.6-2.1l0,0l0,0c0-0.2,0.1-0.4,0.1-0.6S639.8,373.6,639.8,373.4
				L639.8,373.4z"/>
			<path class="st11" d="M666.6,373.4L666.6,373.4c-0.3-1.2-1.3-2.1-2.6-2.1s-2.3,0.9-2.6,2.1l0,0l0,0c0,0.2-0.1,0.4-0.1,0.6
				c0,0.2,0,0.4,0.1,0.6l0,0l0,0c0.3,1.2,1.3,2.1,2.6,2.1s2.3-0.9,2.6-2.1l0,0l0,0c0-0.2,0.1-0.4,0.1-0.6S666.6,373.6,666.6,373.4
				L666.6,373.4z"/>
			<path class="st11" d="M693.3,373.4L693.3,373.4c-0.3-1.2-1.3-2.1-2.6-2.1s-2.3,0.9-2.6,2.1l0,0l0,0c0,0.2-0.1,0.4-0.1,0.6
				s0,0.4,0.1,0.6l0,0l0,0c0.3,1.2,1.3,2.1,2.6,2.1s2.3-0.9,2.6-2.1l0,0l0,0c0-0.2,0.1-0.4,0.1-0.6S693.4,373.6,693.3,373.4
				L693.3,373.4z"/>
			<path class="st11" d="M720.1,373.4L720.1,373.4c-0.3-1.2-1.3-2.1-2.6-2.1s-2.3,0.9-2.6,2.1l0,0l0,0c0,0.2-0.1,0.4-0.1,0.6
				s0,0.4,0.1,0.6l0,0l0,0c0.3,1.2,1.3,2.1,2.6,2.1s2.3-0.9,2.6-2.1l0,0l0,0c0-0.2,0.1-0.4,0.1-0.6S720.2,373.6,720.1,373.4
				L720.1,373.4z"/>
			<path class="st11" d="M746.9,373.4L746.9,373.4c-0.3-1.2-1.3-2.1-2.6-2.1s-2.3,0.9-2.6,2.1l0,0l0,0c0,0.2-0.1,0.4-0.1,0.6
				s0,0.4,0.1,0.6l0,0l0,0c0.3,1.2,1.3,2.1,2.6,2.1s2.3-0.9,2.6-2.1l0,0l0,0c0-0.2,0.1-0.4,0.1-0.6S747,373.6,746.9,373.4
				L746.9,373.4z"/>
			<path class="st11" d="M773.7,373.4L773.7,373.4c-0.3-1.2-1.3-2.1-2.6-2.1s-2.3,0.9-2.6,2.1l0,0l0,0c0,0.2-0.1,0.4-0.1,0.6
				c0,0.2,0,0.4,0.1,0.6l0,0l0,0c0.3,1.2,1.3,2.1,2.6,2.1s2.3-0.9,2.6-2.1l0,0l0,0c0-0.2,0.1-0.4,0.1-0.6S773.8,373.6,773.7,373.4
				L773.7,373.4z"/>
			<path class="st11" d="M800.5,373.4L800.5,373.4c-0.3-1.2-1.3-2.1-2.6-2.1s-2.3,0.9-2.6,2.1l0,0l0,0c0,0.2-0.1,0.4-0.1,0.6
				s0,0.4,0.1,0.6l0,0l0,0c0.3,1.2,1.3,2.1,2.6,2.1s2.3-0.9,2.6-2.1l0,0l0,0c0-0.2,0.1-0.4,0.1-0.6S800.6,373.6,800.5,373.4
				L800.5,373.4z"/>
			<path class="st11" d="M827.3,373.4L827.3,373.4c-0.3-1.2-1.3-2.1-2.6-2.1s-2.3,0.9-2.6,2.1l0,0l0,0c0,0.2-0.1,0.4-0.1,0.6
				s0,0.4,0.1,0.6l0,0l0,0c0.3,1.2,1.3,2.1,2.6,2.1s2.3-0.9,2.6-2.1l0,0l0,0c0-0.2,0.1-0.4,0.1-0.6
				C827.4,373.8,827.4,373.6,827.3,373.4L827.3,373.4z"/>
			<path class="st11" d="M854.1,373.4L854.1,373.4c-0.3-1.2-1.3-2.1-2.6-2.1c-1.3,0-2.3,0.9-2.6,2.1l0,0l0,0c0,0.2-0.1,0.4-0.1,0.6
				s0,0.4,0.1,0.6l0,0l0,0c0.3,1.2,1.3,2.1,2.6,2.1c1.3,0,2.3-0.9,2.6-2.1l0,0l0,0c0-0.2,0.1-0.4,0.1-0.6S854.2,373.6,854.1,373.4
				L854.1,373.4z"/>
			<path class="st11" d="M878.3,371.3c-1.5,0-2.7,1.2-2.7,2.7s1.2,2.7,2.7,2.7s2.7-1.2,2.7-2.7S879.8,371.3,878.3,371.3z"/>
			<path class="st11" d="M905.1,371.3c-1.5,0-2.7,1.2-2.7,2.7s1.2,2.7,2.7,2.7s2.7-1.2,2.7-2.7C907.8,372.5,906.6,371.3,905.1,371.3
				z"/>
			<path class="st11" d="M606.6,365.9c0,0.2,0,0.3-0.1,0.4c0,0.1-0.1,0.2-0.3,0.2c-0.1,0-0.2,0-0.3-0.1l-0.2,0.6
				c0.1,0,0.2,0.1,0.3,0.1s0.2,0,0.3,0c0.2,0,0.3,0,0.4-0.1c0.1-0.1,0.2-0.1,0.3-0.2c0.1-0.1,0.1-0.2,0.2-0.3c0-0.1,0-0.3,0-0.4
				v-2.7h-0.7L606.6,365.9L606.6,365.9z"/>
			<path class="st11" d="M608.9,366.2h1.2l0.3,0.8h0.8l-1.4-3.8h-0.5l-1.4,3.8h0.7L608.9,366.2z M609.3,364.8l0.1-0.6l0,0l0.1,0.6
				l0.3,0.8H609L609.3,364.8z"/>
			<polygon class="st11" points="614.5,363.3 613.8,363.3 613.8,365.3 613.9,365.9 613.9,365.9 613.6,365.3 612.2,363.3 
				611.6,363.3 611.6,367.1 612.3,367.1 612.3,365.1 612.3,364.5 612.3,364.5 612.6,365.1 614,367.1 614.5,367.1 			"/>
			<polygon class="st11" points="635,364.9 633.6,364.9 633.6,364 635.1,364 635.1,363.3 632.9,363.3 632.9,367.1 633.6,367.1 
				633.6,365.5 635,365.5 			"/>
			<polygon class="st11" points="638.1,366.4 636.6,366.4 636.6,365.5 637.9,365.5 637.9,364.8 636.6,364.8 636.6,364 638.1,364 
				638.1,363.3 635.8,363.3 635.8,367.1 638.1,367.1 			"/>
			<path class="st11" d="M641.4,366.5c0.1-0.1,0.1-0.3,0.1-0.5c0-0.1,0-0.3-0.1-0.4c0-0.1-0.1-0.2-0.2-0.3c-0.1-0.1-0.2-0.1-0.3-0.2
				c-0.1,0-0.2-0.1-0.3-0.1l0,0c0.1,0,0.2-0.1,0.3-0.1c0.1-0.1,0.2-0.1,0.2-0.2c0.1-0.1,0.1-0.2,0.1-0.3s0-0.2,0-0.3
				c0-0.2,0-0.3-0.1-0.5c-0.1-0.1-0.2-0.2-0.3-0.3s-0.3-0.1-0.4-0.1c-0.2,0-0.3,0-0.5,0c-0.1,0-0.2,0-0.3,0s-0.2,0-0.3,0
				s-0.2,0-0.3,0s-0.2,0-0.2,0v3.7c0.1,0,0.2,0,0.3,0s0.2,0,0.3,0s0.2,0,0.3,0s0.2,0,0.2,0c0.2,0,0.4,0,0.5-0.1
				c0.2,0,0.3-0.1,0.5-0.2C641.2,366.8,641.3,366.7,641.4,366.5z M639.6,363.9c0,0,0.1,0,0.2,0c0.1,0,0.2,0,0.3,0s0.2,0,0.2,0
				c0.1,0,0.1,0,0.2,0.1c0.1,0,0.1,0.1,0.1,0.1c0,0.1,0.1,0.1,0.1,0.2c0,0.1,0,0.2-0.1,0.3s-0.2,0.1-0.4,0.2c0,0-0.1,0-0.2,0
				c-0.1,0-0.1,0-0.2,0h-0.2L639.6,363.9L639.6,363.9z M640.7,366.2c0,0.1-0.1,0.1-0.2,0.2c-0.1,0-0.1,0.1-0.2,0.1
				c-0.1,0-0.2,0-0.3,0h-0.1h-0.1h-0.1h-0.1v-1h0.4c0.1,0,0.2,0,0.3,0s0.2,0,0.2,0.1c0.1,0,0.1,0.1,0.2,0.2c0,0.1,0.1,0.2,0.1,0.3
				C640.7,366.1,640.7,366.1,640.7,366.2z"/>
			<polygon class="st11" points="661.6,364.4 661.7,364.4 661.6,365.1 661.6,367.1 662.3,367.1 662.3,363.3 661.7,363.3 660.7,365 
				660.5,365.5 660.5,365.5 660.3,365 659.3,363.3 658.7,363.3 658.7,367.1 659.4,367.1 659.4,365.1 659.3,364.4 659.3,364.4 
				659.5,365 660.4,366.4 660.6,366.4 661.4,365 			"/>
			<path class="st11" d="M663.9,366.2h1.2l0.3,0.8h0.8l-1.3-3.8h-0.5l-1.3,3.8h0.7L663.9,366.2z M664.3,364.8l0.1-0.6l0,0l0.1,0.6
				l0.3,0.8H664L664.3,364.8z"/>
			<path class="st11" d="M669.4,367.1l-0.9-1.4l-0.3-0.2c0.2-0.1,0.4-0.2,0.6-0.4c0.1-0.2,0.2-0.4,0.2-0.8c0-0.2,0-0.4-0.1-0.5
				s-0.2-0.2-0.3-0.3s-0.3-0.1-0.5-0.2c-0.2,0-0.3,0-0.5,0c-0.1,0-0.2,0-0.2,0c-0.1,0-0.2,0-0.3,0s-0.2,0-0.3,0s-0.2,0-0.3,0v3.7
				h0.7v-1.5l0.4,0.1l0.9,1.5L669.4,367.1L669.4,367.1z M667.7,365h-0.3v-1.1c0,0,0.1,0,0.2,0c0.1,0,0.1,0,0.2,0
				c0.2,0,0.3,0,0.4,0.1c0.1,0.1,0.1,0.2,0.1,0.4s-0.1,0.4-0.2,0.5S667.9,365,667.7,365z"/>
			<path class="st11" d="M689,367.1l-1.3-3.8h-0.5l-1.4,3.8h0.7l0.3-0.8h1.2l0.3,0.8H689z M687,365.6l0.3-0.8l0.1-0.6l0,0l0.1,0.6
				l0.3,0.8H687z"/>
			<path class="st11" d="M690.3,365.8L690.3,365.8c0.1,0,0.2,0,0.2,0h0.1h0.1c0.2,0,0.4,0,0.5-0.1c0.2,0,0.3-0.1,0.5-0.2
				c0.1-0.1,0.2-0.2,0.3-0.4s0.1-0.4,0.1-0.6c0-0.3,0-0.5-0.1-0.6c-0.1-0.2-0.2-0.3-0.4-0.4c-0.2-0.1-0.3-0.2-0.5-0.2s-0.4,0-0.6,0
				c-0.2,0-0.4,0-0.5,0c-0.2,0-0.3,0-0.5,0.1v3.7h0.7v-1.3H690.3z M690.3,363.9c0,0,0.1,0,0.2,0c0.1,0,0.1,0,0.2,0
				c0.1,0,0.2,0,0.3,0s0.2,0.1,0.2,0.1s0.1,0.1,0.2,0.2c0,0.1,0.1,0.2,0.1,0.3s0,0.3-0.1,0.3c0,0.1-0.1,0.2-0.2,0.2
				c-0.1,0-0.2,0.1-0.3,0.1s-0.2,0-0.3,0c0,0,0,0-0.1,0h-0.1h-0.1c0,0,0,0-0.1,0L690.3,363.9L690.3,363.9z"/>
			<path class="st11" d="M695.6,367.1l-0.9-1.4l-0.3-0.2c0.2-0.1,0.4-0.2,0.6-0.4c0.1-0.2,0.2-0.4,0.2-0.8c0-0.2,0-0.4-0.1-0.5
				s-0.2-0.2-0.3-0.3s-0.3-0.1-0.5-0.2c-0.2,0-0.3,0-0.5,0c-0.1,0-0.2,0-0.2,0c-0.1,0-0.2,0-0.3,0s-0.2,0-0.3,0s-0.2,0-0.3,0v3.7
				h0.7v-1.5l0.4,0.1l0.9,1.5L695.6,367.1L695.6,367.1z M693.9,365h-0.3v-1.1c0,0,0.1,0,0.2,0c0.1,0,0.1,0,0.2,0
				c0.2,0,0.3,0,0.4,0.1c0.1,0.1,0.2,0.2,0.2,0.4s-0.1,0.4-0.2,0.5C694.2,365,694.1,365,693.9,365z"/>
			<polygon class="st11" points="715.6,364.4 715.6,364.4 715.5,365.1 715.5,367.1 716.2,367.1 716.2,363.3 715.6,363.3 714.6,365 
				714.5,365.5 714.4,365.5 714.3,365 713.3,363.3 712.6,363.3 712.6,367.1 713.3,367.1 713.3,365.1 713.2,364.4 713.2,364.4 
				713.4,365 714.3,366.4 714.5,366.4 715.3,365 			"/>
			<path class="st11" d="M717.8,366.2h1.2l0.3,0.8h0.8l-1.4-3.8h-0.5l-1.3,3.8h0.7L717.8,366.2z M718.3,364.8l0.1-0.6l0,0l0.1,0.6
				l0.3,0.8H718L718.3,364.8z"/>
			<polygon class="st11" points="721.7,367.1 721.7,365.7 722.9,363.3 722.2,363.3 721.5,364.7 721.4,365.1 721.4,365.1 
				721.3,364.7 720.6,363.3 719.8,363.3 721,365.7 721,367.1 			"/>
			<path class="st11" d="M740.5,365.9c0,0.2,0,0.3-0.1,0.4c0,0.1-0.1,0.2-0.3,0.2c-0.1,0-0.2,0-0.3-0.1l-0.2,0.6
				c0.1,0,0.2,0.1,0.3,0.1s0.2,0,0.3,0c0.2,0,0.3,0,0.4-0.1c0.1-0.1,0.2-0.1,0.3-0.2c0.1-0.1,0.1-0.2,0.2-0.3c0-0.1,0-0.3,0-0.4
				v-2.7h-0.7L740.5,365.9L740.5,365.9z"/>
			<path class="st11" d="M743.5,367.1c0.2,0,0.4,0,0.5-0.1c0.2-0.1,0.3-0.1,0.4-0.3c0.1-0.1,0.2-0.3,0.3-0.4
				c0.1-0.2,0.1-0.4,0.1-0.6v-2.4h-0.7v2.4c0,0.3-0.1,0.5-0.2,0.6s-0.3,0.2-0.5,0.2c-0.1,0-0.2,0-0.3,0s-0.2-0.1-0.2-0.1
				c-0.1-0.1-0.1-0.1-0.1-0.2c0-0.1,0-0.2,0-0.4v-2.4h-0.7v2.5C742.1,366.7,742.6,367.1,743.5,367.1z"/>
			<polygon class="st11" points="748.6,363.3 747.9,363.3 747.9,365.3 747.9,365.9 747.9,365.9 747.6,365.3 746.2,363.3 
				745.7,363.3 745.7,367.1 746.4,367.1 746.4,365.1 746.3,364.5 746.3,364.5 746.6,365.1 748,367.1 748.6,367.1 			"/>
			<path class="st11" d="M768.5,366.1v-2.7h-0.7v2.6c0,0.2,0,0.3-0.1,0.4c0,0.1-0.1,0.2-0.3,0.2c-0.1,0-0.2,0-0.3-0.1L767,367
				c0.1,0,0.2,0.1,0.3,0.1s0.2,0,0.3,0c0.2,0,0.3,0,0.4-0.1c0.1-0.1,0.2-0.1,0.3-0.2c0.1-0.1,0.1-0.2,0.2-0.3
				C768.5,366.3,768.5,366.2,768.5,366.1z"/>
			<path class="st11" d="M770.8,367.1c0.2,0,0.4,0,0.5-0.1c0.2-0.1,0.3-0.1,0.4-0.3c0.1-0.1,0.2-0.3,0.3-0.4
				c0.1-0.2,0.1-0.4,0.1-0.6v-2.4h-0.7v2.4c0,0.3,0,0.5-0.1,0.6s-0.3,0.2-0.5,0.2c-0.1,0-0.2,0-0.3,0s-0.2-0.1-0.2-0.1
				c-0.1-0.1-0.1-0.1-0.1-0.2c0-0.1,0-0.2,0-0.4v-2.4h-0.7v2.5C769.4,366.7,769.9,367.1,770.8,367.1z"/>
			<polygon class="st11" points="775.4,366.4 773.7,366.4 773.7,363.3 773,363.3 773,367.1 775.4,367.1 			"/>
			<path class="st11" d="M796,367.1l-1.3-3.8h-0.5l-1.3,3.8h0.7l0.3-0.8h1.2l0.3,0.8H796z M794,365.6l0.3-0.8l0.1-0.6l0,0l0.1,0.6
				l0.3,0.8H794z"/>
			<path class="st11" d="M798,367.1c0.2,0,0.4,0,0.5-0.1c0.2-0.1,0.3-0.1,0.4-0.3c0.1-0.1,0.2-0.3,0.3-0.4c0.1-0.2,0.1-0.4,0.1-0.6
				v-2.4h-0.7v2.4c0,0.3,0,0.5-0.1,0.6s-0.3,0.2-0.5,0.2c-0.1,0-0.2,0-0.3,0s-0.2-0.1-0.2-0.1c-0.1-0.1-0.1-0.1-0.1-0.2
				c0-0.1,0-0.2,0-0.4v-2.4h-0.7v2.5C796.5,366.7,797,367.1,798,367.1z"/>
			<path class="st11" d="M802.8,366.8v-1.7h-1.4v0.4l0.8,0.1v0.7c-0.1,0-0.1,0.1-0.2,0.1c-0.1,0-0.2,0-0.3,0s-0.3,0-0.4-0.1
				c-0.1-0.1-0.2-0.1-0.3-0.2c-0.1-0.1-0.2-0.2-0.2-0.4c-0.1-0.2-0.1-0.4-0.1-0.6c0-0.2,0-0.4,0.1-0.6c0.1-0.2,0.1-0.3,0.2-0.4
				c0.1-0.1,0.2-0.2,0.3-0.2s0.3-0.1,0.4-0.1c0.2,0,0.3,0,0.4,0c0.1,0,0.2,0,0.3,0.1l0.2-0.6c-0.1,0-0.2-0.1-0.4-0.1s-0.3,0-0.6,0
				c-0.2,0-0.4,0-0.6,0.1c-0.2,0.1-0.4,0.2-0.6,0.3c-0.2,0.2-0.3,0.4-0.4,0.6c-0.1,0.2-0.2,0.5-0.2,0.9c0,0.3,0,0.6,0.1,0.9
				c0.1,0.2,0.2,0.4,0.4,0.6c0.2,0.2,0.3,0.3,0.5,0.4c0.2,0.1,0.4,0.1,0.7,0.1c0.2,0,0.4,0,0.6-0.1
				C802.5,367,802.7,366.9,802.8,366.8z"/>
			<path class="st11" d="M822.6,366.9c0.1-0.1,0.2-0.2,0.3-0.4c0.1-0.1,0.1-0.3,0.1-0.5s0-0.4-0.1-0.5s-0.2-0.2-0.3-0.3
				s-0.3-0.2-0.4-0.2c-0.1-0.1-0.3-0.1-0.4-0.2c-0.1-0.1-0.2-0.1-0.3-0.2c-0.1-0.1-0.1-0.2-0.1-0.3s0-0.2,0.1-0.3s0.2-0.1,0.4-0.1
				s0.4,0,0.5,0.1c0.2,0,0.3,0.1,0.4,0.1l0.2-0.6c-0.1-0.1-0.3-0.1-0.5-0.2c-0.2,0-0.4-0.1-0.6-0.1c-0.2,0-0.4,0-0.5,0.1
				c-0.2,0-0.3,0.1-0.4,0.2c-0.1,0.1-0.2,0.2-0.3,0.3s-0.1,0.3-0.1,0.5s0,0.4,0.1,0.5s0.2,0.2,0.3,0.3s0.3,0.2,0.4,0.2
				c0.1,0.1,0.3,0.1,0.4,0.2c0.1,0.1,0.2,0.1,0.3,0.2c0.1,0.1,0.1,0.2,0.1,0.3c0,0.2-0.1,0.3-0.2,0.3c-0.1,0.1-0.3,0.1-0.5,0.1
				c-0.1,0-0.2,0-0.3,0s-0.2,0-0.2-0.1c-0.1,0-0.1,0-0.2-0.1c-0.1,0-0.1,0-0.2-0.1l-0.2,0.6c0.1,0,0.2,0.1,0.4,0.2
				c0.2,0,0.4,0.1,0.7,0.1c0.2,0,0.4,0,0.6-0.1C822.3,367,822.4,367,822.6,366.9z"/>
			<polygon class="st11" points="825.9,366.4 824.4,366.4 824.4,365.5 825.7,365.5 825.7,364.8 824.4,364.8 824.4,364 825.9,364 
				825.9,363.3 823.6,363.3 823.6,367.1 825.9,367.1 			"/>
			<path class="st11" d="M829.1,365.1c0.1-0.2,0.1-0.4,0.1-0.6c0-0.3,0-0.5-0.1-0.6c-0.1-0.2-0.2-0.3-0.4-0.4
				c-0.2-0.1-0.3-0.2-0.5-0.2s-0.4,0-0.6,0c-0.2,0-0.4,0-0.5,0c-0.2,0-0.3,0-0.5,0.1v3.7h0.7v-1.3c0,0,0,0,0.1,0h0.1h0.1h0.1
				c0.2,0,0.4,0,0.5-0.1c0.2,0,0.3-0.1,0.5-0.2C828.9,365.4,829,365.3,829.1,365.1z M828.4,364.8c0,0.1-0.1,0.2-0.2,0.2
				c-0.1,0-0.2,0.1-0.3,0.1s-0.2,0-0.3,0c0,0,0,0-0.1,0h-0.1h-0.1c0,0,0,0-0.1,0v-1.2c0,0,0.1,0,0.2,0c0.1,0,0.1,0,0.2,0
				c0.1,0,0.2,0,0.3,0s0.2,0.1,0.2,0.1c0.1,0,0.1,0.1,0.2,0.2c0,0.1,0.1,0.2,0.1,0.3C828.5,364.6,828.5,364.7,828.4,364.8z"/>
			<path class="st11" d="M850.1,365.2c0-0.3,0-0.6-0.1-0.8s-0.2-0.4-0.3-0.6c-0.1-0.2-0.3-0.3-0.5-0.4c-0.2-0.1-0.4-0.1-0.7-0.1
				c-0.5,0-0.9,0.2-1.2,0.5s-0.4,0.8-0.4,1.4c0,0.3,0,0.6,0.1,0.8s0.2,0.4,0.3,0.6c0.1,0.2,0.3,0.3,0.5,0.4c0.2,0.1,0.4,0.1,0.7,0.1
				c0.5,0,0.9-0.2,1.2-0.5C850,366.3,850.1,365.8,850.1,365.2z M849.1,366.2c-0.1,0.2-0.3,0.3-0.6,0.3c-0.1,0-0.3,0-0.4-0.1
				c-0.1-0.1-0.2-0.2-0.3-0.3s-0.1-0.3-0.1-0.4c0-0.2,0-0.3,0-0.5c0-0.4,0.1-0.8,0.2-1c0.1-0.2,0.3-0.3,0.6-0.3c0.2,0,0.3,0,0.4,0.1
				c0.1,0.1,0.2,0.2,0.3,0.3c0.1,0.1,0.1,0.3,0.1,0.4c0,0.2,0,0.3,0,0.5C849.3,365.6,849.2,366,849.1,366.2z"/>
			<path class="st11" d="M851.2,366.7c0.2,0.2,0.3,0.3,0.5,0.3c0.2,0.1,0.4,0.1,0.6,0.1s0.4,0,0.5-0.1c0.2,0,0.3-0.1,0.4-0.2
				l-0.2-0.6c-0.1,0-0.2,0.1-0.3,0.1c-0.1,0-0.2,0-0.4,0c-0.2,0-0.3,0-0.5-0.1c-0.1-0.1-0.2-0.2-0.3-0.3c-0.1-0.1-0.2-0.2-0.2-0.4
				s-0.1-0.3-0.1-0.5c0-0.4,0.1-0.8,0.3-1c0.2-0.2,0.4-0.3,0.7-0.3c0.2,0,0.3,0,0.4,0s0.2,0,0.3,0.1l0.1-0.6c-0.1,0-0.2-0.1-0.4-0.1
				c-0.1,0-0.3,0-0.5,0s-0.4,0-0.6,0.1s-0.4,0.2-0.5,0.3c-0.2,0.2-0.3,0.4-0.4,0.6c-0.1,0.2-0.2,0.6-0.2,0.9c0,0.4,0,0.7,0.1,0.9
				C850.9,366.3,851.1,366.5,851.2,366.7z"/>
			<polygon class="st11" points="855.4,367.1 855.4,364 856.5,364 856.5,363.3 853.5,363.3 853.5,364 854.6,364 854.6,367.1 			"/>
			<polygon class="st11" points="874.1,365.1 874,364.5 874.1,364.5 874.4,365.1 875.8,367.1 876.3,367.1 876.3,363.3 875.6,363.3 
				875.6,365.3 875.7,365.9 875.7,365.9 875.4,365.3 874,363.3 873.4,363.3 873.4,367.1 874.1,367.1 			"/>
			<path class="st11" d="M877.4,366.6c0.1,0.2,0.3,0.3,0.5,0.4c0.2,0.1,0.4,0.1,0.7,0.1c0.5,0,0.9-0.2,1.2-0.5
				c0.3-0.3,0.4-0.8,0.4-1.4c0-0.3,0-0.6-0.1-0.8s-0.2-0.4-0.3-0.6c-0.1-0.2-0.3-0.3-0.5-0.4c-0.2-0.1-0.4-0.1-0.7-0.1
				c-0.5,0-0.9,0.2-1.2,0.5c-0.3,0.3-0.4,0.8-0.4,1.4c0,0.3,0,0.6,0.1,0.8S877.3,366.4,877.4,366.6z M878,364.2
				c0.1-0.2,0.3-0.3,0.6-0.3c0.2,0,0.3,0,0.4,0.1s0.2,0.2,0.3,0.3c0.1,0.1,0.1,0.3,0.1,0.4c0,0.2,0,0.3,0,0.5c0,0.5-0.1,0.8-0.2,1
				s-0.3,0.3-0.6,0.3c-0.1,0-0.3,0-0.4-0.1s-0.2-0.2-0.3-0.3c-0.1-0.1-0.1-0.3-0.1-0.4c0-0.2,0-0.3,0-0.5
				C877.8,364.7,877.9,364.4,878,364.2z"/>
			<polygon class="st11" points="883.7,363.3 882.9,363.3 882.2,365.5 882.1,366.2 882.1,366.2 882,365.5 881.2,363.3 880.4,363.3 
				881.8,367.1 882.3,367.1 			"/>
			<path class="st11" d="M903.2,366.5c0.2-0.2,0.3-0.4,0.3-0.6c0.1-0.2,0.1-0.5,0.1-0.7c0-0.3,0-0.5-0.1-0.8
				c-0.1-0.2-0.2-0.4-0.3-0.6c-0.1-0.2-0.3-0.3-0.6-0.4c-0.2-0.1-0.5-0.1-0.9-0.1c-0.1,0-0.2,0-0.3,0c-0.1,0-0.2,0-0.3,0
				c-0.1,0-0.2,0-0.3,0c-0.1,0-0.2,0-0.3,0v3.8c0,0,0.1,0,0.2,0s0.2,0,0.3,0c0.1,0,0.2,0,0.3,0c0.1,0,0.2,0,0.2,0
				c0.4,0,0.7-0.1,0.9-0.2C902.9,366.8,903.1,366.7,903.2,366.5z M901.8,366.5C901.8,366.5,901.7,366.5,901.8,366.5
				c-0.1,0-0.2,0-0.2,0h-0.1h-0.1V364c0,0,0.1,0,0.2,0s0.2,0,0.2,0c0.2,0,0.4,0,0.5,0.1s0.2,0.2,0.3,0.3c0.1,0.1,0.1,0.3,0.2,0.4
				c0,0.1,0,0.3,0,0.4c0,0.2,0,0.3,0,0.5s-0.1,0.3-0.2,0.4c-0.1,0.1-0.2,0.2-0.3,0.3C902.2,366.4,902,366.5,901.8,366.5z"/>
			<polygon class="st11" points="906.6,366.4 905.1,366.4 905.1,365.5 906.5,365.5 906.5,364.8 905.1,364.8 905.1,364 906.6,364 
				906.6,363.3 904.4,363.3 904.4,367.1 906.6,367.1 			"/>
			<path class="st11" d="M909.5,367.1c0.2,0,0.3-0.1,0.4-0.2l-0.2-0.6c-0.1,0-0.2,0.1-0.3,0.1c-0.1,0-0.2,0-0.4,0
				c-0.2,0-0.3,0-0.5-0.1c-0.1-0.1-0.2-0.2-0.3-0.3c-0.1-0.1-0.2-0.2-0.2-0.4s-0.1-0.3-0.1-0.5c0-0.4,0.1-0.8,0.3-1
				c0.2-0.2,0.4-0.3,0.7-0.3c0.2,0,0.3,0,0.4,0s0.2,0,0.3,0.1l0.1-0.6c-0.1,0-0.2-0.1-0.4-0.1c-0.1,0-0.3,0-0.5,0s-0.4,0-0.6,0.1
				s-0.4,0.2-0.5,0.3c-0.2,0.2-0.3,0.4-0.4,0.6s-0.2,0.6-0.2,0.9c0,0.4,0,0.7,0.1,0.9s0.2,0.4,0.4,0.6c0.2,0.2,0.3,0.3,0.5,0.3
				c0.2,0.1,0.4,0.1,0.6,0.1C909.1,367.1,909.3,367.1,909.5,367.1z"/>
		</g>
		<rect x="602.3" y="401.1" class="st15" width="16.1" height="58.9"/>
		<rect x="629.1" y="417.1" class="st15" width="16.1" height="42.9"/>
		<rect x="655.9" y="427.8" class="st15" width="16.1" height="32.2"/>
		<rect x="682.7" y="411.8" class="st15" width="16.1" height="48.2"/>
		<rect x="709.5" y="438.6" class="st15" width="16.1" height="21.4"/>
		<rect x="736.3" y="411.8" class="st15" width="16.1" height="48.2"/>
		<rect x="763.1" y="425.2" class="st15" width="16.1" height="34.8"/>
		<rect x="789.9" y="411.8" class="st15" width="16.1" height="48.2"/>
		<rect x="816.7" y="441.2" class="st15" width="16.1" height="18.8"/>
		<rect x="843.5" y="422.5" class="st15" width="16.1" height="37.5"/>
		<rect x="870.3" y="433.2" class="st15" width="16.1" height="26.8"/>
		<rect x="897.1" y="401.1" class="st15" width="16.1" height="58.9"/>
	</g>
	<g class="st6">
		<rect x="-27.6" y="-192.7" class="st7" width="299.2" height="67.5"/>
		<polygon class="st9" points="272.2,-193.3 -26.4,-193.3 -26.4,-260.3 -27.6,-260.3 -27.6,-125 -26.4,-125 -26.4,-192.1 
			272.2,-192.1 		"/>
		<path class="st9" d="M264.7-192.7c0-13.7-3.3-26.7-9.3-36.4c-6.1-9.9-14.3-15.4-23-15.4s-16.9,5.5-23,15.4
			c-6,9.7-9.3,22.7-9.3,36.4c0,27.3-13.5,49.4-30,49.4c-16.6,0-30-22.2-30-49.4c0-13.7-3.3-26.7-9.3-36.4
			c-6.1-9.9-14.3-15.4-23-15.4s-16.9,5.5-23,15.4c-6,9.7-9.3,22.7-9.3,36.4c0,27.3-13.5,49.4-30,49.4s-30-22.2-30-49.4
			c0-13.7-3.3-26.7-9.3-36.4c-6.1-9.9-14.3-15.4-23-15.4c-3.3,0-6.4,0.8-9.5,2.2v2.7c3-1.7,6.1-2.6,9.5-2.6c16.6,0,30,22.2,30,49.4
			c0,13.7,3.3,26.7,9.3,36.4c6.1,9.9,14.3,15.4,23,15.4s16.9-5.5,23-15.4c6-9.7,9.3-22.7,9.3-36.4c0-27.3,13.5-49.4,30-49.4
			c16.6,0,30,22.2,30,49.4c0,13.7,3.3,26.7,9.3,36.4c6.1,9.9,14.3,15.4,23,15.4s16.9-5.5,23-15.4c6-9.7,9.3-22.7,9.3-36.4
			c0-27.3,13.5-49.4,30-49.4s30,22.2,30,49.4c0,13,2.9,25.2,8.3,34.7v-5.1C266.9-171.3,264.7-181.6,264.7-192.7z"/>
		<path class="st12" d="M260.3-143.3c-16.5,0-30-22.2-30-49.4c0-13.7-3.3-26.7-9.3-36.4c-6.1-9.9-14.3-15.4-23-15.4
			s-16.9,5.5-23,15.4c-6,9.7-9.3,22.7-9.3,36.4c0,27.3-13.5,49.4-30,49.4c-16.6,0-30-22.2-30-49.4c0-13.7-3.3-26.7-9.3-36.4
			c-6.1-9.9-14.3-15.4-23-15.4c-8.7,0-16.9,5.5-23,15.4c-6,9.7-9.3,22.7-9.3,36.4c0,27.3-13.5,49.4-30,49.4s-30-22.2-30-49.4
			c0-12.2-2.5-23.9-7.4-33.1v6.4c3.5,7.5,5.1,16.9,5.1,26.8c0,13.7,3.3,26.7,9.3,36.4c6.1,9.9,14.3,15.4,23,15.4s16.9-5.5,23-15.4
			c6-9.7,9.3-22.7,9.3-36.4c0-27.3,13.5-49.4,30-49.4s30,22.2,30,49.4c0,13.7,3.3,26.7,9.3,36.4c6.1,9.9,14.3,15.4,23,15.4
			s16.9-5.5,23-15.4c6-9.7,9.3-22.7,9.3-36.4c0-27.3,13.5-49.4,30-49.4s30,22.2,30,49.4c0,13.7,3.3,26.7,9.3,36.4
			c6.1,9.9,14.3,15.4,23,15.4c3.6,0,7.1-0.9,10.4-2.7v-2.7C267.5-144.3,264-143.3,260.3-143.3z"/>
		<g class="st10">
			<path class="st11" d="M-16.1-192.7c0,2.3-1.9,4.2-4.2,4.2s-4.2-1.9-4.2-4.2c0-2.3,1.9-4.2,4.2-4.2
				C-17.9-196.9-16.1-195-16.1-192.7z"/>
			<path class="st11" d="M-18.1-192.7c0,1.2-0.9,2.1-2.1,2.1c-1.1,0-2.1-0.9-2.1-2.1s0.9-2.1,2.1-2.1
				C-19.1-194.8-18.1-193.9-18.1-192.7z"/>
		</g>
		<g class="st10">
			<path class="st11" d="M8.9-228.5c0,2.3-1.9,4.2-4.2,4.2s-4.2-1.9-4.2-4.2s1.9-4.2,4.2-4.2C7-232.8,8.9-230.9,8.9-228.5z"/>
			<path class="st11" d="M6.8-228.5c0,1.2-0.9,2.1-2.1,2.1c-1.1,0-2.1-0.9-2.1-2.1c0-1.2,0.9-2.1,2.1-2.1
				C5.9-230.7,6.8-229.7,6.8-228.5z"/>
		</g>
		<g class="st10">
			<path class="st11" d="M133.6-228.5c0,2.3-1.9,4.2-4.2,4.2c-2.3,0-4.2-1.9-4.2-4.2s1.9-4.2,4.2-4.2
				C131.7-232.8,133.6-230.9,133.6-228.5z"/>
			<path class="st11" d="M131.5-228.5c0,1.2-0.9,2.1-2.1,2.1c-1.1,0-2.1-0.9-2.1-2.1c0-1.2,0.9-2.1,2.1-2.1
				C130.5-230.7,131.5-229.7,131.5-228.5z"/>
		</g>
		<g class="st10">
			<path class="st11" d="M258.2-228.5c0,2.3-1.9,4.2-4.2,4.2c-2.3,0-4.2-1.9-4.2-4.2s1.9-4.2,4.2-4.2
				C256.4-232.8,258.2-230.9,258.2-228.5z"/>
			<path class="st11" d="M256.1-228.5c0,1.2-0.9,2.1-2.1,2.1c-1.1,0-2.1-0.9-2.1-2.1c0-1.2,0.9-2.1,2.1-2.1
				C255.2-230.7,256.1-229.7,256.1-228.5z"/>
		</g>
		<g class="st10">
			<path class="st11" d="M108.6-192.7c0,2.3-1.9,4.2-4.2,4.2c-2.3,0-4.2-1.9-4.2-4.2c0-2.3,1.9-4.2,4.2-4.2
				C106.8-196.9,108.6-195,108.6-192.7z"/>
			<path class="st11" d="M106.5-192.7c0,1.2-0.9,2.1-2.1,2.1c-1.1,0-2.1-0.9-2.1-2.1s0.9-2.1,2.1-2.1
				C105.6-194.8,106.5-193.9,106.5-192.7z"/>
		</g>
		<g class="st10">
			<path class="st11" d="M60.8-234.9c0,2.3-1.9,4.2-4.2,4.2s-4.2-1.9-4.2-4.2s1.9-4.2,4.2-4.2C59-239.1,60.8-237.2,60.8-234.9z"/>
			<path class="st11" d="M58.8-234.9c0,1.2-0.9,2.1-2.1,2.1c-1.1,0-2.1-0.9-2.1-2.1c0-1.2,0.9-2.1,2.1-2.1
				C57.8-237,58.8-236,58.8-234.9z"/>
		</g>
		<g class="st10">
			<path class="st11" d="M60.8-146.3c0,2.3-1.9,4.2-4.2,4.2s-4.2-1.9-4.2-4.2c0-2.3,1.9-4.2,4.2-4.2C59-150.5,60.8-148.6,60.8-146.3
				z"/>
			<path class="st11" d="M58.8-146.3c0,1.2-0.9,2.1-2.1,2.1c-1.1,0-2.1-0.9-2.1-2.1s0.9-2.1,2.1-2.1
				C57.8-148.4,58.8-147.5,58.8-146.3z"/>
		</g>
		<g class="st10">
			<path class="st11" d="M25.5-161.1c0,2.3-1.9,4.2-4.2,4.2s-4.2-1.9-4.2-4.2c0-2.3,1.9-4.2,4.2-4.2
				C23.6-165.3,25.5-163.4,25.5-161.1z"/>
			<path class="st11" d="M23.4-161.1c0,1.2-0.9,2.1-2.1,2.1c-1.1,0-2.1-0.9-2.1-2.1s0.9-2.1,2.1-2.1S23.4-162.2,23.4-161.1z"/>
		</g>
		<g class="st10">
			<path class="st11" d="M150.2-161.1c0,2.3-1.9,4.2-4.2,4.2c-2.3,0-4.2-1.9-4.2-4.2c0-2.3,1.9-4.2,4.2-4.2
				C148.3-165.3,150.2-163.4,150.2-161.1z"/>
			<path class="st11" d="M148.1-161.1c0,1.2-0.9,2.1-2.1,2.1c-1.1,0-2.1-0.9-2.1-2.1s0.9-2.1,2.1-2.1S148.1-162.2,148.1-161.1z"/>
		</g>
		<g class="st10">
			<path class="st11" d="M274.8-161.1c0,2.3-1.9,4.2-4.2,4.2c-2.3,0-4.2-1.9-4.2-4.2c0-2.3,1.9-4.2,4.2-4.2
				C273-165.3,274.8-163.4,274.8-161.1z"/>
			<path class="st11" d="M272.8-161.1c0,1.2-0.9,2.1-2.1,2.1c-1.1,0-2.1-0.9-2.1-2.1s0.9-2.1,2.1-2.1
				C271.8-163.2,272.8-162.2,272.8-161.1z"/>
		</g>
		<g class="st10">
			<path class="st11" d="M187.6-146.3c0,2.3-1.9,4.2-4.2,4.2c-2.3,0-4.2-1.9-4.2-4.2c0-2.3,1.9-4.2,4.2-4.2S187.6-148.6,187.6-146.3
				z"/>
			<path class="st11" d="M185.5-146.3c0,1.2-0.9,2.1-2.1,2.1c-1.1,0-2.1-0.9-2.1-2.1s0.9-2.1,2.1-2.1S185.5-147.5,185.5-146.3z"/>
		</g>
		<g class="st10">
			<path class="st11" d="M183.4-234.9c0,2.3-1.9,4.2-4.2,4.2c-2.3,0-4.2-1.9-4.2-4.2s1.9-4.2,4.2-4.2
				C181.6-239.1,183.4-237.2,183.4-234.9z"/>
			<path class="st11" d="M181.3-234.9c0,1.2-0.9,2.1-2.1,2.1c-1.1,0-2.1-0.9-2.1-2.1c0-1.2,0.9-2.1,2.1-2.1S181.3-236,181.3-234.9z"
				/>
		</g>
		<g class="st10">
			<path class="st11" d="M233.3-192.7c0,2.3-1.9,4.2-4.2,4.2c-2.3,0-4.2-1.9-4.2-4.2c0-2.3,1.9-4.2,4.2-4.2
				C231.4-196.9,233.3-195,233.3-192.7z"/>
			<path class="st11" d="M231.2-192.7c0,1.2-0.9,2.1-2.1,2.1c-1.1,0-2.1-0.9-2.1-2.1s0.9-2.1,2.1-2.1
				C230.3-194.8,231.2-193.9,231.2-192.7z"/>
		</g>
		<path class="st9" d="M221.9-260.3h-0.2H172h-0.2h-49.6H122H72.4H72H22.4h-0.2h-49.9v34v33.5v33.7v0.2v33.7h49.9h0.2H72h0.2h49.6
			h0.2h49.6h0.2h49.6h0.2h49.9v-33.7v-0.2v-33.7v-33.5v-34H221.9L221.9-260.3z M271.5-260.1v33.5h-49.6v-33.5H271.5z M221.6-260.1
			v33.5H172v-33.5H221.6z M121.9-192.8H72.3v-33.5h49.6V-192.8z M122.1-226.3h49.6v33.5h-49.6V-226.3z M72-192.8H22.4v-33.5H72
			V-192.8z M72-192.6v33.5H22.4v-33.5H72z M72.3-192.6h49.6v33.5H72.3L72.3-192.6L72.3-192.6z M122.1-192.6h49.6v33.5h-49.6V-192.6z
			 M172-192.6h49.6v33.5H172V-192.6z M172-192.8v-33.5h49.6v33.5H172z M171.8-260.1v33.5h-49.6v-33.5H171.8z M121.9-260.1v33.5H72.3
			v-33.5H121.9z M72-260.1v33.5H22.4v-33.5H72z M-27.5-260.1h49.6v33.5h-49.6V-260.1z M-27.5-226.3h49.6v33.5h-49.6V-226.3z
			 M-27.5-192.6h49.6v33.5h-49.6V-192.6z M-27.5-125.3v-33.5h49.6v33.5H-27.5z M22.4-125.3v-33.5H72v33.5H22.4z M72.3-125.3v-33.5
			h49.6v33.5H72.3z M122.1-125.3v-33.5h49.6v33.5H122.1z M172-125.3v-33.5h49.6v33.5H172z M271.5-125.3h-49.6v-33.5h49.6V-125.3z
			 M221.9-159.1v-33.5h49.6v33.5H221.9z M271.5-192.8h-49.6v-33.5h49.6V-192.8z"/>
	</g>
</g>
<g id="diagrams">
	<g>
		<path class="st11" d="M108.7,193c-2.4,0-4.4,2-4.4,4.4s2,4.4,4.4,4.4s4.4-2,4.4-4.4S111.2,193,108.7,193z"/>
		<path class="st11" d="M144.2,193c-2.4,0-4.4,2-4.4,4.4s2,4.4,4.4,4.4s4.4-2,4.4-4.4S146.6,193,144.2,193z"/>
		<path class="st11" d="M126.4,35.5c-4.9,0-8.9,4-8.9,8.9c0,4.6,3.4,8.3,7.9,8.8v140c-2,0.4-3.4,2.2-3.4,4.3c0,2.4,2,4.4,4.4,4.4
			s4.4-2,4.4-4.4c0-2.1-1.5-3.9-3.4-4.3v-140c4.4-0.5,7.9-4.2,7.9-8.8C135.3,39.4,131.3,35.5,126.4,35.5z"/>
	</g>
	<g>
		<path class="st11" d="M383.6,192c-2.4,0-4.4,2-4.4,4.4s2,4.4,4.4,4.4s4.4-2,4.4-4.4S386,192,383.6,192z"/>
		<path class="st11" d="M419,192c-2.4,0-4.4,2-4.4,4.4s2,4.4,4.4,4.4s4.4-2,4.4-4.4C423.5,194,421.5,192,419,192z"/>
		<path class="st11" d="M401.3,34.5c-4.9,0-8.9,4-8.9,8.9c0,4.6,3.4,8.3,7.9,8.8v140c-2,0.4-3.4,2.2-3.4,4.3c0,2.4,2,4.4,4.4,4.4
			s4.4-2,4.4-4.4c0-2.1-1.5-3.9-3.4-4.3v-140c4.4-0.5,7.9-4.2,7.9-8.8C410.2,38.4,406.2,34.5,401.3,34.5z"/>
	</g>
	<g>
		<path class="st11" d="M650.7,192c-2.4,0-4.4,2-4.4,4.4s2,4.4,4.4,4.4s4.4-2,4.4-4.4C655.1,194,653.2,192,650.7,192z"/>
		<path class="st11" d="M686.2,192c-2.4,0-4.4,2-4.4,4.4s2,4.4,4.4,4.4s4.4-2,4.4-4.4C690.6,194,688.6,192,686.2,192z"/>
		<path class="st11" d="M668.4,34.5c-4.9,0-8.9,4-8.9,8.9c0,4.6,3.4,8.3,7.9,8.8v140c-2,0.4-3.4,2.2-3.4,4.3c0,2.4,2,4.4,4.4,4.4
			s4.4-2,4.4-4.4c0-2.1-1.5-3.9-3.4-4.3v-140c4.4-0.5,7.9-4.2,7.9-8.8C677.3,38.4,673.3,34.5,668.4,34.5z"/>
	</g>
	<g>
		<path class="st11" d="M986.7,192c-2.4,0-4.4,2-4.4,4.4s2,4.4,4.4,4.4s4.4-2,4.4-4.4S989.1,192,986.7,192z"/>
		<path class="st11" d="M1022.1,192c-2.4,0-4.4,2-4.4,4.4s2,4.4,4.4,4.4s4.4-2,4.4-4.4C1026.6,194,1024.6,192,1022.1,192z"/>
		<path class="st11" d="M1004.4,34.5c-4.9,0-8.9,4-8.9,8.9c0,4.6,3.4,8.3,7.9,8.8v140c-2,0.4-3.4,2.2-3.4,4.3c0,2.4,2,4.4,4.4,4.4
			s4.4-2,4.4-4.4c0-2.1-1.5-3.9-3.4-4.3v-140c4.4-0.5,7.9-4.2,7.9-8.8C1013.3,38.4,1009.3,34.5,1004.4,34.5z"/>
	</g>
	<g>
		<path class="st11" d="M282.1,355.2c2.4,0,4.4-2,4.4-4.4s-2-4.4-4.4-4.4s-4.4,2-4.4,4.4S279.7,355.2,282.1,355.2z"/>
		<path class="st11" d="M246.7,355.2c2.4,0,4.4-2,4.4-4.4s-2-4.4-4.4-4.4s-4.4,2-4.4,4.4C242.2,353.2,244.2,355.2,246.7,355.2z"/>
		<path class="st11" d="M264.4,512.8c4.9,0,8.9-4,8.9-8.9c0-4.6-3.4-8.3-7.9-8.8v-140c2-0.4,3.4-2.2,3.4-4.3c0-2.4-2-4.4-4.4-4.4
			s-4.4,2-4.4,4.4c0,2.1,1.5,3.9,3.4,4.3v140c-4.4,0.5-7.9,4.2-7.9,8.8C255.5,508.8,259.5,512.8,264.4,512.8z"/>
	</g>
	<g>
		<path class="st11" d="M418.5,355.2c2.4,0,4.4-2,4.4-4.4s-2-4.4-4.4-4.4s-4.4,2-4.4,4.4S416,355.2,418.5,355.2z"/>
		<path class="st11" d="M383,355.2c2.4,0,4.4-2,4.4-4.4s-2-4.4-4.4-4.4s-4.4,2-4.4,4.4S380.6,355.2,383,355.2z"/>
		<path class="st11" d="M400.8,512.8c4.9,0,8.9-4,8.9-8.9c0-4.6-3.4-8.3-7.9-8.8v-140c2-0.4,3.4-2.2,3.4-4.3c0-2.4-2-4.4-4.4-4.4
			s-4.4,2-4.4,4.4c0,2.1,1.5,3.9,3.4,4.3v140c-4.4,0.5-7.9,4.2-7.9,8.8C391.9,508.8,395.9,512.8,400.8,512.8z"/>
	</g>
	<g>
		<path class="st11" d="M1191.6,355.2c2.4,0,4.4-2,4.4-4.4s-2-4.4-4.4-4.4s-4.4,2-4.4,4.4S1189.2,355.2,1191.6,355.2z"/>
		<path class="st11" d="M1156.1,355.2c2.4,0,4.4-2,4.4-4.4s-2-4.4-4.4-4.4s-4.4,2-4.4,4.4S1153.7,355.2,1156.1,355.2z"/>
		<path class="st11" d="M1173.9,512.8c4.9,0,8.9-4,8.9-8.9c0-4.6-3.4-8.3-7.9-8.8v-140c2-0.4,3.4-2.2,3.4-4.3c0-2.4-2-4.4-4.4-4.4
			s-4.4,2-4.4,4.4c0,2.1,1.5,3.9,3.4,4.3v140c-4.4,0.5-7.9,4.2-7.9,8.8C1165,508.8,1169,512.8,1173.9,512.8z"/>
	</g>
</g>
<g id="Layer_1_1_">
</g>
<g id="Isolation_Mode">
</g>
<g id="Layer_7">
	<g>
		<g>
			<line class="st16" x1="33" y1="260" x2="76.8" y2="260"/>
			<g>
				<polygon class="st17" points="70.9,265.1 76,260 70.9,255 75.2,255 80.3,260 75.2,265.1 				"/>
			</g>
		</g>
	</g>
	<g>
		<g>
			<line class="st16" x1="172" y1="260" x2="215.8" y2="260"/>
			<g>
				<polygon class="st17" points="209.9,265.1 215,260 209.9,255 214.2,255 219.3,260 214.2,265.1 				"/>
			</g>
		</g>
	</g>
	<g>
		<g>
			<line class="st16" x1="310.3" y1="260" x2="354.2" y2="260"/>
			<g>
				<polygon class="st17" points="348.2,265.1 353.3,260 348.2,255 352.5,255 357.6,260 352.5,265.1 				"/>
			</g>
		</g>
	</g>
	<g>
		<g>
			<line class="st16" x1="1083.5" y1="260" x2="1127.3" y2="260"/>
			<g>
				<polygon class="st17" points="1121.3,265.1 1126.4,260 1121.3,255 1125.7,255 1130.8,260 1125.7,265.1 				"/>
			</g>
		</g>
	</g>
	<g>
		<g>
			<line class="st16" x1="446.3" y1="260" x2="584.2" y2="260"/>
			<g>
				<polygon class="st17" points="578.2,265.1 583.3,260 578.2,255 582.5,255 587.6,260 582.5,265.1 				"/>
			</g>
		</g>
	</g>
	<g>
		<g>
			<line class="st16" x1="749.4" y1="260" x2="923.9" y2="260"/>
			<g>
				<polygon class="st17" points="918,265.1 923.1,260 918,255 922.3,255 927.4,260 922.3,265.1 				"/>
			</g>
		</g>
	</g>
	<rect x="68.1" y="244.6" class="st18" width="117" height="90"/>
	<text transform="matrix(1 0 0 1 113.0646 274.978)" class="st17 st19 st20">8</text>
	<rect x="68.1" y="313.6" class="st18" width="117" height="90"/>
	<text transform="matrix(1 0 0 1 77.5075 326.1703)" class="st17 st19 st21">FEBRUARY</text>
	<rect x="144.2" y="65.6" class="st18" width="179.5" height="90"/>
	<text transform="matrix(1 0 0 1 144.1619 78.1703)" class="st17 st19 st21">Open call  </text>
	<text transform="matrix(1 0 0 1 144.1619 98.5703)" class="st17 st19 st21">for startup  </text>
	<text transform="matrix(1 0 0 1 144.1619 118.9703)" class="st17 st19 st21">applications</text>
	<rect x="419" y="54.3" class="st18" width="234.1" height="137.3"/>
	<text transform="matrix(1 0 0 1 419.0323 66.8727)" class="st17 st19 st21">Startups notified about </text>
	<text transform="matrix(1 0 0 1 419.0323 87.2727)" class="st17 st19 st21">bootcamp shortlist</text>
	<text transform="matrix(1 0 0 1 419.0323 107.6727)" class="st17 st22 st21">Startups notified that they  </text>
	<text transform="matrix(1 0 0 1 419.0323 128.0727)" class="st17 st22 st21">have been successfully  </text>
	<text transform="matrix(1 0 0 1 419.0323 148.4727)" class="st17 st22 st21">selected onto the OpenActive </text>
	<text transform="matrix(1 0 0 1 419.0323 168.8727)" class="st17 st22 st21">Accelerator Programme</text>
	<rect x="1022.1" y="54.3" class="st18" width="234.1" height="137.3"/>
	<text transform="matrix(1 0 0 1 1022.1189 66.8727)" class="st17 st19 st21">OpenActive Accelerator </text>
	<text transform="matrix(1 0 0 1 1022.1189 87.2727)" class="st17 st19 st21">programme commences</text>
	<text transform="matrix(1 0 0 1 1022.1189 107.6727)" class="st17 st22 st21">Startups receive mentoring,  </text>
	<text transform="matrix(1 0 0 1 1022.1189 128.0727)" class="st17 st22 st21">Q&amp;A sessions, workshops  </text>
	<text transform="matrix(1 0 0 1 1022.1189 148.4727)" class="st17 st22 st21">and expert talks</text>
	<rect x="696.7" y="54.3" class="st18" width="234.1" height="137.3"/>
	<text transform="matrix(1 0 0 1 696.7415 66.8727)" class="st17 st19 st21">Startup bootcamp</text>
	<text transform="matrix(1 0 0 1 696.7415 87.2727)" class="st17 st22 st21">Startups pitch to an expert  </text>
	<text transform="matrix(1 0 0 1 696.7415 107.6727)" class="st17 st22 st21">panel following a 4 day  </text>
	<text transform="matrix(1 0 0 1 696.7415 128.0727)" class="st17 st22 st21">bootcamp to determine which </text>
	<text transform="matrix(1 0 0 1 696.7415 148.4727)" class="st17 st22 st21">startups join the OpenActive </text>
	<text transform="matrix(1 0 0 1 696.7415 168.8727)" class="st17 st22 st21">Accelerator Programme</text>
	<rect x="1197.7" y="368.3" class="st18" width="234.1" height="137.3"/>
	<text transform="matrix(1 0 0 1 1197.7415 380.8727)" class="st17 st19 st21">Beginning of  </text>
	<text transform="matrix(1 0 0 1 1197.7415 401.2727)" class="st17 st19 st21">November  Startup </text>
	<text transform="matrix(1 0 0 1 1197.7415 421.6727)" class="st17 st19 st21">Demo Day at 2018  </text>
	<text transform="matrix(1 0 0 1 1197.7415 442.0727)" class="st17 st19 st21">ODI Summit</text>
	<text transform="matrix(1 0 0 1 1197.7415 462.4727)" class="st17 st22 st21">Startups pitch to an  </text>
	<text transform="matrix(1 0 0 1 1197.7415 482.8727)" class="st17 st22 st21">expert panel of judges</text>
	<rect x="1143.4" y="307.3" class="st18" width="234.1" height="137.3"/>
	<text transform="matrix(1 0 0 1 1143.4081 319.8727)" class="st17 st19 st21">Beginning of November </text>
	<rect x="416.2" y="368.3" class="st18" width="234.1" height="137.3"/>
	<text transform="matrix(1 0 0 1 416.1907 380.8727)" class="st17 st19 st21">Startup cohort selected</text>
	<text transform="matrix(1 0 0 1 416.1907 401.2727)" class="st17 st22 st21">Startups notified of successful </text>
	<text transform="matrix(1 0 0 1 416.1907 421.6727)" class="st17 st22 st21">selection onto the OpenActive </text>
	<text transform="matrix(1 0 0 1 416.1907 442.0727)" class="st17 st22 st21">Accelerator Programme</text>
	<rect x="279.7" y="378.6" class="st18" width="179.5" height="90"/>
	<text transform="matrix(1 0 0 1 279.7345 391.1703)" class="st17 st19 st21">Startup  </text>
	<text transform="matrix(1 0 0 1 279.7345 411.5703)" class="st17 st19 st21">applications  </text>
	<text transform="matrix(1 0 0 1 279.7345 431.9703)" class="st17 st19 st21">close</text>
	<rect x="206.6" y="244.6" class="st18" width="117" height="90"/>
	<text transform="matrix(1 0 0 1 249.0586 274.978)" class="st17 st19 st20">11</text>
	<rect x="206.6" y="313.6" class="st18" width="117" height="90"/>
	<text transform="matrix(1 0 0 1 231.1562 326.1703)" class="st17 st19 st21">MARCH</text>
	<rect x="342.7" y="243.6" class="st18" width="117" height="90"/>
	<text transform="matrix(1 0 0 1 389.074 273.978)" class="st17 st19 st20">3</text>
	<rect x="342.7" y="312.6" class="st18" width="117" height="90"/>
	<text transform="matrix(1 0 0 1 374.3079 325.1703)" class="st17 st19 st21">APRIL</text>
	<rect x="1115.2" y="251.6" class="st18" width="117" height="90"/>
	<text transform="matrix(1 0 0 1 1146.1506 268.6215)" class="st17 st19 st23">NOV</text>
	<rect x="607.2" y="244.6" class="st18" width="133.3" height="87.2"/>
	<text transform="matrix(1 0 0 1 620.6171 274.978)" class="st17 st19 st20">19-22</text>
	<rect x="615.4" y="313.6" class="st18" width="117" height="90"/>
	<text transform="matrix(1 0 0 1 639.884 326.1703)" class="st17 st19 st21">MARCH</text>
	<rect x="942.8" y="244.6" class="st18" width="133.3" height="87.2"/>
	<text transform="matrix(1 0 0 1 961.7305 274.978)" class="st17 st19 st20">1 - 31</text>
	<rect x="922.1" y="313.6" class="st18" width="93.2" height="90"/>
	<text transform="matrix(1 0 0 1 948.3188 326.1703)" class="st17 st19 st21">MAY</text>
	<rect x="1004.9" y="313.6" class="st18" width="93.2" height="90"/>
	<text transform="matrix(1 0 0 1 1007.2571 326.1703)" class="st17 st19 st21">OCTOBER</text>
</g>
</svg>
