<svg xmlns="http://www.w3.org/2000/svg" xmlns:xlink="http://www.w3.org/1999/xlink" viewBox="0 0 250 250"><defs><style>.cls-1,.cls-2{fill:#fff;stroke:#fff;stroke-miterlimit:10;}.cls-1{stroke-width:14.7px;}.cls-2{stroke-width:14.03px;}.cls-3{fill:none;stroke-linecap:round;stroke-linejoin:round;stroke-width:7.85px;stroke:url(#linear-gradient);}.cls-4{fill:url(#New_Gradient_Swatch_3);}</style><linearGradient id="linear-gradient" x1="-664.45" y1="105.48" x2="-792.9" y2="233.93" gradientTransform="matrix(-1, 0, 0, 1, -613.66, 0)" gradientUnits="userSpaceOnUse"><stop offset="0" stop-color="#1f9ad7"/><stop offset="0.48" stop-color="#1867af"/><stop offset="1" stop-color="#434092"/></linearGradient><linearGradient id="New_Gradient_Swatch_3" x1="116.63" y1="899.19" x2="148.9" y2="866.92" gradientTransform="matrix(1, 0, 0, -1, -12.62, 921.21)" gradientUnits="userSpaceOnUse"><stop offset="0" stop-color="#feec31"/><stop offset="0.37" stop-color="#f08f33"/><stop offset="1" stop-color="#e2322e"/></linearGradient></defs><title>acessibility</title><g id="white"><circle class="cls-1" cx="120.15" cy="38.15" r="22.82"/><path class="cls-2" d="M46.59,233.14A16,16,0,0,1,38.81,212s21.6-49.47,23.56-54l.12-.28c2-4.58,3.86-8.9,10.59-10l.27,0,36.37-3.84.8-35.24-39.2,15.78A14.61,14.61,0,0,1,58.49,98.13l67.58-33.19.32-.14a19.06,19.06,0,0,1,18.23,1.79c5.45,3.7,9,10,9,16.17,0,.09,0,1.67,0,4.31-.39,43.94-.59,68.62-.59,73.35,0,10.71-9.3,20.1-19.86,20.1l-42.05.44L67.73,225.59l-.08.14c-3.27,5.75-8.65,8.95-14.32,8.95A15.93,15.93,0,0,1,46.59,233.14ZM162,126.52a4.46,4.46,0,0,1,5.21-3.54A56.07,56.07,0,1,1,103,194.53a4.45,4.45,0,0,1,8.51-2.62"/><path class="cls-3" d="M63.78,223.52c-3.36,5.91-9.55,8.27-15.32,5.58a11.53,11.53,0,0,1-5.58-15.32s21.6-49.47,23.56-54,2.93-6.95,7.36-7.7l40.26-4.25,1-45.92L69.5,120.3a10.15,10.15,0,1,1-9.05-18.18L128,68.94c11.9-4.72,21.11,5.5,21.11,13.79,0,.62-.62,69.3-.62,77.69s-7.29,15.64-15.45,15.64l-44.72.47Zm43.46-30.3a51.62,51.62,0,1,0,59.12-65.87"/><circle class="cls-4" cx="120.15" cy="38.15" r="22.82"/></g></svg>