<?xml version="1.0" encoding="utf-8"?>
<!-- Generator: Adobe Illustrator 22.0.1, SVG Export Plug-In . SVG Version: 6.00 Build 0)  -->
<svg version="1.1" id="Layer_1" xmlns="http://www.w3.org/2000/svg" xmlns:xlink="http://www.w3.org/1999/xlink" x="0px" y="0px"
	 viewBox="0 0 250 250" style="enable-background:new 0 0 250 250;" xml:space="preserve">
<style type="text/css">
	.st0{fill:#FFFFFF;stroke:#FFFFFF;stroke-width:16;stroke-miterlimit:10;}
	.st1{fill:#FFFFFF;stroke:#FFFFFF;stroke-width:12;stroke-miterlimit:10;}
	.st2{fill:url(#SVGID_1_);}
	.st3{fill:url(#SVGID_2_);}
	.st4{fill:url(#SVGID_3_);}
	.st5{fill:none;stroke:url(#SVGID_4_);stroke-width:8;stroke-linecap:round;stroke-linejoin:round;stroke-miterlimit:10;}
</style>
<g id="White">
	<g>
		<circle class="st0" cx="115.9" cy="62.1" r="13.7"/>
	</g>
	<g>
		<circle class="st0" cx="47.7" cy="103.3" r="11.9"/>
	</g>
	<path class="st0" d="M121.8,192.4c-2.3,0-4.5-0.9-6-2.5c-1.6,1.6-3.7,2.5-6,2.5c-4.7,0-8.6-3.8-8.6-8.6v-2.3v-33.3H90.4
		c-0.8,0-1.5-0.4-2-1c-0.5-0.6-0.6-1.4-0.4-2.2l4.3-15.5c-1.1,0.1-2.1,0.1-3.2-0.3c-2.1-0.6-3.8-1.9-4.9-3.8
		c-1.1-1.9-1.3-4.1-0.8-6.2l9-29.7c0.8-2.7,4.1-11.5,14.2-11.5h9.2l0,0h9.2c10.1,0,13.4,8.8,14.2,11.5l8.9,29.7
		c0.6,2.1,0.3,4.3-0.8,6.2s-2.8,3.3-4.9,3.8c-1.1,0.3-2.1,0.4-3.2,0.3l4.3,15.5c0.2,0.8,0.1,1.6-0.4,2.2c-0.5,0.6-1.2,1-2,1h-10.8
		v33.3v2.3C130.3,188.6,126.5,192.4,121.8,192.4z"/>
	<path class="st0" d="M54.6,192.4c-2.8,0-5.3-1.2-7-3.1c-1.8,1.9-4.3,3.1-7,3.1c-5.2,0-9.5-4.3-9.5-9.5v-45.2l-6.5,3.8
		c-1.8,1.1-3.9,1.3-5.9,0.8c-2-0.6-3.7-1.8-4.7-3.6c-2.1-3.7-0.9-8.5,2.8-10.6l12.8-8.2c2.6-1.7,5.7-2.6,8.9-2.6l0,0
		c2.6,0,15.9,0,18.6,0l0,0c3.1,0,6.2,0.9,8.8,2.6l12.8,8.2c1.8,1.1,3,2.7,3.6,4.7c0.6,2,0.3,4.2-0.8,5.9c-1.1,1.8-2.7,3.1-4.7,3.6
		s-4.2,0.3-5.9-0.8l-6.5-3.8V183C64,188.2,59.8,192.4,54.6,192.4z M45.1,183L45.1,183L45.1,183z M60.4,135.6L60.4,135.6L60.4,135.6z
		 M34.6,135.6L34.6,135.6L34.6,135.6z"/>
	<ellipse class="st1" cx="181.3" cy="61.5" rx="13.7" ry="13.7"/>
	<path class="st1" d="M219.3,193.5c-6.7,0-12.3-5.5-12.3-12.3l-0.1-51.3l-13.6-21.4l-8.2,10.9c-0.7,0.9-1.8,1.5-3,1.5h-23.8
		c-5.8,0-10.5-4.7-10.5-10.5s4.7-10.5,10.5-10.5h15l13.9-21.3c2.4-3.7,5.3-7.4,12-7.4c6.6,0,9.8,4.5,11,6.2c0,0.1,0.1,0.1,0.1,0.1
		l16.5,25l0.1,0.1c0.1,0.3,0.3,0.4,0.4,0.7c1.8,2.8,4.2,6.7,4.2,13.3c0,4.6,0.1,64,0.1,64.6C231.6,188,226.1,193.5,219.3,193.5z
		 M159.3,193.5c-2.1,0-3.8-1.7-3.8-3.8v-62.5c0-2.1,1.7-3.8,3.8-3.8c2.1,0,3.8,1.7,3.8,3.8v62.5
		C163.1,191.8,161.4,193.5,159.3,193.5z"/>
</g>
<g id="Orange">
	<g>
		
			<linearGradient id="SVGID_1_" gradientUnits="userSpaceOnUse" x1="106.1783" y1="569.1622" x2="125.5241" y2="588.5079" gradientTransform="matrix(1 0 0 1 0 -516.7244)">
			<stop  offset="0" style="stop-color:#FFEE25"/>
			<stop  offset="0.3707" style="stop-color:#F08F34"/>
			<stop  offset="1" style="stop-color:#E2312D"/>
		</linearGradient>
		<circle class="st2" cx="115.9" cy="62.1" r="13.7"/>
	</g>
	<g>
		
			<linearGradient id="SVGID_2_" gradientUnits="userSpaceOnUse" x1="39.2463" y1="611.6031" x2="56.146" y2="628.5028" gradientTransform="matrix(1 0 0 1 0 -516.7244)">
			<stop  offset="0" style="stop-color:#FFEE25"/>
			<stop  offset="0.3707" style="stop-color:#F08F34"/>
			<stop  offset="1" style="stop-color:#E2312D"/>
		</linearGradient>
		<circle class="st3" cx="47.7" cy="103.3" r="11.9"/>
	</g>
	
		<linearGradient id="SVGID_3_" gradientUnits="userSpaceOnUse" x1="351.7289" y1="-161.4045" x2="370.2765" y2="-179.952" gradientTransform="matrix(0 1 -1 0 10.584 -299.5198)">
		<stop  offset="0" style="stop-color:#FFEE25"/>
		<stop  offset="0.3707" style="stop-color:#F08F34"/>
		<stop  offset="1" style="stop-color:#E2312D"/>
	</linearGradient>
	<circle class="st4" cx="181.3" cy="61.5" r="13.1"/>
</g>
<g id="Blue_1_">
	
		<linearGradient id="SVGID_4_" gradientUnits="userSpaceOnUse" x1="65.1032" y1="593.9664" x2="203.0873" y2="731.9506" gradientTransform="matrix(1 0 0 1 0 -516.7244)">
		<stop  offset="0" style="stop-color:#00ADE6"/>
		<stop  offset="5.543736e-02" style="stop-color:#00A3DE"/>
		<stop  offset="0.25" style="stop-color:#0083C5"/>
		<stop  offset="0.3579" style="stop-color:#0077BC"/>
		<stop  offset="0.7261" style="stop-color:#353579"/>
		<stop  offset="0.9658" style="stop-color:#1D1A55"/>
	</linearGradient>
	<path class="st5" d="M96.7,123.1c-0.8,3-4,4.7-6.9,3.9c-3-0.8-4.7-4-3.9-6.9l8.9-29.7c1-3.5,4.1-9.7,11.7-9.7h9.2 M96.4,124
		l6.2-22.6l-12.3,44.4h13.2v35.8v2.3c0,3.3,2.7,6,6,6c3.3,0,6-2.7,6-6v-41.4 M134.7,123.1c0.8,3,4,4.7,6.9,3.9c3-0.8,4.7-4,3.9-6.9
		l-8.9-29.7c-1-3.5-4.1-9.7-11.7-9.7h-9.2 M115.7,183.9c0,3.3,2.7,6,6,6c3.3,0,6-2.7,6-6v-2.3v-35.8H141l-12.3-44.4l6.2,22.6
		 M47.5,162.4c0,7.7,0,20.6,0,20.6c0,3.8-3.1,7-7,7s-7-3.1-7-7v-20.6v-28.7c0-0.1-0.1-0.1-0.1-0.1l-10.1,5.9
		c-2.5,1.4-5.8,0.6-7.2-1.9c-1.4-2.5-0.6-5.8,1.9-7.2l12.8-8.2c2.3-1.4,4.8-2.2,7.5-2.2s15.9,0,18.6,0s5.2,0.8,7.5,2.2l12.8,8.2
		c2.5,1.4,3.4,4.7,1.9,7.2c-1.4,2.5-4.7,3.4-7.2,1.9l-10.1-5.9c-0.1-0.1-0.1,0-0.1,0.1v28.7V183c0,3.8-3.1,7-7,7s-7-3.1-7-7
		C47.6,183,47.5,170,47.5,162.4 M210.8,128.9l-17.1-27l-11.5,15.3h-23.8c-3.7,0-6.7-3-6.7-6.7s3-6.7,6.7-6.7h17.1l15-23
		c2.3-3.6,4.3-5.7,8.8-5.7c4.5,0,6.7,2.9,7.9,4.6l16.5,25c1.8,2.8,4.1,5.9,4.1,12c0,4.6,0.1,64.6,0.1,64.6c0,4.7-3.8,8.5-8.5,8.5
		c-4.7,0-8.5-3.8-8.5-8.5L210.8,128.9z M159.3,127.3v62.5"/>
</g>
</svg>
