<?xml version="1.0" encoding="utf-8"?>
<!-- Generator: Adobe Illustrator 22.1.0, SVG Export Plug-In . SVG Version: 6.00 Build 0)  -->
<svg version="1.1" xmlns="http://www.w3.org/2000/svg" xmlns:xlink="http://www.w3.org/1999/xlink" x="0px" y="0px"
	 viewBox="0 0 250 250" style="enable-background:new 0 0 250 250;" xml:space="preserve">
<style type="text/css">
	.st0{fill:#FFFFFF;stroke:#FFFFFF;stroke-width:15;stroke-miterlimit:10;}
	.st1{fill:url(#SVGID_1_);}
	.st2{fill:url(#SVGID_2_);}
</style>
<g id="White">
	<path class="st0" d="M13,140.6L13,140.6l83.8-68c1.2-1.2,2.8-1,4.2-0.1c0.2,0.1,1,0.6,1.5,0.9l42.9,26.7c1.5,0.9,3,1.6,4.3,0.6
		c0.1-0.1,0.2-0.1,0.2-0.2l53.4-47.6l-31.9-10.3c-0.7-0.2-1-0.9-0.8-1.6c0.1-0.4,0.4-0.7,0.8-0.8L237.8,25c0.6-0.1,1.2,0.2,1.4,0.8
		c0,0.2,0,0.4,0,0.6L221,90.1c-0.2,0.7-0.9,1-1.6,0.8c-0.4-0.1-0.7-0.4-0.8-0.8l-9.2-28.4l0.9-0.3c3.8-1.2,7.8,0.8,9.1,4.6
		c0,0,0,0,0,0l0,0l8.2-28.5c0.2-0.6-0.2-1.2-0.8-1.4c-0.2-0.1-0.4-0.1-0.6,0l-23.7,5.4c-0.7,0.2-1,0.9-0.8,1.6
		c0.1,0.4,0.4,0.7,0.8,0.8l10.5,3.4c2,0.7,3,3,2.3,5c-0.2,0.6-0.6,1.2-1.1,1.6L150.6,112c-1.2,1.2-3,1-4.5,0.1
		c-0.7-0.5-1.9-1.2-2-1.3l-43.1-28c-1.8-1.4-3-1.6-4.3-0.6c-0.1,0.1-0.2,0.2-0.3,0.3l-71.2,59.2C22,144.8,16.2,143.8,13,140.6z"/>
	<path class="st0" d="M61.1,148.5h15.1c1.8,0,3.3,1.5,3.3,3.3v85.2c0,1.8-1.5,3.3-3.3,3.3H61.1c-1.8,0-3.3-1.5-3.3-3.3v-85.2
		C57.8,150,59.2,148.5,61.1,148.5z M26.3,167.9v69.1c0,1.8,1.5,3.3,3.3,3.3h15.1c1.8,0,3.3-1.5,3.3-3.3v-69.1c0-1.8-1.5-3.3-3.3-3.3
		H29.6C27.8,164.7,26.3,166.1,26.3,167.9z M89.9,133.6v103.5c0,1.8,1.5,3.3,3.3,3.3h15.1c1.8,0,3.3-1.5,3.3-3.3V133.6
		c0-1.8-1.5-3.3-3.3-3.3H93.1C91.3,130.3,89.9,131.8,89.9,133.6z M122.6,148.8v88.3c0,1.8,1.5,3.3,3.3,3.3H141
		c1.8,0,3.3-1.5,3.3-3.3v-88.3c0-1.8-1.5-3.3-3.3-3.3h-15.1C124.1,145.5,122.6,147,122.6,148.8z M154.1,122.3v114.7
		c0,1.8,1.5,3.3,3.3,3.3h15.1c1.8,0,3.3-1.5,3.3-3.3V122.3c0-1.8-1.5-3.3-3.3-3.3h-15.1C155.5,119,154.1,120.5,154.1,122.3z"/>
</g>
<g id="orange">
	<g id="Orange">
	</g>
	<linearGradient id="SVGID_1_" gradientUnits="userSpaceOnUse" x1="98.3081" y1="55.3062" x2="177.119" y2="134.117">
		<stop  offset="0" style="stop-color:#FFEE25"/>
		<stop  offset="0.3707" style="stop-color:#F08F34"/>
		<stop  offset="1" style="stop-color:#E2312D"/>
	</linearGradient>
	<path class="st1" d="M13,140.6L13,140.6l83.8-68c1.2-1.2,2.8-1,4.2-0.1c0.2,0.1,1,0.6,1.5,0.9l42.9,26.7c1.5,0.9,3,1.6,4.3,0.6
		c0.1-0.1,0.2-0.1,0.2-0.2l53.4-47.6l-31.9-10.3c-0.7-0.2-1-0.9-0.8-1.6c0.1-0.4,0.4-0.7,0.8-0.8L237.8,25c0.6-0.1,1.2,0.2,1.4,0.8
		c0,0.2,0,0.4,0,0.6L221,90.1c-0.2,0.7-0.9,1-1.6,0.8c-0.4-0.1-0.7-0.4-0.8-0.8l-9.2-28.4l0.9-0.3c3.8-1.2,7.8,0.8,9.1,4.6
		c0,0,0,0,0,0l0,0l8.2-28.5c0.2-0.6-0.2-1.2-0.8-1.4c-0.2-0.1-0.4-0.1-0.6,0l-23.7,5.4c-0.7,0.2-1,0.9-0.8,1.6
		c0.1,0.4,0.4,0.7,0.8,0.8l10.5,3.4c2,0.7,3,3,2.3,5c-0.2,0.6-0.6,1.2-1.1,1.6L150.6,112c-1.2,1.2-3,1-4.5,0.1
		c-0.7-0.5-1.9-1.2-2-1.3l-43.1-28c-1.8-1.4-3-1.6-4.3-0.6c-0.1,0.1-0.2,0.2-0.3,0.3l-71.2,59.2C22,144.8,16.2,143.8,13,140.6z"/>
</g>
<g id="Blue_1_">
	<linearGradient id="SVGID_2_" gradientUnits="userSpaceOnUse" x1="57.1079" y1="135.79" x2="167.7121" y2="246.3942">
		<stop  offset="0" style="stop-color:#00ADE6"/>
		<stop  offset="5.543736e-02" style="stop-color:#00A3DE"/>
		<stop  offset="0.25" style="stop-color:#0083C5"/>
		<stop  offset="0.3579" style="stop-color:#0077BC"/>
		<stop  offset="0.7261" style="stop-color:#353579"/>
		<stop  offset="0.9658" style="stop-color:#1D1A55"/>
	</linearGradient>
	<path class="st2" d="M61.1,148.5h15.1c1.8,0,3.3,1.5,3.3,3.3v85.2c0,1.8-1.5,3.3-3.3,3.3H61.1c-1.8,0-3.3-1.5-3.3-3.3v-85.2
		C57.8,150,59.2,148.5,61.1,148.5z M26.3,167.9v69.1c0,1.8,1.5,3.3,3.3,3.3h15.1c1.8,0,3.3-1.5,3.3-3.3v-69.1c0-1.8-1.5-3.3-3.3-3.3
		H29.6C27.8,164.7,26.3,166.1,26.3,167.9z M89.9,133.6v103.5c0,1.8,1.5,3.3,3.3,3.3h15.1c1.8,0,3.3-1.5,3.3-3.3V133.6
		c0-1.8-1.5-3.3-3.3-3.3H93.1C91.3,130.3,89.9,131.8,89.9,133.6z M122.6,148.8v88.3c0,1.8,1.5,3.3,3.3,3.3H141
		c1.8,0,3.3-1.5,3.3-3.3v-88.3c0-1.8-1.5-3.3-3.3-3.3h-15.1C124.1,145.5,122.6,147,122.6,148.8z M154.1,122.3v114.7
		c0,1.8,1.5,3.3,3.3,3.3h15.1c1.8,0,3.3-1.5,3.3-3.3V122.3c0-1.8-1.5-3.3-3.3-3.3h-15.1C155.5,119,154.1,120.5,154.1,122.3z"/>
</g>
</svg>
