<?xml version="1.0" encoding="utf-8"?>
<!-- Generator: Adobe Illustrator 22.1.0, SVG Export Plug-In . SVG Version: 6.00 Build 0)  -->
<svg version="1.1" xmlns="http://www.w3.org/2000/svg" xmlns:xlink="http://www.w3.org/1999/xlink" x="0px" y="0px"
	 viewBox="0 0 250 250" style="enable-background:new 0 0 250 250;" xml:space="preserve">
<style type="text/css">
	.st0{fill:#FFFFFF;stroke:#FFFFFF;stroke-width:16;stroke-miterlimit:10;}
	.st1{fill:url(#SVGID_1_);}
	.st2{fill:none;stroke:url(#SVGID_2_);stroke-width:8;stroke-linecap:round;stroke-linejoin:round;stroke-miterlimit:10;}
</style>
<g id="White">
	<path class="st0" d="M230.4,210.1H19.6c-6.1,0-11.1-4.7-11.1-10.4V50.3c0-5.7,5-10.4,11.1-10.4h210.7c6.1,0,11.1,4.7,11.1,10.4
		v149.4C241.5,205.4,236.5,210.1,230.4,210.1z"/>
</g>
<g id="Orange">
	<linearGradient id="SVGID_1_" gradientUnits="userSpaceOnUse" x1="63.473" y1="84.4653" x2="95.2929" y2="116.2851">
		<stop  offset="0" style="stop-color:#FFEE25"/>
		<stop  offset="0.3707" style="stop-color:#F08F34"/>
		<stop  offset="1" style="stop-color:#E2312D"/>
	</linearGradient>
	<circle class="st1" cx="79.4" cy="100.4" r="22.5"/>
</g>
<g id="Blue_1_">
	<linearGradient id="SVGID_2_" gradientUnits="userSpaceOnUse" x1="27.3653" y1="27.3653" x2="222.6347" y2="222.6347">
		<stop  offset="0" style="stop-color:#00ADE6"/>
		<stop  offset="5.543736e-02" style="stop-color:#00A3DE"/>
		<stop  offset="0.25" style="stop-color:#0083C5"/>
		<stop  offset="0.3579" style="stop-color:#0077BC"/>
		<stop  offset="0.7261" style="stop-color:#353579"/>
		<stop  offset="0.9658" style="stop-color:#1D1A55"/>
	</linearGradient>
	<path class="st2" d="M52,165.8V153 M126.1,43.9H19.6c-3.9,0-7.1,2.9-7.1,6.4v149.4c0,3.5,3.2,6.4,7.1,6.4h210.7
		c3.9,0,7.1-2.9,7.1-6.4V50.3c0-3.5-3.2-6.4-7.1-6.4H126.1 M136.2,86.5h77.1 M136.2,111.9h49.5 M106.7,165.8V153 M54.7,131
		c-11.5,0-18,5.8-18,16.5s0,19.5,0,19.5h41.8h0.9h42.7c0,0,0-8.8,0-19.5s-6.5-16.5-18-16.5S66.2,131,54.7,131z"/>
</g>
</svg>
