<?xml version="1.0" encoding="utf-8"?>
<!-- Generator: Adobe Illustrator 22.1.0, SVG Export Plug-In . SVG Version: 6.00 Build 0)  -->
<svg version="1.1" xmlns="http://www.w3.org/2000/svg" xmlns:xlink="http://www.w3.org/1999/xlink" x="0px" y="0px"
	 viewBox="0 0 250 250" style="enable-background:new 0 0 250 250;" xml:space="preserve">
<style type="text/css">
	.st0{fill:#FFFFFF;stroke:#FFFFFF;stroke-width:24;stroke-linecap:round;stroke-miterlimit:10;}
	.st1{fill:#FFFFFF;}
	.st2{fill:none;stroke:url(#SVGID_1_);stroke-width:8;stroke-linecap:round;stroke-miterlimit:10;}
	.st3{fill:none;stroke:url(#SVGID_2_);stroke-width:8;stroke-linecap:round;stroke-miterlimit:10;}
</style>
<g id="White">
	<path class="st0" d="M131.6,74.8h103.7 M131.6,96.1h103.7 M131.6,117.4h103.7 M131.6,160h103.7 M131.6,138.7h103.7 M13.7,181.3
		h221.6 M110.3,159.1V77.4c0-1.5-1.2-2.6-2.6-2.6H16c-1.5,0-2.6,1.2-2.6,2.6v81.6c0,1.5,1.2,2.6,2.6,2.6h91.7
		C109.1,161.7,110.3,160.5,110.3,159.1z"/>
	<rect x="116.3" y="74.8" class="st1" width="11" height="97.5"/>
</g>
<g id="orange">
	<g id="Orange">
	</g>
	<linearGradient id="SVGID_1_" gradientUnits="userSpaceOnUse" x1="38.9778" y1="116.0832" x2="83.8483" y2="160.9537">
		<stop  offset="0" style="stop-color:#FFEE25"/>
		<stop  offset="0.3707" style="stop-color:#F08F34"/>
		<stop  offset="1" style="stop-color:#E2312D"/>
	</linearGradient>
	<path class="st2" d="M65.7,140l-23.1-21.7l-29.3,30.6 M110.3,128.9l-21-18.3l-39.8,49.7"/>
</g>
<g id="Blue_1_">
	<linearGradient id="SVGID_2_" gradientUnits="userSpaceOnUse" x1="40.228" y1="43.7743" x2="209.3886" y2="212.9349">
		<stop  offset="0" style="stop-color:#00ADE6"/>
		<stop  offset="5.543736e-02" style="stop-color:#00A3DE"/>
		<stop  offset="0.25" style="stop-color:#0083C5"/>
		<stop  offset="0.3579" style="stop-color:#0077BC"/>
		<stop  offset="0.7261" style="stop-color:#353579"/>
		<stop  offset="0.9658" style="stop-color:#1D1A55"/>
	</linearGradient>
	<path class="st3" d="M131.6,74.8h103.7 M131.6,96.1h103.7 M131.6,117.4h103.7 M131.6,160h103.7 M131.6,138.7h103.7 M13.7,181.3
		h221.6 M110.3,159.1V77.4c0-1.5-1.2-2.6-2.6-2.6H16c-1.5,0-2.6,1.2-2.6,2.6v81.6c0,1.5,1.2,2.6,2.6,2.6h91.7
		C109.1,161.7,110.3,160.5,110.3,159.1z"/>
</g>
</svg>
