<svg id="Layer_1" data-name="Layer 1" xmlns="http://www.w3.org/2000/svg" xmlns:xlink="http://www.w3.org/1999/xlink" viewBox="0 0 544.71 315.48"><defs><style>.cls-1{fill:url(#linear-gradient);}.cls-2{fill:url(#linear-gradient-2);}.cls-10,.cls-13,.cls-15,.cls-16,.cls-17,.cls-18,.cls-22,.cls-23,.cls-24,.cls-25,.cls-26,.cls-27,.cls-29,.cls-3,.cls-30,.cls-6,.cls-7,.cls-8,.cls-9{fill:none;}.cls-10,.cls-11,.cls-12,.cls-13,.cls-14,.cls-15,.cls-16,.cls-17,.cls-18,.cls-19,.cls-20,.cls-21,.cls-22,.cls-23,.cls-24,.cls-25,.cls-26,.cls-27,.cls-29,.cls-3,.cls-30,.cls-6,.cls-7,.cls-8,.cls-9{stroke-linecap:round;}.cls-10,.cls-11,.cls-12,.cls-13,.cls-14,.cls-15,.cls-22,.cls-23,.cls-24,.cls-25,.cls-26,.cls-27,.cls-29,.cls-3,.cls-30,.cls-6,.cls-7,.cls-9{stroke-miterlimit:10;}.cls-3,.cls-6{stroke-width:4.33px;}.cls-3{stroke:url(#New_Gradient_Swatch_copy_5);}.cls-11,.cls-12,.cls-14,.cls-19,.cls-20,.cls-21,.cls-4{fill:#fff;}.cls-5{fill:url(#New_Gradient_Swatch_copy_5-2);}.cls-6{stroke:url(#New_Gradient_Swatch_copy_5-3);}.cls-10,.cls-7,.cls-8,.cls-9{stroke-width:3.37px;}.cls-7{stroke:url(#linear-gradient-3);}.cls-16,.cls-17,.cls-18,.cls-19,.cls-20,.cls-21,.cls-8{stroke-linejoin:round;}.cls-8{stroke:url(#linear-gradient-4);}.cls-9{stroke:url(#linear-gradient-5);}.cls-10{stroke:url(#linear-gradient-6);}.cls-11,.cls-12,.cls-14,.cls-15,.cls-16{stroke-width:4.7px;}.cls-11{stroke:url(#New_Gradient_Swatch_copy_5-4);}.cls-12{stroke:url(#New_Gradient_Swatch_copy_5-5);}.cls-13{stroke-width:5.25px;stroke:url(#linear-gradient-7);}.cls-14{stroke:url(#New_Gradient_Swatch_copy_5-6);}.cls-15{stroke:url(#New_Gradient_Swatch_copy_5-7);}.cls-16{stroke:url(#New_Gradient_Swatch_copy_5-8);}.cls-17,.cls-18,.cls-19,.cls-20,.cls-21{stroke-width:5.73px;}.cls-17{stroke:url(#New_Gradient_Swatch_copy_5-9);}.cls-18{stroke:url(#New_Gradient_Swatch_copy_5-10);}.cls-19{stroke:url(#New_Gradient_Swatch_copy_5-11);}.cls-20{stroke:url(#New_Gradient_Swatch_copy_5-12);}.cls-21{stroke:url(#New_Gradient_Swatch_copy_5-13);}.cls-22,.cls-23,.cls-24,.cls-25,.cls-26,.cls-27{stroke-width:4.46px;}.cls-22{stroke:url(#New_Gradient_Swatch_copy_5-14);}.cls-23{stroke:url(#New_Gradient_Swatch_copy_5-15);}.cls-24{stroke:url(#New_Gradient_Swatch_copy_5-16);}.cls-25{stroke:url(#New_Gradient_Swatch_copy_5-17);}.cls-26{stroke:url(#New_Gradient_Swatch_copy_5-18);}.cls-27{stroke:url(#New_Gradient_Swatch_copy_5-19);}.cls-28{fill:url(#New_Gradient_Swatch_copy_5-20);}.cls-29,.cls-30{stroke-width:4.98px;}.cls-29{stroke:url(#linear-gradient-8);}.cls-30{stroke:url(#linear-gradient-9);}.cls-31{fill:url(#linear-gradient-10);}.cls-32{fill:url(#New_Gradient_Swatch_copy);}</style><linearGradient id="linear-gradient" x1="-204.03" y1="347.68" x2="-106" y2="445.71" gradientTransform="translate(426.5 -349.06)" gradientUnits="userSpaceOnUse"><stop offset="0" stop-color="#f7a834"/><stop offset="0.88" stop-color="#e94730"/><stop offset="1" stop-color="#e73a30"/></linearGradient><linearGradient id="linear-gradient-2" x1="-199.27" y1="510.48" x2="-110.76" y2="598.99" xlink:href="#linear-gradient"/><linearGradient id="New_Gradient_Swatch_copy_5" x1="-270.69" y1="509.27" x2="-195.28" y2="509.27" gradientTransform="translate(426.5 -349.06)" gradientUnits="userSpaceOnUse"><stop offset="0" stop-color="#1d9ad7"/><stop offset="0.5" stop-color="#1366af"/><stop offset="1" stop-color="#423f92"/></linearGradient><linearGradient id="New_Gradient_Swatch_copy_5-2" x1="194.31" y1="141.67" x2="216" y2="141.67" gradientTransform="matrix(1, 0, 0, 1, 0, 0)" xlink:href="#New_Gradient_Swatch_copy_5"/><linearGradient id="New_Gradient_Swatch_copy_5-3" x1="-252.29" y1="532.7" x2="-213.58" y2="532.7" xlink:href="#New_Gradient_Swatch_copy_5"/><linearGradient id="linear-gradient-3" x1="-659.16" y1="-202.02" x2="-618.17" y2="-202.02" gradientTransform="translate(64.06 926.97) rotate(90)" gradientUnits="userSpaceOnUse"><stop offset="0" stop-color="#e21a84"/><stop offset="1" stop-color="#932181"/></linearGradient><linearGradient id="linear-gradient-4" x1="-634.03" y1="-201.77" x2="-617.04" y2="-201.77" xlink:href="#linear-gradient-3"/><linearGradient id="linear-gradient-5" x1="-666.7" y1="-201.77" x2="-662.53" y2="-201.77" xlink:href="#linear-gradient-3"/><linearGradient id="linear-gradient-6" x1="-673.09" y1="-201.77" x2="-668.91" y2="-201.77" xlink:href="#linear-gradient-3"/><linearGradient id="New_Gradient_Swatch_copy_5-4" x1="-8342.77" y1="-1980.69" x2="-8320.16" y2="-2003.3" gradientTransform="translate(-7990.88 -1817.34) rotate(180)" xlink:href="#New_Gradient_Swatch_copy_5"/><linearGradient id="New_Gradient_Swatch_copy_5-5" x1="-5866.1" y1="3250.62" x2="-5843.5" y2="3228.01" gradientTransform="translate(-2914.64 -5680.15) rotate(-90)" xlink:href="#New_Gradient_Swatch_copy_5"/><linearGradient id="linear-gradient-7" x1="-134.83" y1="558.6" x2="-90.73" y2="514.51" xlink:href="#linear-gradient"/><linearGradient id="New_Gradient_Swatch_copy_5-6" x1="-1728.34" y1="2261.05" x2="-1693.29" y2="2261.05" gradientTransform="matrix(0.82, -0.58, 0.58, 0.82, 383.68, -2642.03)" xlink:href="#New_Gradient_Swatch_copy_5"/><linearGradient id="New_Gradient_Swatch_copy_5-7" x1="-1541.08" y1="2426.84" x2="-1536.38" y2="2426.84" gradientTransform="matrix(0.82, -0.58, 0.58, 0.82, 127.58, -2705.84)" xlink:href="#New_Gradient_Swatch_copy_5"/><linearGradient id="New_Gradient_Swatch_copy_5-8" x1="-1552.99" y1="2391.81" x2="-1524.47" y2="2391.81" gradientTransform="matrix(0.82, -0.58, 0.58, 0.82, 127.58, -2705.84)" xlink:href="#New_Gradient_Swatch_copy_5"/><linearGradient id="New_Gradient_Swatch_copy_5-9" x1="-273.61" y1="447.99" x2="-192.37" y2="447.99" xlink:href="#New_Gradient_Swatch_copy_5"/><linearGradient id="New_Gradient_Swatch_copy_5-10" x1="-276.22" y1="439.51" x2="-192.23" y2="439.51" xlink:href="#New_Gradient_Swatch_copy_5"/><linearGradient id="New_Gradient_Swatch_copy_5-11" x1="-242.21" y1="426.49" x2="-229.92" y2="426.49" xlink:href="#New_Gradient_Swatch_copy_5"/><linearGradient id="New_Gradient_Swatch_copy_5-12" x1="-233.73" y1="430.71" x2="-222.3" y2="430.71" xlink:href="#New_Gradient_Swatch_copy_5"/><linearGradient id="New_Gradient_Swatch_copy_5-13" x1="-225.35" y1="434.26" x2="-213.62" y2="434.26" xlink:href="#New_Gradient_Swatch_copy_5"/><linearGradient id="New_Gradient_Swatch_copy_5-14" x1="-78.75" y1="432.17" x2="-51.43" y2="432.17" xlink:href="#New_Gradient_Swatch_copy_5"/><linearGradient id="New_Gradient_Swatch_copy_5-15" x1="-6882.39" y1="2831.42" x2="-6855.77" y2="2831.42" gradientTransform="translate(-5510.24 -4462.85) rotate(-119.67)" xlink:href="#New_Gradient_Swatch_copy_5"/><linearGradient id="New_Gradient_Swatch_copy_5-16" x1="-5494.2" y1="-4342.94" x2="-5466.79" y2="-4342.94" gradientTransform="translate(-6112.4 2715.63) rotate(119.66)" xlink:href="#New_Gradient_Swatch_copy_5"/><linearGradient id="New_Gradient_Swatch_copy_5-17" x1="-66.62" y1="437.76" x2="-40.98" y2="437.76" xlink:href="#New_Gradient_Swatch_copy_5"/><linearGradient id="New_Gradient_Swatch_copy_5-18" x1="-6798.75" y1="2919.84" x2="-6772.74" y2="2919.84" gradientTransform="translate(-5382.94 -4569.5) rotate(-117.61)" xlink:href="#New_Gradient_Swatch_copy_5"/><linearGradient id="New_Gradient_Swatch_copy_5-19" x1="-5411.79" y1="-4379.46" x2="-5385.43" y2="-4379.46" gradientTransform="translate(-6039.81 2817.95) rotate(118.03)" xlink:href="#New_Gradient_Swatch_copy_5"/><linearGradient id="New_Gradient_Swatch_copy_5-20" x1="331.77" y1="96.64" x2="391.56" y2="96.64" gradientTransform="matrix(1, 0, 0, 1, 0, 0)" xlink:href="#New_Gradient_Swatch_copy_5"/><linearGradient id="linear-gradient-8" x1="-3225.48" y1="-4451.67" x2="-3194.41" y2="-4482.75" gradientTransform="translate(-4134.58 3334.4) rotate(90)" xlink:href="#linear-gradient"/><linearGradient id="linear-gradient-9" x1="-3210.53" y1="-4445.43" x2="-3189.98" y2="-4465.98" gradientTransform="translate(-4134.58 3334.4) rotate(90)" xlink:href="#linear-gradient"/><linearGradient id="linear-gradient-10" x1="-175.96" y1="433.77" x2="-135.01" y2="392.83" gradientTransform="translate(426.5 -349.06)" gradientUnits="userSpaceOnUse"><stop offset="0" stop-color="#1d9ad7"/><stop offset="0.48" stop-color="#1366af"/><stop offset="1" stop-color="#423f92"/></linearGradient><linearGradient id="New_Gradient_Swatch_copy" x1="-147.08" y1="406.46" x2="-131.27" y2="402.3" gradientTransform="translate(426.5 -349.06)" gradientUnits="userSpaceOnUse"><stop offset="0" stop-color="#f7a834"/><stop offset="1" stop-color="#e73a30"/></linearGradient></defs><title>eco-1</title><path class="cls-1" d="M183.46,48.45a114.55,114.55,0,0,1,176.06,0h9.19a121.76,121.76,0,0,0-194.43,0Z"/><path class="cls-2" d="M349.78,205.64a114.47,114.47,0,0,1-156.57,0H183a121.7,121.7,0,0,0,177,0Z"/><path class="cls-3" d="M158,170.24c2.54,3.64,6,5.64,9.64,5.64a11.34,11.34,0,0,0,8.6-4.29,10.75,10.75,0,0,0,17.19,0,10.75,10.75,0,0,0,17.19,0,11.34,11.34,0,0,0,8.6,4.29c3.68,0,7.1-2,9.64-5.64M216,167.86l11.57-11.54a5,5,0,0,0,.7-6.38,4,4,0,0,0-3.62-2.09,5.27,5.27,0,0,0-3.84,1.43L210.4,159.63a1.27,1.27,0,0,1-1.5.22l-26.45-14.24a8.87,8.87,0,0,0-10.52,1.53l-10.11,10.08a5,5,0,0,0-.32,6.85,4.74,4.74,0,0,0,3.5,1.62,5,5,0,0,0,3.57-1.42l7.71-7.67a1.27,1.27,0,0,1,1.6-.16l4.62,3-4,4"/><circle class="cls-4" cx="205.16" cy="141.67" r="10.85" transform="translate(-40.08 186.56) rotate(-45)"/><path class="cls-5" d="M205.16,135.15a6.52,6.52,0,1,1-4.61,1.91,6.48,6.48,0,0,1,4.61-1.91m0-4.33a10.85,10.85,0,1,0,7.67,3.18,10.81,10.81,0,0,0-7.67-3.18Z"/><path class="cls-6" d="M176.38,182.06a10.75,10.75,0,0,0,17.19,0,10.75,10.75,0,0,0,17.19,0"/><line class="cls-7" x1="266.08" y1="269.49" x2="266.08" y2="307.11"/><polyline class="cls-8" points="252.2 294.62 265.83 308.25 279.46 294.62"/><line class="cls-9" x1="265.84" y1="261.95" x2="265.84" y2="262.76"/><line class="cls-10" x1="265.84" y1="255.56" x2="265.84" y2="256.37"/><path class="cls-11" d="M332.94,186.29A19.29,19.29,0,0,1,352.23,167"/><path class="cls-12" d="M313,167a19.29,19.29,0,0,1,19.29,19.29"/><line class="cls-13" x1="273.34" y1="187.49" x2="354.12" y2="187.49"/><path class="cls-14" d="M272.44,186.61l11.2,15.8c4.83,6.82,16.14,7.19,21.4,3.46l-.46.32c5.26-3.73,8.66-14.52,3.83-21.34l-11.2-15.8Z"/><line class="cls-15" x1="294" y1="190.79" x2="255.93" y2="137.05"/><line class="cls-16" x1="245" y1="142.22" x2="264.43" y2="128.45"/><path class="cls-17" d="M155.76,99.18s25.2-.42,40.17,3.19,33.72-4.87,35.34-7.75"/><path class="cls-18" d="M225.62,85.77,211.68,82a50.85,50.85,0,0,1-13.44-5.8l-8.89-5.47a5.23,5.23,0,0,0-6.77,1.13L180,75a9.13,9.13,0,0,1-15.45-2.2L164,71.56a3.28,3.28,0,0,0-3-2,5.22,5.22,0,0,0-5.22,5.22V99.18l-1.67,2.5a5.6,5.6,0,0,0-.94,3.11,6.53,6.53,0,0,0,6.52,6.52H204c9,0,17.14-2.48,22.89-6.89a11.69,11.69,0,0,0,4.49-9.25V93.33A7.84,7.84,0,0,0,225.62,85.77Z"/><line class="cls-19" x1="193.72" y1="74.15" x2="187.16" y2="80.71"/><line class="cls-20" x1="201.34" y1="78.75" x2="195.64" y2="84.54"/><line class="cls-21" x1="210.02" y1="82.19" x2="204.02" y2="88.19"/><path class="cls-22" d="M372.85,71.42S354.49,73.09,350,94.78"/><path class="cls-23" d="M334.91,100s10.21,14.65,30.63,8"/><path class="cls-24" d="M378.18,118.37s7.66-16.84-9-31.54"/><path class="cls-25" d="M383.29,80.35s-17,1.19-21.18,16.7"/><path class="cls-26" d="M336.45,85.05s9.09,14.77,25,11.22"/><path class="cls-27" d="M365.34,124.19s7.17-16.1-4.95-27.44"/><path class="cls-28" d="M361.66,71.2a25.44,25.44,0,1,1-25.44,25.44A25.47,25.47,0,0,1,361.66,71.2m0-4.46a29.9,29.9,0,1,0,29.9,29.9,29.9,29.9,0,0,0-29.9-29.9Z"/><path class="cls-29" d="M349.26,135.38a27.55,27.55,0,0,1-27.55-27.55"/><path class="cls-30" d="M331.4,140.9a17,17,0,0,1-17-17"/><path class="cls-31" d="M280.31,68.1a.35.35,0,0,1,.09-.2c5.37-5.85,7.64-15.12,5.19-24.42h0C282,30,269.86,21.41,258.45,24.41s-17.8,16.44-14.24,30c2.44,9.28,9,16.21,16.49,18.68a.35.35,0,0,1,.18.14l6.84,10.33a.36.36,0,0,1,0,.11l6.51,24.74a.36.36,0,0,0,.44.26l10.59-2.79a.36.36,0,0,0,.26-.44l-6.5-24.7a.36.36,0,0,1,0-.13ZM248.44,53.25c-2.94-11.18,2-22.22,11.12-24.6a13.93,13.93,0,0,1,3.56-.46c7.94,0,15.67,6.68,18.23,16.41,2.94,11.18-2,22.22-11.12,24.6S251.38,64.43,248.44,53.25ZM266.7,74a18.16,18.16,0,0,0,8.25-2,.36.36,0,0,1,.52.35l-.64,6.41a.36.36,0,0,1-.27.31l-3.57.94a.36.36,0,0,1-.39-.15L266.69,74Zm10.69,29-4.85-18.44a.36.36,0,0,1,.26-.44l2.12-.56a.36.36,0,0,1,.44.26l4.85,18.44a.36.36,0,0,1-.26.44l-2.12.56A.36.36,0,0,1,277.39,103Z"/><circle class="cls-32" cx="287.33" cy="55.32" r="8.17"/></svg>