<?xml version="1.0" encoding="utf-8"?>
<!-- Generator: Adobe Illustrator 22.1.0, SVG Export Plug-In . SVG Version: 6.00 Build 0)  -->
<svg version="1.1" xmlns="http://www.w3.org/2000/svg" xmlns:xlink="http://www.w3.org/1999/xlink" x="0px" y="0px"
	 viewBox="0 0 250 250" style="enable-background:new 0 0 250 250;" xml:space="preserve">
<style type="text/css">
	.st0{fill:#FFFFFF;stroke:#FFFFFF;stroke-width:23;stroke-linecap:round;stroke-miterlimit:10;}
	.st1{fill:url(#SVGID_1_);}
	.st2{fill:none;stroke:url(#SVGID_2_);stroke-width:8;stroke-linecap:round;stroke-miterlimit:10;}
</style>
<g id="White">
	<g>
		<path class="st0" d="M176.1,24.5c-16.4-8.3-33.8-12.3-51.1-12.3c-41,0-80.6,22.5-100.4,61.5C-3.6,129.2,18.4,197,73.9,225.3
			c16.4,8.3,33.8,12.3,51,12.3c41,0,80.6-22.5,100.5-61.5C253.6,120.6,231.6,52.8,176.1,24.5z"/>
	</g>
</g>
<g id="Orange">
	<linearGradient id="SVGID_1_" gradientUnits="userSpaceOnUse" x1="47.4286" y1="48.001" x2="202.6549" y2="203.2273">
		<stop  offset="0" style="stop-color:#FFEE25"/>
		<stop  offset="0.3707" style="stop-color:#F08F34"/>
		<stop  offset="1" style="stop-color:#E2312D"/>
	</linearGradient>
	<path class="st1" d="M236.8,93.9l-58.4-23.4L149,14.4l21.8,9.3c6.3,2.7,12.3,5.8,17.7,9.4c14.9,9.7,27,22.4,35.8,37.7l0,0
		c0.4,0.8,0.9,1.5,1.3,2.3L236.8,93.9z M136.6,14.4l-23.4,1.2C87.5,19,63.7,31,46.1,49.3L30.2,65.9l62.6-7.2L136.6,14.4z M14,105.9
		c-3.2,17.6-1.8,36,3.9,53.1c2,5.9,4.5,11.8,7.6,17.5l15,18.1l8.5-57.9L22.8,83.1L14,105.9z M153.6,97.3l-43.1-6.7l-19.8,38
		l30.9,30.1l38.9-19.3L153.6,97.3z M50.6,210.7L71.8,222c0.8,0.4,1.6,0.8,2.4,1.2l0,0c16.1,8,33.3,12,51.3,12c6.5,0,13.2-0.6,20-1.8
		l23.4-4.1l-56.3-30.8L50.6,210.7z M193,156.4l-4.8,61.3l16.4-16.8c12.6-12.9,22-28.9,27-46.3c1.7-6,2.9-12.3,3.6-18.7l2.5-23.2
		L193,156.4z"/>
</g>
<g id="Blue_1_">
	<g>
		<linearGradient id="SVGID_2_" gradientUnits="userSpaceOnUse" x1="42.5026" y1="42.428" x2="207.497" y2="207.4225">
			<stop  offset="0" style="stop-color:#00ADE6"/>
			<stop  offset="5.543736e-02" style="stop-color:#00A3DE"/>
			<stop  offset="0.25" style="stop-color:#0083C5"/>
			<stop  offset="0.3579" style="stop-color:#0077BC"/>
			<stop  offset="0.7261" style="stop-color:#353579"/>
			<stop  offset="0.9658" style="stop-color:#1D1A55"/>
		</linearGradient>
		<path class="st2" d="M176.1,24.5c-16.4-8.3-33.8-12.3-51.1-12.3c-41,0-80.6,22.5-100.4,61.5C-3.6,129.2,18.4,197,73.9,225.3
			c16.4,8.3,33.8,12.3,51,12.3c41,0,80.6-22.5,100.5-61.5C253.6,120.6,231.6,52.8,176.1,24.5z"/>
	</g>
</g>
</svg>
