<?xml version="1.0" encoding="utf-8"?>
<!-- Generator: Adobe Illustrator 22.1.0, SVG Export Plug-In . SVG Version: 6.00 Build 0)  -->
<svg version="1.1" xmlns="http://www.w3.org/2000/svg" xmlns:xlink="http://www.w3.org/1999/xlink" x="0px" y="0px"
	 viewBox="0 0 250 250" style="enable-background:new 0 0 250 250;" xml:space="preserve">
<style type="text/css">
	.st0{fill:#FFFFFF;stroke:#FFFFFF;stroke-width:16;stroke-miterlimit:10;}
	.st1{fill:#FFFFFF;}
	.st2{fill:#FFFFFF;stroke:#FFFFFF;stroke-width:24;stroke-linecap:round;stroke-linejoin:round;stroke-miterlimit:10;}
	.st3{fill:url(#SVGID_1_);}
	.st4{fill:url(#SVGID_2_);}
	.st5{fill:none;stroke:url(#SVGID_3_);stroke-width:8;stroke-linecap:round;stroke-linejoin:round;stroke-miterlimit:10;}
	.st6{fill:none;stroke:url(#SVGID_4_);stroke-width:8;stroke-linecap:round;stroke-linejoin:round;stroke-miterlimit:10;}
</style>
<g id="White">
	<g>
		<circle class="st0" cx="188.9" cy="34.3" r="21.8"/>
	</g>
	<path class="st0" d="M198.3,241.5c-3.7,0-7.1-1.5-9.6-4c-2.5,2.5-5.9,4-9.6,4c-7.5,0-13.6-6.1-13.6-13.6l0-3.6l0-52.9h-17.1
		c-1.2,0-2.4-0.6-3.2-1.6c-0.8-1-1-2.3-0.7-3.5l6.8-24.7c-1.7,0.2-3.4,0.1-5.1-0.4c-3.3-0.9-6.1-3.1-7.8-6.1c-1.7-3-2.1-6.5-1.2-9.8
		L151.5,78c1.2-4.3,6.5-18.3,22.5-18.3h14.7c0,0,0,0,0,0h14.7c16,0,21.3,14,22.5,18.3l14.1,47.2c0.9,3.4,0.5,6.9-1.2,9.9
		c-1.7,3-4.5,5.2-7.8,6.1c-1.7,0.5-3.4,0.6-5.1,0.4l6.8,24.7c0.3,1.2,0.1,2.5-0.7,3.5c-0.8,1-1.9,1.6-3.2,1.6h-17.1l0,52.9l0,3.6
		C211.9,235.4,205.8,241.5,198.3,241.5z"/>
	<g>
		<path class="st1" d="M68.2,57.9c-13.6,0-24.7-11.1-24.7-24.7c0-13.6,11.1-24.7,24.7-24.7s24.7,11.1,24.7,24.7
			C92.9,46.9,81.8,57.9,68.2,57.9z"/>
		<path class="st1" d="M68.2,12.8c11.3,0,20.4,9.1,20.4,20.4c0,11.3-9.1,20.4-20.4,20.4s-20.4-9.1-20.4-20.4
			C47.8,22,57,12.8,68.2,12.8 M68.2,4.4c-15.9,0-28.9,13-28.9,28.9s13,28.9,28.9,28.9s28.9-13,28.9-28.9S84.2,4.4,68.2,4.4L68.2,4.4
			z"/>
	</g>
	<path class="st2" d="M68.2,145.8v80.1c0,6.4-5.2,11.6-11.6,11.6S45,232.3,45,225.9V89.2 M94.2,145.8c6.6,0,15.8-4.6,15.8-19.1
		c0-11,0-44.5,0-44.5c0-11.4-8.1-17.5-18.2-17.5c-6.6,0-23.5,0-23.5,0s-17,0-23.5,0c-10.1,0-18.2,6-18.2,17.5c0,0,0,33.5,0,44.5
		c0,14.6,9.2,19.1,15.8,19.1 M68.2,225.9c0,6.4,5.2,11.6,11.6,11.6s11.6-5.2,11.6-11.6V89.2"/>
	<g>
		<rect x="51.2" y="103.8" class="st1" width="35.3" height="86"/>
	</g>
</g>
<g id="Orange">
	<g>
		<linearGradient id="SVGID_1_" gradientUnits="userSpaceOnUse" x1="173.5611" y1="18.8891" x2="204.3202" y2="49.6483">
			<stop  offset="0" style="stop-color:#FFEE25"/>
			<stop  offset="0.3707" style="stop-color:#F08F34"/>
			<stop  offset="1" style="stop-color:#E2312D"/>
		</linearGradient>
		<circle class="st3" cx="188.9" cy="34.3" r="21.8"/>
	</g>
	<linearGradient id="SVGID_2_" gradientUnits="userSpaceOnUse" x1="53.7941" y1="18.8303" x2="82.685" y2="47.7212">
		<stop  offset="0" style="stop-color:#FFEE25"/>
		<stop  offset="0.3707" style="stop-color:#F08F34"/>
		<stop  offset="1" style="stop-color:#E2312D"/>
	</linearGradient>
	<circle class="st4" cx="68.2" cy="33.3" r="20.4"/>
</g>
<g id="Blue_1_">
	<linearGradient id="SVGID_3_" gradientUnits="userSpaceOnUse" x1="10.0725" y1="85.1204" x2="126.4066" y2="201.4545">
		<stop  offset="0" style="stop-color:#00ADE6"/>
		<stop  offset="5.543736e-02" style="stop-color:#00A3DE"/>
		<stop  offset="0.25" style="stop-color:#0083C5"/>
		<stop  offset="0.3579" style="stop-color:#0077BC"/>
		<stop  offset="0.7261" style="stop-color:#353579"/>
		<stop  offset="0.9658" style="stop-color:#1D1A55"/>
	</linearGradient>
	<path class="st5" d="M68.2,145.8v80.1c0,6.4-5.2,11.6-11.6,11.6S45,232.3,45,225.9V89.2 M94.2,145.8c6.6,0,15.8-4.6,15.8-19.1
		c0-11,0-44.5,0-44.5c0-11.4-8.1-17.5-18.2-17.5c-6.6,0-23.5,0-23.5,0s-17,0-23.5,0c-10.1,0-18.2,6-18.2,17.5c0,0,0,33.5,0,44.5
		c0,14.6,9.2,19.1,15.8,19.1 M68.2,225.9c0,6.4,5.2,11.6,11.6,11.6s11.6-5.2,11.6-11.6V89.2"/>
	<linearGradient id="SVGID_4_" gradientUnits="userSpaceOnUse" x1="38.0052" y1="57.1877" x2="213.1252" y2="232.3078">
		<stop  offset="0" style="stop-color:#00ADE6"/>
		<stop  offset="5.543736e-02" style="stop-color:#00A3DE"/>
		<stop  offset="0.25" style="stop-color:#0083C5"/>
		<stop  offset="0.3579" style="stop-color:#0077BC"/>
		<stop  offset="0.7261" style="stop-color:#353579"/>
		<stop  offset="0.9658" style="stop-color:#1D1A55"/>
	</linearGradient>
	<path class="st6" d="M158.4,131.2c-1.3,4.8-6.3,7.5-11,6.2c-4.8-1.3-7.5-6.3-6.2-11l14.1-47.3c1.6-5.6,6.5-15.4,18.6-15.4h14.7
		 M158,132.7l9.9-35.9l-19.6,70.6h21l0,56.9l0,3.6c0,5.3,4.3,9.6,9.6,9.6c5.3,0,9.6-4.3,9.6-9.6V162 M218.9,131.2
		c1.3,4.8,6.3,7.5,11,6.2c4.8-1.3,7.5-6.3,6.2-11L222,79.1c-1.6-5.6-6.5-15.4-18.6-15.4h-14.7 M188.7,227.9c0,5.3,4.3,9.6,9.6,9.6
		c5.3,0,9.6-4.3,9.6-9.6l0-3.6l0-56.9h21l-19.6-70.6l9.9,35.9 M68.2,145.8v80.1c0,6.4-5.2,11.6-11.6,11.6S45,232.3,45,225.9V89.2
		 M94.2,145.8c6.6,0,15.8-4.6,15.8-19.1c0-11,0-44.5,0-44.5c0-11.4-8.1-17.5-18.2-17.5c-6.6,0-23.5,0-23.5,0s-17,0-23.5,0
		c-10.1,0-18.2,6-18.2,17.5c0,0,0,33.5,0,44.5c0,14.6,9.2,19.1,15.8,19.1 M68.2,225.9c0,6.4,5.2,11.6,11.6,11.6s11.6-5.2,11.6-11.6
		V89.2"/>
</g>
</svg>
