<?xml version="1.0" encoding="utf-8"?>
<!-- Generator: Adobe Illustrator 22.1.0, SVG Export Plug-In . SVG Version: 6.00 Build 0)  -->
<svg version="1.1" xmlns="http://www.w3.org/2000/svg" xmlns:xlink="http://www.w3.org/1999/xlink" x="0px" y="0px"
	 viewBox="0 0 250 250" style="enable-background:new 0 0 250 250;" xml:space="preserve">
<style type="text/css">
	.st0{fill:#FFFFFF;stroke:#FFFFFF;stroke-width:24;stroke-linecap:round;stroke-miterlimit:10;}
	.st1{fill:url(#SVGID_1_);}
	.st2{fill:none;stroke:url(#SVGID_2_);stroke-width:8;stroke-linecap:round;stroke-miterlimit:10;}
</style>
<g id="White">
	<path class="st0" d="M125,19.6c40.7,0,66.4,31.7,66.4,68.4c0,43.7-29.8,96.6-49.4,126.5c-0.7,1.1-1.4,2.2-2.1,3.2
		c-0.7,1.1-1.5,2.2-2.2,3.2c-3,4.4-7.1,8.8-10.1,11.9c-2,2.1-5.4,1.8-7.2-0.5c-2.3-3-5.4-7.3-8.3-11.4c-0.7-1-1.5-2.1-2.2-3.2
		c-0.7-1-1.4-2.1-2.2-3.2C88.1,185,58.6,132.8,58.6,88C58.6,51.3,84.3,19.6,125,19.6z"/>
</g>
<g id="orange">
	<g id="Orange">
	</g>
	<linearGradient id="SVGID_1_" gradientUnits="userSpaceOnUse" x1="99.2649" y1="64.2703" x2="148.5204" y2="113.5258">
		<stop  offset="0" style="stop-color:#FFEE25"/>
		<stop  offset="0.3707" style="stop-color:#F08F34"/>
		<stop  offset="1" style="stop-color:#E2312D"/>
	</linearGradient>
	<path class="st1" d="M158.3,88.9c0-19.5-15.4-35.3-34.4-35.3c-19,0-34.4,15.8-34.4,35.3c0,19.5,15.4,35.3,34.4,35.3
		C142.8,124.2,158.3,108.4,158.3,88.9z"/>
</g>
<g id="Blue_1_">
	<linearGradient id="SVGID_2_" gradientUnits="userSpaceOnUse" x1="60.7761" y1="50.0534" x2="188.4081" y2="177.6854">
		<stop  offset="0" style="stop-color:#00ADE6"/>
		<stop  offset="5.543736e-02" style="stop-color:#00A3DE"/>
		<stop  offset="0.25" style="stop-color:#0083C5"/>
		<stop  offset="0.3579" style="stop-color:#0077BC"/>
		<stop  offset="0.7261" style="stop-color:#353579"/>
		<stop  offset="0.9658" style="stop-color:#1D1A55"/>
	</linearGradient>
	<path class="st2" d="M125,19.6c40.7,0,66.4,31.7,66.4,68.4c0,43.7-29.8,96.6-49.4,126.5c-0.7,1.1-1.4,2.2-2.1,3.2
		c-0.7,1.1-1.5,2.2-2.2,3.2c-3,4.4-7.1,8.8-10.1,11.9c-2,2.1-5.4,1.8-7.2-0.5c-2.3-3-5.4-7.3-8.3-11.4c-0.7-1-1.5-2.1-2.2-3.2
		c-0.7-1-1.4-2.1-2.2-3.2C88.1,185,58.6,132.8,58.6,88C58.6,51.3,84.3,19.6,125,19.6z"/>
</g>
</svg>
