<?xml version="1.0" encoding="utf-8"?>
<!-- Generator: Adobe Illustrator 22.1.0, SVG Export Plug-In . SVG Version: 6.00 Build 0)  -->
<svg version="1.1" xmlns="http://www.w3.org/2000/svg" xmlns:xlink="http://www.w3.org/1999/xlink" x="0px" y="0px"
	 viewBox="0 0 250 250" style="enable-background:new 0 0 250 250;" xml:space="preserve">
<style type="text/css">
	.st0{fill:#FFFFFF;}
	.st1{fill:#FFFFFF;stroke:#FFFFFF;stroke-width:24;stroke-linecap:round;stroke-linejoin:round;stroke-miterlimit:10;}
	.st2{fill:url(#SVGID_1_);}
	.st3{fill:none;stroke:url(#SVGID_2_);stroke-width:8;stroke-linecap:round;stroke-linejoin:round;stroke-miterlimit:10;}
	.st4{fill:none;stroke:url(#SVGID_3_);stroke-width:8;stroke-linecap:round;stroke-linejoin:round;stroke-miterlimit:10;}
</style>
<g id="White">
	<g>
		<path class="st0" d="M125,55.4c-13.6,0-24.7-11.1-24.7-24.7c0-13.6,11.1-24.7,24.7-24.7c13.6,0,24.7,11.1,24.7,24.7
			C149.7,44.4,138.6,55.4,125,55.4z"/>
		<path class="st0" d="M125,10.3c11.3,0,20.4,9.1,20.4,20.4s-9.1,20.4-20.4,20.4s-20.4-9.1-20.4-20.4S113.7,10.3,125,10.3 M125,1.9
			c-15.9,0-28.9,13-28.9,28.9s13,28.9,28.9,28.9s28.9-13,28.9-28.9S140.9,1.9,125,1.9L125,1.9z"/>
	</g>
	<path class="st1" d="M125,143.3v80.1c0,6.4-5.2,11.6-11.6,11.6s-11.6-5.2-11.6-11.6V86.7 M150.9,143.3c6.6,0,15.8-4.6,15.8-19.1
		c0-11,0-44.5,0-44.5c0-11.4-8.1-17.5-18.2-17.5c-6.6,0-23.5,0-23.5,0s-17,0-23.5,0c-10.1,0-18.2,6-18.2,17.5c0,0,0,33.5,0,44.5
		c0,14.6,9.2,19.1,15.8,19.1 M125,223.4c0,6.4,5.2,11.6,11.6,11.6c6.4,0,11.6-5.2,11.6-11.6V86.7"/>
	<g>
		<rect x="108" y="101.3" class="st0" width="35.3" height="86"/>
	</g>
</g>
<g id="Orange">
	<linearGradient id="SVGID_1_" gradientUnits="userSpaceOnUse" x1="110.5546" y1="16.3304" x2="139.4454" y2="45.2213">
		<stop  offset="0" style="stop-color:#FFEE25"/>
		<stop  offset="0.3707" style="stop-color:#F08F34"/>
		<stop  offset="1" style="stop-color:#E2312D"/>
	</linearGradient>
	<circle class="st2" cx="125" cy="30.8" r="20.4"/>
</g>
<g id="Blue_1_">
	<linearGradient id="SVGID_2_" gradientUnits="userSpaceOnUse" x1="66.8329" y1="82.6205" x2="183.1671" y2="198.9546">
		<stop  offset="0" style="stop-color:#00ADE6"/>
		<stop  offset="5.543736e-02" style="stop-color:#00A3DE"/>
		<stop  offset="0.25" style="stop-color:#0083C5"/>
		<stop  offset="0.3579" style="stop-color:#0077BC"/>
		<stop  offset="0.7261" style="stop-color:#353579"/>
		<stop  offset="0.9658" style="stop-color:#1D1A55"/>
	</linearGradient>
	<path class="st3" d="M125,143.3v80.1c0,6.4-5.2,11.6-11.6,11.6s-11.6-5.2-11.6-11.6V86.7 M150.9,143.3c6.6,0,15.8-4.6,15.8-19.1
		c0-11,0-44.5,0-44.5c0-11.4-8.1-17.5-18.2-17.5c-6.6,0-23.5,0-23.5,0s-17,0-23.5,0c-10.1,0-18.2,6-18.2,17.5c0,0,0,33.5,0,44.5
		c0,14.6,9.2,19.1,15.8,19.1 M125,223.4c0,6.4,5.2,11.6,11.6,11.6c6.4,0,11.6-5.2,11.6-11.6V86.7"/>
	<linearGradient id="SVGID_3_" gradientUnits="userSpaceOnUse" x1="66.8329" y1="82.6205" x2="183.1671" y2="198.9546">
		<stop  offset="0" style="stop-color:#00ADE6"/>
		<stop  offset="5.543736e-02" style="stop-color:#00A3DE"/>
		<stop  offset="0.25" style="stop-color:#0083C5"/>
		<stop  offset="0.3579" style="stop-color:#0077BC"/>
		<stop  offset="0.7261" style="stop-color:#353579"/>
		<stop  offset="0.9658" style="stop-color:#1D1A55"/>
	</linearGradient>
	<path class="st4" d="M125,143.3v80.1c0,6.4-5.2,11.6-11.6,11.6s-11.6-5.2-11.6-11.6V86.7 M150.9,143.3c6.6,0,15.8-4.6,15.8-19.1
		c0-11,0-44.5,0-44.5c0-11.4-8.1-17.5-18.2-17.5c-6.6,0-23.5,0-23.5,0s-17,0-23.5,0c-10.1,0-18.2,6-18.2,17.5c0,0,0,33.5,0,44.5
		c0,14.6,9.2,19.1,15.8,19.1 M125,223.4c0,6.4,5.2,11.6,11.6,11.6c6.4,0,11.6-5.2,11.6-11.6V86.7"/>
</g>
</svg>
