<?xml version="1.0" encoding="utf-8"?>
<!-- Generator: Adobe Illustrator 22.1.0, SVG Export Plug-In . SVG Version: 6.00 Build 0)  -->
<svg version="1.1" xmlns="http://www.w3.org/2000/svg" xmlns:xlink="http://www.w3.org/1999/xlink" x="0px" y="0px"
	 viewBox="0 0 250 250" style="enable-background:new 0 0 250 250;" xml:space="preserve">
<style type="text/css">
	.st0{fill:#FFFFFF;}
	.st1{fill:url(#SVGID_1_);}
	.st2{fill:url(#SVGID_2_);}
	.st3{fill:none;stroke:url(#SVGID_3_);stroke-width:8;stroke-linecap:round;stroke-miterlimit:10;}
	.st4{fill:url(#SVGID_4_);}
</style>
<g id="white">
	<g>
		<path class="st0" d="M17.6,220.2c-6.4,0-11.7-5.2-11.7-11.7V50.2c0-6.4,5.2-11.7,11.7-11.7h214c6.4,0,11.7,5.2,11.7,11.7v158.3
			c0,6.4-5.2,11.7-11.7,11.7H17.6z"/>
		<path class="st0" d="M231.6,44.5c3.1,0,5.7,2.6,5.7,5.7v158.3c0,3.1-2.6,5.7-5.7,5.7h-214c-3.1,0-5.7-2.6-5.7-5.7V50.2
			c0-3.1,2.6-5.7,5.7-5.7H231.6 M231.6,32.5h-214C7.9,32.5,0,40.4,0,50.2v158.3c0,9.7,7.9,17.7,17.7,17.7h214
			c9.7,0,17.7-7.9,17.7-17.7V50.2C249.3,40.4,241.4,32.5,231.6,32.5L231.6,32.5z"/>
	</g>
</g>
<g id="orange">
	
		<linearGradient id="SVGID_1_" gradientUnits="userSpaceOnUse" x1="1225.0643" y1="1363.1526" x2="1209.4574" y2="1347.5457" gradientTransform="matrix(0 -1 -1 0 1430.8 1342.1801)">
		<stop  offset="0" style="stop-color:#FEEC31"/>
		<stop  offset="0.3707" style="stop-color:#F08F33"/>
		<stop  offset="1" style="stop-color:#E2322E"/>
	</linearGradient>
	<polygon class="st1" points="71.3,124.9 71.3,113.5 81.2,119.2 91.1,124.9 81.2,130.6 71.3,136.4 	"/>
	
		<linearGradient id="SVGID_2_" gradientUnits="userSpaceOnUse" x1="151.2247" y1="97.9414" x2="199.9152" y2="49.251" gradientTransform="matrix(1 0 0 -1 0 252)">
		<stop  offset="0" style="stop-color:#FEEC31"/>
		<stop  offset="0.3707" style="stop-color:#F08F33"/>
		<stop  offset="1" style="stop-color:#E2322E"/>
	</linearGradient>
	<path class="st2" d="M204.3,173.2l-51.2-19.4c-0.9-0.4-1.9,0-2.3,0.9c-0.2,0.4-0.2,1,0,1.4l19.6,51.1c0.3,0.9,1.3,1.5,2.3,1.1
		c0.5-0.2,1-0.6,1.1-1.1l4.6-17.5l13.3,13.1c2.3,2.3,5.9,2.3,8.2,0s2.3-5.9,0-8.2l-13.2-13.2l17.5-4.6c1-0.3,1.5-1.3,1.3-2.2
		C205.4,173.8,204.9,173.4,204.3,173.2z"/>
</g>
<g id="Blue">
	<linearGradient id="SVGID_3_" gradientUnits="userSpaceOnUse" x1="24.7069" y1="29.4153" x2="224.551" y2="229.2594">
		<stop  offset="0" style="stop-color:#16ADE4"/>
		<stop  offset="0.1517" style="stop-color:#0192D1"/>
		<stop  offset="0.2845" style="stop-color:#057FC2"/>
		<stop  offset="0.3579" style="stop-color:#0A78BC"/>
		<stop  offset="0.7261" style="stop-color:#343579"/>
		<stop  offset="0.9658" style="stop-color:#262551"/>
	</linearGradient>
	<path class="st3" d="M231.6,214.2h-214c-3.1,0-5.7-2.6-5.7-5.7V50.2c0-3.1,2.6-5.7,5.7-5.7h214c3.1,0,5.7,2.6,5.7,5.7v158.3
		C237.3,211.6,234.8,214.2,231.6,214.2z M12,70.8h225.3 M142.9,104.6h0.7 M142.9,124h0.7 M142.9,143.4h0.7 M154.3,104.6h60.3
		 M154.3,124h60.3 M154.3,143.4h60.3 M123.5,153.4V96.5c0-1.2-1-2.1-2.1-2.1h-84c-1.2,0-2.1,1-2.1,2.1v56.9c0,1.2,1,2.1,2.1,2.1h84
		C122.5,155.5,123.5,154.5,123.5,153.4z"/>
	<linearGradient id="SVGID_4_" gradientUnits="userSpaceOnUse" x1="194.0593" y1="49.9552" x2="210.649" y2="66.5448">
		<stop  offset="0" style="stop-color:#FEEC31"/>
		<stop  offset="0.3707" style="stop-color:#F08F33"/>
		<stop  offset="1" style="stop-color:#E2322E"/>
	</linearGradient>
	<path class="st4" d="M211.5,58.2c0-1.7,1.4-3.1,3.1-3.1c1.7,0,3.1,1.4,3.1,3.1s-1.4,3.1-3.1,3.1C212.9,61.3,211.5,60,211.5,58.2z
		 M202.5,61.3c1.7,0,3.1-1.4,3.1-3.1s-1.4-3.1-3.1-3.1s-3.1,1.4-3.1,3.1S200.8,61.3,202.5,61.3z M190.1,61.3c1.7,0,3.1-1.4,3.1-3.1
		s-1.4-3.1-3.1-3.1s-3.1,1.4-3.1,3.1S188.4,61.3,190.1,61.3z"/>
</g>
</svg>
