<?xml version="1.0" encoding="utf-8"?>
<!-- Generator: Adobe Illustrator 22.1.0, SVG Export Plug-In . SVG Version: 6.00 Build 0)  -->
<svg version="1.1" xmlns="http://www.w3.org/2000/svg" xmlns:xlink="http://www.w3.org/1999/xlink" x="0px" y="0px"
	 viewBox="0 0 250 250" style="enable-background:new 0 0 250 250;" xml:space="preserve">
<style type="text/css">
	.st0{fill:#FFFFFF;}
	.st1{fill:none;stroke:url(#SVGID_1_);stroke-width:9.2736;stroke-linecap:round;stroke-miterlimit:10;}
	.st2{fill:none;stroke:url(#SVGID_2_);stroke-width:8;stroke-linecap:round;stroke-miterlimit:10;}
</style>
<g id="white">
	<g>
		<path class="st0" d="M17.6,220.2c-6.4,0-11.7-5.2-11.7-11.7V50.2c0-6.4,5.2-11.7,11.7-11.7h214c6.4,0,11.7,5.2,11.7,11.7v158.3
			c0,6.4-5.2,11.7-11.7,11.7H17.6z"/>
		<path class="st0" d="M231.6,44.5c3.1,0,5.7,2.6,5.7,5.7v158.3c0,3.1-2.6,5.7-5.7,5.7h-214c-3.1,0-5.7-2.6-5.7-5.7V50.2
			c0-3.1,2.6-5.7,5.7-5.7H231.6 M231.6,32.5h-214C7.9,32.5,0,40.4,0,50.2v158.3c0,9.7,7.9,17.7,17.7,17.7h214
			c9.7,0,17.7-7.9,17.7-17.7V50.2C249.3,40.4,241.4,32.5,231.6,32.5L231.6,32.5z"/>
	</g>
</g>
<g id="orange">
	
		<linearGradient id="SVGID_1_" gradientUnits="userSpaceOnUse" x1="528.9705" y1="523.0513" x2="549.7931" y2="502.2287" gradientTransform="matrix(0 1 -1 0 591.4514 -404.8819)">
		<stop  offset="0" style="stop-color:#FEEC31"/>
		<stop  offset="0.3707" style="stop-color:#F08F33"/>
		<stop  offset="1" style="stop-color:#E2322E"/>
	</linearGradient>
	<polyline class="st1" points="55,144 69.3,158.3 102.6,125 	"/>
</g>
<g id="Blue">
	<linearGradient id="SVGID_2_" gradientUnits="userSpaceOnUse" x1="24.7069" y1="29.4153" x2="224.551" y2="229.2594">
		<stop  offset="0" style="stop-color:#16ADE4"/>
		<stop  offset="0.1517" style="stop-color:#0192D1"/>
		<stop  offset="0.2845" style="stop-color:#057FC2"/>
		<stop  offset="0.3579" style="stop-color:#0A78BC"/>
		<stop  offset="0.7261" style="stop-color:#343579"/>
		<stop  offset="0.9658" style="stop-color:#262551"/>
	</linearGradient>
	<path class="st2" d="M231.6,214.2h-214c-3.1,0-5.7-2.6-5.7-5.7V50.2c0-3.1,2.6-5.7,5.7-5.7h214c3.1,0,5.7,2.6,5.7,5.7v158.3
		C237.3,211.6,234.8,214.2,231.6,214.2z M12,70.8h225.3 M136.9,148.9h69.7 M136.9,168.3h69.7 M114,171.2V108c0-1.1-0.9-2-2-2H45.6
		c-1.1,0-2,0.9-2,2v63.2c0,1.1,0.9,2,2,2H112C113.1,173.2,114,172.3,114,171.2z M209.3,127.8v-16.5c0-0.6-0.5-1.1-1.1-1.1h-72.6
		c-0.6,0-1.1,0.5-1.1,1.1v16.5c0,0.6,0.5,1.1,1.1,1.1h72.6C208.8,128.9,209.3,128.4,209.3,127.8z"/>
</g>
</svg>
