<?xml version="1.0" encoding="utf-8"?>
<!-- Generator: Adobe Illustrator 22.1.0, SVG Export Plug-In . SVG Version: 6.00 Build 0)  -->
<svg version="1.1" xmlns="http://www.w3.org/2000/svg" xmlns:xlink="http://www.w3.org/1999/xlink" x="0px" y="0px"
	 viewBox="0 0 250 250" style="enable-background:new 0 0 250 250;" xml:space="preserve">
<style type="text/css">
	.st0{fill:#FFFFFF;}
	.st1{fill:url(#SVGID_1_);}
	.st2{fill:none;stroke:url(#SVGID_2_);stroke-width:8;stroke-linecap:round;stroke-miterlimit:10;}
</style>
<g id="white">
	<g>
		<path class="st0" d="M17.6,220.2c-6.4,0-11.7-5.2-11.7-11.7V50.2c0-6.4,5.2-11.7,11.7-11.7h214c6.4,0,11.7,5.2,11.7,11.7v158.3
			c0,6.4-5.2,11.7-11.7,11.7H17.6z"/>
		<path class="st0" d="M231.6,44.5c3.1,0,5.7,2.6,5.7,5.7v158.3c0,3.1-2.6,5.7-5.7,5.7h-214c-3.1,0-5.7-2.6-5.7-5.7V50.2
			c0-3.1,2.6-5.7,5.7-5.7H231.6 M231.6,32.5h-214C7.9,32.5,0,40.4,0,50.2v158.3c0,9.7,7.9,17.7,17.7,17.7h214
			c9.7,0,17.7-7.9,17.7-17.7V50.2C249.3,40.4,241.4,32.5,231.6,32.5L231.6,32.5z"/>
	</g>
</g>
<g id="orange">
	<linearGradient id="SVGID_1_" gradientUnits="userSpaceOnUse" x1="54.452" y1="88.364" x2="149.5682" y2="183.4801">
		<stop  offset="0" style="stop-color:#FEEC31"/>
		<stop  offset="0.3707" style="stop-color:#F08F33"/>
		<stop  offset="1" style="stop-color:#E2322E"/>
	</linearGradient>
	<path class="st1" d="M35.6,112.8c-0.1,0.2-0.4,0.4-0.6,0.4c0.2,0.1,0.5,0.2,0.6,0.4c0.1,0.3,0.2,0.6,0.2,0.9v1.9
		c0,0.2,0.1,0.5,0.2,0.7c0.2,0.2,0.4,0.2,0.6,0.2h0.2v1.5h-0.7c-0.6,0-1.2-0.2-1.7-0.5c-0.4-0.4-0.6-1-0.6-1.6v-2.1
		c0-0.1,0-0.3-0.1-0.4c-0.1-0.1-0.2-0.1-0.4-0.1H33v-1.5h0.4c0.1,0,0.3,0,0.4-0.1c0.1-0.1,0.1-0.3,0.1-0.4v-2.2
		c0-0.6,0.2-1.2,0.6-1.6c0.5-0.4,1.1-0.6,1.7-0.5h0.7v1.5h-0.2c-0.2,0-0.5,0.1-0.6,0.2c-0.2,0.2-0.2,0.4-0.2,0.7v1.9
		C35.8,112.4,35.7,112.6,35.6,112.8z M41.6,115c-0.2,0.2-0.5,0.2-0.8,0.2c-0.2,0-0.4-0.1-0.6-0.2c-0.1-0.2-0.2-0.4-0.2-0.6v-2.6h1.6
		v-1.4h-1.6v-1.6h-1.9v1.6h-1v1.4h1v2.6c0,0.6,0.2,1.3,0.6,1.7c0.5,0.4,1.1,0.6,1.8,0.6c0.3,0,0.6,0,0.8-0.1
		c0.2-0.1,0.5-0.2,0.7-0.3L41.6,115z M44,109.3c0.3,0,0.6-0.1,0.8-0.3c0.2-0.2,0.3-0.5,0.3-0.8c0-0.3-0.1-0.5-0.3-0.7
		c-0.2-0.2-0.5-0.3-0.8-0.3c-0.3,0-0.6,0.1-0.8,0.3c0,0,0,0,0,0c-0.4,0.4-0.4,1,0,1.4C43.4,109.2,43.7,109.3,44,109.3z M43.2,116.6
		h1.9v-6.4h-1.9V116.6z M50.4,115c-0.2,0.2-0.5,0.2-0.8,0.2c-0.2,0-0.4-0.1-0.6-0.2c-0.1-0.2-0.2-0.4-0.2-0.6v-2.6h1.6v-1.4h-1.6
		v-1.6h-1.9v1.6h-1v1.4h1v2.6c0,0.6,0.2,1.3,0.6,1.7c0.5,0.4,1.1,0.6,1.8,0.6c0.3,0,0.6,0,0.8-0.1c0.2-0.1,0.5-0.2,0.7-0.3L50.4,115
		z M51.9,116.6h1.9v-8.9h-1.9V116.6z M61.7,113.5c0-0.6-0.1-1.2-0.4-1.8c-0.3-0.5-0.7-0.9-1.2-1.2c-0.5-0.3-1.1-0.4-1.7-0.4
		c-0.6,0-1.2,0.1-1.8,0.4c-0.5,0.3-0.9,0.7-1.2,1.2c-0.3,0.5-0.5,1.1-0.4,1.7c0,0.6,0.1,1.2,0.4,1.7c0.3,0.5,0.8,0.9,1.3,1.2
		c0.6,0.3,1.3,0.4,1.9,0.4c1,0.1,2-0.3,2.6-1.1l-1-1.1c-0.2,0.2-0.5,0.4-0.7,0.5c-0.3,0.1-0.6,0.2-0.9,0.2c-0.4,0-0.9-0.1-1.2-0.4
		c-0.3-0.2-0.5-0.6-0.6-0.9h4.8C61.7,113.6,61.7,113.5,61.7,113.5z M58.3,111.5c0.4,0,0.8,0.1,1.1,0.4c0.3,0.2,0.5,0.6,0.5,1h-3.2
		c0-0.4,0.2-0.7,0.5-1C57.6,111.6,58,111.5,58.3,111.5z M64.5,112.1c0.2-0.2,0.3-0.5,0.3-0.8c0-0.3-0.1-0.6-0.3-0.8
		c-0.5-0.4-1.2-0.4-1.7,0c-0.2,0.2-0.3,0.5-0.3,0.8c0,0.3,0.1,0.6,0.3,0.8C63.3,112.6,64,112.6,64.5,112.1z M64.5,116.4
		c0.2-0.2,0.3-0.5,0.3-0.8c0-0.3-0.1-0.6-0.3-0.8c-0.5-0.4-1.2-0.4-1.7,0c-0.2,0.2-0.3,0.5-0.3,0.8c0,0.3,0.1,0.6,0.3,0.8
		C63.3,116.8,64,116.8,64.5,116.4z M67.3,109.8l0.5-1.9h-1.2l-0.7,1.7c-0.1,0.2-0.2,0.5-0.3,0.7c0,0.2,0,0.3,0,0.5
		c0,0.3,0.1,0.6,0.3,0.8c0.5,0.4,1.2,0.4,1.7,0c0.2-0.2,0.3-0.5,0.3-0.8c0-0.2-0.1-0.4-0.2-0.6C67.6,109.9,67.5,109.8,67.3,109.8z
		 M70.1,109.8l0.5-1.9h-1.2l-0.7,1.7c-0.1,0.2-0.2,0.5-0.3,0.7c0,0.2,0,0.3,0,0.5c0,0.3,0.1,0.6,0.3,0.8c0.5,0.4,1.2,0.4,1.7,0
		c0.2-0.2,0.3-0.5,0.3-0.8c0-0.2-0.1-0.4-0.2-0.6C70.5,109.9,70.3,109.8,70.1,109.8z M77,110.3l-1.8,4.4l-1.8-4.4h-1.9l2.8,6.5l0,0
		c-0.1,0.2-0.3,0.5-0.5,0.6c-0.2,0.1-0.4,0.2-0.6,0.2c-0.2,0-0.4,0-0.6-0.1c-0.2-0.1-0.3-0.2-0.5-0.3l-0.7,1.3
		c0.2,0.2,0.5,0.3,0.8,0.4c0.3,0.1,0.7,0.2,1,0.2c0.6,0,1.1-0.1,1.6-0.4c0.5-0.4,0.9-0.9,1.1-1.6l2.9-6.8L77,110.3z M84.3,116.3
		c0.5-0.3,0.9-0.7,1.2-1.2c0.6-1.1,0.6-2.4,0-3.4c-0.3-0.5-0.7-0.9-1.2-1.2c-1.1-0.6-2.5-0.6-3.6,0c-0.5,0.3-1,0.7-1.3,1.2
		c-0.6,1.1-0.6,2.4,0,3.4c0.3,0.5,0.7,0.9,1.3,1.2C81.8,116.9,83.1,116.9,84.3,116.3z M82.4,115.3c-0.4,0-0.9-0.2-1.2-0.5
		c-0.7-0.7-0.7-1.9,0-2.6c0.3-0.3,0.7-0.5,1.2-0.5c0.4,0,0.9,0.2,1.2,0.5c0.6,0.8,0.6,1.8,0,2.6C83.3,115.1,82.9,115.3,82.4,115.3z
		 M92.1,110.2v0.8c-0.5-0.6-1.3-1-2.1-0.9c-0.6,0-1.1,0.1-1.6,0.4c-0.5,0.2-0.9,0.6-1.2,1.1c-0.6,1-0.6,2.2,0,3.3
		c0.3,0.5,0.7,0.8,1.2,1.1c0.5,0.3,1.1,0.4,1.6,0.4c0.7,0,1.4-0.3,1.9-0.8v0.3c0,0.5-0.1,1-0.5,1.3c-0.4,0.3-0.9,0.5-1.4,0.4
		c-0.4,0-0.8-0.1-1.2-0.2c-0.4-0.1-0.7-0.3-1-0.5l-0.7,1.3c0.4,0.3,0.9,0.5,1.4,0.7c0.6,0.2,1.2,0.2,1.8,0.2c1,0.1,1.9-0.2,2.7-0.9
		c0.7-0.7,1-1.7,0.9-2.6v-5.3L92.1,110.2z M91.5,114.3c-0.3,0.3-0.7,0.4-1.1,0.4c-0.5,0-0.9-0.1-1.3-0.4c0,0,0,0,0,0
		c-0.6-0.6-0.6-1.6,0-2.3c0.3-0.3,0.8-0.4,1.2-0.4c0.4,0,0.9,0.1,1.2,0.4C92.1,112.7,92.1,113.7,91.5,114.3L91.5,114.3z M98.2,110.1
		c-0.5,0-1,0.1-1.5,0.2c-0.5,0.1-0.9,0.3-1.3,0.6l0.7,1.3c0.3-0.2,0.5-0.3,0.8-0.4c0.3-0.1,0.7-0.2,1-0.2c0.4,0,0.8,0.1,1.1,0.3
		c0.3,0.2,0.4,0.6,0.4,0.9h-1.5c-0.7,0-1.5,0.2-2.1,0.6c-0.4,0.3-0.7,0.9-0.7,1.4c0,0.4,0.1,0.7,0.3,1c0.2,0.3,0.5,0.6,0.8,0.7
		c0.4,0.2,0.8,0.3,1.3,0.3c0.8,0.1,1.5-0.3,1.9-0.9v0.8h1.7V113c0.1-0.8-0.2-1.6-0.8-2.1C99.8,110.4,99,110.1,98.2,110.1z
		 M98.8,115.2c-0.2,0.2-0.5,0.3-0.8,0.3c-0.3,0-0.5-0.1-0.8-0.2c-0.2-0.1-0.3-0.3-0.3-0.6c0-0.5,0.4-0.8,1.1-0.8h1.2v0.7
		C99.3,114.9,99.1,115.2,98.8,115.2L98.8,115.2z M109.4,116.7c0.6,0,1.2-0.1,1.8-0.4c0.5-0.3,0.9-0.7,1.1-1.2l-1.4-0.8
		c-0.3,0.5-0.8,0.9-1.4,0.9c-0.5,0-0.9-0.2-1.2-0.5c-0.7-0.7-0.7-1.9,0-2.6c0.3-0.3,0.8-0.5,1.2-0.5c0.6,0,1.2,0.3,1.4,0.9l1.4-0.8
		c-0.2-0.5-0.6-0.9-1.1-1.2c-0.5-0.3-1.2-0.4-1.8-0.4c-0.6,0-1.3,0.1-1.8,0.4c-0.5,0.3-1,0.7-1.3,1.2c-0.6,1.1-0.6,2.4,0,3.4
		c0.3,0.5,0.8,0.9,1.3,1.2C108.1,116.6,108.7,116.7,109.4,116.7z M113.3,116.6h1.9v-8.9h-1.9V116.6z M119.5,110.1
		c-0.5,0-1,0.1-1.5,0.2c-0.5,0.1-0.9,0.3-1.3,0.6l0.7,1.3c0.3-0.2,0.5-0.3,0.8-0.4c0.3-0.1,0.7-0.2,1-0.2c0.4,0,0.8,0.1,1.1,0.3
		c0.3,0.2,0.4,0.6,0.4,0.9h-1.5c-0.7,0-1.5,0.2-2.1,0.6c-0.4,0.3-0.7,0.9-0.7,1.4c0,0.4,0.1,0.7,0.3,1c0.2,0.3,0.5,0.6,0.8,0.7
		c0.4,0.2,0.8,0.3,1.3,0.3c0.8,0.1,1.5-0.3,1.9-0.9v0.8h1.7V113c0.1-0.8-0.2-1.6-0.8-2.1C121.1,110.4,120.3,110.1,119.5,110.1z
		 M120.2,115.2c-0.2,0.2-0.5,0.3-0.8,0.3c-0.3,0-0.5-0.1-0.8-0.2c-0.2-0.1-0.3-0.3-0.3-0.6c0-0.5,0.4-0.8,1.1-0.8h1.3v0.7
		C120.6,114.9,120.4,115.2,120.2,115.2L120.2,115.2z M126.4,116.8c0.6,0,1.1-0.1,1.6-0.3c0.4-0.1,0.8-0.4,1.1-0.7
		c0.2-0.3,0.4-0.7,0.4-1.1c0-0.4-0.1-0.8-0.4-1.1c-0.2-0.3-0.5-0.4-0.9-0.5c-0.4-0.1-0.9-0.2-1.3-0.3c-0.4,0-0.7-0.1-1-0.2
		c-0.2,0-0.3-0.2-0.3-0.4c0-0.2,0.1-0.4,0.3-0.4c0.3-0.1,0.6-0.2,0.9-0.2c0.6,0,1.3,0.2,1.8,0.5l0.6-1.3c-0.3-0.2-0.7-0.3-1.1-0.4
		c-0.4-0.1-0.9-0.2-1.4-0.2c-0.5,0-1.1,0.1-1.6,0.3c-0.4,0.1-0.8,0.4-1,0.7c-0.2,0.3-0.4,0.7-0.4,1.1c0,0.4,0.1,0.8,0.4,1.1
		c0.2,0.3,0.6,0.4,0.9,0.5c0.4,0.1,0.9,0.2,1.3,0.3c0.3,0,0.7,0.1,1,0.2c0.2,0,0.3,0.2,0.3,0.4c0,0.4-0.4,0.6-1.2,0.6
		c-0.4,0-0.8-0.1-1.2-0.2c-0.4-0.1-0.7-0.2-1-0.4l-0.6,1.3c0.4,0.2,0.8,0.4,1.2,0.5C125.3,116.7,125.9,116.8,126.4,116.8z
		 M132.7,116.8c0.6,0,1.1-0.1,1.6-0.3c0.4-0.1,0.8-0.4,1.1-0.7c0.2-0.3,0.4-0.7,0.4-1.1c0-0.4-0.1-0.8-0.4-1.1
		c-0.2-0.3-0.5-0.4-0.9-0.5c-0.4-0.1-0.9-0.2-1.3-0.3c-0.3-0.1-0.7-0.2-1-0.3c-0.2,0-0.3-0.2-0.3-0.4c0-0.2,0.1-0.4,0.3-0.4
		c0.3-0.1,0.6-0.2,0.9-0.2c0.6,0,1.3,0.2,1.8,0.5l0.6-1.3c-0.3-0.2-0.7-0.3-1.1-0.4c-0.4-0.1-0.9-0.2-1.4-0.2
		c-0.5,0-1.1,0.1-1.6,0.3c-0.4,0.1-0.8,0.4-1,0.7c-0.2,0.3-0.4,0.7-0.4,1.1c0,0.4,0.1,0.8,0.4,1.1c0.2,0.3,0.6,0.4,0.9,0.5
		c0.4,0.1,0.9,0.2,1.3,0.3c0.3,0,0.7,0.1,1,0.2c0.2,0,0.3,0.2,0.3,0.4c0,0.4-0.4,0.6-1.2,0.6c-0.4,0-0.8-0.1-1.2-0.2
		c-0.4-0.1-0.7-0.2-1-0.4L130,116c0.4,0.2,0.8,0.4,1.2,0.5C131.7,116.7,132.2,116.8,132.7,116.8z M137.6,107.7
		c-0.3,0-0.6,0.1-0.8,0.3c-0.2,0.2-0.3,0.5-0.3,0.8c0,0.2,0.1,0.4,0.2,0.6c0.1,0.2,0.3,0.3,0.5,0.4l-0.5,1.9h1.2l0.7-1.7
		c0.1-0.2,0.2-0.5,0.3-0.7c0-0.2,0-0.3,0-0.5c0-0.3-0.1-0.6-0.3-0.8C138.2,107.8,137.9,107.7,137.6,107.7z M140.5,107.7
		c-0.3,0-0.6,0.1-0.8,0.3c-0.2,0.2-0.3,0.5-0.3,0.8c0,0.2,0.1,0.4,0.2,0.6c0.1,0.2,0.3,0.3,0.5,0.4l-0.5,1.9h1.2l0.7-1.7
		c0.1-0.2,0.2-0.5,0.3-0.7c0-0.2,0-0.3,0-0.5c0-0.3-0.1-0.6-0.3-0.8C141,107.8,140.8,107.7,140.5,107.7z M143.4,114.4
		c-0.3,0-0.6,0.1-0.8,0.3c-0.2,0.2-0.3,0.5-0.3,0.8c0,0.2,0.1,0.4,0.2,0.6c0.1,0.2,0.3,0.3,0.5,0.4l-0.5,1.9h1.2l0.7-1.7
		c0.1-0.2,0.2-0.5,0.3-0.7c0-0.2,0-0.3,0-0.5c0-0.3-0.1-0.6-0.3-0.8C143.9,114.6,143.7,114.5,143.4,114.4z M38,122.1v3.1
		c-0.5-0.5-1.2-0.8-1.9-0.8c-0.6,0-1.1,0.1-1.6,0.4c-0.5,0.3-0.9,0.7-1.1,1.1c-0.5,1.1-0.5,2.4,0,3.5c0.3,0.5,0.7,0.9,1.1,1.1
		c0.5,0.3,1.1,0.4,1.6,0.4c0.7,0,1.5-0.3,1.9-0.8v0.7h1.8v-8.9L38,122.1z M35.1,129c-0.7-0.7-0.7-1.9,0-2.6c0.7-0.6,1.7-0.6,2.4,0
		c0.7,0.7,0.7,1.9,0,2.6C36.8,129.7,35.8,129.7,35.1,129z M47.8,127.7c0-0.6-0.1-1.2-0.4-1.8c-0.3-0.5-0.7-0.9-1.2-1.2
		c-0.5-0.3-1.1-0.4-1.7-0.4c-0.6,0-1.2,0.1-1.8,0.4c-0.5,0.3-0.9,0.7-1.2,1.2c-0.3,0.5-0.5,1.1-0.4,1.7c0,0.6,0.1,1.2,0.4,1.7
		c0.3,0.5,0.8,0.9,1.3,1.2c0.6,0.3,1.3,0.4,1.9,0.4c1,0.1,2-0.3,2.6-1l-1-1.1c-0.2,0.2-0.5,0.4-0.7,0.5c-0.3,0.1-0.6,0.1-0.9,0.1
		c-0.4,0-0.9-0.1-1.2-0.4c-0.3-0.2-0.5-0.6-0.6-0.9h4.9C47.8,127.9,47.8,127.7,47.8,127.7z M44.4,125.8c0.4,0,0.8,0.1,1.1,0.4
		c0.3,0.2,0.5,0.6,0.5,1h-3.2c0-0.4,0.2-0.7,0.5-1C43.7,125.9,44.1,125.8,44.4,125.8z M51.2,131.1c0.6,0,1.1-0.1,1.6-0.3
		c0.4-0.1,0.8-0.4,1.1-0.7c0.2-0.3,0.4-0.7,0.4-1.1c0-0.4-0.1-0.8-0.4-1.1c-0.2-0.3-0.5-0.4-0.9-0.5c-0.4-0.1-0.9-0.2-1.3-0.3
		c-0.4,0-0.7-0.1-1-0.2c-0.2,0-0.3-0.2-0.3-0.4c0-0.2,0.1-0.4,0.3-0.4c0.3-0.1,0.6-0.2,0.9-0.2c0.6,0,1.3,0.2,1.8,0.5L54,125
		c-0.3-0.2-0.7-0.3-1.1-0.4c-0.4-0.1-0.9-0.2-1.4-0.2c-0.5,0-1.1,0.1-1.6,0.3c-0.4,0.1-0.8,0.4-1,0.7c-0.2,0.3-0.4,0.7-0.4,1.1
		c0,0.4,0.1,0.8,0.4,1.1c0.2,0.3,0.6,0.4,0.9,0.5c0.4,0.1,0.9,0.2,1.3,0.3c0.3,0,0.7,0.1,1,0.2c0.2,0,0.3,0.2,0.3,0.4
		c0,0.4-0.4,0.6-1.2,0.6c-0.4,0-0.8-0.1-1.2-0.2c-0.4-0.1-0.7-0.2-1-0.4l-0.6,1.3c0.4,0.2,0.8,0.4,1.2,0.5
		C50.1,131,50.7,131.1,51.2,131.1z M58.5,131.1c0.6,0,1.2-0.1,1.8-0.4c0.5-0.3,0.9-0.7,1.1-1.2l-1.4-0.8c-0.3,0.5-0.8,0.9-1.4,0.9
		c-0.5,0-0.9-0.2-1.2-0.5c-0.7-0.7-0.7-1.9,0-2.6c0.3-0.3,0.7-0.5,1.2-0.5c0.6,0,1.2,0.3,1.4,0.9l1.4-0.8c-0.2-0.5-0.6-0.9-1.1-1.2
		c-0.5-0.3-1.2-0.4-1.8-0.4c-0.6,0-1.3,0.1-1.8,0.4c-0.5,0.3-1,0.7-1.3,1.2c-0.6,1.1-0.6,2.4,0,3.4c0.3,0.5,0.8,0.9,1.3,1.2
		C57.2,130.9,57.8,131.1,58.5,131.1z M64.1,125.4v-0.8h-1.8v6.4h1.9v-3c0-0.5,0.1-1,0.4-1.3c0.3-0.3,0.8-0.5,1.2-0.4h0.4v-1.7
		c-0.4,0-0.9,0.1-1.3,0.2C64.7,124.8,64.3,125,64.1,125.4z M68.4,123.7c0.3,0,0.6-0.1,0.8-0.3c0.2-0.2,0.3-0.5,0.3-0.8
		c0-0.3-0.1-0.5-0.3-0.7c-0.2-0.2-0.5-0.3-0.8-0.3c-0.3,0-0.6,0.1-0.8,0.3c0,0,0,0,0,0c-0.4,0.4-0.4,1,0,1.4
		C67.8,123.5,68.1,123.7,68.4,123.7z M67.6,130.9h1.9v-6.4h-1.9V130.9z M74.8,124.4c-0.7,0-1.5,0.3-1.9,0.8v-0.7H71v8.7h1.9v-3
		c0.5,0.5,1.2,0.8,1.9,0.8c0.6,0,1.1-0.1,1.6-0.4c0.5-0.3,0.9-0.7,1.1-1.1c0.5-1.1,0.5-2.4,0-3.5c-0.3-0.5-0.7-0.9-1.1-1.1
		C76,124.6,75.4,124.4,74.8,124.4z M73.4,129c-0.6-0.8-0.6-1.8,0-2.6c0.7-0.6,1.7-0.6,2.4,0c0.6,0.8,0.6,1.8,0,2.6
		C75.1,129.7,74,129.7,73.4,129z M83,129.3c-0.2,0.2-0.5,0.2-0.8,0.2c-0.2,0-0.4-0.1-0.6-0.2c-0.1-0.2-0.2-0.4-0.2-0.6v-2.6h1.6
		v-1.4h-1.6v-1.6h-1.9v1.6h-1v1.4h1v2.6c0,0.6,0.2,1.3,0.6,1.7c0.5,0.4,1.1,0.6,1.8,0.6c0.3,0,0.6,0,0.8-0.1
		c0.2-0.1,0.5-0.2,0.7-0.3L83,129.3z M85.3,123.7c0.3,0,0.6-0.1,0.8-0.3c0.2-0.2,0.3-0.5,0.3-0.8c0-0.3-0.1-0.5-0.3-0.7
		c-0.2-0.2-0.5-0.3-0.8-0.3c-0.3,0-0.6,0.1-0.8,0.3c0,0,0,0,0,0c-0.4,0.4-0.4,1,0,1.4C84.8,123.5,85,123.7,85.3,123.7z M84.5,131
		h1.9v-6.4h-1.9V131z M93,130.6c0.5-0.3,0.9-0.7,1.2-1.2c0.6-1.1,0.6-2.4,0-3.4c-0.3-0.5-0.7-0.9-1.2-1.2c-1.1-0.6-2.5-0.6-3.6,0
		c-0.5,0.3-1,0.7-1.3,1.2c-0.6,1.1-0.6,2.4,0,3.4c0.3,0.5,0.7,0.9,1.3,1.2C90.5,131.2,91.8,131.2,93,130.6z M91.2,129.6
		c-0.4,0-0.9-0.2-1.2-0.5c-0.7-0.7-0.7-1.9,0-2.6c0.3-0.3,0.7-0.5,1.2-0.5c0.4,0,0.9,0.2,1.2,0.5c0.6,0.7,0.6,1.8,0,2.6
		C92,129.4,91.6,129.6,91.2,129.6z M99.7,124.5c-0.4,0-0.8,0.1-1.2,0.2c-0.3,0.1-0.7,0.3-0.9,0.6v-0.8h-1.8v6.4h1.9v-3.2
		c0-0.5,0.1-0.9,0.4-1.3c0.3-0.3,0.6-0.4,1-0.4c0.4,0,0.7,0.1,1,0.4c0.2,0.3,0.4,0.7,0.3,1.1v3.4h1.9v-3.7c0.1-0.8-0.2-1.5-0.7-2.1
		C101.2,124.6,100.4,124.4,99.7,124.5z M105.7,126.5c0.2-0.2,0.3-0.5,0.3-0.8c0-0.3-0.1-0.6-0.3-0.8c-0.5-0.4-1.2-0.4-1.7,0
		c-0.2,0.2-0.3,0.5-0.3,0.8c0,0.3,0.1,0.6,0.3,0.8C104.5,126.9,105.2,126.9,105.7,126.5z M105.7,130.8c0.2-0.2,0.3-0.5,0.3-0.8
		c0-0.3-0.1-0.6-0.3-0.8c-0.5-0.4-1.2-0.4-1.7,0c-0.2,0.2-0.3,0.5-0.3,0.8c0,0.3,0.1,0.6,0.3,0.8
		C104.5,131.2,105.2,131.2,105.7,130.8z M111.8,124.1l0.5-1.9h-1.2l-0.7,1.7c-0.1,0.2-0.2,0.5-0.3,0.7c0,0.2,0,0.3,0,0.5
		c0,0.3,0.1,0.6,0.3,0.8c0.5,0.4,1.2,0.4,1.7,0c0.2-0.2,0.3-0.5,0.3-0.8c0-0.2-0.1-0.4-0.2-0.6C112.2,124.2,112,124.1,111.8,124.1z
		 M115.1,124.4c-0.1-0.2-0.3-0.3-0.5-0.3l0.5-1.9H114l-0.7,1.7c-0.1,0.2-0.2,0.5-0.3,0.7c0,0.2,0,0.3,0,0.5c0,0.3,0.1,0.6,0.3,0.8
		c0.5,0.4,1.2,0.4,1.7,0c0.2-0.2,0.3-0.5,0.3-0.8C115.3,124.8,115.3,124.6,115.1,124.4L115.1,124.4z M120.6,129.3
		c-0.2,0.2-0.5,0.2-0.8,0.2c-0.2,0-0.4-0.1-0.6-0.2c-0.1-0.2-0.2-0.4-0.2-0.6v-2.6h1.6v-1.4H119v-1.6h-1.9v1.6h-1v1.4h0.9v2.6
		c0,0.6,0.2,1.3,0.6,1.7c0.5,0.5,1.2,0.7,1.8,0.7c0.3,0,0.6,0,0.8-0.1c0.2-0.1,0.5-0.2,0.7-0.3L120.6,129.3z M125.9,124.4
		c-0.4,0-0.8,0.1-1.1,0.2c-0.3,0.1-0.6,0.3-0.9,0.6v-3.1h-1.9v8.9h1.9v-3.2c0-0.5,0.1-0.9,0.4-1.3c0.3-0.3,0.7-0.5,1.1-0.4
		c0.4,0,0.7,0.1,1,0.4c0.2,0.3,0.3,0.7,0.3,1.1v3.4h1.9v-3.7c0.1-0.8-0.2-1.5-0.7-2.1C127.3,124.7,126.7,124.4,125.9,124.4z
		 M136.6,127.7c0-0.6-0.1-1.2-0.4-1.8c-0.3-0.5-0.7-0.9-1.2-1.2c-0.5-0.3-1.1-0.4-1.7-0.4c-0.6,0-1.2,0.1-1.8,0.4
		c-0.5,0.3-0.9,0.7-1.2,1.2c-0.3,0.5-0.5,1.1-0.4,1.7c0,0.6,0.1,1.2,0.4,1.7c0.3,0.5,0.8,0.9,1.3,1.2c0.6,0.3,1.3,0.4,1.9,0.4
		c1,0.1,2-0.3,2.6-1l-1-1.1c-0.2,0.2-0.5,0.4-0.7,0.5c-0.3,0.1-0.6,0.2-0.9,0.2c-0.4,0-0.9-0.1-1.2-0.4c-0.3-0.2-0.5-0.6-0.6-0.9
		h4.9C136.6,127.9,136.6,127.7,136.6,127.7z M133.3,125.8c0.4,0,0.8,0.1,1.1,0.4c0.3,0.2,0.5,0.6,0.5,1h-3.2c0-0.4,0.2-0.7,0.5-1
		C132.5,125.9,132.9,125.8,133.3,125.8z M143.2,124.3c0-0.6,0.3-0.9,0.9-0.9c0.3,0,0.5,0.1,0.8,0.2l0.5-1.3
		c-0.2-0.1-0.4-0.2-0.6-0.3c-0.3,0-0.5,0-0.8,0c-0.7,0-1.3,0.2-1.8,0.6c-0.4,0.5-0.7,1.1-0.6,1.7v0.3h-1v1.4h1v4.9h1.9v-4.8h1.6
		v-1.4h-1.6L143.2,124.3z M150.6,124.5v3.2c0,0.5-0.1,0.9-0.4,1.3c-0.3,0.3-0.7,0.4-1.1,0.4c-0.9,0-1.3-0.5-1.3-1.6v-3.3h-1.9v3.6
		c-0.1,0.8,0.2,1.6,0.7,2.2c0.5,0.5,1.2,0.7,1.9,0.7c0.4,0,0.8-0.1,1.1-0.2c0.3-0.1,0.6-0.4,0.9-0.6v0.8h1.8v-6.4H150.6z
		 M157.8,124.5c-0.4,0-0.8,0.1-1.2,0.2c-0.3,0.1-0.7,0.3-0.9,0.6v-0.8h-1.8v6.4h1.9v-3.2c0-0.5,0.1-0.9,0.4-1.3
		c0.3-0.3,0.7-0.5,1.1-0.4c0.4,0,0.7,0.1,1,0.4c0.2,0.3,0.4,0.7,0.3,1.1v3.4h1.9v-3.7c0.1-0.8-0.2-1.5-0.7-2.1
		C159.3,124.6,158.6,124.4,157.8,124.5z M170.5,131h2.2l-2.9-3.7l2.7-2.7h-2.2l-2.7,2.6v-5h-1.9v8.8h1.9v-1.6l0.9-0.9L170.5,131z
		 M174.4,123.7c0.3,0,0.6-0.1,0.8-0.3c0.2-0.2,0.3-0.5,0.3-0.8c0-0.3-0.1-0.5-0.3-0.7c-0.2-0.2-0.5-0.3-0.8-0.3
		c-0.3,0-0.6,0.1-0.8,0.3c0,0,0,0,0,0c-0.4,0.4-0.4,1,0,1.4C173.8,123.5,174.1,123.7,174.4,123.7z M173.6,130.9h1.9v-6.4h-1.9V130.9
		z M180.8,124.5c-0.4,0-0.8,0.1-1.2,0.2c-0.3,0.1-0.7,0.3-0.9,0.6v-0.8h-1.8v6.4h1.9v-3.2c0-0.5,0.1-0.9,0.4-1.3
		c0.3-0.3,0.7-0.5,1.1-0.4c0.4,0,0.7,0.1,1,0.4c0.2,0.3,0.4,0.7,0.3,1.1v3.4h1.9v-3.7c0.1-0.8-0.2-1.5-0.7-2.1
		C182.4,124.6,181.6,124.4,180.8,124.5z M190.2,122.1v3.1c-0.5-0.5-1.2-0.8-1.9-0.8c-0.6,0-1.1,0.1-1.6,0.4
		c-0.5,0.3-0.9,0.7-1.1,1.1c-0.5,1.1-0.5,2.4,0,3.5c0.3,0.5,0.7,0.9,1.1,1.1c0.5,0.3,1.1,0.4,1.6,0.4c0.7,0,1.5-0.3,1.9-0.8v0.7h1.8
		v-8.9L190.2,122.1z M189.7,129.1c-0.7,0.6-1.7,0.6-2.4,0c-0.7-0.7-0.7-1.9,0-2.6c0.7-0.6,1.7-0.6,2.4,0
		C190.3,127.2,190.3,128.3,189.7,129.1L189.7,129.1z M194.4,122c-0.3,0-0.6,0.1-0.8,0.3c-0.2,0.2-0.3,0.5-0.3,0.8
		c0,0.2,0.1,0.4,0.2,0.6c0.1,0.2,0.3,0.3,0.5,0.4l-0.5,1.9h1.2l0.7-1.7c0.1-0.2,0.2-0.5,0.3-0.7c0-0.2,0-0.3,0-0.5
		c0-0.3-0.1-0.6-0.3-0.8C195,122.1,194.7,122,194.4,122z M197.2,122c-0.3,0-0.6,0.1-0.8,0.3c-0.2,0.2-0.3,0.5-0.3,0.8
		c0,0.2,0.1,0.4,0.2,0.6c0.1,0.2,0.3,0.3,0.5,0.4l-0.5,1.9h1.2l0.7-1.7c0.1-0.2,0.2-0.5,0.3-0.7c0-0.2,0-0.3,0-0.5
		c0-0.3-0.1-0.6-0.3-0.8C197.8,122.1,197.5,122,197.2,122z M200.1,128.7c-0.3,0-0.6,0.1-0.8,0.3c-0.2,0.2-0.3,0.5-0.3,0.8
		c0,0.2,0.1,0.4,0.2,0.6c0.1,0.2,0.3,0.3,0.5,0.4l-0.5,1.9h1.2l0.7-1.7c0.1-0.2,0.2-0.5,0.3-0.7c0-0.2,0-0.3,0-0.5
		c0-0.3-0.1-0.6-0.3-0.8C200.7,128.8,200.4,128.7,200.1,128.7z M36.8,138.7c-0.7,0-1.5,0.3-1.9,0.8v-0.7h-1.8v8.7h1.9v-3
		c0.5,0.5,1.2,0.8,1.9,0.8c0.6,0,1.1-0.1,1.6-0.4c0.5-0.3,0.9-0.7,1.1-1.1c0.5-1.1,0.5-2.4,0-3.5c-0.3-0.5-0.7-0.9-1.1-1.1
		C38.1,138.8,37.5,138.7,36.8,138.7z M35.5,143.3c-0.6-0.8-0.6-1.8,0-2.6c0.7-0.6,1.7-0.6,2.4,0c0.6,0.8,0.6,1.8,0,2.6
		C37.2,144,36.1,144,35.5,143.3z M43.2,139.7v-0.8h-1.8v6.4h1.9v-3c0-0.5,0.1-1,0.4-1.3c0.3-0.3,0.8-0.5,1.2-0.4h0.4v-1.7
		c-0.4,0-0.9,0.1-1.3,0.2C43.8,139.1,43.4,139.4,43.2,139.7z M47.5,138c0.3,0,0.6-0.1,0.8-0.3c0.2-0.2,0.3-0.5,0.3-0.8
		c0-0.3-0.1-0.5-0.3-0.7c-0.2-0.2-0.5-0.3-0.8-0.3c-0.3,0-0.6,0.1-0.8,0.3c0,0,0,0,0,0c-0.4,0.4-0.4,1,0,1.4
		C46.9,137.9,47.2,138,47.5,138z M46.7,145.2h1.9v-6.4h-1.9V145.2z M53.3,145.4c0.6,0,1.2-0.1,1.8-0.4c0.5-0.3,0.9-0.7,1.1-1.2
		l-1.4-0.8c-0.3,0.5-0.8,0.9-1.4,0.9c-0.5,0-0.9-0.2-1.2-0.5c-0.7-0.7-0.7-1.9,0-2.6c0.3-0.3,0.8-0.5,1.2-0.5c0.6,0,1.2,0.3,1.4,0.9
		l1.4-0.8c-0.2-0.5-0.6-0.9-1.1-1.2c-0.5-0.3-1.2-0.4-1.8-0.4c-0.6,0-1.3,0.1-1.8,0.4c-0.5,0.3-1,0.7-1.3,1.2
		c-0.6,1.1-0.6,2.4,0,3.4c0.3,0.5,0.8,0.9,1.3,1.2C52,145.2,52.6,145.4,53.3,145.4z M63.4,142c0-0.6-0.1-1.2-0.4-1.8
		c-0.3-0.5-0.7-0.9-1.2-1.2c-0.5-0.3-1.1-0.4-1.7-0.4c-0.6,0-1.2,0.1-1.8,0.4c-0.5,0.3-0.9,0.7-1.2,1.2c-0.3,0.5-0.5,1.1-0.4,1.7
		c0,0.6,0.1,1.2,0.4,1.7c0.3,0.5,0.8,0.9,1.3,1.2c0.6,0.3,1.3,0.4,1.9,0.4c1,0.1,2-0.3,2.6-1l-1-1.1c-0.2,0.2-0.5,0.4-0.7,0.5
		c-0.3,0.1-0.6,0.2-0.9,0.2c-0.4,0-0.9-0.1-1.2-0.4c-0.3-0.2-0.5-0.6-0.6-0.9h4.8C63.4,142.3,63.4,142,63.4,142z M60.1,140.1
		c0.4,0,0.8,0.1,1.1,0.4c0.3,0.2,0.5,0.6,0.5,1h-3.2c0-0.4,0.2-0.7,0.5-1C59.3,140.3,59.7,140.1,60.1,140.1z M66.2,140.7
		c0.2-0.2,0.3-0.5,0.3-0.8c0-0.3-0.1-0.6-0.3-0.8c-0.5-0.4-1.2-0.4-1.7,0c-0.2,0.2-0.3,0.5-0.3,0.8c0,0.3,0.1,0.6,0.3,0.8
		C65,141.2,65.7,141.2,66.2,140.7z M66.2,145c0.2-0.2,0.3-0.5,0.3-0.8c0-0.3-0.1-0.6-0.3-0.8c-0.5-0.4-1.2-0.4-1.7,0
		c-0.2,0.2-0.3,0.5-0.3,0.8c0,0.3,0.1,0.6,0.3,0.8C65,145.5,65.7,145.5,66.2,145z M72.3,138.4l0.5-1.9h-1.2l-0.7,1.7
		c-0.1,0.2-0.1,0.5-0.2,0.7c0,0.2,0,0.3,0,0.5c0,0.3,0.1,0.6,0.3,0.8c0.5,0.4,1.2,0.4,1.7,0c0.2-0.2,0.3-0.5,0.3-0.8
		c0-0.2-0.1-0.4-0.2-0.6C72.7,138.5,72.5,138.4,72.3,138.4z M75.6,138.7c-0.1-0.1-0.3-0.3-0.5-0.3l0.5-1.9h-1.2l-0.7,1.7
		c-0.1,0.2-0.2,0.5-0.3,0.7c0,0.2,0,0.3,0,0.5c0,0.3,0.1,0.6,0.3,0.8c0.5,0.4,1.2,0.4,1.7,0c0.2-0.2,0.3-0.5,0.3-0.8
		C75.9,139.1,75.8,138.9,75.6,138.7L75.6,138.7z M76.8,136.9v1.6h1.6v6.8h1.9v-8.4L76.8,136.9z M84.4,143.7l1.9-1.8
		c0.4-0.4,0.8-0.8,1.1-1.4c0.2-0.4,0.3-0.8,0.3-1.3c0-0.5-0.1-0.9-0.4-1.3c-0.3-0.4-0.7-0.7-1.1-0.9c-0.5-0.2-1.1-0.3-1.6-0.3
		c-0.7,0-1.3,0.1-1.9,0.4c-0.5,0.2-1,0.6-1.3,1.1l1.4,0.9c0.2-0.3,0.4-0.5,0.7-0.6c0.3-0.1,0.7-0.2,1-0.2c0.4,0,0.7,0.1,1,0.3
		c0.2,0.2,0.3,0.5,0.3,0.8c0,0.2-0.1,0.5-0.2,0.7c-0.2,0.3-0.4,0.6-0.7,0.8l-3.2,3v1.2H88v-1.6L84.4,143.7z M90.9,145
		c0.2-0.2,0.3-0.5,0.3-0.8c0-0.3-0.1-0.6-0.3-0.8c-0.5-0.4-1.2-0.4-1.7,0c-0.2,0.2-0.3,0.5-0.3,0.8c0,0.3,0.1,0.6,0.3,0.8
		C89.7,145.5,90.4,145.5,90.9,145z M97.3,144.9c0.6-0.4,1-0.9,1.3-1.5c0.6-1.5,0.6-3.1,0-4.6c-0.3-0.6-0.7-1.1-1.3-1.5
		c-1.1-0.7-2.6-0.7-3.7,0c-0.6,0.4-1,0.9-1.3,1.5c-0.6,1.5-0.6,3.1,0,4.6c0.3,0.6,0.7,1.1,1.3,1.5C94.8,145.6,96.2,145.6,97.3,144.9
		z M96.2,143.5c-0.7,0.4-1.5,0.2-2-0.4c-0.6-1.3-0.6-2.8,0-4c0.1-0.2,0.3-0.3,0.4-0.4c0.7-0.4,1.5-0.2,2,0.4c0.6,1.3,0.6,2.8,0,4
		C96.5,143.3,96.4,143.4,96.2,143.5z M105.4,144.9c0.6-0.4,1-0.9,1.3-1.5c0.6-1.5,0.6-3.1,0-4.6c-0.3-0.6-0.7-1.1-1.3-1.5
		c-1.1-0.7-2.6-0.7-3.7,0c-0.6,0.4-1,0.9-1.3,1.5c-0.6,1.5-0.6,3.1,0,4.6c0.3,0.6,0.7,1.1,1.3,1.5
		C102.9,145.6,104.3,145.6,105.4,144.9z M104.3,143.5c-0.7,0.4-1.5,0.2-2-0.4c-0.6-1.3-0.6-2.8,0-4c0.1-0.2,0.3-0.3,0.4-0.4
		c0.7-0.4,1.5-0.2,2,0.4c0.6,1.3,0.6,2.8,0,4C104.6,143.3,104.5,143.4,104.3,143.5z M109.2,136.3c-0.3,0-0.6,0.1-0.8,0.3
		c-0.2,0.2-0.3,0.5-0.3,0.8c0,0.2,0.1,0.4,0.2,0.6c0.1,0.2,0.3,0.3,0.5,0.4l-0.5,1.9h1.2l0.7-1.7c0.1-0.2,0.2-0.5,0.3-0.7
		c0-0.2,0-0.3,0-0.5c0-0.3-0.1-0.6-0.3-0.8C109.8,136.4,109.5,136.3,109.2,136.3z M112.1,136.3c-0.3,0-0.6,0.1-0.8,0.3
		c-0.2,0.2-0.3,0.5-0.3,0.8c0,0.2,0.1,0.4,0.2,0.6c0.1,0.2,0.3,0.3,0.5,0.4l-0.5,1.9h1.2l0.7-1.7c0.1-0.2,0.2-0.5,0.3-0.7
		c0-0.2,0-0.3,0-0.5c0-0.3-0.1-0.6-0.3-0.8C112.6,136.4,112.4,136.3,112.1,136.3z M115,143c-0.3,0-0.6,0.1-0.8,0.3
		c-0.2,0.2-0.3,0.5-0.3,0.8c0,0.2,0.1,0.4,0.2,0.6c0.1,0.2,0.3,0.3,0.5,0.4l-0.5,1.9h1.2l0.7-1.7c0.1-0.2,0.2-0.5,0.3-0.7
		c0-0.2,0-0.3,0-0.5c0-0.3-0.1-0.6-0.3-0.8C115.5,143.1,115.2,143,115,143z M34.9,154v-0.8h-1.8v6.4h1.9v-3c0-0.5,0.1-1,0.4-1.3
		c0.3-0.3,0.8-0.5,1.2-0.4h0.4v-1.7c-0.4,0-0.9,0.1-1.3,0.2C35.5,153.4,35.1,153.7,34.9,154z M44.6,156.3c0-0.6-0.1-1.2-0.4-1.8
		c-0.3-0.5-0.7-0.9-1.2-1.2c-0.5-0.3-1.1-0.4-1.7-0.4c-0.6,0-1.2,0.1-1.8,0.4c-0.5,0.3-0.9,0.7-1.2,1.2c-0.3,0.5-0.5,1.1-0.4,1.7
		c0,0.6,0.1,1.2,0.4,1.7c0.3,0.5,0.8,0.9,1.3,1.2c0.6,0.3,1.3,0.4,1.9,0.4c1,0.1,2-0.3,2.6-1l-1-1.1c-0.2,0.2-0.5,0.4-0.7,0.5
		c-0.3,0.1-0.6,0.2-0.9,0.2c-0.4,0-0.9-0.1-1.2-0.4c-0.3-0.2-0.5-0.6-0.6-0.9h4.8C44.6,156.6,44.6,156.3,44.6,156.3z M40.2,154.8
		c0.3-0.2,0.7-0.4,1-0.4c0.4,0,0.8,0.1,1.1,0.4c0.3,0.2,0.5,0.6,0.5,1h-3.2C39.7,155.4,39.9,155.1,40.2,154.8L40.2,154.8z M54,153.1
		c-0.5,0-0.9,0.1-1.3,0.3c-0.4,0.2-0.7,0.4-1,0.8c-0.2-0.3-0.5-0.6-0.9-0.8c-0.4-0.2-0.8-0.3-1.2-0.3c-0.4,0-0.8,0.1-1.1,0.2
		c-0.3,0.1-0.6,0.4-0.9,0.6v-0.7h-2v6.4h1.9v-3.2c0-0.5,0.1-0.9,0.4-1.3c0.3-0.3,0.6-0.4,1-0.4c0.8,0,1.2,0.5,1.2,1.5v3.4H52v-3.2
		c0-0.5,0.1-0.9,0.4-1.3c0.3-0.3,0.6-0.4,1-0.4c0.3,0,0.7,0.1,0.9,0.4c0.2,0.3,0.3,0.7,0.3,1.1v3.4h1.9v-3.7
		c0.1-0.8-0.2-1.5-0.7-2.1C55.4,153.3,54.7,153,54,153.1z M60.9,153c-0.5,0-1,0.1-1.5,0.2c-0.5,0.1-0.9,0.3-1.3,0.6l0.6,1.4
		c0.3-0.2,0.5-0.3,0.8-0.4c0.3-0.1,0.7-0.2,1-0.2c0.4,0,0.8,0.1,1.1,0.3c0.3,0.2,0.4,0.6,0.4,0.9h-1.5c-0.7-0.1-1.5,0.1-2.1,0.5
		c-0.4,0.3-0.7,0.9-0.7,1.4c0,0.4,0.1,0.7,0.3,1c0.2,0.3,0.5,0.6,0.8,0.7c0.4,0.2,0.8,0.3,1.3,0.3c0.8,0.1,1.5-0.3,1.9-0.9v0.8h1.7
		v-3.7c0.1-0.8-0.2-1.6-0.8-2.1C62.5,153.2,61.7,153,60.9,153z M61.6,158.2c-0.3,0.2-0.6,0.2-0.9,0.2c-0.3,0-0.5-0.1-0.8-0.2
		c-0.2-0.1-0.3-0.3-0.3-0.6c0-0.5,0.4-0.8,1.1-0.8h1.3v0.7C62,157.8,61.8,158,61.6,158.2L61.6,158.2z M66.6,152.3
		c0.3,0,0.6-0.1,0.8-0.3c0.2-0.2,0.3-0.5,0.3-0.8c0-0.3-0.1-0.5-0.3-0.7c-0.2-0.2-0.5-0.3-0.8-0.3c-0.3,0-0.6,0.1-0.8,0.3
		c0,0,0,0,0,0c-0.4,0.4-0.4,1,0,1.4C66,152.2,66.3,152.3,66.6,152.3z M65.8,159.6h1.9v-6.4h-1.9V159.6z M73,153.1
		c-0.4,0-0.8,0.1-1.2,0.2c-0.3,0.1-0.7,0.3-0.9,0.6v-0.8h-1.8v6.4H71v-3.2c0-0.5,0.1-0.9,0.4-1.3c0.3-0.3,0.7-0.5,1.1-0.4
		c0.4,0,0.7,0.1,1,0.4c0.2,0.3,0.4,0.7,0.3,1.1v3.4h1.9v-3.7c0.1-0.8-0.2-1.5-0.7-2.1C74.5,153.2,73.7,153,73,153.1z M78.4,152.3
		c0.3,0,0.6-0.1,0.8-0.3c0.2-0.2,0.3-0.5,0.3-0.8c0-0.3-0.1-0.5-0.3-0.7c-0.2-0.2-0.5-0.3-0.8-0.3c-0.3,0-0.6,0.1-0.8,0.3
		c0,0,0,0,0,0c-0.4,0.4-0.4,1,0,1.4C77.8,152.2,78.1,152.3,78.4,152.3z M77.6,159.6h1.9v-6.4h-1.9V159.6z M84.8,153.1
		c-0.4,0-0.8,0.1-1.2,0.2c-0.3,0.1-0.7,0.3-0.9,0.6v-0.8h-1.8v6.4h1.9v-3.2c0-0.5,0.1-0.9,0.4-1.3c0.3-0.3,0.7-0.5,1.1-0.4
		c0.4,0,0.7,0.1,1,0.4c0.2,0.3,0.4,0.7,0.3,1.1v3.4h1.9v-3.7c0.1-0.8-0.2-1.5-0.7-2.1C86.3,153.2,85.6,153,84.8,153.1z M94.3,153.2
		v0.8c-0.5-0.6-1.3-1-2.1-0.9c-0.6,0-1.1,0.1-1.6,0.4c-0.5,0.2-0.9,0.6-1.2,1.1c-0.6,1-0.6,2.2,0,3.3c0.3,0.5,0.7,0.8,1.2,1.1
		c0.5,0.3,1.1,0.4,1.6,0.4c0.7,0,1.4-0.3,1.9-0.8v0.3c0,0.5-0.1,1-0.5,1.3c-0.4,0.3-0.9,0.5-1.4,0.4c-0.4,0-0.8-0.1-1.2-0.2
		c-0.4-0.1-0.7-0.3-1-0.5l-0.7,1.3c0.4,0.3,0.9,0.5,1.4,0.7c0.6,0.2,1.2,0.2,1.8,0.2c1,0.1,1.9-0.2,2.7-0.9c0.7-0.7,1-1.7,0.9-2.6
		v-5.3H94.3z M93.7,157.3c-0.3,0.3-0.8,0.5-1.2,0.4c-0.4,0-0.9-0.1-1.2-0.4c0,0,0,0,0,0c-0.6-0.6-0.6-1.6,0-2.3
		c0.3-0.3,0.8-0.4,1.2-0.4c0.4,0,0.9,0.1,1.2,0.4C94.3,155.7,94.3,156.7,93.7,157.3L93.7,157.3z M100.5,159.7c0.7,0,1.3-0.1,1.9-0.4
		c0.5-0.2,0.9-0.5,1.2-0.9c0.3-0.4,0.4-0.8,0.4-1.3c0-0.5-0.1-1-0.4-1.3c-0.3-0.3-0.6-0.6-1.1-0.7c-0.5-0.2-1-0.3-1.6-0.4
		c-0.5-0.1-0.9-0.2-1.4-0.4c-0.3-0.1-0.4-0.4-0.4-0.6c0-0.3,0.1-0.6,0.4-0.7c0.4-0.2,0.8-0.3,1.2-0.3c0.8,0,1.6,0.2,2.3,0.7l0.6-1.5
		c-0.4-0.3-0.9-0.4-1.3-0.5c-0.5-0.1-1-0.2-1.6-0.2c-0.7,0-1.3,0.1-1.9,0.4c-0.5,0.2-0.9,0.5-1.2,0.9c-0.3,0.4-0.4,0.9-0.4,1.3
		c0,0.5,0.1,1,0.4,1.3c0.3,0.3,0.6,0.6,1.1,0.7c0.5,0.2,1,0.3,1.6,0.4l1,0.3c0.2,0.1,0.4,0.2,0.6,0.3c0.1,0.1,0.2,0.3,0.2,0.5
		c0,0.3-0.2,0.5-0.4,0.6c-0.4,0.2-0.8,0.3-1.2,0.3c-0.5,0-1-0.1-1.5-0.2c-0.5-0.1-0.9-0.3-1.3-0.6l-0.7,1.5c0.4,0.3,0.9,0.6,1.5,0.7
		C99.2,159.6,99.9,159.7,100.5,159.7z M108.9,153.1c-0.7,0-1.5,0.3-1.9,0.8v-0.7h-1.8v8.7h1.9v-3c0.5,0.5,1.2,0.8,1.9,0.8
		c0.6,0,1.1-0.1,1.6-0.4c0.5-0.3,0.9-0.7,1.1-1.1c0.5-1.1,0.5-2.4,0-3.5c-0.3-0.5-0.7-0.9-1.1-1.1
		C110.1,153.2,109.5,153,108.9,153.1z M107.5,157.6c-0.6-0.8-0.6-1.8,0-2.6c0.7-0.6,1.7-0.6,2.4,0c0.6,0.8,0.6,1.8,0,2.6
		C109.2,158.3,108.2,158.3,107.5,157.6z M116,153c-0.5,0-1,0.1-1.5,0.2c-0.5,0.1-0.9,0.3-1.3,0.6l0.6,1.4c0.3-0.2,0.5-0.3,0.8-0.4
		c0.3-0.1,0.7-0.2,1-0.2c0.4,0,0.8,0.1,1.1,0.3c0.3,0.2,0.4,0.6,0.4,0.9h-1.5c-0.7-0.1-1.4,0.1-2,0.4c-0.4,0.3-0.7,0.9-0.7,1.4
		c0,0.4,0.1,0.8,0.3,1.1c0.2,0.3,0.5,0.6,0.8,0.7c0.4,0.2,0.8,0.3,1.3,0.3c0.8,0.1,1.5-0.3,1.9-0.9v0.8h1.7v-3.7
		c0.1-0.8-0.2-1.6-0.8-2.1C117.6,153.2,116.8,152.9,116,153z M116.7,158.2c-0.3,0.1-0.5,0.2-0.8,0.2c-0.3,0-0.5-0.1-0.8-0.2
		c-0.2-0.1-0.3-0.3-0.3-0.6c0-0.5,0.4-0.8,1.1-0.8h1.3v0.7C117.1,157.8,116.9,158,116.7,158.2L116.7,158.2z M124,159.6
		c0.6,0,1.2-0.1,1.8-0.4c0.5-0.3,0.9-0.7,1.1-1.2l-1.4-0.8c-0.3,0.6-0.9,1-1.5,0.9c-0.5,0-0.9-0.2-1.2-0.5c-0.7-0.7-0.7-1.9,0-2.6
		c0.3-0.3,0.8-0.5,1.2-0.5c0.6,0,1.2,0.3,1.4,0.9l1.4-0.8c-0.2-0.5-0.6-0.9-1.1-1.2c-0.5-0.3-1.2-0.4-1.8-0.4
		c-0.6,0-1.3,0.1-1.8,0.4c-0.5,0.3-1,0.7-1.3,1.2c-0.6,1.1-0.6,2.4,0,3.4c0.3,0.5,0.8,0.9,1.3,1.2
		C122.7,159.5,123.3,159.7,124,159.6z M134.1,156.3c0-0.6-0.1-1.2-0.4-1.8c-0.3-0.5-0.7-0.9-1.2-1.2c-0.5-0.3-1.1-0.4-1.7-0.4
		c-0.6,0-1.2,0.1-1.8,0.4c-0.5,0.3-0.9,0.7-1.2,1.2c-0.3,0.5-0.5,1.1-0.4,1.7c0,0.6,0.1,1.2,0.4,1.7c0.3,0.5,0.8,0.9,1.3,1.2
		c0.6,0.3,1.3,0.4,1.9,0.4c1,0.1,2-0.3,2.6-1l-1-1.1c-0.2,0.2-0.5,0.4-0.7,0.5c-0.3,0.1-0.6,0.2-0.9,0.2c-0.4,0-0.9-0.1-1.2-0.4
		c-0.3-0.2-0.5-0.6-0.6-0.9h4.8C134.1,156.6,134.1,156.3,134.1,156.3z M129.7,154.8c0.3-0.2,0.7-0.4,1-0.4c0.4,0,0.8,0.1,1.1,0.4
		c0.3,0.2,0.5,0.6,0.5,1h-3.2C129.2,155.4,129.4,155.1,129.7,154.8L129.7,154.8z M137.5,159.7c0.6,0,1.1-0.1,1.6-0.3
		c0.4-0.1,0.8-0.4,1.1-0.7c0.2-0.3,0.4-0.7,0.4-1.1c0-0.4-0.1-0.8-0.4-1.1c-0.2-0.3-0.5-0.4-0.9-0.5c-0.4-0.1-0.9-0.2-1.3-0.3
		c-0.4,0-0.7-0.1-1-0.2c-0.2,0-0.3-0.2-0.3-0.4c0-0.2,0.1-0.4,0.3-0.4c0.3-0.1,0.6-0.2,0.9-0.2c0.6,0,1.3,0.2,1.8,0.5l0.6-1.3
		c-0.3-0.2-0.7-0.3-1.1-0.4c-0.4-0.1-0.9-0.2-1.4-0.2c-0.5,0-1.1,0.1-1.6,0.3c-0.4,0.1-0.8,0.4-1,0.7c-0.2,0.3-0.4,0.7-0.4,1.1
		c0,0.4,0.1,0.8,0.4,1.1c0.2,0.3,0.6,0.4,0.9,0.5c0.4,0.1,0.9,0.2,1.3,0.3c0.3,0,0.7,0.1,1,0.2c0.2,0,0.3,0.2,0.3,0.4
		c0,0.4-0.4,0.6-1.2,0.6c-0.4,0-0.8-0.1-1.2-0.2c-0.4-0.1-0.7-0.2-1-0.4l-0.6,1.3c0.4,0.2,0.8,0.4,1.2,0.5
		C136.4,159.6,137,159.7,137.5,159.7z M143.2,155c0.2-0.2,0.3-0.5,0.3-0.8c0-0.3-0.1-0.6-0.3-0.8c-0.5-0.4-1.2-0.4-1.7,0
		c-0.2,0.2-0.3,0.5-0.3,0.8c0,0.3,0.1,0.6,0.3,0.8C142,155.5,142.7,155.5,143.2,155z M143.2,159.3c0.2-0.2,0.3-0.5,0.3-0.8
		c0-0.3-0.1-0.6-0.3-0.8c-0.5-0.4-1.2-0.4-1.7,0c-0.2,0.2-0.3,0.5-0.3,0.8c0,0.3,0.1,0.6,0.3,0.8C142,159.8,142.7,159.8,143.2,159.3
		z M149.3,152.7l0.5-1.9h-1.2l-0.7,1.7c-0.1,0.2-0.2,0.5-0.3,0.7c0,0.2,0,0.3,0,0.5c0,0.3,0.1,0.6,0.3,0.8c0.5,0.4,1.2,0.4,1.7,0
		c0.2-0.2,0.3-0.5,0.3-0.8c0-0.2-0.1-0.4-0.2-0.6C149.7,152.8,149.5,152.7,149.3,152.7z M152.7,153c-0.1-0.2-0.3-0.3-0.5-0.3
		l0.5-1.9h-1.2l-0.7,1.7c-0.1,0.2-0.2,0.5-0.3,0.7c0,0.2,0,0.3,0,0.5c0,0.3,0.1,0.6,0.3,0.8c0.5,0.4,1.2,0.4,1.7,0
		c0.2-0.2,0.3-0.5,0.3-0.8C152.8,153.4,152.8,153.2,152.7,153L152.7,153z M156.6,154.4h-0.7l0.1-1.6h3.4v-1.6h-5.1l-0.4,4.7h2.1
		c0.5,0,1,0.1,1.5,0.3c0.3,0.2,0.4,0.5,0.4,0.8c0,0.3-0.1,0.6-0.4,0.8c-0.3,0.2-0.7,0.3-1.1,0.3c-0.4,0-0.9-0.1-1.3-0.2
		c-0.4-0.1-0.8-0.3-1.1-0.5l-0.8,1.5c0.4,0.3,0.9,0.5,1.4,0.7c0.6,0.2,1.1,0.2,1.7,0.2c0.7,0,1.3-0.1,1.9-0.4c0.5-0.2,0.9-0.6,1.2-1
		c0.3-0.4,0.4-0.9,0.4-1.4c0-0.7-0.3-1.5-0.8-1.9C158.4,154.5,157.5,154.3,156.6,154.4z M161.9,150.6c-0.3,0-0.6,0.1-0.8,0.3
		c-0.2,0.2-0.3,0.5-0.3,0.8c0,0.2,0.1,0.4,0.2,0.6c0.1,0.2,0.3,0.3,0.5,0.4l-0.5,1.9h1.2l0.7-1.7c0.1-0.2,0.2-0.5,0.3-0.7
		c0-0.2,0-0.3,0-0.5c0-0.3-0.1-0.6-0.3-0.8C162.5,150.7,162.2,150.6,161.9,150.6z M165.5,150.9c-0.2-0.2-0.5-0.3-0.8-0.4
		c-0.3,0-0.6,0.1-0.8,0.3c-0.2,0.2-0.3,0.5-0.3,0.8c0,0.2,0.1,0.4,0.2,0.6c0.1,0.2,0.3,0.3,0.5,0.4l-0.5,1.9h1.2l0.7-1.7
		c0.1-0.2,0.2-0.5,0.3-0.7c0-0.2,0-0.3,0-0.5C165.9,151.5,165.8,151.2,165.5,150.9L165.5,150.9z M36,169.9c-0.1,0-0.3,0-0.4-0.1
		c-0.1-0.1-0.1-0.3-0.1-0.4v-2.2c0-0.6-0.2-1.2-0.6-1.6c-0.5-0.4-1.1-0.6-1.7-0.5h-0.7v1.4h0.2c0.2,0,0.5,0.1,0.6,0.2
		c0.2,0.2,0.2,0.4,0.2,0.7v1.7c0,0.3,0,0.6,0.2,0.9c0.1,0.2,0.4,0.4,0.6,0.4c-0.2,0.1-0.5,0.2-0.6,0.4c-0.1,0.3-0.2,0.6-0.2,0.9v1.9
		c0,0.2-0.1,0.5-0.2,0.7c-0.2,0.2-0.4,0.2-0.6,0.2h-0.2v1.5h0.7c0.6,0,1.2-0.2,1.7-0.5c0.4-0.4,0.6-1,0.6-1.6v-2.2
		c0-0.1,0-0.3,0.1-0.4c0.1-0.1,0.2-0.1,0.4-0.1h0.4v-1.4L36,169.9z"/>
</g>
<g id="Blue">
	<linearGradient id="SVGID_2_" gradientUnits="userSpaceOnUse" x1="24.7069" y1="29.4153" x2="224.551" y2="229.2594">
		<stop  offset="0" style="stop-color:#16ADE4"/>
		<stop  offset="0.1517" style="stop-color:#0192D1"/>
		<stop  offset="0.2845" style="stop-color:#057FC2"/>
		<stop  offset="0.3579" style="stop-color:#0A78BC"/>
		<stop  offset="0.7261" style="stop-color:#343579"/>
		<stop  offset="0.9658" style="stop-color:#262551"/>
	</linearGradient>
	<path class="st2" d="M231.6,214.2h-214c-3.1,0-5.7-2.6-5.7-5.7V50.2c0-3.1,2.6-5.7,5.7-5.7h214c3.1,0,5.7,2.6,5.7,5.7v158.3
		C237.3,211.6,234.8,214.2,231.6,214.2z M12,70.8h225.3"/>
</g>
</svg>
