<?xml version="1.0" encoding="utf-8"?>
<!-- Generator: Adobe Illustrator 22.1.0, SVG Export Plug-In . SVG Version: 6.00 Build 0)  -->
<svg version="1.1" xmlns="http://www.w3.org/2000/svg" xmlns:xlink="http://www.w3.org/1999/xlink" x="0px" y="0px"
	 viewBox="0 0 250 250" style="enable-background:new 0 0 250 250;" xml:space="preserve">
<style type="text/css">
	.st0{fill:#FFFFFF;}
	.st1{fill:url(#SVGID_1_);}
	.st2{fill:none;stroke:url(#SVGID_2_);stroke-width:8;stroke-linecap:round;stroke-miterlimit:10;}
	.st3{fill:url(#SVGID_3_);}
	.st4{fill:url(#SVGID_4_);}
</style>
<g id="white">
	<g>
		<path class="st0" d="M17.6,220.2c-6.4,0-11.7-5.2-11.7-11.7V50.2c0-6.4,5.2-11.7,11.7-11.7h214c6.4,0,11.7,5.2,11.7,11.7v158.3
			c0,6.4-5.2,11.7-11.7,11.7H17.6z"/>
		<path class="st0" d="M231.6,44.5c3.1,0,5.7,2.6,5.7,5.7v158.3c0,3.1-2.6,5.7-5.7,5.7h-214c-3.1,0-5.7-2.6-5.7-5.7V50.2
			c0-3.1,2.6-5.7,5.7-5.7H231.6 M231.6,32.5h-214C7.9,32.5,0,40.4,0,50.2v158.3c0,9.7,7.9,17.7,17.7,17.7h214
			c9.7,0,17.7-7.9,17.7-17.7V50.2C249.3,40.4,241.4,32.5,231.6,32.5L231.6,32.5z"/>
	</g>
</g>
<g id="Blue">
	<g>
		<linearGradient id="SVGID_1_" gradientUnits="userSpaceOnUse" x1="45.2685" y1="80.2948" x2="109.046" y2="144.0723">
			<stop  offset="0" style="stop-color:#FEEC31"/>
			<stop  offset="0.3707" style="stop-color:#F08F33"/>
			<stop  offset="1" style="stop-color:#E2322E"/>
		</linearGradient>
		<path class="st1" d="M117.6,134.8V89.6c0-1-0.8-1.8-1.8-1.8H38.6c-1,0-1.8,0.8-1.8,1.8v45.2c0,1,0.8,1.8,1.8,1.8h77.2
			C116.8,136.6,117.6,135.8,117.6,134.8z"/>
	</g>
	<linearGradient id="SVGID_2_" gradientUnits="userSpaceOnUse" x1="24.7069" y1="29.4153" x2="224.551" y2="229.2594">
		<stop  offset="0" style="stop-color:#16ADE4"/>
		<stop  offset="0.1517" style="stop-color:#0192D1"/>
		<stop  offset="0.2845" style="stop-color:#057FC2"/>
		<stop  offset="0.3579" style="stop-color:#0A78BC"/>
		<stop  offset="0.7261" style="stop-color:#343579"/>
		<stop  offset="0.9658" style="stop-color:#262551"/>
	</linearGradient>
	<path class="st2" d="M231.6,214.2h-214c-3.1,0-5.7-2.6-5.7-5.7V50.2c0-3.1,2.6-5.7,5.7-5.7h214c3.1,0,5.7,2.6,5.7,5.7v158.3
		C237.3,211.6,234.8,214.2,231.6,214.2z M12,70.8h225.3 M209.7,134.9V93.1c0-0.9-0.8-1.7-1.7-1.7h-71.5c-0.9,0-1.7,0.8-1.7,1.7v41.9
		c0,0.9,0.8,1.7,1.7,1.7H208C208.9,136.6,209.7,135.9,209.7,134.9z M115.2,195.1v-41.9c0-0.9-0.8-1.7-1.7-1.7H42
		c-0.9,0-1.7,0.8-1.7,1.7v41.9c0,0.9,0.8,1.7,1.7,1.7h71.5C114.4,196.7,115.2,196,115.2,195.1z M209.7,195.1v-41.9
		c0-0.9-0.8-1.7-1.7-1.7h-71.5c-0.9,0-1.7,0.8-1.7,1.7v41.9c0,0.9,0.8,1.7,1.7,1.7H208C208.9,196.7,209.7,196,209.7,195.1z"/>
	<linearGradient id="SVGID_3_" gradientUnits="userSpaceOnUse" x1="194.0593" y1="49.9552" x2="210.649" y2="66.5448">
		<stop  offset="0" style="stop-color:#FEEC31"/>
		<stop  offset="0.3707" style="stop-color:#F08F33"/>
		<stop  offset="1" style="stop-color:#E2322E"/>
	</linearGradient>
	<path class="st3" d="M211.5,58.2c0-1.7,1.4-3.1,3.1-3.1c1.7,0,3.1,1.4,3.1,3.1s-1.4,3.1-3.1,3.1C212.9,61.3,211.5,60,211.5,58.2z
		 M202.5,61.3c1.7,0,3.1-1.4,3.1-3.1s-1.4-3.1-3.1-3.1s-3.1,1.4-3.1,3.1S200.8,61.3,202.5,61.3z M190.1,61.3c1.7,0,3.1-1.4,3.1-3.1
		s-1.4-3.1-3.1-3.1s-3.1,1.4-3.1,3.1S188.4,61.3,190.1,61.3z"/>
</g>
<g id="orange">
	
		<linearGradient id="SVGID_4_" gradientUnits="userSpaceOnUse" x1="94.1156" y1="134.6455" x2="133.8719" y2="94.8893" gradientTransform="matrix(1 0 0 -1 0 252)">
		<stop  offset="0" style="stop-color:#FEEC31"/>
		<stop  offset="0.3707" style="stop-color:#F08F33"/>
		<stop  offset="1" style="stop-color:#E2322E"/>
	</linearGradient>
	<path class="st4" d="M137.4,133l-41.8-15.9c-0.7-0.3-1.6,0-1.9,0.7c-0.2,0.4-0.2,0.8,0,1.1l16,41.7c0.3,0.8,1.1,1.2,1.9,0.9
		c0.4-0.1,0.8-0.5,0.9-0.9l3.8-14.3l10.9,10.7c1.9,1.9,4.9,1.9,6.7,0c1.9-1.9,1.9-4.9,0-6.7l-10.8-10.8l14.3-3.8
		c0.8-0.2,1.3-1,1-1.8C138.3,133.5,137.9,133.1,137.4,133z"/>
</g>
</svg>
