<?xml version="1.0" encoding="utf-8"?>
<!-- Generator: Adobe Illustrator 21.1.0, SVG Export Plug-In . SVG Version: 6.00 Build 0)  -->
<svg version="1.1" id="Layer_1" xmlns="http://www.w3.org/2000/svg" xmlns:xlink="http://www.w3.org/1999/xlink" x="0px" y="0px"
	 viewBox="0 0 250 250" style="enable-background:new 0 0 250 250;" xml:space="preserve">
<style type="text/css">
	.st0{fill:#FFFFFF;}
	.st1{fill:none;stroke:url(#SVGID_1_);stroke-width:6.4279;stroke-linecap:round;stroke-miterlimit:10;}
	.st2{fill:#FFFFFF;stroke:#FFFFFF;stroke-width:22;stroke-linecap:round;stroke-miterlimit:10;}
	.st3{fill:none;stroke:url(#SVGID_2_);stroke-width:7.8543;stroke-linecap:round;stroke-miterlimit:10;}
	.st4{fill:url(#SVGID_3_);}
	.st5{fill:none;stroke:#2A3180;stroke-width:11.4023;stroke-linecap:round;stroke-miterlimit:10;}
	.st6{fill:none;stroke:url(#SVGID_4_);stroke-width:8;stroke-linecap:round;stroke-miterlimit:10;}
	.st7{fill:#FFFFFF;stroke:#FFFFFF;stroke-width:12;stroke-miterlimit:10;}
	.st8{fill:none;stroke:url(#SVGID_5_);stroke-width:3.9053;stroke-linecap:round;stroke-miterlimit:10;}
	.st9{fill:none;stroke:url(#SVGID_6_);stroke-width:3.9053;stroke-linecap:round;stroke-miterlimit:10;}
	.st10{fill:url(#SVGID_7_);}
</style>
<g id="white">
	<g>
		<path class="st0" d="M17,169.2c-6.1,0-11-4.9-11-11V18.3c0-6.1,4.9-11,11-11h189c6.1,0,11,4.9,11,11v139.8c0,6.1-4.9,11-11,11
			L17,169.2L17,169.2z"/>
		<path class="st0" d="M205.9,13.3c2.8,0,5,2.3,5,5v139.8c0,2.8-2.3,5-5,5H17c-2.8,0-5-2.3-5-5V18.3c0-2.8,2.3-5,5-5L205.9,13.3
			 M205.9,1.3H17c-9.4,0-17,7.6-17,17v139.8c0,9.4,7.6,17,17,17h189c9.4,0,17-7.6,17-17V18.3C222.9,8.9,215.3,1.3,205.9,1.3
			L205.9,1.3z"/>
	</g>
</g>
<g id="orange">
	
		<linearGradient id="SVGID_1_" gradientUnits="userSpaceOnUse" x1="53.2014" y1="160.7286" x2="89.2543" y2="124.6757" gradientTransform="matrix(1 0 0 -1 0 251.28)">
		<stop  offset="0" style="stop-color:#FEEC31"/>
		<stop  offset="0.3707" style="stop-color:#F08F33"/>
		<stop  offset="1" style="stop-color:#E2322E"/>
	</linearGradient>
	<path class="st1" d="M74.6,109.7L56.1,92.3l-23.5,24.6 M110.4,100.8L93.6,86.1l-32,39.9"/>
</g>
<g id="White">
	<path class="st2" d="M199.3,88.2H232c5.2,0,5.7,2.4,5.7,6.5v123.6c0,3,0,5.5-5.6,5.5h-67c-4.1,0-4.9-2.5-4.9-5.5V93.7
		c0-3.4,1.1-5.5,4.5-5.5H199.3"/>
</g>
<g id="Orange">
	
		<linearGradient id="SVGID_2_" gradientUnits="userSpaceOnUse" x1="187.273" y1="121.7069" x2="212.6988" y2="96.2812" gradientTransform="matrix(1 0 0 -1 0 251.28)">
		<stop  offset="0" style="stop-color:#FEEC31"/>
		<stop  offset="0.3707" style="stop-color:#F08F33"/>
		<stop  offset="1" style="stop-color:#E2322E"/>
	</linearGradient>
	<path class="st3" d="M201.9,142.7l-11.2-7.8l-14.2,11 M223.5,138.7l-10.2-6.6L194,150"/>
</g>
<g id="Blue">
	
		<linearGradient id="SVGID_3_" gradientUnits="userSpaceOnUse" x1="172.7481" y1="233.1319" x2="187.3974" y2="218.4827" gradientTransform="matrix(1 0 0 -1 0 251.28)">
		<stop  offset="0" style="stop-color:#FEEC31"/>
		<stop  offset="0.3707" style="stop-color:#F08F33"/>
		<stop  offset="1" style="stop-color:#E2322E"/>
	</linearGradient>
	<path class="st4" d="M188.2,25.5c0-1.5,1.2-2.7,2.7-2.7s2.7,1.2,2.7,2.7s-1.2,2.7-2.7,2.7S188.2,27,188.2,25.5z M180.2,28.2
		c1.5,0,2.7-1.2,2.7-2.7s-1.2-2.7-2.7-2.7s-2.7,1.2-2.7,2.7S178.7,28.2,180.2,28.2z M169.3,28.2c1.5,0,2.7-1.2,2.7-2.7
		s-1.2-2.7-2.7-2.7s-2.7,1.2-2.7,2.7S167.8,28.2,169.3,28.2z"/>
	<line class="st5" x1="197.9" y1="209.3" x2="198.4" y2="209.3"/>
	
		<linearGradient id="SVGID_4_" gradientUnits="userSpaceOnUse" x1="22.9152" y1="251.6147" x2="244.0212" y2="30.5089" gradientTransform="matrix(1 0 0 -1 0 251.28)">
		<stop  offset="0" style="stop-color:#16ADE4"/>
		<stop  offset="0.1517" style="stop-color:#0192D1"/>
		<stop  offset="0.2845" style="stop-color:#057FC2"/>
		<stop  offset="0.3579" style="stop-color:#0A78BC"/>
		<stop  offset="0.7261" style="stop-color:#343579"/>
		<stop  offset="0.9658" style="stop-color:#262551"/>
	</linearGradient>
	<path class="st6" d="M12,36.6h199 M127.6,57.4h61.6 M173.1,164.2h52.3 M173.1,179h52.3 M127.6,74.5h61.6 M127.6,91.6h30.8
		 M127.6,125.8h30.8 M127.6,108.7h30.8 M32.9,143h125.5 M110.4,125.1V59.5c0-1.2-1-2.1-2.1-2.1H34.7c-1.2,0-2.1,1-2.1,2.1v65.6
		c0,1.2,1,2.1,2.1,2.1h73.6C109.5,127.2,110.4,126.2,110.4,125.1z M199.2,88.2h32.7c5.2,0,5.7,2.4,5.7,6.5v123.6c0,3,0,5.5-5.6,5.5
		h-67c-4.1,0-4.9-2.5-4.9-5.5V93.7c0-3.4,1.1-5.5,4.5-5.5H199.2 M160.9,106.7h76.7 M160.9,194.4h76.7 M192.1,97.5h14.4 M160.1,93.7
		c0-3.4,1.1-5.5,4.5-5.5h34.6h11.7V18.3c0-2.8-2.3-5-5-5H17c-2.8,0-5,2.3-5,5v139.8c0,2.8,2.3,5,5,5h143.1V93.7z M225.3,149.3v-28.9
		c0-0.6-0.5-1.2-1.2-1.2h-50.9c-0.6,0-1.2,0.5-1.2,1.2v28.9c0,0.6,0.5,1.2,1.2,1.2h50.9C224.7,150.5,225.3,149.9,225.3,149.3z"/>
</g>
<g id="Layer_1_1_">
	<g id="Layer_8">
		<path class="st7" d="M145.3,177.2h-4.6c-0.1,0-0.1,0-0.2,0v-12.7c0-2.5-2-4.5-4.5-4.5h-1.1l-5.4-29.3c-0.3-2.2-2.2-3.8-4.5-3.8
			h-12c-2.2,0-4.1,1.6-4.4,3.8l-5.4,29.3h-1.1c-2.5,0-4.5,2-4.5,4.5v41.4c0,2.5,2,4.5,4.5,4.5h1.1l5.4,29.3c0.3,2.2,2.2,3.8,4.4,3.8
			h12.1c2.2,0,4.1-1.6,4.5-3.8l5.4-29.3h1.1c2.5,0,4.5-2,4.5-4.5v-14.3c0.1,0,0.1,0,0.2,0h4.6c1.5,0,2.8-1.2,2.8-2.8v-8.9
			C148.1,178.4,146.8,177.2,145.3,177.2z M104.7,203.3v-36.2h28.7v36.2H104.7z M115.2,134h7.8l4.8,25.9h-17.3L115.2,134z
			 M122.9,236.3h-7.8l-4.8-25.9h17.3L122.9,236.3z M144.4,188h-3.8c-0.1,0-0.1,0-0.2,0v-7.2c0.1,0,0.1,0,0.2,0h3.8V188z"/>
		<rect x="107.7" y="164.2" class="st7" width="19.9" height="63.8"/>
	</g>
	
		<linearGradient id="SVGID_5_" gradientUnits="userSpaceOnUse" x1="113.523" y1="63.9997" x2="126.5834" y2="50.9393" gradientTransform="matrix(1 0 0 -1 0 251.28)">
		<stop  offset="0" style="stop-color:#FEEC31"/>
		<stop  offset="0.3707" style="stop-color:#F08F33"/>
		<stop  offset="1" style="stop-color:#E2322E"/>
	</linearGradient>
	<polyline class="st8" points="111.5,196.9 120.6,183.7 128,196.2 	"/>
	
		<linearGradient id="SVGID_6_" gradientUnits="userSpaceOnUse" x1="107.9641" y1="76.7658" x2="131.3644" y2="53.3656" gradientTransform="matrix(1 0 0 -1 0 251.28)">
		<stop  offset="0" style="stop-color:#1D9AD7"/>
		<stop  offset="0.5021" style="stop-color:#1366AF"/>
		<stop  offset="1" style="stop-color:#423F92"/>
	</linearGradient>
	<path class="st9" d="M128,198.3h-16.7c-0.3,0-0.5-0.2-0.5-0.5v-23.2c0-0.3,0.2-0.5,0.5-0.5H128c0.3,0,0.5,0.2,0.5,0.5v23.2
		C128.5,198.1,128.3,198.3,128,198.3z"/>
	
		<linearGradient id="SVGID_7_" gradientUnits="userSpaceOnUse" x1="85.9448" y1="99.1808" x2="152.1595" y2="32.9662" gradientTransform="matrix(1 0 0 -1 0 251.28)">
		<stop  offset="0" style="stop-color:#16ADE4"/>
		<stop  offset="0.1517" style="stop-color:#0192D1"/>
		<stop  offset="0.2845" style="stop-color:#057FC2"/>
		<stop  offset="0.3579" style="stop-color:#0A78BC"/>
		<stop  offset="0.7261" style="stop-color:#343579"/>
		<stop  offset="0.9658" style="stop-color:#262551"/>
	</linearGradient>
	<path class="st10" d="M145.3,177.2h-4.6c-0.1,0-0.1,0-0.2,0v-12.7c0-2.5-2-4.5-4.5-4.5h-1.1l-5.4-29.3c-0.3-2.2-2.2-3.8-4.5-3.8
		h-12c-2.2,0-4.1,1.6-4.4,3.8l-5.4,29.3h-1.1c-2.5,0-4.5,2-4.5,4.5v41.4c0,2.5,2,4.5,4.5,4.5h1.1l5.4,29.3c0.3,2.2,2.2,3.8,4.4,3.8
		h12.1c2.2,0,4.1-1.6,4.5-3.8l5.4-29.3h1.1c2.5,0,4.5-2,4.5-4.5v-14.3c0.1,0,0.1,0,0.2,0h4.6c1.5,0,2.8-1.2,2.8-2.8v-8.9
		C148.1,178.4,146.8,177.2,145.3,177.2z M104.7,203.3v-36.2h28.7v36.2H104.7z M115.2,134h7.8l4.8,25.9h-17.3L115.2,134z
		 M122.9,236.3h-7.8l-4.8-25.9h17.3L122.9,236.3z M144.4,188h-3.8c-0.1,0-0.1,0-0.2,0v-7.2c0.1,0,0.1,0,0.2,0h3.8V188z"/>
</g>
</svg>
