<?xml version="1.0" encoding="utf-8"?>
<!-- Generator: Adobe Illustrator 22.1.0, SVG Export Plug-In . SVG Version: 6.00 Build 0)  -->
<svg version="1.1" xmlns="http://www.w3.org/2000/svg" xmlns:xlink="http://www.w3.org/1999/xlink" x="0px" y="0px"
	 viewBox="0 0 250 250" style="enable-background:new 0 0 250 250;" xml:space="preserve">
<style type="text/css">
	.st0{fill:#FFFFFF;}
	.st1{fill:none;stroke:url(#SVGID_1_);stroke-width:8;stroke-linecap:round;stroke-miterlimit:10;}
	.st2{fill:none;stroke:url(#SVGID_2_);stroke-width:8;stroke-linecap:round;stroke-miterlimit:10;}
	.st3{fill:url(#SVGID_3_);}
	.st4{fill:url(#SVGID_4_);}
</style>
<g id="white">
	<g>
		<path class="st0" d="M17.6,220.2c-6.4,0-11.7-5.2-11.7-11.7V50.2c0-6.4,5.2-11.7,11.7-11.7h214c6.4,0,11.7,5.2,11.7,11.7v158.3
			c0,6.4-5.2,11.7-11.7,11.7H17.6z"/>
		<path class="st0" d="M231.6,44.5c3.1,0,5.7,2.6,5.7,5.7v158.3c0,3.1-2.6,5.7-5.7,5.7h-214c-3.1,0-5.7-2.6-5.7-5.7V50.2
			c0-3.1,2.6-5.7,5.7-5.7H231.6 M231.6,32.5h-214C7.9,32.5,0,40.4,0,50.2v158.3c0,9.7,7.9,17.7,17.7,17.7h214
			c9.7,0,17.7-7.9,17.7-17.7V50.2C249.3,40.4,241.4,32.5,231.6,32.5L231.6,32.5z"/>
	</g>
</g>
<g id="orange">
	<linearGradient id="SVGID_1_" gradientUnits="userSpaceOnUse" x1="120.3877" y1="110.2639" x2="158.3383" y2="148.2145">
		<stop  offset="0" style="stop-color:#FEEC31"/>
		<stop  offset="0.3707" style="stop-color:#F08F33"/>
		<stop  offset="1" style="stop-color:#E2322E"/>
	</linearGradient>
	<path class="st1" d="M153,100.9h1 M199,100.9h1 M107.1,129.2h1 M107.1,185.8h1"/>
</g>
<g id="Blue">
	<linearGradient id="SVGID_2_" gradientUnits="userSpaceOnUse" x1="24.7069" y1="29.4153" x2="224.551" y2="229.2594">
		<stop  offset="0" style="stop-color:#16ADE4"/>
		<stop  offset="0.1517" style="stop-color:#0192D1"/>
		<stop  offset="0.2845" style="stop-color:#057FC2"/>
		<stop  offset="0.3579" style="stop-color:#0A78BC"/>
		<stop  offset="0.7261" style="stop-color:#343579"/>
		<stop  offset="0.9658" style="stop-color:#262551"/>
	</linearGradient>
	<path class="st2" d="M231.6,214.2h-214c-3.1,0-5.7-2.6-5.7-5.7V50.2c0-3.1,2.6-5.7,5.7-5.7h214c3.1,0,5.7,2.6,5.7,5.7v158.3
		C237.3,211.6,234.8,214.2,231.6,214.2z M12,70.8h225.3 M37.3,100.9H83 M37.3,129.2H83 M37.3,157.5H83 M37.3,185.8H83 M107.1,100.9
		h1 M130.1,100.9h1 M176,100.9h1 M107.1,157.5h1"/>
</g>
<g id="Layer_1">
	<linearGradient id="SVGID_3_" gradientUnits="userSpaceOnUse" x1="126.4231" y1="120.0455" x2="198.086" y2="191.7084">
		<stop  offset="0" style="stop-color:#16ADE4"/>
		<stop  offset="0.1517" style="stop-color:#0192D1"/>
		<stop  offset="0.2845" style="stop-color:#057FC2"/>
		<stop  offset="0.3579" style="stop-color:#0A78BC"/>
		<stop  offset="0.7261" style="stop-color:#343579"/>
		<stop  offset="0.9658" style="stop-color:#262551"/>
	</linearGradient>
	<path class="st3" d="M191.8,127.5c-1.1,0-2.2,0.1-3.3,0.2v-12.3c0-0.7-0.7-1.3-1.4-1l-20.8,6.9l-18.9-6.2c-0.3-0.1-0.6-0.2-0.9-0.2
		c0,0-0.1,0-0.1,0c0,0-0.1,0-0.1,0c-0.3,0-0.6,0.1-0.9,0.2l-20.3,6.7c-0.4,0.1-0.7,0.6-0.7,1v61.8c0,0.7,0.7,1.3,1.4,1l20.7-6.8
		l19,6.3c0.3,0.1,0.6,0.1,0.9,0.1c0.3,0,0.6,0,0.9-0.1l12.2-4c1.9,3.5,3.8,6.5,5.4,8.9c0.2,0.3,0.4,0.7,0.7,1c0.2,0.3,0.5,0.7,0.7,1
		c0.9,1.3,1.9,2.6,2.6,3.5c0.6,0.8,1.5,1.3,2.5,1.4c0.1,0,0.2,0,0.2,0c0.9,0,1.8-0.4,2.5-1c1-1,2.3-2.4,3.3-3.9
		c0.2-0.3,0.4-0.7,0.7-1l0.7-1c5.7-8.7,15.4-25.5,15.4-39.6C214,137.3,204.4,127.5,191.8,127.5z M144.1,174c0,0.5-0.3,0.9-0.7,1
		l-13.2,4.4c-0.7,0.2-1.4-0.3-1.4-1V126c0-0.5,0.3-0.9,0.7-1l13.2-4.4c0.7-0.2,1.4,0.3,1.4,1V174z M163.9,177.8c0,1-1,1.7-1.9,1.4
		l-12.5-4.1c-0.6-0.2-1-0.8-1-1.4v-51.6c0-1,1-1.7,1.9-1.4l12.5,4.1c0.6,0.2,1,0.8,1,1.4V177.8z M170.1,179.3
		c-0.7,0.2-1.5-0.3-1.5-1.1V126c0-0.5,0.3-0.9,0.8-1.1l13.2-4.3c0.7-0.2,1.4,0.3,1.4,1v7.2c-8.6,3.1-14.5,11.3-14.5,21.5
		c0,8.9,3.6,18.5,7.7,26.6L170.1,179.3z M195.3,187.7l-0.6,1c-0.2,0.3-0.4,0.7-0.7,1c-0.7,1-1.6,2.1-2.4,2.9
		c-0.6-0.8-1.4-1.9-2.1-2.9c-0.2-0.3-0.4-0.6-0.7-1c-0.2-0.3-0.4-0.6-0.6-1c-1.5-2.2-3.2-4.9-4.9-8c-0.7-1.3-1.4-2.6-2.2-4
		c-4-7.8-7.5-17-7.5-25.4c0-7.1,3.6-14.2,10.5-17.3c1.4-0.6,2.9-1,4.5-1.3c1-0.2,2.1-0.3,3.3-0.3c12,0,18.2,9.5,18.2,18.8
		C210,163.4,200.8,179.4,195.3,187.7z"/>
	<linearGradient id="SVGID_4_" gradientUnits="userSpaceOnUse" x1="183.8402" y1="142.7535" x2="199.0202" y2="157.9335">
		<stop  offset="0" style="stop-color:#FEEC31"/>
		<stop  offset="0.3707" style="stop-color:#F08F33"/>
		<stop  offset="1" style="stop-color:#E2322E"/>
	</linearGradient>
	<path class="st4" d="M201.9,150.3c0-6.1-4.7-11-10.5-11c-5.8,0-10.5,4.9-10.5,11c0,6.1,4.7,11,10.5,11
		C197.2,161.4,201.9,156.4,201.9,150.3z"/>
</g>
</svg>
