<?xml version="1.0" encoding="utf-8"?>
<!-- Generator: Adobe Illustrator 22.1.0, SVG Export Plug-In . SVG Version: 6.00 Build 0)  -->
<svg version="1.1" xmlns="http://www.w3.org/2000/svg" xmlns:xlink="http://www.w3.org/1999/xlink" x="0px" y="0px"
	 viewBox="0 0 250 250" style="enable-background:new 0 0 250 250;" xml:space="preserve">
<style type="text/css">
	.st0{fill:#FFFFFF;stroke:#FFFFFF;stroke-width:16;stroke-miterlimit:10;}
	.st1{fill:none;stroke:url(#SVGID_1_);stroke-width:8;stroke-linecap:round;stroke-miterlimit:10;}
	.st2{fill:none;stroke:url(#SVGID_2_);stroke-width:8;stroke-linecap:round;stroke-linejoin:round;stroke-miterlimit:10;}
</style>
<g id="White">
	<path class="st0" d="M125,241.5C60.8,241.5,8.5,189.2,8.5,125S60.8,8.5,125,8.5S241.5,60.8,241.5,125S189.2,241.5,125,241.5z"/>
</g>
<g id="Orange">
</g>
<g id="Blue_1_">
	<linearGradient id="SVGID_1_" gradientUnits="userSpaceOnUse" x1="42.6592" y1="42.6592" x2="207.3408" y2="207.3408">
		<stop  offset="0" style="stop-color:#00ADE6"/>
		<stop  offset="5.543736e-02" style="stop-color:#00A3DE"/>
		<stop  offset="0.25" style="stop-color:#0083C5"/>
		<stop  offset="0.3579" style="stop-color:#0077BC"/>
		<stop  offset="0.7261" style="stop-color:#353579"/>
		<stop  offset="0.9658" style="stop-color:#1D1A55"/>
	</linearGradient>
	<path class="st1" d="M125,12.5C63,12.5,12.5,63,12.5,125c0,62,50.5,112.5,112.5,112.5S237.5,187,237.5,125
		C237.5,63,187,12.5,125,12.5z"/>
	<linearGradient id="SVGID_2_" gradientUnits="userSpaceOnUse" x1="105.6716" y1="68.6716" x2="183.3284" y2="146.3284">
		<stop  offset="0" style="stop-color:#FFEE25"/>
		<stop  offset="0.3707" style="stop-color:#F08F34"/>
		<stop  offset="1" style="stop-color:#E2312D"/>
	</linearGradient>
	<polyline class="st2" points="125,55 125,125 199,125 	"/>
</g>
</svg>
