<svg id="Layer_1" data-name="Layer 1" xmlns="http://www.w3.org/2000/svg" viewBox="0 0 395.35 344"><defs><style>.cls-1{fill:#75c8f1;}.cls-2{fill:#fff;}.cls-3{fill:#832b94;}</style></defs><title>stats icons</title><ellipse class="cls-1" cx="192.72" cy="165.96" rx="155.88" ry="156.04"/><path class="cls-2" d="M160.51,266.26s24,8,104.15,12,108.15-12,108.15-12l-4-60.08s-8-20-48.07-20h-12l4-32S360.79,102,300.71,62c0,0-48.07-24-88.13,24,0,0-20.18,50.46,16.52,74.31-.49,13.82-.49,21.83-.49,21.83s-60.09,8-64.09,36A376.14,376.14,0,0,0,160.51,266.26Z"/><path class="cls-2" d="M160.51,174.14l-12,20s-4,56.08-8,56.08-92.12,4-116.16-8V190.16s16-24,44.06-24l8-12L60.37,102S80.4,58,124.46,66s36.05,56.07,36.05,56.07l-16,20v28Z"/><path class="cls-3" d="M345.36,183.48l-24.59-3.84a1.78,1.78,0,0,1-1.54-1.78l.62-23.19a1.73,1.73,0,0,1,.46-1.09A62.38,62.38,0,0,0,337.08,105C334.17,73.3,306.63,48,273.18,46.22c-39.37-2.13-72.12,27.66-72.12,64.58a63.4,63.4,0,0,0,21.87,47.48,69.77,69.77,0,0,0,46,17.19h.7c3,0,15-.37,25.24-6a12.82,12.82,0,0,1,1.49-.75c-4.68-5.92-10.54-10-18.17-8.48a46,46,0,0,1-9,.88,54.48,54.48,0,0,1-36-13.38,49.39,49.39,0,0,1-17-37c0-28.56,25.18-51.64,55.57-50.3,27.44,1.21,49.76,22.82,50.51,48.88A48.75,48.75,0,0,1,307,146.11l-1.58,1.52a1.79,1.79,0,0,0-.53,1.18L303.8,190a1.79,1.79,0,0,0,1.55,1.78l36.06,5.54c17.25,5.11,20.8,10.57,20.8,17.17l2.24,47.95a491.22,491.22,0,0,1-192.53,0l2.24-47.63v-.32c0-9.67,11.16-14.66,20.69-17.16l25.34-4c8.69,8.85,26.28,17.17,49,17.18h.07a86.59,86.59,0,0,0,13.13-1c8.55-1.31,13.55-9.9,10.24-17.5h0a63.69,63.69,0,0,1-23.37,4.14h-.06c-22.4,0-36.32-9.78-39.55-14.51l-2.7-3.94-35,5.55-.73.15c-20.68,5.31-32.1,16.28-32.19,30.91L156.46,270a4.6,4.6,0,0,0,3.74,4.64l2.26.48a509.47,509.47,0,0,0,105.73,11.14,509.55,509.55,0,0,0,105.73-11.14l2.25-.48a4.58,4.58,0,0,0,3.74-4.64l-2.61-55.71C377.18,192.76,354.07,186,345.36,183.48Z"/><path class="cls-3" d="M148.72,161.53l32.44,12.67a1,1,0,0,1,.05,2l-10.88,3.89c-10.37,4-20.6,14.37-20.86,24.42l-3.5,50-6.92.64c-8.89.82-18,1.67-27.12,1.67q-2.59,0-5.19-.09h-.06A401.13,401.13,0,0,1,23.91,248l-1.74-.37a8.72,8.72,0,0,1-7.1-8.8l2-43.14C17.17,182.21,27.7,171.7,46,167l.82-.17,21.68-4.29V140.72A49.85,49.85,0,0,1,57.78,110c0-29.27,25.91-52.91,57.11-51.33C142.2,60.07,164.57,81.3,166,107.23c1.67,29.61-23.24,54.2-54.08,54.2A56.51,56.51,0,0,1,85.68,155h0a12.36,12.36,0,0,1,14-5.44,45.73,45.73,0,0,0,12.29,1.68c25.58,0,46.07-21.1,43.15-45.93-2.23-19-18.41-34.23-38.39-36.26-27.29-2.78-50.26,18.63-48,44.42a41.64,41.64,0,0,0,10.08,23.14l.49.58v33.64l-30.57,6c-9.5,2.46-20.77,7.76-20.83,19l-2,42,.39.08A390.74,390.74,0,0,0,107,246.51c9.49.36,19.22-.45,28.7-1.32l3.08-41.06c.24-9.57,5.48-23.1,16.09-29.8l-4.85-1.6"/><path class="cls-3" d="M150,172.73c-17.78,9.81-35.81,12.33-53.76,7.55a9.31,9.31,0,0,1-6.18-13h0c18.72,8,37.74,6.5,56.51-4.51l2.17-1.27"/></svg>