<svg id="Layer_1" data-name="Layer 1" xmlns="http://www.w3.org/2000/svg" viewBox="0 0 350.89 344"><defs><style>.cls-1{fill:#75c8f1;}.cls-2{fill:#fff;}.cls-3{fill:#832b94;}</style></defs><title>stats icons</title><ellipse class="cls-1" cx="175.18" cy="168.36" rx="153.21" ry="153.36"/><polygon class="cls-2" points="77.72 74.76 77.72 233.66 150.73 233.66 150.73 255.14 120.67 255.14 120.67 272.32 21.89 272.32 21.89 315.26 331.47 315.26 331.47 280.91 228.04 280.91 228.04 250.84 188.67 250.84 188.67 233.66 270.63 233.66 270.63 74.76 77.72 74.76"/><path class="cls-3" d="M232.61,270.21V257.46h-.05v-5.85a2,2,0,0,0-1.95-2.07H199V239.07h74.75a4.66,4.66,0,0,0,4.5-4.8V67a4.65,4.65,0,0,0-4.5-4.79H74.08A4.64,4.64,0,0,0,69.59,67V191.84c6.47,0,11.7-5.64,11.7-12.55V74.72H266.56V226.58H188.88v34.49h33.3v20.25H329.93v32.94H20.44V281.33h104V261.08h33.22V226.59H81.29V210.47H247.91c6.53,0,11.82-5.58,11.82-12.48H69.59v36.28a4.65,4.65,0,0,0,4.49,4.8h73.61v11.21H116a2,2,0,0,0-1.95,2.08v5.1h0v12.75H10V326l330.33-.78v-55Z"/><path class="cls-3" d="M229.4,159.1a3.52,3.52,0,0,1-2.67-1.26l-11.94-14.19-13-13.84-17.7,18.88L168.8,136.81,149,157.19H114.43V107.58h0a7,7,0,0,1,6.79,7.25v35.11h25.08l21.89-22.58,15.23,11.82,18.4-19.63,18,19.18,6.28,7.46-.54-45.29H124.61a7,7,0,0,1-6.79-7.25H232.26l0,3.64.69,58a3.85,3.85,0,0,1-2.29,3.6A3.37,3.37,0,0,1,229.4,159.1Z"/><path class="cls-3" d="M228.19,183.11h-110a4.57,4.57,0,0,1-4.42-4.71v-8.2a4.57,4.57,0,0,1,4.42-4.71h98.94a7,7,0,0,1-6.8,7.25H120.52v3.12H221.39a7,7,0,0,1,6.8,7.25Z"/><path class="cls-3" d="M242.06,138.64h0a7.57,7.57,0,0,1-1.58-10.12l1.58-2.36-1.58-2.36a7.57,7.57,0,0,1,1.58-10.12h0l8.35,12.48Z"/><path class="cls-3" d="M103.25,138.64,94.9,126.16l8.35-12.48h0a7.58,7.58,0,0,1,1.58,10.12l-1.58,2.36,1.58,2.36a7.58,7.58,0,0,1-1.58,10.12Z"/></svg>