<svg id="Layer_1" data-name="Layer 1" xmlns="http://www.w3.org/2000/svg" viewBox="0 0 350.89 344"><defs><style>.cls-1{fill:#75c8f1;}.cls-2{fill:#fff;}.cls-3{fill:#832b94;}</style></defs><title>stats icons</title><ellipse class="cls-1" cx="174.54" cy="170.67" rx="154.71" ry="154.87"/><polygon class="cls-2" points="151.81 274.19 39.38 274.19 39.38 68.14 309.7 68.14 309.7 274.19 206.09 274.19 206.09 298.05 248.73 298.05 244.85 325.87 109.16 325.87 105.28 302.02 147.93 302.02 151.81 274.19"/><path class="cls-3" d="M217.72,202.42H132.24a.89.89,0,0,1-.89-.9V140.73a.89.89,0,0,1,.89-.89h41.89A13.64,13.64,0,0,1,186.38,147a13.27,13.27,0,0,1-2.53,15.56L190,183.9a.4.4,0,0,1-.38.5h-29.1a.39.39,0,0,1-.38-.49l5.27-21.27c-2.57-2.49-5-7-3.61-11.5h0c2.49,1,3.16.16,5.75,5.21a8.41,8.41,0,0,0,2.53,3.06l1.5,1.09L167,178.92h15.84l-5.27-18.38,1.4-1a8,8,0,0,0,3.15-4.45,7.79,7.79,0,0,0-7.52-9.77H136.83v51.61h76.3V145.32h-9.75l0-2.69c-.49-27.25-15.22-37-28.85-37-14.59,0-24.76,7.15-28.37,19.75H152c1.63-6.26,7.64-15,22.37-15h.17a17.55,17.55,0,0,1,13,5.49c9.18,9.52,8.67,28.25,8.64,29h0a5.88,5.88,0,0,1-5.65-5.44c-.47-5.72-2-14.71-6.92-19.81a12.12,12.12,0,0,0-9.09-3.79h-.16c-16.07,0-17.29,12-17.34,12.51a4.88,4.88,0,0,0,0,2c.17,1.74-17.32,1.65-17.4,0,.13-.68.43-2.7.43-2.7,3.2-17.2,16.1-27.48,34.52-27.48,19.67,0,32.91,15.47,34.24,39.66h9a.89.89,0,0,1,.89.89v60.79A.89.89,0,0,1,217.72,202.42Z"/><path class="cls-3" d="M306.52,58.39H41.84a6.08,6.08,0,0,0-6.08,6.07V216.69h0a15.91,15.91,0,0,0,15.82-15.91V74.2h245.2V266.67H197.07v43.71h44.64a13.09,13.09,0,0,1-13.09,13.1h-106a13.09,13.09,0,0,1-13.09-13.1h45.36V266.67H51.58V240.3h220a15.9,15.9,0,0,0,16-15.81H35.76v51.92a6.08,6.08,0,0,0,6.08,6.08h99.53V296.7h-43a2.63,2.63,0,0,0-2.63,2.63v11.59A26.08,26.08,0,0,0,121.86,337H226.38a29.75,29.75,0,0,0,29.75-29.75v-8.86a2.63,2.63,0,0,0-2.63-2.63H210.77V282.49h95.75a6.08,6.08,0,0,0,6.08-6.08v-212A6.08,6.08,0,0,0,306.52,58.39Z"/></svg>