<svg id="Layer_1" data-name="Layer 1" xmlns="http://www.w3.org/2000/svg" viewBox="0 0 350.89 344"><defs><style>.cls-1{fill:#75c8f1;}.cls-2{fill:#fff;}.cls-3{fill:#832b94;}</style></defs><title>stats icons</title><ellipse class="cls-1" cx="175.83" cy="167.5" rx="151.35" ry="151.5"/><path class="cls-2" d="M109.51,268.7c0,49.25,53.34,57.45,65.65,57.45s57.45-8.2,61.56-57.45-41-61.55-41-61.55L281.86,38.91H236.72L175.16,145.6,117.72,43H68.47l90.28,160S109.51,219.46,109.51,268.7Z"/><path class="cls-3" d="M228.69,225.92H174c-21.48,0-39,17.88-39,39.85s17.49,39.86,39,39.86,39-17.88,39-39.86a40.45,40.45,0,0,0-6-21.17l-.18.12a16.37,16.37,0,0,0-7.33,16.74,28.14,28.14,0,0,1,.33,4.31c0,14.75-11.59,26.74-25.85,26.74s-25.84-12-25.84-26.74S159.7,239,174,239h47.92a59.29,59.29,0,0,1,6.5,26.55,54.88,54.88,0,0,1-82.2,47.72L136.08,306a54.82,54.82,0,0,1-17.66-42.5c1.13-29.76,26.52-52.88,56.31-52.88h25.56L293.5,34.53H230.19L151.46,176.3,79.07,47h35L154,122.25a12.51,12.51,0,0,0,16.75,5.67l-48.9-93.39H58.17l87.1,156.66a6.89,6.89,0,0,0,6.2,3.85,7.72,7.72,0,0,0,6.39-4.18L237.68,47H273L192.66,198.1H175c-1.44,0-2.88,0-4.3.13-34.67,2.12-63.48,29.68-64.8,64.76a67.49,67.49,0,1,0,134.94,2.6,71.56,71.56,0,0,0-11.7-38.86Z"/></svg>