<svg xmlns="http://www.w3.org/2000/svg" viewBox="0 0 560.62 548.53"><defs><style>.cls-1{fill:#9d358a;}.cls-2{fill:#6d358b;}.cls-3{fill:#482667;}.cls-4{fill:#a54994;}.cls-5{fill:#e11482;}.cls-6{fill:#894a96;}.cls-7{fill:#931e80;}.cls-8{fill:#e95153;}.cls-9{fill:#bd1622;}.cls-10{fill:#0085bc;}.cls-11{fill:#e73178;}.cls-12{fill:#364b99;}.cls-13{fill:#334394;}.cls-14{fill:#e63b2e;}.cls-15{fill:#ec688a;}.cls-16{fill:#005faa;}</style></defs><title>mobile-cover</title><g id="Layer_2" data-name="Layer 2"><g id="Layer_1-2" data-name="Layer 1"><polygon class="cls-1" points="225.48 64.49 185.5 34.43 232 34.3 270.75 64.25 225.48 64.49"/><polygon class="cls-2" points="493.73 303.92 223.62 70.27 263.27 70.16 533.38 303.81 493.73 303.92"/><polygon class="cls-3" points="453.96 234.83 223.87 35.74 223.76 0.06 453.85 199.38 453.96 234.83"/><polygon class="cls-4" points="531.87 370.93 477.97 371.29 226.9 154.41 226.64 72.31 531.74 335.15 531.87 370.93"/><polygon class="cls-5" points="531.87 370.93 226.9 104.88 226.64 72.31 531.74 335.15 531.87 370.93"/><polygon class="cls-2" points="185.04 0.11 224.19 0 224.3 34.51 185.14 34.46 185.04 0.11"/><rect class="cls-6" x="223.95" y="34.87" width="39.15" height="35.7" transform="translate(-0.16 0.72) rotate(-0.17)"/><polygon class="cls-7" points="156.6 159.5 156.32 73.09 226.66 72.31 226.93 158.72 156.6 159.5"/><polygon class="cls-8" points="365.6 548.53 78.09 299.46 117.24 298.88 404.99 547.72 365.6 548.53"/><polygon class="cls-9" points="404.99 547.72 116.01 298.19 115.81 234.74 405.04 484.63 404.99 547.72"/><polygon class="cls-10" points="522.13 444.64 271.18 228.12 271.07 192.67 522.02 409.19 522.13 444.64"/><polygon class="cls-10" points="427.65 362.92 176.71 146.4 176.6 110.94 427.54 327.46 427.65 362.92"/><polygon class="cls-11" points="440.28 515.37 117.04 235.67 116.92 197.54 481.98 515.28 440.28 515.37"/><polygon class="cls-12" points="445.17 483.34 99.74 182.54 99.52 113.5 444.95 413.49 445.17 483.34"/><polygon class="cls-12" points="481.73 515.12 337.78 390.15 337.55 320.41 481.75 444.68 481.73 515.12"/><polygon class="cls-13" points="481.63 444.76 135.85 146.21 176.6 145.98 522.13 444.63 481.63 444.76"/><polygon class="cls-9" points="478.26 371.19 478.23 324.25 531.85 370.95 478.26 371.19"/><polygon class="cls-14" points="77.88 234.13 117.03 234.02 117.24 299 78.09 299.46 77.88 234.13"/><polygon class="cls-2" points="0.01 91.94 22.22 92.17 22.32 114.55 0 114.49 0.01 91.94"/><polygon class="cls-2" points="134.37 52.49 156.58 52.72 156.69 75.1 134.37 75.05 134.37 52.49"/><polygon class="cls-5" points="110.95 74.68 133.16 74.91 133.26 97.29 110.94 97.23 110.95 74.68"/><polygon class="cls-10" points="521.71 444.41 560.62 444.14 560.61 480.31 521.7 480.26 521.71 444.41"/><rect class="cls-15" x="38.65" y="197.65" width="78.47" height="38.19" transform="translate(-0.68 0.25) rotate(-0.18)"/><polygon class="cls-13" points="38.57 197.97 21.51 182.88 99.99 182.66 117.16 197.74 38.57 197.97"/><rect class="cls-16" x="21.47" y="113.48" width="78.47" height="69.87" transform="translate(-0.47 0.19) rotate(-0.18)"/><polygon class="cls-16" points="135.91 146.34 135.8 111.41 176.76 111.06 176.87 145.99 135.91 146.34"/><polygon class="cls-9" points="481.62 180.52 481.62 224.71 453.78 201.1 453.78 156.77 481.62 180.52"/></g></g></svg>