<svg xmlns="http://www.w3.org/2000/svg" xmlns:xlink="http://www.w3.org/1999/xlink" viewBox="0 0 93.87 92.89"><defs><style>.cls-1{fill:none;}.cls-2{fill:url(#linear-gradient);}.cls-3{clip-path:url(#clip-path);}.cls-4{fill:#f6a734;}.cls-5{fill:#f6a634;}.cls-6{fill:#f6a534;}.cls-7{fill:#f6a434;}.cls-8{fill:#f5a334;}.cls-9{fill:#f5a234;}.cls-10{fill:#f5a134;}.cls-11{fill:#f5a034;}.cls-12{fill:#f59f34;}.cls-13{fill:#f59e34;}.cls-14{fill:#f59d34;}.cls-15{fill:#f49c33;}.cls-16{fill:#f49b33;}.cls-17{fill:#f49a33;}.cls-18{fill:#f49933;}.cls-19{fill:#f49833;}.cls-20{fill:#f49733;}.cls-21{fill:#f49633;}.cls-22{fill:#f49533;}.cls-23{fill:#f39433;}.cls-24{fill:#f39333;}.cls-25{fill:#f39233;}.cls-26{fill:#f39133;}.cls-27{fill:#f39033;}.cls-28{fill:#f38f33;}.cls-29{fill:#f38e33;}.cls-30{fill:#f28d33;}.cls-31{fill:#f28c33;}.cls-32{fill:#f28b33;}.cls-33{fill:#f28a33;}.cls-34{fill:#f28933;}.cls-35{fill:#f28833;}.cls-36{fill:#f28733;}.cls-37{fill:#f18632;}.cls-38{fill:#f18532;}.cls-39{fill:#f18432;}.cls-40{fill:#f18332;}.cls-41{fill:#f18232;}.cls-42{fill:#f18132;}.cls-43{fill:#f18032;}.cls-44{fill:#f07f32;}.cls-45{fill:#f07e32;}.cls-46{fill:#f07d32;}.cls-47{fill:#f07c32;}.cls-48{fill:#f07b32;}.cls-49{fill:#f07a32;}.cls-50{fill:#f07932;}.cls-51{fill:#ef7832;}.cls-52{fill:#ef7732;}.cls-53{fill:#ef7632;}.cls-54{fill:#ef7532;}.cls-55{fill:#ef7432;}.cls-56{fill:#ef7332;}.cls-57{fill:#ef7232;}.cls-58{fill:#ef7132;}.cls-59{fill:#ee6f31;}.cls-60{fill:#ee6e31;}.cls-61{fill:#ee6d31;}.cls-62{fill:#ee6c31;}.cls-63{fill:#ee6b31;}.cls-64{fill:#ee6a31;}.cls-65{fill:#ee6931;}.cls-66{fill:#ed6831;}.cls-67{fill:#ed6731;}.cls-68{fill:#ed6631;}.cls-69{fill:#ed6531;}.cls-70{fill:#ed6431;}.cls-71{fill:#ed6331;}.cls-72{fill:#ed6231;}.cls-73{fill:#ec6131;}.cls-74{fill:#ec6031;}.cls-75{fill:#ec5f31;}.cls-76{fill:#ec5e31;}.cls-77{fill:#ec5d31;}.cls-78{fill:#ec5c31;}.cls-79{fill:#ec5b31;}.cls-80{fill:#eb5a30;}.cls-81{fill:#eb5930;}.cls-82{fill:#eb5830;}.cls-83{fill:#eb5730;}.cls-84{fill:#eb5630;}.cls-85{fill:#eb5530;}.cls-86{fill:#eb5430;}.cls-87{fill:#ea5330;}.cls-88{fill:#ea5230;}.cls-89{fill:#ea5130;}.cls-90{fill:#ea5030;}.cls-91{fill:#ea4f30;}.cls-92{fill:#ea4e30;}.cls-93{fill:#ea4d30;}.cls-94{fill:#ea4c30;}.cls-95{fill:#e94b30;}.cls-96{fill:#e94a30;}.cls-97{fill:#e94930;}.cls-98{fill:#e94830;}.cls-99{fill:#e94730;}.cls-100{fill:#e94630;}.cls-101{fill:#e94530;}.cls-102{fill:#e8442f;}.cls-103{fill:#e8432f;}.cls-104{fill:#e8422f;}.cls-105{fill:#e8412f;}.cls-106{fill:#e8402f;}.cls-107{fill:#e83f2f;}.cls-108{fill:#e83e2f;}.cls-109{fill:#e73d2f;}.cls-110{fill:#e73c2f;}.cls-111{fill:#e73b2f;}.cls-112{fill:#e73a2f;}</style><linearGradient id="linear-gradient" x1="12.65" y1="81.94" x2="75.81" y2="18.79" gradientUnits="userSpaceOnUse"><stop offset="0" stop-color="#1c9bd8"/><stop offset="0.48" stop-color="#0c65af"/><stop offset="1" stop-color="#423e92"/></linearGradient><clipPath id="clip-path"><path class="cls-1" d="M70.61,0a8.77,8.77,0,1,0,8.75,8.75A8.76,8.76,0,0,0,70.61,0Z"/></clipPath></defs><title>activity_provider_1</title><g id="Layer_2" data-name="Layer 2"><g id="Layer_1-2" data-name="Layer 1"><path class="cls-2" d="M51.56,92.89a7.09,7.09,0,0,1-3.8-1.12,7.36,7.36,0,0,1-2.39-9.63L55.44,63,37.74,51.56c-2.13-1.43-4.31-4.15-2.79-9.12h0a27.4,27.4,0,0,1,2.4-5.26l.24-.37,9.57-14.52-5.55-1.21-12.7,7.75a6,6,0,0,1-6.11.35,5.64,5.64,0,0,1-2.92-4.79A6,6,0,0,1,23,19.11l14.51-8.85a6,6,0,0,1,3.18-.87,7.75,7.75,0,0,1,1.56.17L53,11.91a11.67,11.67,0,0,1,4.92,2.15l10.17,7.58a10.31,10.31,0,0,1,3.36,4.08l3.52,7.75h12.8a5.71,5.71,0,1,1,0,11.38H71.45A5.88,5.88,0,0,1,65.9,41.1l-2.22-4.88-7,10.57,12,7.73A7.1,7.1,0,0,1,71,64L57.88,89a7.14,7.14,0,0,1-4.48,3.6A7.22,7.22,0,0,1,51.56,92.89ZM39.23,43.75c-.73,2.36-.17,3.31,1,4.07L61.26,61.4l-.92,1.88-11,20.94A2.9,2.9,0,0,0,50.16,88a2.61,2.61,0,0,0,2.08.34A2.68,2.68,0,0,0,53.92,87L67.14,61.82a2.61,2.61,0,0,0-.89-3.54L51.64,48.85,51.24,47l.53-.82L62.84,29.35l2.69.19.59,1.24L70,39.25c.24.53.68,1.16,1.37,1.12H87.73c1.54,0,1.66-.93,1.66-1.21s-.12-1.22-1.66-1.22H72.09l-.65-1.35-4.09-9a5.83,5.83,0,0,0-2-2.42L55.24,17.68A7.17,7.17,0,0,0,52,16.28l-10.7-2.35a2.89,2.89,0,0,0-.63-.07,1.43,1.43,0,0,0-.78.2L25.32,22.93a1.72,1.72,0,0,0-1,1.35,1.16,1.16,0,0,0,.6,1A1.7,1.7,0,0,0,26.58,25l14.2-8.67.9.17,10.69,2.34.92,2.22-.65,1-11.4,17.3a22.15,22.15,0,0,0-2,4.34ZM30.09,73.46H7.14a7.15,7.15,0,0,1-5.26-2.29A7,7,0,0,1,0,65.76a7.36,7.36,0,0,1,7.41-6.6H26.5l4.74-6.36A3.48,3.48,0,0,1,35.91,52l6.13,4A3.54,3.54,0,0,1,43,61l-7.15,9.57A7.15,7.15,0,0,1,30.09,73.46ZM7.43,63.64a2.88,2.88,0,0,0-2.94,2.47A2.61,2.61,0,0,0,7.14,69H29.88a2.78,2.78,0,0,0,2.34-1.09l6.54-8.76-4.49-2.9-5.51,7.38-1.17,0Z"/><g class="cls-3"><path class="cls-4" d="M79.36,0h0Z"/><rect class="cls-4" x="61.86" width="17.49" height="0.16"/><rect class="cls-5" x="61.86" y="0.16" width="17.49" height="0.16"/><rect class="cls-6" x="61.86" y="0.32" width="17.49" height="0.16"/><rect class="cls-7" x="61.86" y="0.48" width="17.49" height="0.16"/><rect class="cls-8" x="61.86" y="0.64" width="17.49" height="0.16"/><rect class="cls-9" x="61.86" y="0.8" width="17.49" height="0.16"/><rect class="cls-10" x="61.86" y="0.96" width="17.49" height="0.16"/><rect class="cls-11" x="61.86" y="1.13" width="17.49" height="0.16"/><rect class="cls-12" x="61.86" y="1.29" width="17.49" height="0.16"/><rect class="cls-13" x="61.86" y="1.45" width="17.49" height="0.16"/><rect class="cls-14" x="61.86" y="1.61" width="17.49" height="0.16"/><rect class="cls-15" x="61.86" y="1.77" width="17.49" height="0.16"/><rect class="cls-16" x="61.86" y="1.93" width="17.49" height="0.16"/><rect class="cls-17" x="61.86" y="2.09" width="17.49" height="0.16"/><rect class="cls-18" x="61.86" y="2.25" width="17.49" height="0.16"/><rect class="cls-19" x="61.86" y="2.41" width="17.49" height="0.16"/><rect class="cls-20" x="61.86" y="2.57" width="17.49" height="0.16"/><rect class="cls-21" x="61.86" y="2.73" width="17.49" height="0.16"/><rect class="cls-22" x="61.86" y="2.89" width="17.49" height="0.16"/><rect class="cls-23" x="61.86" y="3.06" width="17.49" height="0.16"/><rect class="cls-24" x="61.86" y="3.22" width="17.49" height="0.16"/><rect class="cls-25" x="61.86" y="3.38" width="17.49" height="0.16"/><rect class="cls-26" x="61.86" y="3.54" width="17.49" height="0.16"/><rect class="cls-27" x="61.86" y="3.7" width="17.49" height="0.16"/><rect class="cls-28" x="61.86" y="3.86" width="17.49" height="0.16"/><rect class="cls-29" x="61.86" y="4.02" width="17.49" height="0.16"/><rect class="cls-30" x="61.86" y="4.18" width="17.49" height="0.16"/><rect class="cls-31" x="61.86" y="4.34" width="17.49" height="0.16"/><rect class="cls-32" x="61.86" y="4.5" width="17.49" height="0.16"/><rect class="cls-33" x="61.86" y="4.66" width="17.49" height="0.16"/><rect class="cls-34" x="61.86" y="4.82" width="17.49" height="0.16"/><rect class="cls-35" x="61.86" y="4.98" width="17.49" height="0.16"/><rect class="cls-36" x="61.86" y="5.15" width="17.49" height="0.16"/><rect class="cls-37" x="61.86" y="5.31" width="17.49" height="0.16"/><rect class="cls-38" x="61.86" y="5.47" width="17.49" height="0.16"/><rect class="cls-39" x="61.86" y="5.63" width="17.49" height="0.16"/><rect class="cls-40" x="61.86" y="5.79" width="17.49" height="0.16"/><rect class="cls-41" x="61.86" y="5.95" width="17.49" height="0.16"/><rect class="cls-42" x="61.86" y="6.11" width="17.49" height="0.16"/><rect class="cls-43" x="61.86" y="6.27" width="17.49" height="0.16"/><rect class="cls-44" x="61.86" y="6.43" width="17.49" height="0.16"/><rect class="cls-45" x="61.86" y="6.59" width="17.49" height="0.16"/><rect class="cls-46" x="61.86" y="6.75" width="17.49" height="0.16"/><rect class="cls-47" x="61.86" y="6.91" width="17.49" height="0.16"/><rect class="cls-48" x="61.86" y="7.08" width="17.49" height="0.16"/><rect class="cls-49" x="61.86" y="7.24" width="17.49" height="0.16"/><rect class="cls-50" x="61.86" y="7.4" width="17.49" height="0.16"/><rect class="cls-51" x="61.86" y="7.56" width="17.49" height="0.16"/><rect class="cls-52" x="61.86" y="7.72" width="17.49" height="0.16"/><rect class="cls-53" x="61.86" y="7.88" width="17.49" height="0.16"/><rect class="cls-54" x="61.86" y="8.04" width="17.49" height="0.16"/><rect class="cls-55" x="61.86" y="8.2" width="17.49" height="0.16"/><rect class="cls-56" x="61.86" y="8.36" width="17.49" height="0.16"/><rect class="cls-57" x="61.86" y="8.52" width="17.49" height="0.16"/><rect class="cls-58" x="61.86" y="8.68" width="17.49" height="0.16"/><rect class="cls-59" x="61.86" y="8.84" width="17.49" height="0.16"/><rect class="cls-60" x="61.86" y="9" width="17.49" height="0.16"/><rect class="cls-61" x="61.86" y="9.17" width="17.49" height="0.16"/><rect class="cls-62" x="61.86" y="9.33" width="17.49" height="0.16"/><rect class="cls-63" x="61.86" y="9.49" width="17.49" height="0.16"/><rect class="cls-64" x="61.86" y="9.65" width="17.49" height="0.16"/><rect class="cls-65" x="61.86" y="9.81" width="17.49" height="0.16"/><rect class="cls-66" x="61.86" y="9.97" width="17.49" height="0.16"/><rect class="cls-67" x="61.86" y="10.13" width="17.49" height="0.16"/><rect class="cls-68" x="61.86" y="10.29" width="17.49" height="0.16"/><rect class="cls-69" x="61.86" y="10.45" width="17.49" height="0.16"/><rect class="cls-70" x="61.86" y="10.61" width="17.49" height="0.16"/><rect class="cls-71" x="61.86" y="10.77" width="17.49" height="0.16"/><rect class="cls-72" x="61.86" y="10.93" width="17.49" height="0.16"/><rect class="cls-73" x="61.86" y="11.09" width="17.49" height="0.16"/><rect class="cls-74" x="61.86" y="11.26" width="17.49" height="0.16"/><rect class="cls-75" x="61.86" y="11.42" width="17.49" height="0.16"/><rect class="cls-76" x="61.86" y="11.58" width="17.49" height="0.16"/><rect class="cls-77" x="61.86" y="11.74" width="17.49" height="0.16"/><rect class="cls-78" x="61.86" y="11.9" width="17.49" height="0.16"/><rect class="cls-79" x="61.86" y="12.06" width="17.49" height="0.16"/><rect class="cls-80" x="61.86" y="12.22" width="17.49" height="0.16"/><rect class="cls-81" x="61.86" y="12.38" width="17.49" height="0.16"/><rect class="cls-82" x="61.86" y="12.54" width="17.49" height="0.16"/><rect class="cls-83" x="61.86" y="12.7" width="17.49" height="0.16"/><rect class="cls-84" x="61.86" y="12.86" width="17.49" height="0.16"/><rect class="cls-85" x="61.86" y="13.02" width="17.49" height="0.16"/><rect class="cls-86" x="61.86" y="13.19" width="17.49" height="0.16"/><rect class="cls-87" x="61.86" y="13.35" width="17.49" height="0.16"/><rect class="cls-88" x="61.86" y="13.51" width="17.49" height="0.16"/><rect class="cls-89" x="61.86" y="13.67" width="17.49" height="0.16"/><rect class="cls-90" x="61.86" y="13.83" width="17.49" height="0.16"/><rect class="cls-91" x="61.86" y="13.99" width="17.49" height="0.16"/><rect class="cls-92" x="61.86" y="14.15" width="17.49" height="0.16"/><rect class="cls-93" x="61.86" y="14.31" width="17.49" height="0.16"/><rect class="cls-94" x="61.86" y="14.47" width="17.49" height="0.16"/><rect class="cls-95" x="61.86" y="14.63" width="17.49" height="0.16"/><rect class="cls-96" x="61.86" y="14.79" width="17.49" height="0.16"/><rect class="cls-97" x="61.86" y="14.95" width="17.49" height="0.16"/><rect class="cls-98" x="61.86" y="15.11" width="17.49" height="0.16"/><rect class="cls-99" x="61.86" y="15.28" width="17.49" height="0.16"/><rect class="cls-100" x="61.86" y="15.44" width="17.49" height="0.16"/><rect class="cls-101" x="61.86" y="15.6" width="17.49" height="0.16"/><rect class="cls-102" x="61.86" y="15.76" width="17.49" height="0.16"/><rect class="cls-103" x="61.86" y="15.92" width="17.49" height="0.16"/><rect class="cls-104" x="61.86" y="16.08" width="17.49" height="0.16"/><rect class="cls-105" x="61.86" y="16.24" width="17.49" height="0.16"/><rect class="cls-106" x="61.86" y="16.4" width="17.49" height="0.16"/><rect class="cls-107" x="61.86" y="16.56" width="17.49" height="0.16"/><rect class="cls-108" x="61.86" y="16.72" width="17.49" height="0.16"/><rect class="cls-109" x="61.86" y="16.88" width="17.49" height="0.16"/><rect class="cls-110" x="61.86" y="17.04" width="17.49" height="0.16"/><rect class="cls-111" x="61.86" y="17.21" width="17.49" height="0.16"/><rect class="cls-112" x="61.86" y="17.37" width="17.49" height="0.16"/><rect class="cls-112" x="61.86" y="17.53" width="17.49"/></g></g></g></svg>