<svg xmlns="http://www.w3.org/2000/svg" xmlns:xlink="http://www.w3.org/1999/xlink" viewBox="0 0 74.98 74.86"><defs><style>.cls-1,.cls-2,.cls-3,.cls-4,.cls-5,.cls-6,.cls-7{fill:none;stroke-miterlimit:10;stroke-width:4.48px;}.cls-1{stroke:url(#linear-gradient);}.cls-2{stroke:url(#linear-gradient-2);}.cls-3{stroke:url(#linear-gradient-3);}.cls-4{stroke:url(#linear-gradient-4);}.cls-5{stroke:url(#linear-gradient-5);}.cls-6{stroke:url(#linear-gradient-6);}.cls-7{stroke:url(#linear-gradient-7);}.cls-8{fill:url(#New_Gradient_Swatch_copy_5);}</style><linearGradient id="linear-gradient" x1="63.55" y1="1.61" x2="63.55" y2="21.24" gradientUnits="userSpaceOnUse"><stop offset="0" stop-color="#f6a734"/><stop offset="1" stop-color="#ee7031"/></linearGradient><linearGradient id="linear-gradient-2" x1="37.55" y1="1.61" x2="37.55" y2="21.24" xlink:href="#linear-gradient"/><linearGradient id="linear-gradient-3" x1="11.55" y1="1.61" x2="11.55" y2="21.24" xlink:href="#linear-gradient"/><linearGradient id="linear-gradient-4" x1="11.55" y1="27.61" x2="11.55" y2="47.24" gradientUnits="userSpaceOnUse"><stop offset="0" stop-color="#ee6f31"/><stop offset="0.26" stop-color="#ed6731"/><stop offset="0.68" stop-color="#ea5030"/><stop offset="1" stop-color="#e73a2f"/></linearGradient><linearGradient id="linear-gradient-5" x1="37.55" y1="27.61" x2="37.55" y2="47.24" xlink:href="#linear-gradient-4"/><linearGradient id="linear-gradient-6" x1="63.55" y1="27.61" x2="63.55" y2="47.24" xlink:href="#linear-gradient-4"/><linearGradient id="linear-gradient-7" x1="11.55" y1="53.62" x2="11.55" y2="73.24" gradientUnits="userSpaceOnUse"><stop offset="0" stop-color="#ea5030"/><stop offset="1" stop-color="#e73a2f"/></linearGradient><linearGradient id="New_Gradient_Swatch_copy_5" x1="1.4" y1="73.51" x2="73.58" y2="1.34" gradientUnits="userSpaceOnUse"><stop offset="0" stop-color="#1c9bd8"/><stop offset="0.5" stop-color="#0c65af"/><stop offset="1" stop-color="#423e92"/></linearGradient></defs><title>availability_2</title><g id="Layer_2" data-name="Layer 2"><g id="Layer_1-2" data-name="Layer 1"><line class="cls-1" x1="71.78" y1="3.2" x2="55.32" y2="19.66"/><line class="cls-2" x1="45.78" y1="3.2" x2="29.32" y2="19.66"/><line class="cls-3" x1="19.78" y1="3.2" x2="3.32" y2="19.66"/><line class="cls-4" x1="19.78" y1="29.2" x2="3.32" y2="45.66"/><line class="cls-5" x1="45.78" y1="29.2" x2="29.32" y2="45.66"/><line class="cls-6" x1="71.78" y1="29.2" x2="55.32" y2="45.66"/><line class="cls-7" x1="19.78" y1="55.2" x2="3.32" y2="71.66"/><path class="cls-8" d="M18.17,22.85H4.68A4.69,4.69,0,0,1,0,18.17V4.68A4.69,4.69,0,0,1,4.68,0H18.17a4.69,4.69,0,0,1,4.68,4.68V18.17A4.69,4.69,0,0,1,18.17,22.85ZM4.68,4.48a.2.2,0,0,0-.2.2V18.17a.21.21,0,0,0,.2.21H18.17a.22.22,0,0,0,.21-.21V4.68a.21.21,0,0,0-.21-.2ZM18.17,22.85H4.68A4.69,4.69,0,0,1,0,18.17V4.68A4.69,4.69,0,0,1,4.68,0H18.17a4.69,4.69,0,0,1,4.68,4.68V18.17A4.69,4.69,0,0,1,18.17,22.85ZM4.68,4.48a.2.2,0,0,0-.2.2V18.17a.21.21,0,0,0,.2.21H18.17a.22.22,0,0,0,.21-.21V4.68a.21.21,0,0,0-.21-.2ZM44.3,22.85H30.8a4.69,4.69,0,0,1-4.68-4.68V4.68A4.69,4.69,0,0,1,30.8,0H44.3A4.69,4.69,0,0,1,49,4.68V18.17A4.69,4.69,0,0,1,44.3,22.85ZM30.8,4.48a.2.2,0,0,0-.2.2V18.17a.21.21,0,0,0,.2.21H44.3a.21.21,0,0,0,.2-.21V4.68a.2.2,0,0,0-.2-.2ZM70.3,22.85H56.81a4.69,4.69,0,0,1-4.68-4.68V4.68A4.69,4.69,0,0,1,56.81,0H70.3A4.69,4.69,0,0,1,75,4.68V18.17A4.69,4.69,0,0,1,70.3,22.85ZM56.81,4.48a.2.2,0,0,0-.21.2V18.17a.21.21,0,0,0,.21.21H70.3a.21.21,0,0,0,.2-.21V4.68a.2.2,0,0,0-.2-.2ZM18.17,48.85H4.68A4.69,4.69,0,0,1,0,44.17V30.68A4.69,4.69,0,0,1,4.68,26H18.17a4.69,4.69,0,0,1,4.68,4.68V44.17A4.69,4.69,0,0,1,18.17,48.85ZM4.68,30.48a.2.2,0,0,0-.2.2V44.17a.2.2,0,0,0,.2.21H18.17a.21.21,0,0,0,.21-.21V30.68a.21.21,0,0,0-.21-.2ZM44.3,48.85H30.8a4.69,4.69,0,0,1-4.68-4.68V30.68A4.69,4.69,0,0,1,30.8,26H44.3A4.69,4.69,0,0,1,49,30.68V44.17A4.69,4.69,0,0,1,44.3,48.85ZM30.8,30.48a.2.2,0,0,0-.2.2V44.17a.2.2,0,0,0,.2.21H44.3a.2.2,0,0,0,.2-.21V30.68a.2.2,0,0,0-.2-.2ZM70.3,48.85H56.81a4.69,4.69,0,0,1-4.68-4.68V30.68A4.69,4.69,0,0,1,56.81,26H70.3A4.69,4.69,0,0,1,75,30.68V44.17A4.69,4.69,0,0,1,70.3,48.85ZM56.81,30.48a.2.2,0,0,0-.21.2V44.17a.21.21,0,0,0,.21.21H70.3a.2.2,0,0,0,.2-.21V30.68a.2.2,0,0,0-.2-.2ZM18.17,74.86H4.68A4.69,4.69,0,0,1,0,70.18V56.68A4.69,4.69,0,0,1,4.68,52H18.17a4.69,4.69,0,0,1,4.68,4.68v13.5A4.69,4.69,0,0,1,18.17,74.86ZM4.68,56.48a.2.2,0,0,0-.2.2v13.5a.2.2,0,0,0,.2.2H18.17a.21.21,0,0,0,.21-.2V56.68a.21.21,0,0,0-.21-.2ZM44.3,74.86H30.8a4.69,4.69,0,0,1-4.68-4.68V56.68A4.69,4.69,0,0,1,30.8,52H44.3A4.69,4.69,0,0,1,49,56.68v13.5A4.69,4.69,0,0,1,44.3,74.86ZM30.8,56.48a.2.2,0,0,0-.2.2v13.5a.2.2,0,0,0,.2.2H44.3a.2.2,0,0,0,.2-.2V56.68a.2.2,0,0,0-.2-.2ZM70.3,74.86H56.81a4.69,4.69,0,0,1-4.68-4.68V56.68A4.69,4.69,0,0,1,56.81,52H70.3A4.69,4.69,0,0,1,75,56.68v13.5A4.69,4.69,0,0,1,70.3,74.86ZM56.81,56.48a.2.2,0,0,0-.21.2v13.5a.2.2,0,0,0,.21.2H70.3a.2.2,0,0,0,.2-.2V56.68a.2.2,0,0,0-.2-.2Z"/></g></g></svg>