<svg xmlns="http://www.w3.org/2000/svg" xmlns:xlink="http://www.w3.org/1999/xlink" viewBox="0 0 98.16 74.21"><defs><style>.cls-1,.cls-2{fill:none;stroke-linecap:round;stroke-miterlimit:10;stroke-width:4.3px;}.cls-1{stroke:url(#New_Gradient_Swatch_copy);}.cls-2{stroke:url(#New_Gradient_Swatch_copy-2);}.cls-3{fill:url(#linear-gradient);}.cls-4{fill:url(#linear-gradient-2);}.cls-5{fill:url(#linear-gradient-3);}.cls-6{fill:url(#linear-gradient-4);}</style><linearGradient id="New_Gradient_Swatch_copy" x1="25.15" y1="13.18" x2="25.15" y2="36.37" gradientUnits="userSpaceOnUse"><stop offset="0" stop-color="#f6a734"/><stop offset="1" stop-color="#e73a2f"/></linearGradient><linearGradient id="New_Gradient_Swatch_copy-2" x1="73.13" y1="46.79" x2="73.13" y2="64.67" xlink:href="#New_Gradient_Swatch_copy"/><linearGradient id="linear-gradient" x1="8.78" y1="22.36" x2="41.52" y2="22.36" gradientUnits="userSpaceOnUse"><stop offset="0" stop-color="#1c9bd8"/><stop offset="0.48" stop-color="#0c65af"/><stop offset="1" stop-color="#423e92"/></linearGradient><linearGradient id="linear-gradient-2" x1="8.82" y1="48.02" x2="41.48" y2="48.02" xlink:href="#linear-gradient"/><linearGradient id="linear-gradient-3" x1="8.78" y1="58.91" x2="41.44" y2="58.91" xlink:href="#linear-gradient"/><linearGradient id="linear-gradient-4" x1="6.94" y1="79.24" x2="91.22" y2="-5.03" xlink:href="#linear-gradient"/></defs><title>brochure_2</title><g id="Layer_2" data-name="Layer 2"><g id="Layer_1-2" data-name="Layer 1"><polyline class="cls-1" points="12.4 34.22 27.63 16.45 35.52 25.33 28.39 34.22 37.9 22.36"/><polyline class="cls-2" points="59.47 62.33 67.02 53.35 71.45 58.34 67.45 63.33 78.12 50.01 86.79 58.77"/><path class="cls-3" d="M38.17,7.75h-26A3.35,3.35,0,0,0,8.78,11.1V33.63A3.36,3.36,0,0,0,12.13,37h26a3.36,3.36,0,0,0,3.35-3.35V11.1A3.35,3.35,0,0,0,38.17,7.75ZM37,32.5H13.25V12.23H37Z"/><path class="cls-4" d="M39.24,45.79H11.06a2.24,2.24,0,1,0,0,4.47H39.24a2.24,2.24,0,1,0,0-4.47Z"/><path class="cls-5" d="M39.2,56.67H11a2.24,2.24,0,0,0,0,4.48H39.2a2.24,2.24,0,0,0,0-4.48Z"/><path class="cls-6" d="M59.94,65.92H86.16a3.26,3.26,0,0,0,3.26-3.26v-18a3.27,3.27,0,0,0-3.26-3.26H59.94a3.27,3.27,0,0,0-3.26,3.26v18A3.26,3.26,0,0,0,59.94,65.92Zm1.22-20H85V61.45H61.16ZM94.9,0H3.26A3.26,3.26,0,0,0,0,3.26V71a3.27,3.27,0,0,0,3.26,3.26H94.9A3.27,3.27,0,0,0,98.16,71V3.26A3.26,3.26,0,0,0,94.9,0ZM4.48,4.48H46.84V69.73H4.48Zm89.2,65.25H51.32V4.48H93.68Zm-55.51-62h-26A3.35,3.35,0,0,0,8.78,11.1V33.63A3.36,3.36,0,0,0,12.13,37h26a3.36,3.36,0,0,0,3.35-3.35V11.1A3.35,3.35,0,0,0,38.17,7.75ZM37,32.5H13.25V12.23H37Zm22.9,33.42H86.16a3.26,3.26,0,0,0,3.26-3.26v-18a3.27,3.27,0,0,0-3.26-3.26H59.94a3.27,3.27,0,0,0-3.26,3.26v18A3.26,3.26,0,0,0,59.94,65.92Zm1.22-20H85V61.45H61.16Zm-21.92-.1H11.06a2.24,2.24,0,1,0,0,4.47H39.24a2.24,2.24,0,1,0,0-4.47Zm0,10.88H11a2.24,2.24,0,0,0,0,4.48H39.2a2.24,2.24,0,0,0,0-4.48ZM59.42,13.59H87.61a2.4,2.4,0,1,0,0-4.8H59.42a2.4,2.4,0,1,0,0,4.8Zm-.31,11.28H87.29a2.24,2.24,0,0,0,0-4.48H59.11a2.24,2.24,0,0,0,0,4.48Zm0,11.07H87.29a2.24,2.24,0,0,0,0-4.48H59.11a2.24,2.24,0,0,0,0,4.48Z"/></g></g></svg>