<svg xmlns="http://www.w3.org/2000/svg" xmlns:xlink="http://www.w3.org/1999/xlink" viewBox="0 0 63.98 85.1"><defs><style>.cls-1{fill:url(#New_Gradient_Swatch_copy_5);}.cls-2{fill:url(#New_Gradient_Swatch_copy_5-2);}.cls-3{fill:url(#New_Gradient_Swatch_copy_5-3);}.cls-4,.cls-5,.cls-6,.cls-7{fill:none;stroke-linecap:round;stroke-miterlimit:10;}.cls-4,.cls-5,.cls-6{stroke-width:4.48px;}.cls-4{stroke:url(#linear-gradient);}.cls-5{stroke:url(#New_Gradient_Swatch_copy_5-4);}.cls-6{stroke:url(#New_Gradient_Swatch_copy_5-5);}.cls-7{stroke-width:4.36px;stroke:url(#linear-gradient-2);}.cls-8{fill:url(#linear-gradient-3);}</style><linearGradient id="New_Gradient_Swatch_copy_5" x1="9.87" y1="30.11" x2="14.8" y2="25.18" gradientUnits="userSpaceOnUse"><stop offset="0" stop-color="#1c9bd8"/><stop offset="0.5" stop-color="#0c65af"/><stop offset="1" stop-color="#423e92"/></linearGradient><linearGradient id="New_Gradient_Swatch_copy_5-2" x1="9.87" y1="49.61" x2="14.8" y2="44.68" xlink:href="#New_Gradient_Swatch_copy_5"/><linearGradient id="New_Gradient_Swatch_copy_5-3" x1="9.87" y1="69.61" x2="14.8" y2="64.68" xlink:href="#New_Gradient_Swatch_copy_5"/><linearGradient id="linear-gradient" x1="21.27" y1="27.64" x2="54.37" y2="27.64" gradientUnits="userSpaceOnUse"><stop offset="0" stop-color="#1c9bd8"/><stop offset="0.03" stop-color="#1991d0"/><stop offset="0.14" stop-color="#1071b8"/><stop offset="0.2" stop-color="#0c65af"/><stop offset="0.49" stop-color="#423e92"/><stop offset="0.74" stop-color="#3f4094"/></linearGradient><linearGradient id="New_Gradient_Swatch_copy_5-4" x1="21.27" y1="47.15" x2="54.37" y2="47.15" xlink:href="#New_Gradient_Swatch_copy_5"/><linearGradient id="New_Gradient_Swatch_copy_5-5" x1="21.27" y1="67.15" x2="54.37" y2="67.15" xlink:href="#New_Gradient_Swatch_copy_5"/><linearGradient id="linear-gradient-2" y1="46.78" x2="63.98" y2="46.78" gradientUnits="userSpaceOnUse"><stop offset="0" stop-color="#1c9bd8"/><stop offset="0.48" stop-color="#0c65af"/><stop offset="1" stop-color="#423e92"/></linearGradient><linearGradient id="linear-gradient-3" x1="31.99" x2="31.99" y2="17.18" gradientUnits="userSpaceOnUse"><stop offset="0" stop-color="#f6a734"/><stop offset="0.18" stop-color="#f49933"/><stop offset="0.53" stop-color="#ef7532"/><stop offset="1" stop-color="#e73a2f"/></linearGradient></defs><title>clipboard</title><g id="Layer_2" data-name="Layer 2"><g id="Layer_1-2" data-name="Layer 1"><circle class="cls-1" cx="12.34" cy="27.64" r="3.49"/><circle class="cls-2" cx="12.34" cy="47.15" r="3.49"/><circle class="cls-3" cx="12.34" cy="67.15" r="3.49"/><line class="cls-4" x1="23.5" y1="27.64" x2="52.13" y2="27.64"/><line class="cls-5" x1="23.5" y1="47.15" x2="52.13" y2="47.15"/><line class="cls-6" x1="23.5" y1="67.15" x2="52.13" y2="67.15"/><rect class="cls-7" x="2.18" y="10.64" width="59.63" height="72.29" rx="2.61" ry="2.61"/><path class="cls-8" d="M36,5.12a3.58,3.58,0,0,0-.86-3.82A4.68,4.68,0,0,0,31.92,0a4.17,4.17,0,0,0-4.1,4.17,4.26,4.26,0,0,0,.12,1H20.79a.53.53,0,0,0-.53.53v11a.52.52,0,0,0,.53.52h22.4a.52.52,0,0,0,.53-.52v-11a.53.53,0,0,0-.53-.53Z"/></g></g></svg>