<svg id="Layer_1" data-name="Layer 1" xmlns="http://www.w3.org/2000/svg" xmlns:xlink="http://www.w3.org/1999/xlink" viewBox="0 0 113.39 113.39"><defs><style>.cls-1{fill:url(#linear-gradient);}.cls-2{fill:url(#New_Gradient_Swatch_copy);}.cls-3{fill:url(#New_Gradient_Swatch_copy-2);}.cls-4{fill:url(#New_Gradient_Swatch_copy-3);}</style><linearGradient id="linear-gradient" x1="13.81" y1="323.01" x2="99.86" y2="337.97" gradientTransform="matrix(1, 0, 0, -5.75, 0, 1955.51)" gradientUnits="userSpaceOnUse"><stop offset="0" stop-color="#1d9ad7"/><stop offset="0.48" stop-color="#1366af"/><stop offset="1" stop-color="#423f92"/></linearGradient><linearGradient id="New_Gradient_Swatch_copy" x1="56.27" y1="50.71" x2="56.27" y2="59.7" gradientUnits="userSpaceOnUse"><stop offset="0" stop-color="#f7a834"/><stop offset="1" stop-color="#e73a30"/></linearGradient><linearGradient id="New_Gradient_Swatch_copy-2" x1="70.27" y1="50.71" x2="70.27" y2="59.7" xlink:href="#New_Gradient_Swatch_copy"/><linearGradient id="New_Gradient_Swatch_copy-3" x1="84.28" y1="50.71" x2="84.28" y2="59.7" xlink:href="#New_Gradient_Swatch_copy"/></defs><title>Artboard 14 copy 7</title><path class="cls-1" d="M96.49,30.92H71.1v-8.4a3.87,3.87,0,0,0-3.87-3.87H16.66a3.87,3.87,0,0,0-3.87,3.87V62.78a3.87,3.87,0,0,0,3.87,3.87h1.71V75a3,3,0,0,0,5.41,1.74L31,66.64H40v11.1a4.1,4.1,0,0,0,4.1,4.1H80.3l8.35,11.6a3.1,3.1,0,0,0,5.61-1.81V81.84h2.23a4.1,4.1,0,0,0,4.1-4.1V35A4.1,4.1,0,0,0,96.49,30.92ZM40,35V62.34H28.84l-6.17,8.58V62.34H17.09V23h49.7v8H44.06A4.1,4.1,0,0,0,40,35ZM96.29,77.54H90V87.9L82.5,77.54H44.26V35.22h52Z"/><ellipse class="cls-2" cx="56.27" cy="55.2" rx="4.27" ry="4.49"/><ellipse class="cls-3" cx="70.27" cy="55.2" rx="4.27" ry="4.49"/><ellipse class="cls-4" cx="84.28" cy="55.2" rx="4.27" ry="4.49"/></svg>