<svg id="Layer_1" data-name="Layer 1" xmlns="http://www.w3.org/2000/svg" xmlns:xlink="http://www.w3.org/1999/xlink" viewBox="0 0 113.39 113.39"><defs><style>.cls-1{fill:url(#linear-gradient);}.cls-2{fill:url(#linear-gradient-2);}.cls-3{fill:url(#linear-gradient-3);}.cls-4{fill:url(#linear-gradient-4);}.cls-5{fill:url(#linear-gradient-5);}.cls-6{fill:url(#New_Gradient_Swatch_copy);}</style><linearGradient id="linear-gradient" x1="63.42" y1="42.88" x2="68.34" y2="42.88" gradientUnits="userSpaceOnUse"><stop offset="0" stop-color="#f7a834"/><stop offset="0.18" stop-color="#f59a33"/><stop offset="0.53" stop-color="#f07632"/><stop offset="0.99" stop-color="#e73b30"/><stop offset="1" stop-color="#e73a30"/></linearGradient><linearGradient id="linear-gradient-2" x1="83.42" y1="42.88" x2="88.34" y2="42.88" xlink:href="#linear-gradient"/><linearGradient id="linear-gradient-3" x1="43.42" y1="55.88" x2="48.33" y2="55.88" xlink:href="#linear-gradient"/><linearGradient id="linear-gradient-4" x1="11.69" y1="56.69" x2="101.69" y2="56.69" gradientUnits="userSpaceOnUse"><stop offset="0" stop-color="#1d9ad7"/><stop offset="0.48" stop-color="#1366af"/><stop offset="1" stop-color="#423f92"/></linearGradient><linearGradient id="linear-gradient-5" x1="56.22" y1="82.86" x2="84.63" y2="54.44" xlink:href="#linear-gradient-4"/><linearGradient id="New_Gradient_Swatch_copy" x1="82.77" y1="61.65" x2="82.77" y2="70.97" gradientUnits="userSpaceOnUse"><stop offset="0" stop-color="#f7a834"/><stop offset="1" stop-color="#e73a30"/></linearGradient></defs><title>Artboard 14 copy 5</title><circle class="cls-1" cx="65.88" cy="42.88" r="2.46"/><circle class="cls-2" cx="85.88" cy="42.88" r="2.46"/><circle class="cls-3" cx="45.88" cy="55.88" r="2.46"/><path class="cls-4" d="M96.74,19.86H16.65a5,5,0,0,0-5,5V88.57a5,5,0,0,0,5,5H96.74a5,5,0,0,0,5-5V24.82A5,5,0,0,0,96.74,19.86ZM16.65,24.34H96.74a.48.48,0,0,1,.48.48v6.42h-81V24.82A.48.48,0,0,1,16.65,24.34ZM96.74,89H16.65a.48.48,0,0,1-.48-.48V35.72h81V88.57A.48.48,0,0,1,96.74,89ZM34,45.12H22.29a2.24,2.24,0,0,1,0-4.48H34a2.24,2.24,0,0,1,0,4.48Zm0,13H22.29a2.24,2.24,0,0,1,0-4.48H34a2.24,2.24,0,0,1,0,4.48Zm0,13H22.29a2.24,2.24,0,0,1,0-4.48H34a2.24,2.24,0,0,1,0,4.48Zm0,13H22.29a2.24,2.24,0,0,1,0-4.48H34a2.24,2.24,0,0,1,0,4.48ZM48.33,42.88a2.46,2.46,0,1,1-2.46-2.46A2.46,2.46,0,0,1,48.33,42.88Zm10,0a2.46,2.46,0,1,1-2.46-2.46A2.46,2.46,0,0,1,58.34,42.88Zm20,0a2.46,2.46,0,1,1-2.46-2.46A2.46,2.46,0,0,1,78.34,42.88Zm-30,26a2.46,2.46,0,1,1-2.46-2.46A2.46,2.46,0,0,1,48.33,68.88Zm0,13a2.46,2.46,0,1,1-2.46-2.46A2.46,2.46,0,0,1,48.33,81.88Z"/><path class="cls-5" d="M82.91,56.66a10,10,0,0,0-1.38.1V51.54a.46.46,0,0,0-.6-.44L72.12,54l-8-2.64a.91.91,0,0,0-.39-.1h-.12a.91.91,0,0,0-.39.1L54.63,54.2a.46.46,0,0,0-.32.44V80.77a.46.46,0,0,0,.6.44l8.75-2.88L71.72,81a2,2,0,0,0,.8,0l5.15-1.7C78.49,80.74,79.3,82,80,83.06l.28.42.29.42c.38.55.8,1.12,1.09,1.5a1.45,1.45,0,0,0,1.07.58h.1a1.46,1.46,0,0,0,1-.43,12.9,12.9,0,0,0,1.4-1.65l.29-.42.28-.42c2.43-3.69,6.5-10.78,6.5-16.75A9.32,9.32,0,0,0,82.91,56.66ZM62.72,76.31a.46.46,0,0,1-.32.44l-5.59,1.84a.46.46,0,0,1-.6-.44V56a.46.46,0,0,1,.32-.44l5.59-1.84a.46.46,0,0,1,.6.44Zm8.41,1.62a.62.62,0,0,1-.81.59L65,76.78a.62.62,0,0,1-.43-.59V54.38a.62.62,0,0,1,.81-.59l5.27,1.74a.62.62,0,0,1,.43.59Zm2.63.65a.49.49,0,0,1-.64-.47V56a.49.49,0,0,1,.34-.47L79,53.73a.46.46,0,0,1,.6.44v3.06a9.4,9.4,0,0,0-6.11,9.09c0,3.75,1.53,7.83,3.26,11.27Zm10.62,3.55-.27.41-.28.41a10.33,10.33,0,0,1-1,1.21c-.26-.35-.58-.79-.88-1.22l-.28-.41-.27-.41C80.78,81.2,80,80,79.31,78.74,79,78.2,78.7,77.64,78.4,77c-1.69-3.29-3.19-7.21-3.19-10.74A7.84,7.84,0,0,1,79.63,59a7.58,7.58,0,0,1,1.89-.55,8.7,8.7,0,0,1,1.38-.12c5.06,0,7.7,4,7.7,8C90.61,71.84,86.71,78.6,84.39,82.13Z"/><ellipse class="cls-6" cx="82.77" cy="66.31" rx="4.42" ry="4.66"/></svg>