<svg xmlns="http://www.w3.org/2000/svg" xmlns:xlink="http://www.w3.org/1999/xlink" viewBox="0 0 62.6 76.76"><defs><style>.cls-1{fill:url(#linear-gradient);}.cls-2{fill:url(#linear-gradient-2);}</style><linearGradient id="linear-gradient" x1="148.39" y1="132.01" x2="164.34" y2="132.01" gradientTransform="translate(164.8 -148.39) rotate(90)" gradientUnits="userSpaceOnUse"><stop offset="0" stop-color="#f6a734"/><stop offset="0.18" stop-color="#f49933"/><stop offset="0.53" stop-color="#ef7532"/><stop offset="1" stop-color="#e73a2f"/></linearGradient><linearGradient id="linear-gradient-2" x1="11.67" y1="76.68" x2="57.57" y2="30.78" gradientUnits="userSpaceOnUse"><stop offset="0" stop-color="#1c9bd8"/><stop offset="0.48" stop-color="#0c65af"/><stop offset="1" stop-color="#423e92"/></linearGradient></defs><title>disabled</title><g id="Layer_2" data-name="Layer 2"><g id="Layer_1-2" data-name="Layer 1"><circle class="cls-1" cx="32.79" cy="7.98" r="7.98"/><path class="cls-2" d="M56.58,76.76c-3,0-5.49-1.76-7.42-5.24l-6.76-13-14.56-.15a8.24,8.24,0,0,1-7.23-6.6l0-.42c-.07-8.32-.22-27.69-.22-27.77A7.58,7.58,0,0,1,27.92,16a12.77,12.77,0,0,1,3,.63L53.65,27.8a6,6,0,0,1-1.81,11.67c-.58,0-.58,0-9.8-3.71l-5.13-2.07.24,10.4,12.13,1.27a5.9,5.9,0,0,1,4.37,4.21c.83,1.93,8.31,19.16,8.48,19.54A5,5,0,0,1,61.77,74,6.16,6.16,0,0,1,56.58,76.76ZM28.23,53.85,45.14,54l8,15.39c1.6,2.88,3,2.88,3.47,2.88A1.71,1.71,0,0,0,58,71.57a.56.56,0,0,0,.06-.6s-.06-.12-8.6-19.79l-.13-.41a1.37,1.37,0,0,0-.94-1L32.76,48.13,32.28,27l3.16,1.28,8.28,3.35c5.68,2.28,7.7,3.08,8.42,3.36a1.5,1.5,0,0,0,.09-2.92l-.4-.15L29.22,20.73a12.11,12.11,0,0,0-1.37-.3,3.08,3.08,0,0,0-3,3.1c0,.26.19,24.84.21,27.5A3.76,3.76,0,0,0,28.23,53.85ZM20.05,76.76a20.05,20.05,0,0,1-4-39.69,2.24,2.24,0,0,1,.9,4.39A15.58,15.58,0,1,0,35.09,60.78a2.24,2.24,0,0,1,4.32,1.16A20.07,20.07,0,0,1,20.05,76.76Z"/></g></g></svg>