<svg xmlns="http://www.w3.org/2000/svg" xmlns:xlink="http://www.w3.org/1999/xlink" viewBox="0 0 42.6 90.63"><defs><style>.cls-1{fill:url(#linear-gradient);}.cls-2{fill:none;stroke-linecap:round;stroke-miterlimit:10;stroke-width:4.48px;stroke:url(#linear-gradient-2);}</style><linearGradient id="linear-gradient" x1="21.4" x2="21.4" y2="17.1" gradientUnits="userSpaceOnUse"><stop offset="0" stop-color="#f6a734"/><stop offset="0.18" stop-color="#f49933"/><stop offset="0.53" stop-color="#ef7532"/><stop offset="1" stop-color="#e73a2f"/></linearGradient><linearGradient id="linear-gradient-2" x1="-0.95" y1="74.92" x2="43.51" y2="30.46" gradientUnits="userSpaceOnUse"><stop offset="0" stop-color="#1c9bd8"/><stop offset="0.48" stop-color="#0c65af"/><stop offset="1" stop-color="#423e92"/></linearGradient></defs><title>female</title><g id="Layer_2" data-name="Layer 2"><g id="Layer_1-2" data-name="Layer 1"><circle class="cls-1" cx="21.4" cy="8.55" r="8.55"/><path class="cls-2" d="M27,20.11c4.75,0,6.67,3.91,7.39,6.07l5.83,19.16c1.16,4.13-5.72,5.9-7,1.88,0,0-4.68-16.69-4.15-14.7h0l8,28.08a.2.2,0,0,1-.19.26H28.84v24.4c0,4.16-7.54,4.14-7.54,0v0c0,4.2-7.55,4.16-7.55,0V60.86H5.62a.2.2,0,0,1-.2-.26s7.12-25.12,7.75-27.48h0L9.26,47.22C8,51.07,1.17,49.49,2.38,45.36L8.21,26.18c.62-2.19,2.53-6.07,7.32-6.07Z"/></g></g></svg>