<svg xmlns="http://www.w3.org/2000/svg" xmlns:xlink="http://www.w3.org/1999/xlink" viewBox="0 0 72.77 72.77"><defs><style>.cls-1{fill:url(#linear-gradient);}.cls-2{fill:url(#linear-gradient-2);}.cls-3{fill:url(#linear-gradient-3);}.cls-4{fill:url(#linear-gradient-4);}.cls-5{fill:url(#linear-gradient-5);}.cls-6{fill:url(#linear-gradient-6);}.cls-7{fill:none;stroke-linecap:round;stroke-miterlimit:10;stroke-width:4px;stroke:url(#linear-gradient-7);}</style><linearGradient id="linear-gradient" x1="57.65" y1="0.61" x2="57.65" y2="26.34" gradientUnits="userSpaceOnUse"><stop offset="0" stop-color="#f6a734"/><stop offset="1" stop-color="#ee7031"/></linearGradient><linearGradient id="linear-gradient-2" x1="23.09" y1="0.61" x2="23.09" y2="17.27" xlink:href="#linear-gradient"/><linearGradient id="linear-gradient-3" x1="6.44" y1="22.83" x2="6.44" y2="58.95" gradientUnits="userSpaceOnUse"><stop offset="0" stop-color="#ee6f31"/><stop offset="0.26" stop-color="#ed6731"/><stop offset="0.68" stop-color="#ea5030"/><stop offset="1" stop-color="#e73a2f"/></linearGradient><linearGradient id="linear-gradient-4" x1="36.38" y1="25.29" x2="36.38" y2="47.31" xlink:href="#linear-gradient-3"/><linearGradient id="linear-gradient-5" x1="31.4" y1="72.11" x2="31.4" y2="60.25" gradientUnits="userSpaceOnUse"><stop offset="0" stop-color="#ea5030"/><stop offset="1" stop-color="#e73a2f"/></linearGradient><linearGradient id="linear-gradient-6" x1="63.97" y1="32.42" x2="63.97" y2="66.42" xlink:href="#linear-gradient-3"/><linearGradient id="linear-gradient-7" y1="36.38" x2="72.77" y2="36.38" gradientUnits="userSpaceOnUse"><stop offset="0" stop-color="#1c9bd8"/><stop offset="0.48" stop-color="#0c65af"/><stop offset="1" stop-color="#423e92"/></linearGradient></defs><title>football</title><g id="Layer_2" data-name="Layer 2"><g id="Layer_1-2" data-name="Layer 1"><path class="cls-1" d="M68,19.6c-.13-.25-.26-.5-.4-.75h0A35.52,35.52,0,0,0,50.67,3.6L43.8.61l9.27,18.15L71.5,26.34Z"/><path class="cls-2" d="M39.87.61,32.47,1A35.69,35.69,0,0,0,11.32,11.91l-5,5.36,19.75-2.34Z"/><path class="cls-3" d="M1.19,30.23A35.72,35.72,0,0,0,2.41,47.42a36.25,36.25,0,0,0,2.4,5.66L9.56,59,12.23,40.2,4,22.83Z"/><polygon class="cls-4" points="45.24 27.45 31.63 25.29 25.37 37.57 35.12 47.31 47.4 41.06 45.24 27.45"/><path class="cls-5" d="M12.74,64.15l6.67,3.66.76.4h0a35.33,35.33,0,0,0,22.51,3.32l7.38-1.31-17.78-10Z"/><path class="cls-6" d="M57.68,46.56,56.16,66.42,61.35,61a35.81,35.81,0,0,0,8.51-15A37.67,37.67,0,0,0,71,40l.77-7.53Z"/><path class="cls-7" d="M52,5.75A34.39,34.39,0,1,0,67,52,34.33,34.33,0,0,0,52,5.75Z"/></g></g></svg>