<svg xmlns="http://www.w3.org/2000/svg" xmlns:xlink="http://www.w3.org/1999/xlink" viewBox="0 0 66.61 34.86"><defs><style>.cls-1{fill:none;stroke-linecap:round;stroke-miterlimit:10;stroke-width:4.48px;stroke:url(#linear-gradient);}.cls-2{fill:url(#linear-gradient-2);}</style><linearGradient id="linear-gradient" x1="36.38" y1="-1.8" x2="36.38" y2="-31.3" gradientTransform="matrix(1, 0, 0, -1, 0, 3.56)" gradientUnits="userSpaceOnUse"><stop offset="0" stop-color="#f6a734"/><stop offset="1" stop-color="#e73a2f"/></linearGradient><linearGradient id="linear-gradient-2" x1="8.76" y1="-38.41" x2="57.85" y2="10.68" gradientTransform="matrix(1, 0, 0, -1, 0, 3.56)" gradientUnits="userSpaceOnUse"><stop offset="0" stop-color="#1c9bd8"/><stop offset="0.5" stop-color="#0c65af"/><stop offset="1" stop-color="#423e92"/></linearGradient></defs><title>images</title><g id="Layer_2" data-name="Layer 2"><g id="Layer_1-2" data-name="Layer 1"><g id="Layer_2-2" data-name="Layer 2"><g id="Layer_1-2-2" data-name="Layer 1-2"><polyline class="cls-1" points="9.38 32.62 24.6 14.84 32.49 23.73 25.37 32.62 44.38 8.9 63.38 31.61"/><path class="cls-2" d="M63.81,34.85h-61A2.81,2.81,0,0,1,0,32s0,0,0,0V2.81A2.81,2.81,0,0,1,2.81,0h61a2.81,2.81,0,0,1,2.8,2.81V32a2.81,2.81,0,0,1-2.77,2.85ZM4.48,30.38H62.14V4.48H4.48Z"/></g></g></g></g></svg>