<svg xmlns="http://www.w3.org/2000/svg" xmlns:xlink="http://www.w3.org/1999/xlink" viewBox="0 0 85.36 86.42"><defs><style>.cls-1{fill:url(#linear-gradient);}.cls-2{fill:url(#New_Gradient_Swatch_copy);}</style><linearGradient id="linear-gradient" y1="43.21" x2="85.36" y2="43.21" gradientUnits="userSpaceOnUse"><stop offset="0" stop-color="#1c9bd8"/><stop offset="0.48" stop-color="#0c65af"/><stop offset="1" stop-color="#423e92"/></linearGradient><linearGradient id="New_Gradient_Swatch_copy" x1="44.38" y1="23.93" x2="44.38" y2="54.37" gradientUnits="userSpaceOnUse"><stop offset="0" stop-color="#f6a734"/><stop offset="1" stop-color="#e73a2f"/></linearGradient></defs><title>money_1</title><g id="Layer_2" data-name="Layer 2"><g id="Layer_1-2" data-name="Layer 1"><path class="cls-1" d="M37,86.42a6.16,6.16,0,0,1-4.25-1.7h0L1.92,55.42a6.17,6.17,0,0,1-.23-8.72L43.84,2A6.22,6.22,0,0,1,48.3.09L78.58,0h0a6.19,6.19,0,0,1,6.17,6l.6,29.35a6.15,6.15,0,0,1-1.7,4.38L41.47,84.5A6.21,6.21,0,0,1,37,86.42Zm-1.16-4.94a1.7,1.7,0,0,0,2.39-.06L80.41,36.69a1.71,1.71,0,0,0,.47-1.21L80.29,6.13A1.7,1.7,0,0,0,78.6,4.48h0l-30.28.09a1.69,1.69,0,0,0-1.22.53L5,49.78a1.69,1.69,0,0,0,0,2.4ZM74.88,12.84A3.53,3.53,0,1,1,71.26,9.4,3.53,3.53,0,0,1,74.88,12.84Z"/><path class="cls-2" d="M52.84,50H40.62a11.06,11.06,0,0,0,2-8.2h5.7a2.19,2.19,0,0,0,0-4.38h-7c0-.1-.07-.2-.11-.3-1.28-3.26-1.81-4.93.12-7.3a3.55,3.55,0,0,1,2.56-1.49c2.2-.17,4.76,1.65,5.56,2.36a2.19,2.19,0,0,0,2.94-3.25C51.94,27,48,23.61,43.56,24a7.94,7.94,0,0,0-5.64,3.09c-3.15,3.88-2.38,7.4-1.3,10.36h-.7a2.19,2.19,0,0,0,0,4.38h2.24c.54,2.37.17,4.72-3,7.9a2.76,2.76,0,0,0-.59,3,2.69,2.69,0,0,0,2.5,1.66H52.84a2.19,2.19,0,0,0,0-4.38Z"/></g></g></svg>