<svg xmlns="http://www.w3.org/2000/svg" xmlns:xlink="http://www.w3.org/1999/xlink" viewBox="0 0 87.8 76.08"><defs><style>.cls-1{fill:url(#linear-gradient);}.cls-2{fill:url(#New_Gradient_Swatch_copy);}.cls-3{fill:url(#New_Gradient_Swatch_copy-2);}.cls-4{fill:url(#New_Gradient_Swatch_copy-3);}</style><linearGradient id="linear-gradient" x1="1.02" y1="48.72" x2="87.06" y2="63.67" gradientTransform="matrix(1, 0, 0, -5.75, 0, 358.33)" gradientUnits="userSpaceOnUse"><stop offset="0" stop-color="#1c9bd8"/><stop offset="0.48" stop-color="#0c65af"/><stop offset="1" stop-color="#423e92"/></linearGradient><linearGradient id="New_Gradient_Swatch_copy" x1="43.48" y1="32.06" x2="43.48" y2="41.04" gradientUnits="userSpaceOnUse"><stop offset="0" stop-color="#f6a734"/><stop offset="1" stop-color="#e73a2f"/></linearGradient><linearGradient id="New_Gradient_Swatch_copy-2" x1="57.48" y1="32.06" x2="57.48" y2="41.04" xlink:href="#New_Gradient_Swatch_copy"/><linearGradient id="New_Gradient_Swatch_copy-3" x1="71.48" y1="32.06" x2="71.48" y2="41.04" xlink:href="#New_Gradient_Swatch_copy"/></defs><title>speech_bubble_2</title><g id="Layer_2" data-name="Layer 2"><g id="Layer_1-2" data-name="Layer 1"><path class="cls-1" d="M83.7,12.26H58.3V3.87A3.86,3.86,0,0,0,54.44,0H3.87A3.87,3.87,0,0,0,0,3.87V44.12A3.87,3.87,0,0,0,3.87,48H5.58v8.36a3,3,0,0,0,2.06,2.84,3,3,0,0,0,.93.15A3,3,0,0,0,11,58.1L18.25,48h8.91V59.08a4.11,4.11,0,0,0,4.1,4.1H67.51l8.34,11.61a3.12,3.12,0,0,0,2.51,1.29,2.93,2.93,0,0,0,1-.16A3.08,3.08,0,0,0,81.47,73v-9.8H83.7a4.11,4.11,0,0,0,4.1-4.1V16.36A4.11,4.11,0,0,0,83.7,12.26Zm-56.54,4.1V43.69H16.05L9.88,52.27V43.69H4.3V4.3H54v8H31.26A4.11,4.11,0,0,0,27.16,16.36ZM83.5,58.88H77.17V69.25L69.71,58.88H31.46V16.57h52Z"/><path class="cls-2" d="M47.75,36.55A4.28,4.28,0,1,0,43.48,41,4.39,4.39,0,0,0,47.75,36.55Z"/><path class="cls-3" d="M61.75,36.55A4.28,4.28,0,1,0,57.48,41,4.39,4.39,0,0,0,61.75,36.55Z"/><path class="cls-4" d="M75.75,36.55A4.27,4.27,0,1,0,71.48,41,4.39,4.39,0,0,0,75.75,36.55Z"/></g></g></svg>