<svg xmlns="http://www.w3.org/2000/svg" xmlns:xlink="http://www.w3.org/1999/xlink" viewBox="0 0 103.94 84.27"><defs><style>.cls-1{fill:none;}.cls-2{clip-path:url(#clip-path);}.cls-3{fill:#f6a734;}.cls-4{fill:#f6a634;}.cls-5{fill:#f6a534;}.cls-6{fill:#f6a434;}.cls-7{fill:#f5a334;}.cls-8{fill:#f5a234;}.cls-9{fill:#f5a134;}.cls-10{fill:#f5a034;}.cls-11{fill:#f59f34;}.cls-12{fill:#f59e34;}.cls-13{fill:#f59d34;}.cls-14{fill:#f49c33;}.cls-15{fill:#f49b33;}.cls-16{fill:#f49a33;}.cls-17{fill:#f49933;}.cls-18{fill:#f49833;}.cls-19{fill:#f49733;}.cls-20{fill:#f49633;}.cls-21{fill:#f49533;}.cls-22{fill:#f39433;}.cls-23{fill:#f39333;}.cls-24{fill:#f39233;}.cls-25{fill:#f39133;}.cls-26{fill:#f39033;}.cls-27{fill:#f38f33;}.cls-28{fill:#f38e33;}.cls-29{fill:#f28d33;}.cls-30{fill:#f28c33;}.cls-31{fill:#f28b33;}.cls-32{fill:#f28a33;}.cls-33{fill:#f28933;}.cls-34{fill:#f28833;}.cls-35{fill:#f28733;}.cls-36{fill:#f18632;}.cls-37{fill:#f18532;}.cls-38{fill:#f18432;}.cls-39{fill:#f18332;}.cls-40{fill:#f18232;}.cls-41{fill:#f18132;}.cls-42{fill:#f18032;}.cls-43{fill:#f07f32;}.cls-44{fill:#f07e32;}.cls-45{fill:#f07d32;}.cls-46{fill:#f07c32;}.cls-47{fill:#f07b32;}.cls-48{fill:#f07a32;}.cls-49{fill:#f07932;}.cls-50{fill:#ef7832;}.cls-51{fill:#ef7732;}.cls-52{fill:#ef7632;}.cls-53{fill:#ef7532;}.cls-54{fill:#ef7432;}.cls-55{fill:#ef7332;}.cls-56{fill:#ef7232;}.cls-57{fill:#ef7132;}.cls-58{fill:#ee6f31;}.cls-59{fill:#ee6e31;}.cls-60{fill:#ee6d31;}.cls-61{fill:#ee6c31;}.cls-62{fill:#ee6b31;}.cls-63{fill:#ee6a31;}.cls-64{fill:#ee6931;}.cls-65{fill:#ed6831;}.cls-66{fill:#ed6731;}.cls-67{fill:#ed6631;}.cls-68{fill:#ed6531;}.cls-69{fill:#ed6431;}.cls-70{fill:#ed6331;}.cls-71{fill:#ed6231;}.cls-72{fill:#ec6131;}.cls-73{fill:#ec6031;}.cls-74{fill:#ec5f31;}.cls-75{fill:#ec5e31;}.cls-76{fill:#ec5d31;}.cls-77{fill:#ec5c31;}.cls-78{fill:#ec5b31;}.cls-79{fill:#eb5a30;}.cls-80{fill:#eb5930;}.cls-81{fill:#eb5830;}.cls-82{fill:#eb5730;}.cls-83{fill:#eb5630;}.cls-84{fill:#eb5530;}.cls-85{fill:#eb5430;}.cls-86{fill:#ea5330;}.cls-87{fill:#ea5230;}.cls-88{fill:#ea5130;}.cls-89{fill:#ea5030;}.cls-90{fill:#ea4f30;}.cls-91{fill:#ea4e30;}.cls-92{fill:#ea4d30;}.cls-93{fill:#ea4c30;}.cls-94{fill:#e94b30;}.cls-95{fill:#e94a30;}.cls-96{fill:#e94930;}.cls-97{fill:#e94830;}.cls-98{fill:#e94730;}.cls-99{fill:#e94630;}.cls-100{fill:#e94530;}.cls-101{fill:#e8442f;}.cls-102{fill:#e8432f;}.cls-103{fill:#e8422f;}.cls-104{fill:#e8412f;}.cls-105{fill:#e8402f;}.cls-106{fill:#e83f2f;}.cls-107{fill:#e83e2f;}.cls-108{fill:#e73d2f;}.cls-109{fill:#e73c2f;}.cls-110{fill:#e73b2f;}.cls-111{fill:#e73a2f;}.cls-112{fill:url(#linear-gradient);}</style><clipPath id="clip-path"><polygon class="cls-1" points="72.5 0.9 83.34 0.9 37.31 82.68 26.39 82.68 72.5 0.9"/></clipPath><linearGradient id="linear-gradient" x1="16.23" y1="75.69" x2="87.72" y2="4.21" gradientUnits="userSpaceOnUse"><stop offset="0" stop-color="#1c9bd8"/><stop offset="0.48" stop-color="#0c65af"/><stop offset="1" stop-color="#423e92"/></linearGradient></defs><title>sport_club_1</title><g id="Layer_2" data-name="Layer 2"><g id="Layer_1-2" data-name="Layer 1"><g class="cls-2"><path class="cls-3" d="M83.34.9h0Z"/><rect class="cls-3" x="26.39" y="0.9" width="56.96" height="0.75"/><rect class="cls-4" x="26.39" y="1.65" width="56.96" height="0.75"/><rect class="cls-5" x="26.39" y="2.4" width="56.96" height="0.75"/><rect class="cls-6" x="26.39" y="3.15" width="56.96" height="0.75"/><rect class="cls-7" x="26.39" y="3.9" width="56.96" height="0.75"/><rect class="cls-8" x="26.39" y="4.65" width="56.96" height="0.75"/><rect class="cls-9" x="26.39" y="5.4" width="56.96" height="0.75"/><rect class="cls-10" x="26.39" y="6.15" width="56.96" height="0.75"/><rect class="cls-11" x="26.39" y="6.9" width="56.96" height="0.75"/><rect class="cls-12" x="26.39" y="7.65" width="56.96" height="0.75"/><rect class="cls-13" x="26.39" y="8.4" width="56.96" height="0.75"/><rect class="cls-14" x="26.39" y="9.15" width="56.96" height="0.75"/><rect class="cls-15" x="26.39" y="9.9" width="56.96" height="0.75"/><rect class="cls-16" x="26.39" y="10.65" width="56.96" height="0.75"/><rect class="cls-17" x="26.39" y="11.4" width="56.96" height="0.75"/><rect class="cls-18" x="26.39" y="12.15" width="56.96" height="0.75"/><rect class="cls-19" x="26.39" y="12.9" width="56.96" height="0.75"/><rect class="cls-20" x="26.39" y="13.65" width="56.96" height="0.75"/><rect class="cls-21" x="26.39" y="14.4" width="56.96" height="0.75"/><rect class="cls-22" x="26.39" y="15.15" width="56.96" height="0.75"/><rect class="cls-23" x="26.39" y="15.9" width="56.96" height="0.75"/><rect class="cls-24" x="26.39" y="16.65" width="56.96" height="0.75"/><rect class="cls-25" x="26.39" y="17.41" width="56.96" height="0.75"/><rect class="cls-26" x="26.39" y="18.16" width="56.96" height="0.75"/><rect class="cls-27" x="26.39" y="18.91" width="56.96" height="0.75"/><rect class="cls-28" x="26.39" y="19.66" width="56.96" height="0.75"/><rect class="cls-29" x="26.39" y="20.41" width="56.96" height="0.75"/><rect class="cls-30" x="26.39" y="21.16" width="56.96" height="0.75"/><rect class="cls-31" x="26.39" y="21.91" width="56.96" height="0.75"/><rect class="cls-32" x="26.39" y="22.66" width="56.96" height="0.75"/><rect class="cls-33" x="26.39" y="23.41" width="56.96" height="0.75"/><rect class="cls-34" x="26.39" y="24.16" width="56.96" height="0.75"/><rect class="cls-35" x="26.39" y="24.91" width="56.96" height="0.75"/><rect class="cls-36" x="26.39" y="25.66" width="56.96" height="0.75"/><rect class="cls-37" x="26.39" y="26.41" width="56.96" height="0.75"/><rect class="cls-38" x="26.39" y="27.16" width="56.96" height="0.75"/><rect class="cls-39" x="26.39" y="27.91" width="56.96" height="0.75"/><rect class="cls-40" x="26.39" y="28.66" width="56.96" height="0.75"/><rect class="cls-41" x="26.39" y="29.41" width="56.96" height="0.75"/><rect class="cls-42" x="26.39" y="30.16" width="56.96" height="0.75"/><rect class="cls-43" x="26.39" y="30.91" width="56.96" height="0.75"/><rect class="cls-44" x="26.39" y="31.66" width="56.96" height="0.75"/><rect class="cls-45" x="26.39" y="32.41" width="56.96" height="0.75"/><rect class="cls-46" x="26.39" y="33.16" width="56.96" height="0.75"/><rect class="cls-47" x="26.39" y="33.91" width="56.96" height="0.75"/><rect class="cls-48" x="26.39" y="34.66" width="56.96" height="0.75"/><rect class="cls-49" x="26.39" y="35.41" width="56.96" height="0.75"/><rect class="cls-50" x="26.39" y="36.16" width="56.96" height="0.75"/><rect class="cls-51" x="26.39" y="36.91" width="56.96" height="0.75"/><rect class="cls-52" x="26.39" y="37.66" width="56.96" height="0.75"/><rect class="cls-53" x="26.39" y="38.41" width="56.96" height="0.75"/><rect class="cls-54" x="26.39" y="39.16" width="56.96" height="0.75"/><rect class="cls-55" x="26.39" y="39.91" width="56.96" height="0.75"/><rect class="cls-56" x="26.39" y="40.66" width="56.96" height="0.75"/><rect class="cls-57" x="26.39" y="41.41" width="56.96" height="0.75"/><rect class="cls-58" x="26.39" y="42.16" width="56.96" height="0.75"/><rect class="cls-59" x="26.39" y="42.91" width="56.96" height="0.75"/><rect class="cls-60" x="26.39" y="43.66" width="56.96" height="0.75"/><rect class="cls-61" x="26.39" y="44.41" width="56.96" height="0.75"/><rect class="cls-62" x="26.39" y="45.16" width="56.96" height="0.75"/><rect class="cls-63" x="26.39" y="45.91" width="56.96" height="0.75"/><rect class="cls-64" x="26.39" y="46.66" width="56.96" height="0.75"/><rect class="cls-65" x="26.39" y="47.41" width="56.96" height="0.75"/><rect class="cls-66" x="26.39" y="48.17" width="56.96" height="0.75"/><rect class="cls-67" x="26.39" y="48.92" width="56.96" height="0.75"/><rect class="cls-68" x="26.39" y="49.67" width="56.96" height="0.75"/><rect class="cls-69" x="26.39" y="50.42" width="56.96" height="0.75"/><rect class="cls-70" x="26.39" y="51.17" width="56.96" height="0.75"/><rect class="cls-71" x="26.39" y="51.92" width="56.96" height="0.75"/><rect class="cls-72" x="26.39" y="52.67" width="56.96" height="0.75"/><rect class="cls-73" x="26.39" y="53.42" width="56.96" height="0.75"/><rect class="cls-74" x="26.39" y="54.17" width="56.96" height="0.75"/><rect class="cls-75" x="26.39" y="54.92" width="56.96" height="0.75"/><rect class="cls-76" x="26.39" y="55.67" width="56.96" height="0.75"/><rect class="cls-77" x="26.39" y="56.42" width="56.96" height="0.75"/><rect class="cls-78" x="26.39" y="57.17" width="56.96" height="0.75"/><rect class="cls-79" x="26.39" y="57.92" width="56.96" height="0.75"/><rect class="cls-80" x="26.39" y="58.67" width="56.96" height="0.75"/><rect class="cls-81" x="26.39" y="59.42" width="56.96" height="0.75"/><rect class="cls-82" x="26.39" y="60.17" width="56.96" height="0.75"/><rect class="cls-83" x="26.39" y="60.92" width="56.96" height="0.75"/><rect class="cls-84" x="26.39" y="61.67" width="56.96" height="0.75"/><rect class="cls-85" x="26.39" y="62.42" width="56.96" height="0.75"/><rect class="cls-86" x="26.39" y="63.17" width="56.96" height="0.75"/><rect class="cls-87" x="26.39" y="63.92" width="56.96" height="0.75"/><rect class="cls-88" x="26.39" y="64.67" width="56.96" height="0.75"/><rect class="cls-89" x="26.39" y="65.42" width="56.96" height="0.75"/><rect class="cls-90" x="26.39" y="66.17" width="56.96" height="0.75"/><rect class="cls-91" x="26.39" y="66.92" width="56.96" height="0.75"/><rect class="cls-92" x="26.39" y="67.67" width="56.96" height="0.75"/><rect class="cls-93" x="26.39" y="68.42" width="56.96" height="0.75"/><rect class="cls-94" x="26.39" y="69.17" width="56.96" height="0.75"/><rect class="cls-95" x="26.39" y="69.92" width="56.96" height="0.75"/><rect class="cls-96" x="26.39" y="70.67" width="56.96" height="0.75"/><rect class="cls-97" x="26.39" y="71.42" width="56.96" height="0.75"/><rect class="cls-98" x="26.39" y="72.17" width="56.96" height="0.75"/><rect class="cls-99" x="26.39" y="72.92" width="56.96" height="0.75"/><rect class="cls-100" x="26.39" y="73.67" width="56.96" height="0.75"/><rect class="cls-101" x="26.39" y="74.42" width="56.96" height="0.75"/><rect class="cls-102" x="26.39" y="75.17" width="56.96" height="0.75"/><rect class="cls-103" x="26.39" y="75.92" width="56.96" height="0.75"/><rect class="cls-104" x="26.39" y="76.67" width="56.96" height="0.75"/><rect class="cls-105" x="26.39" y="77.42" width="56.96" height="0.75"/><rect class="cls-106" x="26.39" y="78.18" width="56.96" height="0.75"/><rect class="cls-107" x="26.39" y="78.93" width="56.96" height="0.75"/><rect class="cls-108" x="26.39" y="79.68" width="56.96" height="0.75"/><rect class="cls-109" x="26.39" y="80.43" width="56.96" height="0.75"/><rect class="cls-110" x="26.39" y="81.18" width="56.96" height="0.75"/><rect class="cls-111" x="26.39" y="81.93" width="56.96" height="0.75"/><path class="cls-111" d="M26.39,82.68h0Z"/></g><path class="cls-112" d="M77.75,84.27H26.21a3.36,3.36,0,0,1-3.36-3.36V29.57l-5.91,5.91a3.44,3.44,0,0,1-4.75,0L1,24.27a3.36,3.36,0,0,1,0-4.75L18.32,2.11,22.5.28A3.47,3.47,0,0,1,23.85,0H36.57A3.45,3.45,0,0,1,39.7,2c.27.59.67,1.39.92,1.88a68.92,68.92,0,0,0,10.81,6.79,1.25,1.25,0,0,0,.54.12,1.29,1.29,0,0,0,.54-.12,70.73,70.73,0,0,0,10.8-6.8c.25-.49.67-1.3.94-1.89a3.44,3.44,0,0,1,3.12-2H80.1a3.43,3.43,0,0,1,1.35.28L85,1.85a3.45,3.45,0,0,1,1,.71l16.9,17a3.37,3.37,0,0,1,0,4.75L91.75,35.47a3.36,3.36,0,0,1-4.75,0l-5.89-5.89V80.91A3.37,3.37,0,0,1,77.75,84.27ZM27.32,79.8H76.63v-61L89.37,31.51,99,21.89l-16-16L79.87,4.48H68c-.31.64-.67,1.33-.85,1.68a3.44,3.44,0,0,1-1,1.15c-.07.05-6.78,5.16-11.87,7.46a5.87,5.87,0,0,1-2.37.51,5.47,5.47,0,0,1-2.38-.5c-5.11-2.29-11.83-7.42-11.9-7.47a3.36,3.36,0,0,1-1-1.16c-.18-.36-.53-1-.83-1.67H24.08L20.9,5.87l-16,16,9.62,9.64L27.32,18.77ZM90.16,32.3h0ZM79.65,4.38h0Z"/></g></g></svg>