<svg xmlns="http://www.w3.org/2000/svg" xmlns:xlink="http://www.w3.org/1999/xlink" viewBox="0 0 43.29 84"><defs><style>.cls-1{fill:url(#linear-gradient);}.cls-2{fill:url(#New_Gradient_Swatch_copy);}</style><linearGradient id="linear-gradient" x1="5.07" y1="60.1" x2="44.93" y2="38.06" gradientTransform="matrix(0.96, -0.28, 0.26, 0.9, -12.15, -9.43)" gradientUnits="userSpaceOnUse"><stop offset="0" stop-color="#1c9bd8"/><stop offset="0.48" stop-color="#0c65af"/><stop offset="1" stop-color="#423e92"/></linearGradient><linearGradient id="New_Gradient_Swatch_copy" x1="12.79" y1="101.04" x2="32.42" y2="90.19" gradientTransform="translate(-13.94 -15.67) rotate(-16.06)" gradientUnits="userSpaceOnUse"><stop offset="0" stop-color="#f6a734"/><stop offset="1" stop-color="#e73a2f"/></linearGradient></defs><title>tennis_racket_2</title><g id="Layer_2" data-name="Layer 2"><g id="Layer_1-2" data-name="Layer 1"><path class="cls-1" d="M36.35,56.22a.41.41,0,0,1,0-.19l.77-9.78.2-2.5a.61.61,0,0,1,.13-.31,21.1,21.1,0,0,0,1.6-2.1,22.23,22.23,0,0,0,1.76-3.1c.08-.17.17-.33.25-.51a25.71,25.71,0,0,0,1.48-4.52,27.11,27.11,0,0,0,.65-6.06,28.85,28.85,0,0,0-.35-4.43A31.24,31.24,0,0,0,42,19.07q-.27-.93-.6-1.83a29.12,29.12,0,0,0-1.77-4,27.58,27.58,0,0,0-3.35-4.91,26.46,26.46,0,0,0-3.61-3.5,23.6,23.6,0,0,0-5.08-3.08A20.16,20.16,0,0,0,22.71.26a18.32,18.32,0,0,0-8,.43h0a18.36,18.36,0,0,0-7,3.88A20.42,20.42,0,0,0,4.21,8.42,23.2,23.2,0,0,0,1.5,13.8,26,26,0,0,0,.29,18.68a28.53,28.53,0,0,0-.23,5.94A30.21,30.21,0,0,0,.69,29c.14.6.28,1.2.45,1.79a28.19,28.19,0,0,0,1.3,3.58,28.24,28.24,0,0,0,2.05,3.94,26.81,26.81,0,0,0,3.77,4.79,25,25,0,0,0,3.59,3l.54.34a22.8,22.8,0,0,0,3.26,1.74c.74.32,1.49.61,2.24.85a.51.51,0,0,1,.28.2l1.51,2.18,5.42,7.82m9.57-44.55-2.54.73a.56.56,0,0,1-.68-.38L30.2,10.64a.55.55,0,0,1,.37-.68l.75-.21a.53.53,0,0,1,.55.14A22.55,22.55,0,0,1,35,13.83.56.56,0,0,1,34.67,14.66ZM12.23,20.54,11,16.17a.53.53,0,0,1,.37-.67l4.37-1.26a.54.54,0,0,1,.68.37L17.66,19a.56.56,0,0,1-.38.68l-4.37,1.26A.55.55,0,0,1,12.23,20.54Zm6.94,3.68,1.25,4.37a.54.54,0,0,1-.37.68l-4.37,1.26a.55.55,0,0,1-.68-.38l-1.26-4.37a.56.56,0,0,1,.38-.68l4.37-1.25A.55.55,0,0,1,19.17,24.22Zm-2.29,10.5,4.37-1.26a.54.54,0,0,1,.68.37l1.26,4.37a.54.54,0,0,1-.37.68l-4.38,1.26a.54.54,0,0,1-.67-.37l-1.26-4.38A.53.53,0,0,1,16.88,34.72Zm5-16.94-1.25-4.37a.54.54,0,0,1,.37-.68l4.37-1.26a.55.55,0,0,1,.68.38l1.26,4.37a.54.54,0,0,1-.38.67l-4.37,1.26A.55.55,0,0,1,21.84,17.78Zm6.94,3.68L30,25.83a.56.56,0,0,1-.38.68l-4.37,1.25a.54.54,0,0,1-.68-.37L23.35,23a.56.56,0,0,1,.38-.68l4.37-1.26A.55.55,0,0,1,28.78,21.46ZM26.49,32l4.37-1.26a.55.55,0,0,1,.68.38l1.26,4.37a.55.55,0,0,1-.37.68l-4.37,1.25a.54.54,0,0,1-.68-.37l-1.26-4.37A.54.54,0,0,1,26.49,32ZM24.13,7.29,19.76,8.54a.54.54,0,0,1-.68-.37L18.2,5.11a.55.55,0,0,1,.48-.71,14.53,14.53,0,0,1,5.07.54.56.56,0,0,1,.38.38l.37,1.29A.55.55,0,0,1,24.13,7.29Zm-9.61,2.76-4.37,1.26a.54.54,0,0,1-.68-.38L9.09,9.61a.54.54,0,0,1,.12-.53,14.65,14.65,0,0,1,4-3.12A.56.56,0,0,1,14,6.3l.88,3.07A.54.54,0,0,1,14.52,10.05ZM5.29,17.24,6.11,17a.56.56,0,0,1,.68.38l1.26,4.37a.56.56,0,0,1-.38.68l-2.61.75a.56.56,0,0,1-.71-.53,22.8,22.8,0,0,1,.55-5A.56.56,0,0,1,5.29,17.24Zm0,12.33c-.13-.44-.23-.87-.33-1.31a.55.55,0,0,1,.39-.64l3.49-1a.56.56,0,0,1,.68.38l1.25,4.37a.55.55,0,0,1-.37.68L7.11,33a.57.57,0,0,1-.66-.31A27.52,27.52,0,0,1,5.33,29.57Zm4.28,7.24,2-.59a.56.56,0,0,1,.68.38l1.41,4.9-.52.15a22,22,0,0,1-3.89-4A.54.54,0,0,1,9.61,36.81Zm9.62,8-.11-.37L24,43.07a.54.54,0,0,1,.68.37l.37,1.28a.57.57,0,0,1-.48.71A14.67,14.67,0,0,1,19.23,44.85ZM31.7,54.77l-3.27.94a.54.54,0,0,1-.6-.22l-3.36-4.84a.55.55,0,0,1,.42-.86,17.52,17.52,0,0,0,3.63-.65h0a17.84,17.84,0,0,0,3.21-1.26.55.55,0,0,1,.81.52l-.47,5.9A.55.55,0,0,1,31.7,54.77ZM29.25,43.5l-.37-1.26a.56.56,0,0,1,.38-.68l4.9-1.41.09.31A14.67,14.67,0,0,1,30,43.84.55.55,0,0,1,29.25,43.5Zm8.32-8.86-.43.12-1.41-4.9a.55.55,0,0,1,.37-.68l1.95-.56a.55.55,0,0,1,.7.57A22.07,22.07,0,0,1,37.57,34.64Zm-3.35-10L33,20.25a.56.56,0,0,1,.38-.68l3.41-1a.55.55,0,0,1,.67.34c.16.44.3.89.43,1.34a25.82,25.82,0,0,1,.69,3.18.54.54,0,0,1-.4.61L34.9,25A.56.56,0,0,1,34.22,24.62Z"/><path class="cls-2" d="M43.27,80.41,36.35,56.22l-11.25,3a.48.48,0,0,1,.08.16L32.11,83.6a.55.55,0,0,0,.68.38l10.1-2.89A.56.56,0,0,0,43.27,80.41ZM37.5,78.1l-1.72.49a.53.53,0,0,1-.67-.34L30.32,61.51a.53.53,0,0,1,.39-.65l1.2-.34,1.05-.3,4.93,17.23A.53.53,0,0,1,37.5,78.1Z"/></g></g></svg>