<svg xmlns="http://www.w3.org/2000/svg" xmlns:xlink="http://www.w3.org/1999/xlink" viewBox="0 0 90 73.67"><defs><style>.cls-1{fill:url(#linear-gradient);}.cls-2{fill:url(#linear-gradient-2);}</style><linearGradient id="linear-gradient" x1="5.54" y1="76.3" x2="84.46" y2="-2.63" gradientUnits="userSpaceOnUse"><stop offset="0" stop-color="#1c9bd8"/><stop offset="0.48" stop-color="#0c65af"/><stop offset="1" stop-color="#423e92"/></linearGradient><linearGradient id="linear-gradient-2" x1="64.38" y1="34.82" x2="64.38" y2="58.41" gradientUnits="userSpaceOnUse"><stop offset="0" stop-color="#f6a734"/><stop offset="0.18" stop-color="#f49933"/><stop offset="0.53" stop-color="#ef7532"/><stop offset="1" stop-color="#e73a2f"/></linearGradient></defs><title>web_browser_1</title><g id="Layer_2" data-name="Layer 2"><g id="Layer_1-2" data-name="Layer 1"><path class="cls-1" d="M85.05,0H5A5,5,0,0,0,0,5V68.71a5,5,0,0,0,5,5H85.05a5,5,0,0,0,5-5V5A5,5,0,0,0,85.05,0ZM5,4.48H85.05a.48.48,0,0,1,.48.48v6.42h-81V5A.47.47,0,0,1,5,4.48ZM85.05,69.19H5a.48.48,0,0,1-.48-.48V15.86H85.53V68.71A.49.49,0,0,1,85.05,69.19Z"/><path class="cls-2" d="M75.66,43.25,53.6,34.87a.76.76,0,0,0-1,1l8.43,22a.78.78,0,0,0,1.48,0l2-7.55L70.23,56a2.5,2.5,0,0,0,3.54-3.53l-5.69-5.69,7.55-2A.78.78,0,0,0,75.66,43.25Z"/></g></g></svg>