<svg id="Layer_1" data-name="Layer 1" xmlns="http://www.w3.org/2000/svg" xmlns:xlink="http://www.w3.org/1999/xlink" viewBox="0 0 454.09 145.95"><defs><style>.cls-1,.cls-10,.cls-11,.cls-3,.cls-4,.cls-6,.cls-7,.cls-8,.cls-9{fill:none;}.cls-1,.cls-10,.cls-3,.cls-4,.cls-6,.cls-7,.cls-8,.cls-9{stroke-linecap:round;}.cls-1,.cls-3,.cls-4,.cls-9{stroke-linejoin:round;}.cls-1,.cls-10,.cls-11,.cls-6,.cls-7,.cls-8,.cls-9{stroke-width:3px;}.cls-1{stroke:url(#New_Gradient_Swatch_3);}.cls-2{fill:#433e8f;}.cls-3,.cls-4{stroke:#c6c6c5;stroke-width:2px;}.cls-4{stroke-dasharray:6.05 7.06;}.cls-5{fill:url(#New_Gradient_Swatch_3-2);}.cls-10,.cls-11,.cls-6,.cls-7,.cls-8{stroke-miterlimit:10;}.cls-6{stroke:url(#New_Gradient_Swatch_2);}.cls-7{stroke:url(#New_Gradient_Swatch_3-3);}.cls-8{stroke:url(#New_Gradient_Swatch_2-2);}.cls-9{stroke:url(#New_Gradient_Swatch_2-3);}.cls-10{stroke:url(#New_Gradient_Swatch_2-4);}.cls-11{stroke:url(#NEW_GRAD_3);}.cls-12{fill:url(#New_Gradient_Swatch_3-4);}</style><linearGradient id="New_Gradient_Swatch_3" x1="91.59" y1="44.58" x2="104.56" y2="57.55" gradientUnits="userSpaceOnUse"><stop offset="0" stop-color="#ffee25"/><stop offset="0.37" stop-color="#f08f34"/><stop offset="1" stop-color="#e2312d"/></linearGradient><linearGradient id="New_Gradient_Swatch_3-2" x1="213.01" y1="36.28" x2="226.69" y2="49.96" xlink:href="#New_Gradient_Swatch_3"/><linearGradient id="New_Gradient_Swatch_2" x1="192.78" y1="43.3" x2="230.74" y2="81.25" gradientUnits="userSpaceOnUse"><stop offset="0" stop-color="#00ade6"/><stop offset="0.06" stop-color="#00a3de"/><stop offset="0.25" stop-color="#0083c5"/><stop offset="0.36" stop-color="#0077bc"/><stop offset="0.73" stop-color="#353579"/><stop offset="0.97" stop-color="#1d1a55"/></linearGradient><linearGradient id="New_Gradient_Swatch_3-3" x1="368.58" y1="38.33" x2="388.16" y2="57.91" xlink:href="#New_Gradient_Swatch_3"/><linearGradient id="New_Gradient_Swatch_2-2" x1="308" y1="16.15" x2="377.9" y2="86.05" xlink:href="#New_Gradient_Swatch_2"/><linearGradient id="New_Gradient_Swatch_2-3" x1="63.45" y1="37.53" x2="111.51" y2="85.59" xlink:href="#New_Gradient_Swatch_2"/><linearGradient id="New_Gradient_Swatch_2-4" x1="262.17" y1="41.09" x2="299.68" y2="78.6" xlink:href="#New_Gradient_Swatch_2"/><linearGradient id="NEW_GRAD_3" x1="575.22" y1="-721.32" x2="594.07" y2="-649.62" gradientTransform="matrix(0.86, -0.5, 0.5, 0.86, -1.64, 940.39)" xlink:href="#New_Gradient_Swatch_2"/><linearGradient id="New_Gradient_Swatch_3-4" x1="594.34" y1="-698.39" x2="598.13" y2="-683.97" gradientTransform="matrix(0.86, -0.5, 0.5, 0.86, -1.64, 940.39)" xlink:href="#New_Gradient_Swatch_3"/></defs><title>first_ut</title><path class="cls-1" d="M93.73,44.56,87.88,50.4m12.64-1.74-5.08,5.16m12.82-2.09-5.35,5.34"/><path class="cls-2" d="M180.93,102.6v3.47h-2.27v-3.5l-3.8-6.3h2.41l2.62,4.35,2.62-4.35h2.23Z"/><path class="cls-2" d="M184.13,102.31a4.15,4.15,0,1,1,4.14,3.88A3.88,3.88,0,0,1,184.13,102.31Zm6.06,0a1.93,1.93,0,1,0-1.92,2.08A1.9,1.9,0,0,0,190.19,102.31Z"/><path class="cls-2" d="M201.45,98.54v7.53h-2.07v-.89a3.06,3.06,0,0,1-2.34,1c-1.89,0-3.22-1.07-3.22-3.39V98.54H196v3.93c0,1.26.56,1.82,1.53,1.82s1.74-.64,1.74-2V98.54Z"/><path class="cls-2" d="M208.16,98.43v2l-.49,0a1.86,1.86,0,0,0-2,2.11v3.55h-2.18V98.54h2.08v1A3.05,3.05,0,0,1,208.16,98.43Z"/><path class="cls-2" d="M220.14,101.77v4.3h-2v-.93a2.5,2.5,0,0,1-2.3,1c-1.77,0-2.82-1-2.82-2.29s.94-2.25,3.24-2.25H218c0-.94-.56-1.49-1.74-1.49a3.63,3.63,0,0,0-2.17.7l-.79-1.52a5.8,5.8,0,0,1,3.25-.91C218.81,98.43,220.14,99.49,220.14,101.77ZM218,103.69v-.77h-1.5c-1,0-1.35.38-1.35.88s.46.92,1.23.92A1.63,1.63,0,0,0,218,103.69Z"/><path class="cls-2" d="M221.63,102.31a3.9,3.9,0,0,1,4.21-3.88,3.45,3.45,0,0,1,3.37,1.91l-1.69.92a1.88,1.88,0,0,0-1.7-1,2.09,2.09,0,0,0,0,4.17,1.87,1.87,0,0,0,1.7-1l1.69.92a3.48,3.48,0,0,1-3.37,1.91A3.91,3.91,0,0,1,221.63,102.31Z"/><path class="cls-2" d="M235.44,105.71a3.15,3.15,0,0,1-1.78.48,2.49,2.49,0,0,1-2.81-2.71v-3.09h-1.17V98.71h1.17V96.87H233v1.84h1.88v1.68H233v3.06a.88.88,0,0,0,.94,1,1.49,1.49,0,0,0,.88-.28Z"/><path class="cls-2" d="M236.4,96.27a1.25,1.25,0,0,1,1.36-1.22,1.23,1.23,0,0,1,1.36,1.18,1.37,1.37,0,0,1-2.72,0Zm.27,2.27h2.18v7.53h-2.18Z"/><path class="cls-2" d="M248.36,98.54l-3.18,7.53h-2.25l-3.17-7.53H242l2.09,5.12,2.15-5.12Z"/><path class="cls-2" d="M249,96.27a1.25,1.25,0,0,1,1.36-1.22,1.23,1.23,0,0,1,1.36,1.18,1.37,1.37,0,0,1-2.72,0Zm.27,2.27h2.18v7.53h-2.18Z"/><path class="cls-2" d="M258.33,105.71a3.15,3.15,0,0,1-1.78.48,2.49,2.49,0,0,1-2.82-2.71v-3.09h-1.16V98.71h1.16V96.87h2.19v1.84h1.88v1.68h-1.88v3.06a.88.88,0,0,0,.94,1,1.49,1.49,0,0,0,.88-.28Z"/><path class="cls-2" d="M259.29,96.27a1.25,1.25,0,0,1,1.36-1.22A1.23,1.23,0,0,1,262,96.23a1.37,1.37,0,0,1-2.72,0Zm.27,2.27h2.18v7.53h-2.18Z"/><path class="cls-2" d="M271.11,102.92h-5.7a2,2,0,0,0,2.16,1.52,2.55,2.55,0,0,0,1.89-.73l1.16,1.26a3.94,3.94,0,0,1-3.11,1.22c-2.6,0-4.3-1.64-4.3-3.88a3.84,3.84,0,0,1,4-3.88,3.72,3.72,0,0,1,3.92,3.9C271.15,102.5,271.13,102.74,271.11,102.92Zm-5.73-1.27h3.72a1.89,1.89,0,0,0-3.72,0Z"/><path class="cls-2" d="M271.88,105.37l.73-1.57a5.08,5.08,0,0,0,2.62.73c1,0,1.38-.26,1.38-.68,0-1.24-4.55,0-4.55-3,0-1.43,1.29-2.43,3.49-2.43a6.24,6.24,0,0,1,2.9.65l-.73,1.56a4.34,4.34,0,0,0-2.17-.56c-1,0-1.4.31-1.4.7,0,1.29,4.55,0,4.55,3,0,1.4-1.3,2.4-3.56,2.4A6.39,6.39,0,0,1,271.88,105.37Z"/><line class="cls-3" x1="18.38" y1="74.06" x2="21.27" y2="74.84"/><polyline class="cls-4" points="28.08 76.69 227.99 131.06 429.41 75.78"/><line class="cls-3" x1="432.82" y1="74.85" x2="435.71" y2="74.06"/><circle class="cls-5" cx="219.85" cy="43.12" r="9.67"/><path class="cls-6" d="M177.8,68.59c2.26,3.24,5.32,5,8.59,5a10.07,10.07,0,0,0,7.66-3.82,9.6,9.6,0,0,0,15.33,0,9.6,9.6,0,0,0,15.33,0,10.07,10.07,0,0,0,7.66,3.82c3.27,0,6.33-1.78,8.59-5m-11.48-2.12,10.31-10.28a4.5,4.5,0,0,0,.63-5.69,3.6,3.6,0,0,0-3.23-1.86,4.7,4.7,0,0,0-3.42,1.27l-9.24,9.22a1.14,1.14,0,0,1-1.34.2l-23.58-12.7A7.9,7.9,0,0,0,190.24,48l-9,9a4.46,4.46,0,0,0-.28,6.11,4.22,4.22,0,0,0,3.12,1.44,4.41,4.41,0,0,0,3.18-1.27l6.87-6.84a1.13,1.13,0,0,1,1.43-.14L199.65,59l-3.56,3.61m28.76,17.46a9.6,9.6,0,0,1-15.33,0,9.59,9.59,0,0,1-15.32,0"/><path class="cls-7" d="M378.64,65.31a17.2,17.2,0,0,1,17.2-17.19M378.1,65.31a17.2,17.2,0,0,0-17.2-17.19"/><path class="cls-8" d="M360.9,65.31h35.62M322.35,65l11.16,15.75c4.82,6.8,16.09,7.17,21.34,3.45l-.46.33c5.24-3.72,8.63-14.48,3.82-21.27L347.05,47.53Zm21.59,4.29L310,21.42M300.25,26l17.33-12.28"/><path class="cls-9" d="M127.2,62.8c-1.44,2.57-18.16,10.13-31.5,6.91s-35.81-2.84-35.81-2.84m67.43-5.21V63.3a10.43,10.43,0,0,1-4,8.25c-5.13,3.93-12.37,6.11-20.41,6.13H63.38a5.81,5.81,0,0,1-5.81-5.81,5,5,0,0,1,.84-2.77l1.48-2.23V45.13a4.66,4.66,0,0,1,4.65-4.65,2.92,2.92,0,0,1,2.69,1.78l.49,1.14a8.13,8.13,0,0,0,13.77,2l2.31-2.81a4.67,4.67,0,0,1,6-1l7.93,4.88a45.35,45.35,0,0,0,12,5.17l12.42,3.34A7,7,0,0,1,127.32,61.66Z"/><path class="cls-10" d="M270.31,58.22c4.14-18.94,21.51-20.46,21.51-20.46m-35.38,25s9.39,12.78,28.18,7m12.1,9s6.56-14.62-8.78-27.45m13-5.66s-15.64,1-19.48,14.58M258.42,50s7.8,12.65,22.46,9.55m3.55,24.36s6.6-14-4.55-23.94m1.05-25.12a25,25,0,1,0,25,25A25,25,0,0,0,280.93,34.82Z"/><path class="cls-11" d="M159.2,70.72l6.18-3.61L176,85.36,169.85,89Zm-1.62-9.87-6.84,2,8.46,7.82,6.18-3.61-2.45-11m-5.35,4.72c8.16-4.76,10.11-16.61,4.36-26.46s-17-14-25.18-9.23-10.11,16.61-4.36,26.46S149.43,65.61,157.58,60.85Z"/><circle class="cls-12" cx="164.99" cy="42.92" r="7.45"/></svg>