<svg xmlns="http://www.w3.org/2000/svg" xmlns:xlink="http://www.w3.org/1999/xlink" viewBox="0 0 454.09 145.95"><defs><style>.cls-1{fill:#433e8f;}.cls-10,.cls-11,.cls-12,.cls-13,.cls-14,.cls-16,.cls-2,.cls-23,.cls-24,.cls-25,.cls-26,.cls-27,.cls-28,.cls-3,.cls-4{fill:none;}.cls-2,.cls-3,.cls-4{stroke:#c6c6c5;stroke-width:2px;}.cls-10,.cls-11,.cls-12,.cls-13,.cls-14,.cls-15,.cls-16,.cls-2,.cls-23,.cls-24,.cls-25,.cls-26,.cls-27,.cls-28,.cls-3,.cls-4,.cls-9{stroke-linecap:round;}.cls-10,.cls-11,.cls-12,.cls-13,.cls-14,.cls-2,.cls-23,.cls-24,.cls-25,.cls-26,.cls-27,.cls-3,.cls-4,.cls-9{stroke-linejoin:round;}.cls-3{stroke-dasharray:4.11 4.8;}.cls-4{stroke-dasharray:6.02 7.02;}.cls-15,.cls-5,.cls-6,.cls-7,.cls-8,.cls-9{fill:#fff;}.cls-15,.cls-5,.cls-6,.cls-7,.cls-9{stroke:#fff;}.cls-15,.cls-16,.cls-28,.cls-5,.cls-6,.cls-7{stroke-miterlimit:10;}.cls-5{stroke-width:5.62px;}.cls-6{stroke-width:5.36px;}.cls-7{stroke-width:3.79px;}.cls-9{stroke-width:7.57px;}.cls-10,.cls-11,.cls-12,.cls-13,.cls-14,.cls-16,.cls-23,.cls-24,.cls-25,.cls-26,.cls-27,.cls-28{stroke-width:3px;}.cls-10{stroke:url(#New_Gradient_Swatch_2);}.cls-11{stroke:url(#New_Gradient_Swatch_2-2);}.cls-12{stroke:url(#New_Gradient_Swatch_2-3);}.cls-13{stroke:url(#New_Gradient_Swatch_2-4);}.cls-14{stroke:url(#New_Gradient_Swatch_2-5);}.cls-15{stroke-width:6px;}.cls-16{stroke:url(#New_Gradient_Swatch_2-6);}.cls-17{fill:url(#New_Gradient_Swatch_3);}.cls-18{fill:url(#New_Gradient_Swatch_3-2);}.cls-19{fill:url(#New_Gradient_Swatch_3-3);}.cls-20{fill:url(#New_Gradient_Swatch_3-4);}.cls-21{fill:url(#New_Gradient_Swatch_3-5);}.cls-22{fill:url(#New_Gradient_Swatch_3-6);}.cls-23{stroke:url(#New_Gradient_Swatch_2-7);}.cls-24{stroke:url(#New_Gradient_Swatch_2-8);}.cls-25{stroke:url(#New_Gradient_Swatch_2-9);}.cls-26{stroke:url(#New_Gradient_Swatch_2-10);}.cls-27{stroke:url(#New_Gradient_Swatch_2-11);}.cls-28{stroke:url(#New_Gradient_Swatch_2-12);}.cls-29{fill:url(#New_Gradient_Swatch_3-7);}.cls-30{fill:url(#New_Gradient_Swatch_3-8);}.cls-31{fill:url(#New_Gradient_Swatch_3-9);}.cls-32{fill:url(#New_Gradient_Swatch_3-10);}.cls-33{fill:url(#New_Gradient_Swatch_3-11);}.cls-34{fill:url(#New_Gradient_Swatch_3-12);}</style><linearGradient id="New_Gradient_Swatch_2" x1="-2469.27" y1="47.85" x2="-2427.09" y2="90.03" gradientTransform="matrix(-1, 0, 0, 1, -2405.29, 0)" gradientUnits="userSpaceOnUse"><stop offset="0" stop-color="#00ade6"/><stop offset="0.06" stop-color="#00a3de"/><stop offset="0.25" stop-color="#0083c5"/><stop offset="0.36" stop-color="#0077bc"/><stop offset="0.73" stop-color="#353579"/><stop offset="0.97" stop-color="#1d1a55"/></linearGradient><linearGradient id="New_Gradient_Swatch_2-2" x1="97.77" y1="43.24" x2="133.03" y2="78.5" gradientTransform="matrix(1, 0, 0, 1, 0, 0)" xlink:href="#New_Gradient_Swatch_2"/><linearGradient id="New_Gradient_Swatch_2-3" x1="149.32" y1="46.05" x2="189.9" y2="86.63" gradientTransform="matrix(1, 0, 0, 1, 0, 0)" xlink:href="#New_Gradient_Swatch_2"/><linearGradient id="New_Gradient_Swatch_2-4" x1="65.43" y1="41.45" x2="102.47" y2="78.49" gradientTransform="matrix(1, 0, 0, 1, 0, 0)" xlink:href="#New_Gradient_Swatch_2"/><linearGradient id="New_Gradient_Swatch_2-5" x1="186.43" y1="41.45" x2="223.47" y2="78.49" gradientTransform="matrix(1, 0, 0, 1, 0, 0)" xlink:href="#New_Gradient_Swatch_2"/><linearGradient id="New_Gradient_Swatch_2-6" x1="125.18" y1="56.16" x2="152.27" y2="83.25" gradientTransform="matrix(1, 0, 0, 1, 0, 0)" xlink:href="#New_Gradient_Swatch_2"/><linearGradient id="New_Gradient_Swatch_3" x1="-535.4" y1="1459.68" x2="-525.22" y2="1449.5" gradientTransform="matrix(0, 1, 1, 0, -1410.09, 557.74)" gradientUnits="userSpaceOnUse"><stop offset="0" stop-color="#ffee25"/><stop offset="0.37" stop-color="#f08f34"/><stop offset="1" stop-color="#e2312d"/></linearGradient><linearGradient id="New_Gradient_Swatch_3-2" x1="110.65" y1="20.72" x2="120.36" y2="30.42" gradientTransform="matrix(1, 0, 0, 1, 0, 0)" xlink:href="#New_Gradient_Swatch_3"/><linearGradient id="New_Gradient_Swatch_3-3" x1="-537.25" y1="-1154.62" x2="-527.95" y2="-1163.93" gradientTransform="translate(-995.21 557.74) rotate(90)" xlink:href="#New_Gradient_Swatch_3"/><linearGradient id="New_Gradient_Swatch_3-4" x1="79.39" y1="20.7" x2="88.5" y2="29.82" gradientTransform="matrix(1, 0, 0, 1, 0, 0)" xlink:href="#New_Gradient_Swatch_3"/><linearGradient id="New_Gradient_Swatch_3-5" x1="200.39" y1="20.7" x2="209.5" y2="29.82" gradientTransform="matrix(1, 0, 0, 1, 0, 0)" xlink:href="#New_Gradient_Swatch_3"/><linearGradient id="New_Gradient_Swatch_3-6" x1="134.57" y1="42.02" x2="143.05" y2="50.49" gradientTransform="matrix(1, 0, 0, 1, 0, 0)" xlink:href="#New_Gradient_Swatch_3"/><linearGradient id="New_Gradient_Swatch_2-7" x1="-2669.84" y1="47.85" x2="-2627.67" y2="90.03" xlink:href="#New_Gradient_Swatch_2"/><linearGradient id="New_Gradient_Swatch_2-8" x1="298.34" y1="43.24" x2="333.6" y2="78.5" gradientTransform="matrix(1, 0, 0, 1, 0, 0)" xlink:href="#New_Gradient_Swatch_2"/><linearGradient id="New_Gradient_Swatch_2-9" x1="349.89" y1="46.05" x2="390.48" y2="86.63" gradientTransform="matrix(1, 0, 0, 1, 0, 0)" xlink:href="#New_Gradient_Swatch_2"/><linearGradient id="New_Gradient_Swatch_2-10" x1="266" y1="41.45" x2="303.04" y2="78.49" gradientTransform="matrix(1, 0, 0, 1, 0, 0)" xlink:href="#New_Gradient_Swatch_2"/><linearGradient id="New_Gradient_Swatch_2-11" x1="387" y1="41.45" x2="424.04" y2="78.49" gradientTransform="matrix(1, 0, 0, 1, 0, 0)" xlink:href="#New_Gradient_Swatch_2"/><linearGradient id="New_Gradient_Swatch_2-12" x1="325.76" y1="56.16" x2="352.84" y2="83.25" gradientTransform="matrix(1, 0, 0, 1, 0, 0)" xlink:href="#New_Gradient_Swatch_2"/><linearGradient id="New_Gradient_Swatch_3-7" x1="-535.4" y1="1660.26" x2="-525.22" y2="1650.07" xlink:href="#New_Gradient_Swatch_3"/><linearGradient id="New_Gradient_Swatch_3-8" x1="311.22" y1="20.72" x2="320.93" y2="30.42" gradientTransform="matrix(1, 0, 0, 1, 0, 0)" xlink:href="#New_Gradient_Swatch_3"/><linearGradient id="New_Gradient_Swatch_3-9" x1="-537.25" y1="-1355.2" x2="-527.95" y2="-1364.5" gradientTransform="translate(-995.21 557.74) rotate(90)" xlink:href="#New_Gradient_Swatch_3"/><linearGradient id="New_Gradient_Swatch_3-10" x1="279.96" y1="20.7" x2="289.08" y2="29.82" gradientTransform="matrix(1, 0, 0, 1, 0, 0)" xlink:href="#New_Gradient_Swatch_3"/><linearGradient id="New_Gradient_Swatch_3-11" x1="400.96" y1="20.7" x2="410.08" y2="29.82" gradientTransform="matrix(1, 0, 0, 1, 0, 0)" xlink:href="#New_Gradient_Swatch_3"/><linearGradient id="New_Gradient_Swatch_3-12" x1="335.14" y1="42.02" x2="343.62" y2="50.49" gradientTransform="matrix(1, 0, 0, 1, 0, 0)" xlink:href="#New_Gradient_Swatch_3"/></defs><title>four_t</title><g id="Orange-3" data-name="Orange"><path class="cls-1" d="M141.16,101.62h2.27v8h4.92v1.85h-7.19Z"/><path class="cls-1" d="M156.22,107.13v4.3h-2.05v-.94a2.47,2.47,0,0,1-2.29,1.05c-1.77,0-2.82-1-2.82-2.28S150,107,152.3,107H154c0-.94-.56-1.48-1.73-1.48a3.62,3.62,0,0,0-2.18.7l-.78-1.53a5.8,5.8,0,0,1,3.25-.91C154.89,103.78,156.22,104.84,156.22,107.13ZM154,109.05v-.77h-1.5c-1,0-1.34.37-1.34.88s.46.91,1.23.91A1.61,1.61,0,0,0,154,109.05Z"/><path class="cls-1" d="M162.87,103.78v2l-.49,0a1.85,1.85,0,0,0-2,2.1v3.56h-2.18v-7.54h2.08v1A3.08,3.08,0,0,1,162.87,103.78Z"/><path class="cls-1" d="M171.87,103.89v6.28c0,2.8-1.51,4.09-4.23,4.09a6.18,6.18,0,0,1-3.7-1l.87-1.57a4.49,4.49,0,0,0,2.66.85c1.54,0,2.21-.7,2.21-2v-.33a3.1,3.1,0,0,1-2.38.94,3.64,3.64,0,1,1,0-7.28,3,3,0,0,1,2.5,1.08v-1Zm-2.16,3.53a2,2,0,1,0-2,1.85A1.82,1.82,0,0,0,169.71,107.42Z"/><path class="cls-1" d="M181.24,108.28h-5.71a2,2,0,0,0,2.16,1.51,2.55,2.55,0,0,0,1.89-.73l1.17,1.26a4,4,0,0,1-3.11,1.22c-2.61,0-4.3-1.64-4.3-3.88a3.83,3.83,0,0,1,4-3.88,3.73,3.73,0,0,1,3.92,3.91C181.28,107.85,181.25,108.09,181.24,108.28ZM175.51,107h3.71a1.8,1.8,0,0,0-1.85-1.57A1.78,1.78,0,0,0,175.51,107Z"/><path class="cls-1" d="M187.41,103.78v2a4.15,4.15,0,0,0-.49,0,1.85,1.85,0,0,0-2,2.1v3.56h-2.18v-7.54h2.09v1A3.06,3.06,0,0,1,187.41,103.78Z"/><path class="cls-1" d="M192.17,107.66a3.89,3.89,0,0,1,4.2-3.88,3.44,3.44,0,0,1,3.37,1.92l-1.69.91a1.88,1.88,0,0,0-1.7-1,2.09,2.09,0,0,0,0,4.18,1.86,1.86,0,0,0,1.7-1l1.69.92a3.48,3.48,0,0,1-3.37,1.91A3.89,3.89,0,0,1,192.17,107.66Z"/><path class="cls-1" d="M200.34,107.66a4.15,4.15,0,1,1,4.15,3.88A3.88,3.88,0,0,1,200.34,107.66Zm6.07,0a1.94,1.94,0,1,0-1.92,2.09A1.91,1.91,0,0,0,206.41,107.66Z"/><path class="cls-1" d="M222.8,107.11v4.32h-2.18v-4c0-1.22-.55-1.78-1.43-1.78s-1.67.63-1.67,2v3.79h-2.18v-4c0-1.22-.52-1.78-1.43-1.78s-1.65.63-1.65,2v3.79h-2.19v-7.54h2.09v.87a3.07,3.07,0,0,1,2.37-1A2.81,2.81,0,0,1,217,105a3.38,3.38,0,0,1,2.71-1.23C221.52,103.78,222.8,104.82,222.8,107.11Z"/><path class="cls-1" d="M237.49,107.11v4.32h-2.18v-4c0-1.22-.55-1.78-1.43-1.78s-1.67.63-1.67,2v3.79H230v-4c0-1.22-.51-1.78-1.42-1.78s-1.66.63-1.66,2v3.79h-2.18v-7.54h2.08v.87a3.07,3.07,0,0,1,2.37-1,2.8,2.8,0,0,1,2.48,1.23,3.38,3.38,0,0,1,2.72-1.23C236.2,103.78,237.49,104.82,237.49,107.11Z"/><path class="cls-1" d="M247,103.89v7.54H245v-.9a3,3,0,0,1-2.34,1c-1.89,0-3.22-1.07-3.22-3.39v-4.26h2.19v3.94c0,1.26.56,1.82,1.52,1.82s1.74-.65,1.74-2v-3.73Z"/><path class="cls-1" d="M256.76,107.11v4.32h-2.18v-4c0-1.22-.56-1.78-1.53-1.78s-1.8.64-1.8,2v3.73h-2.19v-7.54h2.09v.88a3.31,3.31,0,0,1,2.49-1C255.42,103.78,256.76,104.82,256.76,107.11Z"/><path class="cls-1" d="M258.47,101.62a1.25,1.25,0,0,1,1.36-1.22,1.23,1.23,0,0,1,1.36,1.18,1.26,1.26,0,0,1-1.36,1.26A1.24,1.24,0,0,1,258.47,101.62Zm.26,2.27h2.19v7.54h-2.19Z"/><path class="cls-1" d="M267.81,111.06a3.15,3.15,0,0,1-1.78.48,2.49,2.49,0,0,1-2.82-2.7v-3.1h-1.16v-1.68h1.16v-1.84h2.19v1.84h1.88v1.68H265.4v3.07a.88.88,0,0,0,.94,1,1.49,1.49,0,0,0,.88-.28Z"/><path class="cls-1" d="M276.38,103.89l-3.41,8c-.72,1.82-1.76,2.37-3.12,2.37a3.37,3.37,0,0,1-2.1-.69l.8-1.56a1.9,1.9,0,0,0,1.23.48c.6,0,.94-.26,1.23-.94l0-.07-3.26-7.59H270l2.12,5.11,2.13-5.11Z"/><path class="cls-1" d="M285.91,103.78v2a4.15,4.15,0,0,0-.49,0,1.85,1.85,0,0,0-2,2.1v3.56h-2.19v-7.54h2.09v1A3.06,3.06,0,0,1,285.91,103.78Z"/><path class="cls-1" d="M294.48,108.28h-5.7a2,2,0,0,0,2.16,1.51,2.57,2.57,0,0,0,1.89-.73l1.16,1.26a3.94,3.94,0,0,1-3.11,1.22c-2.6,0-4.3-1.64-4.3-3.88a3.83,3.83,0,0,1,4-3.88,3.73,3.73,0,0,1,3.92,3.91C294.52,107.85,294.49,108.09,294.48,108.28ZM288.75,107h3.71a1.88,1.88,0,0,0-3.71,0Z"/><path class="cls-1" d="M302.43,107.13v4.3h-2v-.94a2.49,2.49,0,0,1-2.3,1.05c-1.77,0-2.82-1-2.82-2.28s.94-2.26,3.24-2.26h1.74c0-.94-.56-1.48-1.74-1.48a3.59,3.59,0,0,0-2.17.7l-.78-1.53a5.74,5.74,0,0,1,3.24-.91C301.1,103.78,302.43,104.84,302.43,107.13Zm-2.18,1.92v-.77h-1.5c-1,0-1.35.37-1.35.88s.47.91,1.24.91A1.62,1.62,0,0,0,300.25,109.05Z"/><path class="cls-1" d="M303.93,107.66a3.89,3.89,0,0,1,4.2-3.88,3.44,3.44,0,0,1,3.37,1.92l-1.69.91a1.88,1.88,0,0,0-1.7-1,2.09,2.09,0,0,0,0,4.18,1.86,1.86,0,0,0,1.7-1l1.69.92a3.48,3.48,0,0,1-3.37,1.91A3.89,3.89,0,0,1,303.93,107.66Z"/><path class="cls-1" d="M320.41,107.11v4.32h-2.19v-4c0-1.22-.56-1.78-1.52-1.78s-1.81.64-1.81,2v3.73H312.7V101h2.19v3.64a3.34,3.34,0,0,1,2.39-.89C319.06,103.78,320.41,104.82,320.41,107.11Z"/><line class="cls-2" x1="18.38" y1="26.72" x2="18.38" y2="23.72"/><line class="cls-3" x1="18.38" y1="18.93" x2="18.38" y2="12.42"/><polyline class="cls-2" points="18.38 10.02 18.38 7.02 21.38 7.02"/><line class="cls-4" x1="28.4" y1="7.02" x2="429.2" y2="7.02"/><polyline class="cls-2" points="432.71 7.02 435.71 7.02 435.71 10.02"/><line class="cls-3" x1="435.71" y1="14.82" x2="435.71" y2="21.33"/><line class="cls-2" x1="435.71" y1="23.72" x2="435.71" y2="26.72"/><circle class="cls-5" cx="44.51" cy="27.43" r="7.2"/><path class="cls-6" d="M21.29,89a5,5,0,0,1-2.45-6.66l7.43-17,0-.08c.63-1.45,1.22-2.81,3.34-3.17h.09l11.47-1.21.26-11.12-12.37,5a4.61,4.61,0,0,1-4.05-8.29L46.37,35.88l.1,0a6,6,0,0,1,5.76.56,6.4,6.4,0,0,1,2.83,5.1s0,.53,0,1.36c-.13,13.87-.19,21.65-.19,23.15a6.48,6.48,0,0,1-6.27,6.34l-13.26.14L28,86.57l0,0a5.23,5.23,0,0,1-4.52,2.83A5,5,0,0,1,21.29,89ZM57.71,55.31a1.4,1.4,0,0,1,1.64-1.11A17.69,17.69,0,1,1,39.09,76.77,1.41,1.41,0,0,1,41.78,76"/><circle class="cls-7" cx="164.07" cy="25.14" r="6.86"/><path class="cls-7" d="M183.16,91.38A6.16,6.16,0,0,1,177,85.23L177,59.5l-6.82-10.76L166,54.22a1.91,1.91,0,0,1-1.51.75H152.56a5.27,5.27,0,1,1,0-10.54h7.56l7-10.69c1.19-1.86,2.65-3.69,6-3.69a6.53,6.53,0,0,1,5.51,3.09l0,.06,8.28,12.56,0,0,.22.35a11.37,11.37,0,0,1,2.1,6.67c0,2.29.05,32.1.05,32.4A6.16,6.16,0,0,1,183.16,91.38Zm-30.1,0a1.89,1.89,0,0,1-1.9-1.89V58.15a1.9,1.9,0,1,1,3.79,0V89.49A1.89,1.89,0,0,1,153.06,91.38Z"/><path class="cls-8" d="M84,33a7.78,7.78,0,1,1,7.77-7.78A7.79,7.79,0,0,1,84,33Z"/><path class="cls-8" d="M84,18.81a6.45,6.45,0,1,1-6.45,6.45A6.44,6.44,0,0,1,84,18.81m0-2.66a9.11,9.11,0,1,0,9.11,9.11A9.12,9.12,0,0,0,84,16.15Z"/><path class="cls-9" d="M84,60.75V86a3.68,3.68,0,1,1-7.35,0V42.9M92.13,60.75c2.08,0,5-1.44,5-6v-14c0-3.61-2.55-5.51-5.75-5.51H76.52c-3.19,0-5.75,1.9-5.75,5.51v14c0,4.59,2.92,6,5,6M84,86a3.67,3.67,0,1,0,7.34,0V42.9"/><rect class="cls-8" x="78.58" y="47.52" width="11.15" height="27.14"/><path class="cls-8" d="M205,33a7.78,7.78,0,1,1,7.77-7.78A7.79,7.79,0,0,1,205,33Z"/><path class="cls-8" d="M205,18.81a6.45,6.45,0,1,1-6.45,6.45A6.44,6.44,0,0,1,205,18.81m0-2.66a9.11,9.11,0,1,0,9.11,9.11A9.12,9.12,0,0,0,205,16.15Z"/><path class="cls-9" d="M205,60.75V86a3.68,3.68,0,1,1-7.35,0V42.9m15.53,17.85c2.08,0,5-1.44,5-6v-14c0-3.61-2.55-5.51-5.75-5.51H197.52c-3.19,0-5.75,1.9-5.75,5.51v14c0,4.59,2.92,6,5,6M205,86a3.67,3.67,0,1,0,7.34,0V42.9"/><rect class="cls-8" x="199.58" y="47.52" width="11.15" height="27.14"/><path class="cls-10" d="M26.72,85.92a3.64,3.64,0,0,1-6.59-3.07l7.43-17c.62-1.42.93-2.19,2.33-2.43L42.59,62l.33-14.48-14.4,5.79a3.2,3.2,0,0,1-2.85-5.73L47,37.14a4.86,4.86,0,0,1,6.66,4.35c0,.2-.19,21.87-.19,24.52a5,5,0,0,1-4.88,4.93l-14.11.15Zm13.71-9.56A16.29,16.29,0,1,0,59.09,55.58"/><path class="cls-11" d="M105.88,56.15a2.82,2.82,0,0,1-5.43-1.51L105,39.44a5.8,5.8,0,0,1,5.79-4.58h4.63m-9.66,21.77,3.13-11.33-6.17,22.28h6.64V86.67a3,3,0,0,0,6.06,0V65.87M125,56.15a2.82,2.82,0,1,0,5.43-1.51l-4.46-14.91c-.5-1.76-2-4.87-5.88-4.87h-4.63m0,51.81a3,3,0,0,0,6.07,0V67.58h6.64L122,45.3l3.13,11.33"/><path class="cls-12" d="M178.84,59l-8.57-13.53-5.78,7.66H152.55a3.38,3.38,0,0,1,0-6.76h8.58l7.53-11.55C169.84,33,170.82,32,173.09,32a4.64,4.64,0,0,1,4,2.29l8.28,12.56a10,10,0,0,1,2,6c0,2.32,0,32.4,0,32.4a4.26,4.26,0,1,1-8.51,0Zm-25.78-.8V89.49"/><path class="cls-13" d="M84,60.75V86a3.68,3.68,0,1,1-7.35,0V42.9M92.13,60.75c2.08,0,5-1.44,5-6v-14c0-3.61-2.55-5.51-5.75-5.51H76.52c-3.19,0-5.75,1.9-5.75,5.51v14c0,4.59,2.92,6,5,6M84,86a3.67,3.67,0,1,0,7.34,0V42.9"/><path class="cls-14" d="M205,60.75V86a3.68,3.68,0,1,1-7.35,0V42.9m15.53,17.85c2.08,0,5-1.44,5-6v-14c0-3.61-2.55-5.51-5.75-5.51H197.52c-3.19,0-5.75,1.9-5.75,5.51v14c0,4.59,2.92,6,5,6M205,86a3.67,3.67,0,1,0,7.34,0V42.9"/><path class="cls-15" d="M138.73,75.87c0,3.84,0,10.32,0,10.32a3.51,3.51,0,0,1-7,0V61.4a0,0,0,0,0-.07,0l-5.09,3a2.66,2.66,0,1,1-2.66-4.6l6.44-4.12a7,7,0,0,1,3.76-1.1h9.31a6.94,6.94,0,0,1,3.76,1.1l6.44,4.12a2.65,2.65,0,0,1-2.65,4.6l-5.1-3a0,0,0,0,0-.07,0V86.19a3.51,3.51,0,0,1-7,0s0-6.48,0-10.32"/><path class="cls-16" d="M138.73,75.87c0,3.84,0,10.32,0,10.32a3.51,3.51,0,0,1-7,0V61.4a0,0,0,0,0-.07,0l-5.09,3a2.66,2.66,0,1,1-2.66-4.6l6.44-4.12a7,7,0,0,1,3.76-1.1h9.31a6.94,6.94,0,0,1,3.76,1.1l6.44,4.12a2.65,2.65,0,0,1-2.65,4.6l-5.1-3a0,0,0,0,0-.07,0V86.19a3.51,3.51,0,0,1-7,0s0-6.48,0-10.32"/><circle class="cls-17" cx="44.51" cy="27.43" r="7.2"/><circle class="cls-18" cx="115.5" cy="25.57" r="6.86"/><circle class="cls-19" cx="164.07" cy="25.14" r="6.58"/><circle class="cls-20" cx="83.95" cy="25.26" r="6.45"/><circle class="cls-21" cx="204.95" cy="25.26" r="6.45"/><circle class="cls-22" cx="138.81" cy="46.26" r="6"/><circle class="cls-5" cx="245.08" cy="27.43" r="7.2"/><path class="cls-6" d="M221.87,89a5,5,0,0,1-2.46-6.66l7.44-17,0-.08c.63-1.45,1.22-2.81,3.34-3.17h.09l11.48-1.21L242,49.66l-12.37,5a4.61,4.61,0,0,1-4-8.29l21.32-10.47.11,0a6,6,0,0,1,5.75.56,6.4,6.4,0,0,1,2.83,5.1s0,.53,0,1.36c-.12,13.87-.19,21.65-.19,23.15a6.47,6.47,0,0,1-6.26,6.34l-13.27.14-7.36,14.08,0,0A5.21,5.21,0,0,1,224,89.44,5,5,0,0,1,221.87,89Zm36.41-33.64a1.4,1.4,0,0,1,1.65-1.11,17.69,17.69,0,1,1-20.27,22.57,1.41,1.41,0,0,1,2.69-.82"/><circle class="cls-7" cx="364.64" cy="25.14" r="6.86"/><path class="cls-7" d="M383.73,91.38a6.16,6.16,0,0,1-6.15-6.15l-.05-25.73-6.82-10.76-4.14,5.48a1.89,1.89,0,0,1-1.51.75H353.13a5.27,5.27,0,1,1,0-10.54h7.55l7-10.69c1.2-1.86,2.65-3.69,6-3.69a6.53,6.53,0,0,1,5.51,3.09l0,.06,8.27,12.56,0,0,.22.35a11.36,11.36,0,0,1,2.11,6.67c0,2.29,0,32.1,0,32.4A6.16,6.16,0,0,1,383.73,91.38Zm-30.1,0a1.88,1.88,0,0,1-1.89-1.89V58.15a1.89,1.89,0,1,1,3.78,0V89.49A1.88,1.88,0,0,1,353.63,91.38Z"/><path class="cls-8" d="M284.52,33a7.78,7.78,0,1,1,7.78-7.78A7.79,7.79,0,0,1,284.52,33Z"/><path class="cls-8" d="M284.52,18.81a6.45,6.45,0,1,1-6.45,6.45,6.45,6.45,0,0,1,6.45-6.45m0-2.66a9.11,9.11,0,1,0,9.11,9.11,9.12,9.12,0,0,0-9.11-9.11Z"/><path class="cls-9" d="M284.52,60.75V86a3.68,3.68,0,1,1-7.35,0V42.9m15.54,17.85c2.07,0,5-1.44,5-6v-14c0-3.61-2.56-5.51-5.75-5.51H277.09c-3.19,0-5.75,1.9-5.75,5.51v14c0,4.59,2.92,6,5,6M284.52,86a3.68,3.68,0,1,0,7.35,0V42.9"/><rect class="cls-8" x="279.16" y="47.52" width="11.15" height="27.14"/><path class="cls-8" d="M405.52,33a7.78,7.78,0,1,1,7.78-7.78A7.79,7.79,0,0,1,405.52,33Z"/><path class="cls-8" d="M405.52,18.81a6.45,6.45,0,1,1-6.45,6.45,6.45,6.45,0,0,1,6.45-6.45m0-2.66a9.11,9.11,0,1,0,9.11,9.11,9.12,9.12,0,0,0-9.11-9.11Z"/><path class="cls-9" d="M405.52,60.75V86a3.68,3.68,0,1,1-7.35,0V42.9m15.54,17.85c2.07,0,5-1.44,5-6v-14c0-3.61-2.56-5.51-5.75-5.51H398.09c-3.19,0-5.75,1.9-5.75,5.51v14c0,4.59,2.92,6,5,6M405.52,86a3.68,3.68,0,1,0,7.35,0V42.9"/><rect class="cls-8" x="400.16" y="47.52" width="11.15" height="27.14"/><path class="cls-23" d="M227.29,85.92a3.64,3.64,0,0,1-6.59-3.07s6.82-15.61,7.43-17,.93-2.19,2.33-2.43L243.16,62l.33-14.48L229.1,53.35a3.2,3.2,0,1,1-2.86-5.73l21.32-10.48a4.86,4.86,0,0,1,6.67,4.35c0,.2-.2,21.87-.2,24.52a5,5,0,0,1-4.88,4.93L235,71.09ZM241,76.36a16.29,16.29,0,1,0,18.65-20.78"/><path class="cls-24" d="M306.45,56.15A2.82,2.82,0,1,1,301,54.64l4.55-15.2a5.81,5.81,0,0,1,5.79-4.58H316m-9.66,21.77,3.13-11.33-6.17,22.28h6.64V86.67a3,3,0,0,0,6.07,0V65.87m9.54-9.72A2.82,2.82,0,0,0,331,54.64l-4.46-14.91c-.5-1.76-2-4.87-5.88-4.87H316m0,51.81a3,3,0,0,0,6.06,0V67.58h6.64L322.53,45.3l3.13,11.33"/><path class="cls-25" d="M379.42,59l-8.58-13.53-5.78,7.66H353.13a3.38,3.38,0,1,1,0-6.76h8.57l7.54-11.55C370.41,33,371.4,32,373.66,32a4.67,4.67,0,0,1,4,2.29l8.27,12.56a9.93,9.93,0,0,1,2,6c0,2.32.05,32.4.05,32.4a4.26,4.26,0,1,1-8.51,0Zm-25.79-.8V89.49"/><path class="cls-26" d="M284.52,60.75V86a3.68,3.68,0,1,1-7.35,0V42.9m15.54,17.85c2.07,0,5-1.44,5-6v-14c0-3.61-2.56-5.51-5.75-5.51H277.09c-3.19,0-5.75,1.9-5.75,5.51v14c0,4.59,2.92,6,5,6M284.52,86a3.68,3.68,0,1,0,7.35,0V42.9"/><path class="cls-27" d="M405.52,60.75V86a3.68,3.68,0,1,1-7.35,0V42.9m15.54,17.85c2.07,0,5-1.44,5-6v-14c0-3.61-2.56-5.51-5.75-5.51H398.09c-3.19,0-5.75,1.9-5.75,5.51v14c0,4.59,2.92,6,5,6M405.52,86a3.68,3.68,0,1,0,7.35,0V42.9"/><path class="cls-15" d="M339.3,75.87c0,3.84,0,10.32,0,10.32a3.51,3.51,0,0,1-7,0V61.4a0,0,0,0,0-.07,0l-5.1,3a2.65,2.65,0,1,1-2.65-4.6l6.44-4.12a6.93,6.93,0,0,1,3.75-1.1H344a6.93,6.93,0,0,1,3.75,1.1l6.44,4.12a2.65,2.65,0,1,1-2.65,4.6l-5.1-3a0,0,0,0,0-.07,0V86.19a3.51,3.51,0,0,1-7,0s0-6.48,0-10.32"/><path class="cls-28" d="M339.3,75.87c0,3.84,0,10.32,0,10.32a3.51,3.51,0,0,1-7,0V61.4a0,0,0,0,0-.07,0l-5.1,3a2.65,2.65,0,1,1-2.65-4.6l6.44-4.12a6.93,6.93,0,0,1,3.75-1.1H344a6.93,6.93,0,0,1,3.75,1.1l6.44,4.12a2.65,2.65,0,1,1-2.65,4.6l-5.1-3a0,0,0,0,0-.07,0V86.19a3.51,3.51,0,0,1-7,0s0-6.48,0-10.32"/><circle class="cls-29" cx="245.08" cy="27.43" r="7.2"/><circle class="cls-30" cx="316.08" cy="25.57" r="6.86"/><circle class="cls-31" cx="364.64" cy="25.14" r="6.58"/><circle class="cls-32" cx="284.52" cy="25.26" r="6.45"/><circle class="cls-33" cx="405.52" cy="25.26" r="6.45"/><circle class="cls-34" cx="339.38" cy="46.26" r="6"/></g></svg>