<svg xmlns="http://www.w3.org/2000/svg" xmlns:xlink="http://www.w3.org/1999/xlink" viewBox="0 0 454.09 145.95"><defs><style>.cls-1,.cls-13,.cls-14,.cls-16{fill:none;stroke-linecap:round;}.cls-1,.cls-14,.cls-16,.cls-2{stroke-miterlimit:10;}.cls-1,.cls-14,.cls-16{stroke-width:3px;}.cls-1{stroke:url(#linear-gradient);}.cls-2{fill:#fffffc;stroke:#cac9c8;stroke-width:0.92px;}.cls-3{fill:#433e8f;}.cls-4{fill:#f5a634;}.cls-5{fill:#e63a2e;}.cls-6{fill:url(#linear-gradient-2);}.cls-7{fill:url(#linear-gradient-3);}.cls-8{fill:#1c9ad7;}.cls-9{fill:#0768b0;}.cls-10{fill:#e01581;}.cls-11{fill:#75c9f1;}.cls-12{fill:#922080;}.cls-13{stroke:#c6c6c5;stroke-linejoin:round;stroke-width:2px;}.cls-14{stroke:url(#New_Gradient_Swatch_2);}.cls-15{fill:url(#New_Gradient_Swatch_3);}.cls-16{stroke:url(#linear-gradient-4);}.cls-17{fill:url(#New_Gradient_Swatch_3-2);}</style><linearGradient id="linear-gradient" x1="-788.76" y1="-809.76" x2="-803.57" y2="-824.57" gradientTransform="translate(-493.65 841.67) rotate(90)" gradientUnits="userSpaceOnUse"><stop offset="0" stop-color="#f6a633"/><stop offset="0.89" stop-color="#e8452f"/><stop offset="1" stop-color="#e6392f"/></linearGradient><linearGradient id="linear-gradient-2" x1="354.97" y1="41.9" x2="373.34" y2="41.9" gradientUnits="userSpaceOnUse"><stop offset="0" stop-color="#525252"/><stop offset="0.07" stop-color="#787878"/><stop offset="0.15" stop-color="#9c9c9c"/><stop offset="0.24" stop-color="#bbb"/><stop offset="0.33" stop-color="#d4d4d4"/><stop offset="0.44" stop-color="#e7e7e7"/><stop offset="0.56" stop-color="#f5f5f5"/><stop offset="0.71" stop-color="#fdfdfd"/><stop offset="1" stop-color="#fff"/></linearGradient><linearGradient id="linear-gradient-3" x1="354.97" y1="52.7" x2="354.97" y2="35.41" xlink:href="#linear-gradient-2"/><linearGradient id="New_Gradient_Swatch_2" x1="296.45" y1="28.15" x2="336.03" y2="67.73" gradientUnits="userSpaceOnUse"><stop offset="0" stop-color="#00ade6"/><stop offset="0.06" stop-color="#00a3de"/><stop offset="0.25" stop-color="#0083c5"/><stop offset="0.36" stop-color="#0077bc"/><stop offset="0.73" stop-color="#353579"/><stop offset="0.97" stop-color="#1d1a55"/></linearGradient><linearGradient id="New_Gradient_Swatch_3" x1="242.56" y1="56.5" x2="257.42" y2="71.36" gradientUnits="userSpaceOnUse"><stop offset="0" stop-color="#ffee25"/><stop offset="0.37" stop-color="#f08f34"/><stop offset="1" stop-color="#e2312d"/></linearGradient><linearGradient id="linear-gradient-4" x1="183.52" y1="2.53" x2="270.02" y2="89.03" xlink:href="#New_Gradient_Swatch_2"/><linearGradient id="New_Gradient_Swatch_3-2" x1="216.54" y1="66.47" x2="229.55" y2="79.48" xlink:href="#New_Gradient_Swatch_3"/></defs><title>second_t</title><g id="Orange-3" data-name="Orange"><polyline class="cls-1" points="314.44 49.13 319.89 54.57 332.58 41.88"/><polygon class="cls-2" points="133.41 21.13 155.76 46.23 133.41 72.32 46.22 72.32 46.22 21.13 133.41 21.13"/><path class="cls-3" d="M79,32.33l-2.29,7H75l-1.54-4.74-1.59,4.74H70.1l-2.29-7h1.67l1.58,4.92,1.65-4.92h1.5l1.6,5,1.63-5Z"/><path class="cls-3" d="M85.43,36.25v3.08H83.87V36.49c0-.87-.4-1.27-1.09-1.27s-1.29.46-1.29,1.45v2.66H79.93V31.91h1.56v2.6a2.36,2.36,0,0,1,1.71-.64A2.11,2.11,0,0,1,85.43,36.25Z"/><path class="cls-3" d="M92.14,37.08H88.07a1.43,1.43,0,0,0,1.54,1.08A1.82,1.82,0,0,0,91,37.64l.83.9a3.14,3.14,0,0,1-5.29-1.9,2.74,2.74,0,0,1,2.87-2.77,2.66,2.66,0,0,1,2.8,2.79C92.17,36.78,92.15,37,92.14,37.08Zm-4.09-.91H90.7a1.34,1.34,0,0,0-2.65,0Z"/><path class="cls-3" d="M98.71,36.25v3.08H97.15V36.49c0-.87-.4-1.27-1.09-1.27s-1.29.46-1.29,1.45v2.66H93.21V34H94.7v.63a2.36,2.36,0,0,1,1.78-.71A2.11,2.11,0,0,1,98.71,36.25Z"/><path class="cls-3" d="M108.29,34l-2.43,5.71a2.22,2.22,0,0,1-2.23,1.69,2.34,2.34,0,0,1-1.49-.49l.56-1.11a1.38,1.38,0,0,0,.88.34c.43,0,.67-.19.88-.67l0-.05L102.15,34h1.61l1.51,3.65L106.79,34Z"/><path class="cls-3" d="M108.39,36.64a3,3,0,1,1,3,2.77A2.76,2.76,0,0,1,108.39,36.64Zm4.32,0a1.38,1.38,0,1,0-1.37,1.49A1.36,1.36,0,0,0,112.71,36.64Z"/><path class="cls-3" d="M120.75,34v5.38h-1.48v-.64a2.18,2.18,0,0,1-1.67.72A2.14,2.14,0,0,1,115.3,37V34h1.56v2.81c0,.9.4,1.3,1.09,1.3s1.24-.46,1.24-1.45V34Z"/><path class="cls-3" d="M125.54,33.87v1.44l-.35,0a1.32,1.32,0,0,0-1.43,1.5v2.54H122.2V34h1.49v.71A2.17,2.17,0,0,1,125.54,33.87Z"/><path class="cls-3" d="M61.38,47.64a2.61,2.61,0,0,1-2.68,2.77,2.09,2.09,0,0,1-1.69-.7v.62H55.52V42.91h1.56v2.61a2.09,2.09,0,0,1,1.62-.65A2.61,2.61,0,0,1,61.38,47.64Zm-1.58,0a1.37,1.37,0,1,0-1.37,1.49A1.36,1.36,0,0,0,59.8,47.64Z"/><path class="cls-3" d="M62,47.64a3,3,0,1,1,3,2.77A2.77,2.77,0,0,1,62,47.64Zm4.33,0A1.38,1.38,0,1,0,65,49.13,1.36,1.36,0,0,0,66.35,47.64Z"/><path class="cls-3" d="M68.57,47.64a3,3,0,1,1,3,2.77A2.77,2.77,0,0,1,68.57,47.64Zm4.33,0a1.38,1.38,0,1,0-1.37,1.49A1.36,1.36,0,0,0,72.9,47.64Z"/><path class="cls-3" d="M77.83,48.22l-.75.74v1.37H75.52V42.91h1.56v4.2L79.36,45h1.86L79,47.23l2.44,3.1H79.53Z"/><path class="cls-3" d="M81.89,43.33a.88.88,0,0,1,1-.86.87.87,0,0,1,1,.83,1,1,0,0,1-1.94,0ZM82.08,45h1.56v5.38H82.08Z"/><path class="cls-3" d="M90.59,47.25v3.08H89V47.49c0-.87-.4-1.27-1.09-1.27s-1.29.46-1.29,1.45v2.66H85.09V45h1.49v.63a2.36,2.36,0,0,1,1.78-.71A2.11,2.11,0,0,1,90.59,47.25Z"/><path class="cls-3" d="M97.61,45v4.48c0,2-1.08,2.92-3,2.92A4.43,4.43,0,0,1,92,51.61l.62-1.12a3.22,3.22,0,0,0,1.9.61c1.1,0,1.58-.5,1.58-1.47V49.4a2.21,2.21,0,0,1-1.7.67,2.6,2.6,0,1,1,0-5.2,2.16,2.16,0,0,1,1.78.77V45Zm-1.54,2.52a1.42,1.42,0,1,0-1.41,1.32A1.31,1.31,0,0,0,96.07,47.47Z"/><path class="cls-3" d="M101.37,49.83l.52-1.12a3.68,3.68,0,0,0,1.87.52c.72,0,1-.19,1-.49,0-.88-3.25,0-3.25-2.13,0-1,.92-1.74,2.49-1.74a4.42,4.42,0,0,1,2.07.47l-.52,1.11a3.09,3.09,0,0,0-1.55-.4c-.7,0-1,.22-1,.5,0,.92,3.25,0,3.25,2.15,0,1-.93,1.71-2.54,1.71A4.62,4.62,0,0,1,101.37,49.83Z"/><path class="cls-3" d="M112.44,45,110,50.66a2.22,2.22,0,0,1-2.23,1.69,2.39,2.39,0,0,1-1.5-.49l.57-1.11a1.38,1.38,0,0,0,.88.34c.43,0,.67-.19.88-.67l0-.05L106.3,45h1.61l1.51,3.65L110.94,45Z"/><path class="cls-3" d="M112.48,49.83l.52-1.12a3.68,3.68,0,0,0,1.87.52c.72,0,1-.19,1-.49,0-.88-3.25,0-3.25-2.13,0-1,.92-1.74,2.49-1.74a4.42,4.42,0,0,1,2.07.47l-.52,1.11a3.09,3.09,0,0,0-1.55-.4c-.7,0-1,.22-1,.5,0,.92,3.25,0,3.25,2.15,0,1-.93,1.71-2.54,1.71A4.62,4.62,0,0,1,112.48,49.83Z"/><path class="cls-3" d="M121.78,50.07a2.23,2.23,0,0,1-1.27.34,1.77,1.77,0,0,1-2-1.93V46.27h-.83v-1.2h.83V43.76h1.56v1.31h1.34v1.2h-1.34v2.19a.63.63,0,0,0,.67.71,1.05,1.05,0,0,0,.63-.2Z"/><path class="cls-3" d="M127.73,48.08h-4.07a1.43,1.43,0,0,0,1.54,1.08,1.82,1.82,0,0,0,1.35-.52l.83.9a3.14,3.14,0,0,1-5.29-1.9A2.74,2.74,0,0,1,125,44.87a2.66,2.66,0,0,1,2.8,2.79C127.76,47.78,127.74,48,127.73,48.08Zm-4.09-.91h2.65a1.34,1.34,0,0,0-2.65,0Z"/><path class="cls-3" d="M137.89,47.25v3.08h-1.56V47.49c0-.87-.39-1.27-1-1.27s-1.19.45-1.19,1.41v2.7h-1.56V47.49c0-.87-.37-1.27-1-1.27s-1.18.45-1.18,1.41v2.7H128.8V45h1.49v.62a2.18,2.18,0,0,1,1.69-.7,2,2,0,0,1,1.77.88,2.42,2.42,0,0,1,1.94-.88A2.08,2.08,0,0,1,137.89,47.25Z"/><path class="cls-3" d="M78.31,54.33a.88.88,0,0,1,1-.86.87.87,0,0,1,1,.83,1,1,0,0,1-1.94,0ZM78.5,56h1.56v5.38H78.5Z"/><path class="cls-3" d="M81,60.83l.52-1.12a3.68,3.68,0,0,0,1.87.52c.72,0,1-.19,1-.49,0-.88-3.25,0-3.25-2.13,0-1,.92-1.74,2.49-1.74a4.42,4.42,0,0,1,2.07.47l-.52,1.11a3.09,3.09,0,0,0-1.55-.4c-.7,0-1,.22-1,.5,0,.92,3.25,0,3.25,2.15,0,1-.93,1.71-2.54,1.71A4.62,4.62,0,0,1,81,60.83Z"/><path class="cls-3" d="M89.25,58.64a3,3,0,1,1,3,2.77A2.77,2.77,0,0,1,89.25,58.64Zm4.33,0a1.38,1.38,0,1,0-1.37,1.49A1.36,1.36,0,0,0,93.58,58.64Z"/><path class="cls-3" d="M102.06,58.64a2.61,2.61,0,0,1-2.68,2.77,2.09,2.09,0,0,1-1.62-.65v2.51H96.2V56h1.49v.62a2.09,2.09,0,0,1,1.69-.7A2.61,2.61,0,0,1,102.06,58.64Zm-1.58,0a1.37,1.37,0,1,0-1.37,1.49A1.36,1.36,0,0,0,100.48,58.64Z"/><path class="cls-3" d="M108.34,59.08h-4.07a1.43,1.43,0,0,0,1.54,1.08,1.82,1.82,0,0,0,1.35-.52l.82.9a3.13,3.13,0,0,1-5.28-1.9,2.74,2.74,0,0,1,2.87-2.77,2.66,2.66,0,0,1,2.79,2.79C108.36,58.78,108.35,59,108.34,59.08Zm-4.09-.91h2.65a1.34,1.34,0,0,0-2.65,0Z"/><path class="cls-3" d="M114.9,58.25v3.08h-1.55V58.49c0-.87-.4-1.27-1.09-1.27s-1.29.46-1.29,1.45v2.66h-1.56V56h1.49v.63a2.36,2.36,0,0,1,1.78-.71A2.11,2.11,0,0,1,114.9,58.25Z"/><path class="cls-4" d="M381.08,52.88h13.59c3.85,0-.75,2.06-.75-1.41v1l1.58,1.54,1.12.59c.82-.17-.19,1.25.56,2.21.47.61,2.26,2.17,2.35,2.32H390C386.13,59.17,381.08,56.36,381.08,52.88Z"/><path class="cls-5" d="M396.83,54.05l.43.71c.82-.17.51,1.14,1.25,2.11a24.92,24.92,0,0,1,1.36,2.3l-.19,0c-1.33-.08-12.25.39-14.56-6.3H396"/><path class="cls-6" d="M371.18,37.07a6.45,6.45,0,0,0-4.32-1.66H355V41.9h11.89a6.48,6.48,0,0,1,6.48,6.48V41.9A6.47,6.47,0,0,0,371.18,37.07Z"/><path class="cls-7" d="M355,52.7V41.9a6.5,6.5,0,0,1,6.49-6.49H355a6.5,6.5,0,0,0-6.48,6.49v4.32A6.48,6.48,0,0,0,355,52.7Z"/><path class="cls-8" d="M371.18,37.07a6.45,6.45,0,0,0-4.32-1.66H355V41.9h11.89s6.48,7,6.48,10.6V41.9A6.47,6.47,0,0,0,371.18,37.07Z"/><path class="cls-9" d="M355,52.7V41.86s6.94-6.45,6.94-6.44,0,0,0,0H355a6.5,6.5,0,0,0-6.48,6.49v4.32C348.49,49.8,349.94,52.7,355,52.7Z"/><path class="cls-10" d="M388.84,35.27l11,23.89h0a11.37,11.37,0,0,1-9.69-6.32l-5.27-11.38a4.35,4.35,0,0,1,3.93-6.19Z"/><path class="cls-11" d="M366.86,41.9V52.67c0,4.2-6.28,6.51-9.86,6.51h9.86a6.48,6.48,0,0,0,6.48-6.48V48.38S366.86,41.89,366.86,41.9Z"/><path class="cls-12" d="M388.89,35.27a12,12,0,0,0-11.44,7.93c-4.45,10.9-7.36,16-18.32,16h10.28c5.57,0,8.89-2,12-8.19C384.4,45.2,384.75,38.91,388.89,35.27Z"/><path class="cls-3" d="M348.5,51.42a7.41,7.41,0,0,0,6.5,7.76h5c3.64,0,6.82-3.67,6.82-6.48H355l-6.48-7.48"/><line class="cls-13" x1="227.73" y1="109.22" x2="227.73" y2="133.75"/><polyline class="cls-13" points="215.36 122.61 227.51 134.76 239.66 122.62"/><line class="cls-13" x1="124.01" y1="109.67" x2="100.18" y2="133.5"/><polyline class="cls-13" points="99.31 116.87 99.31 134.06 116.49 134.06"/><line class="cls-13" x1="184.45" y1="109.67" x2="160.63" y2="133.5"/><polyline class="cls-13" points="159.75 116.87 159.75 134.06 176.93 134.06"/><line class="cls-13" x1="329.88" y1="109.67" x2="353.39" y2="133.18"/><polyline class="cls-13" points="336.76 134.06 353.95 134.06 353.95 116.88"/><line class="cls-13" x1="270.2" y1="109.67" x2="293.71" y2="133.18"/><polyline class="cls-13" points="277.09 134.06 294.27 134.06 294.27 116.88"/><path class="cls-3" d="M156,96.31v3.48h-2.27V96.28L150,90h2.41L155,94.34,157.62,90h2.23Z"/><path class="cls-3" d="M159.24,96a4.15,4.15,0,1,1,4.15,3.88A3.88,3.88,0,0,1,159.24,96Zm6.07,0a1.94,1.94,0,1,0-1.92,2.09A1.91,1.91,0,0,0,165.31,96Z"/><path class="cls-3" d="M176.56,92.25v7.54h-2.07v-.9a3.06,3.06,0,0,1-2.34,1c-1.89,0-3.22-1.07-3.22-3.39V92.25h2.18v3.94c0,1.26.56,1.82,1.53,1.82s1.74-.65,1.74-2V92.25Z"/><path class="cls-3" d="M183.27,92.14v2l-.49,0a1.85,1.85,0,0,0-2,2.1v3.56h-2.18V92.25h2.09v1A3,3,0,0,1,183.27,92.14Z"/><path class="cls-3" d="M196.79,96A3.66,3.66,0,0,1,193,99.9a2.93,2.93,0,0,1-2.37-1v.87h-2.09V89.39h2.19v3.66a2.91,2.91,0,0,1,2.27-.91A3.66,3.66,0,0,1,196.79,96Zm-2.21,0a1.93,1.93,0,1,0-1.92,2.09A1.91,1.91,0,0,0,194.58,96Z"/><path class="cls-3" d="M197.68,96a4.15,4.15,0,1,1,4.15,3.88A3.88,3.88,0,0,1,197.68,96Zm6.07,0a1.93,1.93,0,1,0-1.92,2.09A1.91,1.91,0,0,0,203.75,96Z"/><path class="cls-3" d="M206.85,96A4.15,4.15,0,1,1,211,99.9,3.88,3.88,0,0,1,206.85,96Zm6.07,0A1.93,1.93,0,1,0,211,98.11,1.91,1.91,0,0,0,212.92,96Z"/><path class="cls-3" d="M219.82,96.83l-1,1v1.92h-2.19V89.39h2.19v5.89l3.19-3h2.61l-3.14,3.19,3.42,4.35H222.2Z"/><path class="cls-3" d="M225.5,90a1.25,1.25,0,0,1,1.36-1.22,1.23,1.23,0,0,1,1.36,1.18,1.37,1.37,0,0,1-2.72,0Zm.27,2.27H228v7.54h-2.18Z"/><path class="cls-3" d="M237.69,95.47v4.32H235.5v-4c0-1.22-.56-1.78-1.53-1.78s-1.8.64-1.8,2v3.73H230V92.25h2.09v.88a3.31,3.31,0,0,1,2.49-1C236.34,92.14,237.69,93.17,237.69,95.47Z"/><path class="cls-3" d="M247.51,92.25v6.28c0,2.8-1.51,4.09-4.23,4.09a6.17,6.17,0,0,1-3.69-1l.86-1.57a4.52,4.52,0,0,0,2.67.85c1.54,0,2.21-.7,2.21-2v-.33a3.1,3.1,0,0,1-2.38.94,3.64,3.64,0,1,1,0-7.28,3,3,0,0,1,2.49,1.08v-1Zm-2.15,3.53a2,2,0,1,0-2,1.85A1.83,1.83,0,0,0,245.36,95.78Z"/><path class="cls-3" d="M252.77,99.09l.73-1.57a5.21,5.21,0,0,0,2.62.73c1,0,1.39-.27,1.39-.69,0-1.23-4.55,0-4.55-3,0-1.43,1.28-2.44,3.48-2.44a6.18,6.18,0,0,1,2.9.66l-.73,1.55a4.31,4.31,0,0,0-2.17-.56c-1,0-1.4.31-1.4.7,0,1.29,4.56,0,4.56,3,0,1.4-1.31,2.4-3.56,2.4A6.5,6.5,0,0,1,252.77,99.09Z"/><path class="cls-3" d="M268.27,92.25l-3.4,8c-.73,1.82-1.76,2.37-3.12,2.37a3.37,3.37,0,0,1-2.1-.69l.79-1.56a1.92,1.92,0,0,0,1.24.48c.6,0,.94-.27,1.23-.94l0-.07-3.27-7.59h2.26l2.12,5.11,2.12-5.11Z"/><path class="cls-3" d="M268.33,99.09l.73-1.57a5.18,5.18,0,0,0,2.62.73c1,0,1.38-.27,1.38-.69,0-1.23-4.55,0-4.55-3,0-1.43,1.29-2.44,3.49-2.44a6.24,6.24,0,0,1,2.9.66l-.73,1.55a4.34,4.34,0,0,0-2.17-.56c-1,0-1.4.31-1.4.7,0,1.29,4.55,0,4.55,3,0,1.4-1.3,2.4-3.56,2.4A6.49,6.49,0,0,1,268.33,99.09Z"/><path class="cls-3" d="M281.35,99.42a3.15,3.15,0,0,1-1.78.48,2.48,2.48,0,0,1-2.81-2.71V94.1h-1.17V92.42h1.17V90.58h2.18v1.84h1.88V94.1h-1.88v3.07a.88.88,0,0,0,.94,1,1.49,1.49,0,0,0,.88-.28Z"/><path class="cls-3" d="M289.68,96.63H284a2,2,0,0,0,2.16,1.52,2.55,2.55,0,0,0,1.89-.73l1.16,1.26a3.94,3.94,0,0,1-3.11,1.22c-2.6,0-4.3-1.64-4.3-3.88a3.83,3.83,0,0,1,4-3.88,3.73,3.73,0,0,1,3.92,3.91C289.72,96.21,289.69,96.45,289.68,96.63ZM284,95.36h3.71a1.88,1.88,0,0,0-3.71,0Z"/><path class="cls-3" d="M303.91,95.47v4.32h-2.19v-4c0-1.22-.54-1.78-1.43-1.78s-1.66.63-1.66,2v3.79h-2.19v-4c0-1.22-.52-1.78-1.43-1.78s-1.65.63-1.65,2v3.79h-2.18V92.25h2.08v.87a3,3,0,0,1,2.37-1,2.8,2.8,0,0,1,2.48,1.23,3.38,3.38,0,0,1,2.72-1.23C302.62,92.14,303.91,93.17,303.91,95.47Z"/><path class="cls-14" d="M278.62,48.1h27.87M340.29,59V36.55a5.68,5.68,0,0,0-5.67-5.67H312.16a5.68,5.68,0,0,0-5.67,5.67V59a5.68,5.68,0,0,0,5.67,5.67h22.46A5.68,5.68,0,0,0,340.29,59Z"/><rect class="cls-15" x="238.15" y="60.92" width="23.69" height="6.02"/><path class="cls-16" d="M227.26,11.18H275a3,3,0,0,1,3.28,2.72V77.66A3,3,0,0,1,275,80.37H178.53a3,3,0,0,1-3.28-2.71V13.9a3,3,0,0,1,3.28-2.72h48.73M176.8,24.27H277.62m-87.9,17.61h3m-3,11.4h3m-3,11.4h3m6.36-22.8h26.31m-26.31,11.4h26.31m-26.31,11.4h26.31m40.34-13.2V44.73a4.2,4.2,0,0,0-4.19-4.19H238.21A4.21,4.21,0,0,0,234,44.73v6.75a4.2,4.2,0,0,0,4.19,4.19h23.31A4.2,4.2,0,0,0,265.71,51.48Z"/><path class="cls-17" d="M228.81,73a3,3,0,1,1,3,3A3,3,0,0,1,228.81,73Zm-5.25,3a3,3,0,1,0-3-3A3,3,0,0,0,223.56,76Zm-9.28,0a3,3,0,1,0-3-3A3,3,0,0,0,214.28,76Z"/></g></svg>