<svg xmlns="http://www.w3.org/2000/svg" xmlns:xlink="http://www.w3.org/1999/xlink" viewBox="0 0 454.09 145.95"><defs><style>.cls-1,.cls-4,.cls-6,.cls-7{fill:none;}.cls-1,.cls-2,.cls-4{stroke:#c6c6c5;stroke-linejoin:round;stroke-width:2px;}.cls-1,.cls-2,.cls-4,.cls-6,.cls-7{stroke-linecap:round;}.cls-2{fill:#b1b1b1;}.cls-3{fill:#433e8f;}.cls-4{stroke-dasharray:6.09 7.1;}.cls-5{fill:#fff;}.cls-6,.cls-7{stroke-miterlimit:10;stroke-width:3px;}.cls-6{stroke:url(#linear-gradient);}.cls-7{stroke:url(#linear-gradient-2);}.cls-8{fill:url(#New_Gradient_Swatch_3);}</style><linearGradient id="linear-gradient" x1="199.97" y1="65.42" x2="215.04" y2="80.49" gradientUnits="userSpaceOnUse"><stop offset="0" stop-color="#ffee25"/><stop offset="0.37" stop-color="#f08f34"/><stop offset="1" stop-color="#e2312d"/></linearGradient><linearGradient id="linear-gradient-2" x1="180.97" y1="18.75" x2="273.12" y2="110.91" gradientUnits="userSpaceOnUse"><stop offset="0" stop-color="#00ade6"/><stop offset="0.06" stop-color="#00a3de"/><stop offset="0.25" stop-color="#0083c5"/><stop offset="0.36" stop-color="#0077bc"/><stop offset="0.73" stop-color="#353579"/><stop offset="0.97" stop-color="#1d1a55"/></linearGradient><linearGradient id="New_Gradient_Swatch_3" x1="253.72" y1="25.29" x2="266.73" y2="38.3" xlink:href="#linear-gradient"/></defs><title>third_ut</title><g id="Orange-3" data-name="Orange"><polyline class="cls-1" points="214.89 78.46 227.05 90.61 239.19 78.46"/><line class="cls-2" x1="227.27" y1="67.34" x2="227.27" y2="88.88"/><path class="cls-3" d="M185.34,122.13v3.48h-2.27V122.1l-3.79-6.3h2.41l2.62,4.36,2.61-4.36h2.23Z"/><path class="cls-3" d="M188.54,121.84a4.15,4.15,0,1,1,4.15,3.88A3.89,3.89,0,0,1,188.54,121.84Zm6.07,0a1.93,1.93,0,1,0-1.92,2.09A1.91,1.91,0,0,0,194.61,121.84Z"/><path class="cls-3" d="M205.87,118.07v7.54h-2.08v-.9a3,3,0,0,1-2.34,1c-1.89,0-3.22-1.07-3.22-3.39v-4.26h2.19V122c0,1.26.56,1.82,1.52,1.82s1.74-.65,1.74-2v-3.73Z"/><path class="cls-3" d="M212.57,118v2a4.15,4.15,0,0,0-.49,0,1.85,1.85,0,0,0-2,2.1v3.56h-2.19v-7.54H210v1A3.06,3.06,0,0,1,212.57,118Z"/><path class="cls-3" d="M230,118.07l-2.73,7.54h-2.1l-1.7-4.68-1.75,4.68h-2.1l-2.72-7.54H219l1.78,5.1,1.85-5.1h1.85l1.79,5.1,1.84-5.1Z"/><path class="cls-3" d="M238.14,122.46h-5.7a2,2,0,0,0,2.15,1.51,2.54,2.54,0,0,0,1.89-.73l1.17,1.26a3.94,3.94,0,0,1-3.11,1.22c-2.61,0-4.3-1.64-4.3-3.88a3.83,3.83,0,0,1,4-3.88,3.73,3.73,0,0,1,3.92,3.91C238.18,122,238.15,122.27,238.14,122.46Zm-5.73-1.28h3.71a1.88,1.88,0,0,0-3.71,0Z"/><path class="cls-3" d="M247.84,121.84a3.66,3.66,0,0,1-3.75,3.88,2.92,2.92,0,0,1-2.37-1v.87h-2.09v-10.4h2.19v3.66a2.91,2.91,0,0,1,2.27-.91A3.66,3.66,0,0,1,247.84,121.84Zm-2.21,0a1.93,1.93,0,1,0-1.92,2.09A1.91,1.91,0,0,0,245.63,121.84Z"/><path class="cls-3" d="M248.56,124.91l.73-1.57a5.21,5.21,0,0,0,2.62.73c1,0,1.39-.27,1.39-.69,0-1.23-4.56,0-4.56-3,0-1.43,1.29-2.44,3.49-2.44a6.18,6.18,0,0,1,2.9.66l-.73,1.55a4.31,4.31,0,0,0-2.17-.56c-1,0-1.4.31-1.4.7,0,1.29,4.55,0,4.55,3,0,1.4-1.3,2.4-3.55,2.4A6.5,6.5,0,0,1,248.56,124.91Z"/><path class="cls-3" d="M256.46,115.8a1.26,1.26,0,0,1,1.36-1.22,1.23,1.23,0,0,1,1.36,1.18,1.37,1.37,0,0,1-2.72,0Zm.27,2.27h2.18v7.54h-2.18Z"/><path class="cls-3" d="M265.8,125.24a3.15,3.15,0,0,1-1.78.48,2.49,2.49,0,0,1-2.82-2.7v-3.1H260v-1.68h1.16V116.4h2.19v1.84h1.88v1.68h-1.88V123a.88.88,0,0,0,.94,1,1.49,1.49,0,0,0,.88-.28Z"/><path class="cls-3" d="M274.13,122.46h-5.7a2,2,0,0,0,2.16,1.51,2.55,2.55,0,0,0,1.89-.73l1.16,1.26a3.94,3.94,0,0,1-3.11,1.22c-2.6,0-4.3-1.64-4.3-3.88a3.83,3.83,0,0,1,4-3.88,3.73,3.73,0,0,1,3.92,3.91C274.17,122,274.14,122.27,274.13,122.46Zm-5.73-1.28h3.71a1.88,1.88,0,0,0-3.71,0Z"/><line class="cls-1" x1="18.38" y1="36.31" x2="21.34" y2="35.87"/><polyline class="cls-4" points="28.37 34.81 227.99 4.84 429.23 35.33"/><line class="cls-1" x1="432.74" y1="35.87" x2="435.71" y2="36.31"/><rect class="cls-5" x="172.02" y="22.71" width="110.04" height="84.24" rx="5.41" ry="5.41"/><path class="cls-5" d="M276.66,25.49a2.64,2.64,0,0,1,2.62,2.63v73.42a2.64,2.64,0,0,1-2.62,2.63H177.43a2.65,2.65,0,0,1-2.63-2.63V28.12a2.65,2.65,0,0,1,2.63-2.63h99.23m0-5.56H177.43a8.2,8.2,0,0,0-8.19,8.19v73.42a8.19,8.19,0,0,0,8.19,8.19h99.23a8.2,8.2,0,0,0,8.19-8.19V28.12a8.21,8.21,0,0,0-8.19-8.19Z"/><path class="cls-6" d="M208.92,73.44l-7.62-7.18-9.67,10.12m32-6.61-6.94-6L203.55,80.14"/><path class="cls-7" d="M276.66,104.17H177.43a2.65,2.65,0,0,1-2.63-2.63V28.12a2.65,2.65,0,0,1,2.63-2.63h99.23a2.64,2.64,0,0,1,2.62,2.63v73.42A2.64,2.64,0,0,1,276.66,104.17ZM174.8,37.7H279.28M230.69,51.91h34.24m-34.24,9h34.24M230.69,70.7h34.24m-34.24,9.44h34.24M192.42,90.53h72.51m-41.29-10.8V52.79a.89.89,0,0,0-.88-.88H192.51a.89.89,0,0,0-.88.88V79.73a.89.89,0,0,0,.88.88h30.25A.89.89,0,0,0,223.64,79.73Z"/><path class="cls-8" d="M266,31.8a3,3,0,1,1,3,3A3,3,0,0,1,266,31.8Zm-5.25,3a3,3,0,1,0-3-3A3,3,0,0,0,260.74,34.8Zm-9.28,0a3,3,0,1,0-3-3A3,3,0,0,0,251.46,34.8Z"/></g></svg>