<svg id="Layer_1" data-name="Layer 1" xmlns="http://www.w3.org/2000/svg" xmlns:xlink="http://www.w3.org/1999/xlink" viewBox="0 0 113.39 113.39"><defs><style>.cls-1,.cls-4,.cls-5{fill:#fff;}.cls-1,.cls-4,.cls-5,.cls-7{stroke-linecap:round;}.cls-1,.cls-5,.cls-7{stroke-linejoin:round;}.cls-1,.cls-4{stroke-width:4.47px;}.cls-1{stroke:url(#linear-gradient);}.cls-2{fill:url(#linear-gradient-2);}.cls-3{fill:url(#linear-gradient-3);}.cls-4{stroke-miterlimit:10;stroke:url(#linear-gradient-4);}.cls-5{stroke-width:4.53px;stroke:url(#linear-gradient-5);}.cls-6{fill:url(#linear-gradient-6);}.cls-7{fill:none;stroke-width:4.3px;stroke:url(#linear-gradient-7);}</style><linearGradient id="linear-gradient" x1="12.96" y1="80.08" x2="58.7" y2="80.08" gradientUnits="userSpaceOnUse"><stop offset="0" stop-color="#1d9ad7"/><stop offset="0.48" stop-color="#1366af"/><stop offset="1" stop-color="#423f92"/></linearGradient><linearGradient id="linear-gradient-2" x1="35.83" y1="31.55" x2="35.83" y2="51.94" gradientUnits="userSpaceOnUse"><stop offset="0" stop-color="#f7a834"/><stop offset="0.18" stop-color="#f59a33"/><stop offset="0.53" stop-color="#f07632"/><stop offset="0.99" stop-color="#e73b30"/><stop offset="1" stop-color="#e73a30"/></linearGradient><linearGradient id="linear-gradient-3" x1="75.46" y1="34.81" x2="75.46" y2="55.2" xlink:href="#linear-gradient-2"/><linearGradient id="linear-gradient-4" x1="54.96" y1="106.42" x2="95.89" y2="65.5" xlink:href="#linear-gradient"/><linearGradient id="linear-gradient-5" x1="37.44" y1="89.21" x2="68.82" y2="89.21" xlink:href="#linear-gradient"/><linearGradient id="linear-gradient-6" x1="53.13" y1="56.05" x2="53.13" y2="71.56" xlink:href="#linear-gradient-2"/><linearGradient id="linear-gradient-7" x1="39.33" y1="21.38" x2="77.05" y2="21.38" gradientUnits="userSpaceOnUse"><stop offset="0" stop-color="#f7a834"/><stop offset="0.88" stop-color="#e94730"/><stop offset="1" stop-color="#e73a30"/></linearGradient></defs><title>family</title><path class="cls-1" d="M24.11,94.5a9,9,0,0,1-8.92-8.92V64.12a9,9,0,0,1,8.92-8.92H47.54a9,9,0,0,1,8.92,8.92V85.58a9,9,0,0,1-8.92,8.92h-1v10.44H25.41V94.51Z"/><circle class="cls-2" cx="35.83" cy="41.75" r="10.2"/><circle class="cls-3" cx="75.46" cy="45.01" r="10.2"/><path class="cls-4" d="M66.46,104.95h-9.7a.23.23,0,0,1-.23-.29S65,76.16,65.76,73.48h0l-4.66,16c-1.49,4.37-9.65,2.57-8.21-2.11l6.95-21.76c.74-2.48,3-6.88,8.74-6.88H82.27c5.66,0,8,4.44,8.81,6.88l7,21.74C99.43,92,91.21,94,89.72,89.48c0,0-5.58-18.94-4.94-16.68h0l9.58,31.85a.23.23,0,0,1-.23.29H66.91"/><path class="cls-5" d="M46.95,105.44V98.54H45.51a5.82,5.82,0,0,1-5.8-5.8v-14a5.82,5.82,0,0,1,5.8-5.8H60.75a5.82,5.82,0,0,1,5.8,5.8v14a5.82,5.82,0,0,1-5.8,5.8H59.37v6.89Z"/><circle class="cls-6" cx="53.13" cy="63.8" r="7.76"/><path class="cls-7" d="M67.29,7.95c-8.21,0-9.09,6.73-9.09,6.73s-.89-6.73-9.09-6.73-9.19,7.95-5.75,12.32S58.19,34.81,58.19,34.81,69.6,24.63,73,20.26,75.49,7.95,67.29,7.95Z"/></svg>