<svg id="Layer_1" data-name="Layer 1" xmlns="http://www.w3.org/2000/svg" xmlns:xlink="http://www.w3.org/1999/xlink" viewBox="0 0 113.39 113.39"><defs><style>.cls-1{fill:none;stroke:url(#linear-gradient);}.cls-1,.cls-3,.cls-5{stroke-linecap:round;stroke-linejoin:round;stroke-width:3.63px;}.cls-2{fill:url(#linear-gradient-2);}.cls-3,.cls-5{fill:#fff;}.cls-3{stroke:url(#linear-gradient-3);}.cls-4{fill:url(#linear-gradient-4);}.cls-5{stroke:url(#linear-gradient-5);}.cls-6{fill:url(#linear-gradient-6);}</style><linearGradient id="linear-gradient" x1="37.99" y1="59.27" x2="75.1" y2="59.27" gradientUnits="userSpaceOnUse"><stop offset="0" stop-color="#1d9ad7"/><stop offset="0.48" stop-color="#1366af"/><stop offset="1" stop-color="#423f92"/></linearGradient><linearGradient id="linear-gradient-2" x1="56.55" y1="19.91" x2="56.55" y2="36.45" gradientUnits="userSpaceOnUse"><stop offset="0" stop-color="#f7a834"/><stop offset="0.18" stop-color="#f59a33"/><stop offset="0.53" stop-color="#f07632"/><stop offset="0.99" stop-color="#e73b30"/><stop offset="1" stop-color="#e73a30"/></linearGradient><linearGradient id="linear-gradient-3" x1="10.06" y1="73.3" x2="47.16" y2="73.3" xlink:href="#linear-gradient"/><linearGradient id="linear-gradient-4" x1="28.61" y1="33.94" x2="28.61" y2="50.48" xlink:href="#linear-gradient-2"/><linearGradient id="linear-gradient-5" x1="66.23" y1="73.3" x2="103.33" y2="73.3" xlink:href="#linear-gradient"/><linearGradient id="linear-gradient-6" x1="84.78" y1="33.94" x2="84.78" y2="50.48" xlink:href="#linear-gradient-2"/></defs><title>people</title><path class="cls-1" d="M47,71a7.26,7.26,0,0,1-7.23-7.23V46.33A7.26,7.26,0,0,1,47,39.09H66a7.26,7.26,0,0,1,7.23,7.23V63.74A7.26,7.26,0,0,1,66,71h-.77v8.47H48.1V71Z"/><circle class="cls-2" cx="56.55" cy="28.18" r="8.27"/><path class="cls-3" d="M19.1,85a7.26,7.26,0,0,1-7.23-7.23V60.36a7.26,7.26,0,0,1,7.23-7.23h19a7.26,7.26,0,0,1,7.23,7.23V77.77A7.26,7.26,0,0,1,38.11,85h-.77v8.47H20.16V85Z"/><circle class="cls-4" cx="28.61" cy="42.21" r="8.27"/><path class="cls-5" d="M75.28,85A7.26,7.26,0,0,1,68,77.77V60.36a7.26,7.26,0,0,1,7.23-7.23h19a7.26,7.26,0,0,1,7.23,7.23V77.77A7.26,7.26,0,0,1,94.28,85h-.77v8.47H76.33V85Z"/><circle class="cls-6" cx="84.78" cy="42.21" r="8.27"/></svg>