<svg id="Layer_1" data-name="Layer 1" xmlns="http://www.w3.org/2000/svg" xmlns:xlink="http://www.w3.org/1999/xlink" viewBox="0 0 113.39 113.39"><defs><style>.cls-1{fill:url(#linear-gradient);}.cls-2{fill:url(#New_Gradient_Swatch_copy);}.cls-3{fill:none;stroke-linecap:round;stroke-miterlimit:10;stroke-width:4.48px;stroke:url(#linear-gradient-2);}.cls-4{fill:url(#New_Gradient_Swatch_copy-2);}</style><linearGradient id="linear-gradient" x1="20.85" y1="41.26" x2="43.17" y2="18.95" gradientUnits="userSpaceOnUse"><stop offset="0" stop-color="#1d9ad7"/><stop offset="0.48" stop-color="#1366af"/><stop offset="1" stop-color="#423f92"/></linearGradient><linearGradient id="New_Gradient_Swatch_copy" x1="55.16" y1="24" x2="72.98" y2="24" gradientUnits="userSpaceOnUse"><stop offset="0" stop-color="#f7a834"/><stop offset="1" stop-color="#e73a30"/></linearGradient><linearGradient id="linear-gradient-2" x1="37.83" y1="100.64" x2="96" y2="42.47" xlink:href="#linear-gradient"/><linearGradient id="New_Gradient_Swatch_copy-2" x1="13.5" y1="24.92" x2="20.43" y2="23.09" xlink:href="#New_Gradient_Swatch_copy"/></defs><title>tennis</title><path class="cls-1" d="M37.07,32.21a.19.19,0,0,1,0-.11A14.36,14.36,0,0,0,40,18.8h0C38,11.43,31.38,6.76,25.16,8.4s-9.7,9-7.76,16.33a14.36,14.36,0,0,0,9,10.18.19.19,0,0,1,.1.08l3.73,5.63,0,.06,3.55,13.48a.2.2,0,0,0,.24.14l5.77-1.52a.2.2,0,0,0,.14-.24L36.4,39.07a.2.2,0,0,1,0-.07ZM20.39,23.94c-1.48-5.63,1-11.19,5.6-12.39a7,7,0,0,1,1.79-.23c4,0,7.89,3.36,9.18,8.26,1.48,5.63-1,11.19-5.6,12.39S21.87,29.57,20.39,23.94Zm9.27,11.51a9.9,9.9,0,0,0,4.49-1.08.19.19,0,0,1,.28.19l-.35,3.49a.2.2,0,0,1-.15.17L32,38.74a.2.2,0,0,1-.21-.08l-2.12-3.21Zm5.75,15.08-2.29-8.7a.17.17,0,0,1,.12-.21l1-.26a.17.17,0,0,1,.21.12l2.29,8.7a.17.17,0,0,1-.12.21l-1,.26A.17.17,0,0,1,35.41,50.53Z"/><circle class="cls-2" cx="64.07" cy="24" r="8.91"/><path class="cls-3" d="M53,44l-.13.2a18,18,0,0,1-5.36,5.4c-2.46,1.57-4.62,2.24-9,2.26h0c-4.52-.63-5.42,6.75,0,6.93,0,0,6.84.36,12.33-2.41,5.2-2.62,8.51-9.67,8.19-8.95L59,70.16,44.71,101.88a2.24,2.24,0,0,0,1.89,3.43h4.75a2.24,2.24,0,0,0,1.81-.92L65.83,77.08a2.33,2.33,0,0,1,2.11-1.35H68a2.33,2.33,0,0,1,2.19,1.54L74.5,89.13a2.58,2.58,0,0,0,2.43,1.71H96.69a2.24,2.24,0,0,0,2.09-3l-1-2.51a2.24,2.24,0,0,0-2.09-1.43H82.34L77.1,67.2V44.46h1.19c2.62,0,6.13.49,12.31,6.34l2.19,2.07c2.75,3.64,9.87-.32,6.16-4.28L95.23,45A30.56,30.56,0,0,0,74.09,36.2s-3.31-.08-6.7,0A17.63,17.63,0,0,0,53,44Z"/><circle class="cls-4" cx="16.97" cy="24" r="3.58"/></svg>