<svg id="Layer_1" data-name="Layer 1" xmlns="http://www.w3.org/2000/svg" xmlns:xlink="http://www.w3.org/1999/xlink" viewBox="0 0 113.39 113.39"><defs><style>.cls-1,.cls-3{fill:#fff;stroke-linecap:round;stroke-linejoin:round;stroke-width:4.39px;}.cls-1{stroke:url(#linear-gradient);}.cls-2{fill:url(#linear-gradient-2);}.cls-3{stroke:url(#linear-gradient-3);}.cls-4{fill:url(#linear-gradient-4);}</style><linearGradient id="linear-gradient" x1="12.79" y1="68.52" x2="58.69" y2="68.52" gradientUnits="userSpaceOnUse"><stop offset="0" stop-color="#1d9ad7"/><stop offset="0.48" stop-color="#1366af"/><stop offset="1" stop-color="#423f92"/></linearGradient><linearGradient id="linear-gradient-2" x1="29.96" y1="23.5" x2="29.96" y2="43.89" gradientUnits="userSpaceOnUse"><stop offset="0" stop-color="#f7a834"/><stop offset="0.18" stop-color="#f59a33"/><stop offset="0.53" stop-color="#f07632"/><stop offset="0.99" stop-color="#e73b30"/><stop offset="1" stop-color="#e73a30"/></linearGradient><linearGradient id="linear-gradient-3" x1="-4864.69" y1="68.52" x2="-4818.8" y2="68.52" gradientTransform="matrix(-1, 0, 0, 1, -4764.1, 0)" xlink:href="#linear-gradient"/><linearGradient id="linear-gradient-4" x1="-4847.52" y1="23.5" x2="-4847.52" y2="43.89" gradientTransform="matrix(-1, 0, 0, 1, -4764.1, 0)" xlink:href="#linear-gradient-2"/></defs><title>shaking-hands</title><path class="cls-1" d="M47.43,76.21V56.07a8.8,8.8,0,0,0-8.62-8.92H23.61A8.8,8.8,0,0,0,15,56.07V77.53a8.8,8.8,0,0,0,8.62,8.92h1.26l.21-28.55v32l31.16-2.44.25-7.56L34,78.53V64.64"/><circle class="cls-2" cx="29.96" cy="33.69" r="10.2"/><path class="cls-3" d="M66,76.21V56.07a8.8,8.8,0,0,1,8.62-8.92h15.2a8.8,8.8,0,0,1,8.62,8.92V77.53a8.8,8.8,0,0,1-8.62,8.92H88.52L88.31,57.9v32L57.15,87.45l-.25-7.56,22.5-1.36V64.64"/><circle class="cls-4" cx="83.42" cy="33.69" r="10.2"/></svg>